G04 #@! TF.GenerationSoftware,KiCad,Pcbnew,(5.99.0-823-ga085f82be)*
G04 #@! TF.CreationDate,2020-03-07T17:34:11-08:00*
G04 #@! TF.ProjectId,DCC_Booster,4443435f-426f-46f7-9374-65722e6b6963,A*
G04 #@! TF.SameCoordinates,Original*
G04 #@! TF.FileFunction,Legend,Top*
G04 #@! TF.FilePolarity,Positive*
%FSLAX46Y46*%
G04 Gerber Fmt 4.6, Leading zero omitted, Abs format (unit mm)*
G04 Created by KiCad (PCBNEW (5.99.0-823-ga085f82be)) date 2020-03-07 17:34:11*
%MOMM*%
%LPD*%
G04 APERTURE LIST*
%ADD10C,0.203200*%
%ADD11C,0.120000*%
%ADD12C,0.127000*%
%ADD13C,0.150000*%
G04 APERTURE END LIST*
D10*
X129159000Y-131499428D02*
X129159000Y-129975428D01*
X129521857Y-129975428D01*
X129739571Y-130048000D01*
X129884714Y-130193142D01*
X129957285Y-130338285D01*
X130029857Y-130628571D01*
X130029857Y-130846285D01*
X129957285Y-131136571D01*
X129884714Y-131281714D01*
X129739571Y-131426857D01*
X129521857Y-131499428D01*
X129159000Y-131499428D01*
X130683000Y-131499428D02*
X130683000Y-129975428D01*
X131191000Y-131064000D01*
X131699000Y-129975428D01*
X131699000Y-131499428D01*
X132932714Y-130701142D02*
X132424714Y-130701142D01*
X132424714Y-131499428D02*
X132424714Y-129975428D01*
X133150428Y-129975428D01*
X133731000Y-130701142D02*
X134239000Y-130701142D01*
X134456714Y-131499428D02*
X133731000Y-131499428D01*
X133731000Y-129975428D01*
X134456714Y-129975428D01*
X136198428Y-130120571D02*
X136271000Y-130048000D01*
X136416142Y-129975428D01*
X136779000Y-129975428D01*
X136924142Y-130048000D01*
X136996714Y-130120571D01*
X137069285Y-130265714D01*
X137069285Y-130410857D01*
X136996714Y-130628571D01*
X136125857Y-131499428D01*
X137069285Y-131499428D01*
X138012714Y-129975428D02*
X138157857Y-129975428D01*
X138303000Y-130048000D01*
X138375571Y-130120571D01*
X138448142Y-130265714D01*
X138520714Y-130556000D01*
X138520714Y-130918857D01*
X138448142Y-131209142D01*
X138375571Y-131354285D01*
X138303000Y-131426857D01*
X138157857Y-131499428D01*
X138012714Y-131499428D01*
X137867571Y-131426857D01*
X137795000Y-131354285D01*
X137722428Y-131209142D01*
X137649857Y-130918857D01*
X137649857Y-130556000D01*
X137722428Y-130265714D01*
X137795000Y-130120571D01*
X137867571Y-130048000D01*
X138012714Y-129975428D01*
X139101285Y-130120571D02*
X139173857Y-130048000D01*
X139319000Y-129975428D01*
X139681857Y-129975428D01*
X139827000Y-130048000D01*
X139899571Y-130120571D01*
X139972142Y-130265714D01*
X139972142Y-130410857D01*
X139899571Y-130628571D01*
X139028714Y-131499428D01*
X139972142Y-131499428D01*
X140915571Y-129975428D02*
X141060714Y-129975428D01*
X141205857Y-130048000D01*
X141278428Y-130120571D01*
X141351000Y-130265714D01*
X141423571Y-130556000D01*
X141423571Y-130918857D01*
X141351000Y-131209142D01*
X141278428Y-131354285D01*
X141205857Y-131426857D01*
X141060714Y-131499428D01*
X140915571Y-131499428D01*
X140770428Y-131426857D01*
X140697857Y-131354285D01*
X140625285Y-131209142D01*
X140552714Y-130918857D01*
X140552714Y-130556000D01*
X140625285Y-130265714D01*
X140697857Y-130120571D01*
X140770428Y-130048000D01*
X140915571Y-129975428D01*
X125893285Y-128324428D02*
X125893285Y-126800428D01*
X126256142Y-126800428D01*
X126473857Y-126873000D01*
X126619000Y-127018142D01*
X126691571Y-127163285D01*
X126764142Y-127453571D01*
X126764142Y-127671285D01*
X126691571Y-127961571D01*
X126619000Y-128106714D01*
X126473857Y-128251857D01*
X126256142Y-128324428D01*
X125893285Y-128324428D01*
X128288142Y-128179285D02*
X128215571Y-128251857D01*
X127997857Y-128324428D01*
X127852714Y-128324428D01*
X127635000Y-128251857D01*
X127489857Y-128106714D01*
X127417285Y-127961571D01*
X127344714Y-127671285D01*
X127344714Y-127453571D01*
X127417285Y-127163285D01*
X127489857Y-127018142D01*
X127635000Y-126873000D01*
X127852714Y-126800428D01*
X127997857Y-126800428D01*
X128215571Y-126873000D01*
X128288142Y-126945571D01*
X129812142Y-128179285D02*
X129739571Y-128251857D01*
X129521857Y-128324428D01*
X129376714Y-128324428D01*
X129159000Y-128251857D01*
X129013857Y-128106714D01*
X128941285Y-127961571D01*
X128868714Y-127671285D01*
X128868714Y-127453571D01*
X128941285Y-127163285D01*
X129013857Y-127018142D01*
X129159000Y-126873000D01*
X129376714Y-126800428D01*
X129521857Y-126800428D01*
X129739571Y-126873000D01*
X129812142Y-126945571D01*
X132134428Y-127526142D02*
X132352142Y-127598714D01*
X132424714Y-127671285D01*
X132497285Y-127816428D01*
X132497285Y-128034142D01*
X132424714Y-128179285D01*
X132352142Y-128251857D01*
X132207000Y-128324428D01*
X131626428Y-128324428D01*
X131626428Y-126800428D01*
X132134428Y-126800428D01*
X132279571Y-126873000D01*
X132352142Y-126945571D01*
X132424714Y-127090714D01*
X132424714Y-127235857D01*
X132352142Y-127381000D01*
X132279571Y-127453571D01*
X132134428Y-127526142D01*
X131626428Y-127526142D01*
X133368142Y-128324428D02*
X133223000Y-128251857D01*
X133150428Y-128179285D01*
X133077857Y-128034142D01*
X133077857Y-127598714D01*
X133150428Y-127453571D01*
X133223000Y-127381000D01*
X133368142Y-127308428D01*
X133585857Y-127308428D01*
X133731000Y-127381000D01*
X133803571Y-127453571D01*
X133876142Y-127598714D01*
X133876142Y-128034142D01*
X133803571Y-128179285D01*
X133731000Y-128251857D01*
X133585857Y-128324428D01*
X133368142Y-128324428D01*
X134747000Y-128324428D02*
X134601857Y-128251857D01*
X134529285Y-128179285D01*
X134456714Y-128034142D01*
X134456714Y-127598714D01*
X134529285Y-127453571D01*
X134601857Y-127381000D01*
X134747000Y-127308428D01*
X134964714Y-127308428D01*
X135109857Y-127381000D01*
X135182428Y-127453571D01*
X135255000Y-127598714D01*
X135255000Y-128034142D01*
X135182428Y-128179285D01*
X135109857Y-128251857D01*
X134964714Y-128324428D01*
X134747000Y-128324428D01*
X135835571Y-128251857D02*
X135980714Y-128324428D01*
X136271000Y-128324428D01*
X136416142Y-128251857D01*
X136488714Y-128106714D01*
X136488714Y-128034142D01*
X136416142Y-127889000D01*
X136271000Y-127816428D01*
X136053285Y-127816428D01*
X135908142Y-127743857D01*
X135835571Y-127598714D01*
X135835571Y-127526142D01*
X135908142Y-127381000D01*
X136053285Y-127308428D01*
X136271000Y-127308428D01*
X136416142Y-127381000D01*
X136924142Y-127308428D02*
X137504714Y-127308428D01*
X137141857Y-126800428D02*
X137141857Y-128106714D01*
X137214428Y-128251857D01*
X137359571Y-128324428D01*
X137504714Y-128324428D01*
X138593285Y-128251857D02*
X138448142Y-128324428D01*
X138157857Y-128324428D01*
X138012714Y-128251857D01*
X137940142Y-128106714D01*
X137940142Y-127526142D01*
X138012714Y-127381000D01*
X138157857Y-127308428D01*
X138448142Y-127308428D01*
X138593285Y-127381000D01*
X138665857Y-127526142D01*
X138665857Y-127671285D01*
X137940142Y-127816428D01*
X139319000Y-128324428D02*
X139319000Y-127308428D01*
X139319000Y-127598714D02*
X139391571Y-127453571D01*
X139464142Y-127381000D01*
X139609285Y-127308428D01*
X139754428Y-127308428D01*
X142294428Y-128324428D02*
X141786428Y-127598714D01*
X141423571Y-128324428D02*
X141423571Y-126800428D01*
X142004142Y-126800428D01*
X142149285Y-126873000D01*
X142221857Y-126945571D01*
X142294428Y-127090714D01*
X142294428Y-127308428D01*
X142221857Y-127453571D01*
X142149285Y-127526142D01*
X142004142Y-127598714D01*
X141423571Y-127598714D01*
X143528142Y-128251857D02*
X143383000Y-128324428D01*
X143092714Y-128324428D01*
X142947571Y-128251857D01*
X142875000Y-128106714D01*
X142875000Y-127526142D01*
X142947571Y-127381000D01*
X143092714Y-127308428D01*
X143383000Y-127308428D01*
X143528142Y-127381000D01*
X143600714Y-127526142D01*
X143600714Y-127671285D01*
X142875000Y-127816428D01*
X144108714Y-127308428D02*
X144471571Y-128324428D01*
X144834428Y-127308428D01*
X146503571Y-127889000D02*
X147229285Y-127889000D01*
X146358428Y-128324428D02*
X146866428Y-126800428D01*
X147374428Y-128324428D01*
X65039875Y-111651142D02*
X64949160Y-111796285D01*
X64949160Y-112014000D01*
X65039875Y-112231714D01*
X65221303Y-112376857D01*
X65402732Y-112449428D01*
X65765589Y-112522000D01*
X66037732Y-112522000D01*
X66400589Y-112449428D01*
X66582017Y-112376857D01*
X66763446Y-112231714D01*
X66854160Y-112014000D01*
X66854160Y-111868857D01*
X66763446Y-111651142D01*
X66672732Y-111578571D01*
X66037732Y-111578571D01*
X66037732Y-111868857D01*
X66854160Y-110925428D02*
X64949160Y-110925428D01*
X66854160Y-110054571D01*
X64949160Y-110054571D01*
X66854160Y-109328857D02*
X64949160Y-109328857D01*
X64949160Y-108966000D01*
X65039875Y-108748285D01*
X65221303Y-108603142D01*
X65402732Y-108530571D01*
X65765589Y-108458000D01*
X66037732Y-108458000D01*
X66400589Y-108530571D01*
X66582017Y-108603142D01*
X66763446Y-108748285D01*
X66854160Y-108966000D01*
X66854160Y-109328857D01*
X69195496Y-112449428D02*
X69195496Y-111288285D01*
X69921210Y-111868857D02*
X68469782Y-111868857D01*
X68016210Y-109836857D02*
X68016210Y-110562571D01*
X68923353Y-110635142D01*
X68832639Y-110562571D01*
X68741925Y-110417428D01*
X68741925Y-110054571D01*
X68832639Y-109909428D01*
X68923353Y-109836857D01*
X69104782Y-109764285D01*
X69558353Y-109764285D01*
X69739782Y-109836857D01*
X69830496Y-109909428D01*
X69921210Y-110054571D01*
X69921210Y-110417428D01*
X69830496Y-110562571D01*
X69739782Y-110635142D01*
X68016210Y-109328857D02*
X69921210Y-108820857D01*
X68016210Y-108312857D01*
X72262546Y-113175142D02*
X72262546Y-112014000D01*
X72988260Y-112594571D02*
X71536832Y-112594571D01*
X71264689Y-111360857D02*
X71173975Y-111288285D01*
X71083260Y-111143142D01*
X71083260Y-110780285D01*
X71173975Y-110635142D01*
X71264689Y-110562571D01*
X71446117Y-110490000D01*
X71627546Y-110490000D01*
X71899689Y-110562571D01*
X72988260Y-111433428D01*
X72988260Y-110490000D01*
X71718260Y-109183714D02*
X72988260Y-109183714D01*
X70992546Y-109546571D02*
X72353260Y-109909428D01*
X72353260Y-108966000D01*
X71083260Y-108603142D02*
X72988260Y-108095142D01*
X71083260Y-107587142D01*
X75329596Y-113175142D02*
X75329596Y-112014000D01*
X76055310Y-112594571D02*
X74603882Y-112594571D01*
X76055310Y-110490000D02*
X76055310Y-111360857D01*
X76055310Y-110925428D02*
X74150310Y-110925428D01*
X74422453Y-111070571D01*
X74603882Y-111215714D01*
X74694596Y-111360857D01*
X74150310Y-109111142D02*
X74150310Y-109836857D01*
X75057453Y-109909428D01*
X74966739Y-109836857D01*
X74876025Y-109691714D01*
X74876025Y-109328857D01*
X74966739Y-109183714D01*
X75057453Y-109111142D01*
X75238882Y-109038571D01*
X75692453Y-109038571D01*
X75873882Y-109111142D01*
X75964596Y-109183714D01*
X76055310Y-109328857D01*
X76055310Y-109691714D01*
X75964596Y-109836857D01*
X75873882Y-109909428D01*
X74150310Y-108603142D02*
X76055310Y-108095142D01*
X74150310Y-107587142D01*
X79122360Y-114408857D02*
X77217360Y-114408857D01*
X79031646Y-112594571D02*
X79122360Y-112376857D01*
X79122360Y-112014000D01*
X79031646Y-111868857D01*
X78940932Y-111796285D01*
X78759503Y-111723714D01*
X78578075Y-111723714D01*
X78396646Y-111796285D01*
X78305932Y-111868857D01*
X78215217Y-112014000D01*
X78124503Y-112304285D01*
X78033789Y-112449428D01*
X77943075Y-112522000D01*
X77761646Y-112594571D01*
X77580217Y-112594571D01*
X77398789Y-112522000D01*
X77308075Y-112449428D01*
X77217360Y-112304285D01*
X77217360Y-111941428D01*
X77308075Y-111723714D01*
X79031646Y-110490000D02*
X79122360Y-110635142D01*
X79122360Y-110925428D01*
X79031646Y-111070571D01*
X78850217Y-111143142D01*
X78124503Y-111143142D01*
X77943075Y-111070571D01*
X77852360Y-110925428D01*
X77852360Y-110635142D01*
X77943075Y-110490000D01*
X78124503Y-110417428D01*
X78305932Y-110417428D01*
X78487360Y-111143142D01*
X77852360Y-109764285D02*
X79122360Y-109764285D01*
X78033789Y-109764285D02*
X77943075Y-109691714D01*
X77852360Y-109546571D01*
X77852360Y-109328857D01*
X77943075Y-109183714D01*
X78124503Y-109111142D01*
X79122360Y-109111142D01*
X79031646Y-108458000D02*
X79122360Y-108312857D01*
X79122360Y-108022571D01*
X79031646Y-107877428D01*
X78850217Y-107804857D01*
X78759503Y-107804857D01*
X78578075Y-107877428D01*
X78487360Y-108022571D01*
X78487360Y-108240285D01*
X78396646Y-108385428D01*
X78215217Y-108458000D01*
X78124503Y-108458000D01*
X77943075Y-108385428D01*
X77852360Y-108240285D01*
X77852360Y-108022571D01*
X77943075Y-107877428D01*
X79031646Y-106571142D02*
X79122360Y-106716285D01*
X79122360Y-107006571D01*
X79031646Y-107151714D01*
X78850217Y-107224285D01*
X78124503Y-107224285D01*
X77943075Y-107151714D01*
X77852360Y-107006571D01*
X77852360Y-106716285D01*
X77943075Y-106571142D01*
X78124503Y-106498571D01*
X78305932Y-106498571D01*
X78487360Y-107224285D01*
X82189410Y-114771714D02*
X80284410Y-114771714D01*
X80284410Y-114408857D01*
X80375125Y-114191142D01*
X80556553Y-114046000D01*
X80737982Y-113973428D01*
X81100839Y-113900857D01*
X81372982Y-113900857D01*
X81735839Y-113973428D01*
X81917267Y-114046000D01*
X82098696Y-114191142D01*
X82189410Y-114408857D01*
X82189410Y-114771714D01*
X82007982Y-112376857D02*
X82098696Y-112449428D01*
X82189410Y-112667142D01*
X82189410Y-112812285D01*
X82098696Y-113030000D01*
X81917267Y-113175142D01*
X81735839Y-113247714D01*
X81372982Y-113320285D01*
X81100839Y-113320285D01*
X80737982Y-113247714D01*
X80556553Y-113175142D01*
X80375125Y-113030000D01*
X80284410Y-112812285D01*
X80284410Y-112667142D01*
X80375125Y-112449428D01*
X80465839Y-112376857D01*
X82007982Y-110852857D02*
X82098696Y-110925428D01*
X82189410Y-111143142D01*
X82189410Y-111288285D01*
X82098696Y-111506000D01*
X81917267Y-111651142D01*
X81735839Y-111723714D01*
X81372982Y-111796285D01*
X81100839Y-111796285D01*
X80737982Y-111723714D01*
X80556553Y-111651142D01*
X80375125Y-111506000D01*
X80284410Y-111288285D01*
X80284410Y-111143142D01*
X80375125Y-110925428D01*
X80465839Y-110852857D01*
X82098696Y-109111142D02*
X82189410Y-108893428D01*
X82189410Y-108530571D01*
X82098696Y-108385428D01*
X82007982Y-108312857D01*
X81826553Y-108240285D01*
X81645125Y-108240285D01*
X81463696Y-108312857D01*
X81372982Y-108385428D01*
X81282267Y-108530571D01*
X81191553Y-108820857D01*
X81100839Y-108966000D01*
X81010125Y-109038571D01*
X80828696Y-109111142D01*
X80647267Y-109111142D01*
X80465839Y-109038571D01*
X80375125Y-108966000D01*
X80284410Y-108820857D01*
X80284410Y-108458000D01*
X80375125Y-108240285D01*
X82189410Y-107587142D02*
X80919410Y-107587142D01*
X80284410Y-107587142D02*
X80375125Y-107659714D01*
X80465839Y-107587142D01*
X80375125Y-107514571D01*
X80284410Y-107587142D01*
X80465839Y-107587142D01*
X80919410Y-106208285D02*
X82461553Y-106208285D01*
X82642982Y-106280857D01*
X82733696Y-106353428D01*
X82824410Y-106498571D01*
X82824410Y-106716285D01*
X82733696Y-106861428D01*
X82098696Y-106208285D02*
X82189410Y-106353428D01*
X82189410Y-106643714D01*
X82098696Y-106788857D01*
X82007982Y-106861428D01*
X81826553Y-106934000D01*
X81282267Y-106934000D01*
X81100839Y-106861428D01*
X81010125Y-106788857D01*
X80919410Y-106643714D01*
X80919410Y-106353428D01*
X81010125Y-106208285D01*
D11*
X144765000Y-67305000D02*
X148565000Y-67305000D01*
X144765000Y-77805000D02*
X148565000Y-77805000D01*
X144655000Y-63445000D02*
X144655000Y-81665000D01*
X148675000Y-63445000D02*
X144655000Y-63445000D01*
X148675000Y-81665000D02*
X148675000Y-63445000D01*
X144655000Y-81665000D02*
X148675000Y-81665000D01*
X147015000Y-61365000D02*
X151755000Y-61365000D01*
X147015000Y-83745000D02*
X151755000Y-83745000D01*
X147015000Y-59945000D02*
X153175000Y-59945000D01*
X147015000Y-85165000D02*
X153175000Y-85165000D01*
X151755000Y-61365000D02*
X151755000Y-83745000D01*
X153175000Y-59945000D02*
X153175000Y-85165000D01*
X73020000Y-60590000D02*
X73020000Y-59490000D01*
X72750000Y-60590000D02*
X73020000Y-60590000D01*
X72750000Y-62090000D02*
X72750000Y-60590000D01*
X79380000Y-60590000D02*
X79380000Y-57760000D01*
X79650000Y-60590000D02*
X79380000Y-60590000D01*
X79650000Y-62090000D02*
X79650000Y-60590000D01*
X73020000Y-94880000D02*
X73020000Y-93780000D01*
X72750000Y-94880000D02*
X73020000Y-94880000D01*
X72750000Y-96380000D02*
X72750000Y-94880000D01*
X79380000Y-94880000D02*
X79380000Y-92050000D01*
X79650000Y-94880000D02*
X79380000Y-94880000D01*
X79650000Y-96380000D02*
X79650000Y-94880000D01*
X81275000Y-60590000D02*
X81275000Y-59490000D01*
X81005000Y-60590000D02*
X81275000Y-60590000D01*
X81005000Y-62090000D02*
X81005000Y-60590000D01*
X87635000Y-60590000D02*
X87635000Y-57760000D01*
X87905000Y-60590000D02*
X87635000Y-60590000D01*
X87905000Y-62090000D02*
X87905000Y-60590000D01*
X81275000Y-94880000D02*
X81275000Y-93780000D01*
X81005000Y-94880000D02*
X81275000Y-94880000D01*
X81005000Y-96380000D02*
X81005000Y-94880000D01*
X87635000Y-94880000D02*
X87635000Y-92050000D01*
X87905000Y-94880000D02*
X87635000Y-94880000D01*
X87905000Y-96380000D02*
X87905000Y-94880000D01*
X133350000Y-110470000D02*
X131400000Y-110470000D01*
X133350000Y-110470000D02*
X135300000Y-110470000D01*
X133350000Y-115590000D02*
X131400000Y-115590000D01*
X133350000Y-115590000D02*
X136800000Y-115590000D01*
X102235000Y-92055000D02*
X100285000Y-92055000D01*
X102235000Y-92055000D02*
X104185000Y-92055000D01*
X102235000Y-97175000D02*
X100285000Y-97175000D01*
X102235000Y-97175000D02*
X105685000Y-97175000D01*
X84290000Y-126695000D02*
X85890000Y-126695000D01*
X85890000Y-123495000D02*
X83590000Y-123495000D01*
X96520000Y-118130000D02*
X98470000Y-118130000D01*
X96520000Y-118130000D02*
X94570000Y-118130000D01*
X96520000Y-113010000D02*
X98470000Y-113010000D01*
X96520000Y-113010000D02*
X93070000Y-113010000D01*
X112475000Y-134315000D02*
X114075000Y-134315000D01*
X114075000Y-131115000D02*
X111775000Y-131115000D01*
X94615000Y-134790000D02*
X98475000Y-134790000D01*
X98475000Y-134790000D02*
X98475000Y-134545000D01*
X94615000Y-134790000D02*
X90755000Y-134790000D01*
X90755000Y-134790000D02*
X90755000Y-134545000D01*
X94615000Y-123020000D02*
X98475000Y-123020000D01*
X98475000Y-123020000D02*
X98475000Y-123265000D01*
X94615000Y-123020000D02*
X90755000Y-123020000D01*
X90755000Y-123020000D02*
X90755000Y-123265000D01*
X90755000Y-123265000D02*
X88940000Y-123265000D01*
X74295000Y-128290000D02*
X76245000Y-128290000D01*
X74295000Y-128290000D02*
X72345000Y-128290000D01*
X74295000Y-123170000D02*
X76245000Y-123170000D01*
X74295000Y-123170000D02*
X70845000Y-123170000D01*
X112475000Y-129870000D02*
X114075000Y-129870000D01*
X114075000Y-126670000D02*
X111775000Y-126670000D01*
X133350000Y-117455000D02*
X131400000Y-117455000D01*
X133350000Y-117455000D02*
X135300000Y-117455000D01*
X133350000Y-122575000D02*
X131400000Y-122575000D01*
X133350000Y-122575000D02*
X136800000Y-122575000D01*
X102235000Y-99040000D02*
X100285000Y-99040000D01*
X102235000Y-99040000D02*
X104185000Y-99040000D01*
X102235000Y-104160000D02*
X100285000Y-104160000D01*
X102235000Y-104160000D02*
X105685000Y-104160000D01*
X119625000Y-134610000D02*
X121575000Y-134610000D01*
X119625000Y-134610000D02*
X117675000Y-134610000D01*
X119625000Y-125740000D02*
X121575000Y-125740000D01*
X119625000Y-125740000D02*
X116175000Y-125740000D01*
X93784000Y-74085000D02*
X105505000Y-74085000D01*
X93784000Y-82705000D02*
X105505000Y-82705000D01*
X93784000Y-74085000D02*
X93784000Y-82705000D01*
X105505000Y-74085000D02*
X105505000Y-82705000D01*
X93544000Y-81705000D02*
X93544000Y-82945000D01*
X93544000Y-82945000D02*
X94784000Y-82945000D01*
X153735000Y-67494000D02*
X153735000Y-77735000D01*
X149094000Y-67494000D02*
X149094000Y-69850000D01*
X149094000Y-71980000D02*
X149094000Y-73250000D01*
X149094000Y-75380000D02*
X149094000Y-77735000D01*
X153735000Y-67494000D02*
X149094000Y-67494000D01*
X153735000Y-77735000D02*
X149094000Y-77735000D01*
X152226000Y-67494000D02*
X152226000Y-77735000D01*
X153735000Y-70765000D02*
X152226000Y-70765000D01*
X153735000Y-74465000D02*
X152226000Y-74465000D01*
X149094000Y-69215000D02*
X146464000Y-69215000D01*
X149094000Y-72615000D02*
X146480000Y-72615000D01*
X149094000Y-76015000D02*
X146480000Y-76015000D01*
X70095000Y-67540000D02*
X65795000Y-67540000D01*
X65795000Y-67540000D02*
X65795000Y-75090000D01*
X70095000Y-67540000D02*
X70095000Y-75090000D01*
X83115000Y-118110000D02*
G75*
G03*
X83115000Y-118110000I-1200000J0D01*
G01*
X79940000Y-118110000D02*
G75*
G03*
X79940000Y-118110000I-1200000J0D01*
G01*
X76765000Y-118110000D02*
G75*
G03*
X76765000Y-118110000I-1200000J0D01*
G01*
X73590000Y-118110000D02*
G75*
G03*
X73590000Y-118110000I-1200000J0D01*
G01*
X70415000Y-118110000D02*
G75*
G03*
X70415000Y-118110000I-1200000J0D01*
G01*
X67240000Y-118110000D02*
G75*
G03*
X67240000Y-118110000I-1200000J0D01*
G01*
X51055000Y-91235000D02*
X61975000Y-91235000D01*
X51055000Y-105616000D02*
X61975000Y-105616000D01*
X51055000Y-91235000D02*
X51055000Y-105616000D01*
X61975000Y-91235000D02*
X61975000Y-105616000D01*
X50815000Y-90995000D02*
X52198000Y-90995000D01*
X50815000Y-90995000D02*
X50815000Y-92378000D01*
X49195000Y-92535000D02*
X51055000Y-92535000D01*
X49195000Y-94155000D02*
X51055000Y-94155000D01*
X49195000Y-92535000D02*
X49195000Y-94155000D01*
X51055000Y-92535000D02*
X51055000Y-94155000D01*
X49195000Y-95075000D02*
X51055000Y-95075000D01*
X49195000Y-96695000D02*
X51055000Y-96695000D01*
X49195000Y-95075000D02*
X49195000Y-96695000D01*
X51055000Y-95075000D02*
X51055000Y-96695000D01*
X49195000Y-97615000D02*
X51055000Y-97615000D01*
X49195000Y-99235000D02*
X51055000Y-99235000D01*
X49195000Y-97615000D02*
X49195000Y-99235000D01*
X51055000Y-97615000D02*
X51055000Y-99235000D01*
X49195000Y-100155000D02*
X51055000Y-100155000D01*
X49195000Y-101775000D02*
X51055000Y-101775000D01*
X49195000Y-100155000D02*
X49195000Y-101775000D01*
X51055000Y-100155000D02*
X51055000Y-101775000D01*
X49195000Y-102695000D02*
X51055000Y-102695000D01*
X49195000Y-104315000D02*
X51055000Y-104315000D01*
X49195000Y-102695000D02*
X49195000Y-104315000D01*
X51055000Y-102695000D02*
X51055000Y-104315000D01*
X144855000Y-113403748D02*
X144855000Y-113926252D01*
X143435000Y-113403748D02*
X143435000Y-113926252D01*
X113740000Y-94988748D02*
X113740000Y-95511252D01*
X112320000Y-94988748D02*
X112320000Y-95511252D01*
X129913748Y-108510000D02*
X130436252Y-108510000D01*
X129913748Y-109930000D02*
X130436252Y-109930000D01*
X98798748Y-90095000D02*
X99321252Y-90095000D01*
X98798748Y-91515000D02*
X99321252Y-91515000D01*
X80205000Y-54952064D02*
X80205000Y-50847936D01*
X83625000Y-54952064D02*
X83625000Y-50847936D01*
X90431252Y-115010000D02*
X89908748Y-115010000D01*
X90431252Y-113590000D02*
X89908748Y-113590000D01*
X89908748Y-111685000D02*
X90431252Y-111685000D01*
X89908748Y-113105000D02*
X90431252Y-113105000D01*
X90431252Y-111200000D02*
X89908748Y-111200000D01*
X90431252Y-109780000D02*
X89908748Y-109780000D01*
X90431252Y-116915000D02*
X89908748Y-116915000D01*
X90431252Y-115495000D02*
X89908748Y-115495000D01*
X110810000Y-132453748D02*
X110810000Y-132976252D01*
X109390000Y-132453748D02*
X109390000Y-132976252D01*
X65031252Y-104215000D02*
X64508748Y-104215000D01*
X65031252Y-102795000D02*
X64508748Y-102795000D01*
X65031252Y-102310000D02*
X64508748Y-102310000D01*
X65031252Y-100890000D02*
X64508748Y-100890000D01*
X65031252Y-100405000D02*
X64508748Y-100405000D01*
X65031252Y-98985000D02*
X64508748Y-98985000D01*
X65031252Y-98500000D02*
X64508748Y-98500000D01*
X65031252Y-97080000D02*
X64508748Y-97080000D01*
X65031252Y-96595000D02*
X64508748Y-96595000D01*
X65031252Y-95175000D02*
X64508748Y-95175000D01*
X103766252Y-116915000D02*
X103243748Y-116915000D01*
X103766252Y-115495000D02*
X103243748Y-115495000D01*
X103766252Y-118820000D02*
X103243748Y-118820000D01*
X103766252Y-117400000D02*
X103243748Y-117400000D01*
X66301252Y-90880000D02*
X65778748Y-90880000D01*
X66301252Y-89460000D02*
X65778748Y-89460000D01*
X66301252Y-88975000D02*
X65778748Y-88975000D01*
X66301252Y-87555000D02*
X65778748Y-87555000D01*
X66301252Y-87070000D02*
X65778748Y-87070000D01*
X66301252Y-85650000D02*
X65778748Y-85650000D01*
X66301252Y-85165000D02*
X65778748Y-85165000D01*
X66301252Y-83745000D02*
X65778748Y-83745000D01*
X66301252Y-83260000D02*
X65778748Y-83260000D01*
X66301252Y-81840000D02*
X65778748Y-81840000D01*
X66301252Y-81355000D02*
X65778748Y-81355000D01*
X66301252Y-79935000D02*
X65778748Y-79935000D01*
X74490000Y-54952064D02*
X74490000Y-50847936D01*
X77910000Y-54952064D02*
X77910000Y-50847936D01*
X89908748Y-119305000D02*
X90431252Y-119305000D01*
X89908748Y-120725000D02*
X90431252Y-120725000D01*
X63695000Y-63616252D02*
X63695000Y-60843748D01*
X67115000Y-63616252D02*
X67115000Y-60843748D01*
X68140000Y-63616252D02*
X68140000Y-60843748D01*
X71560000Y-63616252D02*
X71560000Y-60843748D01*
X66301252Y-127710000D02*
X65778748Y-127710000D01*
X66301252Y-126290000D02*
X65778748Y-126290000D01*
X66301252Y-125170000D02*
X65778748Y-125170000D01*
X66301252Y-123750000D02*
X65778748Y-123750000D01*
X82625000Y-124833748D02*
X82625000Y-125356252D01*
X81205000Y-124833748D02*
X81205000Y-125356252D01*
X113536252Y-125170000D02*
X113013748Y-125170000D01*
X113536252Y-123750000D02*
X113013748Y-123750000D01*
X122293748Y-117400000D02*
X122816252Y-117400000D01*
X122293748Y-118820000D02*
X122816252Y-118820000D01*
X122293748Y-119940000D02*
X122816252Y-119940000D01*
X122293748Y-121360000D02*
X122816252Y-121360000D01*
X91178748Y-98985000D02*
X91701252Y-98985000D01*
X91178748Y-100405000D02*
X91701252Y-100405000D01*
X91178748Y-101525000D02*
X91701252Y-101525000D01*
X91178748Y-102945000D02*
X91701252Y-102945000D01*
X142165000Y-80271252D02*
X142165000Y-79748748D01*
X143585000Y-80271252D02*
X143585000Y-79748748D01*
X145490000Y-79748748D02*
X145490000Y-80271252D01*
X144070000Y-79748748D02*
X144070000Y-80271252D01*
X145975000Y-80271252D02*
X145975000Y-79748748D01*
X147395000Y-80271252D02*
X147395000Y-79748748D01*
X121740000Y-88076849D02*
G75*
G03*
X121740000Y-63893152I-2360000J12091849D01*
G01*
X117020000Y-88076849D02*
G75*
G02*
X117020000Y-63893152I2360000J12091849D01*
G01*
X122010000Y-75985000D02*
G75*
G03*
X122010000Y-75985000I-2630000J0D01*
G01*
X104080000Y-134045000D02*
X106740000Y-134045000D01*
X104080000Y-123825000D02*
X104080000Y-134045000D01*
X106740000Y-123825000D02*
X106740000Y-134045000D01*
X104080000Y-123825000D02*
X106740000Y-123825000D01*
X104080000Y-122555000D02*
X104080000Y-121225000D01*
X104080000Y-121225000D02*
X105410000Y-121225000D01*
D10*
X46228000Y-120091200D02*
X42296080Y-120091200D01*
X42296080Y-120091200D02*
X42296080Y-131368800D01*
X42296080Y-131368800D02*
X46228000Y-131368800D01*
D12*
X53832920Y-121920000D02*
G75*
G03*
X53832920Y-121920000I-1127920J0D01*
G01*
X52705000Y-120322340D02*
X52705000Y-123520200D01*
X51107340Y-121920000D02*
X54302660Y-121920000D01*
X53832920Y-129540000D02*
G75*
G03*
X53832920Y-129540000I-1127920J0D01*
G01*
X52705000Y-127939800D02*
X52705000Y-131137660D01*
X51107340Y-129540000D02*
X54302660Y-129540000D01*
D10*
X46228000Y-108026200D02*
X42296080Y-108026200D01*
X42296080Y-108026200D02*
X42296080Y-119303800D01*
X42296080Y-119303800D02*
X46228000Y-119303800D01*
D12*
X53832920Y-109855000D02*
G75*
G03*
X53832920Y-109855000I-1127920J0D01*
G01*
X52705000Y-108257340D02*
X52705000Y-111455200D01*
X51107340Y-109855000D02*
X54302660Y-109855000D01*
X53832920Y-117475000D02*
G75*
G03*
X53832920Y-117475000I-1127920J0D01*
G01*
X52705000Y-115874800D02*
X52705000Y-119072660D01*
X51107340Y-117475000D02*
X54302660Y-117475000D01*
D11*
X56555000Y-56405000D02*
X47135000Y-56405000D01*
X47135000Y-56405000D02*
X47135000Y-76945000D01*
X47135000Y-76945000D02*
X56555000Y-76945000D01*
X56555000Y-56405000D02*
X56555000Y-58005000D01*
X56555000Y-76945000D02*
X56555000Y-75345000D01*
X56555000Y-60105000D02*
X56555000Y-63085000D01*
X56555000Y-65185000D02*
X56555000Y-68165000D01*
X56555000Y-70265000D02*
X56555000Y-73245000D01*
X50445000Y-56405000D02*
X50445000Y-76945000D01*
X57845000Y-59355000D02*
X57245000Y-59055000D01*
X57245000Y-59055000D02*
X57845000Y-58755000D01*
X57845000Y-58755000D02*
X57845000Y-59355000D01*
X60208748Y-72585000D02*
X62981252Y-72585000D01*
X60208748Y-76005000D02*
X62981252Y-76005000D01*
X60208748Y-67505000D02*
X62981252Y-67505000D01*
X60208748Y-70925000D02*
X62981252Y-70925000D01*
X121695000Y-91060000D02*
X121695000Y-94360000D01*
X121695000Y-94360000D02*
X127095000Y-94360000D01*
X121695000Y-91060000D02*
X127095000Y-91060000D01*
X142605000Y-110780000D02*
X140605000Y-110780000D01*
X140605000Y-110780000D02*
X140605000Y-114680000D01*
X142605000Y-110780000D02*
X142605000Y-114680000D01*
X111490000Y-92365000D02*
X109490000Y-92365000D01*
X109490000Y-92365000D02*
X109490000Y-96265000D01*
X111490000Y-92365000D02*
X111490000Y-96265000D01*
X95595000Y-96885000D02*
X95595000Y-94885000D01*
X95595000Y-94885000D02*
X91695000Y-94885000D01*
X95595000Y-96885000D02*
X91695000Y-96885000D01*
X126710000Y-115300000D02*
X126710000Y-113300000D01*
X126710000Y-113300000D02*
X122810000Y-113300000D01*
X126710000Y-115300000D02*
X122810000Y-115300000D01*
X122210000Y-110760000D02*
X122210000Y-112760000D01*
X122210000Y-112760000D02*
X126110000Y-112760000D01*
X122210000Y-110760000D02*
X126110000Y-110760000D01*
X91095000Y-92345000D02*
X91095000Y-94345000D01*
X91095000Y-94345000D02*
X94995000Y-94345000D01*
X91095000Y-92345000D02*
X94995000Y-92345000D01*
X56071392Y-85322665D02*
G75*
G03*
X55914484Y-88555000I1078608J-1672335D01*
G01*
X58228608Y-85322665D02*
G75*
G02*
X58385516Y-88555000I-1078608J-1672335D01*
G01*
X56070163Y-85953870D02*
G75*
G03*
X56070000Y-88035961I1079837J-1041130D01*
G01*
X58229837Y-85953870D02*
G75*
G02*
X58230000Y-88035961I-1079837J-1041130D01*
G01*
X55914000Y-88555000D02*
X56070000Y-88555000D01*
X58230000Y-88555000D02*
X58386000Y-88555000D01*
X53531392Y-85322665D02*
G75*
G03*
X53374484Y-88555000I1078608J-1672335D01*
G01*
X55688608Y-85322665D02*
G75*
G02*
X55845516Y-88555000I-1078608J-1672335D01*
G01*
X53530163Y-85953870D02*
G75*
G03*
X53530000Y-88035961I1079837J-1041130D01*
G01*
X55689837Y-85953870D02*
G75*
G02*
X55690000Y-88035961I-1079837J-1041130D01*
G01*
X53374000Y-88555000D02*
X53530000Y-88555000D01*
X55690000Y-88555000D02*
X55846000Y-88555000D01*
X50991392Y-85322665D02*
G75*
G03*
X50834484Y-88555000I1078608J-1672335D01*
G01*
X53148608Y-85322665D02*
G75*
G02*
X53305516Y-88555000I-1078608J-1672335D01*
G01*
X50990163Y-85953870D02*
G75*
G03*
X50990000Y-88035961I1079837J-1041130D01*
G01*
X53149837Y-85953870D02*
G75*
G02*
X53150000Y-88035961I-1079837J-1041130D01*
G01*
X50834000Y-88555000D02*
X50990000Y-88555000D01*
X53150000Y-88555000D02*
X53306000Y-88555000D01*
X56071392Y-80242665D02*
G75*
G03*
X55914484Y-83475000I1078608J-1672335D01*
G01*
X58228608Y-80242665D02*
G75*
G02*
X58385516Y-83475000I-1078608J-1672335D01*
G01*
X56070163Y-80873870D02*
G75*
G03*
X56070000Y-82955961I1079837J-1041130D01*
G01*
X58229837Y-80873870D02*
G75*
G02*
X58230000Y-82955961I-1079837J-1041130D01*
G01*
X55914000Y-83475000D02*
X56070000Y-83475000D01*
X58230000Y-83475000D02*
X58386000Y-83475000D01*
X53531392Y-80242665D02*
G75*
G03*
X53374484Y-83475000I1078608J-1672335D01*
G01*
X55688608Y-80242665D02*
G75*
G02*
X55845516Y-83475000I-1078608J-1672335D01*
G01*
X53530163Y-80873870D02*
G75*
G03*
X53530000Y-82955961I1079837J-1041130D01*
G01*
X55689837Y-80873870D02*
G75*
G02*
X55690000Y-82955961I-1079837J-1041130D01*
G01*
X53374000Y-83475000D02*
X53530000Y-83475000D01*
X55690000Y-83475000D02*
X55846000Y-83475000D01*
X50991392Y-80242665D02*
G75*
G03*
X50834484Y-83475000I1078608J-1672335D01*
G01*
X53148608Y-80242665D02*
G75*
G02*
X53305516Y-83475000I-1078608J-1672335D01*
G01*
X50990163Y-80873870D02*
G75*
G03*
X50990000Y-82955961I1079837J-1041130D01*
G01*
X53149837Y-80873870D02*
G75*
G02*
X53150000Y-82955961I-1079837J-1041130D01*
G01*
X50834000Y-83475000D02*
X50990000Y-83475000D01*
X53150000Y-83475000D02*
X53306000Y-83475000D01*
X70215000Y-123480000D02*
X68215000Y-123480000D01*
X68215000Y-123480000D02*
X68215000Y-127380000D01*
X70215000Y-123480000D02*
X70215000Y-127380000D01*
X72750000Y-75460000D02*
X72750000Y-76960000D01*
X72750000Y-76960000D02*
X73020000Y-76960000D01*
X73020000Y-76960000D02*
X73020000Y-79790000D01*
X79650000Y-75460000D02*
X79650000Y-76960000D01*
X79650000Y-76960000D02*
X79380000Y-76960000D01*
X79380000Y-76960000D02*
X79380000Y-78060000D01*
X72750000Y-86890000D02*
X72750000Y-88390000D01*
X72750000Y-88390000D02*
X73020000Y-88390000D01*
X73020000Y-88390000D02*
X73020000Y-91220000D01*
X79650000Y-86890000D02*
X79650000Y-88390000D01*
X79650000Y-88390000D02*
X79380000Y-88390000D01*
X79380000Y-88390000D02*
X79380000Y-89490000D01*
X81005000Y-75460000D02*
X81005000Y-76960000D01*
X81005000Y-76960000D02*
X81275000Y-76960000D01*
X81275000Y-76960000D02*
X81275000Y-79790000D01*
X87905000Y-75460000D02*
X87905000Y-76960000D01*
X87905000Y-76960000D02*
X87635000Y-76960000D01*
X87635000Y-76960000D02*
X87635000Y-78060000D01*
X81005000Y-86890000D02*
X81005000Y-88390000D01*
X81005000Y-88390000D02*
X81275000Y-88390000D01*
X81275000Y-88390000D02*
X81275000Y-91220000D01*
X87905000Y-86890000D02*
X87905000Y-88390000D01*
X87905000Y-88390000D02*
X87635000Y-88390000D01*
X87635000Y-88390000D02*
X87635000Y-89490000D01*
X129830000Y-123460000D02*
X129830000Y-125460000D01*
X129830000Y-125460000D02*
X133730000Y-125460000D01*
X129830000Y-123460000D02*
X133730000Y-123460000D01*
X98715000Y-105045000D02*
X98715000Y-107045000D01*
X98715000Y-107045000D02*
X102615000Y-107045000D01*
X98715000Y-105045000D02*
X102615000Y-105045000D01*
X139975000Y-82020000D02*
X139975000Y-80520000D01*
X139975000Y-80520000D02*
X139705000Y-80520000D01*
X139705000Y-80520000D02*
X139705000Y-77690000D01*
X133075000Y-82020000D02*
X133075000Y-80520000D01*
X133075000Y-80520000D02*
X133345000Y-80520000D01*
X133345000Y-80520000D02*
X133345000Y-79420000D01*
X133075000Y-72530000D02*
X133075000Y-74030000D01*
X133075000Y-74030000D02*
X133345000Y-74030000D01*
X133345000Y-74030000D02*
X133345000Y-76860000D01*
X139975000Y-72530000D02*
X139975000Y-74030000D01*
X139975000Y-74030000D02*
X139705000Y-74030000D01*
X139705000Y-74030000D02*
X139705000Y-75130000D01*
X102490000Y-68805000D02*
X105790000Y-68805000D01*
X105790000Y-68805000D02*
X105790000Y-63405000D01*
X102490000Y-68805000D02*
X102490000Y-63405000D01*
X108920000Y-52980000D02*
X110420000Y-52980000D01*
X110420000Y-52980000D02*
X110420000Y-52710000D01*
X110420000Y-52710000D02*
X113250000Y-52710000D01*
X108920000Y-46080000D02*
X110420000Y-46080000D01*
X110420000Y-46080000D02*
X110420000Y-46350000D01*
X110420000Y-46350000D02*
X111520000Y-46350000D01*
X118410000Y-46080000D02*
X116910000Y-46080000D01*
X116910000Y-46080000D02*
X116910000Y-46350000D01*
X116910000Y-46350000D02*
X114080000Y-46350000D01*
X118410000Y-52980000D02*
X116910000Y-52980000D01*
X116910000Y-52980000D02*
X116910000Y-52710000D01*
X116910000Y-52710000D02*
X115810000Y-52710000D01*
X106980000Y-53700000D02*
X105480000Y-53700000D01*
X105480000Y-53700000D02*
X105480000Y-53970000D01*
X105480000Y-53970000D02*
X102650000Y-53970000D01*
X106980000Y-60600000D02*
X105480000Y-60600000D01*
X105480000Y-60600000D02*
X105480000Y-60330000D01*
X105480000Y-60330000D02*
X104380000Y-60330000D01*
X120350000Y-60600000D02*
X121850000Y-60600000D01*
X121850000Y-60600000D02*
X121850000Y-60330000D01*
X121850000Y-60330000D02*
X124680000Y-60330000D01*
X120350000Y-53700000D02*
X121850000Y-53700000D01*
X121850000Y-53700000D02*
X121850000Y-53970000D01*
X121850000Y-53970000D02*
X122950000Y-53970000D01*
X101780000Y-62050000D02*
X98030000Y-62050000D01*
X91260000Y-62050000D02*
X95010000Y-62050000D01*
X91260000Y-71505563D02*
X91260000Y-62050000D01*
X101780000Y-71505563D02*
X101780000Y-62050000D01*
X100715563Y-72570000D02*
X98030000Y-72570000D01*
X92324437Y-72570000D02*
X95010000Y-72570000D01*
X92324437Y-72570000D02*
X91260000Y-71505563D01*
X100715563Y-72570000D02*
X101780000Y-71505563D01*
X93760000Y-74060000D02*
X93760000Y-72810000D01*
X93135000Y-73435000D02*
X94385000Y-73435000D01*
X118565000Y-95070000D02*
X118565000Y-98820000D01*
X118565000Y-105590000D02*
X118565000Y-101840000D01*
X128020563Y-105590000D02*
X118565000Y-105590000D01*
X128020563Y-95070000D02*
X118565000Y-95070000D01*
X129085000Y-96134437D02*
X129085000Y-98820000D01*
X129085000Y-104525563D02*
X129085000Y-101840000D01*
X129085000Y-104525563D02*
X128020563Y-105590000D01*
X129085000Y-96134437D02*
X128020563Y-95070000D01*
X130575000Y-103090000D02*
X129325000Y-103090000D01*
X129950000Y-103715000D02*
X129950000Y-102465000D01*
X139775000Y-112768748D02*
X139775000Y-113291252D01*
X138355000Y-112768748D02*
X138355000Y-113291252D01*
X108660000Y-94353748D02*
X108660000Y-94876252D01*
X107240000Y-94353748D02*
X107240000Y-94876252D01*
X127560000Y-112901252D02*
X127560000Y-112378748D01*
X128980000Y-112901252D02*
X128980000Y-112378748D01*
X96445000Y-94241252D02*
X96445000Y-93718748D01*
X97865000Y-94241252D02*
X97865000Y-93718748D01*
X98686252Y-111835000D02*
X98163748Y-111835000D01*
X98686252Y-110415000D02*
X98163748Y-110415000D01*
X89908748Y-107875000D02*
X90431252Y-107875000D01*
X89908748Y-109295000D02*
X90431252Y-109295000D01*
X75826252Y-121995000D02*
X75303748Y-121995000D01*
X75826252Y-120575000D02*
X75303748Y-120575000D01*
X121156252Y-124535000D02*
X120633748Y-124535000D01*
X121156252Y-123115000D02*
X120633748Y-123115000D01*
X103766252Y-115010000D02*
X103243748Y-115010000D01*
X103766252Y-113590000D02*
X103243748Y-113590000D01*
X89908748Y-117400000D02*
X90431252Y-117400000D01*
X89908748Y-118820000D02*
X90431252Y-118820000D01*
X80085000Y-124833748D02*
X80085000Y-125356252D01*
X78665000Y-124833748D02*
X78665000Y-125356252D01*
X125490000Y-118900000D02*
X125490000Y-123285000D01*
X125490000Y-123285000D02*
X128510000Y-123285000D01*
X128510000Y-123285000D02*
X128510000Y-118900000D01*
X94375000Y-100485000D02*
X94375000Y-104870000D01*
X94375000Y-104870000D02*
X97395000Y-104870000D01*
X97395000Y-104870000D02*
X97395000Y-100485000D01*
X137850000Y-123675000D02*
X137850000Y-116435000D01*
X144090000Y-123675000D02*
X144090000Y-116435000D01*
X137850000Y-123675000D02*
X144090000Y-123675000D01*
X137850000Y-116435000D02*
X144090000Y-116435000D01*
X106735000Y-105260000D02*
X106735000Y-98020000D01*
X112975000Y-105260000D02*
X112975000Y-98020000D01*
X106735000Y-105260000D02*
X112975000Y-105260000D01*
X106735000Y-98020000D02*
X112975000Y-98020000D01*
X101525000Y-127896252D02*
X101525000Y-127373748D01*
X102945000Y-127896252D02*
X102945000Y-127373748D01*
X150665000Y-98425000D02*
G75*
G03*
X150665000Y-98425000I-9120000J0D01*
G01*
X141545000Y-89344000D02*
X141545000Y-107506000D01*
X141585000Y-89345000D02*
X141585000Y-107505000D01*
X141625000Y-89345000D02*
X141625000Y-107505000D01*
X141665000Y-89345000D02*
X141665000Y-107505000D01*
X141705000Y-89346000D02*
X141705000Y-107504000D01*
X141745000Y-89347000D02*
X141745000Y-107503000D01*
X141785000Y-89348000D02*
X141785000Y-107502000D01*
X141825000Y-89349000D02*
X141825000Y-107501000D01*
X141865000Y-89350000D02*
X141865000Y-107500000D01*
X141905000Y-89352000D02*
X141905000Y-107498000D01*
X141945000Y-89353000D02*
X141945000Y-107497000D01*
X141985000Y-89355000D02*
X141985000Y-107495000D01*
X142025000Y-89357000D02*
X142025000Y-107493000D01*
X142065000Y-89359000D02*
X142065000Y-107491000D01*
X142105000Y-89362000D02*
X142105000Y-107488000D01*
X142145000Y-89364000D02*
X142145000Y-107486000D01*
X142185000Y-89367000D02*
X142185000Y-107483000D01*
X142225000Y-89370000D02*
X142225000Y-107480000D01*
X142266000Y-89373000D02*
X142266000Y-107477000D01*
X142306000Y-89376000D02*
X142306000Y-107474000D01*
X142346000Y-89380000D02*
X142346000Y-107470000D01*
X142386000Y-89383000D02*
X142386000Y-107467000D01*
X142426000Y-89387000D02*
X142426000Y-107463000D01*
X142466000Y-89391000D02*
X142466000Y-107459000D01*
X142506000Y-89395000D02*
X142506000Y-107455000D01*
X142546000Y-89399000D02*
X142546000Y-107451000D01*
X142586000Y-89404000D02*
X142586000Y-107446000D01*
X142626000Y-89409000D02*
X142626000Y-107441000D01*
X142666000Y-89414000D02*
X142666000Y-107436000D01*
X142706000Y-89419000D02*
X142706000Y-107431000D01*
X142746000Y-89424000D02*
X142746000Y-107426000D01*
X142786000Y-89429000D02*
X142786000Y-107421000D01*
X142826000Y-89435000D02*
X142826000Y-107415000D01*
X142866000Y-89441000D02*
X142866000Y-107409000D01*
X142906000Y-89446000D02*
X142906000Y-107404000D01*
X142946000Y-89453000D02*
X142946000Y-107397000D01*
X142986000Y-89459000D02*
X142986000Y-107391000D01*
X143026000Y-89465000D02*
X143026000Y-107385000D01*
X143066000Y-89472000D02*
X143066000Y-107378000D01*
X143106000Y-89479000D02*
X143106000Y-107371000D01*
X143146000Y-89486000D02*
X143146000Y-107364000D01*
X143186000Y-89493000D02*
X143186000Y-107357000D01*
X143226000Y-89501000D02*
X143226000Y-107349000D01*
X143266000Y-89508000D02*
X143266000Y-107342000D01*
X143306000Y-89516000D02*
X143306000Y-107334000D01*
X143346000Y-89524000D02*
X143346000Y-107326000D01*
X143386000Y-89532000D02*
X143386000Y-107318000D01*
X143426000Y-89540000D02*
X143426000Y-107310000D01*
X143466000Y-89549000D02*
X143466000Y-107301000D01*
X143506000Y-89558000D02*
X143506000Y-107292000D01*
X143546000Y-89567000D02*
X143546000Y-107283000D01*
X143586000Y-89576000D02*
X143586000Y-107274000D01*
X143626000Y-89585000D02*
X143626000Y-107265000D01*
X143666000Y-89594000D02*
X143666000Y-107256000D01*
X143706000Y-89604000D02*
X143706000Y-107246000D01*
X143746000Y-89614000D02*
X143746000Y-107236000D01*
X143786000Y-89624000D02*
X143786000Y-107226000D01*
X143826000Y-89634000D02*
X143826000Y-107216000D01*
X143866000Y-89645000D02*
X143866000Y-96985000D01*
X143866000Y-99865000D02*
X143866000Y-107205000D01*
X143906000Y-89655000D02*
X143906000Y-96985000D01*
X143906000Y-99865000D02*
X143906000Y-107195000D01*
X143946000Y-89666000D02*
X143946000Y-96985000D01*
X143946000Y-99865000D02*
X143946000Y-107184000D01*
X143986000Y-89677000D02*
X143986000Y-96985000D01*
X143986000Y-99865000D02*
X143986000Y-107173000D01*
X144026000Y-89688000D02*
X144026000Y-96985000D01*
X144026000Y-99865000D02*
X144026000Y-107162000D01*
X144066000Y-89700000D02*
X144066000Y-96985000D01*
X144066000Y-99865000D02*
X144066000Y-107150000D01*
X144106000Y-89711000D02*
X144106000Y-96985000D01*
X144106000Y-99865000D02*
X144106000Y-107139000D01*
X144146000Y-89723000D02*
X144146000Y-96985000D01*
X144146000Y-99865000D02*
X144146000Y-107127000D01*
X144186000Y-89735000D02*
X144186000Y-96985000D01*
X144186000Y-99865000D02*
X144186000Y-107115000D01*
X144226000Y-89747000D02*
X144226000Y-96985000D01*
X144226000Y-99865000D02*
X144226000Y-107103000D01*
X144266000Y-89760000D02*
X144266000Y-96985000D01*
X144266000Y-99865000D02*
X144266000Y-107090000D01*
X144306000Y-89772000D02*
X144306000Y-96985000D01*
X144306000Y-99865000D02*
X144306000Y-107078000D01*
X144346000Y-89785000D02*
X144346000Y-96985000D01*
X144346000Y-99865000D02*
X144346000Y-107065000D01*
X144386000Y-89798000D02*
X144386000Y-96985000D01*
X144386000Y-99865000D02*
X144386000Y-107052000D01*
X144426000Y-89811000D02*
X144426000Y-96985000D01*
X144426000Y-99865000D02*
X144426000Y-107039000D01*
X144466000Y-89825000D02*
X144466000Y-96985000D01*
X144466000Y-99865000D02*
X144466000Y-107025000D01*
X144506000Y-89838000D02*
X144506000Y-96985000D01*
X144506000Y-99865000D02*
X144506000Y-107012000D01*
X144546000Y-89852000D02*
X144546000Y-96985000D01*
X144546000Y-99865000D02*
X144546000Y-106998000D01*
X144586000Y-89866000D02*
X144586000Y-96985000D01*
X144586000Y-99865000D02*
X144586000Y-106984000D01*
X144626000Y-89880000D02*
X144626000Y-96985000D01*
X144626000Y-99865000D02*
X144626000Y-106970000D01*
X144666000Y-89895000D02*
X144666000Y-96985000D01*
X144666000Y-99865000D02*
X144666000Y-106955000D01*
X144706000Y-89909000D02*
X144706000Y-96985000D01*
X144706000Y-99865000D02*
X144706000Y-106941000D01*
X144746000Y-89924000D02*
X144746000Y-96985000D01*
X144746000Y-99865000D02*
X144746000Y-106926000D01*
X144786000Y-89939000D02*
X144786000Y-96985000D01*
X144786000Y-99865000D02*
X144786000Y-106911000D01*
X144826000Y-89955000D02*
X144826000Y-96985000D01*
X144826000Y-99865000D02*
X144826000Y-106895000D01*
X144866000Y-89970000D02*
X144866000Y-96985000D01*
X144866000Y-99865000D02*
X144866000Y-106880000D01*
X144906000Y-89986000D02*
X144906000Y-96985000D01*
X144906000Y-99865000D02*
X144906000Y-106864000D01*
X144946000Y-90002000D02*
X144946000Y-96985000D01*
X144946000Y-99865000D02*
X144946000Y-106848000D01*
X144986000Y-90018000D02*
X144986000Y-96985000D01*
X144986000Y-99865000D02*
X144986000Y-106832000D01*
X145026000Y-90035000D02*
X145026000Y-96985000D01*
X145026000Y-99865000D02*
X145026000Y-106815000D01*
X145066000Y-90051000D02*
X145066000Y-96985000D01*
X145066000Y-99865000D02*
X145066000Y-106799000D01*
X145106000Y-90068000D02*
X145106000Y-96985000D01*
X145106000Y-99865000D02*
X145106000Y-106782000D01*
X145146000Y-90085000D02*
X145146000Y-96985000D01*
X145146000Y-99865000D02*
X145146000Y-106765000D01*
X145186000Y-90102000D02*
X145186000Y-96985000D01*
X145186000Y-99865000D02*
X145186000Y-106748000D01*
X145226000Y-90120000D02*
X145226000Y-96985000D01*
X145226000Y-99865000D02*
X145226000Y-106730000D01*
X145266000Y-90138000D02*
X145266000Y-96985000D01*
X145266000Y-99865000D02*
X145266000Y-106712000D01*
X145306000Y-90156000D02*
X145306000Y-96985000D01*
X145306000Y-99865000D02*
X145306000Y-106694000D01*
X145346000Y-90174000D02*
X145346000Y-96985000D01*
X145346000Y-99865000D02*
X145346000Y-106676000D01*
X145386000Y-90192000D02*
X145386000Y-96985000D01*
X145386000Y-99865000D02*
X145386000Y-106658000D01*
X145426000Y-90211000D02*
X145426000Y-96985000D01*
X145426000Y-99865000D02*
X145426000Y-106639000D01*
X145466000Y-90230000D02*
X145466000Y-96985000D01*
X145466000Y-99865000D02*
X145466000Y-106620000D01*
X145506000Y-90249000D02*
X145506000Y-96985000D01*
X145506000Y-99865000D02*
X145506000Y-106601000D01*
X145546000Y-90269000D02*
X145546000Y-96985000D01*
X145546000Y-99865000D02*
X145546000Y-106581000D01*
X145586000Y-90288000D02*
X145586000Y-96985000D01*
X145586000Y-99865000D02*
X145586000Y-106562000D01*
X145626000Y-90308000D02*
X145626000Y-96985000D01*
X145626000Y-99865000D02*
X145626000Y-106542000D01*
X145666000Y-90328000D02*
X145666000Y-96985000D01*
X145666000Y-99865000D02*
X145666000Y-106522000D01*
X145706000Y-90349000D02*
X145706000Y-96985000D01*
X145706000Y-99865000D02*
X145706000Y-106501000D01*
X145746000Y-90369000D02*
X145746000Y-96985000D01*
X145746000Y-99865000D02*
X145746000Y-106481000D01*
X145786000Y-90390000D02*
X145786000Y-96985000D01*
X145786000Y-99865000D02*
X145786000Y-106460000D01*
X145826000Y-90411000D02*
X145826000Y-96985000D01*
X145826000Y-99865000D02*
X145826000Y-106439000D01*
X145866000Y-90433000D02*
X145866000Y-96985000D01*
X145866000Y-99865000D02*
X145866000Y-106417000D01*
X145906000Y-90454000D02*
X145906000Y-96985000D01*
X145906000Y-99865000D02*
X145906000Y-106396000D01*
X145946000Y-90476000D02*
X145946000Y-96985000D01*
X145946000Y-99865000D02*
X145946000Y-106374000D01*
X145986000Y-90498000D02*
X145986000Y-96985000D01*
X145986000Y-99865000D02*
X145986000Y-106352000D01*
X146026000Y-90521000D02*
X146026000Y-96985000D01*
X146026000Y-99865000D02*
X146026000Y-106329000D01*
X146066000Y-90543000D02*
X146066000Y-96985000D01*
X146066000Y-99865000D02*
X146066000Y-106307000D01*
X146106000Y-90566000D02*
X146106000Y-96985000D01*
X146106000Y-99865000D02*
X146106000Y-106284000D01*
X146146000Y-90590000D02*
X146146000Y-96985000D01*
X146146000Y-99865000D02*
X146146000Y-106260000D01*
X146186000Y-90613000D02*
X146186000Y-96985000D01*
X146186000Y-99865000D02*
X146186000Y-106237000D01*
X146226000Y-90637000D02*
X146226000Y-96985000D01*
X146226000Y-99865000D02*
X146226000Y-106213000D01*
X146266000Y-90661000D02*
X146266000Y-96985000D01*
X146266000Y-99865000D02*
X146266000Y-106189000D01*
X146306000Y-90685000D02*
X146306000Y-96985000D01*
X146306000Y-99865000D02*
X146306000Y-106165000D01*
X146346000Y-90710000D02*
X146346000Y-96985000D01*
X146346000Y-99865000D02*
X146346000Y-106140000D01*
X146386000Y-90735000D02*
X146386000Y-96985000D01*
X146386000Y-99865000D02*
X146386000Y-106115000D01*
X146426000Y-90760000D02*
X146426000Y-96985000D01*
X146426000Y-99865000D02*
X146426000Y-106090000D01*
X146466000Y-90785000D02*
X146466000Y-96985000D01*
X146466000Y-99865000D02*
X146466000Y-106065000D01*
X146506000Y-90811000D02*
X146506000Y-96985000D01*
X146506000Y-99865000D02*
X146506000Y-106039000D01*
X146546000Y-90837000D02*
X146546000Y-96985000D01*
X146546000Y-99865000D02*
X146546000Y-106013000D01*
X146586000Y-90864000D02*
X146586000Y-96985000D01*
X146586000Y-99865000D02*
X146586000Y-105986000D01*
X146626000Y-90890000D02*
X146626000Y-96985000D01*
X146626000Y-99865000D02*
X146626000Y-105960000D01*
X146666000Y-90917000D02*
X146666000Y-96985000D01*
X146666000Y-99865000D02*
X146666000Y-105933000D01*
X146706000Y-90945000D02*
X146706000Y-96985000D01*
X146706000Y-99865000D02*
X146706000Y-105905000D01*
X146746000Y-90972000D02*
X146746000Y-105878000D01*
X146786000Y-91000000D02*
X146786000Y-105850000D01*
X146826000Y-91028000D02*
X146826000Y-105822000D01*
X146866000Y-91057000D02*
X146866000Y-105793000D01*
X146906000Y-91086000D02*
X146906000Y-105764000D01*
X146946000Y-91115000D02*
X146946000Y-105735000D01*
X146986000Y-91145000D02*
X146986000Y-105705000D01*
X147026000Y-91175000D02*
X147026000Y-105675000D01*
X147066000Y-91205000D02*
X147066000Y-105645000D01*
X147106000Y-91235000D02*
X147106000Y-105615000D01*
X147146000Y-91266000D02*
X147146000Y-105584000D01*
X147186000Y-91298000D02*
X147186000Y-105552000D01*
X147226000Y-91329000D02*
X147226000Y-105521000D01*
X147266000Y-91361000D02*
X147266000Y-105489000D01*
X147306000Y-91394000D02*
X147306000Y-105456000D01*
X147346000Y-91426000D02*
X147346000Y-105424000D01*
X147386000Y-91460000D02*
X147386000Y-105390000D01*
X147426000Y-91493000D02*
X147426000Y-105357000D01*
X147466000Y-91527000D02*
X147466000Y-105323000D01*
X147506000Y-91561000D02*
X147506000Y-105289000D01*
X147546000Y-91596000D02*
X147546000Y-105254000D01*
X147586000Y-91631000D02*
X147586000Y-105219000D01*
X147626000Y-91667000D02*
X147626000Y-105183000D01*
X147666000Y-91703000D02*
X147666000Y-105147000D01*
X147706000Y-91739000D02*
X147706000Y-105111000D01*
X147746000Y-91776000D02*
X147746000Y-105074000D01*
X147786000Y-91813000D02*
X147786000Y-105037000D01*
X147826000Y-91851000D02*
X147826000Y-104999000D01*
X147866000Y-91889000D02*
X147866000Y-104961000D01*
X147906000Y-91928000D02*
X147906000Y-104922000D01*
X147946000Y-91967000D02*
X147946000Y-104883000D01*
X147986000Y-92007000D02*
X147986000Y-104843000D01*
X148026000Y-92047000D02*
X148026000Y-104803000D01*
X148066000Y-92088000D02*
X148066000Y-104762000D01*
X148106000Y-92129000D02*
X148106000Y-104721000D01*
X148146000Y-92171000D02*
X148146000Y-104679000D01*
X148186000Y-92213000D02*
X148186000Y-104637000D01*
X148226000Y-92255000D02*
X148226000Y-104595000D01*
X148266000Y-92299000D02*
X148266000Y-104551000D01*
X148306000Y-92343000D02*
X148306000Y-104507000D01*
X148346000Y-92387000D02*
X148346000Y-104463000D01*
X148386000Y-92432000D02*
X148386000Y-104418000D01*
X148426000Y-92478000D02*
X148426000Y-104372000D01*
X148466000Y-92524000D02*
X148466000Y-104326000D01*
X148506000Y-92571000D02*
X148506000Y-104279000D01*
X148546000Y-92619000D02*
X148546000Y-104231000D01*
X148586000Y-92667000D02*
X148586000Y-104183000D01*
X148626000Y-92716000D02*
X148626000Y-104134000D01*
X148666000Y-92765000D02*
X148666000Y-104085000D01*
X148706000Y-92816000D02*
X148706000Y-104034000D01*
X148746000Y-92867000D02*
X148746000Y-103983000D01*
X148786000Y-92919000D02*
X148786000Y-103931000D01*
X148826000Y-92971000D02*
X148826000Y-103879000D01*
X148866000Y-93025000D02*
X148866000Y-103825000D01*
X148906000Y-93079000D02*
X148906000Y-103771000D01*
X148946000Y-93134000D02*
X148946000Y-103716000D01*
X148986000Y-93190000D02*
X148986000Y-103660000D01*
X149026000Y-93247000D02*
X149026000Y-103603000D01*
X149066000Y-93305000D02*
X149066000Y-103545000D01*
X149106000Y-93363000D02*
X149106000Y-103487000D01*
X149146000Y-93423000D02*
X149146000Y-103427000D01*
X149186000Y-93484000D02*
X149186000Y-103366000D01*
X149226000Y-93546000D02*
X149226000Y-103304000D01*
X149266000Y-93609000D02*
X149266000Y-103241000D01*
X149306000Y-93673000D02*
X149306000Y-103177000D01*
X149346000Y-93739000D02*
X149346000Y-103111000D01*
X149386000Y-93805000D02*
X149386000Y-103045000D01*
X149426000Y-93873000D02*
X149426000Y-102977000D01*
X149466000Y-93943000D02*
X149466000Y-102907000D01*
X149506000Y-94013000D02*
X149506000Y-102837000D01*
X149546000Y-94086000D02*
X149546000Y-102764000D01*
X149586000Y-94160000D02*
X149586000Y-102690000D01*
X149626000Y-94235000D02*
X149626000Y-102615000D01*
X149666000Y-94312000D02*
X149666000Y-102538000D01*
X149706000Y-94392000D02*
X149706000Y-102458000D01*
X149745000Y-94473000D02*
X149745000Y-102377000D01*
X149785000Y-94556000D02*
X149785000Y-102294000D01*
X149825000Y-94641000D02*
X149825000Y-102209000D01*
X149865000Y-94729000D02*
X149865000Y-102121000D01*
X149905000Y-94820000D02*
X149905000Y-102030000D01*
X149945000Y-94913000D02*
X149945000Y-101937000D01*
X149985000Y-95009000D02*
X149985000Y-101841000D01*
X150025000Y-95108000D02*
X150025000Y-101742000D01*
X150065000Y-95211000D02*
X150065000Y-101639000D01*
X150105000Y-95318000D02*
X150105000Y-101532000D01*
X150145000Y-95429000D02*
X150145000Y-101421000D01*
X150185000Y-95545000D02*
X150185000Y-101305000D01*
X150225000Y-95666000D02*
X150225000Y-101184000D01*
X150265000Y-95793000D02*
X150265000Y-101057000D01*
X150305000Y-95927000D02*
X150305000Y-100923000D01*
X150345000Y-96070000D02*
X150345000Y-100780000D01*
X150385000Y-96222000D02*
X150385000Y-100628000D01*
X150425000Y-96386000D02*
X150425000Y-100464000D01*
X150465000Y-96565000D02*
X150465000Y-100285000D01*
X150505000Y-96764000D02*
X150505000Y-100086000D01*
X150545000Y-96990000D02*
X150545000Y-99860000D01*
X150585000Y-97259000D02*
X150585000Y-99591000D01*
X150625000Y-97611000D02*
X150625000Y-99239000D01*
X150665000Y-98385000D02*
X150665000Y-98465000D01*
X131785560Y-93310000D02*
X133585560Y-93310000D01*
X132685560Y-92410000D02*
X132685560Y-94210000D01*
X149300000Y-79748748D02*
X149300000Y-80271252D01*
X147880000Y-79748748D02*
X147880000Y-80271252D01*
X143680000Y-55880000D02*
G75*
G03*
X143680000Y-55880000I-9120000J0D01*
G01*
X134560000Y-46799000D02*
X134560000Y-64961000D01*
X134600000Y-46800000D02*
X134600000Y-64960000D01*
X134640000Y-46800000D02*
X134640000Y-64960000D01*
X134680000Y-46800000D02*
X134680000Y-64960000D01*
X134720000Y-46801000D02*
X134720000Y-64959000D01*
X134760000Y-46802000D02*
X134760000Y-64958000D01*
X134800000Y-46803000D02*
X134800000Y-64957000D01*
X134840000Y-46804000D02*
X134840000Y-64956000D01*
X134880000Y-46805000D02*
X134880000Y-64955000D01*
X134920000Y-46807000D02*
X134920000Y-64953000D01*
X134960000Y-46808000D02*
X134960000Y-64952000D01*
X135000000Y-46810000D02*
X135000000Y-64950000D01*
X135040000Y-46812000D02*
X135040000Y-64948000D01*
X135080000Y-46814000D02*
X135080000Y-64946000D01*
X135120000Y-46817000D02*
X135120000Y-64943000D01*
X135160000Y-46819000D02*
X135160000Y-64941000D01*
X135200000Y-46822000D02*
X135200000Y-64938000D01*
X135240000Y-46825000D02*
X135240000Y-64935000D01*
X135281000Y-46828000D02*
X135281000Y-64932000D01*
X135321000Y-46831000D02*
X135321000Y-64929000D01*
X135361000Y-46835000D02*
X135361000Y-64925000D01*
X135401000Y-46838000D02*
X135401000Y-64922000D01*
X135441000Y-46842000D02*
X135441000Y-64918000D01*
X135481000Y-46846000D02*
X135481000Y-64914000D01*
X135521000Y-46850000D02*
X135521000Y-64910000D01*
X135561000Y-46854000D02*
X135561000Y-64906000D01*
X135601000Y-46859000D02*
X135601000Y-64901000D01*
X135641000Y-46864000D02*
X135641000Y-64896000D01*
X135681000Y-46869000D02*
X135681000Y-64891000D01*
X135721000Y-46874000D02*
X135721000Y-64886000D01*
X135761000Y-46879000D02*
X135761000Y-64881000D01*
X135801000Y-46884000D02*
X135801000Y-64876000D01*
X135841000Y-46890000D02*
X135841000Y-64870000D01*
X135881000Y-46896000D02*
X135881000Y-64864000D01*
X135921000Y-46901000D02*
X135921000Y-64859000D01*
X135961000Y-46908000D02*
X135961000Y-64852000D01*
X136001000Y-46914000D02*
X136001000Y-64846000D01*
X136041000Y-46920000D02*
X136041000Y-64840000D01*
X136081000Y-46927000D02*
X136081000Y-64833000D01*
X136121000Y-46934000D02*
X136121000Y-64826000D01*
X136161000Y-46941000D02*
X136161000Y-64819000D01*
X136201000Y-46948000D02*
X136201000Y-64812000D01*
X136241000Y-46956000D02*
X136241000Y-64804000D01*
X136281000Y-46963000D02*
X136281000Y-64797000D01*
X136321000Y-46971000D02*
X136321000Y-64789000D01*
X136361000Y-46979000D02*
X136361000Y-64781000D01*
X136401000Y-46987000D02*
X136401000Y-64773000D01*
X136441000Y-46995000D02*
X136441000Y-64765000D01*
X136481000Y-47004000D02*
X136481000Y-64756000D01*
X136521000Y-47013000D02*
X136521000Y-64747000D01*
X136561000Y-47022000D02*
X136561000Y-64738000D01*
X136601000Y-47031000D02*
X136601000Y-64729000D01*
X136641000Y-47040000D02*
X136641000Y-64720000D01*
X136681000Y-47049000D02*
X136681000Y-64711000D01*
X136721000Y-47059000D02*
X136721000Y-64701000D01*
X136761000Y-47069000D02*
X136761000Y-64691000D01*
X136801000Y-47079000D02*
X136801000Y-64681000D01*
X136841000Y-47089000D02*
X136841000Y-64671000D01*
X136881000Y-47100000D02*
X136881000Y-54440000D01*
X136881000Y-57320000D02*
X136881000Y-64660000D01*
X136921000Y-47110000D02*
X136921000Y-54440000D01*
X136921000Y-57320000D02*
X136921000Y-64650000D01*
X136961000Y-47121000D02*
X136961000Y-54440000D01*
X136961000Y-57320000D02*
X136961000Y-64639000D01*
X137001000Y-47132000D02*
X137001000Y-54440000D01*
X137001000Y-57320000D02*
X137001000Y-64628000D01*
X137041000Y-47143000D02*
X137041000Y-54440000D01*
X137041000Y-57320000D02*
X137041000Y-64617000D01*
X137081000Y-47155000D02*
X137081000Y-54440000D01*
X137081000Y-57320000D02*
X137081000Y-64605000D01*
X137121000Y-47166000D02*
X137121000Y-54440000D01*
X137121000Y-57320000D02*
X137121000Y-64594000D01*
X137161000Y-47178000D02*
X137161000Y-54440000D01*
X137161000Y-57320000D02*
X137161000Y-64582000D01*
X137201000Y-47190000D02*
X137201000Y-54440000D01*
X137201000Y-57320000D02*
X137201000Y-64570000D01*
X137241000Y-47202000D02*
X137241000Y-54440000D01*
X137241000Y-57320000D02*
X137241000Y-64558000D01*
X137281000Y-47215000D02*
X137281000Y-54440000D01*
X137281000Y-57320000D02*
X137281000Y-64545000D01*
X137321000Y-47227000D02*
X137321000Y-54440000D01*
X137321000Y-57320000D02*
X137321000Y-64533000D01*
X137361000Y-47240000D02*
X137361000Y-54440000D01*
X137361000Y-57320000D02*
X137361000Y-64520000D01*
X137401000Y-47253000D02*
X137401000Y-54440000D01*
X137401000Y-57320000D02*
X137401000Y-64507000D01*
X137441000Y-47266000D02*
X137441000Y-54440000D01*
X137441000Y-57320000D02*
X137441000Y-64494000D01*
X137481000Y-47280000D02*
X137481000Y-54440000D01*
X137481000Y-57320000D02*
X137481000Y-64480000D01*
X137521000Y-47293000D02*
X137521000Y-54440000D01*
X137521000Y-57320000D02*
X137521000Y-64467000D01*
X137561000Y-47307000D02*
X137561000Y-54440000D01*
X137561000Y-57320000D02*
X137561000Y-64453000D01*
X137601000Y-47321000D02*
X137601000Y-54440000D01*
X137601000Y-57320000D02*
X137601000Y-64439000D01*
X137641000Y-47335000D02*
X137641000Y-54440000D01*
X137641000Y-57320000D02*
X137641000Y-64425000D01*
X137681000Y-47350000D02*
X137681000Y-54440000D01*
X137681000Y-57320000D02*
X137681000Y-64410000D01*
X137721000Y-47364000D02*
X137721000Y-54440000D01*
X137721000Y-57320000D02*
X137721000Y-64396000D01*
X137761000Y-47379000D02*
X137761000Y-54440000D01*
X137761000Y-57320000D02*
X137761000Y-64381000D01*
X137801000Y-47394000D02*
X137801000Y-54440000D01*
X137801000Y-57320000D02*
X137801000Y-64366000D01*
X137841000Y-47410000D02*
X137841000Y-54440000D01*
X137841000Y-57320000D02*
X137841000Y-64350000D01*
X137881000Y-47425000D02*
X137881000Y-54440000D01*
X137881000Y-57320000D02*
X137881000Y-64335000D01*
X137921000Y-47441000D02*
X137921000Y-54440000D01*
X137921000Y-57320000D02*
X137921000Y-64319000D01*
X137961000Y-47457000D02*
X137961000Y-54440000D01*
X137961000Y-57320000D02*
X137961000Y-64303000D01*
X138001000Y-47473000D02*
X138001000Y-54440000D01*
X138001000Y-57320000D02*
X138001000Y-64287000D01*
X138041000Y-47490000D02*
X138041000Y-54440000D01*
X138041000Y-57320000D02*
X138041000Y-64270000D01*
X138081000Y-47506000D02*
X138081000Y-54440000D01*
X138081000Y-57320000D02*
X138081000Y-64254000D01*
X138121000Y-47523000D02*
X138121000Y-54440000D01*
X138121000Y-57320000D02*
X138121000Y-64237000D01*
X138161000Y-47540000D02*
X138161000Y-54440000D01*
X138161000Y-57320000D02*
X138161000Y-64220000D01*
X138201000Y-47557000D02*
X138201000Y-54440000D01*
X138201000Y-57320000D02*
X138201000Y-64203000D01*
X138241000Y-47575000D02*
X138241000Y-54440000D01*
X138241000Y-57320000D02*
X138241000Y-64185000D01*
X138281000Y-47593000D02*
X138281000Y-54440000D01*
X138281000Y-57320000D02*
X138281000Y-64167000D01*
X138321000Y-47611000D02*
X138321000Y-54440000D01*
X138321000Y-57320000D02*
X138321000Y-64149000D01*
X138361000Y-47629000D02*
X138361000Y-54440000D01*
X138361000Y-57320000D02*
X138361000Y-64131000D01*
X138401000Y-47647000D02*
X138401000Y-54440000D01*
X138401000Y-57320000D02*
X138401000Y-64113000D01*
X138441000Y-47666000D02*
X138441000Y-54440000D01*
X138441000Y-57320000D02*
X138441000Y-64094000D01*
X138481000Y-47685000D02*
X138481000Y-54440000D01*
X138481000Y-57320000D02*
X138481000Y-64075000D01*
X138521000Y-47704000D02*
X138521000Y-54440000D01*
X138521000Y-57320000D02*
X138521000Y-64056000D01*
X138561000Y-47724000D02*
X138561000Y-54440000D01*
X138561000Y-57320000D02*
X138561000Y-64036000D01*
X138601000Y-47743000D02*
X138601000Y-54440000D01*
X138601000Y-57320000D02*
X138601000Y-64017000D01*
X138641000Y-47763000D02*
X138641000Y-54440000D01*
X138641000Y-57320000D02*
X138641000Y-63997000D01*
X138681000Y-47783000D02*
X138681000Y-54440000D01*
X138681000Y-57320000D02*
X138681000Y-63977000D01*
X138721000Y-47804000D02*
X138721000Y-54440000D01*
X138721000Y-57320000D02*
X138721000Y-63956000D01*
X138761000Y-47824000D02*
X138761000Y-54440000D01*
X138761000Y-57320000D02*
X138761000Y-63936000D01*
X138801000Y-47845000D02*
X138801000Y-54440000D01*
X138801000Y-57320000D02*
X138801000Y-63915000D01*
X138841000Y-47866000D02*
X138841000Y-54440000D01*
X138841000Y-57320000D02*
X138841000Y-63894000D01*
X138881000Y-47888000D02*
X138881000Y-54440000D01*
X138881000Y-57320000D02*
X138881000Y-63872000D01*
X138921000Y-47909000D02*
X138921000Y-54440000D01*
X138921000Y-57320000D02*
X138921000Y-63851000D01*
X138961000Y-47931000D02*
X138961000Y-54440000D01*
X138961000Y-57320000D02*
X138961000Y-63829000D01*
X139001000Y-47953000D02*
X139001000Y-54440000D01*
X139001000Y-57320000D02*
X139001000Y-63807000D01*
X139041000Y-47976000D02*
X139041000Y-54440000D01*
X139041000Y-57320000D02*
X139041000Y-63784000D01*
X139081000Y-47998000D02*
X139081000Y-54440000D01*
X139081000Y-57320000D02*
X139081000Y-63762000D01*
X139121000Y-48021000D02*
X139121000Y-54440000D01*
X139121000Y-57320000D02*
X139121000Y-63739000D01*
X139161000Y-48045000D02*
X139161000Y-54440000D01*
X139161000Y-57320000D02*
X139161000Y-63715000D01*
X139201000Y-48068000D02*
X139201000Y-54440000D01*
X139201000Y-57320000D02*
X139201000Y-63692000D01*
X139241000Y-48092000D02*
X139241000Y-54440000D01*
X139241000Y-57320000D02*
X139241000Y-63668000D01*
X139281000Y-48116000D02*
X139281000Y-54440000D01*
X139281000Y-57320000D02*
X139281000Y-63644000D01*
X139321000Y-48140000D02*
X139321000Y-54440000D01*
X139321000Y-57320000D02*
X139321000Y-63620000D01*
X139361000Y-48165000D02*
X139361000Y-54440000D01*
X139361000Y-57320000D02*
X139361000Y-63595000D01*
X139401000Y-48190000D02*
X139401000Y-54440000D01*
X139401000Y-57320000D02*
X139401000Y-63570000D01*
X139441000Y-48215000D02*
X139441000Y-54440000D01*
X139441000Y-57320000D02*
X139441000Y-63545000D01*
X139481000Y-48240000D02*
X139481000Y-54440000D01*
X139481000Y-57320000D02*
X139481000Y-63520000D01*
X139521000Y-48266000D02*
X139521000Y-54440000D01*
X139521000Y-57320000D02*
X139521000Y-63494000D01*
X139561000Y-48292000D02*
X139561000Y-54440000D01*
X139561000Y-57320000D02*
X139561000Y-63468000D01*
X139601000Y-48319000D02*
X139601000Y-54440000D01*
X139601000Y-57320000D02*
X139601000Y-63441000D01*
X139641000Y-48345000D02*
X139641000Y-54440000D01*
X139641000Y-57320000D02*
X139641000Y-63415000D01*
X139681000Y-48372000D02*
X139681000Y-54440000D01*
X139681000Y-57320000D02*
X139681000Y-63388000D01*
X139721000Y-48400000D02*
X139721000Y-54440000D01*
X139721000Y-57320000D02*
X139721000Y-63360000D01*
X139761000Y-48427000D02*
X139761000Y-63333000D01*
X139801000Y-48455000D02*
X139801000Y-63305000D01*
X139841000Y-48483000D02*
X139841000Y-63277000D01*
X139881000Y-48512000D02*
X139881000Y-63248000D01*
X139921000Y-48541000D02*
X139921000Y-63219000D01*
X139961000Y-48570000D02*
X139961000Y-63190000D01*
X140001000Y-48600000D02*
X140001000Y-63160000D01*
X140041000Y-48630000D02*
X140041000Y-63130000D01*
X140081000Y-48660000D02*
X140081000Y-63100000D01*
X140121000Y-48690000D02*
X140121000Y-63070000D01*
X140161000Y-48721000D02*
X140161000Y-63039000D01*
X140201000Y-48753000D02*
X140201000Y-63007000D01*
X140241000Y-48784000D02*
X140241000Y-62976000D01*
X140281000Y-48816000D02*
X140281000Y-62944000D01*
X140321000Y-48849000D02*
X140321000Y-62911000D01*
X140361000Y-48881000D02*
X140361000Y-62879000D01*
X140401000Y-48915000D02*
X140401000Y-62845000D01*
X140441000Y-48948000D02*
X140441000Y-62812000D01*
X140481000Y-48982000D02*
X140481000Y-62778000D01*
X140521000Y-49016000D02*
X140521000Y-62744000D01*
X140561000Y-49051000D02*
X140561000Y-62709000D01*
X140601000Y-49086000D02*
X140601000Y-62674000D01*
X140641000Y-49122000D02*
X140641000Y-62638000D01*
X140681000Y-49158000D02*
X140681000Y-62602000D01*
X140721000Y-49194000D02*
X140721000Y-62566000D01*
X140761000Y-49231000D02*
X140761000Y-62529000D01*
X140801000Y-49268000D02*
X140801000Y-62492000D01*
X140841000Y-49306000D02*
X140841000Y-62454000D01*
X140881000Y-49344000D02*
X140881000Y-62416000D01*
X140921000Y-49383000D02*
X140921000Y-62377000D01*
X140961000Y-49422000D02*
X140961000Y-62338000D01*
X141001000Y-49462000D02*
X141001000Y-62298000D01*
X141041000Y-49502000D02*
X141041000Y-62258000D01*
X141081000Y-49543000D02*
X141081000Y-62217000D01*
X141121000Y-49584000D02*
X141121000Y-62176000D01*
X141161000Y-49626000D02*
X141161000Y-62134000D01*
X141201000Y-49668000D02*
X141201000Y-62092000D01*
X141241000Y-49710000D02*
X141241000Y-62050000D01*
X141281000Y-49754000D02*
X141281000Y-62006000D01*
X141321000Y-49798000D02*
X141321000Y-61962000D01*
X141361000Y-49842000D02*
X141361000Y-61918000D01*
X141401000Y-49887000D02*
X141401000Y-61873000D01*
X141441000Y-49933000D02*
X141441000Y-61827000D01*
X141481000Y-49979000D02*
X141481000Y-61781000D01*
X141521000Y-50026000D02*
X141521000Y-61734000D01*
X141561000Y-50074000D02*
X141561000Y-61686000D01*
X141601000Y-50122000D02*
X141601000Y-61638000D01*
X141641000Y-50171000D02*
X141641000Y-61589000D01*
X141681000Y-50220000D02*
X141681000Y-61540000D01*
X141721000Y-50271000D02*
X141721000Y-61489000D01*
X141761000Y-50322000D02*
X141761000Y-61438000D01*
X141801000Y-50374000D02*
X141801000Y-61386000D01*
X141841000Y-50426000D02*
X141841000Y-61334000D01*
X141881000Y-50480000D02*
X141881000Y-61280000D01*
X141921000Y-50534000D02*
X141921000Y-61226000D01*
X141961000Y-50589000D02*
X141961000Y-61171000D01*
X142001000Y-50645000D02*
X142001000Y-61115000D01*
X142041000Y-50702000D02*
X142041000Y-61058000D01*
X142081000Y-50760000D02*
X142081000Y-61000000D01*
X142121000Y-50818000D02*
X142121000Y-60942000D01*
X142161000Y-50878000D02*
X142161000Y-60882000D01*
X142201000Y-50939000D02*
X142201000Y-60821000D01*
X142241000Y-51001000D02*
X142241000Y-60759000D01*
X142281000Y-51064000D02*
X142281000Y-60696000D01*
X142321000Y-51128000D02*
X142321000Y-60632000D01*
X142361000Y-51194000D02*
X142361000Y-60566000D01*
X142401000Y-51260000D02*
X142401000Y-60500000D01*
X142441000Y-51328000D02*
X142441000Y-60432000D01*
X142481000Y-51398000D02*
X142481000Y-60362000D01*
X142521000Y-51468000D02*
X142521000Y-60292000D01*
X142561000Y-51541000D02*
X142561000Y-60219000D01*
X142601000Y-51615000D02*
X142601000Y-60145000D01*
X142641000Y-51690000D02*
X142641000Y-60070000D01*
X142681000Y-51767000D02*
X142681000Y-59993000D01*
X142721000Y-51847000D02*
X142721000Y-59913000D01*
X142760000Y-51928000D02*
X142760000Y-59832000D01*
X142800000Y-52011000D02*
X142800000Y-59749000D01*
X142840000Y-52096000D02*
X142840000Y-59664000D01*
X142880000Y-52184000D02*
X142880000Y-59576000D01*
X142920000Y-52275000D02*
X142920000Y-59485000D01*
X142960000Y-52368000D02*
X142960000Y-59392000D01*
X143000000Y-52464000D02*
X143000000Y-59296000D01*
X143040000Y-52563000D02*
X143040000Y-59197000D01*
X143080000Y-52666000D02*
X143080000Y-59094000D01*
X143120000Y-52773000D02*
X143120000Y-58987000D01*
X143160000Y-52884000D02*
X143160000Y-58876000D01*
X143200000Y-53000000D02*
X143200000Y-58760000D01*
X143240000Y-53121000D02*
X143240000Y-58639000D01*
X143280000Y-53248000D02*
X143280000Y-58512000D01*
X143320000Y-53382000D02*
X143320000Y-58378000D01*
X143360000Y-53525000D02*
X143360000Y-58235000D01*
X143400000Y-53677000D02*
X143400000Y-58083000D01*
X143440000Y-53841000D02*
X143440000Y-57919000D01*
X143480000Y-54020000D02*
X143480000Y-57740000D01*
X143520000Y-54219000D02*
X143520000Y-57541000D01*
X143560000Y-54445000D02*
X143560000Y-57315000D01*
X143600000Y-54714000D02*
X143600000Y-57046000D01*
X143640000Y-55066000D02*
X143640000Y-56694000D01*
X143680000Y-55840000D02*
X143680000Y-55920000D01*
X124800560Y-50765000D02*
X126600560Y-50765000D01*
X125700560Y-49865000D02*
X125700560Y-51665000D01*
X102837064Y-86450000D02*
X101632936Y-86450000D01*
X102837064Y-83730000D02*
X101632936Y-83730000D01*
X95917936Y-83730000D02*
X97122064Y-83730000D01*
X95917936Y-86450000D02*
X97122064Y-86450000D01*
X85351252Y-128980000D02*
X84828748Y-128980000D01*
X85351252Y-127560000D02*
X84828748Y-127560000D01*
D13*
X76104761Y-61067619D02*
X76009523Y-61020000D01*
X75914285Y-60924761D01*
X75771428Y-60781904D01*
X75676190Y-60734285D01*
X75580952Y-60734285D01*
X75628571Y-60972380D02*
X75533333Y-60924761D01*
X75438095Y-60829523D01*
X75390476Y-60639047D01*
X75390476Y-60305714D01*
X75438095Y-60115238D01*
X75533333Y-60020000D01*
X75628571Y-59972380D01*
X75819047Y-59972380D01*
X75914285Y-60020000D01*
X76009523Y-60115238D01*
X76057142Y-60305714D01*
X76057142Y-60639047D01*
X76009523Y-60829523D01*
X75914285Y-60924761D01*
X75819047Y-60972380D01*
X75628571Y-60972380D01*
X76914285Y-60305714D02*
X76914285Y-60972380D01*
X76676190Y-59924761D02*
X76438095Y-60639047D01*
X77057142Y-60639047D01*
X76104761Y-94722619D02*
X76009523Y-94675000D01*
X75914285Y-94579761D01*
X75771428Y-94436904D01*
X75676190Y-94389285D01*
X75580952Y-94389285D01*
X75628571Y-94627380D02*
X75533333Y-94579761D01*
X75438095Y-94484523D01*
X75390476Y-94294047D01*
X75390476Y-93960714D01*
X75438095Y-93770238D01*
X75533333Y-93675000D01*
X75628571Y-93627380D01*
X75819047Y-93627380D01*
X75914285Y-93675000D01*
X76009523Y-93770238D01*
X76057142Y-93960714D01*
X76057142Y-94294047D01*
X76009523Y-94484523D01*
X75914285Y-94579761D01*
X75819047Y-94627380D01*
X75628571Y-94627380D01*
X76390476Y-93627380D02*
X77009523Y-93627380D01*
X76676190Y-94008333D01*
X76819047Y-94008333D01*
X76914285Y-94055952D01*
X76961904Y-94103571D01*
X77009523Y-94198809D01*
X77009523Y-94436904D01*
X76961904Y-94532142D01*
X76914285Y-94579761D01*
X76819047Y-94627380D01*
X76533333Y-94627380D01*
X76438095Y-94579761D01*
X76390476Y-94532142D01*
X84359761Y-61137619D02*
X84264523Y-61090000D01*
X84169285Y-60994761D01*
X84026428Y-60851904D01*
X83931190Y-60804285D01*
X83835952Y-60804285D01*
X83883571Y-61042380D02*
X83788333Y-60994761D01*
X83693095Y-60899523D01*
X83645476Y-60709047D01*
X83645476Y-60375714D01*
X83693095Y-60185238D01*
X83788333Y-60090000D01*
X83883571Y-60042380D01*
X84074047Y-60042380D01*
X84169285Y-60090000D01*
X84264523Y-60185238D01*
X84312142Y-60375714D01*
X84312142Y-60709047D01*
X84264523Y-60899523D01*
X84169285Y-60994761D01*
X84074047Y-61042380D01*
X83883571Y-61042380D01*
X84693095Y-60137619D02*
X84740714Y-60090000D01*
X84835952Y-60042380D01*
X85074047Y-60042380D01*
X85169285Y-60090000D01*
X85216904Y-60137619D01*
X85264523Y-60232857D01*
X85264523Y-60328095D01*
X85216904Y-60470952D01*
X84645476Y-61042380D01*
X85264523Y-61042380D01*
X84359761Y-93452619D02*
X84264523Y-93405000D01*
X84169285Y-93309761D01*
X84026428Y-93166904D01*
X83931190Y-93119285D01*
X83835952Y-93119285D01*
X83883571Y-93357380D02*
X83788333Y-93309761D01*
X83693095Y-93214523D01*
X83645476Y-93024047D01*
X83645476Y-92690714D01*
X83693095Y-92500238D01*
X83788333Y-92405000D01*
X83883571Y-92357380D01*
X84074047Y-92357380D01*
X84169285Y-92405000D01*
X84264523Y-92500238D01*
X84312142Y-92690714D01*
X84312142Y-93024047D01*
X84264523Y-93214523D01*
X84169285Y-93309761D01*
X84074047Y-93357380D01*
X83883571Y-93357380D01*
X85264523Y-93357380D02*
X84693095Y-93357380D01*
X84978809Y-93357380D02*
X84978809Y-92357380D01*
X84883571Y-92500238D01*
X84788333Y-92595476D01*
X84693095Y-92643095D01*
X134651904Y-115882380D02*
X134651904Y-116691904D01*
X134699523Y-116787142D01*
X134747142Y-116834761D01*
X134842380Y-116882380D01*
X135032857Y-116882380D01*
X135128095Y-116834761D01*
X135175714Y-116787142D01*
X135223333Y-116691904D01*
X135223333Y-115882380D01*
X136223333Y-116882380D02*
X135651904Y-116882380D01*
X135937619Y-116882380D02*
X135937619Y-115882380D01*
X135842380Y-116025238D01*
X135747142Y-116120476D01*
X135651904Y-116168095D01*
X136556666Y-115882380D02*
X137175714Y-115882380D01*
X136842380Y-116263333D01*
X136985238Y-116263333D01*
X137080476Y-116310952D01*
X137128095Y-116358571D01*
X137175714Y-116453809D01*
X137175714Y-116691904D01*
X137128095Y-116787142D01*
X137080476Y-116834761D01*
X136985238Y-116882380D01*
X136699523Y-116882380D01*
X136604285Y-116834761D01*
X136556666Y-116787142D01*
X103536904Y-97467380D02*
X103536904Y-98276904D01*
X103584523Y-98372142D01*
X103632142Y-98419761D01*
X103727380Y-98467380D01*
X103917857Y-98467380D01*
X104013095Y-98419761D01*
X104060714Y-98372142D01*
X104108333Y-98276904D01*
X104108333Y-97467380D01*
X105108333Y-98467380D02*
X104536904Y-98467380D01*
X104822619Y-98467380D02*
X104822619Y-97467380D01*
X104727380Y-97610238D01*
X104632142Y-97705476D01*
X104536904Y-97753095D01*
X105489285Y-97562619D02*
X105536904Y-97515000D01*
X105632142Y-97467380D01*
X105870238Y-97467380D01*
X105965476Y-97515000D01*
X106013095Y-97562619D01*
X106060714Y-97657857D01*
X106060714Y-97753095D01*
X106013095Y-97895952D01*
X105441666Y-98467380D01*
X106060714Y-98467380D01*
X83851904Y-122097380D02*
X83851904Y-122906904D01*
X83899523Y-123002142D01*
X83947142Y-123049761D01*
X84042380Y-123097380D01*
X84232857Y-123097380D01*
X84328095Y-123049761D01*
X84375714Y-123002142D01*
X84423333Y-122906904D01*
X84423333Y-122097380D01*
X85423333Y-123097380D02*
X84851904Y-123097380D01*
X85137619Y-123097380D02*
X85137619Y-122097380D01*
X85042380Y-122240238D01*
X84947142Y-122335476D01*
X84851904Y-122383095D01*
X86375714Y-123097380D02*
X85804285Y-123097380D01*
X86090000Y-123097380D02*
X86090000Y-122097380D01*
X85994761Y-122240238D01*
X85899523Y-122335476D01*
X85804285Y-122383095D01*
X92741904Y-111212380D02*
X92741904Y-112021904D01*
X92789523Y-112117142D01*
X92837142Y-112164761D01*
X92932380Y-112212380D01*
X93122857Y-112212380D01*
X93218095Y-112164761D01*
X93265714Y-112117142D01*
X93313333Y-112021904D01*
X93313333Y-111212380D01*
X94313333Y-112212380D02*
X93741904Y-112212380D01*
X94027619Y-112212380D02*
X94027619Y-111212380D01*
X93932380Y-111355238D01*
X93837142Y-111450476D01*
X93741904Y-111498095D01*
X94932380Y-111212380D02*
X95027619Y-111212380D01*
X95122857Y-111260000D01*
X95170476Y-111307619D01*
X95218095Y-111402857D01*
X95265714Y-111593333D01*
X95265714Y-111831428D01*
X95218095Y-112021904D01*
X95170476Y-112117142D01*
X95122857Y-112164761D01*
X95027619Y-112212380D01*
X94932380Y-112212380D01*
X94837142Y-112164761D01*
X94789523Y-112117142D01*
X94741904Y-112021904D01*
X94694285Y-111831428D01*
X94694285Y-111593333D01*
X94741904Y-111402857D01*
X94789523Y-111307619D01*
X94837142Y-111260000D01*
X94932380Y-111212380D01*
X109338095Y-129627380D02*
X109338095Y-130436904D01*
X109385714Y-130532142D01*
X109433333Y-130579761D01*
X109528571Y-130627380D01*
X109719047Y-130627380D01*
X109814285Y-130579761D01*
X109861904Y-130532142D01*
X109909523Y-130436904D01*
X109909523Y-129627380D01*
X110433333Y-130627380D02*
X110623809Y-130627380D01*
X110719047Y-130579761D01*
X110766666Y-130532142D01*
X110861904Y-130389285D01*
X110909523Y-130198809D01*
X110909523Y-129817857D01*
X110861904Y-129722619D01*
X110814285Y-129675000D01*
X110719047Y-129627380D01*
X110528571Y-129627380D01*
X110433333Y-129675000D01*
X110385714Y-129722619D01*
X110338095Y-129817857D01*
X110338095Y-130055952D01*
X110385714Y-130151190D01*
X110433333Y-130198809D01*
X110528571Y-130246428D01*
X110719047Y-130246428D01*
X110814285Y-130198809D01*
X110861904Y-130151190D01*
X110909523Y-130055952D01*
X88773095Y-121372380D02*
X88773095Y-122181904D01*
X88820714Y-122277142D01*
X88868333Y-122324761D01*
X88963571Y-122372380D01*
X89154047Y-122372380D01*
X89249285Y-122324761D01*
X89296904Y-122277142D01*
X89344523Y-122181904D01*
X89344523Y-121372380D01*
X89963571Y-121800952D02*
X89868333Y-121753333D01*
X89820714Y-121705714D01*
X89773095Y-121610476D01*
X89773095Y-121562857D01*
X89820714Y-121467619D01*
X89868333Y-121420000D01*
X89963571Y-121372380D01*
X90154047Y-121372380D01*
X90249285Y-121420000D01*
X90296904Y-121467619D01*
X90344523Y-121562857D01*
X90344523Y-121610476D01*
X90296904Y-121705714D01*
X90249285Y-121753333D01*
X90154047Y-121800952D01*
X89963571Y-121800952D01*
X89868333Y-121848571D01*
X89820714Y-121896190D01*
X89773095Y-121991428D01*
X89773095Y-122181904D01*
X89820714Y-122277142D01*
X89868333Y-122324761D01*
X89963571Y-122372380D01*
X90154047Y-122372380D01*
X90249285Y-122324761D01*
X90296904Y-122277142D01*
X90344523Y-122181904D01*
X90344523Y-121991428D01*
X90296904Y-121896190D01*
X90249285Y-121848571D01*
X90154047Y-121800952D01*
X70993095Y-121782380D02*
X70993095Y-122591904D01*
X71040714Y-122687142D01*
X71088333Y-122734761D01*
X71183571Y-122782380D01*
X71374047Y-122782380D01*
X71469285Y-122734761D01*
X71516904Y-122687142D01*
X71564523Y-122591904D01*
X71564523Y-121782380D01*
X71945476Y-121782380D02*
X72612142Y-121782380D01*
X72183571Y-122782380D01*
X109338095Y-125817380D02*
X109338095Y-126626904D01*
X109385714Y-126722142D01*
X109433333Y-126769761D01*
X109528571Y-126817380D01*
X109719047Y-126817380D01*
X109814285Y-126769761D01*
X109861904Y-126722142D01*
X109909523Y-126626904D01*
X109909523Y-125817380D01*
X110814285Y-125817380D02*
X110623809Y-125817380D01*
X110528571Y-125865000D01*
X110480952Y-125912619D01*
X110385714Y-126055476D01*
X110338095Y-126245952D01*
X110338095Y-126626904D01*
X110385714Y-126722142D01*
X110433333Y-126769761D01*
X110528571Y-126817380D01*
X110719047Y-126817380D01*
X110814285Y-126769761D01*
X110861904Y-126722142D01*
X110909523Y-126626904D01*
X110909523Y-126388809D01*
X110861904Y-126293571D01*
X110814285Y-126245952D01*
X110719047Y-126198333D01*
X110528571Y-126198333D01*
X110433333Y-126245952D01*
X110385714Y-126293571D01*
X110338095Y-126388809D01*
X135763095Y-122867380D02*
X135763095Y-123676904D01*
X135810714Y-123772142D01*
X135858333Y-123819761D01*
X135953571Y-123867380D01*
X136144047Y-123867380D01*
X136239285Y-123819761D01*
X136286904Y-123772142D01*
X136334523Y-123676904D01*
X136334523Y-122867380D01*
X137286904Y-122867380D02*
X136810714Y-122867380D01*
X136763095Y-123343571D01*
X136810714Y-123295952D01*
X136905952Y-123248333D01*
X137144047Y-123248333D01*
X137239285Y-123295952D01*
X137286904Y-123343571D01*
X137334523Y-123438809D01*
X137334523Y-123676904D01*
X137286904Y-123772142D01*
X137239285Y-123819761D01*
X137144047Y-123867380D01*
X136905952Y-123867380D01*
X136810714Y-123819761D01*
X136763095Y-123772142D01*
X104013095Y-104452380D02*
X104013095Y-105261904D01*
X104060714Y-105357142D01*
X104108333Y-105404761D01*
X104203571Y-105452380D01*
X104394047Y-105452380D01*
X104489285Y-105404761D01*
X104536904Y-105357142D01*
X104584523Y-105261904D01*
X104584523Y-104452380D01*
X105489285Y-104785714D02*
X105489285Y-105452380D01*
X105251190Y-104404761D02*
X105013095Y-105119047D01*
X105632142Y-105119047D01*
X115688095Y-124347380D02*
X115688095Y-125156904D01*
X115735714Y-125252142D01*
X115783333Y-125299761D01*
X115878571Y-125347380D01*
X116069047Y-125347380D01*
X116164285Y-125299761D01*
X116211904Y-125252142D01*
X116259523Y-125156904D01*
X116259523Y-124347380D01*
X116640476Y-124347380D02*
X117259523Y-124347380D01*
X116926190Y-124728333D01*
X117069047Y-124728333D01*
X117164285Y-124775952D01*
X117211904Y-124823571D01*
X117259523Y-124918809D01*
X117259523Y-125156904D01*
X117211904Y-125252142D01*
X117164285Y-125299761D01*
X117069047Y-125347380D01*
X116783333Y-125347380D01*
X116688095Y-125299761D01*
X116640476Y-125252142D01*
X95123095Y-77557380D02*
X95123095Y-78366904D01*
X95170714Y-78462142D01*
X95218333Y-78509761D01*
X95313571Y-78557380D01*
X95504047Y-78557380D01*
X95599285Y-78509761D01*
X95646904Y-78462142D01*
X95694523Y-78366904D01*
X95694523Y-77557380D01*
X96123095Y-77652619D02*
X96170714Y-77605000D01*
X96265952Y-77557380D01*
X96504047Y-77557380D01*
X96599285Y-77605000D01*
X96646904Y-77652619D01*
X96694523Y-77747857D01*
X96694523Y-77843095D01*
X96646904Y-77985952D01*
X96075476Y-78557380D01*
X96694523Y-78557380D01*
X154187380Y-73376904D02*
X154996904Y-73376904D01*
X155092142Y-73329285D01*
X155139761Y-73281666D01*
X155187380Y-73186428D01*
X155187380Y-72995952D01*
X155139761Y-72900714D01*
X155092142Y-72853095D01*
X154996904Y-72805476D01*
X154187380Y-72805476D01*
X155187380Y-71805476D02*
X155187380Y-72376904D01*
X155187380Y-72091190D02*
X154187380Y-72091190D01*
X154330238Y-72186428D01*
X154425476Y-72281666D01*
X154473095Y-72376904D01*
X65643333Y-66127380D02*
X66214761Y-66127380D01*
X65929047Y-67127380D02*
X65929047Y-66127380D01*
X66405238Y-66127380D02*
X66738571Y-67127380D01*
X67071904Y-66127380D01*
X67357619Y-67079761D02*
X67500476Y-67127380D01*
X67738571Y-67127380D01*
X67833809Y-67079761D01*
X67881428Y-67032142D01*
X67929047Y-66936904D01*
X67929047Y-66841666D01*
X67881428Y-66746428D01*
X67833809Y-66698809D01*
X67738571Y-66651190D01*
X67548095Y-66603571D01*
X67452857Y-66555952D01*
X67405238Y-66508333D01*
X67357619Y-66413095D01*
X67357619Y-66317857D01*
X67405238Y-66222619D01*
X67452857Y-66175000D01*
X67548095Y-66127380D01*
X67786190Y-66127380D01*
X67929047Y-66175000D01*
X68881428Y-67127380D02*
X68310000Y-67127380D01*
X68595714Y-67127380D02*
X68595714Y-66127380D01*
X68500476Y-66270238D01*
X68405238Y-66365476D01*
X68310000Y-66413095D01*
X80653095Y-115564380D02*
X81224523Y-115564380D01*
X80938809Y-116564380D02*
X80938809Y-115564380D01*
X81557857Y-116564380D02*
X81557857Y-115564380D01*
X81938809Y-115564380D01*
X82034047Y-115612000D01*
X82081666Y-115659619D01*
X82129285Y-115754857D01*
X82129285Y-115897714D01*
X82081666Y-115992952D01*
X82034047Y-116040571D01*
X81938809Y-116088190D01*
X81557857Y-116088190D01*
X82986428Y-115564380D02*
X82795952Y-115564380D01*
X82700714Y-115612000D01*
X82653095Y-115659619D01*
X82557857Y-115802476D01*
X82510238Y-115992952D01*
X82510238Y-116373904D01*
X82557857Y-116469142D01*
X82605476Y-116516761D01*
X82700714Y-116564380D01*
X82891190Y-116564380D01*
X82986428Y-116516761D01*
X83034047Y-116469142D01*
X83081666Y-116373904D01*
X83081666Y-116135809D01*
X83034047Y-116040571D01*
X82986428Y-115992952D01*
X82891190Y-115945333D01*
X82700714Y-115945333D01*
X82605476Y-115992952D01*
X82557857Y-116040571D01*
X82510238Y-116135809D01*
X77478095Y-115564380D02*
X78049523Y-115564380D01*
X77763809Y-116564380D02*
X77763809Y-115564380D01*
X78382857Y-116564380D02*
X78382857Y-115564380D01*
X78763809Y-115564380D01*
X78859047Y-115612000D01*
X78906666Y-115659619D01*
X78954285Y-115754857D01*
X78954285Y-115897714D01*
X78906666Y-115992952D01*
X78859047Y-116040571D01*
X78763809Y-116088190D01*
X78382857Y-116088190D01*
X79859047Y-115564380D02*
X79382857Y-115564380D01*
X79335238Y-116040571D01*
X79382857Y-115992952D01*
X79478095Y-115945333D01*
X79716190Y-115945333D01*
X79811428Y-115992952D01*
X79859047Y-116040571D01*
X79906666Y-116135809D01*
X79906666Y-116373904D01*
X79859047Y-116469142D01*
X79811428Y-116516761D01*
X79716190Y-116564380D01*
X79478095Y-116564380D01*
X79382857Y-116516761D01*
X79335238Y-116469142D01*
X74303095Y-115564380D02*
X74874523Y-115564380D01*
X74588809Y-116564380D02*
X74588809Y-115564380D01*
X75207857Y-116564380D02*
X75207857Y-115564380D01*
X75588809Y-115564380D01*
X75684047Y-115612000D01*
X75731666Y-115659619D01*
X75779285Y-115754857D01*
X75779285Y-115897714D01*
X75731666Y-115992952D01*
X75684047Y-116040571D01*
X75588809Y-116088190D01*
X75207857Y-116088190D01*
X76636428Y-115897714D02*
X76636428Y-116564380D01*
X76398333Y-115516761D02*
X76160238Y-116231047D01*
X76779285Y-116231047D01*
X71128095Y-115564380D02*
X71699523Y-115564380D01*
X71413809Y-116564380D02*
X71413809Y-115564380D01*
X72032857Y-116564380D02*
X72032857Y-115564380D01*
X72413809Y-115564380D01*
X72509047Y-115612000D01*
X72556666Y-115659619D01*
X72604285Y-115754857D01*
X72604285Y-115897714D01*
X72556666Y-115992952D01*
X72509047Y-116040571D01*
X72413809Y-116088190D01*
X72032857Y-116088190D01*
X72937619Y-115564380D02*
X73556666Y-115564380D01*
X73223333Y-115945333D01*
X73366190Y-115945333D01*
X73461428Y-115992952D01*
X73509047Y-116040571D01*
X73556666Y-116135809D01*
X73556666Y-116373904D01*
X73509047Y-116469142D01*
X73461428Y-116516761D01*
X73366190Y-116564380D01*
X73080476Y-116564380D01*
X72985238Y-116516761D01*
X72937619Y-116469142D01*
X67953095Y-115564380D02*
X68524523Y-115564380D01*
X68238809Y-116564380D02*
X68238809Y-115564380D01*
X68857857Y-116564380D02*
X68857857Y-115564380D01*
X69238809Y-115564380D01*
X69334047Y-115612000D01*
X69381666Y-115659619D01*
X69429285Y-115754857D01*
X69429285Y-115897714D01*
X69381666Y-115992952D01*
X69334047Y-116040571D01*
X69238809Y-116088190D01*
X68857857Y-116088190D01*
X69810238Y-115659619D02*
X69857857Y-115612000D01*
X69953095Y-115564380D01*
X70191190Y-115564380D01*
X70286428Y-115612000D01*
X70334047Y-115659619D01*
X70381666Y-115754857D01*
X70381666Y-115850095D01*
X70334047Y-115992952D01*
X69762619Y-116564380D01*
X70381666Y-116564380D01*
X64778095Y-115564380D02*
X65349523Y-115564380D01*
X65063809Y-116564380D02*
X65063809Y-115564380D01*
X65682857Y-116564380D02*
X65682857Y-115564380D01*
X66063809Y-115564380D01*
X66159047Y-115612000D01*
X66206666Y-115659619D01*
X66254285Y-115754857D01*
X66254285Y-115897714D01*
X66206666Y-115992952D01*
X66159047Y-116040571D01*
X66063809Y-116088190D01*
X65682857Y-116088190D01*
X67206666Y-116564380D02*
X66635238Y-116564380D01*
X66920952Y-116564380D02*
X66920952Y-115564380D01*
X66825714Y-115707238D01*
X66730476Y-115802476D01*
X66635238Y-115850095D01*
X55181666Y-93749761D02*
X55324523Y-93797380D01*
X55562619Y-93797380D01*
X55657857Y-93749761D01*
X55705476Y-93702142D01*
X55753095Y-93606904D01*
X55753095Y-93511666D01*
X55705476Y-93416428D01*
X55657857Y-93368809D01*
X55562619Y-93321190D01*
X55372142Y-93273571D01*
X55276904Y-93225952D01*
X55229285Y-93178333D01*
X55181666Y-93083095D01*
X55181666Y-92987857D01*
X55229285Y-92892619D01*
X55276904Y-92845000D01*
X55372142Y-92797380D01*
X55610238Y-92797380D01*
X55753095Y-92845000D01*
X56086428Y-92797380D02*
X56324523Y-93797380D01*
X56515000Y-93083095D01*
X56705476Y-93797380D01*
X56943571Y-92797380D01*
X57848333Y-93797380D02*
X57276904Y-93797380D01*
X57562619Y-93797380D02*
X57562619Y-92797380D01*
X57467380Y-92940238D01*
X57372142Y-93035476D01*
X57276904Y-93083095D01*
X146247380Y-114307857D02*
X145771190Y-114641190D01*
X146247380Y-114879285D02*
X145247380Y-114879285D01*
X145247380Y-114498333D01*
X145295000Y-114403095D01*
X145342619Y-114355476D01*
X145437857Y-114307857D01*
X145580714Y-114307857D01*
X145675952Y-114355476D01*
X145723571Y-114403095D01*
X145771190Y-114498333D01*
X145771190Y-114879285D01*
X145247380Y-113974523D02*
X145247380Y-113355476D01*
X145628333Y-113688809D01*
X145628333Y-113545952D01*
X145675952Y-113450714D01*
X145723571Y-113403095D01*
X145818809Y-113355476D01*
X146056904Y-113355476D01*
X146152142Y-113403095D01*
X146199761Y-113450714D01*
X146247380Y-113545952D01*
X146247380Y-113831666D01*
X146199761Y-113926904D01*
X146152142Y-113974523D01*
X145675952Y-112784047D02*
X145628333Y-112879285D01*
X145580714Y-112926904D01*
X145485476Y-112974523D01*
X145437857Y-112974523D01*
X145342619Y-112926904D01*
X145295000Y-112879285D01*
X145247380Y-112784047D01*
X145247380Y-112593571D01*
X145295000Y-112498333D01*
X145342619Y-112450714D01*
X145437857Y-112403095D01*
X145485476Y-112403095D01*
X145580714Y-112450714D01*
X145628333Y-112498333D01*
X145675952Y-112593571D01*
X145675952Y-112784047D01*
X145723571Y-112879285D01*
X145771190Y-112926904D01*
X145866428Y-112974523D01*
X146056904Y-112974523D01*
X146152142Y-112926904D01*
X146199761Y-112879285D01*
X146247380Y-112784047D01*
X146247380Y-112593571D01*
X146199761Y-112498333D01*
X146152142Y-112450714D01*
X146056904Y-112403095D01*
X145866428Y-112403095D01*
X145771190Y-112450714D01*
X145723571Y-112498333D01*
X145675952Y-112593571D01*
X115132380Y-95892857D02*
X114656190Y-96226190D01*
X115132380Y-96464285D02*
X114132380Y-96464285D01*
X114132380Y-96083333D01*
X114180000Y-95988095D01*
X114227619Y-95940476D01*
X114322857Y-95892857D01*
X114465714Y-95892857D01*
X114560952Y-95940476D01*
X114608571Y-95988095D01*
X114656190Y-96083333D01*
X114656190Y-96464285D01*
X114132380Y-95559523D02*
X114132380Y-94940476D01*
X114513333Y-95273809D01*
X114513333Y-95130952D01*
X114560952Y-95035714D01*
X114608571Y-94988095D01*
X114703809Y-94940476D01*
X114941904Y-94940476D01*
X115037142Y-94988095D01*
X115084761Y-95035714D01*
X115132380Y-95130952D01*
X115132380Y-95416666D01*
X115084761Y-95511904D01*
X115037142Y-95559523D01*
X114132380Y-94607142D02*
X114132380Y-93940476D01*
X115132380Y-94369047D01*
X133342142Y-109672380D02*
X133008809Y-109196190D01*
X132770714Y-109672380D02*
X132770714Y-108672380D01*
X133151666Y-108672380D01*
X133246904Y-108720000D01*
X133294523Y-108767619D01*
X133342142Y-108862857D01*
X133342142Y-109005714D01*
X133294523Y-109100952D01*
X133246904Y-109148571D01*
X133151666Y-109196190D01*
X132770714Y-109196190D01*
X133675476Y-108672380D02*
X134294523Y-108672380D01*
X133961190Y-109053333D01*
X134104047Y-109053333D01*
X134199285Y-109100952D01*
X134246904Y-109148571D01*
X134294523Y-109243809D01*
X134294523Y-109481904D01*
X134246904Y-109577142D01*
X134199285Y-109624761D01*
X134104047Y-109672380D01*
X133818333Y-109672380D01*
X133723095Y-109624761D01*
X133675476Y-109577142D01*
X135151666Y-108672380D02*
X134961190Y-108672380D01*
X134865952Y-108720000D01*
X134818333Y-108767619D01*
X134723095Y-108910476D01*
X134675476Y-109100952D01*
X134675476Y-109481904D01*
X134723095Y-109577142D01*
X134770714Y-109624761D01*
X134865952Y-109672380D01*
X135056428Y-109672380D01*
X135151666Y-109624761D01*
X135199285Y-109577142D01*
X135246904Y-109481904D01*
X135246904Y-109243809D01*
X135199285Y-109148571D01*
X135151666Y-109100952D01*
X135056428Y-109053333D01*
X134865952Y-109053333D01*
X134770714Y-109100952D01*
X134723095Y-109148571D01*
X134675476Y-109243809D01*
X102227142Y-91257380D02*
X101893809Y-90781190D01*
X101655714Y-91257380D02*
X101655714Y-90257380D01*
X102036666Y-90257380D01*
X102131904Y-90305000D01*
X102179523Y-90352619D01*
X102227142Y-90447857D01*
X102227142Y-90590714D01*
X102179523Y-90685952D01*
X102131904Y-90733571D01*
X102036666Y-90781190D01*
X101655714Y-90781190D01*
X102560476Y-90257380D02*
X103179523Y-90257380D01*
X102846190Y-90638333D01*
X102989047Y-90638333D01*
X103084285Y-90685952D01*
X103131904Y-90733571D01*
X103179523Y-90828809D01*
X103179523Y-91066904D01*
X103131904Y-91162142D01*
X103084285Y-91209761D01*
X102989047Y-91257380D01*
X102703333Y-91257380D01*
X102608095Y-91209761D01*
X102560476Y-91162142D01*
X104084285Y-90257380D02*
X103608095Y-90257380D01*
X103560476Y-90733571D01*
X103608095Y-90685952D01*
X103703333Y-90638333D01*
X103941428Y-90638333D01*
X104036666Y-90685952D01*
X104084285Y-90733571D01*
X104131904Y-90828809D01*
X104131904Y-91066904D01*
X104084285Y-91162142D01*
X104036666Y-91209761D01*
X103941428Y-91257380D01*
X103703333Y-91257380D01*
X103608095Y-91209761D01*
X103560476Y-91162142D01*
X79747380Y-53542857D02*
X79271190Y-53876190D01*
X79747380Y-54114285D02*
X78747380Y-54114285D01*
X78747380Y-53733333D01*
X78795000Y-53638095D01*
X78842619Y-53590476D01*
X78937857Y-53542857D01*
X79080714Y-53542857D01*
X79175952Y-53590476D01*
X79223571Y-53638095D01*
X79271190Y-53733333D01*
X79271190Y-54114285D01*
X78747380Y-53209523D02*
X78747380Y-52590476D01*
X79128333Y-52923809D01*
X79128333Y-52780952D01*
X79175952Y-52685714D01*
X79223571Y-52638095D01*
X79318809Y-52590476D01*
X79556904Y-52590476D01*
X79652142Y-52638095D01*
X79699761Y-52685714D01*
X79747380Y-52780952D01*
X79747380Y-53066666D01*
X79699761Y-53161904D01*
X79652142Y-53209523D01*
X79080714Y-51733333D02*
X79747380Y-51733333D01*
X78699761Y-51971428D02*
X79414047Y-52209523D01*
X79414047Y-51590476D01*
X85717142Y-114752380D02*
X85383809Y-114276190D01*
X85145714Y-114752380D02*
X85145714Y-113752380D01*
X85526666Y-113752380D01*
X85621904Y-113800000D01*
X85669523Y-113847619D01*
X85717142Y-113942857D01*
X85717142Y-114085714D01*
X85669523Y-114180952D01*
X85621904Y-114228571D01*
X85526666Y-114276190D01*
X85145714Y-114276190D01*
X86050476Y-113752380D02*
X86669523Y-113752380D01*
X86336190Y-114133333D01*
X86479047Y-114133333D01*
X86574285Y-114180952D01*
X86621904Y-114228571D01*
X86669523Y-114323809D01*
X86669523Y-114561904D01*
X86621904Y-114657142D01*
X86574285Y-114704761D01*
X86479047Y-114752380D01*
X86193333Y-114752380D01*
X86098095Y-114704761D01*
X86050476Y-114657142D01*
X87002857Y-113752380D02*
X87621904Y-113752380D01*
X87288571Y-114133333D01*
X87431428Y-114133333D01*
X87526666Y-114180952D01*
X87574285Y-114228571D01*
X87621904Y-114323809D01*
X87621904Y-114561904D01*
X87574285Y-114657142D01*
X87526666Y-114704761D01*
X87431428Y-114752380D01*
X87145714Y-114752380D01*
X87050476Y-114704761D01*
X87002857Y-114657142D01*
X85717142Y-112847380D02*
X85383809Y-112371190D01*
X85145714Y-112847380D02*
X85145714Y-111847380D01*
X85526666Y-111847380D01*
X85621904Y-111895000D01*
X85669523Y-111942619D01*
X85717142Y-112037857D01*
X85717142Y-112180714D01*
X85669523Y-112275952D01*
X85621904Y-112323571D01*
X85526666Y-112371190D01*
X85145714Y-112371190D01*
X86050476Y-111847380D02*
X86669523Y-111847380D01*
X86336190Y-112228333D01*
X86479047Y-112228333D01*
X86574285Y-112275952D01*
X86621904Y-112323571D01*
X86669523Y-112418809D01*
X86669523Y-112656904D01*
X86621904Y-112752142D01*
X86574285Y-112799761D01*
X86479047Y-112847380D01*
X86193333Y-112847380D01*
X86098095Y-112799761D01*
X86050476Y-112752142D01*
X87050476Y-111942619D02*
X87098095Y-111895000D01*
X87193333Y-111847380D01*
X87431428Y-111847380D01*
X87526666Y-111895000D01*
X87574285Y-111942619D01*
X87621904Y-112037857D01*
X87621904Y-112133095D01*
X87574285Y-112275952D01*
X87002857Y-112847380D01*
X87621904Y-112847380D01*
X85717142Y-110942380D02*
X85383809Y-110466190D01*
X85145714Y-110942380D02*
X85145714Y-109942380D01*
X85526666Y-109942380D01*
X85621904Y-109990000D01*
X85669523Y-110037619D01*
X85717142Y-110132857D01*
X85717142Y-110275714D01*
X85669523Y-110370952D01*
X85621904Y-110418571D01*
X85526666Y-110466190D01*
X85145714Y-110466190D01*
X86050476Y-109942380D02*
X86669523Y-109942380D01*
X86336190Y-110323333D01*
X86479047Y-110323333D01*
X86574285Y-110370952D01*
X86621904Y-110418571D01*
X86669523Y-110513809D01*
X86669523Y-110751904D01*
X86621904Y-110847142D01*
X86574285Y-110894761D01*
X86479047Y-110942380D01*
X86193333Y-110942380D01*
X86098095Y-110894761D01*
X86050476Y-110847142D01*
X87621904Y-110942380D02*
X87050476Y-110942380D01*
X87336190Y-110942380D02*
X87336190Y-109942380D01*
X87240952Y-110085238D01*
X87145714Y-110180476D01*
X87050476Y-110228095D01*
X85717142Y-116657380D02*
X85383809Y-116181190D01*
X85145714Y-116657380D02*
X85145714Y-115657380D01*
X85526666Y-115657380D01*
X85621904Y-115705000D01*
X85669523Y-115752619D01*
X85717142Y-115847857D01*
X85717142Y-115990714D01*
X85669523Y-116085952D01*
X85621904Y-116133571D01*
X85526666Y-116181190D01*
X85145714Y-116181190D01*
X86050476Y-115657380D02*
X86669523Y-115657380D01*
X86336190Y-116038333D01*
X86479047Y-116038333D01*
X86574285Y-116085952D01*
X86621904Y-116133571D01*
X86669523Y-116228809D01*
X86669523Y-116466904D01*
X86621904Y-116562142D01*
X86574285Y-116609761D01*
X86479047Y-116657380D01*
X86193333Y-116657380D01*
X86098095Y-116609761D01*
X86050476Y-116562142D01*
X87288571Y-115657380D02*
X87383809Y-115657380D01*
X87479047Y-115705000D01*
X87526666Y-115752619D01*
X87574285Y-115847857D01*
X87621904Y-116038333D01*
X87621904Y-116276428D01*
X87574285Y-116466904D01*
X87526666Y-116562142D01*
X87479047Y-116609761D01*
X87383809Y-116657380D01*
X87288571Y-116657380D01*
X87193333Y-116609761D01*
X87145714Y-116562142D01*
X87098095Y-116466904D01*
X87050476Y-116276428D01*
X87050476Y-116038333D01*
X87098095Y-115847857D01*
X87145714Y-115752619D01*
X87193333Y-115705000D01*
X87288571Y-115657380D01*
X108647380Y-133357857D02*
X108171190Y-133691190D01*
X108647380Y-133929285D02*
X107647380Y-133929285D01*
X107647380Y-133548333D01*
X107695000Y-133453095D01*
X107742619Y-133405476D01*
X107837857Y-133357857D01*
X107980714Y-133357857D01*
X108075952Y-133405476D01*
X108123571Y-133453095D01*
X108171190Y-133548333D01*
X108171190Y-133929285D01*
X107742619Y-132976904D02*
X107695000Y-132929285D01*
X107647380Y-132834047D01*
X107647380Y-132595952D01*
X107695000Y-132500714D01*
X107742619Y-132453095D01*
X107837857Y-132405476D01*
X107933095Y-132405476D01*
X108075952Y-132453095D01*
X108647380Y-133024523D01*
X108647380Y-132405476D01*
X108647380Y-131929285D02*
X108647380Y-131738809D01*
X108599761Y-131643571D01*
X108552142Y-131595952D01*
X108409285Y-131500714D01*
X108218809Y-131453095D01*
X107837857Y-131453095D01*
X107742619Y-131500714D01*
X107695000Y-131548333D01*
X107647380Y-131643571D01*
X107647380Y-131834047D01*
X107695000Y-131929285D01*
X107742619Y-131976904D01*
X107837857Y-132024523D01*
X108075952Y-132024523D01*
X108171190Y-131976904D01*
X108218809Y-131929285D01*
X108266428Y-131834047D01*
X108266428Y-131643571D01*
X108218809Y-131548333D01*
X108171190Y-131500714D01*
X108075952Y-131453095D01*
X67937142Y-103957380D02*
X67603809Y-103481190D01*
X67365714Y-103957380D02*
X67365714Y-102957380D01*
X67746666Y-102957380D01*
X67841904Y-103005000D01*
X67889523Y-103052619D01*
X67937142Y-103147857D01*
X67937142Y-103290714D01*
X67889523Y-103385952D01*
X67841904Y-103433571D01*
X67746666Y-103481190D01*
X67365714Y-103481190D01*
X68318095Y-103052619D02*
X68365714Y-103005000D01*
X68460952Y-102957380D01*
X68699047Y-102957380D01*
X68794285Y-103005000D01*
X68841904Y-103052619D01*
X68889523Y-103147857D01*
X68889523Y-103243095D01*
X68841904Y-103385952D01*
X68270476Y-103957380D01*
X68889523Y-103957380D01*
X69460952Y-103385952D02*
X69365714Y-103338333D01*
X69318095Y-103290714D01*
X69270476Y-103195476D01*
X69270476Y-103147857D01*
X69318095Y-103052619D01*
X69365714Y-103005000D01*
X69460952Y-102957380D01*
X69651428Y-102957380D01*
X69746666Y-103005000D01*
X69794285Y-103052619D01*
X69841904Y-103147857D01*
X69841904Y-103195476D01*
X69794285Y-103290714D01*
X69746666Y-103338333D01*
X69651428Y-103385952D01*
X69460952Y-103385952D01*
X69365714Y-103433571D01*
X69318095Y-103481190D01*
X69270476Y-103576428D01*
X69270476Y-103766904D01*
X69318095Y-103862142D01*
X69365714Y-103909761D01*
X69460952Y-103957380D01*
X69651428Y-103957380D01*
X69746666Y-103909761D01*
X69794285Y-103862142D01*
X69841904Y-103766904D01*
X69841904Y-103576428D01*
X69794285Y-103481190D01*
X69746666Y-103433571D01*
X69651428Y-103385952D01*
X67937142Y-102052380D02*
X67603809Y-101576190D01*
X67365714Y-102052380D02*
X67365714Y-101052380D01*
X67746666Y-101052380D01*
X67841904Y-101100000D01*
X67889523Y-101147619D01*
X67937142Y-101242857D01*
X67937142Y-101385714D01*
X67889523Y-101480952D01*
X67841904Y-101528571D01*
X67746666Y-101576190D01*
X67365714Y-101576190D01*
X68318095Y-101147619D02*
X68365714Y-101100000D01*
X68460952Y-101052380D01*
X68699047Y-101052380D01*
X68794285Y-101100000D01*
X68841904Y-101147619D01*
X68889523Y-101242857D01*
X68889523Y-101338095D01*
X68841904Y-101480952D01*
X68270476Y-102052380D01*
X68889523Y-102052380D01*
X69222857Y-101052380D02*
X69889523Y-101052380D01*
X69460952Y-102052380D01*
X67937142Y-100147380D02*
X67603809Y-99671190D01*
X67365714Y-100147380D02*
X67365714Y-99147380D01*
X67746666Y-99147380D01*
X67841904Y-99195000D01*
X67889523Y-99242619D01*
X67937142Y-99337857D01*
X67937142Y-99480714D01*
X67889523Y-99575952D01*
X67841904Y-99623571D01*
X67746666Y-99671190D01*
X67365714Y-99671190D01*
X68318095Y-99242619D02*
X68365714Y-99195000D01*
X68460952Y-99147380D01*
X68699047Y-99147380D01*
X68794285Y-99195000D01*
X68841904Y-99242619D01*
X68889523Y-99337857D01*
X68889523Y-99433095D01*
X68841904Y-99575952D01*
X68270476Y-100147380D01*
X68889523Y-100147380D01*
X69746666Y-99147380D02*
X69556190Y-99147380D01*
X69460952Y-99195000D01*
X69413333Y-99242619D01*
X69318095Y-99385476D01*
X69270476Y-99575952D01*
X69270476Y-99956904D01*
X69318095Y-100052142D01*
X69365714Y-100099761D01*
X69460952Y-100147380D01*
X69651428Y-100147380D01*
X69746666Y-100099761D01*
X69794285Y-100052142D01*
X69841904Y-99956904D01*
X69841904Y-99718809D01*
X69794285Y-99623571D01*
X69746666Y-99575952D01*
X69651428Y-99528333D01*
X69460952Y-99528333D01*
X69365714Y-99575952D01*
X69318095Y-99623571D01*
X69270476Y-99718809D01*
X67937142Y-98242380D02*
X67603809Y-97766190D01*
X67365714Y-98242380D02*
X67365714Y-97242380D01*
X67746666Y-97242380D01*
X67841904Y-97290000D01*
X67889523Y-97337619D01*
X67937142Y-97432857D01*
X67937142Y-97575714D01*
X67889523Y-97670952D01*
X67841904Y-97718571D01*
X67746666Y-97766190D01*
X67365714Y-97766190D01*
X68318095Y-97337619D02*
X68365714Y-97290000D01*
X68460952Y-97242380D01*
X68699047Y-97242380D01*
X68794285Y-97290000D01*
X68841904Y-97337619D01*
X68889523Y-97432857D01*
X68889523Y-97528095D01*
X68841904Y-97670952D01*
X68270476Y-98242380D01*
X68889523Y-98242380D01*
X69794285Y-97242380D02*
X69318095Y-97242380D01*
X69270476Y-97718571D01*
X69318095Y-97670952D01*
X69413333Y-97623333D01*
X69651428Y-97623333D01*
X69746666Y-97670952D01*
X69794285Y-97718571D01*
X69841904Y-97813809D01*
X69841904Y-98051904D01*
X69794285Y-98147142D01*
X69746666Y-98194761D01*
X69651428Y-98242380D01*
X69413333Y-98242380D01*
X69318095Y-98194761D01*
X69270476Y-98147142D01*
X67937142Y-96337380D02*
X67603809Y-95861190D01*
X67365714Y-96337380D02*
X67365714Y-95337380D01*
X67746666Y-95337380D01*
X67841904Y-95385000D01*
X67889523Y-95432619D01*
X67937142Y-95527857D01*
X67937142Y-95670714D01*
X67889523Y-95765952D01*
X67841904Y-95813571D01*
X67746666Y-95861190D01*
X67365714Y-95861190D01*
X68318095Y-95432619D02*
X68365714Y-95385000D01*
X68460952Y-95337380D01*
X68699047Y-95337380D01*
X68794285Y-95385000D01*
X68841904Y-95432619D01*
X68889523Y-95527857D01*
X68889523Y-95623095D01*
X68841904Y-95765952D01*
X68270476Y-96337380D01*
X68889523Y-96337380D01*
X69746666Y-95670714D02*
X69746666Y-96337380D01*
X69508571Y-95289761D02*
X69270476Y-96004047D01*
X69889523Y-96004047D01*
X106672142Y-116657380D02*
X106338809Y-116181190D01*
X106100714Y-116657380D02*
X106100714Y-115657380D01*
X106481666Y-115657380D01*
X106576904Y-115705000D01*
X106624523Y-115752619D01*
X106672142Y-115847857D01*
X106672142Y-115990714D01*
X106624523Y-116085952D01*
X106576904Y-116133571D01*
X106481666Y-116181190D01*
X106100714Y-116181190D01*
X107053095Y-115752619D02*
X107100714Y-115705000D01*
X107195952Y-115657380D01*
X107434047Y-115657380D01*
X107529285Y-115705000D01*
X107576904Y-115752619D01*
X107624523Y-115847857D01*
X107624523Y-115943095D01*
X107576904Y-116085952D01*
X107005476Y-116657380D01*
X107624523Y-116657380D01*
X107957857Y-115657380D02*
X108576904Y-115657380D01*
X108243571Y-116038333D01*
X108386428Y-116038333D01*
X108481666Y-116085952D01*
X108529285Y-116133571D01*
X108576904Y-116228809D01*
X108576904Y-116466904D01*
X108529285Y-116562142D01*
X108481666Y-116609761D01*
X108386428Y-116657380D01*
X108100714Y-116657380D01*
X108005476Y-116609761D01*
X107957857Y-116562142D01*
X106672142Y-118562380D02*
X106338809Y-118086190D01*
X106100714Y-118562380D02*
X106100714Y-117562380D01*
X106481666Y-117562380D01*
X106576904Y-117610000D01*
X106624523Y-117657619D01*
X106672142Y-117752857D01*
X106672142Y-117895714D01*
X106624523Y-117990952D01*
X106576904Y-118038571D01*
X106481666Y-118086190D01*
X106100714Y-118086190D01*
X107053095Y-117657619D02*
X107100714Y-117610000D01*
X107195952Y-117562380D01*
X107434047Y-117562380D01*
X107529285Y-117610000D01*
X107576904Y-117657619D01*
X107624523Y-117752857D01*
X107624523Y-117848095D01*
X107576904Y-117990952D01*
X107005476Y-118562380D01*
X107624523Y-118562380D01*
X108005476Y-117657619D02*
X108053095Y-117610000D01*
X108148333Y-117562380D01*
X108386428Y-117562380D01*
X108481666Y-117610000D01*
X108529285Y-117657619D01*
X108576904Y-117752857D01*
X108576904Y-117848095D01*
X108529285Y-117990952D01*
X107957857Y-118562380D01*
X108576904Y-118562380D01*
X69207142Y-90622380D02*
X68873809Y-90146190D01*
X68635714Y-90622380D02*
X68635714Y-89622380D01*
X69016666Y-89622380D01*
X69111904Y-89670000D01*
X69159523Y-89717619D01*
X69207142Y-89812857D01*
X69207142Y-89955714D01*
X69159523Y-90050952D01*
X69111904Y-90098571D01*
X69016666Y-90146190D01*
X68635714Y-90146190D01*
X69588095Y-89717619D02*
X69635714Y-89670000D01*
X69730952Y-89622380D01*
X69969047Y-89622380D01*
X70064285Y-89670000D01*
X70111904Y-89717619D01*
X70159523Y-89812857D01*
X70159523Y-89908095D01*
X70111904Y-90050952D01*
X69540476Y-90622380D01*
X70159523Y-90622380D01*
X71111904Y-90622380D02*
X70540476Y-90622380D01*
X70826190Y-90622380D02*
X70826190Y-89622380D01*
X70730952Y-89765238D01*
X70635714Y-89860476D01*
X70540476Y-89908095D01*
X69207142Y-88717380D02*
X68873809Y-88241190D01*
X68635714Y-88717380D02*
X68635714Y-87717380D01*
X69016666Y-87717380D01*
X69111904Y-87765000D01*
X69159523Y-87812619D01*
X69207142Y-87907857D01*
X69207142Y-88050714D01*
X69159523Y-88145952D01*
X69111904Y-88193571D01*
X69016666Y-88241190D01*
X68635714Y-88241190D01*
X69588095Y-87812619D02*
X69635714Y-87765000D01*
X69730952Y-87717380D01*
X69969047Y-87717380D01*
X70064285Y-87765000D01*
X70111904Y-87812619D01*
X70159523Y-87907857D01*
X70159523Y-88003095D01*
X70111904Y-88145952D01*
X69540476Y-88717380D01*
X70159523Y-88717380D01*
X70778571Y-87717380D02*
X70873809Y-87717380D01*
X70969047Y-87765000D01*
X71016666Y-87812619D01*
X71064285Y-87907857D01*
X71111904Y-88098333D01*
X71111904Y-88336428D01*
X71064285Y-88526904D01*
X71016666Y-88622142D01*
X70969047Y-88669761D01*
X70873809Y-88717380D01*
X70778571Y-88717380D01*
X70683333Y-88669761D01*
X70635714Y-88622142D01*
X70588095Y-88526904D01*
X70540476Y-88336428D01*
X70540476Y-88098333D01*
X70588095Y-87907857D01*
X70635714Y-87812619D01*
X70683333Y-87765000D01*
X70778571Y-87717380D01*
X69207142Y-86812380D02*
X68873809Y-86336190D01*
X68635714Y-86812380D02*
X68635714Y-85812380D01*
X69016666Y-85812380D01*
X69111904Y-85860000D01*
X69159523Y-85907619D01*
X69207142Y-86002857D01*
X69207142Y-86145714D01*
X69159523Y-86240952D01*
X69111904Y-86288571D01*
X69016666Y-86336190D01*
X68635714Y-86336190D01*
X70159523Y-86812380D02*
X69588095Y-86812380D01*
X69873809Y-86812380D02*
X69873809Y-85812380D01*
X69778571Y-85955238D01*
X69683333Y-86050476D01*
X69588095Y-86098095D01*
X70635714Y-86812380D02*
X70826190Y-86812380D01*
X70921428Y-86764761D01*
X70969047Y-86717142D01*
X71064285Y-86574285D01*
X71111904Y-86383809D01*
X71111904Y-86002857D01*
X71064285Y-85907619D01*
X71016666Y-85860000D01*
X70921428Y-85812380D01*
X70730952Y-85812380D01*
X70635714Y-85860000D01*
X70588095Y-85907619D01*
X70540476Y-86002857D01*
X70540476Y-86240952D01*
X70588095Y-86336190D01*
X70635714Y-86383809D01*
X70730952Y-86431428D01*
X70921428Y-86431428D01*
X71016666Y-86383809D01*
X71064285Y-86336190D01*
X71111904Y-86240952D01*
X69207142Y-84907380D02*
X68873809Y-84431190D01*
X68635714Y-84907380D02*
X68635714Y-83907380D01*
X69016666Y-83907380D01*
X69111904Y-83955000D01*
X69159523Y-84002619D01*
X69207142Y-84097857D01*
X69207142Y-84240714D01*
X69159523Y-84335952D01*
X69111904Y-84383571D01*
X69016666Y-84431190D01*
X68635714Y-84431190D01*
X70159523Y-84907380D02*
X69588095Y-84907380D01*
X69873809Y-84907380D02*
X69873809Y-83907380D01*
X69778571Y-84050238D01*
X69683333Y-84145476D01*
X69588095Y-84193095D01*
X70730952Y-84335952D02*
X70635714Y-84288333D01*
X70588095Y-84240714D01*
X70540476Y-84145476D01*
X70540476Y-84097857D01*
X70588095Y-84002619D01*
X70635714Y-83955000D01*
X70730952Y-83907380D01*
X70921428Y-83907380D01*
X71016666Y-83955000D01*
X71064285Y-84002619D01*
X71111904Y-84097857D01*
X71111904Y-84145476D01*
X71064285Y-84240714D01*
X71016666Y-84288333D01*
X70921428Y-84335952D01*
X70730952Y-84335952D01*
X70635714Y-84383571D01*
X70588095Y-84431190D01*
X70540476Y-84526428D01*
X70540476Y-84716904D01*
X70588095Y-84812142D01*
X70635714Y-84859761D01*
X70730952Y-84907380D01*
X70921428Y-84907380D01*
X71016666Y-84859761D01*
X71064285Y-84812142D01*
X71111904Y-84716904D01*
X71111904Y-84526428D01*
X71064285Y-84431190D01*
X71016666Y-84383571D01*
X70921428Y-84335952D01*
X69207142Y-83002380D02*
X68873809Y-82526190D01*
X68635714Y-83002380D02*
X68635714Y-82002380D01*
X69016666Y-82002380D01*
X69111904Y-82050000D01*
X69159523Y-82097619D01*
X69207142Y-82192857D01*
X69207142Y-82335714D01*
X69159523Y-82430952D01*
X69111904Y-82478571D01*
X69016666Y-82526190D01*
X68635714Y-82526190D01*
X70159523Y-83002380D02*
X69588095Y-83002380D01*
X69873809Y-83002380D02*
X69873809Y-82002380D01*
X69778571Y-82145238D01*
X69683333Y-82240476D01*
X69588095Y-82288095D01*
X70492857Y-82002380D02*
X71159523Y-82002380D01*
X70730952Y-83002380D01*
X69207142Y-81097380D02*
X68873809Y-80621190D01*
X68635714Y-81097380D02*
X68635714Y-80097380D01*
X69016666Y-80097380D01*
X69111904Y-80145000D01*
X69159523Y-80192619D01*
X69207142Y-80287857D01*
X69207142Y-80430714D01*
X69159523Y-80525952D01*
X69111904Y-80573571D01*
X69016666Y-80621190D01*
X68635714Y-80621190D01*
X70159523Y-81097380D02*
X69588095Y-81097380D01*
X69873809Y-81097380D02*
X69873809Y-80097380D01*
X69778571Y-80240238D01*
X69683333Y-80335476D01*
X69588095Y-80383095D01*
X71016666Y-80097380D02*
X70826190Y-80097380D01*
X70730952Y-80145000D01*
X70683333Y-80192619D01*
X70588095Y-80335476D01*
X70540476Y-80525952D01*
X70540476Y-80906904D01*
X70588095Y-81002142D01*
X70635714Y-81049761D01*
X70730952Y-81097380D01*
X70921428Y-81097380D01*
X71016666Y-81049761D01*
X71064285Y-81002142D01*
X71111904Y-80906904D01*
X71111904Y-80668809D01*
X71064285Y-80573571D01*
X71016666Y-80525952D01*
X70921428Y-80478333D01*
X70730952Y-80478333D01*
X70635714Y-80525952D01*
X70588095Y-80573571D01*
X70540476Y-80668809D01*
X74032380Y-53542857D02*
X73556190Y-53876190D01*
X74032380Y-54114285D02*
X73032380Y-54114285D01*
X73032380Y-53733333D01*
X73080000Y-53638095D01*
X73127619Y-53590476D01*
X73222857Y-53542857D01*
X73365714Y-53542857D01*
X73460952Y-53590476D01*
X73508571Y-53638095D01*
X73556190Y-53733333D01*
X73556190Y-54114285D01*
X74032380Y-52590476D02*
X74032380Y-53161904D01*
X74032380Y-52876190D02*
X73032380Y-52876190D01*
X73175238Y-52971428D01*
X73270476Y-53066666D01*
X73318095Y-53161904D01*
X73032380Y-51685714D02*
X73032380Y-52161904D01*
X73508571Y-52209523D01*
X73460952Y-52161904D01*
X73413333Y-52066666D01*
X73413333Y-51828571D01*
X73460952Y-51733333D01*
X73508571Y-51685714D01*
X73603809Y-51638095D01*
X73841904Y-51638095D01*
X73937142Y-51685714D01*
X73984761Y-51733333D01*
X74032380Y-51828571D01*
X74032380Y-52066666D01*
X73984761Y-52161904D01*
X73937142Y-52209523D01*
X85717142Y-120467380D02*
X85383809Y-119991190D01*
X85145714Y-120467380D02*
X85145714Y-119467380D01*
X85526666Y-119467380D01*
X85621904Y-119515000D01*
X85669523Y-119562619D01*
X85717142Y-119657857D01*
X85717142Y-119800714D01*
X85669523Y-119895952D01*
X85621904Y-119943571D01*
X85526666Y-119991190D01*
X85145714Y-119991190D01*
X86669523Y-120467380D02*
X86098095Y-120467380D01*
X86383809Y-120467380D02*
X86383809Y-119467380D01*
X86288571Y-119610238D01*
X86193333Y-119705476D01*
X86098095Y-119753095D01*
X87526666Y-119800714D02*
X87526666Y-120467380D01*
X87288571Y-119419761D02*
X87050476Y-120134047D01*
X87669523Y-120134047D01*
X64762142Y-62682380D02*
X64428809Y-62206190D01*
X64190714Y-62682380D02*
X64190714Y-61682380D01*
X64571666Y-61682380D01*
X64666904Y-61730000D01*
X64714523Y-61777619D01*
X64762142Y-61872857D01*
X64762142Y-62015714D01*
X64714523Y-62110952D01*
X64666904Y-62158571D01*
X64571666Y-62206190D01*
X64190714Y-62206190D01*
X65714523Y-62682380D02*
X65143095Y-62682380D01*
X65428809Y-62682380D02*
X65428809Y-61682380D01*
X65333571Y-61825238D01*
X65238333Y-61920476D01*
X65143095Y-61968095D01*
X66047857Y-61682380D02*
X66666904Y-61682380D01*
X66333571Y-62063333D01*
X66476428Y-62063333D01*
X66571666Y-62110952D01*
X66619285Y-62158571D01*
X66666904Y-62253809D01*
X66666904Y-62491904D01*
X66619285Y-62587142D01*
X66571666Y-62634761D01*
X66476428Y-62682380D01*
X66190714Y-62682380D01*
X66095476Y-62634761D01*
X66047857Y-62587142D01*
X69207142Y-62682380D02*
X68873809Y-62206190D01*
X68635714Y-62682380D02*
X68635714Y-61682380D01*
X69016666Y-61682380D01*
X69111904Y-61730000D01*
X69159523Y-61777619D01*
X69207142Y-61872857D01*
X69207142Y-62015714D01*
X69159523Y-62110952D01*
X69111904Y-62158571D01*
X69016666Y-62206190D01*
X68635714Y-62206190D01*
X70159523Y-62682380D02*
X69588095Y-62682380D01*
X69873809Y-62682380D02*
X69873809Y-61682380D01*
X69778571Y-61825238D01*
X69683333Y-61920476D01*
X69588095Y-61968095D01*
X70540476Y-61777619D02*
X70588095Y-61730000D01*
X70683333Y-61682380D01*
X70921428Y-61682380D01*
X71016666Y-61730000D01*
X71064285Y-61777619D01*
X71111904Y-61872857D01*
X71111904Y-61968095D01*
X71064285Y-62110952D01*
X70492857Y-62682380D01*
X71111904Y-62682380D01*
X65397142Y-129102380D02*
X65063809Y-128626190D01*
X64825714Y-129102380D02*
X64825714Y-128102380D01*
X65206666Y-128102380D01*
X65301904Y-128150000D01*
X65349523Y-128197619D01*
X65397142Y-128292857D01*
X65397142Y-128435714D01*
X65349523Y-128530952D01*
X65301904Y-128578571D01*
X65206666Y-128626190D01*
X64825714Y-128626190D01*
X66349523Y-129102380D02*
X65778095Y-129102380D01*
X66063809Y-129102380D02*
X66063809Y-128102380D01*
X65968571Y-128245238D01*
X65873333Y-128340476D01*
X65778095Y-128388095D01*
X67301904Y-129102380D02*
X66730476Y-129102380D01*
X67016190Y-129102380D02*
X67016190Y-128102380D01*
X66920952Y-128245238D01*
X66825714Y-128340476D01*
X66730476Y-128388095D01*
X65397142Y-123007380D02*
X65063809Y-122531190D01*
X64825714Y-123007380D02*
X64825714Y-122007380D01*
X65206666Y-122007380D01*
X65301904Y-122055000D01*
X65349523Y-122102619D01*
X65397142Y-122197857D01*
X65397142Y-122340714D01*
X65349523Y-122435952D01*
X65301904Y-122483571D01*
X65206666Y-122531190D01*
X64825714Y-122531190D01*
X66349523Y-123007380D02*
X65778095Y-123007380D01*
X66063809Y-123007380D02*
X66063809Y-122007380D01*
X65968571Y-122150238D01*
X65873333Y-122245476D01*
X65778095Y-122293095D01*
X66968571Y-122007380D02*
X67063809Y-122007380D01*
X67159047Y-122055000D01*
X67206666Y-122102619D01*
X67254285Y-122197857D01*
X67301904Y-122388333D01*
X67301904Y-122626428D01*
X67254285Y-122816904D01*
X67206666Y-122912142D01*
X67159047Y-122959761D01*
X67063809Y-123007380D01*
X66968571Y-123007380D01*
X66873333Y-122959761D01*
X66825714Y-122912142D01*
X66778095Y-122816904D01*
X66730476Y-122626428D01*
X66730476Y-122388333D01*
X66778095Y-122197857D01*
X66825714Y-122102619D01*
X66873333Y-122055000D01*
X66968571Y-122007380D01*
X81748333Y-123007380D02*
X81415000Y-122531190D01*
X81176904Y-123007380D02*
X81176904Y-122007380D01*
X81557857Y-122007380D01*
X81653095Y-122055000D01*
X81700714Y-122102619D01*
X81748333Y-122197857D01*
X81748333Y-122340714D01*
X81700714Y-122435952D01*
X81653095Y-122483571D01*
X81557857Y-122531190D01*
X81176904Y-122531190D01*
X82224523Y-123007380D02*
X82415000Y-123007380D01*
X82510238Y-122959761D01*
X82557857Y-122912142D01*
X82653095Y-122769285D01*
X82700714Y-122578809D01*
X82700714Y-122197857D01*
X82653095Y-122102619D01*
X82605476Y-122055000D01*
X82510238Y-122007380D01*
X82319761Y-122007380D01*
X82224523Y-122055000D01*
X82176904Y-122102619D01*
X82129285Y-122197857D01*
X82129285Y-122435952D01*
X82176904Y-122531190D01*
X82224523Y-122578809D01*
X82319761Y-122626428D01*
X82510238Y-122626428D01*
X82605476Y-122578809D01*
X82653095Y-122531190D01*
X82700714Y-122435952D01*
X109933333Y-124912380D02*
X109600000Y-124436190D01*
X109361904Y-124912380D02*
X109361904Y-123912380D01*
X109742857Y-123912380D01*
X109838095Y-123960000D01*
X109885714Y-124007619D01*
X109933333Y-124102857D01*
X109933333Y-124245714D01*
X109885714Y-124340952D01*
X109838095Y-124388571D01*
X109742857Y-124436190D01*
X109361904Y-124436190D01*
X110504761Y-124340952D02*
X110409523Y-124293333D01*
X110361904Y-124245714D01*
X110314285Y-124150476D01*
X110314285Y-124102857D01*
X110361904Y-124007619D01*
X110409523Y-123960000D01*
X110504761Y-123912380D01*
X110695238Y-123912380D01*
X110790476Y-123960000D01*
X110838095Y-124007619D01*
X110885714Y-124102857D01*
X110885714Y-124150476D01*
X110838095Y-124245714D01*
X110790476Y-124293333D01*
X110695238Y-124340952D01*
X110504761Y-124340952D01*
X110409523Y-124388571D01*
X110361904Y-124436190D01*
X110314285Y-124531428D01*
X110314285Y-124721904D01*
X110361904Y-124817142D01*
X110409523Y-124864761D01*
X110504761Y-124912380D01*
X110695238Y-124912380D01*
X110790476Y-124864761D01*
X110838095Y-124817142D01*
X110885714Y-124721904D01*
X110885714Y-124531428D01*
X110838095Y-124436190D01*
X110790476Y-124388571D01*
X110695238Y-124340952D01*
X119213333Y-118562380D02*
X118880000Y-118086190D01*
X118641904Y-118562380D02*
X118641904Y-117562380D01*
X119022857Y-117562380D01*
X119118095Y-117610000D01*
X119165714Y-117657619D01*
X119213333Y-117752857D01*
X119213333Y-117895714D01*
X119165714Y-117990952D01*
X119118095Y-118038571D01*
X119022857Y-118086190D01*
X118641904Y-118086190D01*
X119546666Y-117562380D02*
X120213333Y-117562380D01*
X119784761Y-118562380D01*
X119213333Y-121102380D02*
X118880000Y-120626190D01*
X118641904Y-121102380D02*
X118641904Y-120102380D01*
X119022857Y-120102380D01*
X119118095Y-120150000D01*
X119165714Y-120197619D01*
X119213333Y-120292857D01*
X119213333Y-120435714D01*
X119165714Y-120530952D01*
X119118095Y-120578571D01*
X119022857Y-120626190D01*
X118641904Y-120626190D01*
X120070476Y-120102380D02*
X119880000Y-120102380D01*
X119784761Y-120150000D01*
X119737142Y-120197619D01*
X119641904Y-120340476D01*
X119594285Y-120530952D01*
X119594285Y-120911904D01*
X119641904Y-121007142D01*
X119689523Y-121054761D01*
X119784761Y-121102380D01*
X119975238Y-121102380D01*
X120070476Y-121054761D01*
X120118095Y-121007142D01*
X120165714Y-120911904D01*
X120165714Y-120673809D01*
X120118095Y-120578571D01*
X120070476Y-120530952D01*
X119975238Y-120483333D01*
X119784761Y-120483333D01*
X119689523Y-120530952D01*
X119641904Y-120578571D01*
X119594285Y-120673809D01*
X89368333Y-98242380D02*
X89035000Y-97766190D01*
X88796904Y-98242380D02*
X88796904Y-97242380D01*
X89177857Y-97242380D01*
X89273095Y-97290000D01*
X89320714Y-97337619D01*
X89368333Y-97432857D01*
X89368333Y-97575714D01*
X89320714Y-97670952D01*
X89273095Y-97718571D01*
X89177857Y-97766190D01*
X88796904Y-97766190D01*
X90273095Y-97242380D02*
X89796904Y-97242380D01*
X89749285Y-97718571D01*
X89796904Y-97670952D01*
X89892142Y-97623333D01*
X90130238Y-97623333D01*
X90225476Y-97670952D01*
X90273095Y-97718571D01*
X90320714Y-97813809D01*
X90320714Y-98051904D01*
X90273095Y-98147142D01*
X90225476Y-98194761D01*
X90130238Y-98242380D01*
X89892142Y-98242380D01*
X89796904Y-98194761D01*
X89749285Y-98147142D01*
X89368333Y-104592380D02*
X89035000Y-104116190D01*
X88796904Y-104592380D02*
X88796904Y-103592380D01*
X89177857Y-103592380D01*
X89273095Y-103640000D01*
X89320714Y-103687619D01*
X89368333Y-103782857D01*
X89368333Y-103925714D01*
X89320714Y-104020952D01*
X89273095Y-104068571D01*
X89177857Y-104116190D01*
X88796904Y-104116190D01*
X90225476Y-103925714D02*
X90225476Y-104592380D01*
X89987380Y-103544761D02*
X89749285Y-104259047D01*
X90368333Y-104259047D01*
X143327380Y-87796666D02*
X142851190Y-88130000D01*
X143327380Y-88368095D02*
X142327380Y-88368095D01*
X142327380Y-87987142D01*
X142375000Y-87891904D01*
X142422619Y-87844285D01*
X142517857Y-87796666D01*
X142660714Y-87796666D01*
X142755952Y-87844285D01*
X142803571Y-87891904D01*
X142851190Y-87987142D01*
X142851190Y-88368095D01*
X142327380Y-87463333D02*
X142327380Y-86844285D01*
X142708333Y-87177619D01*
X142708333Y-87034761D01*
X142755952Y-86939523D01*
X142803571Y-86891904D01*
X142898809Y-86844285D01*
X143136904Y-86844285D01*
X143232142Y-86891904D01*
X143279761Y-86939523D01*
X143327380Y-87034761D01*
X143327380Y-87320476D01*
X143279761Y-87415714D01*
X143232142Y-87463333D01*
X145232380Y-87796666D02*
X144756190Y-88130000D01*
X145232380Y-88368095D02*
X144232380Y-88368095D01*
X144232380Y-87987142D01*
X144280000Y-87891904D01*
X144327619Y-87844285D01*
X144422857Y-87796666D01*
X144565714Y-87796666D01*
X144660952Y-87844285D01*
X144708571Y-87891904D01*
X144756190Y-87987142D01*
X144756190Y-88368095D01*
X144327619Y-87415714D02*
X144280000Y-87368095D01*
X144232380Y-87272857D01*
X144232380Y-87034761D01*
X144280000Y-86939523D01*
X144327619Y-86891904D01*
X144422857Y-86844285D01*
X144518095Y-86844285D01*
X144660952Y-86891904D01*
X145232380Y-87463333D01*
X145232380Y-86844285D01*
X147137380Y-87796666D02*
X146661190Y-88130000D01*
X147137380Y-88368095D02*
X146137380Y-88368095D01*
X146137380Y-87987142D01*
X146185000Y-87891904D01*
X146232619Y-87844285D01*
X146327857Y-87796666D01*
X146470714Y-87796666D01*
X146565952Y-87844285D01*
X146613571Y-87891904D01*
X146661190Y-87987142D01*
X146661190Y-88368095D01*
X147137380Y-86844285D02*
X147137380Y-87415714D01*
X147137380Y-87130000D02*
X146137380Y-87130000D01*
X146280238Y-87225238D01*
X146375476Y-87320476D01*
X146423095Y-87415714D01*
X112212380Y-71921666D02*
X112212380Y-72397857D01*
X111212380Y-72397857D01*
X112212380Y-71064523D02*
X112212380Y-71635952D01*
X112212380Y-71350238D02*
X111212380Y-71350238D01*
X111355238Y-71445476D01*
X111450476Y-71540714D01*
X111498095Y-71635952D01*
X105076666Y-119677380D02*
X105076666Y-120391666D01*
X105029047Y-120534523D01*
X104933809Y-120629761D01*
X104790952Y-120677380D01*
X104695714Y-120677380D01*
X105981428Y-120010714D02*
X105981428Y-120677380D01*
X105743333Y-119629761D02*
X105505238Y-120344047D01*
X106124285Y-120344047D01*
X51870428Y-126238000D02*
X52959000Y-126238000D01*
X53176714Y-126310571D01*
X53321857Y-126455714D01*
X53394428Y-126673428D01*
X53394428Y-126818571D01*
X51870428Y-125657428D02*
X51870428Y-124714000D01*
X52451000Y-125222000D01*
X52451000Y-125004285D01*
X52523571Y-124859142D01*
X52596142Y-124786571D01*
X52741285Y-124714000D01*
X53104142Y-124714000D01*
X53249285Y-124786571D01*
X53321857Y-124859142D01*
X53394428Y-125004285D01*
X53394428Y-125439714D01*
X53321857Y-125584857D01*
X53249285Y-125657428D01*
X51870428Y-114173000D02*
X52959000Y-114173000D01*
X53176714Y-114245571D01*
X53321857Y-114390714D01*
X53394428Y-114608428D01*
X53394428Y-114753571D01*
X52015571Y-113519857D02*
X51943000Y-113447285D01*
X51870428Y-113302142D01*
X51870428Y-112939285D01*
X51943000Y-112794142D01*
X52015571Y-112721571D01*
X52160714Y-112649000D01*
X52305857Y-112649000D01*
X52523571Y-112721571D01*
X53394428Y-113592428D01*
X53394428Y-112649000D01*
X51101666Y-57237380D02*
X51101666Y-57951666D01*
X51054047Y-58094523D01*
X50958809Y-58189761D01*
X50815952Y-58237380D01*
X50720714Y-58237380D01*
X52101666Y-58237380D02*
X51530238Y-58237380D01*
X51815952Y-58237380D02*
X51815952Y-57237380D01*
X51720714Y-57380238D01*
X51625476Y-57475476D01*
X51530238Y-57523095D01*
X60761666Y-71573571D02*
X60428333Y-71573571D01*
X60428333Y-72097380D02*
X60428333Y-71097380D01*
X60904523Y-71097380D01*
X61618809Y-71573571D02*
X61761666Y-71621190D01*
X61809285Y-71668809D01*
X61856904Y-71764047D01*
X61856904Y-71906904D01*
X61809285Y-72002142D01*
X61761666Y-72049761D01*
X61666428Y-72097380D01*
X61285476Y-72097380D01*
X61285476Y-71097380D01*
X61618809Y-71097380D01*
X61714047Y-71145000D01*
X61761666Y-71192619D01*
X61809285Y-71287857D01*
X61809285Y-71383095D01*
X61761666Y-71478333D01*
X61714047Y-71525952D01*
X61618809Y-71573571D01*
X61285476Y-71573571D01*
X62237857Y-71192619D02*
X62285476Y-71145000D01*
X62380714Y-71097380D01*
X62618809Y-71097380D01*
X62714047Y-71145000D01*
X62761666Y-71192619D01*
X62809285Y-71287857D01*
X62809285Y-71383095D01*
X62761666Y-71525952D01*
X62190238Y-72097380D01*
X62809285Y-72097380D01*
X60761666Y-66493571D02*
X60428333Y-66493571D01*
X60428333Y-67017380D02*
X60428333Y-66017380D01*
X60904523Y-66017380D01*
X61618809Y-66493571D02*
X61761666Y-66541190D01*
X61809285Y-66588809D01*
X61856904Y-66684047D01*
X61856904Y-66826904D01*
X61809285Y-66922142D01*
X61761666Y-66969761D01*
X61666428Y-67017380D01*
X61285476Y-67017380D01*
X61285476Y-66017380D01*
X61618809Y-66017380D01*
X61714047Y-66065000D01*
X61761666Y-66112619D01*
X61809285Y-66207857D01*
X61809285Y-66303095D01*
X61761666Y-66398333D01*
X61714047Y-66445952D01*
X61618809Y-66493571D01*
X61285476Y-66493571D01*
X62809285Y-67017380D02*
X62237857Y-67017380D01*
X62523571Y-67017380D02*
X62523571Y-66017380D01*
X62428333Y-66160238D01*
X62333095Y-66255476D01*
X62237857Y-66303095D01*
X118165714Y-93162380D02*
X118165714Y-92162380D01*
X118403809Y-92162380D01*
X118546666Y-92210000D01*
X118641904Y-92305238D01*
X118689523Y-92400476D01*
X118737142Y-92590952D01*
X118737142Y-92733809D01*
X118689523Y-92924285D01*
X118641904Y-93019523D01*
X118546666Y-93114761D01*
X118403809Y-93162380D01*
X118165714Y-93162380D01*
X119118095Y-92257619D02*
X119165714Y-92210000D01*
X119260952Y-92162380D01*
X119499047Y-92162380D01*
X119594285Y-92210000D01*
X119641904Y-92257619D01*
X119689523Y-92352857D01*
X119689523Y-92448095D01*
X119641904Y-92590952D01*
X119070476Y-93162380D01*
X119689523Y-93162380D01*
X120022857Y-92162380D02*
X120689523Y-92162380D01*
X120260952Y-93162380D01*
X141025714Y-110307380D02*
X141025714Y-109307380D01*
X141263809Y-109307380D01*
X141406666Y-109355000D01*
X141501904Y-109450238D01*
X141549523Y-109545476D01*
X141597142Y-109735952D01*
X141597142Y-109878809D01*
X141549523Y-110069285D01*
X141501904Y-110164523D01*
X141406666Y-110259761D01*
X141263809Y-110307380D01*
X141025714Y-110307380D01*
X141978095Y-109402619D02*
X142025714Y-109355000D01*
X142120952Y-109307380D01*
X142359047Y-109307380D01*
X142454285Y-109355000D01*
X142501904Y-109402619D01*
X142549523Y-109497857D01*
X142549523Y-109593095D01*
X142501904Y-109735952D01*
X141930476Y-110307380D01*
X142549523Y-110307380D01*
X143406666Y-109307380D02*
X143216190Y-109307380D01*
X143120952Y-109355000D01*
X143073333Y-109402619D01*
X142978095Y-109545476D01*
X142930476Y-109735952D01*
X142930476Y-110116904D01*
X142978095Y-110212142D01*
X143025714Y-110259761D01*
X143120952Y-110307380D01*
X143311428Y-110307380D01*
X143406666Y-110259761D01*
X143454285Y-110212142D01*
X143501904Y-110116904D01*
X143501904Y-109878809D01*
X143454285Y-109783571D01*
X143406666Y-109735952D01*
X143311428Y-109688333D01*
X143120952Y-109688333D01*
X143025714Y-109735952D01*
X142978095Y-109783571D01*
X142930476Y-109878809D01*
X109910714Y-91892380D02*
X109910714Y-90892380D01*
X110148809Y-90892380D01*
X110291666Y-90940000D01*
X110386904Y-91035238D01*
X110434523Y-91130476D01*
X110482142Y-91320952D01*
X110482142Y-91463809D01*
X110434523Y-91654285D01*
X110386904Y-91749523D01*
X110291666Y-91844761D01*
X110148809Y-91892380D01*
X109910714Y-91892380D01*
X110863095Y-90987619D02*
X110910714Y-90940000D01*
X111005952Y-90892380D01*
X111244047Y-90892380D01*
X111339285Y-90940000D01*
X111386904Y-90987619D01*
X111434523Y-91082857D01*
X111434523Y-91178095D01*
X111386904Y-91320952D01*
X110815476Y-91892380D01*
X111434523Y-91892380D01*
X112339285Y-90892380D02*
X111863095Y-90892380D01*
X111815476Y-91368571D01*
X111863095Y-91320952D01*
X111958333Y-91273333D01*
X112196428Y-91273333D01*
X112291666Y-91320952D01*
X112339285Y-91368571D01*
X112386904Y-91463809D01*
X112386904Y-91701904D01*
X112339285Y-91797142D01*
X112291666Y-91844761D01*
X112196428Y-91892380D01*
X111958333Y-91892380D01*
X111863095Y-91844761D01*
X111815476Y-91797142D01*
X92130714Y-98337380D02*
X92130714Y-97337380D01*
X92368809Y-97337380D01*
X92511666Y-97385000D01*
X92606904Y-97480238D01*
X92654523Y-97575476D01*
X92702142Y-97765952D01*
X92702142Y-97908809D01*
X92654523Y-98099285D01*
X92606904Y-98194523D01*
X92511666Y-98289761D01*
X92368809Y-98337380D01*
X92130714Y-98337380D01*
X93083095Y-97432619D02*
X93130714Y-97385000D01*
X93225952Y-97337380D01*
X93464047Y-97337380D01*
X93559285Y-97385000D01*
X93606904Y-97432619D01*
X93654523Y-97527857D01*
X93654523Y-97623095D01*
X93606904Y-97765952D01*
X93035476Y-98337380D01*
X93654523Y-98337380D01*
X94511666Y-97670714D02*
X94511666Y-98337380D01*
X94273571Y-97289761D02*
X94035476Y-98004047D01*
X94654523Y-98004047D01*
X123245714Y-116752380D02*
X123245714Y-115752380D01*
X123483809Y-115752380D01*
X123626666Y-115800000D01*
X123721904Y-115895238D01*
X123769523Y-115990476D01*
X123817142Y-116180952D01*
X123817142Y-116323809D01*
X123769523Y-116514285D01*
X123721904Y-116609523D01*
X123626666Y-116704761D01*
X123483809Y-116752380D01*
X123245714Y-116752380D01*
X124198095Y-115847619D02*
X124245714Y-115800000D01*
X124340952Y-115752380D01*
X124579047Y-115752380D01*
X124674285Y-115800000D01*
X124721904Y-115847619D01*
X124769523Y-115942857D01*
X124769523Y-116038095D01*
X124721904Y-116180952D01*
X124150476Y-116752380D01*
X124769523Y-116752380D01*
X125102857Y-115752380D02*
X125721904Y-115752380D01*
X125388571Y-116133333D01*
X125531428Y-116133333D01*
X125626666Y-116180952D01*
X125674285Y-116228571D01*
X125721904Y-116323809D01*
X125721904Y-116561904D01*
X125674285Y-116657142D01*
X125626666Y-116704761D01*
X125531428Y-116752380D01*
X125245714Y-116752380D01*
X125150476Y-116704761D01*
X125102857Y-116657142D01*
X123245714Y-110212380D02*
X123245714Y-109212380D01*
X123483809Y-109212380D01*
X123626666Y-109260000D01*
X123721904Y-109355238D01*
X123769523Y-109450476D01*
X123817142Y-109640952D01*
X123817142Y-109783809D01*
X123769523Y-109974285D01*
X123721904Y-110069523D01*
X123626666Y-110164761D01*
X123483809Y-110212380D01*
X123245714Y-110212380D01*
X124198095Y-109307619D02*
X124245714Y-109260000D01*
X124340952Y-109212380D01*
X124579047Y-109212380D01*
X124674285Y-109260000D01*
X124721904Y-109307619D01*
X124769523Y-109402857D01*
X124769523Y-109498095D01*
X124721904Y-109640952D01*
X124150476Y-110212380D01*
X124769523Y-110212380D01*
X125150476Y-109307619D02*
X125198095Y-109260000D01*
X125293333Y-109212380D01*
X125531428Y-109212380D01*
X125626666Y-109260000D01*
X125674285Y-109307619D01*
X125721904Y-109402857D01*
X125721904Y-109498095D01*
X125674285Y-109640952D01*
X125102857Y-110212380D01*
X125721904Y-110212380D01*
X92130714Y-91797380D02*
X92130714Y-90797380D01*
X92368809Y-90797380D01*
X92511666Y-90845000D01*
X92606904Y-90940238D01*
X92654523Y-91035476D01*
X92702142Y-91225952D01*
X92702142Y-91368809D01*
X92654523Y-91559285D01*
X92606904Y-91654523D01*
X92511666Y-91749761D01*
X92368809Y-91797380D01*
X92130714Y-91797380D01*
X93083095Y-90892619D02*
X93130714Y-90845000D01*
X93225952Y-90797380D01*
X93464047Y-90797380D01*
X93559285Y-90845000D01*
X93606904Y-90892619D01*
X93654523Y-90987857D01*
X93654523Y-91083095D01*
X93606904Y-91225952D01*
X93035476Y-91797380D01*
X93654523Y-91797380D01*
X94606904Y-91797380D02*
X94035476Y-91797380D01*
X94321190Y-91797380D02*
X94321190Y-90797380D01*
X94225952Y-90940238D01*
X94130714Y-91035476D01*
X94035476Y-91083095D01*
X63317380Y-88209285D02*
X62317380Y-88209285D01*
X62317380Y-87971190D01*
X62365000Y-87828333D01*
X62460238Y-87733095D01*
X62555476Y-87685476D01*
X62745952Y-87637857D01*
X62888809Y-87637857D01*
X63079285Y-87685476D01*
X63174523Y-87733095D01*
X63269761Y-87828333D01*
X63317380Y-87971190D01*
X63317380Y-88209285D01*
X62412619Y-87256904D02*
X62365000Y-87209285D01*
X62317380Y-87114047D01*
X62317380Y-86875952D01*
X62365000Y-86780714D01*
X62412619Y-86733095D01*
X62507857Y-86685476D01*
X62603095Y-86685476D01*
X62745952Y-86733095D01*
X63317380Y-87304523D01*
X63317380Y-86685476D01*
X62317380Y-86066428D02*
X62317380Y-85971190D01*
X62365000Y-85875952D01*
X62412619Y-85828333D01*
X62507857Y-85780714D01*
X62698333Y-85733095D01*
X62936428Y-85733095D01*
X63126904Y-85780714D01*
X63222142Y-85828333D01*
X63269761Y-85875952D01*
X63317380Y-85971190D01*
X63317380Y-86066428D01*
X63269761Y-86161666D01*
X63222142Y-86209285D01*
X63126904Y-86256904D01*
X62936428Y-86304523D01*
X62698333Y-86304523D01*
X62507857Y-86256904D01*
X62412619Y-86209285D01*
X62365000Y-86161666D01*
X62317380Y-86066428D01*
X62047380Y-88209285D02*
X61047380Y-88209285D01*
X61047380Y-87971190D01*
X61095000Y-87828333D01*
X61190238Y-87733095D01*
X61285476Y-87685476D01*
X61475952Y-87637857D01*
X61618809Y-87637857D01*
X61809285Y-87685476D01*
X61904523Y-87733095D01*
X61999761Y-87828333D01*
X62047380Y-87971190D01*
X62047380Y-88209285D01*
X62047380Y-86685476D02*
X62047380Y-87256904D01*
X62047380Y-86971190D02*
X61047380Y-86971190D01*
X61190238Y-87066428D01*
X61285476Y-87161666D01*
X61333095Y-87256904D01*
X62047380Y-86209285D02*
X62047380Y-86018809D01*
X61999761Y-85923571D01*
X61952142Y-85875952D01*
X61809285Y-85780714D01*
X61618809Y-85733095D01*
X61237857Y-85733095D01*
X61142619Y-85780714D01*
X61095000Y-85828333D01*
X61047380Y-85923571D01*
X61047380Y-86114047D01*
X61095000Y-86209285D01*
X61142619Y-86256904D01*
X61237857Y-86304523D01*
X61475952Y-86304523D01*
X61571190Y-86256904D01*
X61618809Y-86209285D01*
X61666428Y-86114047D01*
X61666428Y-85923571D01*
X61618809Y-85828333D01*
X61571190Y-85780714D01*
X61475952Y-85733095D01*
X60777380Y-88209285D02*
X59777380Y-88209285D01*
X59777380Y-87971190D01*
X59825000Y-87828333D01*
X59920238Y-87733095D01*
X60015476Y-87685476D01*
X60205952Y-87637857D01*
X60348809Y-87637857D01*
X60539285Y-87685476D01*
X60634523Y-87733095D01*
X60729761Y-87828333D01*
X60777380Y-87971190D01*
X60777380Y-88209285D01*
X60777380Y-86685476D02*
X60777380Y-87256904D01*
X60777380Y-86971190D02*
X59777380Y-86971190D01*
X59920238Y-87066428D01*
X60015476Y-87161666D01*
X60063095Y-87256904D01*
X60205952Y-86114047D02*
X60158333Y-86209285D01*
X60110714Y-86256904D01*
X60015476Y-86304523D01*
X59967857Y-86304523D01*
X59872619Y-86256904D01*
X59825000Y-86209285D01*
X59777380Y-86114047D01*
X59777380Y-85923571D01*
X59825000Y-85828333D01*
X59872619Y-85780714D01*
X59967857Y-85733095D01*
X60015476Y-85733095D01*
X60110714Y-85780714D01*
X60158333Y-85828333D01*
X60205952Y-85923571D01*
X60205952Y-86114047D01*
X60253571Y-86209285D01*
X60301190Y-86256904D01*
X60396428Y-86304523D01*
X60586904Y-86304523D01*
X60682142Y-86256904D01*
X60729761Y-86209285D01*
X60777380Y-86114047D01*
X60777380Y-85923571D01*
X60729761Y-85828333D01*
X60682142Y-85780714D01*
X60586904Y-85733095D01*
X60396428Y-85733095D01*
X60301190Y-85780714D01*
X60253571Y-85828333D01*
X60205952Y-85923571D01*
X63317380Y-83129285D02*
X62317380Y-83129285D01*
X62317380Y-82891190D01*
X62365000Y-82748333D01*
X62460238Y-82653095D01*
X62555476Y-82605476D01*
X62745952Y-82557857D01*
X62888809Y-82557857D01*
X63079285Y-82605476D01*
X63174523Y-82653095D01*
X63269761Y-82748333D01*
X63317380Y-82891190D01*
X63317380Y-83129285D01*
X63317380Y-81605476D02*
X63317380Y-82176904D01*
X63317380Y-81891190D02*
X62317380Y-81891190D01*
X62460238Y-81986428D01*
X62555476Y-82081666D01*
X62603095Y-82176904D01*
X62317380Y-81272142D02*
X62317380Y-80605476D01*
X63317380Y-81034047D01*
X62047380Y-83129285D02*
X61047380Y-83129285D01*
X61047380Y-82891190D01*
X61095000Y-82748333D01*
X61190238Y-82653095D01*
X61285476Y-82605476D01*
X61475952Y-82557857D01*
X61618809Y-82557857D01*
X61809285Y-82605476D01*
X61904523Y-82653095D01*
X61999761Y-82748333D01*
X62047380Y-82891190D01*
X62047380Y-83129285D01*
X62047380Y-81605476D02*
X62047380Y-82176904D01*
X62047380Y-81891190D02*
X61047380Y-81891190D01*
X61190238Y-81986428D01*
X61285476Y-82081666D01*
X61333095Y-82176904D01*
X61047380Y-80748333D02*
X61047380Y-80938809D01*
X61095000Y-81034047D01*
X61142619Y-81081666D01*
X61285476Y-81176904D01*
X61475952Y-81224523D01*
X61856904Y-81224523D01*
X61952142Y-81176904D01*
X61999761Y-81129285D01*
X62047380Y-81034047D01*
X62047380Y-80843571D01*
X61999761Y-80748333D01*
X61952142Y-80700714D01*
X61856904Y-80653095D01*
X61618809Y-80653095D01*
X61523571Y-80700714D01*
X61475952Y-80748333D01*
X61428333Y-80843571D01*
X61428333Y-81034047D01*
X61475952Y-81129285D01*
X61523571Y-81176904D01*
X61618809Y-81224523D01*
X60777380Y-83129285D02*
X59777380Y-83129285D01*
X59777380Y-82891190D01*
X59825000Y-82748333D01*
X59920238Y-82653095D01*
X60015476Y-82605476D01*
X60205952Y-82557857D01*
X60348809Y-82557857D01*
X60539285Y-82605476D01*
X60634523Y-82653095D01*
X60729761Y-82748333D01*
X60777380Y-82891190D01*
X60777380Y-83129285D01*
X60777380Y-81605476D02*
X60777380Y-82176904D01*
X60777380Y-81891190D02*
X59777380Y-81891190D01*
X59920238Y-81986428D01*
X60015476Y-82081666D01*
X60063095Y-82176904D01*
X59777380Y-80700714D02*
X59777380Y-81176904D01*
X60253571Y-81224523D01*
X60205952Y-81176904D01*
X60158333Y-81081666D01*
X60158333Y-80843571D01*
X60205952Y-80748333D01*
X60253571Y-80700714D01*
X60348809Y-80653095D01*
X60586904Y-80653095D01*
X60682142Y-80700714D01*
X60729761Y-80748333D01*
X60777380Y-80843571D01*
X60777380Y-81081666D01*
X60729761Y-81176904D01*
X60682142Y-81224523D01*
X68000714Y-123007380D02*
X68000714Y-122007380D01*
X68238809Y-122007380D01*
X68381666Y-122055000D01*
X68476904Y-122150238D01*
X68524523Y-122245476D01*
X68572142Y-122435952D01*
X68572142Y-122578809D01*
X68524523Y-122769285D01*
X68476904Y-122864523D01*
X68381666Y-122959761D01*
X68238809Y-123007380D01*
X68000714Y-123007380D01*
X69524523Y-123007380D02*
X68953095Y-123007380D01*
X69238809Y-123007380D02*
X69238809Y-122007380D01*
X69143571Y-122150238D01*
X69048333Y-122245476D01*
X68953095Y-122293095D01*
X70381666Y-122340714D02*
X70381666Y-123007380D01*
X70143571Y-121959761D02*
X69905476Y-122674047D01*
X70524523Y-122674047D01*
X74985714Y-76847380D02*
X74985714Y-75847380D01*
X75223809Y-75847380D01*
X75366666Y-75895000D01*
X75461904Y-75990238D01*
X75509523Y-76085476D01*
X75557142Y-76275952D01*
X75557142Y-76418809D01*
X75509523Y-76609285D01*
X75461904Y-76704523D01*
X75366666Y-76799761D01*
X75223809Y-76847380D01*
X74985714Y-76847380D01*
X76509523Y-76847380D02*
X75938095Y-76847380D01*
X76223809Y-76847380D02*
X76223809Y-75847380D01*
X76128571Y-75990238D01*
X76033333Y-76085476D01*
X75938095Y-76133095D01*
X76842857Y-75847380D02*
X77461904Y-75847380D01*
X77128571Y-76228333D01*
X77271428Y-76228333D01*
X77366666Y-76275952D01*
X77414285Y-76323571D01*
X77461904Y-76418809D01*
X77461904Y-76656904D01*
X77414285Y-76752142D01*
X77366666Y-76799761D01*
X77271428Y-76847380D01*
X76985714Y-76847380D01*
X76890476Y-76799761D01*
X76842857Y-76752142D01*
X74985714Y-88277380D02*
X74985714Y-87277380D01*
X75223809Y-87277380D01*
X75366666Y-87325000D01*
X75461904Y-87420238D01*
X75509523Y-87515476D01*
X75557142Y-87705952D01*
X75557142Y-87848809D01*
X75509523Y-88039285D01*
X75461904Y-88134523D01*
X75366666Y-88229761D01*
X75223809Y-88277380D01*
X74985714Y-88277380D01*
X76509523Y-88277380D02*
X75938095Y-88277380D01*
X76223809Y-88277380D02*
X76223809Y-87277380D01*
X76128571Y-87420238D01*
X76033333Y-87515476D01*
X75938095Y-87563095D01*
X76890476Y-87372619D02*
X76938095Y-87325000D01*
X77033333Y-87277380D01*
X77271428Y-87277380D01*
X77366666Y-87325000D01*
X77414285Y-87372619D01*
X77461904Y-87467857D01*
X77461904Y-87563095D01*
X77414285Y-87705952D01*
X76842857Y-88277380D01*
X77461904Y-88277380D01*
X83240714Y-76847380D02*
X83240714Y-75847380D01*
X83478809Y-75847380D01*
X83621666Y-75895000D01*
X83716904Y-75990238D01*
X83764523Y-76085476D01*
X83812142Y-76275952D01*
X83812142Y-76418809D01*
X83764523Y-76609285D01*
X83716904Y-76704523D01*
X83621666Y-76799761D01*
X83478809Y-76847380D01*
X83240714Y-76847380D01*
X84764523Y-76847380D02*
X84193095Y-76847380D01*
X84478809Y-76847380D02*
X84478809Y-75847380D01*
X84383571Y-75990238D01*
X84288333Y-76085476D01*
X84193095Y-76133095D01*
X85716904Y-76847380D02*
X85145476Y-76847380D01*
X85431190Y-76847380D02*
X85431190Y-75847380D01*
X85335952Y-75990238D01*
X85240714Y-76085476D01*
X85145476Y-76133095D01*
X83240714Y-88277380D02*
X83240714Y-87277380D01*
X83478809Y-87277380D01*
X83621666Y-87325000D01*
X83716904Y-87420238D01*
X83764523Y-87515476D01*
X83812142Y-87705952D01*
X83812142Y-87848809D01*
X83764523Y-88039285D01*
X83716904Y-88134523D01*
X83621666Y-88229761D01*
X83478809Y-88277380D01*
X83240714Y-88277380D01*
X84764523Y-88277380D02*
X84193095Y-88277380D01*
X84478809Y-88277380D02*
X84478809Y-87277380D01*
X84383571Y-87420238D01*
X84288333Y-87515476D01*
X84193095Y-87563095D01*
X85383571Y-87277380D02*
X85478809Y-87277380D01*
X85574047Y-87325000D01*
X85621666Y-87372619D01*
X85669285Y-87467857D01*
X85716904Y-87658333D01*
X85716904Y-87896428D01*
X85669285Y-88086904D01*
X85621666Y-88182142D01*
X85574047Y-88229761D01*
X85478809Y-88277380D01*
X85383571Y-88277380D01*
X85288333Y-88229761D01*
X85240714Y-88182142D01*
X85193095Y-88086904D01*
X85145476Y-87896428D01*
X85145476Y-87658333D01*
X85193095Y-87467857D01*
X85240714Y-87372619D01*
X85288333Y-87325000D01*
X85383571Y-87277380D01*
X128166904Y-125912380D02*
X128166904Y-124912380D01*
X128405000Y-124912380D01*
X128547857Y-124960000D01*
X128643095Y-125055238D01*
X128690714Y-125150476D01*
X128738333Y-125340952D01*
X128738333Y-125483809D01*
X128690714Y-125674285D01*
X128643095Y-125769523D01*
X128547857Y-125864761D01*
X128405000Y-125912380D01*
X128166904Y-125912380D01*
X129214523Y-125912380D02*
X129405000Y-125912380D01*
X129500238Y-125864761D01*
X129547857Y-125817142D01*
X129643095Y-125674285D01*
X129690714Y-125483809D01*
X129690714Y-125102857D01*
X129643095Y-125007619D01*
X129595476Y-124960000D01*
X129500238Y-124912380D01*
X129309761Y-124912380D01*
X129214523Y-124960000D01*
X129166904Y-125007619D01*
X129119285Y-125102857D01*
X129119285Y-125340952D01*
X129166904Y-125436190D01*
X129214523Y-125483809D01*
X129309761Y-125531428D01*
X129500238Y-125531428D01*
X129595476Y-125483809D01*
X129643095Y-125436190D01*
X129690714Y-125340952D01*
X98956904Y-108402380D02*
X98956904Y-107402380D01*
X99195000Y-107402380D01*
X99337857Y-107450000D01*
X99433095Y-107545238D01*
X99480714Y-107640476D01*
X99528333Y-107830952D01*
X99528333Y-107973809D01*
X99480714Y-108164285D01*
X99433095Y-108259523D01*
X99337857Y-108354761D01*
X99195000Y-108402380D01*
X98956904Y-108402380D01*
X100099761Y-107830952D02*
X100004523Y-107783333D01*
X99956904Y-107735714D01*
X99909285Y-107640476D01*
X99909285Y-107592857D01*
X99956904Y-107497619D01*
X100004523Y-107450000D01*
X100099761Y-107402380D01*
X100290238Y-107402380D01*
X100385476Y-107450000D01*
X100433095Y-107497619D01*
X100480714Y-107592857D01*
X100480714Y-107640476D01*
X100433095Y-107735714D01*
X100385476Y-107783333D01*
X100290238Y-107830952D01*
X100099761Y-107830952D01*
X100004523Y-107878571D01*
X99956904Y-107926190D01*
X99909285Y-108021428D01*
X99909285Y-108211904D01*
X99956904Y-108307142D01*
X100004523Y-108354761D01*
X100099761Y-108402380D01*
X100290238Y-108402380D01*
X100385476Y-108354761D01*
X100433095Y-108307142D01*
X100480714Y-108211904D01*
X100480714Y-108021428D01*
X100433095Y-107926190D01*
X100385476Y-107878571D01*
X100290238Y-107830952D01*
X136977380Y-79283095D02*
X135977380Y-79283095D01*
X135977380Y-79045000D01*
X136025000Y-78902142D01*
X136120238Y-78806904D01*
X136215476Y-78759285D01*
X136405952Y-78711666D01*
X136548809Y-78711666D01*
X136739285Y-78759285D01*
X136834523Y-78806904D01*
X136929761Y-78902142D01*
X136977380Y-79045000D01*
X136977380Y-79283095D01*
X135977380Y-78378333D02*
X135977380Y-77711666D01*
X136977380Y-78140238D01*
X136977380Y-76743095D02*
X135977380Y-76743095D01*
X135977380Y-76505000D01*
X136025000Y-76362142D01*
X136120238Y-76266904D01*
X136215476Y-76219285D01*
X136405952Y-76171666D01*
X136548809Y-76171666D01*
X136739285Y-76219285D01*
X136834523Y-76266904D01*
X136929761Y-76362142D01*
X136977380Y-76505000D01*
X136977380Y-76743095D01*
X135977380Y-75314523D02*
X135977380Y-75505000D01*
X136025000Y-75600238D01*
X136072619Y-75647857D01*
X136215476Y-75743095D01*
X136405952Y-75790714D01*
X136786904Y-75790714D01*
X136882142Y-75743095D01*
X136929761Y-75695476D01*
X136977380Y-75600238D01*
X136977380Y-75409761D01*
X136929761Y-75314523D01*
X136882142Y-75266904D01*
X136786904Y-75219285D01*
X136548809Y-75219285D01*
X136453571Y-75266904D01*
X136405952Y-75314523D01*
X136358333Y-75409761D01*
X136358333Y-75600238D01*
X136405952Y-75695476D01*
X136453571Y-75743095D01*
X136548809Y-75790714D01*
X102092380Y-66143095D02*
X101092380Y-66143095D01*
X101092380Y-65905000D01*
X101140000Y-65762142D01*
X101235238Y-65666904D01*
X101330476Y-65619285D01*
X101520952Y-65571666D01*
X101663809Y-65571666D01*
X101854285Y-65619285D01*
X101949523Y-65666904D01*
X102044761Y-65762142D01*
X102092380Y-65905000D01*
X102092380Y-66143095D01*
X101092380Y-64666904D02*
X101092380Y-65143095D01*
X101568571Y-65190714D01*
X101520952Y-65143095D01*
X101473333Y-65047857D01*
X101473333Y-64809761D01*
X101520952Y-64714523D01*
X101568571Y-64666904D01*
X101663809Y-64619285D01*
X101901904Y-64619285D01*
X101997142Y-64666904D01*
X102044761Y-64714523D01*
X102092380Y-64809761D01*
X102092380Y-65047857D01*
X102044761Y-65143095D01*
X101997142Y-65190714D01*
X102766904Y-57602380D02*
X102766904Y-56602380D01*
X103005000Y-56602380D01*
X103147857Y-56650000D01*
X103243095Y-56745238D01*
X103290714Y-56840476D01*
X103338333Y-57030952D01*
X103338333Y-57173809D01*
X103290714Y-57364285D01*
X103243095Y-57459523D01*
X103147857Y-57554761D01*
X103005000Y-57602380D01*
X102766904Y-57602380D01*
X104195476Y-56935714D02*
X104195476Y-57602380D01*
X103957380Y-56554761D02*
X103719285Y-57269047D01*
X104338333Y-57269047D01*
X114196904Y-49982380D02*
X114196904Y-48982380D01*
X114435000Y-48982380D01*
X114577857Y-49030000D01*
X114673095Y-49125238D01*
X114720714Y-49220476D01*
X114768333Y-49410952D01*
X114768333Y-49553809D01*
X114720714Y-49744285D01*
X114673095Y-49839523D01*
X114577857Y-49934761D01*
X114435000Y-49982380D01*
X114196904Y-49982380D01*
X115101666Y-48982380D02*
X115720714Y-48982380D01*
X115387380Y-49363333D01*
X115530238Y-49363333D01*
X115625476Y-49410952D01*
X115673095Y-49458571D01*
X115720714Y-49553809D01*
X115720714Y-49791904D01*
X115673095Y-49887142D01*
X115625476Y-49934761D01*
X115530238Y-49982380D01*
X115244523Y-49982380D01*
X115149285Y-49934761D01*
X115101666Y-49887142D01*
X111656904Y-49982380D02*
X111656904Y-48982380D01*
X111895000Y-48982380D01*
X112037857Y-49030000D01*
X112133095Y-49125238D01*
X112180714Y-49220476D01*
X112228333Y-49410952D01*
X112228333Y-49553809D01*
X112180714Y-49744285D01*
X112133095Y-49839523D01*
X112037857Y-49934761D01*
X111895000Y-49982380D01*
X111656904Y-49982380D01*
X112609285Y-49077619D02*
X112656904Y-49030000D01*
X112752142Y-48982380D01*
X112990238Y-48982380D01*
X113085476Y-49030000D01*
X113133095Y-49077619D01*
X113180714Y-49172857D01*
X113180714Y-49268095D01*
X113133095Y-49410952D01*
X112561666Y-49982380D01*
X113180714Y-49982380D01*
X123086904Y-57602380D02*
X123086904Y-56602380D01*
X123325000Y-56602380D01*
X123467857Y-56650000D01*
X123563095Y-56745238D01*
X123610714Y-56840476D01*
X123658333Y-57030952D01*
X123658333Y-57173809D01*
X123610714Y-57364285D01*
X123563095Y-57459523D01*
X123467857Y-57554761D01*
X123325000Y-57602380D01*
X123086904Y-57602380D01*
X124610714Y-57602380D02*
X124039285Y-57602380D01*
X124325000Y-57602380D02*
X124325000Y-56602380D01*
X124229761Y-56745238D01*
X124134523Y-56840476D01*
X124039285Y-56888095D01*
X99687142Y-74017142D02*
X99639523Y-74064761D01*
X99496666Y-74112380D01*
X99401428Y-74112380D01*
X99258571Y-74064761D01*
X99163333Y-73969523D01*
X99115714Y-73874285D01*
X99068095Y-73683809D01*
X99068095Y-73540952D01*
X99115714Y-73350476D01*
X99163333Y-73255238D01*
X99258571Y-73160000D01*
X99401428Y-73112380D01*
X99496666Y-73112380D01*
X99639523Y-73160000D01*
X99687142Y-73207619D01*
X100068095Y-73207619D02*
X100115714Y-73160000D01*
X100210952Y-73112380D01*
X100449047Y-73112380D01*
X100544285Y-73160000D01*
X100591904Y-73207619D01*
X100639523Y-73302857D01*
X100639523Y-73398095D01*
X100591904Y-73540952D01*
X100020476Y-74112380D01*
X100639523Y-74112380D01*
X101496666Y-73445714D02*
X101496666Y-74112380D01*
X101258571Y-73064761D02*
X101020476Y-73779047D01*
X101639523Y-73779047D01*
X121277142Y-97512142D02*
X121229523Y-97559761D01*
X121086666Y-97607380D01*
X120991428Y-97607380D01*
X120848571Y-97559761D01*
X120753333Y-97464523D01*
X120705714Y-97369285D01*
X120658095Y-97178809D01*
X120658095Y-97035952D01*
X120705714Y-96845476D01*
X120753333Y-96750238D01*
X120848571Y-96655000D01*
X120991428Y-96607380D01*
X121086666Y-96607380D01*
X121229523Y-96655000D01*
X121277142Y-96702619D01*
X121658095Y-96702619D02*
X121705714Y-96655000D01*
X121800952Y-96607380D01*
X122039047Y-96607380D01*
X122134285Y-96655000D01*
X122181904Y-96702619D01*
X122229523Y-96797857D01*
X122229523Y-96893095D01*
X122181904Y-97035952D01*
X121610476Y-97607380D01*
X122229523Y-97607380D01*
X122562857Y-96607380D02*
X123181904Y-96607380D01*
X122848571Y-96988333D01*
X122991428Y-96988333D01*
X123086666Y-97035952D01*
X123134285Y-97083571D01*
X123181904Y-97178809D01*
X123181904Y-97416904D01*
X123134285Y-97512142D01*
X123086666Y-97559761D01*
X122991428Y-97607380D01*
X122705714Y-97607380D01*
X122610476Y-97559761D01*
X122562857Y-97512142D01*
X138422142Y-110847142D02*
X138374523Y-110894761D01*
X138231666Y-110942380D01*
X138136428Y-110942380D01*
X137993571Y-110894761D01*
X137898333Y-110799523D01*
X137850714Y-110704285D01*
X137803095Y-110513809D01*
X137803095Y-110370952D01*
X137850714Y-110180476D01*
X137898333Y-110085238D01*
X137993571Y-109990000D01*
X138136428Y-109942380D01*
X138231666Y-109942380D01*
X138374523Y-109990000D01*
X138422142Y-110037619D01*
X138803095Y-110037619D02*
X138850714Y-109990000D01*
X138945952Y-109942380D01*
X139184047Y-109942380D01*
X139279285Y-109990000D01*
X139326904Y-110037619D01*
X139374523Y-110132857D01*
X139374523Y-110228095D01*
X139326904Y-110370952D01*
X138755476Y-110942380D01*
X139374523Y-110942380D01*
X139755476Y-110037619D02*
X139803095Y-109990000D01*
X139898333Y-109942380D01*
X140136428Y-109942380D01*
X140231666Y-109990000D01*
X140279285Y-110037619D01*
X140326904Y-110132857D01*
X140326904Y-110228095D01*
X140279285Y-110370952D01*
X139707857Y-110942380D01*
X140326904Y-110942380D01*
X107307142Y-92432142D02*
X107259523Y-92479761D01*
X107116666Y-92527380D01*
X107021428Y-92527380D01*
X106878571Y-92479761D01*
X106783333Y-92384523D01*
X106735714Y-92289285D01*
X106688095Y-92098809D01*
X106688095Y-91955952D01*
X106735714Y-91765476D01*
X106783333Y-91670238D01*
X106878571Y-91575000D01*
X107021428Y-91527380D01*
X107116666Y-91527380D01*
X107259523Y-91575000D01*
X107307142Y-91622619D01*
X107688095Y-91622619D02*
X107735714Y-91575000D01*
X107830952Y-91527380D01*
X108069047Y-91527380D01*
X108164285Y-91575000D01*
X108211904Y-91622619D01*
X108259523Y-91717857D01*
X108259523Y-91813095D01*
X108211904Y-91955952D01*
X107640476Y-92527380D01*
X108259523Y-92527380D01*
X109211904Y-92527380D02*
X108640476Y-92527380D01*
X108926190Y-92527380D02*
X108926190Y-91527380D01*
X108830952Y-91670238D01*
X108735714Y-91765476D01*
X108640476Y-91813095D01*
X127627142Y-115927142D02*
X127579523Y-115974761D01*
X127436666Y-116022380D01*
X127341428Y-116022380D01*
X127198571Y-115974761D01*
X127103333Y-115879523D01*
X127055714Y-115784285D01*
X127008095Y-115593809D01*
X127008095Y-115450952D01*
X127055714Y-115260476D01*
X127103333Y-115165238D01*
X127198571Y-115070000D01*
X127341428Y-115022380D01*
X127436666Y-115022380D01*
X127579523Y-115070000D01*
X127627142Y-115117619D01*
X128008095Y-115117619D02*
X128055714Y-115070000D01*
X128150952Y-115022380D01*
X128389047Y-115022380D01*
X128484285Y-115070000D01*
X128531904Y-115117619D01*
X128579523Y-115212857D01*
X128579523Y-115308095D01*
X128531904Y-115450952D01*
X127960476Y-116022380D01*
X128579523Y-116022380D01*
X129198571Y-115022380D02*
X129293809Y-115022380D01*
X129389047Y-115070000D01*
X129436666Y-115117619D01*
X129484285Y-115212857D01*
X129531904Y-115403333D01*
X129531904Y-115641428D01*
X129484285Y-115831904D01*
X129436666Y-115927142D01*
X129389047Y-115974761D01*
X129293809Y-116022380D01*
X129198571Y-116022380D01*
X129103333Y-115974761D01*
X129055714Y-115927142D01*
X129008095Y-115831904D01*
X128960476Y-115641428D01*
X128960476Y-115403333D01*
X129008095Y-115212857D01*
X129055714Y-115117619D01*
X129103333Y-115070000D01*
X129198571Y-115022380D01*
X96512142Y-96877142D02*
X96464523Y-96924761D01*
X96321666Y-96972380D01*
X96226428Y-96972380D01*
X96083571Y-96924761D01*
X95988333Y-96829523D01*
X95940714Y-96734285D01*
X95893095Y-96543809D01*
X95893095Y-96400952D01*
X95940714Y-96210476D01*
X95988333Y-96115238D01*
X96083571Y-96020000D01*
X96226428Y-95972380D01*
X96321666Y-95972380D01*
X96464523Y-96020000D01*
X96512142Y-96067619D01*
X97464523Y-96972380D02*
X96893095Y-96972380D01*
X97178809Y-96972380D02*
X97178809Y-95972380D01*
X97083571Y-96115238D01*
X96988333Y-96210476D01*
X96893095Y-96258095D01*
X97940714Y-96972380D02*
X98131190Y-96972380D01*
X98226428Y-96924761D01*
X98274047Y-96877142D01*
X98369285Y-96734285D01*
X98416904Y-96543809D01*
X98416904Y-96162857D01*
X98369285Y-96067619D01*
X98321666Y-96020000D01*
X98226428Y-95972380D01*
X98035952Y-95972380D01*
X97940714Y-96020000D01*
X97893095Y-96067619D01*
X97845476Y-96162857D01*
X97845476Y-96400952D01*
X97893095Y-96496190D01*
X97940714Y-96543809D01*
X98035952Y-96591428D01*
X98226428Y-96591428D01*
X98321666Y-96543809D01*
X98369285Y-96496190D01*
X98416904Y-96400952D01*
X97520890Y-109577142D02*
X97473271Y-109624761D01*
X97330414Y-109672380D01*
X97235176Y-109672380D01*
X97092319Y-109624761D01*
X96997081Y-109529523D01*
X96949462Y-109434285D01*
X96901843Y-109243809D01*
X96901843Y-109100952D01*
X96949462Y-108910476D01*
X96997081Y-108815238D01*
X97092319Y-108720000D01*
X97235176Y-108672380D01*
X97330414Y-108672380D01*
X97473271Y-108720000D01*
X97520890Y-108767619D01*
X98473271Y-109672380D02*
X97901843Y-109672380D01*
X98187557Y-109672380D02*
X98187557Y-108672380D01*
X98092319Y-108815238D01*
X97997081Y-108910476D01*
X97901843Y-108958095D01*
X99044700Y-109100952D02*
X98949462Y-109053333D01*
X98901843Y-109005714D01*
X98854224Y-108910476D01*
X98854224Y-108862857D01*
X98901843Y-108767619D01*
X98949462Y-108720000D01*
X99044700Y-108672380D01*
X99235176Y-108672380D01*
X99330414Y-108720000D01*
X99378033Y-108767619D01*
X99425652Y-108862857D01*
X99425652Y-108910476D01*
X99378033Y-109005714D01*
X99330414Y-109053333D01*
X99235176Y-109100952D01*
X99044700Y-109100952D01*
X98949462Y-109148571D01*
X98901843Y-109196190D01*
X98854224Y-109291428D01*
X98854224Y-109481904D01*
X98901843Y-109577142D01*
X98949462Y-109624761D01*
X99044700Y-109672380D01*
X99235176Y-109672380D01*
X99330414Y-109624761D01*
X99378033Y-109577142D01*
X99425652Y-109481904D01*
X99425652Y-109291428D01*
X99378033Y-109196190D01*
X99330414Y-109148571D01*
X99235176Y-109100952D01*
X85717142Y-108942142D02*
X85669523Y-108989761D01*
X85526666Y-109037380D01*
X85431428Y-109037380D01*
X85288571Y-108989761D01*
X85193333Y-108894523D01*
X85145714Y-108799285D01*
X85098095Y-108608809D01*
X85098095Y-108465952D01*
X85145714Y-108275476D01*
X85193333Y-108180238D01*
X85288571Y-108085000D01*
X85431428Y-108037380D01*
X85526666Y-108037380D01*
X85669523Y-108085000D01*
X85717142Y-108132619D01*
X86669523Y-109037380D02*
X86098095Y-109037380D01*
X86383809Y-109037380D02*
X86383809Y-108037380D01*
X86288571Y-108180238D01*
X86193333Y-108275476D01*
X86098095Y-108323095D01*
X87002857Y-108037380D02*
X87669523Y-108037380D01*
X87240952Y-109037380D01*
X71112142Y-121007142D02*
X71064523Y-121054761D01*
X70921666Y-121102380D01*
X70826428Y-121102380D01*
X70683571Y-121054761D01*
X70588333Y-120959523D01*
X70540714Y-120864285D01*
X70493095Y-120673809D01*
X70493095Y-120530952D01*
X70540714Y-120340476D01*
X70588333Y-120245238D01*
X70683571Y-120150000D01*
X70826428Y-120102380D01*
X70921666Y-120102380D01*
X71064523Y-120150000D01*
X71112142Y-120197619D01*
X72064523Y-121102380D02*
X71493095Y-121102380D01*
X71778809Y-121102380D02*
X71778809Y-120102380D01*
X71683571Y-120245238D01*
X71588333Y-120340476D01*
X71493095Y-120388095D01*
X72921666Y-120102380D02*
X72731190Y-120102380D01*
X72635952Y-120150000D01*
X72588333Y-120197619D01*
X72493095Y-120340476D01*
X72445476Y-120530952D01*
X72445476Y-120911904D01*
X72493095Y-121007142D01*
X72540714Y-121054761D01*
X72635952Y-121102380D01*
X72826428Y-121102380D01*
X72921666Y-121054761D01*
X72969285Y-121007142D01*
X73016904Y-120911904D01*
X73016904Y-120673809D01*
X72969285Y-120578571D01*
X72921666Y-120530952D01*
X72826428Y-120483333D01*
X72635952Y-120483333D01*
X72540714Y-120530952D01*
X72493095Y-120578571D01*
X72445476Y-120673809D01*
X116832142Y-122912142D02*
X116784523Y-122959761D01*
X116641666Y-123007380D01*
X116546428Y-123007380D01*
X116403571Y-122959761D01*
X116308333Y-122864523D01*
X116260714Y-122769285D01*
X116213095Y-122578809D01*
X116213095Y-122435952D01*
X116260714Y-122245476D01*
X116308333Y-122150238D01*
X116403571Y-122055000D01*
X116546428Y-122007380D01*
X116641666Y-122007380D01*
X116784523Y-122055000D01*
X116832142Y-122102619D01*
X117784523Y-123007380D02*
X117213095Y-123007380D01*
X117498809Y-123007380D02*
X117498809Y-122007380D01*
X117403571Y-122150238D01*
X117308333Y-122245476D01*
X117213095Y-122293095D01*
X118689285Y-122007380D02*
X118213095Y-122007380D01*
X118165476Y-122483571D01*
X118213095Y-122435952D01*
X118308333Y-122388333D01*
X118546428Y-122388333D01*
X118641666Y-122435952D01*
X118689285Y-122483571D01*
X118736904Y-122578809D01*
X118736904Y-122816904D01*
X118689285Y-122912142D01*
X118641666Y-122959761D01*
X118546428Y-123007380D01*
X118308333Y-123007380D01*
X118213095Y-122959761D01*
X118165476Y-122912142D01*
X106672142Y-114657142D02*
X106624523Y-114704761D01*
X106481666Y-114752380D01*
X106386428Y-114752380D01*
X106243571Y-114704761D01*
X106148333Y-114609523D01*
X106100714Y-114514285D01*
X106053095Y-114323809D01*
X106053095Y-114180952D01*
X106100714Y-113990476D01*
X106148333Y-113895238D01*
X106243571Y-113800000D01*
X106386428Y-113752380D01*
X106481666Y-113752380D01*
X106624523Y-113800000D01*
X106672142Y-113847619D01*
X107624523Y-114752380D02*
X107053095Y-114752380D01*
X107338809Y-114752380D02*
X107338809Y-113752380D01*
X107243571Y-113895238D01*
X107148333Y-113990476D01*
X107053095Y-114038095D01*
X108481666Y-114085714D02*
X108481666Y-114752380D01*
X108243571Y-113704761D02*
X108005476Y-114419047D01*
X108624523Y-114419047D01*
X85717142Y-118467142D02*
X85669523Y-118514761D01*
X85526666Y-118562380D01*
X85431428Y-118562380D01*
X85288571Y-118514761D01*
X85193333Y-118419523D01*
X85145714Y-118324285D01*
X85098095Y-118133809D01*
X85098095Y-117990952D01*
X85145714Y-117800476D01*
X85193333Y-117705238D01*
X85288571Y-117610000D01*
X85431428Y-117562380D01*
X85526666Y-117562380D01*
X85669523Y-117610000D01*
X85717142Y-117657619D01*
X86669523Y-118562380D02*
X86098095Y-118562380D01*
X86383809Y-118562380D02*
X86383809Y-117562380D01*
X86288571Y-117705238D01*
X86193333Y-117800476D01*
X86098095Y-117848095D01*
X87002857Y-117562380D02*
X87621904Y-117562380D01*
X87288571Y-117943333D01*
X87431428Y-117943333D01*
X87526666Y-117990952D01*
X87574285Y-118038571D01*
X87621904Y-118133809D01*
X87621904Y-118371904D01*
X87574285Y-118467142D01*
X87526666Y-118514761D01*
X87431428Y-118562380D01*
X87145714Y-118562380D01*
X87050476Y-118514761D01*
X87002857Y-118467142D01*
X78097142Y-122912142D02*
X78049523Y-122959761D01*
X77906666Y-123007380D01*
X77811428Y-123007380D01*
X77668571Y-122959761D01*
X77573333Y-122864523D01*
X77525714Y-122769285D01*
X77478095Y-122578809D01*
X77478095Y-122435952D01*
X77525714Y-122245476D01*
X77573333Y-122150238D01*
X77668571Y-122055000D01*
X77811428Y-122007380D01*
X77906666Y-122007380D01*
X78049523Y-122055000D01*
X78097142Y-122102619D01*
X79049523Y-123007380D02*
X78478095Y-123007380D01*
X78763809Y-123007380D02*
X78763809Y-122007380D01*
X78668571Y-122150238D01*
X78573333Y-122245476D01*
X78478095Y-122293095D01*
X79430476Y-122102619D02*
X79478095Y-122055000D01*
X79573333Y-122007380D01*
X79811428Y-122007380D01*
X79906666Y-122055000D01*
X79954285Y-122102619D01*
X80001904Y-122197857D01*
X80001904Y-122293095D01*
X79954285Y-122435952D01*
X79382857Y-123007380D01*
X80001904Y-123007380D01*
X126357142Y-124817142D02*
X126309523Y-124864761D01*
X126166666Y-124912380D01*
X126071428Y-124912380D01*
X125928571Y-124864761D01*
X125833333Y-124769523D01*
X125785714Y-124674285D01*
X125738095Y-124483809D01*
X125738095Y-124340952D01*
X125785714Y-124150476D01*
X125833333Y-124055238D01*
X125928571Y-123960000D01*
X126071428Y-123912380D01*
X126166666Y-123912380D01*
X126309523Y-123960000D01*
X126357142Y-124007619D01*
X127309523Y-124912380D02*
X126738095Y-124912380D01*
X127023809Y-124912380D02*
X127023809Y-123912380D01*
X126928571Y-124055238D01*
X126833333Y-124150476D01*
X126738095Y-124198095D01*
X128261904Y-124912380D02*
X127690476Y-124912380D01*
X127976190Y-124912380D02*
X127976190Y-123912380D01*
X127880952Y-124055238D01*
X127785714Y-124150476D01*
X127690476Y-124198095D01*
X95242142Y-106402142D02*
X95194523Y-106449761D01*
X95051666Y-106497380D01*
X94956428Y-106497380D01*
X94813571Y-106449761D01*
X94718333Y-106354523D01*
X94670714Y-106259285D01*
X94623095Y-106068809D01*
X94623095Y-105925952D01*
X94670714Y-105735476D01*
X94718333Y-105640238D01*
X94813571Y-105545000D01*
X94956428Y-105497380D01*
X95051666Y-105497380D01*
X95194523Y-105545000D01*
X95242142Y-105592619D01*
X96194523Y-106497380D02*
X95623095Y-106497380D01*
X95908809Y-106497380D02*
X95908809Y-105497380D01*
X95813571Y-105640238D01*
X95718333Y-105735476D01*
X95623095Y-105783095D01*
X96813571Y-105497380D02*
X96908809Y-105497380D01*
X97004047Y-105545000D01*
X97051666Y-105592619D01*
X97099285Y-105687857D01*
X97146904Y-105878333D01*
X97146904Y-106116428D01*
X97099285Y-106306904D01*
X97051666Y-106402142D01*
X97004047Y-106449761D01*
X96908809Y-106497380D01*
X96813571Y-106497380D01*
X96718333Y-106449761D01*
X96670714Y-106402142D01*
X96623095Y-106306904D01*
X96575476Y-106116428D01*
X96575476Y-105878333D01*
X96623095Y-105687857D01*
X96670714Y-105592619D01*
X96718333Y-105545000D01*
X96813571Y-105497380D01*
X142073333Y-120412142D02*
X142025714Y-120459761D01*
X141882857Y-120507380D01*
X141787619Y-120507380D01*
X141644761Y-120459761D01*
X141549523Y-120364523D01*
X141501904Y-120269285D01*
X141454285Y-120078809D01*
X141454285Y-119935952D01*
X141501904Y-119745476D01*
X141549523Y-119650238D01*
X141644761Y-119555000D01*
X141787619Y-119507380D01*
X141882857Y-119507380D01*
X142025714Y-119555000D01*
X142073333Y-119602619D01*
X142549523Y-120507380D02*
X142740000Y-120507380D01*
X142835238Y-120459761D01*
X142882857Y-120412142D01*
X142978095Y-120269285D01*
X143025714Y-120078809D01*
X143025714Y-119697857D01*
X142978095Y-119602619D01*
X142930476Y-119555000D01*
X142835238Y-119507380D01*
X142644761Y-119507380D01*
X142549523Y-119555000D01*
X142501904Y-119602619D01*
X142454285Y-119697857D01*
X142454285Y-119935952D01*
X142501904Y-120031190D01*
X142549523Y-120078809D01*
X142644761Y-120126428D01*
X142835238Y-120126428D01*
X142930476Y-120078809D01*
X142978095Y-120031190D01*
X143025714Y-119935952D01*
X110958333Y-101957142D02*
X110910714Y-102004761D01*
X110767857Y-102052380D01*
X110672619Y-102052380D01*
X110529761Y-102004761D01*
X110434523Y-101909523D01*
X110386904Y-101814285D01*
X110339285Y-101623809D01*
X110339285Y-101480952D01*
X110386904Y-101290476D01*
X110434523Y-101195238D01*
X110529761Y-101100000D01*
X110672619Y-101052380D01*
X110767857Y-101052380D01*
X110910714Y-101100000D01*
X110958333Y-101147619D01*
X111529761Y-101480952D02*
X111434523Y-101433333D01*
X111386904Y-101385714D01*
X111339285Y-101290476D01*
X111339285Y-101242857D01*
X111386904Y-101147619D01*
X111434523Y-101100000D01*
X111529761Y-101052380D01*
X111720238Y-101052380D01*
X111815476Y-101100000D01*
X111863095Y-101147619D01*
X111910714Y-101242857D01*
X111910714Y-101290476D01*
X111863095Y-101385714D01*
X111815476Y-101433333D01*
X111720238Y-101480952D01*
X111529761Y-101480952D01*
X111434523Y-101528571D01*
X111386904Y-101576190D01*
X111339285Y-101671428D01*
X111339285Y-101861904D01*
X111386904Y-101957142D01*
X111434523Y-102004761D01*
X111529761Y-102052380D01*
X111720238Y-102052380D01*
X111815476Y-102004761D01*
X111863095Y-101957142D01*
X111910714Y-101861904D01*
X111910714Y-101671428D01*
X111863095Y-101576190D01*
X111815476Y-101528571D01*
X111720238Y-101480952D01*
X102068333Y-130532142D02*
X102020714Y-130579761D01*
X101877857Y-130627380D01*
X101782619Y-130627380D01*
X101639761Y-130579761D01*
X101544523Y-130484523D01*
X101496904Y-130389285D01*
X101449285Y-130198809D01*
X101449285Y-130055952D01*
X101496904Y-129865476D01*
X101544523Y-129770238D01*
X101639761Y-129675000D01*
X101782619Y-129627380D01*
X101877857Y-129627380D01*
X102020714Y-129675000D01*
X102068333Y-129722619D01*
X102401666Y-129627380D02*
X103068333Y-129627380D01*
X102639761Y-130627380D01*
X138152142Y-93511666D02*
X138199761Y-93559285D01*
X138247380Y-93702142D01*
X138247380Y-93797380D01*
X138199761Y-93940238D01*
X138104523Y-94035476D01*
X138009285Y-94083095D01*
X137818809Y-94130714D01*
X137675952Y-94130714D01*
X137485476Y-94083095D01*
X137390238Y-94035476D01*
X137295000Y-93940238D01*
X137247380Y-93797380D01*
X137247380Y-93702142D01*
X137295000Y-93559285D01*
X137342619Y-93511666D01*
X137247380Y-92654523D02*
X137247380Y-92845000D01*
X137295000Y-92940238D01*
X137342619Y-92987857D01*
X137485476Y-93083095D01*
X137675952Y-93130714D01*
X138056904Y-93130714D01*
X138152142Y-93083095D01*
X138199761Y-93035476D01*
X138247380Y-92940238D01*
X138247380Y-92749761D01*
X138199761Y-92654523D01*
X138152142Y-92606904D01*
X138056904Y-92559285D01*
X137818809Y-92559285D01*
X137723571Y-92606904D01*
X137675952Y-92654523D01*
X137628333Y-92749761D01*
X137628333Y-92940238D01*
X137675952Y-93035476D01*
X137723571Y-93083095D01*
X137818809Y-93130714D01*
X148947142Y-87796666D02*
X148994761Y-87844285D01*
X149042380Y-87987142D01*
X149042380Y-88082380D01*
X148994761Y-88225238D01*
X148899523Y-88320476D01*
X148804285Y-88368095D01*
X148613809Y-88415714D01*
X148470952Y-88415714D01*
X148280476Y-88368095D01*
X148185238Y-88320476D01*
X148090000Y-88225238D01*
X148042380Y-88082380D01*
X148042380Y-87987142D01*
X148090000Y-87844285D01*
X148137619Y-87796666D01*
X148042380Y-86891904D02*
X148042380Y-87368095D01*
X148518571Y-87415714D01*
X148470952Y-87368095D01*
X148423333Y-87272857D01*
X148423333Y-87034761D01*
X148470952Y-86939523D01*
X148518571Y-86891904D01*
X148613809Y-86844285D01*
X148851904Y-86844285D01*
X148947142Y-86891904D01*
X148994761Y-86939523D01*
X149042380Y-87034761D01*
X149042380Y-87272857D01*
X148994761Y-87368095D01*
X148947142Y-87415714D01*
X133707142Y-56046666D02*
X133754761Y-56094285D01*
X133802380Y-56237142D01*
X133802380Y-56332380D01*
X133754761Y-56475238D01*
X133659523Y-56570476D01*
X133564285Y-56618095D01*
X133373809Y-56665714D01*
X133230952Y-56665714D01*
X133040476Y-56618095D01*
X132945238Y-56570476D01*
X132850000Y-56475238D01*
X132802380Y-56332380D01*
X132802380Y-56237142D01*
X132850000Y-56094285D01*
X132897619Y-56046666D01*
X133135714Y-55189523D02*
X133802380Y-55189523D01*
X132754761Y-55427619D02*
X133469047Y-55665714D01*
X133469047Y-55046666D01*
X102068333Y-87987142D02*
X102020714Y-88034761D01*
X101877857Y-88082380D01*
X101782619Y-88082380D01*
X101639761Y-88034761D01*
X101544523Y-87939523D01*
X101496904Y-87844285D01*
X101449285Y-87653809D01*
X101449285Y-87510952D01*
X101496904Y-87320476D01*
X101544523Y-87225238D01*
X101639761Y-87130000D01*
X101782619Y-87082380D01*
X101877857Y-87082380D01*
X102020714Y-87130000D01*
X102068333Y-87177619D01*
X102401666Y-87082380D02*
X103020714Y-87082380D01*
X102687380Y-87463333D01*
X102830238Y-87463333D01*
X102925476Y-87510952D01*
X102973095Y-87558571D01*
X103020714Y-87653809D01*
X103020714Y-87891904D01*
X102973095Y-87987142D01*
X102925476Y-88034761D01*
X102830238Y-88082380D01*
X102544523Y-88082380D01*
X102449285Y-88034761D01*
X102401666Y-87987142D01*
X96988333Y-87987142D02*
X96940714Y-88034761D01*
X96797857Y-88082380D01*
X96702619Y-88082380D01*
X96559761Y-88034761D01*
X96464523Y-87939523D01*
X96416904Y-87844285D01*
X96369285Y-87653809D01*
X96369285Y-87510952D01*
X96416904Y-87320476D01*
X96464523Y-87225238D01*
X96559761Y-87130000D01*
X96702619Y-87082380D01*
X96797857Y-87082380D01*
X96940714Y-87130000D01*
X96988333Y-87177619D01*
X97369285Y-87177619D02*
X97416904Y-87130000D01*
X97512142Y-87082380D01*
X97750238Y-87082380D01*
X97845476Y-87130000D01*
X97893095Y-87177619D01*
X97940714Y-87272857D01*
X97940714Y-87368095D01*
X97893095Y-87510952D01*
X97321666Y-88082380D01*
X97940714Y-88082380D01*
X81748333Y-128627142D02*
X81700714Y-128674761D01*
X81557857Y-128722380D01*
X81462619Y-128722380D01*
X81319761Y-128674761D01*
X81224523Y-128579523D01*
X81176904Y-128484285D01*
X81129285Y-128293809D01*
X81129285Y-128150952D01*
X81176904Y-127960476D01*
X81224523Y-127865238D01*
X81319761Y-127770000D01*
X81462619Y-127722380D01*
X81557857Y-127722380D01*
X81700714Y-127770000D01*
X81748333Y-127817619D01*
X82700714Y-128722380D02*
X82129285Y-128722380D01*
X82415000Y-128722380D02*
X82415000Y-127722380D01*
X82319761Y-127865238D01*
X82224523Y-127960476D01*
X82129285Y-128008095D01*
M02*
