G04 #@! TF.GenerationSoftware,KiCad,Pcbnew,(5.99.0-823-ga085f82be)*
G04 #@! TF.CreationDate,2020-03-07T17:34:11-08:00*
G04 #@! TF.ProjectId,DCC_Booster,4443435f-426f-46f7-9374-65722e6b6963,A*
G04 #@! TF.SameCoordinates,Original*
G04 #@! TF.FileFunction,Soldermask,Bot*
G04 #@! TF.FilePolarity,Negative*
%FSLAX46Y46*%
G04 Gerber Fmt 4.6, Leading zero omitted, Abs format (unit mm)*
G04 Created by KiCad (PCBNEW (5.99.0-823-ga085f82be)) date 2020-03-07 17:34:11*
%MOMM*%
%LPD*%
G04 APERTURE LIST*
%ADD10C,3.200000*%
%ADD11C,2.999999*%
%ADD12O,1.500000X2.300000*%
%ADD13R,1.500000X2.300000*%
%ADD14O,1.800000X1.800000*%
%ADD15R,1.800000X1.800000*%
%ADD16O,1.600000X1.600000*%
%ADD17R,1.600000X1.600000*%
%ADD18C,4.200000*%
%ADD19O,1.700000X1.700000*%
%ADD20R,1.700000X1.700000*%
%ADD21O,3.600000X1.800000*%
%ADD22C,1.800000*%
%ADD23C,1.600000*%
%ADD24C,2.400000*%
%ADD25R,2.400000X2.400000*%
G04 APERTURE END LIST*
D10*
X147320000Y-137160000D03*
D11*
X145415000Y-60655000D03*
X145415000Y-84455000D03*
D10*
X147320000Y-48260000D03*
X54610000Y-48260000D03*
X54610000Y-137160000D03*
D12*
X102235000Y-80645000D03*
X99695000Y-80645000D03*
D13*
X97155000Y-80645000D03*
D14*
X145415000Y-76015000D03*
X149115000Y-74315000D03*
X145415000Y-72615000D03*
X149115000Y-70915000D03*
D15*
X145415000Y-69215000D03*
D16*
X60325000Y-93345000D03*
X52705000Y-103505000D03*
X60325000Y-95885000D03*
X52705000Y-100965000D03*
X60325000Y-98425000D03*
X52705000Y-98425000D03*
X60325000Y-100965000D03*
X52705000Y-95885000D03*
X60325000Y-103505000D03*
D17*
X52705000Y-93345000D03*
D18*
X119380000Y-87835000D03*
X119380000Y-64135000D03*
D19*
X105410000Y-132715000D03*
X105410000Y-130175000D03*
X105410000Y-127635000D03*
X105410000Y-125095000D03*
D20*
X105410000Y-122555000D03*
D21*
X55245000Y-74295000D03*
X55245000Y-69215000D03*
X55245000Y-64135000D03*
G36*
X56890671Y-58174030D02*
G01*
X56971777Y-58228223D01*
X57025970Y-58309329D01*
X57045000Y-58405000D01*
X57045000Y-59705000D01*
X57025970Y-59800671D01*
X56971777Y-59881777D01*
X56890671Y-59935970D01*
X56795000Y-59955000D01*
X53695000Y-59955000D01*
X53599329Y-59935970D01*
X53518223Y-59881777D01*
X53464030Y-59800671D01*
X53445000Y-59705000D01*
X53445000Y-58405000D01*
X53464030Y-58309329D01*
X53518223Y-58228223D01*
X53599329Y-58174030D01*
X53695000Y-58155000D01*
X56795000Y-58155000D01*
X56890671Y-58174030D01*
G37*
D22*
X57150000Y-85725000D03*
D15*
X57150000Y-88265000D03*
D22*
X54610000Y-85725000D03*
D15*
X54610000Y-88265000D03*
D22*
X52070000Y-85725000D03*
D15*
X52070000Y-88265000D03*
D22*
X57150000Y-80645000D03*
D15*
X57150000Y-83185000D03*
D22*
X54610000Y-80645000D03*
D15*
X54610000Y-83185000D03*
D22*
X52070000Y-80645000D03*
D15*
X52070000Y-83185000D03*
D23*
X140970000Y-117555000D03*
X140970000Y-122555000D03*
X109855000Y-99140000D03*
X109855000Y-104140000D03*
D24*
X145295000Y-98425000D03*
D25*
X137795000Y-98425000D03*
D24*
X138310000Y-55880000D03*
D25*
X130810000Y-55880000D03*
M02*
