G04 #@! TF.GenerationSoftware,KiCad,Pcbnew,(5.99.0-269-g375c4bd3f)*
G04 #@! TF.CreationDate,2019-11-11T15:55:52-08:00*
G04 #@! TF.ProjectId,DCC_Booster,4443435f-426f-46f7-9374-65722e6b6963,n/c*
G04 #@! TF.SameCoordinates,Original*
G04 #@! TF.FileFunction,Soldermask,Bot*
G04 #@! TF.FilePolarity,Negative*
%FSLAX46Y46*%
G04 Gerber Fmt 4.6, Leading zero omitted, Abs format (unit mm)*
G04 Created by KiCad (PCBNEW (5.99.0-269-g375c4bd3f)) date 2019-11-11 15:55:52*
%MOMM*%
%LPD*%
G04 APERTURE LIST*
%ADD10C,0.100000*%
G04 APERTURE END LIST*
D10*
G36*
X102235000Y-94615000D02*
G01*
X97155000Y-94615000D01*
X97155000Y-90805000D01*
X102235000Y-90805000D01*
X102235000Y-94615000D01*
G37*
X102235000Y-94615000D02*
X97155000Y-94615000D01*
X97155000Y-90805000D01*
X102235000Y-90805000D01*
X102235000Y-94615000D01*
G36*
X102235000Y-81915000D02*
G01*
X97155000Y-81915000D01*
X97155000Y-78105000D01*
X102235000Y-78105000D01*
X102235000Y-81915000D01*
G37*
X102235000Y-81915000D02*
X97155000Y-81915000D01*
X97155000Y-78105000D01*
X102235000Y-78105000D01*
X102235000Y-81915000D01*
G36*
X111125000Y-100965000D02*
G01*
X106045000Y-100965000D01*
X106045000Y-97155000D01*
X111125000Y-97155000D01*
X111125000Y-100965000D01*
G37*
X111125000Y-100965000D02*
X106045000Y-100965000D01*
X106045000Y-97155000D01*
X111125000Y-97155000D01*
X111125000Y-100965000D01*
G36*
X119380000Y-94615000D02*
G01*
X114300000Y-94615000D01*
X114300000Y-90805000D01*
X119380000Y-90805000D01*
X119380000Y-94615000D01*
G37*
X119380000Y-94615000D02*
X114300000Y-94615000D01*
X114300000Y-90805000D01*
X119380000Y-90805000D01*
X119380000Y-94615000D01*
G36*
X111760000Y-88900000D02*
G01*
X106045000Y-88900000D01*
X106045000Y-83820000D01*
X111760000Y-83820000D01*
X111760000Y-88900000D01*
G37*
X111760000Y-88900000D02*
X106045000Y-88900000D01*
X106045000Y-83820000D01*
X111760000Y-83820000D01*
X111760000Y-88900000D01*
G36*
X120015000Y-82550000D02*
G01*
X113665000Y-82550000D01*
X113665000Y-78105000D01*
X120015000Y-78105000D01*
X120015000Y-82550000D01*
G37*
X120015000Y-82550000D02*
X113665000Y-82550000D01*
X113665000Y-78105000D01*
X120015000Y-78105000D01*
X120015000Y-82550000D01*
G36*
X93980000Y-95250000D02*
G01*
X87630000Y-95250000D01*
X87630000Y-90170000D01*
X93980000Y-90170000D01*
X93980000Y-95250000D01*
G37*
X93980000Y-95250000D02*
X87630000Y-95250000D01*
X87630000Y-90170000D01*
X93980000Y-90170000D01*
X93980000Y-95250000D01*
G36*
X93980000Y-82550000D02*
G01*
X87630000Y-82550000D01*
X87630000Y-77470000D01*
X93980000Y-77470000D01*
X93980000Y-82550000D01*
G37*
X93980000Y-82550000D02*
X87630000Y-82550000D01*
X87630000Y-77470000D01*
X93980000Y-77470000D01*
X93980000Y-82550000D01*
G36*
X40699766Y-132818183D02*
G01*
X40731311Y-132817495D01*
X40829772Y-132829672D01*
X40931702Y-132838679D01*
X40962370Y-132846070D01*
X40990557Y-132849556D01*
X41089265Y-132876652D01*
X41191794Y-132901362D01*
X41218112Y-132912022D01*
X41242458Y-132918705D01*
X41339096Y-132961025D01*
X41439764Y-133001800D01*
X41461502Y-133014630D01*
X41481747Y-133023496D01*
X41573948Y-133080998D01*
X41670165Y-133137787D01*
X41687318Y-133151702D01*
X41703394Y-133161728D01*
X41788743Y-133233981D01*
X41877934Y-133306336D01*
X41890710Y-133320303D01*
X41902760Y-133330504D01*
X41978833Y-133416640D01*
X42058509Y-133503744D01*
X42067326Y-133516841D01*
X42075683Y-133526303D01*
X42140227Y-133625125D01*
X42207921Y-133725674D01*
X42213348Y-133737078D01*
X42218527Y-133745007D01*
X42269474Y-133855014D01*
X42322888Y-133967251D01*
X42325648Y-133976306D01*
X42328307Y-133982048D01*
X42363787Y-134101443D01*
X42400886Y-134223167D01*
X42401813Y-134229404D01*
X42402715Y-134232441D01*
X42421059Y-134358957D01*
X42440200Y-134487802D01*
X42430416Y-134849358D01*
X42403996Y-134978641D01*
X42378332Y-135105349D01*
X42377797Y-135106838D01*
X42376849Y-135111479D01*
X42332612Y-135232690D01*
X42290060Y-135351207D01*
X42287832Y-135355388D01*
X42285126Y-135362803D01*
X42224988Y-135473332D01*
X42167222Y-135581747D01*
X42162538Y-135588111D01*
X42157262Y-135597809D01*
X42083374Y-135695684D01*
X42012394Y-135792135D01*
X42004620Y-135800005D01*
X41996067Y-135811334D01*
X41910719Y-135895059D01*
X41828814Y-135977970D01*
X41817473Y-135986531D01*
X41805081Y-135998688D01*
X41710801Y-136067061D01*
X41620332Y-136135358D01*
X41605109Y-136143710D01*
X41588501Y-136155754D01*
X41487943Y-136207989D01*
X41391313Y-136261003D01*
X41372084Y-136268173D01*
X41351084Y-136279082D01*
X41246883Y-136314860D01*
X41146548Y-136352274D01*
X41123405Y-136357256D01*
X41098045Y-136365964D01*
X40992798Y-136385375D01*
X40891179Y-136407253D01*
X40864410Y-136409054D01*
X40834944Y-136414489D01*
X40731127Y-136418024D01*
X40630553Y-136424792D01*
X40600663Y-136422466D01*
X40567560Y-136423593D01*
X40467465Y-136412100D01*
X40370112Y-136404524D01*
X40337797Y-136397212D01*
X40301768Y-136393075D01*
X40207513Y-136367731D01*
X40115339Y-136346874D01*
X40081478Y-136333842D01*
X40043406Y-136323605D01*
X39956797Y-136285856D01*
X39871551Y-136253048D01*
X39837185Y-136233723D01*
X39798150Y-136216710D01*
X39720734Y-136168241D01*
X39643850Y-136125008D01*
X39610135Y-136098997D01*
X39571388Y-136074738D01*
X39504378Y-136017405D01*
X39437034Y-135965449D01*
X39405245Y-135932588D01*
X39368102Y-135900809D01*
X39312356Y-135836567D01*
X39255406Y-135777697D01*
X39226850Y-135738030D01*
X39192757Y-135698741D01*
X39148809Y-135629623D01*
X39102792Y-135565701D01*
X39078812Y-135519537D01*
X39049206Y-135472976D01*
X39017232Y-135400992D01*
X38982372Y-135333885D01*
X38964274Y-135281768D01*
X38940601Y-135228473D01*
X38920457Y-135155589D01*
X38896681Y-135087121D01*
X38885702Y-135029841D01*
X38869330Y-134970602D01*
X38860561Y-134898664D01*
X38847510Y-134830571D01*
X38844776Y-134769168D01*
X38836957Y-134705029D01*
X38838833Y-134635720D01*
X38835888Y-134569601D01*
X38842361Y-134505312D01*
X38844194Y-134437589D01*
X38855741Y-134372433D01*
X38862058Y-134309700D01*
X38878510Y-134243957D01*
X38890881Y-134174155D01*
X38910931Y-134114406D01*
X38925473Y-134056296D01*
X38952441Y-133990703D01*
X38975994Y-133920516D01*
X39003225Y-133867188D01*
X39024808Y-133814693D01*
X39062566Y-133750975D01*
X39097662Y-133682244D01*
X39130649Y-133636083D01*
X39157977Y-133589966D01*
X39206509Y-133529926D01*
X39253212Y-133464572D01*
X39290472Y-133426055D01*
X39322190Y-133386817D01*
X39381194Y-133332274D01*
X39439228Y-133272283D01*
X39479271Y-133241613D01*
X39514011Y-133209499D01*
X39582866Y-133162265D01*
X39651623Y-133109601D01*
X39693006Y-133086709D01*
X39729422Y-133061728D01*
X39807196Y-133023543D01*
X39885730Y-132980100D01*
X39927091Y-132964677D01*
X39963899Y-132946605D01*
X40049359Y-132919084D01*
X40136408Y-132886625D01*
X40176518Y-132878136D01*
X40212552Y-132866532D01*
X40304186Y-132851116D01*
X40398149Y-132831229D01*
X40435931Y-132828951D01*
X40470152Y-132823194D01*
X40566188Y-132821098D01*
X40665202Y-132815129D01*
X40699766Y-132818183D01*
G37*
G36*
X57524667Y-131789398D02*
G01*
X57764187Y-131867222D01*
X57764191Y-131867224D01*
X57988582Y-131981557D01*
X58192331Y-132129589D01*
X58370411Y-132307669D01*
X58518442Y-132511417D01*
X58632778Y-132735813D01*
X58710602Y-132975333D01*
X58749999Y-133224077D01*
X58749999Y-133475923D01*
X58710602Y-133724667D01*
X58632778Y-133964187D01*
X58632776Y-133964191D01*
X58518443Y-134188582D01*
X58370411Y-134392331D01*
X58192331Y-134570411D01*
X57988582Y-134718443D01*
X57764191Y-134832776D01*
X57764187Y-134832778D01*
X57524667Y-134910602D01*
X57275923Y-134949999D01*
X57024077Y-134949999D01*
X56775333Y-134910602D01*
X56535813Y-134832778D01*
X56535809Y-134832776D01*
X56311418Y-134718443D01*
X56107669Y-134570411D01*
X55929589Y-134392331D01*
X55781557Y-134188582D01*
X55667224Y-133964191D01*
X55667222Y-133964187D01*
X55589398Y-133724667D01*
X55550001Y-133475923D01*
X55550001Y-133224077D01*
X55589398Y-132975333D01*
X55667222Y-132735813D01*
X55781558Y-132511417D01*
X55929589Y-132307669D01*
X56107669Y-132129589D01*
X56311418Y-131981557D01*
X56535809Y-131867224D01*
X56535813Y-131867222D01*
X56775333Y-131789398D01*
X57024077Y-131750001D01*
X57275923Y-131750001D01*
X57524667Y-131789398D01*
G37*
G36*
X131184667Y-131789398D02*
G01*
X131424187Y-131867222D01*
X131424191Y-131867224D01*
X131648582Y-131981557D01*
X131852331Y-132129589D01*
X132030411Y-132307669D01*
X132178442Y-132511417D01*
X132292778Y-132735813D01*
X132370602Y-132975333D01*
X132409999Y-133224077D01*
X132409999Y-133475923D01*
X132370602Y-133724667D01*
X132292778Y-133964187D01*
X132292776Y-133964191D01*
X132178443Y-134188582D01*
X132030411Y-134392331D01*
X131852331Y-134570411D01*
X131648582Y-134718443D01*
X131424191Y-134832776D01*
X131424187Y-134832778D01*
X131184667Y-134910602D01*
X130935923Y-134949999D01*
X130684077Y-134949999D01*
X130435333Y-134910602D01*
X130195813Y-134832778D01*
X130195809Y-134832776D01*
X129971418Y-134718443D01*
X129767669Y-134570411D01*
X129589589Y-134392331D01*
X129441557Y-134188582D01*
X129327224Y-133964191D01*
X129327222Y-133964187D01*
X129249398Y-133724667D01*
X129210001Y-133475923D01*
X129210001Y-133224077D01*
X129249398Y-132975333D01*
X129327222Y-132735813D01*
X129441558Y-132511417D01*
X129589589Y-132307669D01*
X129767669Y-132129589D01*
X129971418Y-131981557D01*
X130195809Y-131867224D01*
X130195813Y-131867222D01*
X130435333Y-131789398D01*
X130684077Y-131750001D01*
X130935923Y-131750001D01*
X131184667Y-131789398D01*
G37*
G36*
X40699766Y-125198183D02*
G01*
X40731311Y-125197495D01*
X40829772Y-125209672D01*
X40931702Y-125218679D01*
X40962370Y-125226070D01*
X40990557Y-125229556D01*
X41089265Y-125256652D01*
X41191794Y-125281362D01*
X41218112Y-125292022D01*
X41242458Y-125298705D01*
X41339096Y-125341025D01*
X41439764Y-125381800D01*
X41461502Y-125394630D01*
X41481747Y-125403496D01*
X41573948Y-125460998D01*
X41670165Y-125517787D01*
X41687318Y-125531702D01*
X41703394Y-125541728D01*
X41788743Y-125613981D01*
X41877934Y-125686336D01*
X41890710Y-125700303D01*
X41902760Y-125710504D01*
X41978833Y-125796640D01*
X42058509Y-125883744D01*
X42067326Y-125896841D01*
X42075683Y-125906303D01*
X42140227Y-126005125D01*
X42207921Y-126105674D01*
X42213348Y-126117078D01*
X42218527Y-126125007D01*
X42269474Y-126235014D01*
X42322888Y-126347251D01*
X42325648Y-126356306D01*
X42328307Y-126362048D01*
X42363787Y-126481443D01*
X42400886Y-126603167D01*
X42401813Y-126609404D01*
X42402715Y-126612441D01*
X42421059Y-126738957D01*
X42440200Y-126867802D01*
X42430416Y-127229358D01*
X42403996Y-127358641D01*
X42378332Y-127485349D01*
X42377797Y-127486838D01*
X42376849Y-127491479D01*
X42332612Y-127612690D01*
X42290060Y-127731207D01*
X42287832Y-127735388D01*
X42285126Y-127742803D01*
X42224988Y-127853332D01*
X42167222Y-127961747D01*
X42162538Y-127968111D01*
X42157262Y-127977809D01*
X42083374Y-128075684D01*
X42012394Y-128172135D01*
X42004620Y-128180005D01*
X41996067Y-128191334D01*
X41910719Y-128275059D01*
X41828814Y-128357970D01*
X41817473Y-128366531D01*
X41805081Y-128378688D01*
X41710801Y-128447061D01*
X41620332Y-128515358D01*
X41605109Y-128523710D01*
X41588501Y-128535754D01*
X41487943Y-128587989D01*
X41391313Y-128641003D01*
X41372084Y-128648173D01*
X41351084Y-128659082D01*
X41246883Y-128694860D01*
X41146548Y-128732274D01*
X41123405Y-128737256D01*
X41098045Y-128745964D01*
X40992798Y-128765375D01*
X40891179Y-128787253D01*
X40864410Y-128789054D01*
X40834944Y-128794489D01*
X40731127Y-128798024D01*
X40630553Y-128804792D01*
X40600663Y-128802466D01*
X40567560Y-128803593D01*
X40467465Y-128792100D01*
X40370112Y-128784524D01*
X40337797Y-128777212D01*
X40301768Y-128773075D01*
X40207513Y-128747731D01*
X40115339Y-128726874D01*
X40081478Y-128713842D01*
X40043406Y-128703605D01*
X39956797Y-128665856D01*
X39871551Y-128633048D01*
X39837185Y-128613723D01*
X39798150Y-128596710D01*
X39720734Y-128548241D01*
X39643850Y-128505008D01*
X39610135Y-128478997D01*
X39571388Y-128454738D01*
X39504378Y-128397405D01*
X39437034Y-128345449D01*
X39405245Y-128312588D01*
X39368102Y-128280809D01*
X39312356Y-128216567D01*
X39255406Y-128157697D01*
X39226850Y-128118030D01*
X39192757Y-128078741D01*
X39148809Y-128009623D01*
X39102792Y-127945701D01*
X39078812Y-127899537D01*
X39049206Y-127852976D01*
X39017232Y-127780992D01*
X38982372Y-127713885D01*
X38964274Y-127661768D01*
X38940601Y-127608473D01*
X38920457Y-127535589D01*
X38896681Y-127467121D01*
X38885702Y-127409841D01*
X38869330Y-127350602D01*
X38860561Y-127278664D01*
X38847510Y-127210571D01*
X38844776Y-127149168D01*
X38836957Y-127085029D01*
X38838833Y-127015720D01*
X38835888Y-126949601D01*
X38842361Y-126885312D01*
X38844194Y-126817589D01*
X38855741Y-126752433D01*
X38862058Y-126689700D01*
X38878510Y-126623957D01*
X38890881Y-126554155D01*
X38910931Y-126494406D01*
X38925473Y-126436296D01*
X38952441Y-126370703D01*
X38975994Y-126300516D01*
X39003225Y-126247188D01*
X39024808Y-126194693D01*
X39062566Y-126130975D01*
X39097662Y-126062244D01*
X39130649Y-126016083D01*
X39157977Y-125969966D01*
X39206509Y-125909926D01*
X39253212Y-125844572D01*
X39290472Y-125806055D01*
X39322190Y-125766817D01*
X39381194Y-125712274D01*
X39439228Y-125652283D01*
X39479271Y-125621613D01*
X39514011Y-125589499D01*
X39582866Y-125542265D01*
X39651623Y-125489601D01*
X39693006Y-125466709D01*
X39729422Y-125441728D01*
X39807196Y-125403543D01*
X39885730Y-125360100D01*
X39927091Y-125344677D01*
X39963899Y-125326605D01*
X40049359Y-125299084D01*
X40136408Y-125266625D01*
X40176518Y-125258136D01*
X40212552Y-125246532D01*
X40304186Y-125231116D01*
X40398149Y-125211229D01*
X40435931Y-125208951D01*
X40470152Y-125203194D01*
X40566188Y-125201098D01*
X40665202Y-125195129D01*
X40699766Y-125198183D01*
G37*
G36*
X88289421Y-124295106D02*
G01*
X88360323Y-124295601D01*
X88379743Y-124300156D01*
X88396431Y-124301089D01*
X88463187Y-124319728D01*
X88535059Y-124336585D01*
X88550450Y-124344092D01*
X88563846Y-124347832D01*
X88627365Y-124381606D01*
X88696374Y-124415264D01*
X88707519Y-124424225D01*
X88717316Y-124429434D01*
X88774038Y-124477708D01*
X88836248Y-124527726D01*
X88843374Y-124536716D01*
X88849689Y-124542091D01*
X88896185Y-124603348D01*
X88947731Y-124668382D01*
X88951466Y-124676178D01*
X88954778Y-124680541D01*
X88987849Y-124752113D01*
X89025282Y-124830242D01*
X89026572Y-124835918D01*
X89027685Y-124838328D01*
X89044661Y-124915538D01*
X89065045Y-125005261D01*
X89064984Y-125009598D01*
X89064364Y-125187580D01*
X89062377Y-125196327D01*
X89062227Y-125207043D01*
X89042379Y-125284348D01*
X89025874Y-125356993D01*
X89021148Y-125367036D01*
X89017593Y-125380883D01*
X88982510Y-125449147D01*
X88951868Y-125514265D01*
X88943378Y-125525290D01*
X88935553Y-125540515D01*
X88888123Y-125597040D01*
X88845813Y-125651980D01*
X88833002Y-125662730D01*
X88820186Y-125678003D01*
X88763734Y-125720853D01*
X88712661Y-125763708D01*
X88695355Y-125772755D01*
X88677226Y-125786516D01*
X88615299Y-125814607D01*
X88558624Y-125844236D01*
X88537077Y-125850090D01*
X88513778Y-125860659D01*
X88449960Y-125873759D01*
X88390883Y-125889810D01*
X88365790Y-125891037D01*
X88337965Y-125896749D01*
X88275685Y-125895444D01*
X88217279Y-125898301D01*
X88189745Y-125893644D01*
X88158525Y-125892990D01*
X88100835Y-125878606D01*
X88045890Y-125869313D01*
X88017408Y-125857805D01*
X87984378Y-125849570D01*
X87933841Y-125824042D01*
X87884731Y-125804200D01*
X87857080Y-125785267D01*
X87824178Y-125768647D01*
X87782733Y-125734361D01*
X87741310Y-125705998D01*
X87716459Y-125679535D01*
X87685887Y-125654243D01*
X87654791Y-125613864D01*
X87622324Y-125579290D01*
X87602309Y-125545715D01*
X87576379Y-125512044D01*
X87556187Y-125468344D01*
X87533323Y-125429990D01*
X87520106Y-125390258D01*
X87501096Y-125349117D01*
X87491673Y-125304786D01*
X87478457Y-125265057D01*
X87473790Y-125220653D01*
X87463780Y-125173560D01*
X87464373Y-125131059D01*
X87460288Y-125092188D01*
X87465574Y-125045060D01*
X87466286Y-124994099D01*
X87475617Y-124955529D01*
X87479663Y-124919459D01*
X87495839Y-124871943D01*
X87508489Y-124819653D01*
X87524881Y-124786632D01*
X87535679Y-124754912D01*
X87563114Y-124709611D01*
X87588292Y-124658891D01*
X87609811Y-124632506D01*
X87625722Y-124606234D01*
X87664147Y-124565883D01*
X87701728Y-124519805D01*
X87726334Y-124500580D01*
X87745589Y-124480361D01*
X87794069Y-124447660D01*
X87843159Y-124409307D01*
X87868856Y-124397215D01*
X87889690Y-124383162D01*
X87946617Y-124360623D01*
X88005556Y-124332889D01*
X88030545Y-124327395D01*
X88051301Y-124319177D01*
X88114412Y-124308955D01*
X88180848Y-124294348D01*
X88203617Y-124294507D01*
X88222886Y-124291386D01*
X88289421Y-124295106D01*
G37*
G36*
X93289421Y-124295106D02*
G01*
X93360323Y-124295601D01*
X93379743Y-124300156D01*
X93396431Y-124301089D01*
X93463187Y-124319728D01*
X93535059Y-124336585D01*
X93550450Y-124344092D01*
X93563846Y-124347832D01*
X93627365Y-124381606D01*
X93696374Y-124415264D01*
X93707519Y-124424225D01*
X93717316Y-124429434D01*
X93774038Y-124477708D01*
X93836248Y-124527726D01*
X93843374Y-124536716D01*
X93849689Y-124542091D01*
X93896185Y-124603348D01*
X93947731Y-124668382D01*
X93951466Y-124676178D01*
X93954778Y-124680541D01*
X93987849Y-124752113D01*
X94025282Y-124830242D01*
X94026572Y-124835918D01*
X94027685Y-124838328D01*
X94044661Y-124915538D01*
X94065045Y-125005261D01*
X94064984Y-125009598D01*
X94064364Y-125187580D01*
X94062377Y-125196327D01*
X94062227Y-125207043D01*
X94042379Y-125284348D01*
X94025874Y-125356993D01*
X94021148Y-125367036D01*
X94017593Y-125380883D01*
X93982510Y-125449147D01*
X93951868Y-125514265D01*
X93943378Y-125525290D01*
X93935553Y-125540515D01*
X93888123Y-125597040D01*
X93845813Y-125651980D01*
X93833002Y-125662730D01*
X93820186Y-125678003D01*
X93763734Y-125720853D01*
X93712661Y-125763708D01*
X93695355Y-125772755D01*
X93677226Y-125786516D01*
X93615299Y-125814607D01*
X93558624Y-125844236D01*
X93537077Y-125850090D01*
X93513778Y-125860659D01*
X93449960Y-125873759D01*
X93390883Y-125889810D01*
X93365790Y-125891037D01*
X93337965Y-125896749D01*
X93275685Y-125895444D01*
X93217279Y-125898301D01*
X93189745Y-125893644D01*
X93158525Y-125892990D01*
X93100835Y-125878606D01*
X93045890Y-125869313D01*
X93017408Y-125857805D01*
X92984378Y-125849570D01*
X92933841Y-125824042D01*
X92884731Y-125804200D01*
X92857080Y-125785267D01*
X92824178Y-125768647D01*
X92782733Y-125734361D01*
X92741310Y-125705998D01*
X92716459Y-125679535D01*
X92685887Y-125654243D01*
X92654791Y-125613864D01*
X92622324Y-125579290D01*
X92602309Y-125545715D01*
X92576379Y-125512044D01*
X92556187Y-125468344D01*
X92533323Y-125429990D01*
X92520106Y-125390258D01*
X92501096Y-125349117D01*
X92491673Y-125304786D01*
X92478457Y-125265057D01*
X92473790Y-125220653D01*
X92463780Y-125173560D01*
X92464373Y-125131059D01*
X92460288Y-125092188D01*
X92465574Y-125045060D01*
X92466286Y-124994099D01*
X92475617Y-124955529D01*
X92479663Y-124919459D01*
X92495839Y-124871943D01*
X92508489Y-124819653D01*
X92524881Y-124786632D01*
X92535679Y-124754912D01*
X92563114Y-124709611D01*
X92588292Y-124658891D01*
X92609811Y-124632506D01*
X92625722Y-124606234D01*
X92664147Y-124565883D01*
X92701728Y-124519805D01*
X92726334Y-124500580D01*
X92745589Y-124480361D01*
X92794069Y-124447660D01*
X92843159Y-124409307D01*
X92868856Y-124397215D01*
X92889690Y-124383162D01*
X92946617Y-124360623D01*
X93005556Y-124332889D01*
X93030545Y-124327395D01*
X93051301Y-124319177D01*
X93114412Y-124308955D01*
X93180848Y-124294348D01*
X93203617Y-124294507D01*
X93222886Y-124291386D01*
X93289421Y-124295106D01*
G37*
G36*
X107259421Y-124295106D02*
G01*
X107330323Y-124295601D01*
X107349743Y-124300156D01*
X107366431Y-124301089D01*
X107433187Y-124319728D01*
X107505059Y-124336585D01*
X107520450Y-124344092D01*
X107533846Y-124347832D01*
X107597365Y-124381606D01*
X107666374Y-124415264D01*
X107677519Y-124424225D01*
X107687316Y-124429434D01*
X107744038Y-124477708D01*
X107806248Y-124527726D01*
X107813374Y-124536716D01*
X107819689Y-124542091D01*
X107866185Y-124603348D01*
X107917731Y-124668382D01*
X107921466Y-124676178D01*
X107924778Y-124680541D01*
X107957849Y-124752113D01*
X107995282Y-124830242D01*
X107996572Y-124835918D01*
X107997685Y-124838328D01*
X108014661Y-124915538D01*
X108035045Y-125005261D01*
X108034984Y-125009598D01*
X108034364Y-125187580D01*
X108032377Y-125196327D01*
X108032227Y-125207043D01*
X108012379Y-125284348D01*
X107995874Y-125356993D01*
X107991148Y-125367036D01*
X107987593Y-125380883D01*
X107952510Y-125449147D01*
X107921868Y-125514265D01*
X107913378Y-125525290D01*
X107905553Y-125540515D01*
X107858123Y-125597040D01*
X107815813Y-125651980D01*
X107803002Y-125662730D01*
X107790186Y-125678003D01*
X107733734Y-125720853D01*
X107682661Y-125763708D01*
X107665355Y-125772755D01*
X107647226Y-125786516D01*
X107585299Y-125814607D01*
X107528624Y-125844236D01*
X107507077Y-125850090D01*
X107483778Y-125860659D01*
X107419960Y-125873759D01*
X107360883Y-125889810D01*
X107335790Y-125891037D01*
X107307965Y-125896749D01*
X107245685Y-125895444D01*
X107187279Y-125898301D01*
X107159745Y-125893644D01*
X107128525Y-125892990D01*
X107070835Y-125878606D01*
X107015890Y-125869313D01*
X106987408Y-125857805D01*
X106954378Y-125849570D01*
X106903841Y-125824042D01*
X106854731Y-125804200D01*
X106827080Y-125785267D01*
X106794178Y-125768647D01*
X106752733Y-125734361D01*
X106711310Y-125705998D01*
X106686459Y-125679535D01*
X106655887Y-125654243D01*
X106624791Y-125613864D01*
X106592324Y-125579290D01*
X106572309Y-125545715D01*
X106546379Y-125512044D01*
X106526187Y-125468344D01*
X106503323Y-125429990D01*
X106490106Y-125390258D01*
X106471096Y-125349117D01*
X106461673Y-125304786D01*
X106448457Y-125265057D01*
X106443790Y-125220653D01*
X106433780Y-125173560D01*
X106434373Y-125131059D01*
X106430288Y-125092188D01*
X106435574Y-125045060D01*
X106436286Y-124994099D01*
X106445617Y-124955529D01*
X106449663Y-124919459D01*
X106465839Y-124871943D01*
X106478489Y-124819653D01*
X106494881Y-124786632D01*
X106505679Y-124754912D01*
X106533114Y-124709611D01*
X106558292Y-124658891D01*
X106579811Y-124632506D01*
X106595722Y-124606234D01*
X106634147Y-124565883D01*
X106671728Y-124519805D01*
X106696334Y-124500580D01*
X106715589Y-124480361D01*
X106764069Y-124447660D01*
X106813159Y-124409307D01*
X106838856Y-124397215D01*
X106859690Y-124383162D01*
X106916617Y-124360623D01*
X106975556Y-124332889D01*
X107000545Y-124327395D01*
X107021301Y-124319177D01*
X107084412Y-124308955D01*
X107150848Y-124294348D01*
X107173617Y-124294507D01*
X107192886Y-124291386D01*
X107259421Y-124295106D01*
G37*
G36*
X102259421Y-124295106D02*
G01*
X102330323Y-124295601D01*
X102349743Y-124300156D01*
X102366431Y-124301089D01*
X102433187Y-124319728D01*
X102505059Y-124336585D01*
X102520450Y-124344092D01*
X102533846Y-124347832D01*
X102597365Y-124381606D01*
X102666374Y-124415264D01*
X102677519Y-124424225D01*
X102687316Y-124429434D01*
X102744038Y-124477708D01*
X102806248Y-124527726D01*
X102813374Y-124536716D01*
X102819689Y-124542091D01*
X102866185Y-124603348D01*
X102917731Y-124668382D01*
X102921466Y-124676178D01*
X102924778Y-124680541D01*
X102957849Y-124752113D01*
X102995282Y-124830242D01*
X102996572Y-124835918D01*
X102997685Y-124838328D01*
X103014661Y-124915538D01*
X103035045Y-125005261D01*
X103034984Y-125009598D01*
X103034364Y-125187580D01*
X103032377Y-125196327D01*
X103032227Y-125207043D01*
X103012379Y-125284348D01*
X102995874Y-125356993D01*
X102991148Y-125367036D01*
X102987593Y-125380883D01*
X102952510Y-125449147D01*
X102921868Y-125514265D01*
X102913378Y-125525290D01*
X102905553Y-125540515D01*
X102858123Y-125597040D01*
X102815813Y-125651980D01*
X102803002Y-125662730D01*
X102790186Y-125678003D01*
X102733734Y-125720853D01*
X102682661Y-125763708D01*
X102665355Y-125772755D01*
X102647226Y-125786516D01*
X102585299Y-125814607D01*
X102528624Y-125844236D01*
X102507077Y-125850090D01*
X102483778Y-125860659D01*
X102419960Y-125873759D01*
X102360883Y-125889810D01*
X102335790Y-125891037D01*
X102307965Y-125896749D01*
X102245685Y-125895444D01*
X102187279Y-125898301D01*
X102159745Y-125893644D01*
X102128525Y-125892990D01*
X102070835Y-125878606D01*
X102015890Y-125869313D01*
X101987408Y-125857805D01*
X101954378Y-125849570D01*
X101903841Y-125824042D01*
X101854731Y-125804200D01*
X101827080Y-125785267D01*
X101794178Y-125768647D01*
X101752733Y-125734361D01*
X101711310Y-125705998D01*
X101686459Y-125679535D01*
X101655887Y-125654243D01*
X101624791Y-125613864D01*
X101592324Y-125579290D01*
X101572309Y-125545715D01*
X101546379Y-125512044D01*
X101526187Y-125468344D01*
X101503323Y-125429990D01*
X101490106Y-125390258D01*
X101471096Y-125349117D01*
X101461673Y-125304786D01*
X101448457Y-125265057D01*
X101443790Y-125220653D01*
X101433780Y-125173560D01*
X101434373Y-125131059D01*
X101430288Y-125092188D01*
X101435574Y-125045060D01*
X101436286Y-124994099D01*
X101445617Y-124955529D01*
X101449663Y-124919459D01*
X101465839Y-124871943D01*
X101478489Y-124819653D01*
X101494881Y-124786632D01*
X101505679Y-124754912D01*
X101533114Y-124709611D01*
X101558292Y-124658891D01*
X101579811Y-124632506D01*
X101595722Y-124606234D01*
X101634147Y-124565883D01*
X101671728Y-124519805D01*
X101696334Y-124500580D01*
X101715589Y-124480361D01*
X101764069Y-124447660D01*
X101813159Y-124409307D01*
X101838856Y-124397215D01*
X101859690Y-124383162D01*
X101916617Y-124360623D01*
X101975556Y-124332889D01*
X102000545Y-124327395D01*
X102021301Y-124319177D01*
X102084412Y-124308955D01*
X102150848Y-124294348D01*
X102173617Y-124294507D01*
X102192886Y-124291386D01*
X102259421Y-124295106D01*
G37*
G36*
X40699766Y-120118183D02*
G01*
X40731311Y-120117495D01*
X40829772Y-120129672D01*
X40931702Y-120138679D01*
X40962370Y-120146070D01*
X40990557Y-120149556D01*
X41089265Y-120176652D01*
X41191794Y-120201362D01*
X41218112Y-120212022D01*
X41242458Y-120218705D01*
X41339096Y-120261025D01*
X41439764Y-120301800D01*
X41461502Y-120314630D01*
X41481747Y-120323496D01*
X41573948Y-120380998D01*
X41670165Y-120437787D01*
X41687318Y-120451702D01*
X41703394Y-120461728D01*
X41788743Y-120533981D01*
X41877934Y-120606336D01*
X41890710Y-120620303D01*
X41902760Y-120630504D01*
X41978833Y-120716640D01*
X42058509Y-120803744D01*
X42067326Y-120816841D01*
X42075683Y-120826303D01*
X42140227Y-120925125D01*
X42207921Y-121025674D01*
X42213348Y-121037078D01*
X42218527Y-121045007D01*
X42269474Y-121155014D01*
X42322888Y-121267251D01*
X42325648Y-121276306D01*
X42328307Y-121282048D01*
X42363787Y-121401443D01*
X42400886Y-121523167D01*
X42401813Y-121529404D01*
X42402715Y-121532441D01*
X42421059Y-121658957D01*
X42440200Y-121787802D01*
X42430416Y-122149358D01*
X42403996Y-122278641D01*
X42378332Y-122405349D01*
X42377797Y-122406838D01*
X42376849Y-122411479D01*
X42332612Y-122532690D01*
X42290060Y-122651207D01*
X42287832Y-122655388D01*
X42285126Y-122662803D01*
X42224988Y-122773332D01*
X42167222Y-122881747D01*
X42162538Y-122888111D01*
X42157262Y-122897809D01*
X42083374Y-122995684D01*
X42012394Y-123092135D01*
X42004620Y-123100005D01*
X41996067Y-123111334D01*
X41910719Y-123195059D01*
X41828814Y-123277970D01*
X41817473Y-123286531D01*
X41805081Y-123298688D01*
X41710801Y-123367061D01*
X41620332Y-123435358D01*
X41605109Y-123443710D01*
X41588501Y-123455754D01*
X41487943Y-123507989D01*
X41391313Y-123561003D01*
X41372084Y-123568173D01*
X41351084Y-123579082D01*
X41246883Y-123614860D01*
X41146548Y-123652274D01*
X41123405Y-123657256D01*
X41098045Y-123665964D01*
X40992798Y-123685375D01*
X40891179Y-123707253D01*
X40864410Y-123709054D01*
X40834944Y-123714489D01*
X40731127Y-123718024D01*
X40630553Y-123724792D01*
X40600663Y-123722466D01*
X40567560Y-123723593D01*
X40467465Y-123712100D01*
X40370112Y-123704524D01*
X40337797Y-123697212D01*
X40301768Y-123693075D01*
X40207513Y-123667731D01*
X40115339Y-123646874D01*
X40081478Y-123633842D01*
X40043406Y-123623605D01*
X39956797Y-123585856D01*
X39871551Y-123553048D01*
X39837185Y-123533723D01*
X39798150Y-123516710D01*
X39720734Y-123468241D01*
X39643850Y-123425008D01*
X39610135Y-123398997D01*
X39571388Y-123374738D01*
X39504378Y-123317405D01*
X39437034Y-123265449D01*
X39405245Y-123232588D01*
X39368102Y-123200809D01*
X39312356Y-123136567D01*
X39255406Y-123077697D01*
X39226850Y-123038030D01*
X39192757Y-122998741D01*
X39148809Y-122929623D01*
X39102792Y-122865701D01*
X39078812Y-122819537D01*
X39049206Y-122772976D01*
X39017232Y-122700992D01*
X38982372Y-122633885D01*
X38964274Y-122581768D01*
X38940601Y-122528473D01*
X38920457Y-122455589D01*
X38896681Y-122387121D01*
X38885702Y-122329841D01*
X38869330Y-122270602D01*
X38860561Y-122198664D01*
X38847510Y-122130571D01*
X38844776Y-122069168D01*
X38836957Y-122005029D01*
X38838833Y-121935720D01*
X38835888Y-121869601D01*
X38842361Y-121805312D01*
X38844194Y-121737589D01*
X38855741Y-121672433D01*
X38862058Y-121609700D01*
X38878510Y-121543957D01*
X38890881Y-121474155D01*
X38910931Y-121414406D01*
X38925473Y-121356296D01*
X38952441Y-121290703D01*
X38975994Y-121220516D01*
X39003225Y-121167188D01*
X39024808Y-121114693D01*
X39062566Y-121050975D01*
X39097662Y-120982244D01*
X39130649Y-120936083D01*
X39157977Y-120889966D01*
X39206509Y-120829926D01*
X39253212Y-120764572D01*
X39290472Y-120726055D01*
X39322190Y-120686817D01*
X39381194Y-120632274D01*
X39439228Y-120572283D01*
X39479271Y-120541613D01*
X39514011Y-120509499D01*
X39582866Y-120462265D01*
X39651623Y-120409601D01*
X39693006Y-120386709D01*
X39729422Y-120361728D01*
X39807196Y-120323543D01*
X39885730Y-120280100D01*
X39927091Y-120264677D01*
X39963899Y-120246605D01*
X40049359Y-120219084D01*
X40136408Y-120186625D01*
X40176518Y-120178136D01*
X40212552Y-120166532D01*
X40304186Y-120151116D01*
X40398149Y-120131229D01*
X40435931Y-120128951D01*
X40470152Y-120123194D01*
X40566188Y-120121098D01*
X40665202Y-120115129D01*
X40699766Y-120118183D01*
G37*
G36*
X40699766Y-112498183D02*
G01*
X40731311Y-112497495D01*
X40829772Y-112509672D01*
X40931702Y-112518679D01*
X40962370Y-112526070D01*
X40990557Y-112529556D01*
X41089265Y-112556652D01*
X41191794Y-112581362D01*
X41218112Y-112592022D01*
X41242458Y-112598705D01*
X41339096Y-112641025D01*
X41439764Y-112681800D01*
X41461502Y-112694630D01*
X41481747Y-112703496D01*
X41573948Y-112760998D01*
X41670165Y-112817787D01*
X41687318Y-112831702D01*
X41703394Y-112841728D01*
X41788743Y-112913981D01*
X41877934Y-112986336D01*
X41890710Y-113000303D01*
X41902760Y-113010504D01*
X41978833Y-113096640D01*
X42058509Y-113183744D01*
X42067326Y-113196841D01*
X42075683Y-113206303D01*
X42140227Y-113305125D01*
X42207921Y-113405674D01*
X42213348Y-113417078D01*
X42218527Y-113425007D01*
X42269474Y-113535014D01*
X42322888Y-113647251D01*
X42325648Y-113656306D01*
X42328307Y-113662048D01*
X42363787Y-113781443D01*
X42400886Y-113903167D01*
X42401813Y-113909404D01*
X42402715Y-113912441D01*
X42421059Y-114038957D01*
X42440200Y-114167802D01*
X42430416Y-114529358D01*
X42403996Y-114658641D01*
X42378332Y-114785349D01*
X42377797Y-114786838D01*
X42376849Y-114791479D01*
X42332612Y-114912690D01*
X42290060Y-115031207D01*
X42287832Y-115035388D01*
X42285126Y-115042803D01*
X42224988Y-115153332D01*
X42167222Y-115261747D01*
X42162538Y-115268111D01*
X42157262Y-115277809D01*
X42083374Y-115375684D01*
X42012394Y-115472135D01*
X42004620Y-115480005D01*
X41996067Y-115491334D01*
X41910719Y-115575059D01*
X41828814Y-115657970D01*
X41817473Y-115666531D01*
X41805081Y-115678688D01*
X41710801Y-115747061D01*
X41620332Y-115815358D01*
X41605109Y-115823710D01*
X41588501Y-115835754D01*
X41487943Y-115887989D01*
X41391313Y-115941003D01*
X41372084Y-115948173D01*
X41351084Y-115959082D01*
X41246883Y-115994860D01*
X41146548Y-116032274D01*
X41123405Y-116037256D01*
X41098045Y-116045964D01*
X40992798Y-116065375D01*
X40891179Y-116087253D01*
X40864410Y-116089054D01*
X40834944Y-116094489D01*
X40731127Y-116098024D01*
X40630553Y-116104792D01*
X40600663Y-116102466D01*
X40567560Y-116103593D01*
X40467465Y-116092100D01*
X40370112Y-116084524D01*
X40337797Y-116077212D01*
X40301768Y-116073075D01*
X40207513Y-116047731D01*
X40115339Y-116026874D01*
X40081478Y-116013842D01*
X40043406Y-116003605D01*
X39956797Y-115965856D01*
X39871551Y-115933048D01*
X39837185Y-115913723D01*
X39798150Y-115896710D01*
X39720734Y-115848241D01*
X39643850Y-115805008D01*
X39610135Y-115778997D01*
X39571388Y-115754738D01*
X39504378Y-115697405D01*
X39437034Y-115645449D01*
X39405245Y-115612588D01*
X39368102Y-115580809D01*
X39312356Y-115516567D01*
X39255406Y-115457697D01*
X39226850Y-115418030D01*
X39192757Y-115378741D01*
X39148809Y-115309623D01*
X39102792Y-115245701D01*
X39078812Y-115199537D01*
X39049206Y-115152976D01*
X39017232Y-115080992D01*
X38982372Y-115013885D01*
X38964274Y-114961768D01*
X38940601Y-114908473D01*
X38920457Y-114835589D01*
X38896681Y-114767121D01*
X38885702Y-114709841D01*
X38869330Y-114650602D01*
X38860561Y-114578664D01*
X38847510Y-114510571D01*
X38844776Y-114449168D01*
X38836957Y-114385029D01*
X38838833Y-114315720D01*
X38835888Y-114249601D01*
X38842361Y-114185312D01*
X38844194Y-114117589D01*
X38855741Y-114052433D01*
X38862058Y-113989700D01*
X38878510Y-113923957D01*
X38890881Y-113854155D01*
X38910931Y-113794406D01*
X38925473Y-113736296D01*
X38952441Y-113670703D01*
X38975994Y-113600516D01*
X39003225Y-113547188D01*
X39024808Y-113494693D01*
X39062566Y-113430975D01*
X39097662Y-113362244D01*
X39130649Y-113316083D01*
X39157977Y-113269966D01*
X39206509Y-113209926D01*
X39253212Y-113144572D01*
X39290472Y-113106055D01*
X39322190Y-113066817D01*
X39381194Y-113012274D01*
X39439228Y-112952283D01*
X39479271Y-112921613D01*
X39514011Y-112889499D01*
X39582866Y-112842265D01*
X39651623Y-112789601D01*
X39693006Y-112766709D01*
X39729422Y-112741728D01*
X39807196Y-112703543D01*
X39885730Y-112660100D01*
X39927091Y-112644677D01*
X39963899Y-112626605D01*
X40049359Y-112599084D01*
X40136408Y-112566625D01*
X40176518Y-112558136D01*
X40212552Y-112546532D01*
X40304186Y-112531116D01*
X40398149Y-112511229D01*
X40435931Y-112508951D01*
X40470152Y-112503194D01*
X40566188Y-112501098D01*
X40665202Y-112495129D01*
X40699766Y-112498183D01*
G37*
G36*
X40434421Y-108440106D02*
G01*
X40505323Y-108440601D01*
X40524743Y-108445156D01*
X40541431Y-108446089D01*
X40608187Y-108464728D01*
X40680059Y-108481585D01*
X40695450Y-108489092D01*
X40708846Y-108492832D01*
X40772365Y-108526606D01*
X40841374Y-108560264D01*
X40852519Y-108569225D01*
X40862316Y-108574434D01*
X40919038Y-108622708D01*
X40981248Y-108672726D01*
X40988374Y-108681716D01*
X40994689Y-108687091D01*
X41041185Y-108748348D01*
X41092731Y-108813382D01*
X41096466Y-108821178D01*
X41099778Y-108825541D01*
X41132849Y-108897113D01*
X41170282Y-108975242D01*
X41171572Y-108980918D01*
X41172685Y-108983328D01*
X41189661Y-109060538D01*
X41210045Y-109150261D01*
X41209984Y-109154598D01*
X41209364Y-109332580D01*
X41207377Y-109341327D01*
X41207227Y-109352043D01*
X41187379Y-109429348D01*
X41170874Y-109501993D01*
X41166148Y-109512036D01*
X41162593Y-109525883D01*
X41127510Y-109594147D01*
X41096868Y-109659265D01*
X41088378Y-109670290D01*
X41080553Y-109685515D01*
X41033123Y-109742040D01*
X40990813Y-109796980D01*
X40978002Y-109807730D01*
X40965186Y-109823003D01*
X40908734Y-109865853D01*
X40857661Y-109908708D01*
X40840355Y-109917755D01*
X40822226Y-109931516D01*
X40760299Y-109959607D01*
X40703624Y-109989236D01*
X40682077Y-109995090D01*
X40658778Y-110005659D01*
X40594960Y-110018759D01*
X40535883Y-110034810D01*
X40510790Y-110036037D01*
X40482965Y-110041749D01*
X40420685Y-110040444D01*
X40362279Y-110043301D01*
X40334745Y-110038644D01*
X40303525Y-110037990D01*
X40245835Y-110023606D01*
X40190890Y-110014313D01*
X40162408Y-110002805D01*
X40129378Y-109994570D01*
X40078841Y-109969042D01*
X40029731Y-109949200D01*
X40002080Y-109930267D01*
X39969178Y-109913647D01*
X39927733Y-109879361D01*
X39886310Y-109850998D01*
X39861459Y-109824535D01*
X39830887Y-109799243D01*
X39799791Y-109758864D01*
X39767324Y-109724290D01*
X39747309Y-109690715D01*
X39721379Y-109657044D01*
X39701187Y-109613344D01*
X39678323Y-109574990D01*
X39665106Y-109535258D01*
X39646096Y-109494117D01*
X39636673Y-109449786D01*
X39623457Y-109410057D01*
X39618790Y-109365653D01*
X39608780Y-109318560D01*
X39609373Y-109276059D01*
X39605288Y-109237188D01*
X39610574Y-109190060D01*
X39611286Y-109139099D01*
X39620617Y-109100529D01*
X39624663Y-109064459D01*
X39640839Y-109016943D01*
X39653489Y-108964653D01*
X39669881Y-108931632D01*
X39680679Y-108899912D01*
X39708114Y-108854611D01*
X39733292Y-108803891D01*
X39754811Y-108777506D01*
X39770722Y-108751234D01*
X39809147Y-108710883D01*
X39846728Y-108664805D01*
X39871334Y-108645580D01*
X39890589Y-108625361D01*
X39939069Y-108592660D01*
X39988159Y-108554307D01*
X40013856Y-108542215D01*
X40034690Y-108528162D01*
X40091617Y-108505623D01*
X40150556Y-108477889D01*
X40175545Y-108472395D01*
X40196301Y-108464177D01*
X40259412Y-108453955D01*
X40325848Y-108439348D01*
X40348617Y-108439507D01*
X40367886Y-108436386D01*
X40434421Y-108440106D01*
G37*
G36*
X48054421Y-108440106D02*
G01*
X48125323Y-108440601D01*
X48144743Y-108445156D01*
X48161431Y-108446089D01*
X48228187Y-108464728D01*
X48300059Y-108481585D01*
X48315450Y-108489092D01*
X48328846Y-108492832D01*
X48392365Y-108526606D01*
X48461374Y-108560264D01*
X48472519Y-108569225D01*
X48482316Y-108574434D01*
X48539038Y-108622708D01*
X48601248Y-108672726D01*
X48608374Y-108681716D01*
X48614689Y-108687091D01*
X48661185Y-108748348D01*
X48712731Y-108813382D01*
X48716466Y-108821178D01*
X48719778Y-108825541D01*
X48752849Y-108897113D01*
X48790282Y-108975242D01*
X48791572Y-108980918D01*
X48792685Y-108983328D01*
X48809661Y-109060538D01*
X48830045Y-109150261D01*
X48829984Y-109154598D01*
X48829364Y-109332580D01*
X48827377Y-109341327D01*
X48827227Y-109352043D01*
X48807379Y-109429348D01*
X48790874Y-109501993D01*
X48786148Y-109512036D01*
X48782593Y-109525883D01*
X48747510Y-109594147D01*
X48716868Y-109659265D01*
X48708378Y-109670290D01*
X48700553Y-109685515D01*
X48653123Y-109742040D01*
X48610813Y-109796980D01*
X48598002Y-109807730D01*
X48585186Y-109823003D01*
X48528734Y-109865853D01*
X48477661Y-109908708D01*
X48460355Y-109917755D01*
X48442226Y-109931516D01*
X48380299Y-109959607D01*
X48323624Y-109989236D01*
X48302077Y-109995090D01*
X48278778Y-110005659D01*
X48214960Y-110018759D01*
X48155883Y-110034810D01*
X48130790Y-110036037D01*
X48102965Y-110041749D01*
X48040685Y-110040444D01*
X47982279Y-110043301D01*
X47954745Y-110038644D01*
X47923525Y-110037990D01*
X47865835Y-110023606D01*
X47810890Y-110014313D01*
X47782408Y-110002805D01*
X47749378Y-109994570D01*
X47698841Y-109969042D01*
X47649731Y-109949200D01*
X47622080Y-109930267D01*
X47589178Y-109913647D01*
X47547733Y-109879361D01*
X47506310Y-109850998D01*
X47481459Y-109824535D01*
X47450887Y-109799243D01*
X47419791Y-109758864D01*
X47387324Y-109724290D01*
X47367309Y-109690715D01*
X47341379Y-109657044D01*
X47321187Y-109613344D01*
X47298323Y-109574990D01*
X47285106Y-109535258D01*
X47266096Y-109494117D01*
X47256673Y-109449786D01*
X47243457Y-109410057D01*
X47238790Y-109365653D01*
X47228780Y-109318560D01*
X47229373Y-109276059D01*
X47225288Y-109237188D01*
X47230574Y-109190060D01*
X47231286Y-109139099D01*
X47240617Y-109100529D01*
X47244663Y-109064459D01*
X47260839Y-109016943D01*
X47273489Y-108964653D01*
X47289881Y-108931632D01*
X47300679Y-108899912D01*
X47328114Y-108854611D01*
X47353292Y-108803891D01*
X47374811Y-108777506D01*
X47390722Y-108751234D01*
X47429147Y-108710883D01*
X47466728Y-108664805D01*
X47491334Y-108645580D01*
X47510589Y-108625361D01*
X47559069Y-108592660D01*
X47608159Y-108554307D01*
X47633856Y-108542215D01*
X47654690Y-108528162D01*
X47711617Y-108505623D01*
X47770556Y-108477889D01*
X47795545Y-108472395D01*
X47816301Y-108464177D01*
X47879412Y-108453955D01*
X47945848Y-108439348D01*
X47968617Y-108439507D01*
X47987886Y-108436386D01*
X48054421Y-108440106D01*
G37*
G36*
X40434421Y-105900106D02*
G01*
X40505323Y-105900601D01*
X40524743Y-105905156D01*
X40541431Y-105906089D01*
X40608187Y-105924728D01*
X40680059Y-105941585D01*
X40695450Y-105949092D01*
X40708846Y-105952832D01*
X40772365Y-105986606D01*
X40841374Y-106020264D01*
X40852519Y-106029225D01*
X40862316Y-106034434D01*
X40919038Y-106082708D01*
X40981248Y-106132726D01*
X40988374Y-106141716D01*
X40994689Y-106147091D01*
X41041185Y-106208348D01*
X41092731Y-106273382D01*
X41096466Y-106281178D01*
X41099778Y-106285541D01*
X41132849Y-106357113D01*
X41170282Y-106435242D01*
X41171572Y-106440918D01*
X41172685Y-106443328D01*
X41189661Y-106520538D01*
X41210045Y-106610261D01*
X41209984Y-106614598D01*
X41209364Y-106792580D01*
X41207377Y-106801327D01*
X41207227Y-106812043D01*
X41187379Y-106889348D01*
X41170874Y-106961993D01*
X41166148Y-106972036D01*
X41162593Y-106985883D01*
X41127510Y-107054147D01*
X41096868Y-107119265D01*
X41088378Y-107130290D01*
X41080553Y-107145515D01*
X41033123Y-107202040D01*
X40990813Y-107256980D01*
X40978002Y-107267730D01*
X40965186Y-107283003D01*
X40908734Y-107325853D01*
X40857661Y-107368708D01*
X40840355Y-107377755D01*
X40822226Y-107391516D01*
X40760299Y-107419607D01*
X40703624Y-107449236D01*
X40682077Y-107455090D01*
X40658778Y-107465659D01*
X40594960Y-107478759D01*
X40535883Y-107494810D01*
X40510790Y-107496037D01*
X40482965Y-107501749D01*
X40420685Y-107500444D01*
X40362279Y-107503301D01*
X40334745Y-107498644D01*
X40303525Y-107497990D01*
X40245835Y-107483606D01*
X40190890Y-107474313D01*
X40162408Y-107462805D01*
X40129378Y-107454570D01*
X40078841Y-107429042D01*
X40029731Y-107409200D01*
X40002080Y-107390267D01*
X39969178Y-107373647D01*
X39927733Y-107339361D01*
X39886310Y-107310998D01*
X39861459Y-107284535D01*
X39830887Y-107259243D01*
X39799791Y-107218864D01*
X39767324Y-107184290D01*
X39747309Y-107150715D01*
X39721379Y-107117044D01*
X39701187Y-107073344D01*
X39678323Y-107034990D01*
X39665106Y-106995258D01*
X39646096Y-106954117D01*
X39636673Y-106909786D01*
X39623457Y-106870057D01*
X39618790Y-106825653D01*
X39608780Y-106778560D01*
X39609373Y-106736059D01*
X39605288Y-106697188D01*
X39610574Y-106650060D01*
X39611286Y-106599099D01*
X39620617Y-106560529D01*
X39624663Y-106524459D01*
X39640839Y-106476943D01*
X39653489Y-106424653D01*
X39669881Y-106391632D01*
X39680679Y-106359912D01*
X39708114Y-106314611D01*
X39733292Y-106263891D01*
X39754811Y-106237506D01*
X39770722Y-106211234D01*
X39809147Y-106170883D01*
X39846728Y-106124805D01*
X39871334Y-106105580D01*
X39890589Y-106085361D01*
X39939069Y-106052660D01*
X39988159Y-106014307D01*
X40013856Y-106002215D01*
X40034690Y-105988162D01*
X40091617Y-105965623D01*
X40150556Y-105937889D01*
X40175545Y-105932395D01*
X40196301Y-105924177D01*
X40259412Y-105913955D01*
X40325848Y-105899348D01*
X40348617Y-105899507D01*
X40367886Y-105896386D01*
X40434421Y-105900106D01*
G37*
G36*
X48054421Y-105900106D02*
G01*
X48125323Y-105900601D01*
X48144743Y-105905156D01*
X48161431Y-105906089D01*
X48228187Y-105924728D01*
X48300059Y-105941585D01*
X48315450Y-105949092D01*
X48328846Y-105952832D01*
X48392365Y-105986606D01*
X48461374Y-106020264D01*
X48472519Y-106029225D01*
X48482316Y-106034434D01*
X48539038Y-106082708D01*
X48601248Y-106132726D01*
X48608374Y-106141716D01*
X48614689Y-106147091D01*
X48661185Y-106208348D01*
X48712731Y-106273382D01*
X48716466Y-106281178D01*
X48719778Y-106285541D01*
X48752849Y-106357113D01*
X48790282Y-106435242D01*
X48791572Y-106440918D01*
X48792685Y-106443328D01*
X48809661Y-106520538D01*
X48830045Y-106610261D01*
X48829984Y-106614598D01*
X48829364Y-106792580D01*
X48827377Y-106801327D01*
X48827227Y-106812043D01*
X48807379Y-106889348D01*
X48790874Y-106961993D01*
X48786148Y-106972036D01*
X48782593Y-106985883D01*
X48747510Y-107054147D01*
X48716868Y-107119265D01*
X48708378Y-107130290D01*
X48700553Y-107145515D01*
X48653123Y-107202040D01*
X48610813Y-107256980D01*
X48598002Y-107267730D01*
X48585186Y-107283003D01*
X48528734Y-107325853D01*
X48477661Y-107368708D01*
X48460355Y-107377755D01*
X48442226Y-107391516D01*
X48380299Y-107419607D01*
X48323624Y-107449236D01*
X48302077Y-107455090D01*
X48278778Y-107465659D01*
X48214960Y-107478759D01*
X48155883Y-107494810D01*
X48130790Y-107496037D01*
X48102965Y-107501749D01*
X48040685Y-107500444D01*
X47982279Y-107503301D01*
X47954745Y-107498644D01*
X47923525Y-107497990D01*
X47865835Y-107483606D01*
X47810890Y-107474313D01*
X47782408Y-107462805D01*
X47749378Y-107454570D01*
X47698841Y-107429042D01*
X47649731Y-107409200D01*
X47622080Y-107390267D01*
X47589178Y-107373647D01*
X47547733Y-107339361D01*
X47506310Y-107310998D01*
X47481459Y-107284535D01*
X47450887Y-107259243D01*
X47419791Y-107218864D01*
X47387324Y-107184290D01*
X47367309Y-107150715D01*
X47341379Y-107117044D01*
X47321187Y-107073344D01*
X47298323Y-107034990D01*
X47285106Y-106995258D01*
X47266096Y-106954117D01*
X47256673Y-106909786D01*
X47243457Y-106870057D01*
X47238790Y-106825653D01*
X47228780Y-106778560D01*
X47229373Y-106736059D01*
X47225288Y-106697188D01*
X47230574Y-106650060D01*
X47231286Y-106599099D01*
X47240617Y-106560529D01*
X47244663Y-106524459D01*
X47260839Y-106476943D01*
X47273489Y-106424653D01*
X47289881Y-106391632D01*
X47300679Y-106359912D01*
X47328114Y-106314611D01*
X47353292Y-106263891D01*
X47374811Y-106237506D01*
X47390722Y-106211234D01*
X47429147Y-106170883D01*
X47466728Y-106124805D01*
X47491334Y-106105580D01*
X47510589Y-106085361D01*
X47559069Y-106052660D01*
X47608159Y-106014307D01*
X47633856Y-106002215D01*
X47654690Y-105988162D01*
X47711617Y-105965623D01*
X47770556Y-105937889D01*
X47795545Y-105932395D01*
X47816301Y-105924177D01*
X47879412Y-105913955D01*
X47945848Y-105899348D01*
X47968617Y-105899507D01*
X47987886Y-105896386D01*
X48054421Y-105900106D01*
G37*
G36*
X68939304Y-105897511D02*
G01*
X68987198Y-105914943D01*
X69010636Y-105918823D01*
X69056077Y-105940013D01*
X69107959Y-105958896D01*
X69137763Y-105978104D01*
X69166869Y-105991676D01*
X69210043Y-106024685D01*
X69258823Y-106056122D01*
X69281654Y-106079436D01*
X69304947Y-106097245D01*
X69341802Y-106140856D01*
X69384398Y-106184354D01*
X69400022Y-106209750D01*
X69417141Y-106230008D01*
X69445054Y-106282950D01*
X69478442Y-106337221D01*
X69487141Y-106362773D01*
X69498208Y-106383764D01*
X69514829Y-106444108D01*
X69536282Y-106507125D01*
X69538809Y-106531166D01*
X69544366Y-106551342D01*
X69547784Y-106616566D01*
X69555042Y-106685620D01*
X69552514Y-106706817D01*
X69553463Y-106724918D01*
X69542356Y-106792011D01*
X69533791Y-106863837D01*
X69527575Y-106881294D01*
X69525073Y-106896406D01*
X69498833Y-106962012D01*
X69473585Y-107032916D01*
X69465169Y-107046177D01*
X69460524Y-107057791D01*
X69419347Y-107118381D01*
X69377415Y-107184455D01*
X69368274Y-107193532D01*
X69362822Y-107201555D01*
X69307783Y-107253602D01*
X69250062Y-107310922D01*
X69241534Y-107316251D01*
X69236533Y-107320980D01*
X69169710Y-107361131D01*
X69097856Y-107406031D01*
X69091028Y-107408409D01*
X69087541Y-107410504D01*
X69012274Y-107435834D01*
X68928360Y-107465056D01*
X68923983Y-107465547D01*
X68922800Y-107465945D01*
X68847648Y-107474109D01*
X68795129Y-107480000D01*
X67907549Y-107480000D01*
X67760696Y-107462489D01*
X67712802Y-107445057D01*
X67689364Y-107441177D01*
X67643923Y-107419987D01*
X67592041Y-107401104D01*
X67562237Y-107381896D01*
X67533131Y-107368324D01*
X67489957Y-107335315D01*
X67441177Y-107303878D01*
X67418346Y-107280564D01*
X67395053Y-107262755D01*
X67358198Y-107219144D01*
X67315602Y-107175646D01*
X67299978Y-107150250D01*
X67282859Y-107129992D01*
X67254946Y-107077050D01*
X67221558Y-107022779D01*
X67212859Y-106997227D01*
X67201792Y-106976236D01*
X67185171Y-106915892D01*
X67163718Y-106852875D01*
X67161191Y-106828834D01*
X67155634Y-106808658D01*
X67152216Y-106743434D01*
X67144958Y-106674380D01*
X67147486Y-106653183D01*
X67146537Y-106635082D01*
X67157644Y-106567989D01*
X67166209Y-106496163D01*
X67172425Y-106478706D01*
X67174927Y-106463594D01*
X67201167Y-106397988D01*
X67226415Y-106327084D01*
X67234831Y-106313823D01*
X67239476Y-106302209D01*
X67280653Y-106241619D01*
X67322585Y-106175545D01*
X67331726Y-106166468D01*
X67337178Y-106158445D01*
X67392217Y-106106398D01*
X67449938Y-106049078D01*
X67458466Y-106043749D01*
X67463467Y-106039020D01*
X67530290Y-105998869D01*
X67602144Y-105953969D01*
X67608972Y-105951591D01*
X67612459Y-105949496D01*
X67687726Y-105924166D01*
X67771640Y-105894944D01*
X67776017Y-105894453D01*
X67777200Y-105894055D01*
X67852352Y-105885891D01*
X67904871Y-105880000D01*
X68792451Y-105880000D01*
X68939304Y-105897511D01*
G37*
G36*
X61319304Y-105897511D02*
G01*
X61367198Y-105914943D01*
X61390636Y-105918823D01*
X61436077Y-105940013D01*
X61487959Y-105958896D01*
X61517763Y-105978104D01*
X61546869Y-105991676D01*
X61590043Y-106024685D01*
X61638823Y-106056122D01*
X61661654Y-106079436D01*
X61684947Y-106097245D01*
X61721802Y-106140856D01*
X61764398Y-106184354D01*
X61780022Y-106209750D01*
X61797141Y-106230008D01*
X61825054Y-106282950D01*
X61858442Y-106337221D01*
X61867141Y-106362773D01*
X61878208Y-106383764D01*
X61894829Y-106444108D01*
X61916282Y-106507125D01*
X61918809Y-106531166D01*
X61924366Y-106551342D01*
X61927784Y-106616566D01*
X61935042Y-106685620D01*
X61932514Y-106706817D01*
X61933463Y-106724918D01*
X61922356Y-106792011D01*
X61913791Y-106863837D01*
X61907575Y-106881294D01*
X61905073Y-106896406D01*
X61878833Y-106962012D01*
X61853585Y-107032916D01*
X61845169Y-107046177D01*
X61840524Y-107057791D01*
X61799347Y-107118381D01*
X61757415Y-107184455D01*
X61748274Y-107193532D01*
X61742822Y-107201555D01*
X61687783Y-107253602D01*
X61630062Y-107310922D01*
X61621534Y-107316251D01*
X61616533Y-107320980D01*
X61549710Y-107361131D01*
X61477856Y-107406031D01*
X61471028Y-107408409D01*
X61467541Y-107410504D01*
X61392274Y-107435834D01*
X61308360Y-107465056D01*
X61303983Y-107465547D01*
X61302800Y-107465945D01*
X61227648Y-107474109D01*
X61175129Y-107480000D01*
X60287549Y-107480000D01*
X60140696Y-107462489D01*
X60092802Y-107445057D01*
X60069364Y-107441177D01*
X60023923Y-107419987D01*
X59972041Y-107401104D01*
X59942237Y-107381896D01*
X59913131Y-107368324D01*
X59869957Y-107335315D01*
X59821177Y-107303878D01*
X59798346Y-107280564D01*
X59775053Y-107262755D01*
X59738198Y-107219144D01*
X59695602Y-107175646D01*
X59679978Y-107150250D01*
X59662859Y-107129992D01*
X59634946Y-107077050D01*
X59601558Y-107022779D01*
X59592859Y-106997227D01*
X59581792Y-106976236D01*
X59565171Y-106915892D01*
X59543718Y-106852875D01*
X59541191Y-106828834D01*
X59535634Y-106808658D01*
X59532216Y-106743434D01*
X59524958Y-106674380D01*
X59527486Y-106653183D01*
X59526537Y-106635082D01*
X59537644Y-106567989D01*
X59546209Y-106496163D01*
X59552425Y-106478706D01*
X59554927Y-106463594D01*
X59581167Y-106397988D01*
X59606415Y-106327084D01*
X59614831Y-106313823D01*
X59619476Y-106302209D01*
X59660653Y-106241619D01*
X59702585Y-106175545D01*
X59711726Y-106166468D01*
X59717178Y-106158445D01*
X59772217Y-106106398D01*
X59829938Y-106049078D01*
X59838466Y-106043749D01*
X59843467Y-106039020D01*
X59910290Y-105998869D01*
X59982144Y-105953969D01*
X59988972Y-105951591D01*
X59992459Y-105949496D01*
X60067726Y-105924166D01*
X60151640Y-105894944D01*
X60156017Y-105894453D01*
X60157200Y-105894055D01*
X60232352Y-105885891D01*
X60284871Y-105880000D01*
X61172451Y-105880000D01*
X61319304Y-105897511D01*
G37*
G36*
X40434421Y-103360106D02*
G01*
X40505323Y-103360601D01*
X40524743Y-103365156D01*
X40541431Y-103366089D01*
X40608187Y-103384728D01*
X40680059Y-103401585D01*
X40695450Y-103409092D01*
X40708846Y-103412832D01*
X40772365Y-103446606D01*
X40841374Y-103480264D01*
X40852519Y-103489225D01*
X40862316Y-103494434D01*
X40919038Y-103542708D01*
X40981248Y-103592726D01*
X40988374Y-103601716D01*
X40994689Y-103607091D01*
X41041185Y-103668348D01*
X41092731Y-103733382D01*
X41096466Y-103741178D01*
X41099778Y-103745541D01*
X41132849Y-103817113D01*
X41170282Y-103895242D01*
X41171572Y-103900918D01*
X41172685Y-103903328D01*
X41189661Y-103980538D01*
X41210045Y-104070261D01*
X41209984Y-104074598D01*
X41209364Y-104252580D01*
X41207377Y-104261327D01*
X41207227Y-104272043D01*
X41187379Y-104349348D01*
X41170874Y-104421993D01*
X41166148Y-104432036D01*
X41162593Y-104445883D01*
X41127510Y-104514147D01*
X41096868Y-104579265D01*
X41088378Y-104590290D01*
X41080553Y-104605515D01*
X41033123Y-104662040D01*
X40990813Y-104716980D01*
X40978002Y-104727730D01*
X40965186Y-104743003D01*
X40908734Y-104785853D01*
X40857661Y-104828708D01*
X40840355Y-104837755D01*
X40822226Y-104851516D01*
X40760299Y-104879607D01*
X40703624Y-104909236D01*
X40682077Y-104915090D01*
X40658778Y-104925659D01*
X40594960Y-104938759D01*
X40535883Y-104954810D01*
X40510790Y-104956037D01*
X40482965Y-104961749D01*
X40420685Y-104960444D01*
X40362279Y-104963301D01*
X40334745Y-104958644D01*
X40303525Y-104957990D01*
X40245835Y-104943606D01*
X40190890Y-104934313D01*
X40162408Y-104922805D01*
X40129378Y-104914570D01*
X40078841Y-104889042D01*
X40029731Y-104869200D01*
X40002080Y-104850267D01*
X39969178Y-104833647D01*
X39927733Y-104799361D01*
X39886310Y-104770998D01*
X39861459Y-104744535D01*
X39830887Y-104719243D01*
X39799791Y-104678864D01*
X39767324Y-104644290D01*
X39747309Y-104610715D01*
X39721379Y-104577044D01*
X39701187Y-104533344D01*
X39678323Y-104494990D01*
X39665106Y-104455258D01*
X39646096Y-104414117D01*
X39636673Y-104369786D01*
X39623457Y-104330057D01*
X39618790Y-104285653D01*
X39608780Y-104238560D01*
X39609373Y-104196059D01*
X39605288Y-104157188D01*
X39610574Y-104110060D01*
X39611286Y-104059099D01*
X39620617Y-104020529D01*
X39624663Y-103984459D01*
X39640839Y-103936943D01*
X39653489Y-103884653D01*
X39669881Y-103851632D01*
X39680679Y-103819912D01*
X39708114Y-103774611D01*
X39733292Y-103723891D01*
X39754811Y-103697506D01*
X39770722Y-103671234D01*
X39809147Y-103630883D01*
X39846728Y-103584805D01*
X39871334Y-103565580D01*
X39890589Y-103545361D01*
X39939069Y-103512660D01*
X39988159Y-103474307D01*
X40013856Y-103462215D01*
X40034690Y-103448162D01*
X40091617Y-103425623D01*
X40150556Y-103397889D01*
X40175545Y-103392395D01*
X40196301Y-103384177D01*
X40259412Y-103373955D01*
X40325848Y-103359348D01*
X40348617Y-103359507D01*
X40367886Y-103356386D01*
X40434421Y-103360106D01*
G37*
G36*
X48054421Y-103360106D02*
G01*
X48125323Y-103360601D01*
X48144743Y-103365156D01*
X48161431Y-103366089D01*
X48228187Y-103384728D01*
X48300059Y-103401585D01*
X48315450Y-103409092D01*
X48328846Y-103412832D01*
X48392365Y-103446606D01*
X48461374Y-103480264D01*
X48472519Y-103489225D01*
X48482316Y-103494434D01*
X48539038Y-103542708D01*
X48601248Y-103592726D01*
X48608374Y-103601716D01*
X48614689Y-103607091D01*
X48661185Y-103668348D01*
X48712731Y-103733382D01*
X48716466Y-103741178D01*
X48719778Y-103745541D01*
X48752849Y-103817113D01*
X48790282Y-103895242D01*
X48791572Y-103900918D01*
X48792685Y-103903328D01*
X48809661Y-103980538D01*
X48830045Y-104070261D01*
X48829984Y-104074598D01*
X48829364Y-104252580D01*
X48827377Y-104261327D01*
X48827227Y-104272043D01*
X48807379Y-104349348D01*
X48790874Y-104421993D01*
X48786148Y-104432036D01*
X48782593Y-104445883D01*
X48747510Y-104514147D01*
X48716868Y-104579265D01*
X48708378Y-104590290D01*
X48700553Y-104605515D01*
X48653123Y-104662040D01*
X48610813Y-104716980D01*
X48598002Y-104727730D01*
X48585186Y-104743003D01*
X48528734Y-104785853D01*
X48477661Y-104828708D01*
X48460355Y-104837755D01*
X48442226Y-104851516D01*
X48380299Y-104879607D01*
X48323624Y-104909236D01*
X48302077Y-104915090D01*
X48278778Y-104925659D01*
X48214960Y-104938759D01*
X48155883Y-104954810D01*
X48130790Y-104956037D01*
X48102965Y-104961749D01*
X48040685Y-104960444D01*
X47982279Y-104963301D01*
X47954745Y-104958644D01*
X47923525Y-104957990D01*
X47865835Y-104943606D01*
X47810890Y-104934313D01*
X47782408Y-104922805D01*
X47749378Y-104914570D01*
X47698841Y-104889042D01*
X47649731Y-104869200D01*
X47622080Y-104850267D01*
X47589178Y-104833647D01*
X47547733Y-104799361D01*
X47506310Y-104770998D01*
X47481459Y-104744535D01*
X47450887Y-104719243D01*
X47419791Y-104678864D01*
X47387324Y-104644290D01*
X47367309Y-104610715D01*
X47341379Y-104577044D01*
X47321187Y-104533344D01*
X47298323Y-104494990D01*
X47285106Y-104455258D01*
X47266096Y-104414117D01*
X47256673Y-104369786D01*
X47243457Y-104330057D01*
X47238790Y-104285653D01*
X47228780Y-104238560D01*
X47229373Y-104196059D01*
X47225288Y-104157188D01*
X47230574Y-104110060D01*
X47231286Y-104059099D01*
X47240617Y-104020529D01*
X47244663Y-103984459D01*
X47260839Y-103936943D01*
X47273489Y-103884653D01*
X47289881Y-103851632D01*
X47300679Y-103819912D01*
X47328114Y-103774611D01*
X47353292Y-103723891D01*
X47374811Y-103697506D01*
X47390722Y-103671234D01*
X47429147Y-103630883D01*
X47466728Y-103584805D01*
X47491334Y-103565580D01*
X47510589Y-103545361D01*
X47559069Y-103512660D01*
X47608159Y-103474307D01*
X47633856Y-103462215D01*
X47654690Y-103448162D01*
X47711617Y-103425623D01*
X47770556Y-103397889D01*
X47795545Y-103392395D01*
X47816301Y-103384177D01*
X47879412Y-103373955D01*
X47945848Y-103359348D01*
X47968617Y-103359507D01*
X47987886Y-103356386D01*
X48054421Y-103360106D01*
G37*
G36*
X68939304Y-103357511D02*
G01*
X68987198Y-103374943D01*
X69010636Y-103378823D01*
X69056077Y-103400013D01*
X69107959Y-103418896D01*
X69137763Y-103438104D01*
X69166869Y-103451676D01*
X69210043Y-103484685D01*
X69258823Y-103516122D01*
X69281654Y-103539436D01*
X69304947Y-103557245D01*
X69341802Y-103600856D01*
X69384398Y-103644354D01*
X69400022Y-103669750D01*
X69417141Y-103690008D01*
X69445054Y-103742950D01*
X69478442Y-103797221D01*
X69487141Y-103822773D01*
X69498208Y-103843764D01*
X69514829Y-103904108D01*
X69536282Y-103967125D01*
X69538809Y-103991166D01*
X69544366Y-104011342D01*
X69547784Y-104076566D01*
X69555042Y-104145620D01*
X69552514Y-104166817D01*
X69553463Y-104184918D01*
X69542356Y-104252011D01*
X69533791Y-104323837D01*
X69527575Y-104341294D01*
X69525073Y-104356406D01*
X69498833Y-104422012D01*
X69473585Y-104492916D01*
X69465169Y-104506177D01*
X69460524Y-104517791D01*
X69419347Y-104578381D01*
X69377415Y-104644455D01*
X69368274Y-104653532D01*
X69362822Y-104661555D01*
X69307783Y-104713602D01*
X69250062Y-104770922D01*
X69241534Y-104776251D01*
X69236533Y-104780980D01*
X69169710Y-104821131D01*
X69097856Y-104866031D01*
X69091028Y-104868409D01*
X69087541Y-104870504D01*
X69012274Y-104895834D01*
X68928360Y-104925056D01*
X68923983Y-104925547D01*
X68922800Y-104925945D01*
X68847648Y-104934109D01*
X68795129Y-104940000D01*
X67907549Y-104940000D01*
X67760696Y-104922489D01*
X67712802Y-104905057D01*
X67689364Y-104901177D01*
X67643923Y-104879987D01*
X67592041Y-104861104D01*
X67562237Y-104841896D01*
X67533131Y-104828324D01*
X67489957Y-104795315D01*
X67441177Y-104763878D01*
X67418346Y-104740564D01*
X67395053Y-104722755D01*
X67358198Y-104679144D01*
X67315602Y-104635646D01*
X67299978Y-104610250D01*
X67282859Y-104589992D01*
X67254946Y-104537050D01*
X67221558Y-104482779D01*
X67212859Y-104457227D01*
X67201792Y-104436236D01*
X67185171Y-104375892D01*
X67163718Y-104312875D01*
X67161191Y-104288834D01*
X67155634Y-104268658D01*
X67152216Y-104203434D01*
X67144958Y-104134380D01*
X67147486Y-104113183D01*
X67146537Y-104095082D01*
X67157644Y-104027989D01*
X67166209Y-103956163D01*
X67172425Y-103938706D01*
X67174927Y-103923594D01*
X67201167Y-103857988D01*
X67226415Y-103787084D01*
X67234831Y-103773823D01*
X67239476Y-103762209D01*
X67280653Y-103701619D01*
X67322585Y-103635545D01*
X67331726Y-103626468D01*
X67337178Y-103618445D01*
X67392217Y-103566398D01*
X67449938Y-103509078D01*
X67458466Y-103503749D01*
X67463467Y-103499020D01*
X67530290Y-103458869D01*
X67602144Y-103413969D01*
X67608972Y-103411591D01*
X67612459Y-103409496D01*
X67687726Y-103384166D01*
X67771640Y-103354944D01*
X67776017Y-103354453D01*
X67777200Y-103354055D01*
X67852352Y-103345891D01*
X67904871Y-103340000D01*
X68792451Y-103340000D01*
X68939304Y-103357511D01*
G37*
G36*
X61319304Y-103357511D02*
G01*
X61367198Y-103374943D01*
X61390636Y-103378823D01*
X61436077Y-103400013D01*
X61487959Y-103418896D01*
X61517763Y-103438104D01*
X61546869Y-103451676D01*
X61590043Y-103484685D01*
X61638823Y-103516122D01*
X61661654Y-103539436D01*
X61684947Y-103557245D01*
X61721802Y-103600856D01*
X61764398Y-103644354D01*
X61780022Y-103669750D01*
X61797141Y-103690008D01*
X61825054Y-103742950D01*
X61858442Y-103797221D01*
X61867141Y-103822773D01*
X61878208Y-103843764D01*
X61894829Y-103904108D01*
X61916282Y-103967125D01*
X61918809Y-103991166D01*
X61924366Y-104011342D01*
X61927784Y-104076566D01*
X61935042Y-104145620D01*
X61932514Y-104166817D01*
X61933463Y-104184918D01*
X61922356Y-104252011D01*
X61913791Y-104323837D01*
X61907575Y-104341294D01*
X61905073Y-104356406D01*
X61878833Y-104422012D01*
X61853585Y-104492916D01*
X61845169Y-104506177D01*
X61840524Y-104517791D01*
X61799347Y-104578381D01*
X61757415Y-104644455D01*
X61748274Y-104653532D01*
X61742822Y-104661555D01*
X61687783Y-104713602D01*
X61630062Y-104770922D01*
X61621534Y-104776251D01*
X61616533Y-104780980D01*
X61549710Y-104821131D01*
X61477856Y-104866031D01*
X61471028Y-104868409D01*
X61467541Y-104870504D01*
X61392274Y-104895834D01*
X61308360Y-104925056D01*
X61303983Y-104925547D01*
X61302800Y-104925945D01*
X61227648Y-104934109D01*
X61175129Y-104940000D01*
X60287549Y-104940000D01*
X60140696Y-104922489D01*
X60092802Y-104905057D01*
X60069364Y-104901177D01*
X60023923Y-104879987D01*
X59972041Y-104861104D01*
X59942237Y-104841896D01*
X59913131Y-104828324D01*
X59869957Y-104795315D01*
X59821177Y-104763878D01*
X59798346Y-104740564D01*
X59775053Y-104722755D01*
X59738198Y-104679144D01*
X59695602Y-104635646D01*
X59679978Y-104610250D01*
X59662859Y-104589992D01*
X59634946Y-104537050D01*
X59601558Y-104482779D01*
X59592859Y-104457227D01*
X59581792Y-104436236D01*
X59565171Y-104375892D01*
X59543718Y-104312875D01*
X59541191Y-104288834D01*
X59535634Y-104268658D01*
X59532216Y-104203434D01*
X59524958Y-104134380D01*
X59527486Y-104113183D01*
X59526537Y-104095082D01*
X59537644Y-104027989D01*
X59546209Y-103956163D01*
X59552425Y-103938706D01*
X59554927Y-103923594D01*
X59581167Y-103857988D01*
X59606415Y-103787084D01*
X59614831Y-103773823D01*
X59619476Y-103762209D01*
X59660653Y-103701619D01*
X59702585Y-103635545D01*
X59711726Y-103626468D01*
X59717178Y-103618445D01*
X59772217Y-103566398D01*
X59829938Y-103509078D01*
X59838466Y-103503749D01*
X59843467Y-103499020D01*
X59910290Y-103458869D01*
X59982144Y-103413969D01*
X59988972Y-103411591D01*
X59992459Y-103409496D01*
X60067726Y-103384166D01*
X60151640Y-103354944D01*
X60156017Y-103354453D01*
X60157200Y-103354055D01*
X60232352Y-103345891D01*
X60284871Y-103340000D01*
X61172451Y-103340000D01*
X61319304Y-103357511D01*
G37*
G36*
X78807945Y-100772460D02*
G01*
X78879646Y-100776469D01*
X78899908Y-100782126D01*
X78917698Y-100783996D01*
X78985442Y-100806007D01*
X79057524Y-100826133D01*
X79073461Y-100834607D01*
X79087631Y-100839211D01*
X79151836Y-100876280D01*
X79220588Y-100912836D01*
X79232051Y-100922592D01*
X79242369Y-100928549D01*
X79299624Y-100980101D01*
X79361230Y-101032532D01*
X79368516Y-101042131D01*
X79375152Y-101048106D01*
X79422106Y-101112733D01*
X79472888Y-101179636D01*
X79476687Y-101187859D01*
X79480175Y-101192659D01*
X79513760Y-101268090D01*
X79550353Y-101347286D01*
X79551653Y-101353200D01*
X79552850Y-101355888D01*
X79570457Y-101438724D01*
X79590011Y-101527659D01*
X79589999Y-101531099D01*
X79589999Y-101709338D01*
X79589367Y-101712312D01*
X79589346Y-101718273D01*
X79570008Y-101803391D01*
X79552850Y-101884112D01*
X79550437Y-101889532D01*
X79548430Y-101898365D01*
X79512660Y-101974380D01*
X79480175Y-102047341D01*
X79474928Y-102054563D01*
X79469796Y-102065469D01*
X79420442Y-102129557D01*
X79375152Y-102191894D01*
X79366296Y-102199868D01*
X79357114Y-102211791D01*
X79297477Y-102261833D01*
X79242369Y-102311451D01*
X79229463Y-102318902D01*
X79215639Y-102330502D01*
X79149322Y-102365172D01*
X79087631Y-102400789D01*
X79070619Y-102406316D01*
X79051974Y-102416064D01*
X78982668Y-102434894D01*
X78917698Y-102456004D01*
X78896937Y-102458186D01*
X78873753Y-102464485D01*
X78805026Y-102467846D01*
X78740000Y-102474681D01*
X78716274Y-102472187D01*
X78689292Y-102473507D01*
X78624392Y-102462530D01*
X78562302Y-102456004D01*
X78536782Y-102447712D01*
X78507197Y-102442708D01*
X78448934Y-102419168D01*
X78392369Y-102400789D01*
X78366553Y-102385884D01*
X78335963Y-102373525D01*
X78286580Y-102339712D01*
X78237631Y-102311451D01*
X78213264Y-102289511D01*
X78183580Y-102269186D01*
X78144661Y-102227741D01*
X78104848Y-102191894D01*
X78083823Y-102162956D01*
X78057157Y-102134559D01*
X78029571Y-102088284D01*
X77999825Y-102047341D01*
X77984069Y-102011953D01*
X77962592Y-101975925D01*
X77946529Y-101927638D01*
X77927150Y-101884112D01*
X77918477Y-101843310D01*
X77904298Y-101800685D01*
X77899290Y-101753041D01*
X77890001Y-101709338D01*
X77890001Y-101664662D01*
X77884993Y-101617015D01*
X77890001Y-101572367D01*
X77890001Y-101530662D01*
X77899906Y-101484063D01*
X77905579Y-101433485D01*
X77919096Y-101393779D01*
X77927150Y-101355888D01*
X77947734Y-101309656D01*
X77965096Y-101258656D01*
X77985278Y-101225331D01*
X77999825Y-101192659D01*
X78031311Y-101149321D01*
X78060766Y-101100686D01*
X78085573Y-101074637D01*
X78104848Y-101048106D01*
X78146859Y-101010279D01*
X78188126Y-100966945D01*
X78215476Y-100948498D01*
X78237631Y-100928549D01*
X78289144Y-100898808D01*
X78341234Y-100863673D01*
X78369130Y-100852628D01*
X78392369Y-100839211D01*
X78451744Y-100819919D01*
X78512946Y-100795687D01*
X78539615Y-100791368D01*
X78562302Y-100783996D01*
X78627325Y-100777162D01*
X78695252Y-100766160D01*
X78719239Y-100767501D01*
X78740000Y-100765319D01*
X78807945Y-100772460D01*
G37*
G36*
X40434421Y-100820106D02*
G01*
X40505323Y-100820601D01*
X40524743Y-100825156D01*
X40541431Y-100826089D01*
X40608187Y-100844728D01*
X40680059Y-100861585D01*
X40695450Y-100869092D01*
X40708846Y-100872832D01*
X40772365Y-100906606D01*
X40841374Y-100940264D01*
X40852519Y-100949225D01*
X40862316Y-100954434D01*
X40919038Y-101002708D01*
X40981248Y-101052726D01*
X40988374Y-101061716D01*
X40994689Y-101067091D01*
X41041185Y-101128348D01*
X41092731Y-101193382D01*
X41096466Y-101201178D01*
X41099778Y-101205541D01*
X41132849Y-101277113D01*
X41170282Y-101355242D01*
X41171572Y-101360918D01*
X41172685Y-101363328D01*
X41189661Y-101440538D01*
X41210045Y-101530261D01*
X41209984Y-101534598D01*
X41209364Y-101712580D01*
X41207377Y-101721327D01*
X41207227Y-101732043D01*
X41187379Y-101809348D01*
X41170874Y-101881993D01*
X41166148Y-101892036D01*
X41162593Y-101905883D01*
X41127510Y-101974147D01*
X41096868Y-102039265D01*
X41088378Y-102050290D01*
X41080553Y-102065515D01*
X41033123Y-102122040D01*
X40990813Y-102176980D01*
X40978002Y-102187730D01*
X40965186Y-102203003D01*
X40908734Y-102245853D01*
X40857661Y-102288708D01*
X40840355Y-102297755D01*
X40822226Y-102311516D01*
X40760299Y-102339607D01*
X40703624Y-102369236D01*
X40682077Y-102375090D01*
X40658778Y-102385659D01*
X40594960Y-102398759D01*
X40535883Y-102414810D01*
X40510790Y-102416037D01*
X40482965Y-102421749D01*
X40420685Y-102420444D01*
X40362279Y-102423301D01*
X40334745Y-102418644D01*
X40303525Y-102417990D01*
X40245835Y-102403606D01*
X40190890Y-102394313D01*
X40162408Y-102382805D01*
X40129378Y-102374570D01*
X40078841Y-102349042D01*
X40029731Y-102329200D01*
X40002080Y-102310267D01*
X39969178Y-102293647D01*
X39927733Y-102259361D01*
X39886310Y-102230998D01*
X39861459Y-102204535D01*
X39830887Y-102179243D01*
X39799791Y-102138864D01*
X39767324Y-102104290D01*
X39747309Y-102070715D01*
X39721379Y-102037044D01*
X39701187Y-101993344D01*
X39678323Y-101954990D01*
X39665106Y-101915258D01*
X39646096Y-101874117D01*
X39636673Y-101829786D01*
X39623457Y-101790057D01*
X39618790Y-101745653D01*
X39608780Y-101698560D01*
X39609373Y-101656059D01*
X39605288Y-101617188D01*
X39610574Y-101570060D01*
X39611286Y-101519099D01*
X39620617Y-101480529D01*
X39624663Y-101444459D01*
X39640839Y-101396943D01*
X39653489Y-101344653D01*
X39669881Y-101311632D01*
X39680679Y-101279912D01*
X39708114Y-101234611D01*
X39733292Y-101183891D01*
X39754811Y-101157506D01*
X39770722Y-101131234D01*
X39809147Y-101090883D01*
X39846728Y-101044805D01*
X39871334Y-101025580D01*
X39890589Y-101005361D01*
X39939069Y-100972660D01*
X39988159Y-100934307D01*
X40013856Y-100922215D01*
X40034690Y-100908162D01*
X40091617Y-100885623D01*
X40150556Y-100857889D01*
X40175545Y-100852395D01*
X40196301Y-100844177D01*
X40259412Y-100833955D01*
X40325848Y-100819348D01*
X40348617Y-100819507D01*
X40367886Y-100816386D01*
X40434421Y-100820106D01*
G37*
G36*
X48054421Y-100820106D02*
G01*
X48125323Y-100820601D01*
X48144743Y-100825156D01*
X48161431Y-100826089D01*
X48228187Y-100844728D01*
X48300059Y-100861585D01*
X48315450Y-100869092D01*
X48328846Y-100872832D01*
X48392365Y-100906606D01*
X48461374Y-100940264D01*
X48472519Y-100949225D01*
X48482316Y-100954434D01*
X48539038Y-101002708D01*
X48601248Y-101052726D01*
X48608374Y-101061716D01*
X48614689Y-101067091D01*
X48661185Y-101128348D01*
X48712731Y-101193382D01*
X48716466Y-101201178D01*
X48719778Y-101205541D01*
X48752849Y-101277113D01*
X48790282Y-101355242D01*
X48791572Y-101360918D01*
X48792685Y-101363328D01*
X48809661Y-101440538D01*
X48830045Y-101530261D01*
X48829984Y-101534598D01*
X48829364Y-101712580D01*
X48827377Y-101721327D01*
X48827227Y-101732043D01*
X48807379Y-101809348D01*
X48790874Y-101881993D01*
X48786148Y-101892036D01*
X48782593Y-101905883D01*
X48747510Y-101974147D01*
X48716868Y-102039265D01*
X48708378Y-102050290D01*
X48700553Y-102065515D01*
X48653123Y-102122040D01*
X48610813Y-102176980D01*
X48598002Y-102187730D01*
X48585186Y-102203003D01*
X48528734Y-102245853D01*
X48477661Y-102288708D01*
X48460355Y-102297755D01*
X48442226Y-102311516D01*
X48380299Y-102339607D01*
X48323624Y-102369236D01*
X48302077Y-102375090D01*
X48278778Y-102385659D01*
X48214960Y-102398759D01*
X48155883Y-102414810D01*
X48130790Y-102416037D01*
X48102965Y-102421749D01*
X48040685Y-102420444D01*
X47982279Y-102423301D01*
X47954745Y-102418644D01*
X47923525Y-102417990D01*
X47865835Y-102403606D01*
X47810890Y-102394313D01*
X47782408Y-102382805D01*
X47749378Y-102374570D01*
X47698841Y-102349042D01*
X47649731Y-102329200D01*
X47622080Y-102310267D01*
X47589178Y-102293647D01*
X47547733Y-102259361D01*
X47506310Y-102230998D01*
X47481459Y-102204535D01*
X47450887Y-102179243D01*
X47419791Y-102138864D01*
X47387324Y-102104290D01*
X47367309Y-102070715D01*
X47341379Y-102037044D01*
X47321187Y-101993344D01*
X47298323Y-101954990D01*
X47285106Y-101915258D01*
X47266096Y-101874117D01*
X47256673Y-101829786D01*
X47243457Y-101790057D01*
X47238790Y-101745653D01*
X47228780Y-101698560D01*
X47229373Y-101656059D01*
X47225288Y-101617188D01*
X47230574Y-101570060D01*
X47231286Y-101519099D01*
X47240617Y-101480529D01*
X47244663Y-101444459D01*
X47260839Y-101396943D01*
X47273489Y-101344653D01*
X47289881Y-101311632D01*
X47300679Y-101279912D01*
X47328114Y-101234611D01*
X47353292Y-101183891D01*
X47374811Y-101157506D01*
X47390722Y-101131234D01*
X47429147Y-101090883D01*
X47466728Y-101044805D01*
X47491334Y-101025580D01*
X47510589Y-101005361D01*
X47559069Y-100972660D01*
X47608159Y-100934307D01*
X47633856Y-100922215D01*
X47654690Y-100908162D01*
X47711617Y-100885623D01*
X47770556Y-100857889D01*
X47795545Y-100852395D01*
X47816301Y-100844177D01*
X47879412Y-100833955D01*
X47945848Y-100819348D01*
X47968617Y-100819507D01*
X47987886Y-100816386D01*
X48054421Y-100820106D01*
G37*
G36*
X68939304Y-100817511D02*
G01*
X68987198Y-100834943D01*
X69010636Y-100838823D01*
X69056077Y-100860013D01*
X69107959Y-100878896D01*
X69137763Y-100898104D01*
X69166869Y-100911676D01*
X69210043Y-100944685D01*
X69258823Y-100976122D01*
X69281654Y-100999436D01*
X69304947Y-101017245D01*
X69341802Y-101060856D01*
X69384398Y-101104354D01*
X69400022Y-101129750D01*
X69417141Y-101150008D01*
X69445054Y-101202950D01*
X69478442Y-101257221D01*
X69487141Y-101282773D01*
X69498208Y-101303764D01*
X69514829Y-101364108D01*
X69536282Y-101427125D01*
X69538809Y-101451166D01*
X69544366Y-101471342D01*
X69547784Y-101536566D01*
X69555042Y-101605620D01*
X69552514Y-101626817D01*
X69553463Y-101644918D01*
X69542356Y-101712011D01*
X69533791Y-101783837D01*
X69527575Y-101801294D01*
X69525073Y-101816406D01*
X69498833Y-101882012D01*
X69473585Y-101952916D01*
X69465169Y-101966177D01*
X69460524Y-101977791D01*
X69419347Y-102038381D01*
X69377415Y-102104455D01*
X69368274Y-102113532D01*
X69362822Y-102121555D01*
X69307783Y-102173602D01*
X69250062Y-102230922D01*
X69241534Y-102236251D01*
X69236533Y-102240980D01*
X69169710Y-102281131D01*
X69097856Y-102326031D01*
X69091028Y-102328409D01*
X69087541Y-102330504D01*
X69012274Y-102355834D01*
X68928360Y-102385056D01*
X68923983Y-102385547D01*
X68922800Y-102385945D01*
X68847648Y-102394109D01*
X68795129Y-102400000D01*
X67907549Y-102400000D01*
X67760696Y-102382489D01*
X67712802Y-102365057D01*
X67689364Y-102361177D01*
X67643923Y-102339987D01*
X67592041Y-102321104D01*
X67562237Y-102301896D01*
X67533131Y-102288324D01*
X67489957Y-102255315D01*
X67441177Y-102223878D01*
X67418346Y-102200564D01*
X67395053Y-102182755D01*
X67358198Y-102139144D01*
X67315602Y-102095646D01*
X67299978Y-102070250D01*
X67282859Y-102049992D01*
X67254946Y-101997050D01*
X67221558Y-101942779D01*
X67212859Y-101917227D01*
X67201792Y-101896236D01*
X67185171Y-101835892D01*
X67163718Y-101772875D01*
X67161191Y-101748834D01*
X67155634Y-101728658D01*
X67152216Y-101663434D01*
X67144958Y-101594380D01*
X67147486Y-101573183D01*
X67146537Y-101555082D01*
X67157644Y-101487989D01*
X67166209Y-101416163D01*
X67172425Y-101398706D01*
X67174927Y-101383594D01*
X67201167Y-101317988D01*
X67226415Y-101247084D01*
X67234831Y-101233823D01*
X67239476Y-101222209D01*
X67280653Y-101161619D01*
X67322585Y-101095545D01*
X67331726Y-101086468D01*
X67337178Y-101078445D01*
X67392217Y-101026398D01*
X67449938Y-100969078D01*
X67458466Y-100963749D01*
X67463467Y-100959020D01*
X67530290Y-100918869D01*
X67602144Y-100873969D01*
X67608972Y-100871591D01*
X67612459Y-100869496D01*
X67687726Y-100844166D01*
X67771640Y-100814944D01*
X67776017Y-100814453D01*
X67777200Y-100814055D01*
X67852352Y-100805891D01*
X67904871Y-100800000D01*
X68792451Y-100800000D01*
X68939304Y-100817511D01*
G37*
G36*
X61319304Y-100817511D02*
G01*
X61367198Y-100834943D01*
X61390636Y-100838823D01*
X61436077Y-100860013D01*
X61487959Y-100878896D01*
X61517763Y-100898104D01*
X61546869Y-100911676D01*
X61590043Y-100944685D01*
X61638823Y-100976122D01*
X61661654Y-100999436D01*
X61684947Y-101017245D01*
X61721802Y-101060856D01*
X61764398Y-101104354D01*
X61780022Y-101129750D01*
X61797141Y-101150008D01*
X61825054Y-101202950D01*
X61858442Y-101257221D01*
X61867141Y-101282773D01*
X61878208Y-101303764D01*
X61894829Y-101364108D01*
X61916282Y-101427125D01*
X61918809Y-101451166D01*
X61924366Y-101471342D01*
X61927784Y-101536566D01*
X61935042Y-101605620D01*
X61932514Y-101626817D01*
X61933463Y-101644918D01*
X61922356Y-101712011D01*
X61913791Y-101783837D01*
X61907575Y-101801294D01*
X61905073Y-101816406D01*
X61878833Y-101882012D01*
X61853585Y-101952916D01*
X61845169Y-101966177D01*
X61840524Y-101977791D01*
X61799347Y-102038381D01*
X61757415Y-102104455D01*
X61748274Y-102113532D01*
X61742822Y-102121555D01*
X61687783Y-102173602D01*
X61630062Y-102230922D01*
X61621534Y-102236251D01*
X61616533Y-102240980D01*
X61549710Y-102281131D01*
X61477856Y-102326031D01*
X61471028Y-102328409D01*
X61467541Y-102330504D01*
X61392274Y-102355834D01*
X61308360Y-102385056D01*
X61303983Y-102385547D01*
X61302800Y-102385945D01*
X61227648Y-102394109D01*
X61175129Y-102400000D01*
X60287549Y-102400000D01*
X60140696Y-102382489D01*
X60092802Y-102365057D01*
X60069364Y-102361177D01*
X60023923Y-102339987D01*
X59972041Y-102321104D01*
X59942237Y-102301896D01*
X59913131Y-102288324D01*
X59869957Y-102255315D01*
X59821177Y-102223878D01*
X59798346Y-102200564D01*
X59775053Y-102182755D01*
X59738198Y-102139144D01*
X59695602Y-102095646D01*
X59679978Y-102070250D01*
X59662859Y-102049992D01*
X59634946Y-101997050D01*
X59601558Y-101942779D01*
X59592859Y-101917227D01*
X59581792Y-101896236D01*
X59565171Y-101835892D01*
X59543718Y-101772875D01*
X59541191Y-101748834D01*
X59535634Y-101728658D01*
X59532216Y-101663434D01*
X59524958Y-101594380D01*
X59527486Y-101573183D01*
X59526537Y-101555082D01*
X59537644Y-101487989D01*
X59546209Y-101416163D01*
X59552425Y-101398706D01*
X59554927Y-101383594D01*
X59581167Y-101317988D01*
X59606415Y-101247084D01*
X59614831Y-101233823D01*
X59619476Y-101222209D01*
X59660653Y-101161619D01*
X59702585Y-101095545D01*
X59711726Y-101086468D01*
X59717178Y-101078445D01*
X59772217Y-101026398D01*
X59829938Y-100969078D01*
X59838466Y-100963749D01*
X59843467Y-100959020D01*
X59910290Y-100918869D01*
X59982144Y-100873969D01*
X59988972Y-100871591D01*
X59992459Y-100869496D01*
X60067726Y-100844166D01*
X60151640Y-100814944D01*
X60156017Y-100814453D01*
X60157200Y-100814055D01*
X60232352Y-100805891D01*
X60284871Y-100800000D01*
X61172451Y-100800000D01*
X61319304Y-100817511D01*
G37*
G36*
X78807945Y-98232460D02*
G01*
X78879646Y-98236469D01*
X78899908Y-98242126D01*
X78917698Y-98243996D01*
X78985442Y-98266007D01*
X79057524Y-98286133D01*
X79073461Y-98294607D01*
X79087631Y-98299211D01*
X79151836Y-98336280D01*
X79220588Y-98372836D01*
X79232051Y-98382592D01*
X79242369Y-98388549D01*
X79299624Y-98440101D01*
X79361230Y-98492532D01*
X79368516Y-98502131D01*
X79375152Y-98508106D01*
X79422106Y-98572733D01*
X79472888Y-98639636D01*
X79476687Y-98647859D01*
X79480175Y-98652659D01*
X79513760Y-98728090D01*
X79550353Y-98807286D01*
X79551653Y-98813200D01*
X79552850Y-98815888D01*
X79570457Y-98898724D01*
X79590011Y-98987659D01*
X79589999Y-98991099D01*
X79589999Y-99169338D01*
X79589367Y-99172312D01*
X79589346Y-99178273D01*
X79570008Y-99263391D01*
X79552850Y-99344112D01*
X79550437Y-99349532D01*
X79548430Y-99358365D01*
X79512660Y-99434380D01*
X79480175Y-99507341D01*
X79474928Y-99514563D01*
X79469796Y-99525469D01*
X79420442Y-99589557D01*
X79375152Y-99651894D01*
X79366296Y-99659868D01*
X79357114Y-99671791D01*
X79297477Y-99721833D01*
X79242369Y-99771451D01*
X79229463Y-99778902D01*
X79215639Y-99790502D01*
X79149322Y-99825172D01*
X79087631Y-99860789D01*
X79070619Y-99866316D01*
X79051974Y-99876064D01*
X78982668Y-99894894D01*
X78917698Y-99916004D01*
X78896937Y-99918186D01*
X78873753Y-99924485D01*
X78805026Y-99927846D01*
X78740000Y-99934681D01*
X78716274Y-99932187D01*
X78689292Y-99933507D01*
X78624392Y-99922530D01*
X78562302Y-99916004D01*
X78536782Y-99907712D01*
X78507197Y-99902708D01*
X78448934Y-99879168D01*
X78392369Y-99860789D01*
X78366553Y-99845884D01*
X78335963Y-99833525D01*
X78286580Y-99799712D01*
X78237631Y-99771451D01*
X78213264Y-99749511D01*
X78183580Y-99729186D01*
X78144661Y-99687741D01*
X78104848Y-99651894D01*
X78083823Y-99622956D01*
X78057157Y-99594559D01*
X78029571Y-99548284D01*
X77999825Y-99507341D01*
X77984069Y-99471953D01*
X77962592Y-99435925D01*
X77946529Y-99387638D01*
X77927150Y-99344112D01*
X77918477Y-99303310D01*
X77904298Y-99260685D01*
X77899290Y-99213041D01*
X77890001Y-99169338D01*
X77890001Y-99124662D01*
X77884993Y-99077015D01*
X77890001Y-99032367D01*
X77890001Y-98990662D01*
X77899906Y-98944063D01*
X77905579Y-98893485D01*
X77919096Y-98853779D01*
X77927150Y-98815888D01*
X77947734Y-98769656D01*
X77965096Y-98718656D01*
X77985278Y-98685331D01*
X77999825Y-98652659D01*
X78031311Y-98609321D01*
X78060766Y-98560686D01*
X78085573Y-98534637D01*
X78104848Y-98508106D01*
X78146859Y-98470279D01*
X78188126Y-98426945D01*
X78215476Y-98408498D01*
X78237631Y-98388549D01*
X78289144Y-98358808D01*
X78341234Y-98323673D01*
X78369130Y-98312628D01*
X78392369Y-98299211D01*
X78451744Y-98279919D01*
X78512946Y-98255687D01*
X78539615Y-98251368D01*
X78562302Y-98243996D01*
X78627325Y-98237162D01*
X78695252Y-98226160D01*
X78719239Y-98227501D01*
X78740000Y-98225319D01*
X78807945Y-98232460D01*
G37*
G36*
X48054421Y-98280106D02*
G01*
X48125323Y-98280601D01*
X48144743Y-98285156D01*
X48161431Y-98286089D01*
X48228187Y-98304728D01*
X48300059Y-98321585D01*
X48315450Y-98329092D01*
X48328846Y-98332832D01*
X48392365Y-98366606D01*
X48461374Y-98400264D01*
X48472519Y-98409225D01*
X48482316Y-98414434D01*
X48539038Y-98462708D01*
X48601248Y-98512726D01*
X48608374Y-98521716D01*
X48614689Y-98527091D01*
X48661185Y-98588348D01*
X48712731Y-98653382D01*
X48716466Y-98661178D01*
X48719778Y-98665541D01*
X48752849Y-98737113D01*
X48790282Y-98815242D01*
X48791572Y-98820918D01*
X48792685Y-98823328D01*
X48809661Y-98900538D01*
X48830045Y-98990261D01*
X48829984Y-98994598D01*
X48829364Y-99172580D01*
X48827377Y-99181327D01*
X48827227Y-99192043D01*
X48807379Y-99269348D01*
X48790874Y-99341993D01*
X48786148Y-99352036D01*
X48782593Y-99365883D01*
X48747510Y-99434147D01*
X48716868Y-99499265D01*
X48708378Y-99510290D01*
X48700553Y-99525515D01*
X48653123Y-99582040D01*
X48610813Y-99636980D01*
X48598002Y-99647730D01*
X48585186Y-99663003D01*
X48528734Y-99705853D01*
X48477661Y-99748708D01*
X48460355Y-99757755D01*
X48442226Y-99771516D01*
X48380299Y-99799607D01*
X48323624Y-99829236D01*
X48302077Y-99835090D01*
X48278778Y-99845659D01*
X48214960Y-99858759D01*
X48155883Y-99874810D01*
X48130790Y-99876037D01*
X48102965Y-99881749D01*
X48040685Y-99880444D01*
X47982279Y-99883301D01*
X47954745Y-99878644D01*
X47923525Y-99877990D01*
X47865835Y-99863606D01*
X47810890Y-99854313D01*
X47782408Y-99842805D01*
X47749378Y-99834570D01*
X47698841Y-99809042D01*
X47649731Y-99789200D01*
X47622080Y-99770267D01*
X47589178Y-99753647D01*
X47547733Y-99719361D01*
X47506310Y-99690998D01*
X47481459Y-99664535D01*
X47450887Y-99639243D01*
X47419791Y-99598864D01*
X47387324Y-99564290D01*
X47367309Y-99530715D01*
X47341379Y-99497044D01*
X47321187Y-99453344D01*
X47298323Y-99414990D01*
X47285106Y-99375258D01*
X47266096Y-99334117D01*
X47256673Y-99289786D01*
X47243457Y-99250057D01*
X47238790Y-99205653D01*
X47228780Y-99158560D01*
X47229373Y-99116059D01*
X47225288Y-99077188D01*
X47230574Y-99030060D01*
X47231286Y-98979099D01*
X47240617Y-98940529D01*
X47244663Y-98904459D01*
X47260839Y-98856943D01*
X47273489Y-98804653D01*
X47289881Y-98771632D01*
X47300679Y-98739912D01*
X47328114Y-98694611D01*
X47353292Y-98643891D01*
X47374811Y-98617506D01*
X47390722Y-98591234D01*
X47429147Y-98550883D01*
X47466728Y-98504805D01*
X47491334Y-98485580D01*
X47510589Y-98465361D01*
X47559069Y-98432660D01*
X47608159Y-98394307D01*
X47633856Y-98382215D01*
X47654690Y-98368162D01*
X47711617Y-98345623D01*
X47770556Y-98317889D01*
X47795545Y-98312395D01*
X47816301Y-98304177D01*
X47879412Y-98293955D01*
X47945848Y-98279348D01*
X47968617Y-98279507D01*
X47987886Y-98276386D01*
X48054421Y-98280106D01*
G37*
G36*
X41209995Y-98280000D02*
G01*
X41210000Y-98280000D01*
X41210000Y-98280001D01*
X41210995Y-98285005D01*
X41210995Y-99874995D01*
X41210000Y-99880000D01*
X41204995Y-99880995D01*
X39615005Y-99880995D01*
X39610001Y-99880000D01*
X39610000Y-99880000D01*
X39610000Y-99879995D01*
X39609005Y-99874995D01*
X39609005Y-98285005D01*
X39610000Y-98280006D01*
X39610000Y-98280000D01*
X39610006Y-98280000D01*
X39615005Y-98279005D01*
X41204995Y-98279005D01*
X41209995Y-98280000D01*
G37*
G36*
X68939304Y-98277511D02*
G01*
X68987198Y-98294943D01*
X69010636Y-98298823D01*
X69056077Y-98320013D01*
X69107959Y-98338896D01*
X69137763Y-98358104D01*
X69166869Y-98371676D01*
X69210043Y-98404685D01*
X69258823Y-98436122D01*
X69281654Y-98459436D01*
X69304947Y-98477245D01*
X69341802Y-98520856D01*
X69384398Y-98564354D01*
X69400022Y-98589750D01*
X69417141Y-98610008D01*
X69445054Y-98662950D01*
X69478442Y-98717221D01*
X69487141Y-98742773D01*
X69498208Y-98763764D01*
X69514829Y-98824108D01*
X69536282Y-98887125D01*
X69538809Y-98911166D01*
X69544366Y-98931342D01*
X69547784Y-98996566D01*
X69555042Y-99065620D01*
X69552514Y-99086817D01*
X69553463Y-99104918D01*
X69542356Y-99172011D01*
X69533791Y-99243837D01*
X69527575Y-99261294D01*
X69525073Y-99276406D01*
X69498833Y-99342012D01*
X69473585Y-99412916D01*
X69465169Y-99426177D01*
X69460524Y-99437791D01*
X69419347Y-99498381D01*
X69377415Y-99564455D01*
X69368274Y-99573532D01*
X69362822Y-99581555D01*
X69307783Y-99633602D01*
X69250062Y-99690922D01*
X69241534Y-99696251D01*
X69236533Y-99700980D01*
X69169710Y-99741131D01*
X69097856Y-99786031D01*
X69091028Y-99788409D01*
X69087541Y-99790504D01*
X69012274Y-99815834D01*
X68928360Y-99845056D01*
X68923983Y-99845547D01*
X68922800Y-99845945D01*
X68847648Y-99854109D01*
X68795129Y-99860000D01*
X67907549Y-99860000D01*
X67760696Y-99842489D01*
X67712802Y-99825057D01*
X67689364Y-99821177D01*
X67643923Y-99799987D01*
X67592041Y-99781104D01*
X67562237Y-99761896D01*
X67533131Y-99748324D01*
X67489957Y-99715315D01*
X67441177Y-99683878D01*
X67418346Y-99660564D01*
X67395053Y-99642755D01*
X67358198Y-99599144D01*
X67315602Y-99555646D01*
X67299978Y-99530250D01*
X67282859Y-99509992D01*
X67254946Y-99457050D01*
X67221558Y-99402779D01*
X67212859Y-99377227D01*
X67201792Y-99356236D01*
X67185171Y-99295892D01*
X67163718Y-99232875D01*
X67161191Y-99208834D01*
X67155634Y-99188658D01*
X67152216Y-99123434D01*
X67144958Y-99054380D01*
X67147486Y-99033183D01*
X67146537Y-99015082D01*
X67157644Y-98947989D01*
X67166209Y-98876163D01*
X67172425Y-98858706D01*
X67174927Y-98843594D01*
X67201167Y-98777988D01*
X67226415Y-98707084D01*
X67234831Y-98693823D01*
X67239476Y-98682209D01*
X67280653Y-98621619D01*
X67322585Y-98555545D01*
X67331726Y-98546468D01*
X67337178Y-98538445D01*
X67392217Y-98486398D01*
X67449938Y-98429078D01*
X67458466Y-98423749D01*
X67463467Y-98419020D01*
X67530290Y-98378869D01*
X67602144Y-98333969D01*
X67608972Y-98331591D01*
X67612459Y-98329496D01*
X67687726Y-98304166D01*
X67771640Y-98274944D01*
X67776017Y-98274453D01*
X67777200Y-98274055D01*
X67852352Y-98265891D01*
X67904871Y-98260000D01*
X68792451Y-98260000D01*
X68939304Y-98277511D01*
G37*
G36*
X61319304Y-98277511D02*
G01*
X61367198Y-98294943D01*
X61390636Y-98298823D01*
X61436077Y-98320013D01*
X61487959Y-98338896D01*
X61517763Y-98358104D01*
X61546869Y-98371676D01*
X61590043Y-98404685D01*
X61638823Y-98436122D01*
X61661654Y-98459436D01*
X61684947Y-98477245D01*
X61721802Y-98520856D01*
X61764398Y-98564354D01*
X61780022Y-98589750D01*
X61797141Y-98610008D01*
X61825054Y-98662950D01*
X61858442Y-98717221D01*
X61867141Y-98742773D01*
X61878208Y-98763764D01*
X61894829Y-98824108D01*
X61916282Y-98887125D01*
X61918809Y-98911166D01*
X61924366Y-98931342D01*
X61927784Y-98996566D01*
X61935042Y-99065620D01*
X61932514Y-99086817D01*
X61933463Y-99104918D01*
X61922356Y-99172011D01*
X61913791Y-99243837D01*
X61907575Y-99261294D01*
X61905073Y-99276406D01*
X61878833Y-99342012D01*
X61853585Y-99412916D01*
X61845169Y-99426177D01*
X61840524Y-99437791D01*
X61799347Y-99498381D01*
X61757415Y-99564455D01*
X61748274Y-99573532D01*
X61742822Y-99581555D01*
X61687783Y-99633602D01*
X61630062Y-99690922D01*
X61621534Y-99696251D01*
X61616533Y-99700980D01*
X61549710Y-99741131D01*
X61477856Y-99786031D01*
X61471028Y-99788409D01*
X61467541Y-99790504D01*
X61392274Y-99815834D01*
X61308360Y-99845056D01*
X61303983Y-99845547D01*
X61302800Y-99845945D01*
X61227648Y-99854109D01*
X61175129Y-99860000D01*
X60287549Y-99860000D01*
X60140696Y-99842489D01*
X60092802Y-99825057D01*
X60069364Y-99821177D01*
X60023923Y-99799987D01*
X59972041Y-99781104D01*
X59942237Y-99761896D01*
X59913131Y-99748324D01*
X59869957Y-99715315D01*
X59821177Y-99683878D01*
X59798346Y-99660564D01*
X59775053Y-99642755D01*
X59738198Y-99599144D01*
X59695602Y-99555646D01*
X59679978Y-99530250D01*
X59662859Y-99509992D01*
X59634946Y-99457050D01*
X59601558Y-99402779D01*
X59592859Y-99377227D01*
X59581792Y-99356236D01*
X59565171Y-99295892D01*
X59543718Y-99232875D01*
X59541191Y-99208834D01*
X59535634Y-99188658D01*
X59532216Y-99123434D01*
X59524958Y-99054380D01*
X59527486Y-99033183D01*
X59526537Y-99015082D01*
X59537644Y-98947989D01*
X59546209Y-98876163D01*
X59552425Y-98858706D01*
X59554927Y-98843594D01*
X59581167Y-98777988D01*
X59606415Y-98707084D01*
X59614831Y-98693823D01*
X59619476Y-98682209D01*
X59660653Y-98621619D01*
X59702585Y-98555545D01*
X59711726Y-98546468D01*
X59717178Y-98538445D01*
X59772217Y-98486398D01*
X59829938Y-98429078D01*
X59838466Y-98423749D01*
X59843467Y-98419020D01*
X59910290Y-98378869D01*
X59982144Y-98333969D01*
X59988972Y-98331591D01*
X59992459Y-98329496D01*
X60067726Y-98304166D01*
X60151640Y-98274944D01*
X60156017Y-98274453D01*
X60157200Y-98274055D01*
X60232352Y-98265891D01*
X60284871Y-98260000D01*
X61172451Y-98260000D01*
X61319304Y-98277511D01*
G37*
G36*
X78807945Y-95692460D02*
G01*
X78879646Y-95696469D01*
X78899908Y-95702126D01*
X78917698Y-95703996D01*
X78985442Y-95726007D01*
X79057524Y-95746133D01*
X79073461Y-95754607D01*
X79087631Y-95759211D01*
X79151836Y-95796280D01*
X79220588Y-95832836D01*
X79232051Y-95842592D01*
X79242369Y-95848549D01*
X79299624Y-95900101D01*
X79361230Y-95952532D01*
X79368516Y-95962131D01*
X79375152Y-95968106D01*
X79422106Y-96032733D01*
X79472888Y-96099636D01*
X79476687Y-96107859D01*
X79480175Y-96112659D01*
X79513760Y-96188090D01*
X79550353Y-96267286D01*
X79551653Y-96273200D01*
X79552850Y-96275888D01*
X79570457Y-96358724D01*
X79590011Y-96447659D01*
X79589999Y-96451099D01*
X79589999Y-96629338D01*
X79589367Y-96632312D01*
X79589346Y-96638273D01*
X79570008Y-96723391D01*
X79552850Y-96804112D01*
X79550437Y-96809532D01*
X79548430Y-96818365D01*
X79512660Y-96894380D01*
X79480175Y-96967341D01*
X79474928Y-96974563D01*
X79469796Y-96985469D01*
X79420442Y-97049557D01*
X79375152Y-97111894D01*
X79366296Y-97119868D01*
X79357114Y-97131791D01*
X79297477Y-97181833D01*
X79242369Y-97231451D01*
X79229463Y-97238902D01*
X79215639Y-97250502D01*
X79149322Y-97285172D01*
X79087631Y-97320789D01*
X79070619Y-97326316D01*
X79051974Y-97336064D01*
X78982668Y-97354894D01*
X78917698Y-97376004D01*
X78896937Y-97378186D01*
X78873753Y-97384485D01*
X78805026Y-97387846D01*
X78740000Y-97394681D01*
X78716274Y-97392187D01*
X78689292Y-97393507D01*
X78624392Y-97382530D01*
X78562302Y-97376004D01*
X78536782Y-97367712D01*
X78507197Y-97362708D01*
X78448934Y-97339168D01*
X78392369Y-97320789D01*
X78366553Y-97305884D01*
X78335963Y-97293525D01*
X78286580Y-97259712D01*
X78237631Y-97231451D01*
X78213264Y-97209511D01*
X78183580Y-97189186D01*
X78144661Y-97147741D01*
X78104848Y-97111894D01*
X78083823Y-97082956D01*
X78057157Y-97054559D01*
X78029571Y-97008284D01*
X77999825Y-96967341D01*
X77984069Y-96931953D01*
X77962592Y-96895925D01*
X77946529Y-96847638D01*
X77927150Y-96804112D01*
X77918477Y-96763310D01*
X77904298Y-96720685D01*
X77899290Y-96673041D01*
X77890001Y-96629338D01*
X77890001Y-96584662D01*
X77884993Y-96537015D01*
X77890001Y-96492367D01*
X77890001Y-96450662D01*
X77899906Y-96404063D01*
X77905579Y-96353485D01*
X77919096Y-96313779D01*
X77927150Y-96275888D01*
X77947734Y-96229656D01*
X77965096Y-96178656D01*
X77985278Y-96145331D01*
X77999825Y-96112659D01*
X78031311Y-96069321D01*
X78060766Y-96020686D01*
X78085573Y-95994637D01*
X78104848Y-95968106D01*
X78146859Y-95930279D01*
X78188126Y-95886945D01*
X78215476Y-95868498D01*
X78237631Y-95848549D01*
X78289144Y-95818808D01*
X78341234Y-95783673D01*
X78369130Y-95772628D01*
X78392369Y-95759211D01*
X78451744Y-95739919D01*
X78512946Y-95715687D01*
X78539615Y-95711368D01*
X78562302Y-95703996D01*
X78627325Y-95697162D01*
X78695252Y-95686160D01*
X78719239Y-95687501D01*
X78740000Y-95685319D01*
X78807945Y-95692460D01*
G37*
G36*
X68939304Y-95737511D02*
G01*
X68987198Y-95754943D01*
X69010636Y-95758823D01*
X69056077Y-95780013D01*
X69107959Y-95798896D01*
X69137763Y-95818104D01*
X69166869Y-95831676D01*
X69210043Y-95864685D01*
X69258823Y-95896122D01*
X69281654Y-95919436D01*
X69304947Y-95937245D01*
X69341802Y-95980856D01*
X69384398Y-96024354D01*
X69400022Y-96049750D01*
X69417141Y-96070008D01*
X69445054Y-96122950D01*
X69478442Y-96177221D01*
X69487141Y-96202773D01*
X69498208Y-96223764D01*
X69514829Y-96284108D01*
X69536282Y-96347125D01*
X69538809Y-96371166D01*
X69544366Y-96391342D01*
X69547784Y-96456566D01*
X69555042Y-96525620D01*
X69552514Y-96546817D01*
X69553463Y-96564918D01*
X69542356Y-96632011D01*
X69533791Y-96703837D01*
X69527575Y-96721294D01*
X69525073Y-96736406D01*
X69498833Y-96802012D01*
X69473585Y-96872916D01*
X69465169Y-96886177D01*
X69460524Y-96897791D01*
X69419347Y-96958381D01*
X69377415Y-97024455D01*
X69368274Y-97033532D01*
X69362822Y-97041555D01*
X69307783Y-97093602D01*
X69250062Y-97150922D01*
X69241534Y-97156251D01*
X69236533Y-97160980D01*
X69169710Y-97201131D01*
X69097856Y-97246031D01*
X69091028Y-97248409D01*
X69087541Y-97250504D01*
X69012274Y-97275834D01*
X68928360Y-97305056D01*
X68923983Y-97305547D01*
X68922800Y-97305945D01*
X68847648Y-97314109D01*
X68795129Y-97320000D01*
X67907549Y-97320000D01*
X67760696Y-97302489D01*
X67712802Y-97285057D01*
X67689364Y-97281177D01*
X67643923Y-97259987D01*
X67592041Y-97241104D01*
X67562237Y-97221896D01*
X67533131Y-97208324D01*
X67489957Y-97175315D01*
X67441177Y-97143878D01*
X67418346Y-97120564D01*
X67395053Y-97102755D01*
X67358198Y-97059144D01*
X67315602Y-97015646D01*
X67299978Y-96990250D01*
X67282859Y-96969992D01*
X67254946Y-96917050D01*
X67221558Y-96862779D01*
X67212859Y-96837227D01*
X67201792Y-96816236D01*
X67185171Y-96755892D01*
X67163718Y-96692875D01*
X67161191Y-96668834D01*
X67155634Y-96648658D01*
X67152216Y-96583434D01*
X67144958Y-96514380D01*
X67147486Y-96493183D01*
X67146537Y-96475082D01*
X67157644Y-96407989D01*
X67166209Y-96336163D01*
X67172425Y-96318706D01*
X67174927Y-96303594D01*
X67201167Y-96237988D01*
X67226415Y-96167084D01*
X67234831Y-96153823D01*
X67239476Y-96142209D01*
X67280653Y-96081619D01*
X67322585Y-96015545D01*
X67331726Y-96006468D01*
X67337178Y-95998445D01*
X67392217Y-95946398D01*
X67449938Y-95889078D01*
X67458466Y-95883749D01*
X67463467Y-95879020D01*
X67530290Y-95838869D01*
X67602144Y-95793969D01*
X67608972Y-95791591D01*
X67612459Y-95789496D01*
X67687726Y-95764166D01*
X67771640Y-95734944D01*
X67776017Y-95734453D01*
X67777200Y-95734055D01*
X67852352Y-95725891D01*
X67904871Y-95720000D01*
X68792451Y-95720000D01*
X68939304Y-95737511D01*
G37*
G36*
X61319304Y-95737511D02*
G01*
X61367198Y-95754943D01*
X61390636Y-95758823D01*
X61436077Y-95780013D01*
X61487959Y-95798896D01*
X61517763Y-95818104D01*
X61546869Y-95831676D01*
X61590043Y-95864685D01*
X61638823Y-95896122D01*
X61661654Y-95919436D01*
X61684947Y-95937245D01*
X61721802Y-95980856D01*
X61764398Y-96024354D01*
X61780022Y-96049750D01*
X61797141Y-96070008D01*
X61825054Y-96122950D01*
X61858442Y-96177221D01*
X61867141Y-96202773D01*
X61878208Y-96223764D01*
X61894829Y-96284108D01*
X61916282Y-96347125D01*
X61918809Y-96371166D01*
X61924366Y-96391342D01*
X61927784Y-96456566D01*
X61935042Y-96525620D01*
X61932514Y-96546817D01*
X61933463Y-96564918D01*
X61922356Y-96632011D01*
X61913791Y-96703837D01*
X61907575Y-96721294D01*
X61905073Y-96736406D01*
X61878833Y-96802012D01*
X61853585Y-96872916D01*
X61845169Y-96886177D01*
X61840524Y-96897791D01*
X61799347Y-96958381D01*
X61757415Y-97024455D01*
X61748274Y-97033532D01*
X61742822Y-97041555D01*
X61687783Y-97093602D01*
X61630062Y-97150922D01*
X61621534Y-97156251D01*
X61616533Y-97160980D01*
X61549710Y-97201131D01*
X61477856Y-97246031D01*
X61471028Y-97248409D01*
X61467541Y-97250504D01*
X61392274Y-97275834D01*
X61308360Y-97305056D01*
X61303983Y-97305547D01*
X61302800Y-97305945D01*
X61227648Y-97314109D01*
X61175129Y-97320000D01*
X60287549Y-97320000D01*
X60140696Y-97302489D01*
X60092802Y-97285057D01*
X60069364Y-97281177D01*
X60023923Y-97259987D01*
X59972041Y-97241104D01*
X59942237Y-97221896D01*
X59913131Y-97208324D01*
X59869957Y-97175315D01*
X59821177Y-97143878D01*
X59798346Y-97120564D01*
X59775053Y-97102755D01*
X59738198Y-97059144D01*
X59695602Y-97015646D01*
X59679978Y-96990250D01*
X59662859Y-96969992D01*
X59634946Y-96917050D01*
X59601558Y-96862779D01*
X59592859Y-96837227D01*
X59581792Y-96816236D01*
X59565171Y-96755892D01*
X59543718Y-96692875D01*
X59541191Y-96668834D01*
X59535634Y-96648658D01*
X59532216Y-96583434D01*
X59524958Y-96514380D01*
X59527486Y-96493183D01*
X59526537Y-96475082D01*
X59537644Y-96407989D01*
X59546209Y-96336163D01*
X59552425Y-96318706D01*
X59554927Y-96303594D01*
X59581167Y-96237988D01*
X59606415Y-96167084D01*
X59614831Y-96153823D01*
X59619476Y-96142209D01*
X59660653Y-96081619D01*
X59702585Y-96015545D01*
X59711726Y-96006468D01*
X59717178Y-95998445D01*
X59772217Y-95946398D01*
X59829938Y-95889078D01*
X59838466Y-95883749D01*
X59843467Y-95879020D01*
X59910290Y-95838869D01*
X59982144Y-95793969D01*
X59988972Y-95791591D01*
X59992459Y-95789496D01*
X60067726Y-95764166D01*
X60151640Y-95734944D01*
X60156017Y-95734453D01*
X60157200Y-95734055D01*
X60232352Y-95725891D01*
X60284871Y-95720000D01*
X61172451Y-95720000D01*
X61319304Y-95737511D01*
G37*
G36*
X40435132Y-93732684D02*
G01*
X40457345Y-93731598D01*
X40526176Y-93742253D01*
X40598151Y-93749818D01*
X40619179Y-93756650D01*
X40638032Y-93759569D01*
X40706305Y-93784960D01*
X40778079Y-93808281D01*
X40794491Y-93817757D01*
X40809405Y-93823303D01*
X40873884Y-93863594D01*
X40941920Y-93902874D01*
X40953653Y-93913438D01*
X40964461Y-93920192D01*
X41021861Y-93974854D01*
X41082514Y-94029466D01*
X41089934Y-94039679D01*
X41096869Y-94046283D01*
X41143974Y-94114059D01*
X41193716Y-94182522D01*
X41197563Y-94191163D01*
X41201217Y-94196420D01*
X41235072Y-94275409D01*
X41270665Y-94355353D01*
X41271973Y-94361505D01*
X41273246Y-94364476D01*
X41291316Y-94452507D01*
X41310000Y-94540406D01*
X41310000Y-94729594D01*
X41309331Y-94732741D01*
X41309331Y-94732789D01*
X41271335Y-94911548D01*
X41271313Y-94911598D01*
X41270665Y-94914647D01*
X41234148Y-94996665D01*
X41198137Y-95079092D01*
X41196274Y-95081734D01*
X41193716Y-95087478D01*
X41142291Y-95158258D01*
X41092742Y-95228498D01*
X41088074Y-95232882D01*
X41082514Y-95240534D01*
X41019616Y-95297168D01*
X40959458Y-95353660D01*
X40951305Y-95358676D01*
X40941920Y-95367126D01*
X40871211Y-95407949D01*
X40803725Y-95449467D01*
X40791752Y-95453825D01*
X40778079Y-95461719D01*
X40703362Y-95485997D01*
X40631918Y-95512000D01*
X40616180Y-95514324D01*
X40598151Y-95520182D01*
X40523073Y-95528073D01*
X40451038Y-95538710D01*
X40431994Y-95537645D01*
X40410000Y-95539957D01*
X40338016Y-95532391D01*
X40268483Y-95528504D01*
X40246984Y-95522824D01*
X40221849Y-95520182D01*
X40155980Y-95498780D01*
X40091707Y-95481798D01*
X40068950Y-95470501D01*
X40041921Y-95461719D01*
X39984663Y-95428661D01*
X39927938Y-95400503D01*
X39905424Y-95382913D01*
X39878080Y-95367126D01*
X39831264Y-95324973D01*
X39783861Y-95287937D01*
X39763298Y-95263776D01*
X39737486Y-95240534D01*
X39702285Y-95192085D01*
X39665355Y-95148691D01*
X39648553Y-95118128D01*
X39626284Y-95087478D01*
X39603207Y-95035646D01*
X39577273Y-94988473D01*
X39566022Y-94952127D01*
X39549335Y-94914647D01*
X39538190Y-94862215D01*
X39523207Y-94813812D01*
X39519187Y-94772815D01*
X39510000Y-94729594D01*
X39510000Y-94679121D01*
X39505364Y-94631841D01*
X39510000Y-94587732D01*
X39510000Y-94540406D01*
X39519839Y-94494116D01*
X39524476Y-94450002D01*
X39538844Y-94404710D01*
X39549335Y-94355353D01*
X39567303Y-94314996D01*
X39579760Y-94275727D01*
X39604478Y-94231498D01*
X39626284Y-94182522D01*
X39650404Y-94149324D01*
X39668962Y-94116118D01*
X39704136Y-94075369D01*
X39737486Y-94029466D01*
X39765636Y-94004120D01*
X39788431Y-93977711D01*
X39833584Y-93942939D01*
X39878080Y-93902874D01*
X39908160Y-93885507D01*
X39933295Y-93866151D01*
X39987358Y-93839783D01*
X40041921Y-93808281D01*
X40071954Y-93798523D01*
X40097631Y-93785999D01*
X40158952Y-93770255D01*
X40221849Y-93749818D01*
X40250124Y-93746846D01*
X40274725Y-93740530D01*
X40341117Y-93737283D01*
X40410000Y-93730043D01*
X40435132Y-93732684D01*
G37*
G36*
X78807945Y-93152460D02*
G01*
X78879646Y-93156469D01*
X78899908Y-93162126D01*
X78917698Y-93163996D01*
X78985442Y-93186007D01*
X79057524Y-93206133D01*
X79073461Y-93214607D01*
X79087631Y-93219211D01*
X79151836Y-93256280D01*
X79220588Y-93292836D01*
X79232051Y-93302592D01*
X79242369Y-93308549D01*
X79299624Y-93360101D01*
X79361230Y-93412532D01*
X79368516Y-93422131D01*
X79375152Y-93428106D01*
X79422106Y-93492733D01*
X79472888Y-93559636D01*
X79476687Y-93567859D01*
X79480175Y-93572659D01*
X79513760Y-93648090D01*
X79550353Y-93727286D01*
X79551653Y-93733200D01*
X79552850Y-93735888D01*
X79570457Y-93818724D01*
X79590011Y-93907659D01*
X79589999Y-93911099D01*
X79589999Y-94089338D01*
X79589367Y-94092312D01*
X79589346Y-94098273D01*
X79570008Y-94183391D01*
X79552850Y-94264112D01*
X79550437Y-94269532D01*
X79548430Y-94278365D01*
X79512660Y-94354380D01*
X79480175Y-94427341D01*
X79474928Y-94434563D01*
X79469796Y-94445469D01*
X79420442Y-94509557D01*
X79375152Y-94571894D01*
X79366296Y-94579868D01*
X79357114Y-94591791D01*
X79297477Y-94641833D01*
X79242369Y-94691451D01*
X79229463Y-94698902D01*
X79215639Y-94710502D01*
X79149322Y-94745172D01*
X79087631Y-94780789D01*
X79070619Y-94786316D01*
X79051974Y-94796064D01*
X78982668Y-94814894D01*
X78917698Y-94836004D01*
X78896937Y-94838186D01*
X78873753Y-94844485D01*
X78805026Y-94847846D01*
X78740000Y-94854681D01*
X78716274Y-94852187D01*
X78689292Y-94853507D01*
X78624392Y-94842530D01*
X78562302Y-94836004D01*
X78536782Y-94827712D01*
X78507197Y-94822708D01*
X78448934Y-94799168D01*
X78392369Y-94780789D01*
X78366553Y-94765884D01*
X78335963Y-94753525D01*
X78286580Y-94719712D01*
X78237631Y-94691451D01*
X78213264Y-94669511D01*
X78183580Y-94649186D01*
X78144661Y-94607741D01*
X78104848Y-94571894D01*
X78083823Y-94542956D01*
X78057157Y-94514559D01*
X78029571Y-94468284D01*
X77999825Y-94427341D01*
X77984069Y-94391953D01*
X77962592Y-94355925D01*
X77946529Y-94307638D01*
X77927150Y-94264112D01*
X77918477Y-94223310D01*
X77904298Y-94180685D01*
X77899290Y-94133041D01*
X77890001Y-94089338D01*
X77890001Y-94044662D01*
X77884993Y-93997015D01*
X77890001Y-93952367D01*
X77890001Y-93910662D01*
X77899906Y-93864063D01*
X77905579Y-93813485D01*
X77919096Y-93773779D01*
X77927150Y-93735888D01*
X77947734Y-93689656D01*
X77965096Y-93638656D01*
X77985278Y-93605331D01*
X77999825Y-93572659D01*
X78031311Y-93529321D01*
X78060766Y-93480686D01*
X78085573Y-93454637D01*
X78104848Y-93428106D01*
X78146859Y-93390279D01*
X78188126Y-93346945D01*
X78215476Y-93328498D01*
X78237631Y-93308549D01*
X78289144Y-93278808D01*
X78341234Y-93243673D01*
X78369130Y-93232628D01*
X78392369Y-93219211D01*
X78451744Y-93199919D01*
X78512946Y-93175687D01*
X78539615Y-93171368D01*
X78562302Y-93163996D01*
X78627325Y-93157162D01*
X78695252Y-93146160D01*
X78719239Y-93147501D01*
X78740000Y-93145319D01*
X78807945Y-93152460D01*
G37*
G36*
X61319304Y-93197511D02*
G01*
X61367198Y-93214943D01*
X61390636Y-93218823D01*
X61436077Y-93240013D01*
X61487959Y-93258896D01*
X61517763Y-93278104D01*
X61546869Y-93291676D01*
X61590043Y-93324685D01*
X61638823Y-93356122D01*
X61661654Y-93379436D01*
X61684947Y-93397245D01*
X61721802Y-93440856D01*
X61764398Y-93484354D01*
X61780022Y-93509750D01*
X61797141Y-93530008D01*
X61825054Y-93582950D01*
X61858442Y-93637221D01*
X61867141Y-93662773D01*
X61878208Y-93683764D01*
X61894829Y-93744108D01*
X61916282Y-93807125D01*
X61918809Y-93831166D01*
X61924366Y-93851342D01*
X61927784Y-93916566D01*
X61935042Y-93985620D01*
X61932514Y-94006817D01*
X61933463Y-94024918D01*
X61922356Y-94092011D01*
X61913791Y-94163837D01*
X61907575Y-94181294D01*
X61905073Y-94196406D01*
X61878833Y-94262012D01*
X61853585Y-94332916D01*
X61845169Y-94346177D01*
X61840524Y-94357791D01*
X61799347Y-94418381D01*
X61757415Y-94484455D01*
X61748274Y-94493532D01*
X61742822Y-94501555D01*
X61687783Y-94553602D01*
X61630062Y-94610922D01*
X61621534Y-94616251D01*
X61616533Y-94620980D01*
X61549710Y-94661131D01*
X61477856Y-94706031D01*
X61471028Y-94708409D01*
X61467541Y-94710504D01*
X61392274Y-94735834D01*
X61308360Y-94765056D01*
X61303983Y-94765547D01*
X61302800Y-94765945D01*
X61227648Y-94774109D01*
X61175129Y-94780000D01*
X60287549Y-94780000D01*
X60140696Y-94762489D01*
X60092802Y-94745057D01*
X60069364Y-94741177D01*
X60023923Y-94719987D01*
X59972041Y-94701104D01*
X59942237Y-94681896D01*
X59913131Y-94668324D01*
X59869957Y-94635315D01*
X59821177Y-94603878D01*
X59798346Y-94580564D01*
X59775053Y-94562755D01*
X59738198Y-94519144D01*
X59695602Y-94475646D01*
X59679978Y-94450250D01*
X59662859Y-94429992D01*
X59634946Y-94377050D01*
X59601558Y-94322779D01*
X59592859Y-94297227D01*
X59581792Y-94276236D01*
X59565171Y-94215892D01*
X59543718Y-94152875D01*
X59541191Y-94128834D01*
X59535634Y-94108658D01*
X59532216Y-94043434D01*
X59524958Y-93974380D01*
X59527486Y-93953183D01*
X59526537Y-93935082D01*
X59537644Y-93867989D01*
X59546209Y-93796163D01*
X59552425Y-93778706D01*
X59554927Y-93763594D01*
X59581167Y-93697988D01*
X59606415Y-93627084D01*
X59614831Y-93613823D01*
X59619476Y-93602209D01*
X59660653Y-93541619D01*
X59702585Y-93475545D01*
X59711726Y-93466468D01*
X59717178Y-93458445D01*
X59772217Y-93406398D01*
X59829938Y-93349078D01*
X59838466Y-93343749D01*
X59843467Y-93339020D01*
X59910290Y-93298869D01*
X59982144Y-93253969D01*
X59988972Y-93251591D01*
X59992459Y-93249496D01*
X60067726Y-93224166D01*
X60151640Y-93194944D01*
X60156017Y-93194453D01*
X60157200Y-93194055D01*
X60232352Y-93185891D01*
X60284871Y-93180000D01*
X61172451Y-93180000D01*
X61319304Y-93197511D01*
G37*
G36*
X68939304Y-93197511D02*
G01*
X68987198Y-93214943D01*
X69010636Y-93218823D01*
X69056077Y-93240013D01*
X69107959Y-93258896D01*
X69137763Y-93278104D01*
X69166869Y-93291676D01*
X69210043Y-93324685D01*
X69258823Y-93356122D01*
X69281654Y-93379436D01*
X69304947Y-93397245D01*
X69341802Y-93440856D01*
X69384398Y-93484354D01*
X69400022Y-93509750D01*
X69417141Y-93530008D01*
X69445054Y-93582950D01*
X69478442Y-93637221D01*
X69487141Y-93662773D01*
X69498208Y-93683764D01*
X69514829Y-93744108D01*
X69536282Y-93807125D01*
X69538809Y-93831166D01*
X69544366Y-93851342D01*
X69547784Y-93916566D01*
X69555042Y-93985620D01*
X69552514Y-94006817D01*
X69553463Y-94024918D01*
X69542356Y-94092011D01*
X69533791Y-94163837D01*
X69527575Y-94181294D01*
X69525073Y-94196406D01*
X69498833Y-94262012D01*
X69473585Y-94332916D01*
X69465169Y-94346177D01*
X69460524Y-94357791D01*
X69419347Y-94418381D01*
X69377415Y-94484455D01*
X69368274Y-94493532D01*
X69362822Y-94501555D01*
X69307783Y-94553602D01*
X69250062Y-94610922D01*
X69241534Y-94616251D01*
X69236533Y-94620980D01*
X69169710Y-94661131D01*
X69097856Y-94706031D01*
X69091028Y-94708409D01*
X69087541Y-94710504D01*
X69012274Y-94735834D01*
X68928360Y-94765056D01*
X68923983Y-94765547D01*
X68922800Y-94765945D01*
X68847648Y-94774109D01*
X68795129Y-94780000D01*
X67907549Y-94780000D01*
X67760696Y-94762489D01*
X67712802Y-94745057D01*
X67689364Y-94741177D01*
X67643923Y-94719987D01*
X67592041Y-94701104D01*
X67562237Y-94681896D01*
X67533131Y-94668324D01*
X67489957Y-94635315D01*
X67441177Y-94603878D01*
X67418346Y-94580564D01*
X67395053Y-94562755D01*
X67358198Y-94519144D01*
X67315602Y-94475646D01*
X67299978Y-94450250D01*
X67282859Y-94429992D01*
X67254946Y-94377050D01*
X67221558Y-94322779D01*
X67212859Y-94297227D01*
X67201792Y-94276236D01*
X67185171Y-94215892D01*
X67163718Y-94152875D01*
X67161191Y-94128834D01*
X67155634Y-94108658D01*
X67152216Y-94043434D01*
X67144958Y-93974380D01*
X67147486Y-93953183D01*
X67146537Y-93935082D01*
X67157644Y-93867989D01*
X67166209Y-93796163D01*
X67172425Y-93778706D01*
X67174927Y-93763594D01*
X67201167Y-93697988D01*
X67226415Y-93627084D01*
X67234831Y-93613823D01*
X67239476Y-93602209D01*
X67280653Y-93541619D01*
X67322585Y-93475545D01*
X67331726Y-93466468D01*
X67337178Y-93458445D01*
X67392217Y-93406398D01*
X67449938Y-93349078D01*
X67458466Y-93343749D01*
X67463467Y-93339020D01*
X67530290Y-93298869D01*
X67602144Y-93253969D01*
X67608972Y-93251591D01*
X67612459Y-93249496D01*
X67687726Y-93224166D01*
X67771640Y-93194944D01*
X67776017Y-93194453D01*
X67777200Y-93194055D01*
X67852352Y-93185891D01*
X67904871Y-93180000D01*
X68792451Y-93180000D01*
X68939304Y-93197511D01*
G37*
G36*
X41309995Y-91195000D02*
G01*
X41310000Y-91195000D01*
X41310000Y-91195001D01*
X41310995Y-91200005D01*
X41310995Y-92989995D01*
X41310000Y-92995000D01*
X41304995Y-92995995D01*
X39515005Y-92995995D01*
X39510001Y-92995000D01*
X39510000Y-92995000D01*
X39510000Y-92994995D01*
X39509005Y-92989995D01*
X39509005Y-91200005D01*
X39510000Y-91195006D01*
X39510000Y-91195000D01*
X39510006Y-91195000D01*
X39515005Y-91194005D01*
X41304995Y-91194005D01*
X41309995Y-91195000D01*
G37*
G36*
X79589995Y-90610000D02*
G01*
X79590000Y-90610000D01*
X79590000Y-90610001D01*
X79590995Y-90615005D01*
X79590995Y-92304995D01*
X79590000Y-92310000D01*
X79584995Y-92310995D01*
X77895005Y-92310995D01*
X77890001Y-92310000D01*
X77890000Y-92310000D01*
X77890000Y-92309995D01*
X77889005Y-92304995D01*
X77889005Y-90615005D01*
X77890000Y-90610006D01*
X77890000Y-90610000D01*
X77890006Y-90610000D01*
X77895005Y-90609005D01*
X79584995Y-90609005D01*
X79589995Y-90610000D01*
G37*
G36*
X68939304Y-90657511D02*
G01*
X68987198Y-90674943D01*
X69010636Y-90678823D01*
X69056077Y-90700013D01*
X69107959Y-90718896D01*
X69137763Y-90738104D01*
X69166869Y-90751676D01*
X69210043Y-90784685D01*
X69258823Y-90816122D01*
X69281654Y-90839436D01*
X69304947Y-90857245D01*
X69341802Y-90900856D01*
X69384398Y-90944354D01*
X69400022Y-90969750D01*
X69417141Y-90990008D01*
X69445054Y-91042950D01*
X69478442Y-91097221D01*
X69487141Y-91122773D01*
X69498208Y-91143764D01*
X69514829Y-91204108D01*
X69536282Y-91267125D01*
X69538809Y-91291166D01*
X69544366Y-91311342D01*
X69547784Y-91376566D01*
X69555042Y-91445620D01*
X69552514Y-91466817D01*
X69553463Y-91484918D01*
X69542356Y-91552011D01*
X69533791Y-91623837D01*
X69527575Y-91641294D01*
X69525073Y-91656406D01*
X69498833Y-91722012D01*
X69473585Y-91792916D01*
X69465169Y-91806177D01*
X69460524Y-91817791D01*
X69419347Y-91878381D01*
X69377415Y-91944455D01*
X69368274Y-91953532D01*
X69362822Y-91961555D01*
X69307783Y-92013602D01*
X69250062Y-92070922D01*
X69241534Y-92076251D01*
X69236533Y-92080980D01*
X69169710Y-92121131D01*
X69097856Y-92166031D01*
X69091028Y-92168409D01*
X69087541Y-92170504D01*
X69012274Y-92195834D01*
X68928360Y-92225056D01*
X68923983Y-92225547D01*
X68922800Y-92225945D01*
X68847648Y-92234109D01*
X68795129Y-92240000D01*
X67907549Y-92240000D01*
X67760696Y-92222489D01*
X67712802Y-92205057D01*
X67689364Y-92201177D01*
X67643923Y-92179987D01*
X67592041Y-92161104D01*
X67562237Y-92141896D01*
X67533131Y-92128324D01*
X67489957Y-92095315D01*
X67441177Y-92063878D01*
X67418346Y-92040564D01*
X67395053Y-92022755D01*
X67358198Y-91979144D01*
X67315602Y-91935646D01*
X67299978Y-91910250D01*
X67282859Y-91889992D01*
X67254946Y-91837050D01*
X67221558Y-91782779D01*
X67212859Y-91757227D01*
X67201792Y-91736236D01*
X67185171Y-91675892D01*
X67163718Y-91612875D01*
X67161191Y-91588834D01*
X67155634Y-91568658D01*
X67152216Y-91503434D01*
X67144958Y-91434380D01*
X67147486Y-91413183D01*
X67146537Y-91395082D01*
X67157644Y-91327989D01*
X67166209Y-91256163D01*
X67172425Y-91238706D01*
X67174927Y-91223594D01*
X67201167Y-91157988D01*
X67226415Y-91087084D01*
X67234831Y-91073823D01*
X67239476Y-91062209D01*
X67280653Y-91001619D01*
X67322585Y-90935545D01*
X67331726Y-90926468D01*
X67337178Y-90918445D01*
X67392217Y-90866398D01*
X67449938Y-90809078D01*
X67458466Y-90803749D01*
X67463467Y-90799020D01*
X67530290Y-90758869D01*
X67602144Y-90713969D01*
X67608972Y-90711591D01*
X67612459Y-90709496D01*
X67687726Y-90684166D01*
X67771640Y-90654944D01*
X67776017Y-90654453D01*
X67777200Y-90654055D01*
X67852352Y-90645891D01*
X67904871Y-90640000D01*
X68792451Y-90640000D01*
X68939304Y-90657511D01*
G37*
G36*
X61319304Y-90657511D02*
G01*
X61367198Y-90674943D01*
X61390636Y-90678823D01*
X61436077Y-90700013D01*
X61487959Y-90718896D01*
X61517763Y-90738104D01*
X61546869Y-90751676D01*
X61590043Y-90784685D01*
X61638823Y-90816122D01*
X61661654Y-90839436D01*
X61684947Y-90857245D01*
X61721802Y-90900856D01*
X61764398Y-90944354D01*
X61780022Y-90969750D01*
X61797141Y-90990008D01*
X61825054Y-91042950D01*
X61858442Y-91097221D01*
X61867141Y-91122773D01*
X61878208Y-91143764D01*
X61894829Y-91204108D01*
X61916282Y-91267125D01*
X61918809Y-91291166D01*
X61924366Y-91311342D01*
X61927784Y-91376566D01*
X61935042Y-91445620D01*
X61932514Y-91466817D01*
X61933463Y-91484918D01*
X61922356Y-91552011D01*
X61913791Y-91623837D01*
X61907575Y-91641294D01*
X61905073Y-91656406D01*
X61878833Y-91722012D01*
X61853585Y-91792916D01*
X61845169Y-91806177D01*
X61840524Y-91817791D01*
X61799347Y-91878381D01*
X61757415Y-91944455D01*
X61748274Y-91953532D01*
X61742822Y-91961555D01*
X61687783Y-92013602D01*
X61630062Y-92070922D01*
X61621534Y-92076251D01*
X61616533Y-92080980D01*
X61549710Y-92121131D01*
X61477856Y-92166031D01*
X61471028Y-92168409D01*
X61467541Y-92170504D01*
X61392274Y-92195834D01*
X61308360Y-92225056D01*
X61303983Y-92225547D01*
X61302800Y-92225945D01*
X61227648Y-92234109D01*
X61175129Y-92240000D01*
X60287549Y-92240000D01*
X60140696Y-92222489D01*
X60092802Y-92205057D01*
X60069364Y-92201177D01*
X60023923Y-92179987D01*
X59972041Y-92161104D01*
X59942237Y-92141896D01*
X59913131Y-92128324D01*
X59869957Y-92095315D01*
X59821177Y-92063878D01*
X59798346Y-92040564D01*
X59775053Y-92022755D01*
X59738198Y-91979144D01*
X59695602Y-91935646D01*
X59679978Y-91910250D01*
X59662859Y-91889992D01*
X59634946Y-91837050D01*
X59601558Y-91782779D01*
X59592859Y-91757227D01*
X59581792Y-91736236D01*
X59565171Y-91675892D01*
X59543718Y-91612875D01*
X59541191Y-91588834D01*
X59535634Y-91568658D01*
X59532216Y-91503434D01*
X59524958Y-91434380D01*
X59527486Y-91413183D01*
X59526537Y-91395082D01*
X59537644Y-91327989D01*
X59546209Y-91256163D01*
X59552425Y-91238706D01*
X59554927Y-91223594D01*
X59581167Y-91157988D01*
X59606415Y-91087084D01*
X59614831Y-91073823D01*
X59619476Y-91062209D01*
X59660653Y-91001619D01*
X59702585Y-90935545D01*
X59711726Y-90926468D01*
X59717178Y-90918445D01*
X59772217Y-90866398D01*
X59829938Y-90809078D01*
X59838466Y-90803749D01*
X59843467Y-90799020D01*
X59910290Y-90758869D01*
X59982144Y-90713969D01*
X59988972Y-90711591D01*
X59992459Y-90709496D01*
X60067726Y-90684166D01*
X60151640Y-90654944D01*
X60156017Y-90654453D01*
X60157200Y-90654055D01*
X60232352Y-90645891D01*
X60284871Y-90640000D01*
X61172451Y-90640000D01*
X61319304Y-90657511D01*
G37*
G36*
X40435132Y-88652684D02*
G01*
X40457345Y-88651598D01*
X40526176Y-88662253D01*
X40598151Y-88669818D01*
X40619179Y-88676650D01*
X40638032Y-88679569D01*
X40706305Y-88704960D01*
X40778079Y-88728281D01*
X40794491Y-88737757D01*
X40809405Y-88743303D01*
X40873884Y-88783594D01*
X40941920Y-88822874D01*
X40953653Y-88833438D01*
X40964461Y-88840192D01*
X41021861Y-88894854D01*
X41082514Y-88949466D01*
X41089934Y-88959679D01*
X41096869Y-88966283D01*
X41143974Y-89034059D01*
X41193716Y-89102522D01*
X41197563Y-89111163D01*
X41201217Y-89116420D01*
X41235072Y-89195409D01*
X41270665Y-89275353D01*
X41271973Y-89281505D01*
X41273246Y-89284476D01*
X41291316Y-89372507D01*
X41310000Y-89460406D01*
X41310000Y-89649594D01*
X41309331Y-89652741D01*
X41309331Y-89652789D01*
X41271335Y-89831548D01*
X41271313Y-89831598D01*
X41270665Y-89834647D01*
X41234148Y-89916665D01*
X41198137Y-89999092D01*
X41196274Y-90001734D01*
X41193716Y-90007478D01*
X41142291Y-90078258D01*
X41092742Y-90148498D01*
X41088074Y-90152882D01*
X41082514Y-90160534D01*
X41019616Y-90217168D01*
X40959458Y-90273660D01*
X40951305Y-90278676D01*
X40941920Y-90287126D01*
X40871211Y-90327949D01*
X40803725Y-90369467D01*
X40791752Y-90373825D01*
X40778079Y-90381719D01*
X40703362Y-90405997D01*
X40631918Y-90432000D01*
X40616180Y-90434324D01*
X40598151Y-90440182D01*
X40523073Y-90448073D01*
X40451038Y-90458710D01*
X40431994Y-90457645D01*
X40410000Y-90459957D01*
X40338016Y-90452391D01*
X40268483Y-90448504D01*
X40246984Y-90442824D01*
X40221849Y-90440182D01*
X40155980Y-90418780D01*
X40091707Y-90401798D01*
X40068950Y-90390501D01*
X40041921Y-90381719D01*
X39984663Y-90348661D01*
X39927938Y-90320503D01*
X39905424Y-90302913D01*
X39878080Y-90287126D01*
X39831264Y-90244973D01*
X39783861Y-90207937D01*
X39763298Y-90183776D01*
X39737486Y-90160534D01*
X39702285Y-90112085D01*
X39665355Y-90068691D01*
X39648553Y-90038128D01*
X39626284Y-90007478D01*
X39603207Y-89955646D01*
X39577273Y-89908473D01*
X39566022Y-89872127D01*
X39549335Y-89834647D01*
X39538190Y-89782215D01*
X39523207Y-89733812D01*
X39519187Y-89692815D01*
X39510000Y-89649594D01*
X39510000Y-89599121D01*
X39505364Y-89551841D01*
X39510000Y-89507732D01*
X39510000Y-89460406D01*
X39519839Y-89414116D01*
X39524476Y-89370002D01*
X39538844Y-89324710D01*
X39549335Y-89275353D01*
X39567303Y-89234996D01*
X39579760Y-89195727D01*
X39604478Y-89151498D01*
X39626284Y-89102522D01*
X39650404Y-89069324D01*
X39668962Y-89036118D01*
X39704136Y-88995369D01*
X39737486Y-88949466D01*
X39765636Y-88924120D01*
X39788431Y-88897711D01*
X39833584Y-88862939D01*
X39878080Y-88822874D01*
X39908160Y-88805507D01*
X39933295Y-88786151D01*
X39987358Y-88759783D01*
X40041921Y-88728281D01*
X40071954Y-88718523D01*
X40097631Y-88705999D01*
X40158952Y-88690255D01*
X40221849Y-88669818D01*
X40250124Y-88666846D01*
X40274725Y-88660530D01*
X40341117Y-88657283D01*
X40410000Y-88650043D01*
X40435132Y-88652684D01*
G37*
G36*
X68939304Y-88117511D02*
G01*
X68987198Y-88134943D01*
X69010636Y-88138823D01*
X69056077Y-88160013D01*
X69107959Y-88178896D01*
X69137763Y-88198104D01*
X69166869Y-88211676D01*
X69210043Y-88244685D01*
X69258823Y-88276122D01*
X69281654Y-88299436D01*
X69304947Y-88317245D01*
X69341802Y-88360856D01*
X69384398Y-88404354D01*
X69400022Y-88429750D01*
X69417141Y-88450008D01*
X69445054Y-88502950D01*
X69478442Y-88557221D01*
X69487141Y-88582773D01*
X69498208Y-88603764D01*
X69514829Y-88664108D01*
X69536282Y-88727125D01*
X69538809Y-88751166D01*
X69544366Y-88771342D01*
X69547784Y-88836566D01*
X69555042Y-88905620D01*
X69552514Y-88926817D01*
X69553463Y-88944918D01*
X69542356Y-89012011D01*
X69533791Y-89083837D01*
X69527575Y-89101294D01*
X69525073Y-89116406D01*
X69498833Y-89182012D01*
X69473585Y-89252916D01*
X69465169Y-89266177D01*
X69460524Y-89277791D01*
X69419347Y-89338381D01*
X69377415Y-89404455D01*
X69368274Y-89413532D01*
X69362822Y-89421555D01*
X69307783Y-89473602D01*
X69250062Y-89530922D01*
X69241534Y-89536251D01*
X69236533Y-89540980D01*
X69169710Y-89581131D01*
X69097856Y-89626031D01*
X69091028Y-89628409D01*
X69087541Y-89630504D01*
X69012274Y-89655834D01*
X68928360Y-89685056D01*
X68923983Y-89685547D01*
X68922800Y-89685945D01*
X68847648Y-89694109D01*
X68795129Y-89700000D01*
X67907549Y-89700000D01*
X67760696Y-89682489D01*
X67712802Y-89665057D01*
X67689364Y-89661177D01*
X67643923Y-89639987D01*
X67592041Y-89621104D01*
X67562237Y-89601896D01*
X67533131Y-89588324D01*
X67489957Y-89555315D01*
X67441177Y-89523878D01*
X67418346Y-89500564D01*
X67395053Y-89482755D01*
X67358198Y-89439144D01*
X67315602Y-89395646D01*
X67299978Y-89370250D01*
X67282859Y-89349992D01*
X67254946Y-89297050D01*
X67221558Y-89242779D01*
X67212859Y-89217227D01*
X67201792Y-89196236D01*
X67185171Y-89135892D01*
X67163718Y-89072875D01*
X67161191Y-89048834D01*
X67155634Y-89028658D01*
X67152216Y-88963434D01*
X67144958Y-88894380D01*
X67147486Y-88873183D01*
X67146537Y-88855082D01*
X67157644Y-88787989D01*
X67166209Y-88716163D01*
X67172425Y-88698706D01*
X67174927Y-88683594D01*
X67201167Y-88617988D01*
X67226415Y-88547084D01*
X67234831Y-88533823D01*
X67239476Y-88522209D01*
X67280653Y-88461619D01*
X67322585Y-88395545D01*
X67331726Y-88386468D01*
X67337178Y-88378445D01*
X67392217Y-88326398D01*
X67449938Y-88269078D01*
X67458466Y-88263749D01*
X67463467Y-88259020D01*
X67530290Y-88218869D01*
X67602144Y-88173969D01*
X67608972Y-88171591D01*
X67612459Y-88169496D01*
X67687726Y-88144166D01*
X67771640Y-88114944D01*
X67776017Y-88114453D01*
X67777200Y-88114055D01*
X67852352Y-88105891D01*
X67904871Y-88100000D01*
X68792451Y-88100000D01*
X68939304Y-88117511D01*
G37*
G36*
X61319304Y-88117511D02*
G01*
X61367198Y-88134943D01*
X61390636Y-88138823D01*
X61436077Y-88160013D01*
X61487959Y-88178896D01*
X61517763Y-88198104D01*
X61546869Y-88211676D01*
X61590043Y-88244685D01*
X61638823Y-88276122D01*
X61661654Y-88299436D01*
X61684947Y-88317245D01*
X61721802Y-88360856D01*
X61764398Y-88404354D01*
X61780022Y-88429750D01*
X61797141Y-88450008D01*
X61825054Y-88502950D01*
X61858442Y-88557221D01*
X61867141Y-88582773D01*
X61878208Y-88603764D01*
X61894829Y-88664108D01*
X61916282Y-88727125D01*
X61918809Y-88751166D01*
X61924366Y-88771342D01*
X61927784Y-88836566D01*
X61935042Y-88905620D01*
X61932514Y-88926817D01*
X61933463Y-88944918D01*
X61922356Y-89012011D01*
X61913791Y-89083837D01*
X61907575Y-89101294D01*
X61905073Y-89116406D01*
X61878833Y-89182012D01*
X61853585Y-89252916D01*
X61845169Y-89266177D01*
X61840524Y-89277791D01*
X61799347Y-89338381D01*
X61757415Y-89404455D01*
X61748274Y-89413532D01*
X61742822Y-89421555D01*
X61687783Y-89473602D01*
X61630062Y-89530922D01*
X61621534Y-89536251D01*
X61616533Y-89540980D01*
X61549710Y-89581131D01*
X61477856Y-89626031D01*
X61471028Y-89628409D01*
X61467541Y-89630504D01*
X61392274Y-89655834D01*
X61308360Y-89685056D01*
X61303983Y-89685547D01*
X61302800Y-89685945D01*
X61227648Y-89694109D01*
X61175129Y-89700000D01*
X60287549Y-89700000D01*
X60140696Y-89682489D01*
X60092802Y-89665057D01*
X60069364Y-89661177D01*
X60023923Y-89639987D01*
X59972041Y-89621104D01*
X59942237Y-89601896D01*
X59913131Y-89588324D01*
X59869957Y-89555315D01*
X59821177Y-89523878D01*
X59798346Y-89500564D01*
X59775053Y-89482755D01*
X59738198Y-89439144D01*
X59695602Y-89395646D01*
X59679978Y-89370250D01*
X59662859Y-89349992D01*
X59634946Y-89297050D01*
X59601558Y-89242779D01*
X59592859Y-89217227D01*
X59581792Y-89196236D01*
X59565171Y-89135892D01*
X59543718Y-89072875D01*
X59541191Y-89048834D01*
X59535634Y-89028658D01*
X59532216Y-88963434D01*
X59524958Y-88894380D01*
X59527486Y-88873183D01*
X59526537Y-88855082D01*
X59537644Y-88787989D01*
X59546209Y-88716163D01*
X59552425Y-88698706D01*
X59554927Y-88683594D01*
X59581167Y-88617988D01*
X59606415Y-88547084D01*
X59614831Y-88533823D01*
X59619476Y-88522209D01*
X59660653Y-88461619D01*
X59702585Y-88395545D01*
X59711726Y-88386468D01*
X59717178Y-88378445D01*
X59772217Y-88326398D01*
X59829938Y-88269078D01*
X59838466Y-88263749D01*
X59843467Y-88259020D01*
X59910290Y-88218869D01*
X59982144Y-88173969D01*
X59988972Y-88171591D01*
X59992459Y-88169496D01*
X60067726Y-88144166D01*
X60151640Y-88114944D01*
X60156017Y-88114453D01*
X60157200Y-88114055D01*
X60232352Y-88105891D01*
X60284871Y-88100000D01*
X61172451Y-88100000D01*
X61319304Y-88117511D01*
G37*
G36*
X41309995Y-86115000D02*
G01*
X41310000Y-86115000D01*
X41310000Y-86115001D01*
X41310995Y-86120005D01*
X41310995Y-87909995D01*
X41310000Y-87915000D01*
X41304995Y-87915995D01*
X39515005Y-87915995D01*
X39510001Y-87915000D01*
X39510000Y-87915000D01*
X39510000Y-87914995D01*
X39509005Y-87909995D01*
X39509005Y-86120005D01*
X39510000Y-86115006D01*
X39510000Y-86115000D01*
X39510006Y-86115000D01*
X39515005Y-86114005D01*
X41304995Y-86114005D01*
X41309995Y-86115000D01*
G37*
G36*
X61929995Y-85560000D02*
G01*
X61930000Y-85560000D01*
X61930000Y-85560001D01*
X61930995Y-85565005D01*
X61930995Y-87154995D01*
X61930000Y-87159995D01*
X61930000Y-87160000D01*
X61929999Y-87160000D01*
X61924995Y-87160995D01*
X59535005Y-87160995D01*
X59530001Y-87160000D01*
X59530000Y-87160000D01*
X59530000Y-87159995D01*
X59529005Y-87154995D01*
X59529005Y-85565005D01*
X59530000Y-85560006D01*
X59530000Y-85560000D01*
X59530006Y-85560000D01*
X59535005Y-85559005D01*
X61924995Y-85559005D01*
X61929995Y-85560000D01*
G37*
G36*
X68939304Y-85577511D02*
G01*
X68987198Y-85594943D01*
X69010636Y-85598823D01*
X69056077Y-85620013D01*
X69107959Y-85638896D01*
X69137763Y-85658104D01*
X69166869Y-85671676D01*
X69210043Y-85704685D01*
X69258823Y-85736122D01*
X69281654Y-85759436D01*
X69304947Y-85777245D01*
X69341802Y-85820856D01*
X69384398Y-85864354D01*
X69400022Y-85889750D01*
X69417141Y-85910008D01*
X69445054Y-85962950D01*
X69478442Y-86017221D01*
X69487141Y-86042773D01*
X69498208Y-86063764D01*
X69514829Y-86124108D01*
X69536282Y-86187125D01*
X69538809Y-86211166D01*
X69544366Y-86231342D01*
X69547784Y-86296566D01*
X69555042Y-86365620D01*
X69552514Y-86386817D01*
X69553463Y-86404918D01*
X69542356Y-86472011D01*
X69533791Y-86543837D01*
X69527575Y-86561294D01*
X69525073Y-86576406D01*
X69498833Y-86642012D01*
X69473585Y-86712916D01*
X69465169Y-86726177D01*
X69460524Y-86737791D01*
X69419347Y-86798381D01*
X69377415Y-86864455D01*
X69368274Y-86873532D01*
X69362822Y-86881555D01*
X69307783Y-86933602D01*
X69250062Y-86990922D01*
X69241534Y-86996251D01*
X69236533Y-87000980D01*
X69169710Y-87041131D01*
X69097856Y-87086031D01*
X69091028Y-87088409D01*
X69087541Y-87090504D01*
X69012274Y-87115834D01*
X68928360Y-87145056D01*
X68923983Y-87145547D01*
X68922800Y-87145945D01*
X68847648Y-87154109D01*
X68795129Y-87160000D01*
X67907549Y-87160000D01*
X67760696Y-87142489D01*
X67712802Y-87125057D01*
X67689364Y-87121177D01*
X67643923Y-87099987D01*
X67592041Y-87081104D01*
X67562237Y-87061896D01*
X67533131Y-87048324D01*
X67489957Y-87015315D01*
X67441177Y-86983878D01*
X67418346Y-86960564D01*
X67395053Y-86942755D01*
X67358198Y-86899144D01*
X67315602Y-86855646D01*
X67299978Y-86830250D01*
X67282859Y-86809992D01*
X67254946Y-86757050D01*
X67221558Y-86702779D01*
X67212859Y-86677227D01*
X67201792Y-86656236D01*
X67185171Y-86595892D01*
X67163718Y-86532875D01*
X67161191Y-86508834D01*
X67155634Y-86488658D01*
X67152216Y-86423434D01*
X67144958Y-86354380D01*
X67147486Y-86333183D01*
X67146537Y-86315082D01*
X67157644Y-86247989D01*
X67166209Y-86176163D01*
X67172425Y-86158706D01*
X67174927Y-86143594D01*
X67201167Y-86077988D01*
X67226415Y-86007084D01*
X67234831Y-85993823D01*
X67239476Y-85982209D01*
X67280653Y-85921619D01*
X67322585Y-85855545D01*
X67331726Y-85846468D01*
X67337178Y-85838445D01*
X67392217Y-85786398D01*
X67449938Y-85729078D01*
X67458466Y-85723749D01*
X67463467Y-85719020D01*
X67530290Y-85678869D01*
X67602144Y-85633969D01*
X67608972Y-85631591D01*
X67612459Y-85629496D01*
X67687726Y-85604166D01*
X67771640Y-85574944D01*
X67776017Y-85574453D01*
X67777200Y-85574055D01*
X67852352Y-85565891D01*
X67904871Y-85560000D01*
X68792451Y-85560000D01*
X68939304Y-85577511D01*
G37*
G36*
X40435132Y-83572684D02*
G01*
X40457345Y-83571598D01*
X40526176Y-83582253D01*
X40598151Y-83589818D01*
X40619179Y-83596650D01*
X40638032Y-83599569D01*
X40706305Y-83624960D01*
X40778079Y-83648281D01*
X40794491Y-83657757D01*
X40809405Y-83663303D01*
X40873884Y-83703594D01*
X40941920Y-83742874D01*
X40953653Y-83753438D01*
X40964461Y-83760192D01*
X41021861Y-83814854D01*
X41082514Y-83869466D01*
X41089934Y-83879679D01*
X41096869Y-83886283D01*
X41143974Y-83954059D01*
X41193716Y-84022522D01*
X41197563Y-84031163D01*
X41201217Y-84036420D01*
X41235072Y-84115409D01*
X41270665Y-84195353D01*
X41271973Y-84201505D01*
X41273246Y-84204476D01*
X41291316Y-84292507D01*
X41310000Y-84380406D01*
X41310000Y-84569594D01*
X41309331Y-84572741D01*
X41309331Y-84572789D01*
X41271335Y-84751548D01*
X41271313Y-84751598D01*
X41270665Y-84754647D01*
X41234148Y-84836665D01*
X41198137Y-84919092D01*
X41196274Y-84921734D01*
X41193716Y-84927478D01*
X41142291Y-84998258D01*
X41092742Y-85068498D01*
X41088074Y-85072882D01*
X41082514Y-85080534D01*
X41019616Y-85137168D01*
X40959458Y-85193660D01*
X40951305Y-85198676D01*
X40941920Y-85207126D01*
X40871211Y-85247949D01*
X40803725Y-85289467D01*
X40791752Y-85293825D01*
X40778079Y-85301719D01*
X40703362Y-85325997D01*
X40631918Y-85352000D01*
X40616180Y-85354324D01*
X40598151Y-85360182D01*
X40523073Y-85368073D01*
X40451038Y-85378710D01*
X40431994Y-85377645D01*
X40410000Y-85379957D01*
X40338016Y-85372391D01*
X40268483Y-85368504D01*
X40246984Y-85362824D01*
X40221849Y-85360182D01*
X40155980Y-85338780D01*
X40091707Y-85321798D01*
X40068950Y-85310501D01*
X40041921Y-85301719D01*
X39984663Y-85268661D01*
X39927938Y-85240503D01*
X39905424Y-85222913D01*
X39878080Y-85207126D01*
X39831264Y-85164973D01*
X39783861Y-85127937D01*
X39763298Y-85103776D01*
X39737486Y-85080534D01*
X39702285Y-85032085D01*
X39665355Y-84988691D01*
X39648553Y-84958128D01*
X39626284Y-84927478D01*
X39603207Y-84875646D01*
X39577273Y-84828473D01*
X39566022Y-84792127D01*
X39549335Y-84754647D01*
X39538190Y-84702215D01*
X39523207Y-84653812D01*
X39519187Y-84612815D01*
X39510000Y-84569594D01*
X39510000Y-84519121D01*
X39505364Y-84471841D01*
X39510000Y-84427732D01*
X39510000Y-84380406D01*
X39519839Y-84334116D01*
X39524476Y-84290002D01*
X39538844Y-84244710D01*
X39549335Y-84195353D01*
X39567303Y-84154996D01*
X39579760Y-84115727D01*
X39604478Y-84071498D01*
X39626284Y-84022522D01*
X39650404Y-83989324D01*
X39668962Y-83956118D01*
X39704136Y-83915369D01*
X39737486Y-83869466D01*
X39765636Y-83844120D01*
X39788431Y-83817711D01*
X39833584Y-83782939D01*
X39878080Y-83742874D01*
X39908160Y-83725507D01*
X39933295Y-83706151D01*
X39987358Y-83679783D01*
X40041921Y-83648281D01*
X40071954Y-83638523D01*
X40097631Y-83625999D01*
X40158952Y-83610255D01*
X40221849Y-83589818D01*
X40250124Y-83586846D01*
X40274725Y-83580530D01*
X40341117Y-83577283D01*
X40410000Y-83570043D01*
X40435132Y-83572684D01*
G37*
G36*
X41309995Y-81035000D02*
G01*
X41310000Y-81035000D01*
X41310000Y-81035001D01*
X41310995Y-81040005D01*
X41310995Y-82829995D01*
X41310000Y-82835000D01*
X41304995Y-82835995D01*
X39515005Y-82835995D01*
X39510001Y-82835000D01*
X39510000Y-82835000D01*
X39510000Y-82834995D01*
X39509005Y-82829995D01*
X39509005Y-81040005D01*
X39510000Y-81035006D01*
X39510000Y-81035000D01*
X39510006Y-81035000D01*
X39515005Y-81034005D01*
X41304995Y-81034005D01*
X41309995Y-81035000D01*
G37*
G36*
X40435132Y-78492684D02*
G01*
X40457345Y-78491598D01*
X40526176Y-78502253D01*
X40598151Y-78509818D01*
X40619179Y-78516650D01*
X40638032Y-78519569D01*
X40706305Y-78544960D01*
X40778079Y-78568281D01*
X40794491Y-78577757D01*
X40809405Y-78583303D01*
X40873884Y-78623594D01*
X40941920Y-78662874D01*
X40953653Y-78673438D01*
X40964461Y-78680192D01*
X41021861Y-78734854D01*
X41082514Y-78789466D01*
X41089934Y-78799679D01*
X41096869Y-78806283D01*
X41143974Y-78874059D01*
X41193716Y-78942522D01*
X41197563Y-78951163D01*
X41201217Y-78956420D01*
X41235072Y-79035409D01*
X41270665Y-79115353D01*
X41271973Y-79121505D01*
X41273246Y-79124476D01*
X41291316Y-79212507D01*
X41310000Y-79300406D01*
X41310000Y-79489594D01*
X41309331Y-79492741D01*
X41309331Y-79492789D01*
X41271335Y-79671548D01*
X41271313Y-79671598D01*
X41270665Y-79674647D01*
X41234148Y-79756665D01*
X41198137Y-79839092D01*
X41196274Y-79841734D01*
X41193716Y-79847478D01*
X41142291Y-79918258D01*
X41092742Y-79988498D01*
X41088074Y-79992882D01*
X41082514Y-80000534D01*
X41019616Y-80057168D01*
X40959458Y-80113660D01*
X40951305Y-80118676D01*
X40941920Y-80127126D01*
X40871211Y-80167949D01*
X40803725Y-80209467D01*
X40791752Y-80213825D01*
X40778079Y-80221719D01*
X40703362Y-80245997D01*
X40631918Y-80272000D01*
X40616180Y-80274324D01*
X40598151Y-80280182D01*
X40523073Y-80288073D01*
X40451038Y-80298710D01*
X40431994Y-80297645D01*
X40410000Y-80299957D01*
X40338016Y-80292391D01*
X40268483Y-80288504D01*
X40246984Y-80282824D01*
X40221849Y-80280182D01*
X40155980Y-80258780D01*
X40091707Y-80241798D01*
X40068950Y-80230501D01*
X40041921Y-80221719D01*
X39984663Y-80188661D01*
X39927938Y-80160503D01*
X39905424Y-80142913D01*
X39878080Y-80127126D01*
X39831264Y-80084973D01*
X39783861Y-80047937D01*
X39763298Y-80023776D01*
X39737486Y-80000534D01*
X39702285Y-79952085D01*
X39665355Y-79908691D01*
X39648553Y-79878128D01*
X39626284Y-79847478D01*
X39603207Y-79795646D01*
X39577273Y-79748473D01*
X39566022Y-79712127D01*
X39549335Y-79674647D01*
X39538190Y-79622215D01*
X39523207Y-79573812D01*
X39519187Y-79532815D01*
X39510000Y-79489594D01*
X39510000Y-79439121D01*
X39505364Y-79391841D01*
X39510000Y-79347732D01*
X39510000Y-79300406D01*
X39519839Y-79254116D01*
X39524476Y-79210002D01*
X39538844Y-79164710D01*
X39549335Y-79115353D01*
X39567303Y-79074996D01*
X39579760Y-79035727D01*
X39604478Y-78991498D01*
X39626284Y-78942522D01*
X39650404Y-78909324D01*
X39668962Y-78876118D01*
X39704136Y-78835369D01*
X39737486Y-78789466D01*
X39765636Y-78764120D01*
X39788431Y-78737711D01*
X39833584Y-78702939D01*
X39878080Y-78662874D01*
X39908160Y-78645507D01*
X39933295Y-78626151D01*
X39987358Y-78599783D01*
X40041921Y-78568281D01*
X40071954Y-78558523D01*
X40097631Y-78545999D01*
X40158952Y-78530255D01*
X40221849Y-78509818D01*
X40250124Y-78506846D01*
X40274725Y-78500530D01*
X40341117Y-78497283D01*
X40410000Y-78490043D01*
X40435132Y-78492684D01*
G37*
G36*
X41309995Y-75955000D02*
G01*
X41310000Y-75955000D01*
X41310000Y-75955001D01*
X41310995Y-75960005D01*
X41310995Y-77749995D01*
X41310000Y-77755000D01*
X41304995Y-77755995D01*
X39515005Y-77755995D01*
X39510001Y-77755000D01*
X39510000Y-77755000D01*
X39510000Y-77754995D01*
X39509005Y-77749995D01*
X39509005Y-75960005D01*
X39510000Y-75955006D01*
X39510000Y-75955000D01*
X39510006Y-75955000D01*
X39515005Y-75954005D01*
X41304995Y-75954005D01*
X41309995Y-75955000D01*
G37*
G36*
X40435132Y-73412684D02*
G01*
X40457345Y-73411598D01*
X40526176Y-73422253D01*
X40598151Y-73429818D01*
X40619179Y-73436650D01*
X40638032Y-73439569D01*
X40706305Y-73464960D01*
X40778079Y-73488281D01*
X40794491Y-73497757D01*
X40809405Y-73503303D01*
X40873884Y-73543594D01*
X40941920Y-73582874D01*
X40953653Y-73593438D01*
X40964461Y-73600192D01*
X41021861Y-73654854D01*
X41082514Y-73709466D01*
X41089934Y-73719679D01*
X41096869Y-73726283D01*
X41143974Y-73794059D01*
X41193716Y-73862522D01*
X41197563Y-73871163D01*
X41201217Y-73876420D01*
X41235072Y-73955409D01*
X41270665Y-74035353D01*
X41271973Y-74041505D01*
X41273246Y-74044476D01*
X41291316Y-74132507D01*
X41310000Y-74220406D01*
X41310000Y-74409594D01*
X41309331Y-74412741D01*
X41309331Y-74412789D01*
X41271335Y-74591548D01*
X41271313Y-74591598D01*
X41270665Y-74594647D01*
X41234148Y-74676665D01*
X41198137Y-74759092D01*
X41196274Y-74761734D01*
X41193716Y-74767478D01*
X41142291Y-74838258D01*
X41092742Y-74908498D01*
X41088074Y-74912882D01*
X41082514Y-74920534D01*
X41019616Y-74977168D01*
X40959458Y-75033660D01*
X40951305Y-75038676D01*
X40941920Y-75047126D01*
X40871211Y-75087949D01*
X40803725Y-75129467D01*
X40791752Y-75133825D01*
X40778079Y-75141719D01*
X40703362Y-75165997D01*
X40631918Y-75192000D01*
X40616180Y-75194324D01*
X40598151Y-75200182D01*
X40523073Y-75208073D01*
X40451038Y-75218710D01*
X40431994Y-75217645D01*
X40410000Y-75219957D01*
X40338016Y-75212391D01*
X40268483Y-75208504D01*
X40246984Y-75202824D01*
X40221849Y-75200182D01*
X40155980Y-75178780D01*
X40091707Y-75161798D01*
X40068950Y-75150501D01*
X40041921Y-75141719D01*
X39984663Y-75108661D01*
X39927938Y-75080503D01*
X39905424Y-75062913D01*
X39878080Y-75047126D01*
X39831264Y-75004973D01*
X39783861Y-74967937D01*
X39763298Y-74943776D01*
X39737486Y-74920534D01*
X39702285Y-74872085D01*
X39665355Y-74828691D01*
X39648553Y-74798128D01*
X39626284Y-74767478D01*
X39603207Y-74715646D01*
X39577273Y-74668473D01*
X39566022Y-74632127D01*
X39549335Y-74594647D01*
X39538190Y-74542215D01*
X39523207Y-74493812D01*
X39519187Y-74452815D01*
X39510000Y-74409594D01*
X39510000Y-74359121D01*
X39505364Y-74311841D01*
X39510000Y-74267732D01*
X39510000Y-74220406D01*
X39519839Y-74174116D01*
X39524476Y-74130002D01*
X39538844Y-74084710D01*
X39549335Y-74035353D01*
X39567303Y-73994996D01*
X39579760Y-73955727D01*
X39604478Y-73911498D01*
X39626284Y-73862522D01*
X39650404Y-73829324D01*
X39668962Y-73796118D01*
X39704136Y-73755369D01*
X39737486Y-73709466D01*
X39765636Y-73684120D01*
X39788431Y-73657711D01*
X39833584Y-73622939D01*
X39878080Y-73582874D01*
X39908160Y-73565507D01*
X39933295Y-73546151D01*
X39987358Y-73519783D01*
X40041921Y-73488281D01*
X40071954Y-73478523D01*
X40097631Y-73465999D01*
X40158952Y-73450255D01*
X40221849Y-73429818D01*
X40250124Y-73426846D01*
X40274725Y-73420530D01*
X40341117Y-73417283D01*
X40410000Y-73410043D01*
X40435132Y-73412684D01*
G37*
G36*
X100354421Y-71630106D02*
G01*
X100425323Y-71630601D01*
X100444743Y-71635156D01*
X100461431Y-71636089D01*
X100528187Y-71654728D01*
X100600059Y-71671585D01*
X100615450Y-71679092D01*
X100628846Y-71682832D01*
X100692365Y-71716606D01*
X100761374Y-71750264D01*
X100772519Y-71759225D01*
X100782316Y-71764434D01*
X100839038Y-71812708D01*
X100901248Y-71862726D01*
X100908374Y-71871716D01*
X100914689Y-71877091D01*
X100961185Y-71938348D01*
X101012731Y-72003382D01*
X101016466Y-72011178D01*
X101019778Y-72015541D01*
X101052849Y-72087113D01*
X101090282Y-72165242D01*
X101091572Y-72170918D01*
X101092685Y-72173328D01*
X101109661Y-72250538D01*
X101130045Y-72340261D01*
X101129984Y-72344598D01*
X101129364Y-72522580D01*
X101127377Y-72531327D01*
X101127227Y-72542043D01*
X101107379Y-72619348D01*
X101090874Y-72691993D01*
X101086148Y-72702036D01*
X101082593Y-72715883D01*
X101047510Y-72784147D01*
X101016868Y-72849265D01*
X101008378Y-72860290D01*
X101000553Y-72875515D01*
X100953123Y-72932040D01*
X100910813Y-72986980D01*
X100898002Y-72997730D01*
X100885186Y-73013003D01*
X100828734Y-73055853D01*
X100777661Y-73098708D01*
X100760355Y-73107755D01*
X100742226Y-73121516D01*
X100680299Y-73149607D01*
X100623624Y-73179236D01*
X100602077Y-73185090D01*
X100578778Y-73195659D01*
X100514960Y-73208759D01*
X100455883Y-73224810D01*
X100430790Y-73226037D01*
X100402965Y-73231749D01*
X100340685Y-73230444D01*
X100282279Y-73233301D01*
X100254745Y-73228644D01*
X100223525Y-73227990D01*
X100165835Y-73213606D01*
X100110890Y-73204313D01*
X100082408Y-73192805D01*
X100049378Y-73184570D01*
X99998841Y-73159042D01*
X99949731Y-73139200D01*
X99922080Y-73120267D01*
X99889178Y-73103647D01*
X99847733Y-73069361D01*
X99806310Y-73040998D01*
X99781459Y-73014535D01*
X99750887Y-72989243D01*
X99719791Y-72948864D01*
X99687324Y-72914290D01*
X99667309Y-72880715D01*
X99641379Y-72847044D01*
X99621187Y-72803344D01*
X99598323Y-72764990D01*
X99585106Y-72725258D01*
X99566096Y-72684117D01*
X99556673Y-72639786D01*
X99543457Y-72600057D01*
X99538790Y-72555653D01*
X99528780Y-72508560D01*
X99529373Y-72466059D01*
X99525288Y-72427188D01*
X99530574Y-72380060D01*
X99531286Y-72329099D01*
X99540617Y-72290529D01*
X99544663Y-72254459D01*
X99560839Y-72206943D01*
X99573489Y-72154653D01*
X99589881Y-72121632D01*
X99600679Y-72089912D01*
X99628114Y-72044611D01*
X99653292Y-71993891D01*
X99674811Y-71967506D01*
X99690722Y-71941234D01*
X99729147Y-71900883D01*
X99766728Y-71854805D01*
X99791334Y-71835580D01*
X99810589Y-71815361D01*
X99859069Y-71782660D01*
X99908159Y-71744307D01*
X99933856Y-71732215D01*
X99954690Y-71718162D01*
X100011617Y-71695623D01*
X100070556Y-71667889D01*
X100095545Y-71662395D01*
X100116301Y-71654177D01*
X100179412Y-71643955D01*
X100245848Y-71629348D01*
X100268617Y-71629507D01*
X100287886Y-71626386D01*
X100354421Y-71630106D01*
G37*
G36*
X41309995Y-70875000D02*
G01*
X41310000Y-70875000D01*
X41310000Y-70875001D01*
X41310995Y-70880005D01*
X41310995Y-72669995D01*
X41310000Y-72675000D01*
X41304995Y-72675995D01*
X39515005Y-72675995D01*
X39510001Y-72675000D01*
X39510000Y-72675000D01*
X39510000Y-72674995D01*
X39509005Y-72669995D01*
X39509005Y-70880005D01*
X39510000Y-70875006D01*
X39510000Y-70875000D01*
X39510006Y-70875000D01*
X39515005Y-70874005D01*
X41304995Y-70874005D01*
X41309995Y-70875000D01*
G37*
G36*
X40435132Y-68332684D02*
G01*
X40457345Y-68331598D01*
X40526176Y-68342253D01*
X40598151Y-68349818D01*
X40619179Y-68356650D01*
X40638032Y-68359569D01*
X40706305Y-68384960D01*
X40778079Y-68408281D01*
X40794491Y-68417757D01*
X40809405Y-68423303D01*
X40873884Y-68463594D01*
X40941920Y-68502874D01*
X40953653Y-68513438D01*
X40964461Y-68520192D01*
X41021861Y-68574854D01*
X41082514Y-68629466D01*
X41089934Y-68639679D01*
X41096869Y-68646283D01*
X41143974Y-68714059D01*
X41193716Y-68782522D01*
X41197563Y-68791163D01*
X41201217Y-68796420D01*
X41235072Y-68875409D01*
X41270665Y-68955353D01*
X41271973Y-68961505D01*
X41273246Y-68964476D01*
X41291316Y-69052507D01*
X41310000Y-69140406D01*
X41310000Y-69329594D01*
X41309331Y-69332741D01*
X41309331Y-69332789D01*
X41271335Y-69511548D01*
X41271313Y-69511598D01*
X41270665Y-69514647D01*
X41234148Y-69596665D01*
X41198137Y-69679092D01*
X41196274Y-69681734D01*
X41193716Y-69687478D01*
X41142291Y-69758258D01*
X41092742Y-69828498D01*
X41088074Y-69832882D01*
X41082514Y-69840534D01*
X41019616Y-69897168D01*
X40959458Y-69953660D01*
X40951305Y-69958676D01*
X40941920Y-69967126D01*
X40871211Y-70007949D01*
X40803725Y-70049467D01*
X40791752Y-70053825D01*
X40778079Y-70061719D01*
X40703362Y-70085997D01*
X40631918Y-70112000D01*
X40616180Y-70114324D01*
X40598151Y-70120182D01*
X40523073Y-70128073D01*
X40451038Y-70138710D01*
X40431994Y-70137645D01*
X40410000Y-70139957D01*
X40338016Y-70132391D01*
X40268483Y-70128504D01*
X40246984Y-70122824D01*
X40221849Y-70120182D01*
X40155980Y-70098780D01*
X40091707Y-70081798D01*
X40068950Y-70070501D01*
X40041921Y-70061719D01*
X39984663Y-70028661D01*
X39927938Y-70000503D01*
X39905424Y-69982913D01*
X39878080Y-69967126D01*
X39831264Y-69924973D01*
X39783861Y-69887937D01*
X39763298Y-69863776D01*
X39737486Y-69840534D01*
X39702285Y-69792085D01*
X39665355Y-69748691D01*
X39648553Y-69718128D01*
X39626284Y-69687478D01*
X39603207Y-69635646D01*
X39577273Y-69588473D01*
X39566022Y-69552127D01*
X39549335Y-69514647D01*
X39538190Y-69462215D01*
X39523207Y-69413812D01*
X39519187Y-69372815D01*
X39510000Y-69329594D01*
X39510000Y-69279121D01*
X39505364Y-69231841D01*
X39510000Y-69187732D01*
X39510000Y-69140406D01*
X39519839Y-69094116D01*
X39524476Y-69050002D01*
X39538844Y-69004710D01*
X39549335Y-68955353D01*
X39567303Y-68914996D01*
X39579760Y-68875727D01*
X39604478Y-68831498D01*
X39626284Y-68782522D01*
X39650404Y-68749324D01*
X39668962Y-68716118D01*
X39704136Y-68675369D01*
X39737486Y-68629466D01*
X39765636Y-68604120D01*
X39788431Y-68577711D01*
X39833584Y-68542939D01*
X39878080Y-68502874D01*
X39908160Y-68485507D01*
X39933295Y-68466151D01*
X39987358Y-68439783D01*
X40041921Y-68408281D01*
X40071954Y-68398523D01*
X40097631Y-68385999D01*
X40158952Y-68370255D01*
X40221849Y-68349818D01*
X40250124Y-68346846D01*
X40274725Y-68340530D01*
X40341117Y-68337283D01*
X40410000Y-68330043D01*
X40435132Y-68332684D01*
G37*
G36*
X41309995Y-65795000D02*
G01*
X41310000Y-65795000D01*
X41310000Y-65795001D01*
X41310995Y-65800005D01*
X41310995Y-67589995D01*
X41310000Y-67595000D01*
X41304995Y-67595995D01*
X39515005Y-67595995D01*
X39510001Y-67595000D01*
X39510000Y-67595000D01*
X39510000Y-67594995D01*
X39509005Y-67589995D01*
X39509005Y-65800005D01*
X39510000Y-65795006D01*
X39510000Y-65795000D01*
X39510006Y-65795000D01*
X39515005Y-65794005D01*
X41304995Y-65794005D01*
X41309995Y-65795000D01*
G37*
G36*
X41498151Y-60729818D02*
G01*
X41557000Y-60748940D01*
X41584773Y-60753239D01*
X41628594Y-60772202D01*
X41678079Y-60788281D01*
X41714975Y-60809583D01*
X41751339Y-60825319D01*
X41794139Y-60855288D01*
X41841920Y-60882874D01*
X41871242Y-60909276D01*
X41901112Y-60930191D01*
X41939187Y-60970454D01*
X41982514Y-61009466D01*
X42003851Y-61038834D01*
X42026736Y-61063034D01*
X42057599Y-61112812D01*
X42093716Y-61162522D01*
X42107204Y-61192816D01*
X42123088Y-61218435D01*
X42144403Y-61276366D01*
X42170665Y-61335353D01*
X42176903Y-61364700D01*
X42186220Y-61390023D01*
X42195923Y-61454180D01*
X42210000Y-61520406D01*
X42210000Y-61547259D01*
X42213562Y-61570811D01*
X42210000Y-61638776D01*
X42210000Y-61709594D01*
X42205074Y-61732769D01*
X42203993Y-61753394D01*
X42186039Y-61822320D01*
X42170665Y-61894647D01*
X42162312Y-61913409D01*
X42157903Y-61930334D01*
X42125052Y-61997097D01*
X42093716Y-62067479D01*
X42083503Y-62081536D01*
X42077179Y-62094388D01*
X42029601Y-62155724D01*
X41982514Y-62220534D01*
X41971955Y-62230042D01*
X41965116Y-62238858D01*
X41903716Y-62291484D01*
X41841920Y-62347126D01*
X41832355Y-62352648D01*
X41826292Y-62357845D01*
X41752673Y-62398652D01*
X41678079Y-62441719D01*
X41670586Y-62444154D01*
X41666373Y-62446489D01*
X41582636Y-62472731D01*
X41498151Y-62500182D01*
X41493469Y-62500674D01*
X41491906Y-62501164D01*
X41399505Y-62510550D01*
X41357164Y-62515000D01*
X39462836Y-62515000D01*
X39321849Y-62500182D01*
X39263000Y-62481060D01*
X39235227Y-62476761D01*
X39191406Y-62457798D01*
X39141921Y-62441719D01*
X39105025Y-62420417D01*
X39068661Y-62404681D01*
X39025861Y-62374712D01*
X38978080Y-62347126D01*
X38948758Y-62320724D01*
X38918888Y-62299809D01*
X38880813Y-62259546D01*
X38837486Y-62220534D01*
X38816149Y-62191166D01*
X38793264Y-62166966D01*
X38762401Y-62117188D01*
X38726284Y-62067478D01*
X38712796Y-62037184D01*
X38696912Y-62011565D01*
X38675597Y-61953634D01*
X38649335Y-61894647D01*
X38643097Y-61865300D01*
X38633780Y-61839977D01*
X38624077Y-61775820D01*
X38610000Y-61709594D01*
X38610000Y-61682741D01*
X38606438Y-61659189D01*
X38610000Y-61591224D01*
X38610000Y-61520406D01*
X38614926Y-61497231D01*
X38616007Y-61476606D01*
X38633961Y-61407680D01*
X38649335Y-61335353D01*
X38657688Y-61316591D01*
X38662097Y-61299666D01*
X38694948Y-61232903D01*
X38726284Y-61162521D01*
X38736497Y-61148464D01*
X38742821Y-61135612D01*
X38790399Y-61074276D01*
X38837486Y-61009466D01*
X38848045Y-60999958D01*
X38854884Y-60991142D01*
X38916284Y-60938516D01*
X38978080Y-60882874D01*
X38987645Y-60877352D01*
X38993708Y-60872155D01*
X39067327Y-60831348D01*
X39141921Y-60788281D01*
X39149414Y-60785846D01*
X39153627Y-60783511D01*
X39237364Y-60757269D01*
X39321849Y-60729818D01*
X39326531Y-60729326D01*
X39328094Y-60728836D01*
X39420495Y-60719450D01*
X39462836Y-60715000D01*
X41357164Y-60715000D01*
X41498151Y-60729818D01*
G37*
G36*
X122599611Y-59637922D02*
G01*
X122624357Y-59637144D01*
X122705947Y-59649192D01*
X122791143Y-59658222D01*
X122814895Y-59665280D01*
X122836265Y-59668436D01*
X122917407Y-59695743D01*
X123002550Y-59721045D01*
X123021806Y-59730878D01*
X123039291Y-59736762D01*
X123117062Y-59779517D01*
X123198969Y-59821341D01*
X123213610Y-59832596D01*
X123227000Y-59839957D01*
X123298392Y-59897769D01*
X123373822Y-59955753D01*
X123384053Y-59967135D01*
X123393471Y-59974762D01*
X123455541Y-60046671D01*
X123521252Y-60119778D01*
X123527587Y-60130136D01*
X123533441Y-60136918D01*
X123583382Y-60221364D01*
X123636322Y-60307924D01*
X123639533Y-60316311D01*
X123642483Y-60321299D01*
X123677769Y-60416180D01*
X123715178Y-60513889D01*
X123716232Y-60519603D01*
X123717150Y-60522072D01*
X123735615Y-60624695D01*
X123755180Y-60730775D01*
X123749661Y-60934750D01*
X123747679Y-61010420D01*
X123747604Y-61010738D01*
X123747517Y-61013969D01*
X123722485Y-61117836D01*
X123698918Y-61218315D01*
X123697454Y-61221697D01*
X123695845Y-61228375D01*
X123653622Y-61322986D01*
X123613846Y-61414904D01*
X123610057Y-61420607D01*
X123605966Y-61429774D01*
X123549014Y-61512485D01*
X123495303Y-61593327D01*
X123488372Y-61600555D01*
X123480889Y-61611422D01*
X123412065Y-61680126D01*
X123347039Y-61747934D01*
X123336383Y-61755676D01*
X123324805Y-61767234D01*
X123247226Y-61820452D01*
X123173741Y-61873843D01*
X123159031Y-61880954D01*
X123142939Y-61891993D01*
X123059847Y-61928901D01*
X122980889Y-61967071D01*
X122962113Y-61972313D01*
X122941384Y-61981521D01*
X122856006Y-62001940D01*
X122774568Y-62024678D01*
X122752015Y-62026810D01*
X122726888Y-62032819D01*
X122642355Y-62037175D01*
X122561307Y-62044836D01*
X122535594Y-62042677D01*
X122506636Y-62044169D01*
X122425841Y-62033460D01*
X122347850Y-62026911D01*
X122319876Y-62019416D01*
X122288003Y-62015191D01*
X122213514Y-61990916D01*
X122140939Y-61971470D01*
X122111876Y-61957794D01*
X122078312Y-61946856D01*
X122012264Y-61910920D01*
X121947122Y-61880267D01*
X121918371Y-61859835D01*
X121884586Y-61841453D01*
X121828626Y-61796057D01*
X121772510Y-61756177D01*
X121745628Y-61728725D01*
X121713312Y-61702510D01*
X121668604Y-61650071D01*
X121622636Y-61603130D01*
X121599271Y-61568749D01*
X121570226Y-61534682D01*
X121537392Y-61477697D01*
X121502233Y-61425962D01*
X121484044Y-61385110D01*
X121460120Y-61343588D01*
X121439271Y-61284547D01*
X121415107Y-61230275D01*
X121403687Y-61183782D01*
X121386683Y-61135630D01*
X121377432Y-61076893D01*
X121364010Y-61022247D01*
X121360806Y-60971322D01*
X121352372Y-60917770D01*
X121353895Y-60861483D01*
X121350559Y-60808458D01*
X121356787Y-60754637D01*
X121358338Y-60697307D01*
X121369435Y-60645321D01*
X121375180Y-60595674D01*
X121391747Y-60540801D01*
X121404380Y-60481622D01*
X121423561Y-60435429D01*
X121437095Y-60390602D01*
X121464543Y-60336733D01*
X121488956Y-60277939D01*
X121514517Y-60238654D01*
X121534342Y-60199745D01*
X121572796Y-60149084D01*
X121609235Y-60093079D01*
X121639352Y-60061397D01*
X121663852Y-60029120D01*
X121712987Y-59983938D01*
X121761187Y-59933235D01*
X121794026Y-59909420D01*
X121821533Y-59884126D01*
X121880543Y-59846677D01*
X121939724Y-59803758D01*
X121973500Y-59787684D01*
X122002397Y-59769345D01*
X122070030Y-59741745D01*
X122138867Y-59708985D01*
X122171959Y-59700149D01*
X122200722Y-59688411D01*
X122275226Y-59672575D01*
X122351947Y-59652089D01*
X122382960Y-59649675D01*
X122410254Y-59643874D01*
X122489521Y-59641382D01*
X122571826Y-59634977D01*
X122599611Y-59637922D01*
G37*
G36*
X66414667Y-55589398D02*
G01*
X66654187Y-55667222D01*
X66654191Y-55667224D01*
X66878582Y-55781557D01*
X67082331Y-55929589D01*
X67260411Y-56107669D01*
X67408443Y-56311418D01*
X67499848Y-56490811D01*
X67522778Y-56535813D01*
X67600602Y-56775333D01*
X67639999Y-57024077D01*
X67639999Y-57275923D01*
X67600602Y-57524667D01*
X67522778Y-57764187D01*
X67522776Y-57764191D01*
X67408443Y-57988582D01*
X67260411Y-58192331D01*
X67082331Y-58370411D01*
X66878582Y-58518443D01*
X66654191Y-58632776D01*
X66654187Y-58632778D01*
X66414667Y-58710602D01*
X66165923Y-58749999D01*
X65914077Y-58749999D01*
X65665333Y-58710602D01*
X65425813Y-58632778D01*
X65425809Y-58632776D01*
X65201418Y-58518443D01*
X64997669Y-58370411D01*
X64819589Y-58192331D01*
X64671557Y-57988582D01*
X64557224Y-57764191D01*
X64557222Y-57764187D01*
X64479398Y-57524667D01*
X64440001Y-57275923D01*
X64440001Y-57024077D01*
X64479398Y-56775333D01*
X64557222Y-56535813D01*
X64580152Y-56490811D01*
X64671557Y-56311418D01*
X64819589Y-56107669D01*
X64997669Y-55929589D01*
X65201418Y-55781557D01*
X65425809Y-55667224D01*
X65425813Y-55667222D01*
X65665333Y-55589398D01*
X65914077Y-55550001D01*
X66165923Y-55550001D01*
X66414667Y-55589398D01*
G37*
G36*
X41498151Y-55649818D02*
G01*
X41557000Y-55668940D01*
X41584773Y-55673239D01*
X41628594Y-55692202D01*
X41678079Y-55708281D01*
X41714975Y-55729583D01*
X41751339Y-55745319D01*
X41794139Y-55775288D01*
X41841920Y-55802874D01*
X41871242Y-55829276D01*
X41901112Y-55850191D01*
X41939187Y-55890454D01*
X41982514Y-55929466D01*
X42003851Y-55958834D01*
X42026736Y-55983034D01*
X42057599Y-56032812D01*
X42093716Y-56082522D01*
X42107204Y-56112816D01*
X42123088Y-56138435D01*
X42144403Y-56196366D01*
X42170665Y-56255353D01*
X42176903Y-56284700D01*
X42186220Y-56310023D01*
X42195923Y-56374180D01*
X42210000Y-56440406D01*
X42210000Y-56467259D01*
X42213562Y-56490811D01*
X42210000Y-56558776D01*
X42210000Y-56629594D01*
X42205074Y-56652769D01*
X42203993Y-56673394D01*
X42186039Y-56742320D01*
X42170665Y-56814647D01*
X42162312Y-56833409D01*
X42157903Y-56850334D01*
X42125052Y-56917097D01*
X42093716Y-56987479D01*
X42083503Y-57001536D01*
X42077179Y-57014388D01*
X42029601Y-57075724D01*
X41982514Y-57140534D01*
X41971955Y-57150042D01*
X41965116Y-57158858D01*
X41903716Y-57211484D01*
X41841920Y-57267126D01*
X41832355Y-57272648D01*
X41826292Y-57277845D01*
X41752673Y-57318652D01*
X41678079Y-57361719D01*
X41670586Y-57364154D01*
X41666373Y-57366489D01*
X41582636Y-57392731D01*
X41498151Y-57420182D01*
X41493469Y-57420674D01*
X41491906Y-57421164D01*
X41399505Y-57430550D01*
X41357164Y-57435000D01*
X39462836Y-57435000D01*
X39321849Y-57420182D01*
X39263000Y-57401060D01*
X39235227Y-57396761D01*
X39191406Y-57377798D01*
X39141921Y-57361719D01*
X39105025Y-57340417D01*
X39068661Y-57324681D01*
X39025861Y-57294712D01*
X38978080Y-57267126D01*
X38948758Y-57240724D01*
X38918888Y-57219809D01*
X38880813Y-57179546D01*
X38837486Y-57140534D01*
X38816149Y-57111166D01*
X38793264Y-57086966D01*
X38762401Y-57037188D01*
X38726284Y-56987478D01*
X38712796Y-56957184D01*
X38696912Y-56931565D01*
X38675597Y-56873634D01*
X38649335Y-56814647D01*
X38643097Y-56785300D01*
X38633780Y-56759977D01*
X38624077Y-56695820D01*
X38610000Y-56629594D01*
X38610000Y-56602741D01*
X38606438Y-56579189D01*
X38610000Y-56511224D01*
X38610000Y-56440406D01*
X38614926Y-56417231D01*
X38616007Y-56396606D01*
X38633961Y-56327680D01*
X38649335Y-56255353D01*
X38657688Y-56236591D01*
X38662097Y-56219666D01*
X38694948Y-56152903D01*
X38726284Y-56082521D01*
X38736497Y-56068464D01*
X38742821Y-56055612D01*
X38790399Y-55994276D01*
X38837486Y-55929466D01*
X38848045Y-55919958D01*
X38854884Y-55911142D01*
X38916284Y-55858516D01*
X38978080Y-55802874D01*
X38987645Y-55797352D01*
X38993708Y-55792155D01*
X39067327Y-55751348D01*
X39141921Y-55708281D01*
X39149414Y-55705846D01*
X39153627Y-55703511D01*
X39237364Y-55677269D01*
X39321849Y-55649818D01*
X39326531Y-55649326D01*
X39328094Y-55648836D01*
X39420495Y-55639450D01*
X39462836Y-55635000D01*
X41357164Y-55635000D01*
X41498151Y-55649818D01*
G37*
G36*
X123754995Y-52140000D02*
G01*
X123755000Y-52140000D01*
X123755000Y-52140001D01*
X123755995Y-52145005D01*
X123755995Y-54534995D01*
X123755000Y-54540000D01*
X123749995Y-54540995D01*
X121360005Y-54540995D01*
X121355001Y-54540000D01*
X121355000Y-54540000D01*
X121355000Y-54539995D01*
X121354005Y-54534995D01*
X121354005Y-52145005D01*
X121355000Y-52140006D01*
X121355000Y-52140000D01*
X121355006Y-52140000D01*
X121360005Y-52139005D01*
X123749995Y-52139005D01*
X123754995Y-52140000D01*
G37*
G36*
X41498151Y-50569818D02*
G01*
X41557000Y-50588940D01*
X41584773Y-50593239D01*
X41628594Y-50612202D01*
X41678079Y-50628281D01*
X41714975Y-50649583D01*
X41751339Y-50665319D01*
X41794139Y-50695288D01*
X41841920Y-50722874D01*
X41871242Y-50749276D01*
X41901112Y-50770191D01*
X41939187Y-50810454D01*
X41982514Y-50849466D01*
X42003851Y-50878834D01*
X42026736Y-50903034D01*
X42057599Y-50952812D01*
X42093716Y-51002522D01*
X42107204Y-51032816D01*
X42123088Y-51058435D01*
X42144403Y-51116366D01*
X42170665Y-51175353D01*
X42176903Y-51204700D01*
X42186220Y-51230023D01*
X42195923Y-51294180D01*
X42210000Y-51360406D01*
X42210000Y-51387259D01*
X42213562Y-51410811D01*
X42210000Y-51478776D01*
X42210000Y-51549594D01*
X42205074Y-51572769D01*
X42203993Y-51593394D01*
X42186039Y-51662320D01*
X42170665Y-51734647D01*
X42162312Y-51753409D01*
X42157903Y-51770334D01*
X42125052Y-51837097D01*
X42093716Y-51907479D01*
X42083503Y-51921536D01*
X42077179Y-51934388D01*
X42029601Y-51995724D01*
X41982514Y-52060534D01*
X41971955Y-52070042D01*
X41965116Y-52078858D01*
X41903716Y-52131484D01*
X41841920Y-52187126D01*
X41832355Y-52192648D01*
X41826292Y-52197845D01*
X41752673Y-52238652D01*
X41678079Y-52281719D01*
X41670586Y-52284154D01*
X41666373Y-52286489D01*
X41582636Y-52312731D01*
X41498151Y-52340182D01*
X41493469Y-52340674D01*
X41491906Y-52341164D01*
X41399505Y-52350550D01*
X41357164Y-52355000D01*
X39462836Y-52355000D01*
X39321849Y-52340182D01*
X39263000Y-52321060D01*
X39235227Y-52316761D01*
X39191406Y-52297798D01*
X39141921Y-52281719D01*
X39105025Y-52260417D01*
X39068661Y-52244681D01*
X39025861Y-52214712D01*
X38978080Y-52187126D01*
X38948758Y-52160724D01*
X38918888Y-52139809D01*
X38880813Y-52099546D01*
X38837486Y-52060534D01*
X38816149Y-52031166D01*
X38793264Y-52006966D01*
X38762401Y-51957188D01*
X38726284Y-51907478D01*
X38712796Y-51877184D01*
X38696912Y-51851565D01*
X38675597Y-51793634D01*
X38649335Y-51734647D01*
X38643097Y-51705300D01*
X38633780Y-51679977D01*
X38624077Y-51615820D01*
X38610000Y-51549594D01*
X38610000Y-51522741D01*
X38606438Y-51499189D01*
X38610000Y-51431224D01*
X38610000Y-51360406D01*
X38614926Y-51337231D01*
X38616007Y-51316606D01*
X38633961Y-51247680D01*
X38649335Y-51175353D01*
X38657688Y-51156591D01*
X38662097Y-51139666D01*
X38694948Y-51072903D01*
X38726284Y-51002521D01*
X38736497Y-50988464D01*
X38742821Y-50975612D01*
X38790399Y-50914276D01*
X38837486Y-50849466D01*
X38848045Y-50839958D01*
X38854884Y-50831142D01*
X38916284Y-50778516D01*
X38978080Y-50722874D01*
X38987645Y-50717352D01*
X38993708Y-50712155D01*
X39067327Y-50671348D01*
X39141921Y-50628281D01*
X39149414Y-50625846D01*
X39153627Y-50623511D01*
X39237364Y-50597269D01*
X39321849Y-50569818D01*
X39326531Y-50569326D01*
X39328094Y-50568836D01*
X39420495Y-50559450D01*
X39462836Y-50555000D01*
X41357164Y-50555000D01*
X41498151Y-50569818D01*
G37*
G36*
X100354421Y-48730106D02*
G01*
X100425323Y-48730601D01*
X100444743Y-48735156D01*
X100461431Y-48736089D01*
X100528187Y-48754728D01*
X100600059Y-48771585D01*
X100615450Y-48779092D01*
X100628846Y-48782832D01*
X100692365Y-48816606D01*
X100761374Y-48850264D01*
X100772519Y-48859225D01*
X100782316Y-48864434D01*
X100839038Y-48912708D01*
X100901248Y-48962726D01*
X100908374Y-48971716D01*
X100914689Y-48977091D01*
X100961185Y-49038348D01*
X101012731Y-49103382D01*
X101016466Y-49111178D01*
X101019778Y-49115541D01*
X101052849Y-49187113D01*
X101090282Y-49265242D01*
X101091572Y-49270918D01*
X101092685Y-49273328D01*
X101109661Y-49350538D01*
X101130045Y-49440261D01*
X101129984Y-49444598D01*
X101129364Y-49622580D01*
X101127377Y-49631327D01*
X101127227Y-49642043D01*
X101107379Y-49719348D01*
X101090874Y-49791993D01*
X101086148Y-49802036D01*
X101082593Y-49815883D01*
X101047510Y-49884147D01*
X101016868Y-49949265D01*
X101008378Y-49960290D01*
X101000553Y-49975515D01*
X100953123Y-50032040D01*
X100910813Y-50086980D01*
X100898002Y-50097730D01*
X100885186Y-50113003D01*
X100828734Y-50155853D01*
X100777661Y-50198708D01*
X100760355Y-50207755D01*
X100742226Y-50221516D01*
X100680299Y-50249607D01*
X100623624Y-50279236D01*
X100602077Y-50285090D01*
X100578778Y-50295659D01*
X100514960Y-50308759D01*
X100455883Y-50324810D01*
X100430790Y-50326037D01*
X100402965Y-50331749D01*
X100340685Y-50330444D01*
X100282279Y-50333301D01*
X100254745Y-50328644D01*
X100223525Y-50327990D01*
X100165835Y-50313606D01*
X100110890Y-50304313D01*
X100082408Y-50292805D01*
X100049378Y-50284570D01*
X99998841Y-50259042D01*
X99949731Y-50239200D01*
X99922080Y-50220267D01*
X99889178Y-50203647D01*
X99847733Y-50169361D01*
X99806310Y-50140998D01*
X99781459Y-50114535D01*
X99750887Y-50089243D01*
X99719791Y-50048864D01*
X99687324Y-50014290D01*
X99667309Y-49980715D01*
X99641379Y-49947044D01*
X99621187Y-49903344D01*
X99598323Y-49864990D01*
X99585106Y-49825258D01*
X99566096Y-49784117D01*
X99556673Y-49739786D01*
X99543457Y-49700057D01*
X99538790Y-49655653D01*
X99528780Y-49608560D01*
X99529373Y-49566059D01*
X99525288Y-49527188D01*
X99530574Y-49480060D01*
X99531286Y-49429099D01*
X99540617Y-49390529D01*
X99544663Y-49354459D01*
X99560839Y-49306943D01*
X99573489Y-49254653D01*
X99589881Y-49221632D01*
X99600679Y-49189912D01*
X99628114Y-49144611D01*
X99653292Y-49093891D01*
X99674811Y-49067506D01*
X99690722Y-49041234D01*
X99729147Y-49000883D01*
X99766728Y-48954805D01*
X99791334Y-48935580D01*
X99810589Y-48915361D01*
X99859069Y-48882660D01*
X99908159Y-48844307D01*
X99933856Y-48832215D01*
X99954690Y-48818162D01*
X100011617Y-48795623D01*
X100070556Y-48767889D01*
X100095545Y-48762395D01*
X100116301Y-48754177D01*
X100179412Y-48743955D01*
X100245848Y-48729348D01*
X100268617Y-48729507D01*
X100287886Y-48726386D01*
X100354421Y-48730106D01*
G37*
G36*
X42047545Y-45492174D02*
G01*
X42050434Y-45493963D01*
X42052647Y-45494403D01*
X42071626Y-45507084D01*
X42127012Y-45541378D01*
X42131149Y-45546856D01*
X42135342Y-45549658D01*
X42151299Y-45573539D01*
X42182601Y-45614990D01*
X42184560Y-45623317D01*
X42190597Y-45632353D01*
X42210000Y-45729898D01*
X42210000Y-45731482D01*
X42210880Y-45735224D01*
X42210880Y-47015963D01*
X42192826Y-47112545D01*
X42191037Y-47115434D01*
X42190597Y-47117647D01*
X42177916Y-47136626D01*
X42143622Y-47192012D01*
X42138144Y-47196149D01*
X42135342Y-47200342D01*
X42111461Y-47216299D01*
X42070010Y-47247601D01*
X42061683Y-47249560D01*
X42052647Y-47255597D01*
X41955102Y-47275000D01*
X41953518Y-47275000D01*
X41949776Y-47275880D01*
X38869037Y-47275880D01*
X38772455Y-47257826D01*
X38769566Y-47256037D01*
X38767353Y-47255597D01*
X38748374Y-47242916D01*
X38692988Y-47208622D01*
X38688851Y-47203144D01*
X38684658Y-47200342D01*
X38668701Y-47176461D01*
X38637399Y-47135010D01*
X38635440Y-47126683D01*
X38629403Y-47117647D01*
X38610000Y-47020102D01*
X38610000Y-47018518D01*
X38609120Y-47014776D01*
X38609120Y-45734037D01*
X38627174Y-45637455D01*
X38628963Y-45634566D01*
X38629403Y-45632353D01*
X38642084Y-45613374D01*
X38676378Y-45557988D01*
X38681856Y-45553851D01*
X38684658Y-45549658D01*
X38708539Y-45533701D01*
X38749990Y-45502399D01*
X38758317Y-45500440D01*
X38767353Y-45494403D01*
X38864898Y-45475000D01*
X38866482Y-45475000D01*
X38870224Y-45474120D01*
X41950963Y-45474120D01*
X42047545Y-45492174D01*
G37*
G36*
X85654995Y-43250000D02*
G01*
X85655000Y-43250000D01*
X85655000Y-43250001D01*
X85655995Y-43255005D01*
X85655995Y-45644995D01*
X85655000Y-45649995D01*
X85655000Y-45650000D01*
X85654999Y-45650000D01*
X85649995Y-45650995D01*
X83260005Y-45650995D01*
X83255001Y-45650000D01*
X83255000Y-45650000D01*
X83255000Y-45649995D01*
X83254005Y-45644995D01*
X83254005Y-43255005D01*
X83255000Y-43250006D01*
X83255000Y-43250000D01*
X83255006Y-43250000D01*
X83260005Y-43249005D01*
X85649995Y-43249005D01*
X85654995Y-43250000D01*
G37*
G36*
X40949090Y-39712173D02*
G01*
X41010905Y-39731782D01*
X41043929Y-39736894D01*
X41090357Y-39756985D01*
X41135850Y-39771416D01*
X41180759Y-39796105D01*
X41230376Y-39817576D01*
X41268969Y-39844599D01*
X41307702Y-39865893D01*
X41349663Y-39901102D01*
X41396790Y-39934101D01*
X41426760Y-39965793D01*
X41457929Y-39991947D01*
X41494467Y-40037392D01*
X41536375Y-40081708D01*
X41557528Y-40115825D01*
X41580816Y-40144789D01*
X41609468Y-40199594D01*
X41643429Y-40254368D01*
X41656083Y-40288759D01*
X41671673Y-40318581D01*
X41690136Y-40381315D01*
X41713578Y-40445028D01*
X41718536Y-40477811D01*
X41727041Y-40506709D01*
X41733288Y-40575354D01*
X41743957Y-40645898D01*
X41742404Y-40675525D01*
X41744815Y-40702014D01*
X41737238Y-40774104D01*
X41733325Y-40848775D01*
X41726728Y-40874100D01*
X41724316Y-40897053D01*
X41701818Y-40969734D01*
X41682116Y-41045370D01*
X41672110Y-41065705D01*
X41666325Y-41084393D01*
X41628400Y-41154533D01*
X41592421Y-41227652D01*
X41580683Y-41242784D01*
X41573052Y-41256898D01*
X41519880Y-41321171D01*
X41467906Y-41388176D01*
X41456022Y-41398362D01*
X41448042Y-41408008D01*
X41380463Y-41463124D01*
X41313657Y-41520384D01*
X41303039Y-41526270D01*
X41296074Y-41531950D01*
X41215524Y-41574779D01*
X41135973Y-41618875D01*
X41127742Y-41621455D01*
X41122915Y-41624021D01*
X41030997Y-41651773D01*
X40942115Y-41679627D01*
X40937029Y-41680144D01*
X40935176Y-41680703D01*
X40829920Y-41691023D01*
X40790770Y-41695000D01*
X39194295Y-41695000D01*
X39030910Y-41677827D01*
X38969095Y-41658218D01*
X38936071Y-41653106D01*
X38889643Y-41633015D01*
X38844150Y-41618584D01*
X38799241Y-41593895D01*
X38749624Y-41572424D01*
X38711031Y-41545401D01*
X38672298Y-41524107D01*
X38630337Y-41488898D01*
X38583210Y-41455899D01*
X38553240Y-41424207D01*
X38522071Y-41398053D01*
X38485533Y-41352608D01*
X38443625Y-41308292D01*
X38422472Y-41274175D01*
X38399184Y-41245211D01*
X38370532Y-41190406D01*
X38336571Y-41135632D01*
X38323917Y-41101241D01*
X38308327Y-41071419D01*
X38289864Y-41008685D01*
X38266422Y-40944972D01*
X38261464Y-40912189D01*
X38252959Y-40883291D01*
X38246712Y-40814646D01*
X38236043Y-40744102D01*
X38237596Y-40714475D01*
X38235185Y-40687986D01*
X38242762Y-40615896D01*
X38246675Y-40541225D01*
X38253272Y-40515900D01*
X38255684Y-40492947D01*
X38278182Y-40420266D01*
X38297884Y-40344630D01*
X38307890Y-40324295D01*
X38313675Y-40305607D01*
X38351600Y-40235467D01*
X38387579Y-40162348D01*
X38399317Y-40147216D01*
X38406948Y-40133102D01*
X38460120Y-40068829D01*
X38512094Y-40001824D01*
X38523978Y-39991638D01*
X38531958Y-39981992D01*
X38599537Y-39926876D01*
X38666343Y-39869616D01*
X38676961Y-39863730D01*
X38683926Y-39858050D01*
X38764476Y-39815221D01*
X38844027Y-39771125D01*
X38852258Y-39768545D01*
X38857085Y-39765979D01*
X38949003Y-39738227D01*
X39037885Y-39710373D01*
X39042971Y-39709856D01*
X39044824Y-39709297D01*
X39150080Y-39698977D01*
X39189230Y-39695000D01*
X40785705Y-39695000D01*
X40949090Y-39712173D01*
G37*
G36*
X99945132Y-37832684D02*
G01*
X99967345Y-37831598D01*
X100036176Y-37842253D01*
X100108151Y-37849818D01*
X100129179Y-37856650D01*
X100148032Y-37859569D01*
X100216305Y-37884960D01*
X100288079Y-37908281D01*
X100304491Y-37917757D01*
X100319405Y-37923303D01*
X100383884Y-37963594D01*
X100451920Y-38002874D01*
X100463653Y-38013438D01*
X100474461Y-38020192D01*
X100531861Y-38074854D01*
X100592514Y-38129466D01*
X100599934Y-38139679D01*
X100606869Y-38146283D01*
X100653974Y-38214059D01*
X100703716Y-38282522D01*
X100707563Y-38291163D01*
X100711217Y-38296420D01*
X100745072Y-38375409D01*
X100780665Y-38455353D01*
X100781973Y-38461505D01*
X100783246Y-38464476D01*
X100801316Y-38552507D01*
X100820000Y-38640406D01*
X100820000Y-38829594D01*
X100819331Y-38832741D01*
X100819331Y-38832789D01*
X100781335Y-39011548D01*
X100781313Y-39011598D01*
X100780665Y-39014647D01*
X100744148Y-39096665D01*
X100708137Y-39179092D01*
X100706274Y-39181734D01*
X100703716Y-39187478D01*
X100652291Y-39258258D01*
X100602742Y-39328498D01*
X100598074Y-39332882D01*
X100592514Y-39340534D01*
X100529616Y-39397168D01*
X100469458Y-39453660D01*
X100461305Y-39458676D01*
X100451920Y-39467126D01*
X100381211Y-39507949D01*
X100313725Y-39549467D01*
X100301752Y-39553825D01*
X100288079Y-39561719D01*
X100213362Y-39585997D01*
X100141918Y-39612000D01*
X100126180Y-39614324D01*
X100108151Y-39620182D01*
X100033073Y-39628073D01*
X99961038Y-39638710D01*
X99941994Y-39637645D01*
X99920000Y-39639957D01*
X99848016Y-39632391D01*
X99778483Y-39628504D01*
X99756984Y-39622824D01*
X99731849Y-39620182D01*
X99665980Y-39598780D01*
X99601707Y-39581798D01*
X99578950Y-39570501D01*
X99551921Y-39561719D01*
X99494663Y-39528661D01*
X99437938Y-39500503D01*
X99415424Y-39482913D01*
X99388080Y-39467126D01*
X99341264Y-39424973D01*
X99293861Y-39387937D01*
X99273298Y-39363776D01*
X99247486Y-39340534D01*
X99212285Y-39292085D01*
X99175355Y-39248691D01*
X99158553Y-39218128D01*
X99136284Y-39187478D01*
X99113207Y-39135646D01*
X99087273Y-39088473D01*
X99076022Y-39052127D01*
X99059335Y-39014647D01*
X99048190Y-38962215D01*
X99033207Y-38913812D01*
X99029187Y-38872815D01*
X99020000Y-38829594D01*
X99020000Y-38779121D01*
X99015364Y-38731841D01*
X99020000Y-38687732D01*
X99020000Y-38640406D01*
X99029839Y-38594116D01*
X99034476Y-38550002D01*
X99048844Y-38504710D01*
X99059335Y-38455353D01*
X99077303Y-38414996D01*
X99089760Y-38375727D01*
X99114478Y-38331498D01*
X99136284Y-38282522D01*
X99160404Y-38249324D01*
X99178962Y-38216118D01*
X99214136Y-38175369D01*
X99247486Y-38129466D01*
X99275636Y-38104120D01*
X99298431Y-38077711D01*
X99343584Y-38042939D01*
X99388080Y-38002874D01*
X99418160Y-37985507D01*
X99443295Y-37966151D01*
X99497358Y-37939783D01*
X99551921Y-37908281D01*
X99581954Y-37898523D01*
X99607631Y-37885999D01*
X99668952Y-37870255D01*
X99731849Y-37849818D01*
X99760124Y-37846846D01*
X99784725Y-37840530D01*
X99851117Y-37837283D01*
X99920000Y-37830043D01*
X99945132Y-37832684D01*
G37*
G36*
X103345132Y-37832684D02*
G01*
X103367345Y-37831598D01*
X103436176Y-37842253D01*
X103508151Y-37849818D01*
X103529179Y-37856650D01*
X103548032Y-37859569D01*
X103616305Y-37884960D01*
X103688079Y-37908281D01*
X103704491Y-37917757D01*
X103719405Y-37923303D01*
X103783884Y-37963594D01*
X103851920Y-38002874D01*
X103863653Y-38013438D01*
X103874461Y-38020192D01*
X103931861Y-38074854D01*
X103992514Y-38129466D01*
X103999934Y-38139679D01*
X104006869Y-38146283D01*
X104053974Y-38214059D01*
X104103716Y-38282522D01*
X104107563Y-38291163D01*
X104111217Y-38296420D01*
X104145072Y-38375409D01*
X104180665Y-38455353D01*
X104181973Y-38461505D01*
X104183246Y-38464476D01*
X104201316Y-38552507D01*
X104220000Y-38640406D01*
X104220000Y-38829594D01*
X104219331Y-38832741D01*
X104219331Y-38832789D01*
X104181335Y-39011548D01*
X104181313Y-39011598D01*
X104180665Y-39014647D01*
X104144148Y-39096665D01*
X104108137Y-39179092D01*
X104106274Y-39181734D01*
X104103716Y-39187478D01*
X104052291Y-39258258D01*
X104002742Y-39328498D01*
X103998074Y-39332882D01*
X103992514Y-39340534D01*
X103929616Y-39397168D01*
X103869458Y-39453660D01*
X103861305Y-39458676D01*
X103851920Y-39467126D01*
X103781211Y-39507949D01*
X103713725Y-39549467D01*
X103701752Y-39553825D01*
X103688079Y-39561719D01*
X103613362Y-39585997D01*
X103541918Y-39612000D01*
X103526180Y-39614324D01*
X103508151Y-39620182D01*
X103433073Y-39628073D01*
X103361038Y-39638710D01*
X103341994Y-39637645D01*
X103320000Y-39639957D01*
X103248016Y-39632391D01*
X103178483Y-39628504D01*
X103156984Y-39622824D01*
X103131849Y-39620182D01*
X103065980Y-39598780D01*
X103001707Y-39581798D01*
X102978950Y-39570501D01*
X102951921Y-39561719D01*
X102894663Y-39528661D01*
X102837938Y-39500503D01*
X102815424Y-39482913D01*
X102788080Y-39467126D01*
X102741264Y-39424973D01*
X102693861Y-39387937D01*
X102673298Y-39363776D01*
X102647486Y-39340534D01*
X102612285Y-39292085D01*
X102575355Y-39248691D01*
X102558553Y-39218128D01*
X102536284Y-39187478D01*
X102513207Y-39135646D01*
X102487273Y-39088473D01*
X102476022Y-39052127D01*
X102459335Y-39014647D01*
X102448190Y-38962215D01*
X102433207Y-38913812D01*
X102429187Y-38872815D01*
X102420000Y-38829594D01*
X102420000Y-38779121D01*
X102415364Y-38731841D01*
X102420000Y-38687732D01*
X102420000Y-38640406D01*
X102429839Y-38594116D01*
X102434476Y-38550002D01*
X102448844Y-38504710D01*
X102459335Y-38455353D01*
X102477303Y-38414996D01*
X102489760Y-38375727D01*
X102514478Y-38331498D01*
X102536284Y-38282522D01*
X102560404Y-38249324D01*
X102578962Y-38216118D01*
X102614136Y-38175369D01*
X102647486Y-38129466D01*
X102675636Y-38104120D01*
X102698431Y-38077711D01*
X102743584Y-38042939D01*
X102788080Y-38002874D01*
X102818160Y-37985507D01*
X102843295Y-37966151D01*
X102897358Y-37939783D01*
X102951921Y-37908281D01*
X102981954Y-37898523D01*
X103007631Y-37885999D01*
X103068952Y-37870255D01*
X103131849Y-37849818D01*
X103160124Y-37846846D01*
X103184725Y-37840530D01*
X103251117Y-37837283D01*
X103320000Y-37830043D01*
X103345132Y-37832684D01*
G37*
G36*
X97419995Y-37835000D02*
G01*
X97420000Y-37835000D01*
X97420000Y-37835001D01*
X97420995Y-37840005D01*
X97420995Y-39629995D01*
X97420000Y-39635000D01*
X97414995Y-39635995D01*
X95625005Y-39635995D01*
X95620001Y-39635000D01*
X95620000Y-39635000D01*
X95620000Y-39634995D01*
X95619005Y-39629995D01*
X95619005Y-37840005D01*
X95620000Y-37835006D01*
X95620000Y-37835000D01*
X95620006Y-37835000D01*
X95625005Y-37834005D01*
X97414995Y-37834005D01*
X97419995Y-37835000D01*
G37*
G36*
X128973018Y-36317753D02*
G01*
X129038717Y-36321829D01*
X129059181Y-36328027D01*
X129077347Y-36330193D01*
X129140033Y-36352515D01*
X129206096Y-36372523D01*
X129221737Y-36381608D01*
X129235860Y-36386637D01*
X129294897Y-36424103D01*
X129357325Y-36460364D01*
X129368060Y-36470533D01*
X129377927Y-36476795D01*
X129429607Y-36528837D01*
X129484290Y-36580638D01*
X129490589Y-36590246D01*
X129496492Y-36596190D01*
X129537233Y-36661389D01*
X129580180Y-36726895D01*
X129582973Y-36734590D01*
X129585657Y-36738885D01*
X129612224Y-36815175D01*
X129639852Y-36891288D01*
X129640417Y-36896132D01*
X129640993Y-36897787D01*
X129650717Y-36984478D01*
X129655000Y-37021214D01*
X129655000Y-37904472D01*
X129638523Y-38042646D01*
X129617991Y-38099060D01*
X129612746Y-38128208D01*
X129594069Y-38164784D01*
X129581039Y-38200586D01*
X129555757Y-38239816D01*
X129533213Y-38283966D01*
X129508737Y-38312776D01*
X129489887Y-38342025D01*
X129454187Y-38376985D01*
X129419980Y-38417249D01*
X129392176Y-38437710D01*
X129369672Y-38459748D01*
X129324304Y-38487659D01*
X129279123Y-38520908D01*
X129250373Y-38533141D01*
X129226357Y-38547916D01*
X129172807Y-38566146D01*
X129118197Y-38589383D01*
X129090641Y-38594118D01*
X129067071Y-38602142D01*
X129007519Y-38608401D01*
X128945835Y-38619000D01*
X128921206Y-38617472D01*
X128899732Y-38619729D01*
X128836982Y-38612247D01*
X128771283Y-38608171D01*
X128750819Y-38601973D01*
X128732653Y-38599807D01*
X128669967Y-38577485D01*
X128603904Y-38557477D01*
X128588263Y-38548392D01*
X128574140Y-38543363D01*
X128515103Y-38505897D01*
X128452675Y-38469636D01*
X128441940Y-38459467D01*
X128432073Y-38453205D01*
X128380391Y-38401161D01*
X128325711Y-38349362D01*
X128319412Y-38339754D01*
X128313509Y-38333810D01*
X128272768Y-38268611D01*
X128229821Y-38203105D01*
X128227028Y-38195410D01*
X128224344Y-38191115D01*
X128197777Y-38114825D01*
X128170149Y-38038712D01*
X128169584Y-38033867D01*
X128169008Y-38032213D01*
X128159286Y-37945545D01*
X128155000Y-37908786D01*
X128155000Y-37025529D01*
X128171477Y-36887355D01*
X128192009Y-36830941D01*
X128197254Y-36801793D01*
X128215931Y-36765217D01*
X128228961Y-36729415D01*
X128254243Y-36690185D01*
X128276787Y-36646035D01*
X128301264Y-36617224D01*
X128320113Y-36587976D01*
X128355811Y-36553018D01*
X128390020Y-36512751D01*
X128417824Y-36492289D01*
X128440328Y-36470252D01*
X128485696Y-36442341D01*
X128530877Y-36409092D01*
X128559627Y-36396859D01*
X128583643Y-36382084D01*
X128637193Y-36363854D01*
X128691803Y-36340617D01*
X128719359Y-36335882D01*
X128742929Y-36327858D01*
X128802481Y-36321599D01*
X128864165Y-36311000D01*
X128888794Y-36312528D01*
X128910268Y-36310271D01*
X128973018Y-36317753D01*
G37*
G36*
X126433018Y-36317753D02*
G01*
X126498717Y-36321829D01*
X126519181Y-36328027D01*
X126537347Y-36330193D01*
X126600033Y-36352515D01*
X126666096Y-36372523D01*
X126681737Y-36381608D01*
X126695860Y-36386637D01*
X126754897Y-36424103D01*
X126817325Y-36460364D01*
X126828060Y-36470533D01*
X126837927Y-36476795D01*
X126889607Y-36528837D01*
X126944290Y-36580638D01*
X126950589Y-36590246D01*
X126956492Y-36596190D01*
X126997233Y-36661389D01*
X127040180Y-36726895D01*
X127042973Y-36734590D01*
X127045657Y-36738885D01*
X127072224Y-36815175D01*
X127099852Y-36891288D01*
X127100417Y-36896132D01*
X127100993Y-36897787D01*
X127110717Y-36984478D01*
X127115000Y-37021214D01*
X127115000Y-37904472D01*
X127098523Y-38042646D01*
X127077991Y-38099060D01*
X127072746Y-38128208D01*
X127054069Y-38164784D01*
X127041039Y-38200586D01*
X127015757Y-38239816D01*
X126993213Y-38283966D01*
X126968737Y-38312776D01*
X126949887Y-38342025D01*
X126914187Y-38376985D01*
X126879980Y-38417249D01*
X126852176Y-38437710D01*
X126829672Y-38459748D01*
X126784304Y-38487659D01*
X126739123Y-38520908D01*
X126710373Y-38533141D01*
X126686357Y-38547916D01*
X126632807Y-38566146D01*
X126578197Y-38589383D01*
X126550641Y-38594118D01*
X126527071Y-38602142D01*
X126467519Y-38608401D01*
X126405835Y-38619000D01*
X126381206Y-38617472D01*
X126359732Y-38619729D01*
X126296982Y-38612247D01*
X126231283Y-38608171D01*
X126210819Y-38601973D01*
X126192653Y-38599807D01*
X126129967Y-38577485D01*
X126063904Y-38557477D01*
X126048263Y-38548392D01*
X126034140Y-38543363D01*
X125975103Y-38505897D01*
X125912675Y-38469636D01*
X125901940Y-38459467D01*
X125892073Y-38453205D01*
X125840391Y-38401161D01*
X125785711Y-38349362D01*
X125779412Y-38339754D01*
X125773509Y-38333810D01*
X125732768Y-38268611D01*
X125689821Y-38203105D01*
X125687028Y-38195410D01*
X125684344Y-38191115D01*
X125657777Y-38114825D01*
X125630149Y-38038712D01*
X125629584Y-38033867D01*
X125629008Y-38032213D01*
X125619286Y-37945545D01*
X125615000Y-37908786D01*
X125615000Y-37025529D01*
X125631477Y-36887355D01*
X125652009Y-36830941D01*
X125657254Y-36801793D01*
X125675931Y-36765217D01*
X125688961Y-36729415D01*
X125714243Y-36690185D01*
X125736787Y-36646035D01*
X125761264Y-36617224D01*
X125780113Y-36587976D01*
X125815811Y-36553018D01*
X125850020Y-36512751D01*
X125877824Y-36492289D01*
X125900328Y-36470252D01*
X125945696Y-36442341D01*
X125990877Y-36409092D01*
X126019627Y-36396859D01*
X126043643Y-36382084D01*
X126097193Y-36363854D01*
X126151803Y-36340617D01*
X126179359Y-36335882D01*
X126202929Y-36327858D01*
X126262481Y-36321599D01*
X126324165Y-36311000D01*
X126348794Y-36312528D01*
X126370268Y-36310271D01*
X126433018Y-36317753D01*
G37*
G36*
X124574995Y-36315000D02*
G01*
X124575000Y-36315000D01*
X124575000Y-36315001D01*
X124575995Y-36320005D01*
X124575995Y-38609995D01*
X124575000Y-38615000D01*
X124569995Y-38615995D01*
X123080005Y-38615995D01*
X123075001Y-38615000D01*
X123075000Y-38615000D01*
X123075000Y-38614995D01*
X123074005Y-38609995D01*
X123074005Y-36320005D01*
X123075000Y-36315006D01*
X123075000Y-36315000D01*
X123075006Y-36315000D01*
X123080005Y-36314005D01*
X124569995Y-36314005D01*
X124574995Y-36315000D01*
G37*
G36*
X47989995Y-34195000D02*
G01*
X47990000Y-34195000D01*
X47990000Y-34195001D01*
X47990995Y-34200005D01*
X47990995Y-38189995D01*
X47990000Y-38195000D01*
X47984995Y-38195995D01*
X45995005Y-38195995D01*
X45990001Y-38195000D01*
X45990000Y-38195000D01*
X45990000Y-38194995D01*
X45989005Y-38189995D01*
X45989005Y-34200005D01*
X45990000Y-34195006D01*
X45990000Y-34195000D01*
X45990006Y-34195000D01*
X45995005Y-34194005D01*
X47984995Y-34194005D01*
X47989995Y-34195000D01*
G37*
G36*
X84499611Y-35747922D02*
G01*
X84524357Y-35747144D01*
X84605947Y-35759192D01*
X84691143Y-35768222D01*
X84714895Y-35775280D01*
X84736265Y-35778436D01*
X84817407Y-35805743D01*
X84902550Y-35831045D01*
X84921806Y-35840878D01*
X84939291Y-35846762D01*
X85017062Y-35889517D01*
X85098969Y-35931341D01*
X85113610Y-35942596D01*
X85127000Y-35949957D01*
X85198392Y-36007769D01*
X85273822Y-36065753D01*
X85284053Y-36077135D01*
X85293471Y-36084762D01*
X85355541Y-36156671D01*
X85421252Y-36229778D01*
X85427587Y-36240136D01*
X85433441Y-36246918D01*
X85483382Y-36331364D01*
X85536322Y-36417924D01*
X85539533Y-36426311D01*
X85542483Y-36431299D01*
X85577769Y-36526180D01*
X85615178Y-36623889D01*
X85616232Y-36629603D01*
X85617150Y-36632072D01*
X85635615Y-36734695D01*
X85655180Y-36840775D01*
X85649661Y-37044750D01*
X85647679Y-37120420D01*
X85647604Y-37120738D01*
X85647517Y-37123969D01*
X85622485Y-37227836D01*
X85598918Y-37328315D01*
X85597454Y-37331697D01*
X85595845Y-37338375D01*
X85553622Y-37432986D01*
X85513846Y-37524904D01*
X85510057Y-37530607D01*
X85505966Y-37539774D01*
X85449014Y-37622485D01*
X85395303Y-37703327D01*
X85388372Y-37710555D01*
X85380889Y-37721422D01*
X85312065Y-37790126D01*
X85247039Y-37857934D01*
X85236383Y-37865676D01*
X85224805Y-37877234D01*
X85147226Y-37930452D01*
X85073741Y-37983843D01*
X85059031Y-37990954D01*
X85042939Y-38001993D01*
X84959847Y-38038901D01*
X84880889Y-38077071D01*
X84862113Y-38082313D01*
X84841384Y-38091521D01*
X84756006Y-38111940D01*
X84674568Y-38134678D01*
X84652015Y-38136810D01*
X84626888Y-38142819D01*
X84542355Y-38147175D01*
X84461307Y-38154836D01*
X84435594Y-38152677D01*
X84406636Y-38154169D01*
X84325841Y-38143460D01*
X84247850Y-38136911D01*
X84219876Y-38129416D01*
X84188003Y-38125191D01*
X84113514Y-38100916D01*
X84040939Y-38081470D01*
X84011876Y-38067794D01*
X83978312Y-38056856D01*
X83912264Y-38020920D01*
X83847122Y-37990267D01*
X83818371Y-37969835D01*
X83784586Y-37951453D01*
X83728626Y-37906057D01*
X83672510Y-37866177D01*
X83645628Y-37838725D01*
X83613312Y-37812510D01*
X83568604Y-37760071D01*
X83522636Y-37713130D01*
X83499271Y-37678749D01*
X83470226Y-37644682D01*
X83437392Y-37587697D01*
X83402233Y-37535962D01*
X83384044Y-37495110D01*
X83360120Y-37453588D01*
X83339271Y-37394547D01*
X83315107Y-37340275D01*
X83303687Y-37293782D01*
X83286683Y-37245630D01*
X83277432Y-37186893D01*
X83264010Y-37132247D01*
X83260806Y-37081322D01*
X83252372Y-37027770D01*
X83253895Y-36971483D01*
X83250559Y-36918458D01*
X83256787Y-36864637D01*
X83258338Y-36807307D01*
X83269435Y-36755321D01*
X83275180Y-36705674D01*
X83291747Y-36650801D01*
X83304380Y-36591622D01*
X83323561Y-36545429D01*
X83337095Y-36500602D01*
X83364543Y-36446733D01*
X83388956Y-36387939D01*
X83414517Y-36348654D01*
X83434342Y-36309745D01*
X83472796Y-36259084D01*
X83509235Y-36203079D01*
X83539352Y-36171397D01*
X83563852Y-36139120D01*
X83612987Y-36093938D01*
X83661187Y-36043235D01*
X83694026Y-36019420D01*
X83721533Y-35994126D01*
X83780543Y-35956677D01*
X83839724Y-35913758D01*
X83873500Y-35897684D01*
X83902397Y-35879345D01*
X83970030Y-35851745D01*
X84038867Y-35818985D01*
X84071959Y-35810149D01*
X84100722Y-35798411D01*
X84175226Y-35782575D01*
X84251947Y-35762089D01*
X84282960Y-35759675D01*
X84310254Y-35753874D01*
X84389521Y-35751382D01*
X84471826Y-35744977D01*
X84499611Y-35747922D01*
G37*
G36*
X41069103Y-34547762D02*
G01*
X41143775Y-34551675D01*
X41169100Y-34558272D01*
X41192053Y-34560684D01*
X41264734Y-34583182D01*
X41340370Y-34602884D01*
X41360705Y-34612890D01*
X41379393Y-34618675D01*
X41449533Y-34656600D01*
X41522652Y-34692579D01*
X41537784Y-34704317D01*
X41551898Y-34711948D01*
X41616171Y-34765120D01*
X41683176Y-34817094D01*
X41693362Y-34828978D01*
X41703008Y-34836958D01*
X41758124Y-34904537D01*
X41815384Y-34971343D01*
X41821270Y-34981961D01*
X41826950Y-34988926D01*
X41869779Y-35069476D01*
X41913875Y-35149027D01*
X41916455Y-35157258D01*
X41919021Y-35162085D01*
X41946773Y-35254003D01*
X41974627Y-35342885D01*
X41975144Y-35347971D01*
X41975703Y-35349824D01*
X41986023Y-35455080D01*
X41990000Y-35494230D01*
X41990000Y-36890705D01*
X41972827Y-37054090D01*
X41953218Y-37115905D01*
X41948106Y-37148929D01*
X41928015Y-37195357D01*
X41913584Y-37240850D01*
X41888895Y-37285759D01*
X41867424Y-37335376D01*
X41840401Y-37373969D01*
X41819107Y-37412702D01*
X41783898Y-37454663D01*
X41750899Y-37501790D01*
X41719207Y-37531760D01*
X41693053Y-37562929D01*
X41647608Y-37599467D01*
X41603292Y-37641375D01*
X41569176Y-37662528D01*
X41540211Y-37685816D01*
X41485402Y-37714470D01*
X41430631Y-37748429D01*
X41396243Y-37761081D01*
X41366419Y-37776673D01*
X41303681Y-37795137D01*
X41239971Y-37818578D01*
X41207188Y-37823536D01*
X41178290Y-37832041D01*
X41109644Y-37838288D01*
X41039101Y-37848957D01*
X41009474Y-37847404D01*
X40982986Y-37849815D01*
X40910897Y-37842238D01*
X40836225Y-37838325D01*
X40810900Y-37831728D01*
X40787947Y-37829316D01*
X40715266Y-37806818D01*
X40639630Y-37787116D01*
X40619295Y-37777110D01*
X40600607Y-37771325D01*
X40530467Y-37733400D01*
X40457348Y-37697421D01*
X40442216Y-37685683D01*
X40428102Y-37678052D01*
X40363829Y-37624880D01*
X40296824Y-37572906D01*
X40286638Y-37561022D01*
X40276992Y-37553042D01*
X40221876Y-37485463D01*
X40164616Y-37418657D01*
X40158730Y-37408039D01*
X40153050Y-37401074D01*
X40110220Y-37320522D01*
X40066125Y-37240972D01*
X40063545Y-37232741D01*
X40060979Y-37227914D01*
X40033227Y-37135996D01*
X40005373Y-37047114D01*
X40004856Y-37042028D01*
X40004297Y-37040175D01*
X39993977Y-36934919D01*
X39990000Y-36895769D01*
X39990000Y-35499295D01*
X40007174Y-35335910D01*
X40026783Y-35274095D01*
X40031895Y-35241071D01*
X40051986Y-35194643D01*
X40066417Y-35149150D01*
X40091106Y-35104241D01*
X40112577Y-35054624D01*
X40139600Y-35016031D01*
X40160894Y-34977298D01*
X40196103Y-34935337D01*
X40229102Y-34888210D01*
X40260794Y-34858240D01*
X40286948Y-34827071D01*
X40332393Y-34790533D01*
X40376709Y-34748625D01*
X40410826Y-34727472D01*
X40439790Y-34704184D01*
X40494595Y-34675532D01*
X40549369Y-34641571D01*
X40583760Y-34628917D01*
X40613582Y-34613327D01*
X40676316Y-34594864D01*
X40740029Y-34571422D01*
X40772812Y-34566464D01*
X40801710Y-34557959D01*
X40870356Y-34551712D01*
X40940899Y-34541043D01*
X40970526Y-34542596D01*
X40997014Y-34540185D01*
X41069103Y-34547762D01*
G37*
G36*
X38014421Y-35395106D02*
G01*
X38085323Y-35395601D01*
X38104743Y-35400156D01*
X38121431Y-35401089D01*
X38188187Y-35419728D01*
X38260059Y-35436585D01*
X38275450Y-35444092D01*
X38288846Y-35447832D01*
X38352365Y-35481606D01*
X38421374Y-35515264D01*
X38432519Y-35524225D01*
X38442316Y-35529434D01*
X38499038Y-35577708D01*
X38561248Y-35627726D01*
X38568374Y-35636716D01*
X38574689Y-35642091D01*
X38621185Y-35703348D01*
X38672731Y-35768382D01*
X38676466Y-35776178D01*
X38679778Y-35780541D01*
X38712849Y-35852113D01*
X38750282Y-35930242D01*
X38751572Y-35935918D01*
X38752685Y-35938328D01*
X38769661Y-36015538D01*
X38790045Y-36105261D01*
X38789984Y-36109598D01*
X38789364Y-36287580D01*
X38787377Y-36296327D01*
X38787227Y-36307043D01*
X38767379Y-36384348D01*
X38750874Y-36456993D01*
X38746148Y-36467036D01*
X38742593Y-36480883D01*
X38707510Y-36549147D01*
X38676868Y-36614265D01*
X38668378Y-36625290D01*
X38660553Y-36640515D01*
X38613123Y-36697040D01*
X38570813Y-36751980D01*
X38558002Y-36762730D01*
X38545186Y-36778003D01*
X38488734Y-36820853D01*
X38437661Y-36863708D01*
X38420355Y-36872755D01*
X38402226Y-36886516D01*
X38340299Y-36914607D01*
X38283624Y-36944236D01*
X38262077Y-36950090D01*
X38238778Y-36960659D01*
X38174960Y-36973759D01*
X38115883Y-36989810D01*
X38090790Y-36991037D01*
X38062965Y-36996749D01*
X38000685Y-36995444D01*
X37942279Y-36998301D01*
X37914745Y-36993644D01*
X37883525Y-36992990D01*
X37825835Y-36978606D01*
X37770890Y-36969313D01*
X37742408Y-36957805D01*
X37709378Y-36949570D01*
X37658841Y-36924042D01*
X37609731Y-36904200D01*
X37582080Y-36885267D01*
X37549178Y-36868647D01*
X37507733Y-36834361D01*
X37466310Y-36805998D01*
X37441459Y-36779535D01*
X37410887Y-36754243D01*
X37379791Y-36713864D01*
X37347324Y-36679290D01*
X37327309Y-36645715D01*
X37301379Y-36612044D01*
X37281187Y-36568344D01*
X37258323Y-36529990D01*
X37245106Y-36490258D01*
X37226096Y-36449117D01*
X37216673Y-36404786D01*
X37203457Y-36365057D01*
X37198790Y-36320653D01*
X37188780Y-36273560D01*
X37189373Y-36231059D01*
X37185288Y-36192188D01*
X37190574Y-36145060D01*
X37191286Y-36094099D01*
X37200617Y-36055529D01*
X37204663Y-36019459D01*
X37220839Y-35971943D01*
X37233489Y-35919653D01*
X37249881Y-35886632D01*
X37260679Y-35854912D01*
X37288114Y-35809611D01*
X37313292Y-35758891D01*
X37334811Y-35732506D01*
X37350722Y-35706234D01*
X37389147Y-35665883D01*
X37426728Y-35619805D01*
X37451334Y-35600580D01*
X37470589Y-35580361D01*
X37519069Y-35547660D01*
X37568159Y-35509307D01*
X37593856Y-35497215D01*
X37614690Y-35483162D01*
X37671617Y-35460623D01*
X37730556Y-35432889D01*
X37755545Y-35427395D01*
X37776301Y-35419177D01*
X37839412Y-35408955D01*
X37905848Y-35394348D01*
X37928617Y-35394507D01*
X37947886Y-35391386D01*
X38014421Y-35395106D01*
G37*
G36*
X101645132Y-34132684D02*
G01*
X101667345Y-34131598D01*
X101736176Y-34142253D01*
X101808151Y-34149818D01*
X101829179Y-34156650D01*
X101848032Y-34159569D01*
X101916305Y-34184960D01*
X101988079Y-34208281D01*
X102004491Y-34217757D01*
X102019405Y-34223303D01*
X102083884Y-34263594D01*
X102151920Y-34302874D01*
X102163653Y-34313438D01*
X102174461Y-34320192D01*
X102231861Y-34374854D01*
X102292514Y-34429466D01*
X102299934Y-34439679D01*
X102306869Y-34446283D01*
X102353974Y-34514059D01*
X102403716Y-34582522D01*
X102407563Y-34591163D01*
X102411217Y-34596420D01*
X102445072Y-34675409D01*
X102480665Y-34755353D01*
X102481973Y-34761505D01*
X102483246Y-34764476D01*
X102501316Y-34852507D01*
X102520000Y-34940406D01*
X102520000Y-35129594D01*
X102519331Y-35132741D01*
X102519331Y-35132789D01*
X102481335Y-35311548D01*
X102481313Y-35311598D01*
X102480665Y-35314647D01*
X102444148Y-35396665D01*
X102408137Y-35479092D01*
X102406274Y-35481734D01*
X102403716Y-35487478D01*
X102352291Y-35558258D01*
X102302742Y-35628498D01*
X102298074Y-35632882D01*
X102292514Y-35640534D01*
X102229616Y-35697168D01*
X102169458Y-35753660D01*
X102161305Y-35758676D01*
X102151920Y-35767126D01*
X102081211Y-35807949D01*
X102013725Y-35849467D01*
X102001752Y-35853825D01*
X101988079Y-35861719D01*
X101913362Y-35885997D01*
X101841918Y-35912000D01*
X101826180Y-35914324D01*
X101808151Y-35920182D01*
X101733073Y-35928073D01*
X101661038Y-35938710D01*
X101641994Y-35937645D01*
X101620000Y-35939957D01*
X101548016Y-35932391D01*
X101478483Y-35928504D01*
X101456984Y-35922824D01*
X101431849Y-35920182D01*
X101365980Y-35898780D01*
X101301707Y-35881798D01*
X101278950Y-35870501D01*
X101251921Y-35861719D01*
X101194663Y-35828661D01*
X101137938Y-35800503D01*
X101115424Y-35782913D01*
X101088080Y-35767126D01*
X101041264Y-35724973D01*
X100993861Y-35687937D01*
X100973298Y-35663776D01*
X100947486Y-35640534D01*
X100912285Y-35592085D01*
X100875355Y-35548691D01*
X100858553Y-35518128D01*
X100836284Y-35487478D01*
X100813207Y-35435646D01*
X100787273Y-35388473D01*
X100776022Y-35352127D01*
X100759335Y-35314647D01*
X100748190Y-35262215D01*
X100733207Y-35213812D01*
X100729187Y-35172815D01*
X100720000Y-35129594D01*
X100720000Y-35079121D01*
X100715364Y-35031841D01*
X100720000Y-34987732D01*
X100720000Y-34940406D01*
X100729839Y-34894116D01*
X100734476Y-34850002D01*
X100748844Y-34804710D01*
X100759335Y-34755353D01*
X100777303Y-34714996D01*
X100789760Y-34675727D01*
X100814478Y-34631498D01*
X100836284Y-34582522D01*
X100860404Y-34549324D01*
X100878962Y-34516118D01*
X100914136Y-34475369D01*
X100947486Y-34429466D01*
X100975636Y-34404120D01*
X100998431Y-34377711D01*
X101043584Y-34342939D01*
X101088080Y-34302874D01*
X101118160Y-34285507D01*
X101143295Y-34266151D01*
X101197358Y-34239783D01*
X101251921Y-34208281D01*
X101281954Y-34198523D01*
X101307631Y-34185999D01*
X101368952Y-34170255D01*
X101431849Y-34149818D01*
X101460124Y-34146846D01*
X101484725Y-34140530D01*
X101551117Y-34137283D01*
X101620000Y-34130043D01*
X101645132Y-34132684D01*
G37*
G36*
X98245132Y-34132684D02*
G01*
X98267345Y-34131598D01*
X98336176Y-34142253D01*
X98408151Y-34149818D01*
X98429179Y-34156650D01*
X98448032Y-34159569D01*
X98516305Y-34184960D01*
X98588079Y-34208281D01*
X98604491Y-34217757D01*
X98619405Y-34223303D01*
X98683884Y-34263594D01*
X98751920Y-34302874D01*
X98763653Y-34313438D01*
X98774461Y-34320192D01*
X98831861Y-34374854D01*
X98892514Y-34429466D01*
X98899934Y-34439679D01*
X98906869Y-34446283D01*
X98953974Y-34514059D01*
X99003716Y-34582522D01*
X99007563Y-34591163D01*
X99011217Y-34596420D01*
X99045072Y-34675409D01*
X99080665Y-34755353D01*
X99081973Y-34761505D01*
X99083246Y-34764476D01*
X99101316Y-34852507D01*
X99120000Y-34940406D01*
X99120000Y-35129594D01*
X99119331Y-35132741D01*
X99119331Y-35132789D01*
X99081335Y-35311548D01*
X99081313Y-35311598D01*
X99080665Y-35314647D01*
X99044148Y-35396665D01*
X99008137Y-35479092D01*
X99006274Y-35481734D01*
X99003716Y-35487478D01*
X98952291Y-35558258D01*
X98902742Y-35628498D01*
X98898074Y-35632882D01*
X98892514Y-35640534D01*
X98829616Y-35697168D01*
X98769458Y-35753660D01*
X98761305Y-35758676D01*
X98751920Y-35767126D01*
X98681211Y-35807949D01*
X98613725Y-35849467D01*
X98601752Y-35853825D01*
X98588079Y-35861719D01*
X98513362Y-35885997D01*
X98441918Y-35912000D01*
X98426180Y-35914324D01*
X98408151Y-35920182D01*
X98333073Y-35928073D01*
X98261038Y-35938710D01*
X98241994Y-35937645D01*
X98220000Y-35939957D01*
X98148016Y-35932391D01*
X98078483Y-35928504D01*
X98056984Y-35922824D01*
X98031849Y-35920182D01*
X97965980Y-35898780D01*
X97901707Y-35881798D01*
X97878950Y-35870501D01*
X97851921Y-35861719D01*
X97794663Y-35828661D01*
X97737938Y-35800503D01*
X97715424Y-35782913D01*
X97688080Y-35767126D01*
X97641264Y-35724973D01*
X97593861Y-35687937D01*
X97573298Y-35663776D01*
X97547486Y-35640534D01*
X97512285Y-35592085D01*
X97475355Y-35548691D01*
X97458553Y-35518128D01*
X97436284Y-35487478D01*
X97413207Y-35435646D01*
X97387273Y-35388473D01*
X97376022Y-35352127D01*
X97359335Y-35314647D01*
X97348190Y-35262215D01*
X97333207Y-35213812D01*
X97329187Y-35172815D01*
X97320000Y-35129594D01*
X97320000Y-35079121D01*
X97315364Y-35031841D01*
X97320000Y-34987732D01*
X97320000Y-34940406D01*
X97329839Y-34894116D01*
X97334476Y-34850002D01*
X97348844Y-34804710D01*
X97359335Y-34755353D01*
X97377303Y-34714996D01*
X97389760Y-34675727D01*
X97414478Y-34631498D01*
X97436284Y-34582522D01*
X97460404Y-34549324D01*
X97478962Y-34516118D01*
X97514136Y-34475369D01*
X97547486Y-34429466D01*
X97575636Y-34404120D01*
X97598431Y-34377711D01*
X97643584Y-34342939D01*
X97688080Y-34302874D01*
X97718160Y-34285507D01*
X97743295Y-34266151D01*
X97797358Y-34239783D01*
X97851921Y-34208281D01*
X97881954Y-34198523D01*
X97907631Y-34185999D01*
X97968952Y-34170255D01*
X98031849Y-34149818D01*
X98060124Y-34146846D01*
X98084725Y-34140530D01*
X98151117Y-34137283D01*
X98220000Y-34130043D01*
X98245132Y-34132684D01*
G37*
G36*
X40949090Y-30712173D02*
G01*
X41010905Y-30731782D01*
X41043929Y-30736894D01*
X41090357Y-30756985D01*
X41135850Y-30771416D01*
X41180759Y-30796105D01*
X41230376Y-30817576D01*
X41268969Y-30844599D01*
X41307702Y-30865893D01*
X41349663Y-30901102D01*
X41396790Y-30934101D01*
X41426760Y-30965793D01*
X41457929Y-30991947D01*
X41494467Y-31037392D01*
X41536375Y-31081708D01*
X41557528Y-31115825D01*
X41580816Y-31144789D01*
X41609468Y-31199594D01*
X41643429Y-31254368D01*
X41656083Y-31288759D01*
X41671673Y-31318581D01*
X41690136Y-31381315D01*
X41713578Y-31445028D01*
X41718536Y-31477811D01*
X41727041Y-31506709D01*
X41733288Y-31575354D01*
X41743957Y-31645898D01*
X41742404Y-31675525D01*
X41744815Y-31702014D01*
X41737238Y-31774104D01*
X41733325Y-31848775D01*
X41726728Y-31874100D01*
X41724316Y-31897053D01*
X41701818Y-31969734D01*
X41682116Y-32045370D01*
X41672110Y-32065705D01*
X41666325Y-32084393D01*
X41628400Y-32154533D01*
X41592421Y-32227652D01*
X41580683Y-32242784D01*
X41573052Y-32256898D01*
X41519880Y-32321171D01*
X41467906Y-32388176D01*
X41456022Y-32398362D01*
X41448042Y-32408008D01*
X41380463Y-32463124D01*
X41313657Y-32520384D01*
X41303039Y-32526270D01*
X41296074Y-32531950D01*
X41215524Y-32574779D01*
X41135973Y-32618875D01*
X41127742Y-32621455D01*
X41122915Y-32624021D01*
X41030997Y-32651773D01*
X40942115Y-32679627D01*
X40937029Y-32680144D01*
X40935176Y-32680703D01*
X40829920Y-32691023D01*
X40790770Y-32695000D01*
X39194295Y-32695000D01*
X39030910Y-32677827D01*
X38969095Y-32658218D01*
X38936071Y-32653106D01*
X38889643Y-32633015D01*
X38844150Y-32618584D01*
X38799241Y-32593895D01*
X38749624Y-32572424D01*
X38711031Y-32545401D01*
X38672298Y-32524107D01*
X38630337Y-32488898D01*
X38583210Y-32455899D01*
X38553240Y-32424207D01*
X38522071Y-32398053D01*
X38485533Y-32352608D01*
X38443625Y-32308292D01*
X38422472Y-32274175D01*
X38399184Y-32245211D01*
X38370532Y-32190406D01*
X38336571Y-32135632D01*
X38323917Y-32101241D01*
X38308327Y-32071419D01*
X38289864Y-32008685D01*
X38266422Y-31944972D01*
X38261464Y-31912189D01*
X38252959Y-31883291D01*
X38246712Y-31814646D01*
X38236043Y-31744102D01*
X38237596Y-31714475D01*
X38235185Y-31687986D01*
X38242762Y-31615896D01*
X38246675Y-31541225D01*
X38253272Y-31515900D01*
X38255684Y-31492947D01*
X38278182Y-31420266D01*
X38297884Y-31344630D01*
X38307890Y-31324295D01*
X38313675Y-31305607D01*
X38351600Y-31235467D01*
X38387579Y-31162348D01*
X38399317Y-31147216D01*
X38406948Y-31133102D01*
X38460120Y-31068829D01*
X38512094Y-31001824D01*
X38523978Y-30991638D01*
X38531958Y-30981992D01*
X38599537Y-30926876D01*
X38666343Y-30869616D01*
X38676961Y-30863730D01*
X38683926Y-30858050D01*
X38764476Y-30815221D01*
X38844027Y-30771125D01*
X38852258Y-30768545D01*
X38857085Y-30765979D01*
X38949003Y-30738227D01*
X39037885Y-30710373D01*
X39042971Y-30709856D01*
X39044824Y-30709297D01*
X39150080Y-30698977D01*
X39189230Y-30695000D01*
X40785705Y-30695000D01*
X40949090Y-30712173D01*
G37*
M02*
