M48
; DRILL file {KiCad (5.99.0-269-g375c4bd3f)} date Monday, November 11, 2019 at 03:55:58 PM
; FORMAT={-:-/ absolute / metric / decimal}
; #@! TF.CreationDate,2019-11-11T15:55:58-08:00
; #@! TF.GenerationSoftware,Kicad,Pcbnew,(5.99.0-269-g375c4bd3f)
FMAT,2
METRIC
T1C0.400
T2C0.800
T3C0.813
T4C0.889
T5C0.900
T6C1.000
T7C1.100
T8C1.200
T9C1.600
T10C3.200
T11C3.200
%
G90
G05
T1
X46.99Y-95.25
X49.53Y-80.01
X49.53Y-96.52
X50.165Y-99.06
X50.165Y-101.6
X50.165Y-104.14
X50.165Y-106.68
X50.165Y-109.22
X53.34Y-69.85
X53.34Y-88.9
X53.34Y-95.25
X55.245Y-84.455
X55.245Y-102.87
X57.785Y-125.73
X60.325Y-114.3
X60.325Y-124.46
X62.748Y-109.22
X65.9Y-129.54
X69.567Y-127.0
X70.485Y-134.62
X71.403Y-128.771
X71.755Y-112.395
X72.635Y-118.11
X73.965Y-121.92
X74.274Y-125.102
X74.295Y-86.995
X74.295Y-90.805
X74.295Y-93.98
X74.295Y-107.315
X74.315Y-96.54
X74.93Y-128.788
X76.2Y-131.445
X78.74Y-113.03
X79.375Y-128.905
X79.375Y-132.715
X81.28Y-129.54
X83.582Y-105.172
X85.725Y-106.68
X88.265Y-132.715
X88.9Y-78.74
X88.9Y-80.01
X88.9Y-81.28
X88.9Y-91.44
X88.9Y-92.71
X88.9Y-93.98
X89.535Y-71.12
X90.17Y-70.485
X90.17Y-71.755
X90.17Y-78.74
X90.17Y-80.01
X90.17Y-81.28
X90.17Y-91.44
X90.17Y-92.71
X90.17Y-93.98
X90.805Y-71.12
X91.44Y-78.74
X91.44Y-80.01
X91.44Y-81.28
X91.44Y-91.44
X91.44Y-92.71
X91.44Y-93.98
X92.71Y-78.74
X92.71Y-80.01
X92.71Y-81.28
X92.71Y-91.44
X92.71Y-92.71
X92.71Y-93.98
X93.345Y-106.68
X93.98Y-107.95
X94.615Y-128.27
X97.79Y-78.74
X97.79Y-80.01
X97.79Y-81.28
X97.79Y-91.44
X97.79Y-92.71
X97.79Y-93.98
X99.06Y-78.74
X99.06Y-80.01
X99.06Y-81.28
X99.06Y-91.44
X99.06Y-92.71
X99.06Y-93.98
X100.33Y-78.74
X100.33Y-80.01
X100.33Y-81.28
X100.33Y-91.44
X100.33Y-92.71
X100.33Y-93.98
X101.6Y-78.74
X101.6Y-80.01
X101.6Y-81.28
X101.6Y-91.44
X101.6Y-92.71
X101.6Y-93.98
X102.235Y-68.58
X102.87Y-67.945
X102.87Y-69.215
X103.505Y-68.58
X104.14Y-105.718
X106.68Y-85.09
X106.68Y-86.36
X106.68Y-87.63
X106.68Y-97.79
X106.68Y-99.06
X106.68Y-100.33
X107.95Y-85.09
X107.95Y-86.36
X107.95Y-87.63
X107.95Y-97.79
X107.95Y-99.06
X107.95Y-100.33
X108.585Y-108.585
X109.22Y-85.09
X109.22Y-86.36
X109.22Y-87.63
X109.22Y-97.79
X109.22Y-99.06
X109.22Y-100.33
X110.49Y-85.09
X110.49Y-86.36
X110.49Y-87.63
X110.49Y-97.79
X110.49Y-99.06
X110.49Y-100.33
X111.76Y-113.03
X114.3Y-107.315
X114.935Y-78.74
X114.935Y-80.01
X114.935Y-81.28
X114.935Y-91.44
X114.935Y-92.71
X114.935Y-93.98
X116.205Y-78.74
X116.205Y-80.01
X116.205Y-81.28
X116.205Y-91.44
X116.205Y-92.71
X116.205Y-93.98
X117.475Y-78.74
X117.475Y-80.01
X117.475Y-81.28
X117.475Y-91.44
X117.475Y-92.71
X117.475Y-93.98
X118.745Y-78.74
X118.745Y-80.01
X118.745Y-81.28
X118.745Y-91.44
X118.745Y-92.71
X118.745Y-93.98
X119.38Y-115.57
X123.19Y-101.6
X123.19Y-123.19
X125.095Y-115.57
X126.365Y-108.585
X128.27Y-101.6
X132.08Y-113.03
T2
X60.73Y-86.36
X60.73Y-88.9
X60.73Y-91.44
X60.73Y-93.98
X60.73Y-96.52
X60.73Y-99.06
X60.73Y-101.6
X60.73Y-104.14
X60.73Y-106.68
X68.35Y-86.36
X68.35Y-88.9
X68.35Y-91.44
X68.35Y-93.98
X68.35Y-96.52
X68.35Y-99.06
X68.35Y-101.6
X68.35Y-104.14
X68.35Y-106.68
X40.41Y-99.08
X40.41Y-101.62
X40.41Y-104.16
X40.41Y-106.7
X40.41Y-109.24
X48.03Y-99.08
X48.03Y-101.62
X48.03Y-104.16
X48.03Y-106.7
X48.03Y-109.24
X100.33Y-49.53
X100.33Y-72.43
X102.235Y-125.095
X107.235Y-125.095
X88.265Y-125.095
X93.265Y-125.095
T3
X64.77Y-39.37
X131.445Y-60.325
T4
X46.99Y-116.205
X46.99Y-118.745
X49.53Y-117.475
X49.53Y-120.015
X46.99Y-128.905
X46.99Y-131.445
X49.53Y-130.175
X49.53Y-132.715
T5
X40.41Y-92.095
X40.41Y-94.635
X40.41Y-87.015
X40.41Y-89.555
X40.41Y-81.935
X40.41Y-84.475
X40.41Y-76.855
X40.41Y-79.395
X40.41Y-71.775
X40.41Y-74.315
X40.41Y-66.695
X40.41Y-69.235
T6
X123.825Y-37.465
X126.365Y-37.465
X128.905Y-37.465
X78.74Y-91.46
X78.74Y-94.0
X78.74Y-96.54
X78.74Y-99.08
X78.74Y-101.62
T7
X96.52Y-38.735
X98.22Y-35.035
X99.92Y-38.735
X101.62Y-35.035
X103.32Y-38.735
T8
X84.455Y-36.95
X84.455Y-44.45
X40.41Y-46.375
X40.41Y-51.455
X40.41Y-56.535
X40.41Y-61.615
X122.555Y-53.34
X122.555Y-60.84
T9
X37.99Y-36.195
T10
X40.64Y-114.3
X40.64Y-121.92
X40.64Y-127.0
X40.64Y-134.62
X130.81Y-133.35
T11
X66.04Y-57.15
X57.15Y-133.35
T6
G00X40.74Y-31.695
M15
G01X39.24Y-31.695
M16
G05
G00X40.74Y-40.695
M15
G01X39.24Y-40.695
M16
G05
G00X40.99Y-35.545
M15
G01X40.99Y-36.845
M16
G05
G00X46.99Y-35.195
M15
G01X46.99Y-37.195
M16
G05
T0
M30
