G04 #@! TF.GenerationSoftware,KiCad,Pcbnew,(5.99.0-269-g375c4bd3f)*
G04 #@! TF.CreationDate,2019-11-11T15:55:51-08:00*
G04 #@! TF.ProjectId,DCC_Booster,4443435f-426f-46f7-9374-65722e6b6963,n/c*
G04 #@! TF.SameCoordinates,Original*
G04 #@! TF.FileFunction,Copper,L1,Top*
G04 #@! TF.FilePolarity,Positive*
%FSLAX46Y46*%
G04 Gerber Fmt 4.6, Leading zero omitted, Abs format (unit mm)*
G04 Created by KiCad (PCBNEW (5.99.0-269-g375c4bd3f)) date 2019-11-11 15:55:51*
%MOMM*%
%LPD*%
G04 APERTURE LIST*
%ADD10C,3.600000*%
%ADD11C,1.397000*%
%ADD12R,5.800000X6.400000*%
%ADD13R,1.200000X2.200000*%
%ADD14R,1.500000X0.400000*%
%ADD15O,2.400000X1.600000*%
%ADD16R,2.400000X1.600000*%
%ADD17O,1.500000X2.300000*%
%ADD18R,1.500000X2.300000*%
%ADD19O,1.800000X1.800000*%
%ADD20R,1.800000X1.800000*%
%ADD21O,1.600000X1.600000*%
%ADD22R,1.600000X1.600000*%
%ADD23C,1.600000*%
%ADD24O,1.700000X1.700000*%
%ADD25R,1.700000X1.700000*%
%ADD26O,3.600000X1.800000*%
%ADD27C,1.800000*%
%ADD28R,1.800000X2.500000*%
%ADD29R,6.400000X5.800000*%
%ADD30R,2.200000X1.200000*%
%ADD31C,2.400000*%
%ADD32R,2.400000X2.400000*%
%ADD33O,3.500000X2.000000*%
%ADD34O,2.000000X3.300000*%
%ADD35R,2.000000X4.000000*%
%ADD36C,0.800000*%
%ADD37C,1.574800*%
%ADD38C,0.635000*%
%ADD39C,0.508000*%
%ADD40C,1.270000*%
%ADD41C,2.540000*%
%ADD42C,0.304800*%
%ADD43C,1.016000*%
G04 APERTURE END LIST*
D10*
X40640000Y-134620000D03*
X40640000Y-127000000D03*
D11*
X46990000Y-128905000D03*
X49530000Y-130175000D03*
X46990000Y-131445000D03*
X49530000Y-132715000D03*
X49530000Y-120015000D03*
X46990000Y-118745000D03*
X49530000Y-117475000D03*
X46990000Y-116205000D03*
D10*
X40640000Y-114300000D03*
X40640000Y-121920000D03*
G04 #@! TA.AperFunction,SMDPad,CuDef*
G36*
X62950671Y-118269030D02*
G01*
X63031777Y-118323223D01*
X63085970Y-118404329D01*
X63105000Y-118500000D01*
X63105000Y-119425000D01*
X63085970Y-119520671D01*
X63031777Y-119601777D01*
X62950671Y-119655970D01*
X62855000Y-119675000D01*
X61605000Y-119675000D01*
X61509329Y-119655970D01*
X61428223Y-119601777D01*
X61374030Y-119520671D01*
X61355000Y-119425000D01*
X61355000Y-118500000D01*
X61374030Y-118404329D01*
X61428223Y-118323223D01*
X61509329Y-118269030D01*
X61605000Y-118250000D01*
X62855000Y-118250000D01*
X62950671Y-118269030D01*
G37*
G04 #@! TD.AperFunction*
G04 #@! TA.AperFunction,SMDPad,CuDef*
G36*
X62950671Y-115294030D02*
G01*
X63031777Y-115348223D01*
X63085970Y-115429329D01*
X63105000Y-115525000D01*
X63105000Y-116450000D01*
X63085970Y-116545671D01*
X63031777Y-116626777D01*
X62950671Y-116680970D01*
X62855000Y-116700000D01*
X61605000Y-116700000D01*
X61509329Y-116680970D01*
X61428223Y-116626777D01*
X61374030Y-116545671D01*
X61355000Y-116450000D01*
X61355000Y-115525000D01*
X61374030Y-115429329D01*
X61428223Y-115348223D01*
X61509329Y-115294030D01*
X61605000Y-115275000D01*
X62855000Y-115275000D01*
X62950671Y-115294030D01*
G37*
G04 #@! TD.AperFunction*
D12*
X116860000Y-81315000D03*
D13*
X119140000Y-87615000D03*
X114580000Y-87615000D03*
X88545000Y-87615000D03*
X93105000Y-87615000D03*
D12*
X90825000Y-81315000D03*
X116860000Y-94015000D03*
D13*
X119140000Y-100315000D03*
X114580000Y-100315000D03*
X88545000Y-100315000D03*
X93105000Y-100315000D03*
D12*
X90825000Y-94015000D03*
D14*
X76260000Y-111745000D03*
X76260000Y-113045000D03*
X73600000Y-113045000D03*
X73600000Y-112395000D03*
X73600000Y-111745000D03*
G04 #@! TA.AperFunction,SMDPad,CuDef*
G36*
X117047403Y-111496418D02*
G01*
X117096066Y-111528934D01*
X117128582Y-111577597D01*
X117140000Y-111635000D01*
X117140000Y-113285000D01*
X117128582Y-113342403D01*
X117096066Y-113391066D01*
X117047403Y-113423582D01*
X116990000Y-113435000D01*
X116690000Y-113435000D01*
X116632597Y-113423582D01*
X116583934Y-113391066D01*
X116551418Y-113342403D01*
X116540000Y-113285000D01*
X116540000Y-111635000D01*
X116551418Y-111577597D01*
X116583934Y-111528934D01*
X116632597Y-111496418D01*
X116690000Y-111485000D01*
X116990000Y-111485000D01*
X117047403Y-111496418D01*
G37*
G04 #@! TD.AperFunction*
G04 #@! TA.AperFunction,SMDPad,CuDef*
G36*
X118317403Y-111496418D02*
G01*
X118366066Y-111528934D01*
X118398582Y-111577597D01*
X118410000Y-111635000D01*
X118410000Y-113285000D01*
X118398582Y-113342403D01*
X118366066Y-113391066D01*
X118317403Y-113423582D01*
X118260000Y-113435000D01*
X117960000Y-113435000D01*
X117902597Y-113423582D01*
X117853934Y-113391066D01*
X117821418Y-113342403D01*
X117810000Y-113285000D01*
X117810000Y-111635000D01*
X117821418Y-111577597D01*
X117853934Y-111528934D01*
X117902597Y-111496418D01*
X117960000Y-111485000D01*
X118260000Y-111485000D01*
X118317403Y-111496418D01*
G37*
G04 #@! TD.AperFunction*
G04 #@! TA.AperFunction,SMDPad,CuDef*
G36*
X119587403Y-111496418D02*
G01*
X119636066Y-111528934D01*
X119668582Y-111577597D01*
X119680000Y-111635000D01*
X119680000Y-113285000D01*
X119668582Y-113342403D01*
X119636066Y-113391066D01*
X119587403Y-113423582D01*
X119530000Y-113435000D01*
X119230000Y-113435000D01*
X119172597Y-113423582D01*
X119123934Y-113391066D01*
X119091418Y-113342403D01*
X119080000Y-113285000D01*
X119080000Y-111635000D01*
X119091418Y-111577597D01*
X119123934Y-111528934D01*
X119172597Y-111496418D01*
X119230000Y-111485000D01*
X119530000Y-111485000D01*
X119587403Y-111496418D01*
G37*
G04 #@! TD.AperFunction*
G04 #@! TA.AperFunction,SMDPad,CuDef*
G36*
X120857403Y-111496418D02*
G01*
X120906066Y-111528934D01*
X120938582Y-111577597D01*
X120950000Y-111635000D01*
X120950000Y-113285000D01*
X120938582Y-113342403D01*
X120906066Y-113391066D01*
X120857403Y-113423582D01*
X120800000Y-113435000D01*
X120500000Y-113435000D01*
X120442597Y-113423582D01*
X120393934Y-113391066D01*
X120361418Y-113342403D01*
X120350000Y-113285000D01*
X120350000Y-111635000D01*
X120361418Y-111577597D01*
X120393934Y-111528934D01*
X120442597Y-111496418D01*
X120500000Y-111485000D01*
X120800000Y-111485000D01*
X120857403Y-111496418D01*
G37*
G04 #@! TD.AperFunction*
G04 #@! TA.AperFunction,SMDPad,CuDef*
G36*
X120857403Y-116446418D02*
G01*
X120906066Y-116478934D01*
X120938582Y-116527597D01*
X120950000Y-116585000D01*
X120950000Y-118235000D01*
X120938582Y-118292403D01*
X120906066Y-118341066D01*
X120857403Y-118373582D01*
X120800000Y-118385000D01*
X120500000Y-118385000D01*
X120442597Y-118373582D01*
X120393934Y-118341066D01*
X120361418Y-118292403D01*
X120350000Y-118235000D01*
X120350000Y-116585000D01*
X120361418Y-116527597D01*
X120393934Y-116478934D01*
X120442597Y-116446418D01*
X120500000Y-116435000D01*
X120800000Y-116435000D01*
X120857403Y-116446418D01*
G37*
G04 #@! TD.AperFunction*
G04 #@! TA.AperFunction,SMDPad,CuDef*
G36*
X119587403Y-116446418D02*
G01*
X119636066Y-116478934D01*
X119668582Y-116527597D01*
X119680000Y-116585000D01*
X119680000Y-118235000D01*
X119668582Y-118292403D01*
X119636066Y-118341066D01*
X119587403Y-118373582D01*
X119530000Y-118385000D01*
X119230000Y-118385000D01*
X119172597Y-118373582D01*
X119123934Y-118341066D01*
X119091418Y-118292403D01*
X119080000Y-118235000D01*
X119080000Y-116585000D01*
X119091418Y-116527597D01*
X119123934Y-116478934D01*
X119172597Y-116446418D01*
X119230000Y-116435000D01*
X119530000Y-116435000D01*
X119587403Y-116446418D01*
G37*
G04 #@! TD.AperFunction*
G04 #@! TA.AperFunction,SMDPad,CuDef*
G36*
X118317403Y-116446418D02*
G01*
X118366066Y-116478934D01*
X118398582Y-116527597D01*
X118410000Y-116585000D01*
X118410000Y-118235000D01*
X118398582Y-118292403D01*
X118366066Y-118341066D01*
X118317403Y-118373582D01*
X118260000Y-118385000D01*
X117960000Y-118385000D01*
X117902597Y-118373582D01*
X117853934Y-118341066D01*
X117821418Y-118292403D01*
X117810000Y-118235000D01*
X117810000Y-116585000D01*
X117821418Y-116527597D01*
X117853934Y-116478934D01*
X117902597Y-116446418D01*
X117960000Y-116435000D01*
X118260000Y-116435000D01*
X118317403Y-116446418D01*
G37*
G04 #@! TD.AperFunction*
G04 #@! TA.AperFunction,SMDPad,CuDef*
G36*
X117047403Y-116446418D02*
G01*
X117096066Y-116478934D01*
X117128582Y-116527597D01*
X117140000Y-116585000D01*
X117140000Y-118235000D01*
X117128582Y-118292403D01*
X117096066Y-118341066D01*
X117047403Y-118373582D01*
X116990000Y-118385000D01*
X116690000Y-118385000D01*
X116632597Y-118373582D01*
X116583934Y-118341066D01*
X116551418Y-118292403D01*
X116540000Y-118235000D01*
X116540000Y-116585000D01*
X116551418Y-116527597D01*
X116583934Y-116478934D01*
X116632597Y-116446418D01*
X116690000Y-116435000D01*
X116990000Y-116435000D01*
X117047403Y-116446418D01*
G37*
G04 #@! TD.AperFunction*
X69910000Y-125080000D03*
X69910000Y-126380000D03*
X67250000Y-126380000D03*
X67250000Y-125730000D03*
X67250000Y-125080000D03*
D15*
X68350000Y-86360000D03*
X60730000Y-106680000D03*
X68350000Y-88900000D03*
X60730000Y-104140000D03*
X68350000Y-91440000D03*
X60730000Y-101600000D03*
X68350000Y-93980000D03*
X60730000Y-99060000D03*
X68350000Y-96520000D03*
X60730000Y-96520000D03*
X68350000Y-99060000D03*
X60730000Y-93980000D03*
X68350000Y-101600000D03*
X60730000Y-91440000D03*
X68350000Y-104140000D03*
X60730000Y-88900000D03*
X68350000Y-106680000D03*
D16*
X60730000Y-86360000D03*
G04 #@! TA.AperFunction,SMDPad,CuDef*
G36*
X71937403Y-115281418D02*
G01*
X71986066Y-115313934D01*
X72018582Y-115362597D01*
X72030000Y-115420000D01*
X72030000Y-115720000D01*
X72018582Y-115777403D01*
X71986066Y-115826066D01*
X71937403Y-115858582D01*
X71880000Y-115870000D01*
X70230000Y-115870000D01*
X70172597Y-115858582D01*
X70123934Y-115826066D01*
X70091418Y-115777403D01*
X70080000Y-115720000D01*
X70080000Y-115420000D01*
X70091418Y-115362597D01*
X70123934Y-115313934D01*
X70172597Y-115281418D01*
X70230000Y-115270000D01*
X71880000Y-115270000D01*
X71937403Y-115281418D01*
G37*
G04 #@! TD.AperFunction*
G04 #@! TA.AperFunction,SMDPad,CuDef*
G36*
X71937403Y-116551418D02*
G01*
X71986066Y-116583934D01*
X72018582Y-116632597D01*
X72030000Y-116690000D01*
X72030000Y-116990000D01*
X72018582Y-117047403D01*
X71986066Y-117096066D01*
X71937403Y-117128582D01*
X71880000Y-117140000D01*
X70230000Y-117140000D01*
X70172597Y-117128582D01*
X70123934Y-117096066D01*
X70091418Y-117047403D01*
X70080000Y-116990000D01*
X70080000Y-116690000D01*
X70091418Y-116632597D01*
X70123934Y-116583934D01*
X70172597Y-116551418D01*
X70230000Y-116540000D01*
X71880000Y-116540000D01*
X71937403Y-116551418D01*
G37*
G04 #@! TD.AperFunction*
G04 #@! TA.AperFunction,SMDPad,CuDef*
G36*
X71937403Y-117821418D02*
G01*
X71986066Y-117853934D01*
X72018582Y-117902597D01*
X72030000Y-117960000D01*
X72030000Y-118260000D01*
X72018582Y-118317403D01*
X71986066Y-118366066D01*
X71937403Y-118398582D01*
X71880000Y-118410000D01*
X70230000Y-118410000D01*
X70172597Y-118398582D01*
X70123934Y-118366066D01*
X70091418Y-118317403D01*
X70080000Y-118260000D01*
X70080000Y-117960000D01*
X70091418Y-117902597D01*
X70123934Y-117853934D01*
X70172597Y-117821418D01*
X70230000Y-117810000D01*
X71880000Y-117810000D01*
X71937403Y-117821418D01*
G37*
G04 #@! TD.AperFunction*
G04 #@! TA.AperFunction,SMDPad,CuDef*
G36*
X71937403Y-119091418D02*
G01*
X71986066Y-119123934D01*
X72018582Y-119172597D01*
X72030000Y-119230000D01*
X72030000Y-119530000D01*
X72018582Y-119587403D01*
X71986066Y-119636066D01*
X71937403Y-119668582D01*
X71880000Y-119680000D01*
X70230000Y-119680000D01*
X70172597Y-119668582D01*
X70123934Y-119636066D01*
X70091418Y-119587403D01*
X70080000Y-119530000D01*
X70080000Y-119230000D01*
X70091418Y-119172597D01*
X70123934Y-119123934D01*
X70172597Y-119091418D01*
X70230000Y-119080000D01*
X71880000Y-119080000D01*
X71937403Y-119091418D01*
G37*
G04 #@! TD.AperFunction*
G04 #@! TA.AperFunction,SMDPad,CuDef*
G36*
X66987403Y-119091418D02*
G01*
X67036066Y-119123934D01*
X67068582Y-119172597D01*
X67080000Y-119230000D01*
X67080000Y-119530000D01*
X67068582Y-119587403D01*
X67036066Y-119636066D01*
X66987403Y-119668582D01*
X66930000Y-119680000D01*
X65280000Y-119680000D01*
X65222597Y-119668582D01*
X65173934Y-119636066D01*
X65141418Y-119587403D01*
X65130000Y-119530000D01*
X65130000Y-119230000D01*
X65141418Y-119172597D01*
X65173934Y-119123934D01*
X65222597Y-119091418D01*
X65280000Y-119080000D01*
X66930000Y-119080000D01*
X66987403Y-119091418D01*
G37*
G04 #@! TD.AperFunction*
G04 #@! TA.AperFunction,SMDPad,CuDef*
G36*
X66987403Y-117821418D02*
G01*
X67036066Y-117853934D01*
X67068582Y-117902597D01*
X67080000Y-117960000D01*
X67080000Y-118260000D01*
X67068582Y-118317403D01*
X67036066Y-118366066D01*
X66987403Y-118398582D01*
X66930000Y-118410000D01*
X65280000Y-118410000D01*
X65222597Y-118398582D01*
X65173934Y-118366066D01*
X65141418Y-118317403D01*
X65130000Y-118260000D01*
X65130000Y-117960000D01*
X65141418Y-117902597D01*
X65173934Y-117853934D01*
X65222597Y-117821418D01*
X65280000Y-117810000D01*
X66930000Y-117810000D01*
X66987403Y-117821418D01*
G37*
G04 #@! TD.AperFunction*
G04 #@! TA.AperFunction,SMDPad,CuDef*
G36*
X66987403Y-116551418D02*
G01*
X67036066Y-116583934D01*
X67068582Y-116632597D01*
X67080000Y-116690000D01*
X67080000Y-116990000D01*
X67068582Y-117047403D01*
X67036066Y-117096066D01*
X66987403Y-117128582D01*
X66930000Y-117140000D01*
X65280000Y-117140000D01*
X65222597Y-117128582D01*
X65173934Y-117096066D01*
X65141418Y-117047403D01*
X65130000Y-116990000D01*
X65130000Y-116690000D01*
X65141418Y-116632597D01*
X65173934Y-116583934D01*
X65222597Y-116551418D01*
X65280000Y-116540000D01*
X66930000Y-116540000D01*
X66987403Y-116551418D01*
G37*
G04 #@! TD.AperFunction*
G04 #@! TA.AperFunction,SMDPad,CuDef*
G36*
X66987403Y-115281418D02*
G01*
X67036066Y-115313934D01*
X67068582Y-115362597D01*
X67080000Y-115420000D01*
X67080000Y-115720000D01*
X67068582Y-115777403D01*
X67036066Y-115826066D01*
X66987403Y-115858582D01*
X66930000Y-115870000D01*
X65280000Y-115870000D01*
X65222597Y-115858582D01*
X65173934Y-115826066D01*
X65141418Y-115777403D01*
X65130000Y-115720000D01*
X65130000Y-115420000D01*
X65141418Y-115362597D01*
X65173934Y-115313934D01*
X65222597Y-115281418D01*
X65280000Y-115270000D01*
X66930000Y-115270000D01*
X66987403Y-115281418D01*
G37*
G04 #@! TD.AperFunction*
D14*
X69910000Y-129525000D03*
X69910000Y-130825000D03*
X67250000Y-130825000D03*
X67250000Y-130175000D03*
X67250000Y-129525000D03*
G04 #@! TA.AperFunction,SMDPad,CuDef*
G36*
X103077403Y-112361418D02*
G01*
X103126066Y-112393934D01*
X103158582Y-112442597D01*
X103170000Y-112500000D01*
X103170000Y-114150000D01*
X103158582Y-114207403D01*
X103126066Y-114256066D01*
X103077403Y-114288582D01*
X103020000Y-114300000D01*
X102720000Y-114300000D01*
X102662597Y-114288582D01*
X102613934Y-114256066D01*
X102581418Y-114207403D01*
X102570000Y-114150000D01*
X102570000Y-112500000D01*
X102581418Y-112442597D01*
X102613934Y-112393934D01*
X102662597Y-112361418D01*
X102720000Y-112350000D01*
X103020000Y-112350000D01*
X103077403Y-112361418D01*
G37*
G04 #@! TD.AperFunction*
G04 #@! TA.AperFunction,SMDPad,CuDef*
G36*
X104347403Y-112361418D02*
G01*
X104396066Y-112393934D01*
X104428582Y-112442597D01*
X104440000Y-112500000D01*
X104440000Y-114150000D01*
X104428582Y-114207403D01*
X104396066Y-114256066D01*
X104347403Y-114288582D01*
X104290000Y-114300000D01*
X103990000Y-114300000D01*
X103932597Y-114288582D01*
X103883934Y-114256066D01*
X103851418Y-114207403D01*
X103840000Y-114150000D01*
X103840000Y-112500000D01*
X103851418Y-112442597D01*
X103883934Y-112393934D01*
X103932597Y-112361418D01*
X103990000Y-112350000D01*
X104290000Y-112350000D01*
X104347403Y-112361418D01*
G37*
G04 #@! TD.AperFunction*
G04 #@! TA.AperFunction,SMDPad,CuDef*
G36*
X105617403Y-112361418D02*
G01*
X105666066Y-112393934D01*
X105698582Y-112442597D01*
X105710000Y-112500000D01*
X105710000Y-114150000D01*
X105698582Y-114207403D01*
X105666066Y-114256066D01*
X105617403Y-114288582D01*
X105560000Y-114300000D01*
X105260000Y-114300000D01*
X105202597Y-114288582D01*
X105153934Y-114256066D01*
X105121418Y-114207403D01*
X105110000Y-114150000D01*
X105110000Y-112500000D01*
X105121418Y-112442597D01*
X105153934Y-112393934D01*
X105202597Y-112361418D01*
X105260000Y-112350000D01*
X105560000Y-112350000D01*
X105617403Y-112361418D01*
G37*
G04 #@! TD.AperFunction*
G04 #@! TA.AperFunction,SMDPad,CuDef*
G36*
X106887403Y-112361418D02*
G01*
X106936066Y-112393934D01*
X106968582Y-112442597D01*
X106980000Y-112500000D01*
X106980000Y-114150000D01*
X106968582Y-114207403D01*
X106936066Y-114256066D01*
X106887403Y-114288582D01*
X106830000Y-114300000D01*
X106530000Y-114300000D01*
X106472597Y-114288582D01*
X106423934Y-114256066D01*
X106391418Y-114207403D01*
X106380000Y-114150000D01*
X106380000Y-112500000D01*
X106391418Y-112442597D01*
X106423934Y-112393934D01*
X106472597Y-112361418D01*
X106530000Y-112350000D01*
X106830000Y-112350000D01*
X106887403Y-112361418D01*
G37*
G04 #@! TD.AperFunction*
G04 #@! TA.AperFunction,SMDPad,CuDef*
G36*
X106887403Y-117311418D02*
G01*
X106936066Y-117343934D01*
X106968582Y-117392597D01*
X106980000Y-117450000D01*
X106980000Y-119100000D01*
X106968582Y-119157403D01*
X106936066Y-119206066D01*
X106887403Y-119238582D01*
X106830000Y-119250000D01*
X106530000Y-119250000D01*
X106472597Y-119238582D01*
X106423934Y-119206066D01*
X106391418Y-119157403D01*
X106380000Y-119100000D01*
X106380000Y-117450000D01*
X106391418Y-117392597D01*
X106423934Y-117343934D01*
X106472597Y-117311418D01*
X106530000Y-117300000D01*
X106830000Y-117300000D01*
X106887403Y-117311418D01*
G37*
G04 #@! TD.AperFunction*
G04 #@! TA.AperFunction,SMDPad,CuDef*
G36*
X105617403Y-117311418D02*
G01*
X105666066Y-117343934D01*
X105698582Y-117392597D01*
X105710000Y-117450000D01*
X105710000Y-119100000D01*
X105698582Y-119157403D01*
X105666066Y-119206066D01*
X105617403Y-119238582D01*
X105560000Y-119250000D01*
X105260000Y-119250000D01*
X105202597Y-119238582D01*
X105153934Y-119206066D01*
X105121418Y-119157403D01*
X105110000Y-119100000D01*
X105110000Y-117450000D01*
X105121418Y-117392597D01*
X105153934Y-117343934D01*
X105202597Y-117311418D01*
X105260000Y-117300000D01*
X105560000Y-117300000D01*
X105617403Y-117311418D01*
G37*
G04 #@! TD.AperFunction*
G04 #@! TA.AperFunction,SMDPad,CuDef*
G36*
X104347403Y-117311418D02*
G01*
X104396066Y-117343934D01*
X104428582Y-117392597D01*
X104440000Y-117450000D01*
X104440000Y-119100000D01*
X104428582Y-119157403D01*
X104396066Y-119206066D01*
X104347403Y-119238582D01*
X104290000Y-119250000D01*
X103990000Y-119250000D01*
X103932597Y-119238582D01*
X103883934Y-119206066D01*
X103851418Y-119157403D01*
X103840000Y-119100000D01*
X103840000Y-117450000D01*
X103851418Y-117392597D01*
X103883934Y-117343934D01*
X103932597Y-117311418D01*
X103990000Y-117300000D01*
X104290000Y-117300000D01*
X104347403Y-117311418D01*
G37*
G04 #@! TD.AperFunction*
G04 #@! TA.AperFunction,SMDPad,CuDef*
G36*
X103077403Y-117311418D02*
G01*
X103126066Y-117343934D01*
X103158582Y-117392597D01*
X103170000Y-117450000D01*
X103170000Y-119100000D01*
X103158582Y-119157403D01*
X103126066Y-119206066D01*
X103077403Y-119238582D01*
X103020000Y-119250000D01*
X102720000Y-119250000D01*
X102662597Y-119238582D01*
X102613934Y-119206066D01*
X102581418Y-119157403D01*
X102570000Y-119100000D01*
X102570000Y-117450000D01*
X102581418Y-117392597D01*
X102613934Y-117343934D01*
X102662597Y-117311418D01*
X102720000Y-117300000D01*
X103020000Y-117300000D01*
X103077403Y-117311418D01*
G37*
G04 #@! TD.AperFunction*
G04 #@! TA.AperFunction,SMDPad,CuDef*
G36*
X89107403Y-112361418D02*
G01*
X89156066Y-112393934D01*
X89188582Y-112442597D01*
X89200000Y-112500000D01*
X89200000Y-114150000D01*
X89188582Y-114207403D01*
X89156066Y-114256066D01*
X89107403Y-114288582D01*
X89050000Y-114300000D01*
X88750000Y-114300000D01*
X88692597Y-114288582D01*
X88643934Y-114256066D01*
X88611418Y-114207403D01*
X88600000Y-114150000D01*
X88600000Y-112500000D01*
X88611418Y-112442597D01*
X88643934Y-112393934D01*
X88692597Y-112361418D01*
X88750000Y-112350000D01*
X89050000Y-112350000D01*
X89107403Y-112361418D01*
G37*
G04 #@! TD.AperFunction*
G04 #@! TA.AperFunction,SMDPad,CuDef*
G36*
X90377403Y-112361418D02*
G01*
X90426066Y-112393934D01*
X90458582Y-112442597D01*
X90470000Y-112500000D01*
X90470000Y-114150000D01*
X90458582Y-114207403D01*
X90426066Y-114256066D01*
X90377403Y-114288582D01*
X90320000Y-114300000D01*
X90020000Y-114300000D01*
X89962597Y-114288582D01*
X89913934Y-114256066D01*
X89881418Y-114207403D01*
X89870000Y-114150000D01*
X89870000Y-112500000D01*
X89881418Y-112442597D01*
X89913934Y-112393934D01*
X89962597Y-112361418D01*
X90020000Y-112350000D01*
X90320000Y-112350000D01*
X90377403Y-112361418D01*
G37*
G04 #@! TD.AperFunction*
G04 #@! TA.AperFunction,SMDPad,CuDef*
G36*
X91647403Y-112361418D02*
G01*
X91696066Y-112393934D01*
X91728582Y-112442597D01*
X91740000Y-112500000D01*
X91740000Y-114150000D01*
X91728582Y-114207403D01*
X91696066Y-114256066D01*
X91647403Y-114288582D01*
X91590000Y-114300000D01*
X91290000Y-114300000D01*
X91232597Y-114288582D01*
X91183934Y-114256066D01*
X91151418Y-114207403D01*
X91140000Y-114150000D01*
X91140000Y-112500000D01*
X91151418Y-112442597D01*
X91183934Y-112393934D01*
X91232597Y-112361418D01*
X91290000Y-112350000D01*
X91590000Y-112350000D01*
X91647403Y-112361418D01*
G37*
G04 #@! TD.AperFunction*
G04 #@! TA.AperFunction,SMDPad,CuDef*
G36*
X92917403Y-112361418D02*
G01*
X92966066Y-112393934D01*
X92998582Y-112442597D01*
X93010000Y-112500000D01*
X93010000Y-114150000D01*
X92998582Y-114207403D01*
X92966066Y-114256066D01*
X92917403Y-114288582D01*
X92860000Y-114300000D01*
X92560000Y-114300000D01*
X92502597Y-114288582D01*
X92453934Y-114256066D01*
X92421418Y-114207403D01*
X92410000Y-114150000D01*
X92410000Y-112500000D01*
X92421418Y-112442597D01*
X92453934Y-112393934D01*
X92502597Y-112361418D01*
X92560000Y-112350000D01*
X92860000Y-112350000D01*
X92917403Y-112361418D01*
G37*
G04 #@! TD.AperFunction*
G04 #@! TA.AperFunction,SMDPad,CuDef*
G36*
X92917403Y-117311418D02*
G01*
X92966066Y-117343934D01*
X92998582Y-117392597D01*
X93010000Y-117450000D01*
X93010000Y-119100000D01*
X92998582Y-119157403D01*
X92966066Y-119206066D01*
X92917403Y-119238582D01*
X92860000Y-119250000D01*
X92560000Y-119250000D01*
X92502597Y-119238582D01*
X92453934Y-119206066D01*
X92421418Y-119157403D01*
X92410000Y-119100000D01*
X92410000Y-117450000D01*
X92421418Y-117392597D01*
X92453934Y-117343934D01*
X92502597Y-117311418D01*
X92560000Y-117300000D01*
X92860000Y-117300000D01*
X92917403Y-117311418D01*
G37*
G04 #@! TD.AperFunction*
G04 #@! TA.AperFunction,SMDPad,CuDef*
G36*
X91647403Y-117311418D02*
G01*
X91696066Y-117343934D01*
X91728582Y-117392597D01*
X91740000Y-117450000D01*
X91740000Y-119100000D01*
X91728582Y-119157403D01*
X91696066Y-119206066D01*
X91647403Y-119238582D01*
X91590000Y-119250000D01*
X91290000Y-119250000D01*
X91232597Y-119238582D01*
X91183934Y-119206066D01*
X91151418Y-119157403D01*
X91140000Y-119100000D01*
X91140000Y-117450000D01*
X91151418Y-117392597D01*
X91183934Y-117343934D01*
X91232597Y-117311418D01*
X91290000Y-117300000D01*
X91590000Y-117300000D01*
X91647403Y-117311418D01*
G37*
G04 #@! TD.AperFunction*
G04 #@! TA.AperFunction,SMDPad,CuDef*
G36*
X90377403Y-117311418D02*
G01*
X90426066Y-117343934D01*
X90458582Y-117392597D01*
X90470000Y-117450000D01*
X90470000Y-119100000D01*
X90458582Y-119157403D01*
X90426066Y-119206066D01*
X90377403Y-119238582D01*
X90320000Y-119250000D01*
X90020000Y-119250000D01*
X89962597Y-119238582D01*
X89913934Y-119206066D01*
X89881418Y-119157403D01*
X89870000Y-119100000D01*
X89870000Y-117450000D01*
X89881418Y-117392597D01*
X89913934Y-117343934D01*
X89962597Y-117311418D01*
X90020000Y-117300000D01*
X90320000Y-117300000D01*
X90377403Y-117311418D01*
G37*
G04 #@! TD.AperFunction*
G04 #@! TA.AperFunction,SMDPad,CuDef*
G36*
X89107403Y-117311418D02*
G01*
X89156066Y-117343934D01*
X89188582Y-117392597D01*
X89200000Y-117450000D01*
X89200000Y-119100000D01*
X89188582Y-119157403D01*
X89156066Y-119206066D01*
X89107403Y-119238582D01*
X89050000Y-119250000D01*
X88750000Y-119250000D01*
X88692597Y-119238582D01*
X88643934Y-119206066D01*
X88611418Y-119157403D01*
X88600000Y-119100000D01*
X88600000Y-117450000D01*
X88611418Y-117392597D01*
X88643934Y-117343934D01*
X88692597Y-117311418D01*
X88750000Y-117300000D01*
X89050000Y-117300000D01*
X89107403Y-117311418D01*
G37*
G04 #@! TD.AperFunction*
G04 #@! TA.AperFunction,SMDPad,CuDef*
G36*
X78922403Y-124806418D02*
G01*
X78971066Y-124838934D01*
X79003582Y-124887597D01*
X79015000Y-124945000D01*
X79015000Y-125245000D01*
X79003582Y-125302403D01*
X78971066Y-125351066D01*
X78922403Y-125383582D01*
X78865000Y-125395000D01*
X77215000Y-125395000D01*
X77157597Y-125383582D01*
X77108934Y-125351066D01*
X77076418Y-125302403D01*
X77065000Y-125245000D01*
X77065000Y-124945000D01*
X77076418Y-124887597D01*
X77108934Y-124838934D01*
X77157597Y-124806418D01*
X77215000Y-124795000D01*
X78865000Y-124795000D01*
X78922403Y-124806418D01*
G37*
G04 #@! TD.AperFunction*
G04 #@! TA.AperFunction,SMDPad,CuDef*
G36*
X78922403Y-126076418D02*
G01*
X78971066Y-126108934D01*
X79003582Y-126157597D01*
X79015000Y-126215000D01*
X79015000Y-126515000D01*
X79003582Y-126572403D01*
X78971066Y-126621066D01*
X78922403Y-126653582D01*
X78865000Y-126665000D01*
X77215000Y-126665000D01*
X77157597Y-126653582D01*
X77108934Y-126621066D01*
X77076418Y-126572403D01*
X77065000Y-126515000D01*
X77065000Y-126215000D01*
X77076418Y-126157597D01*
X77108934Y-126108934D01*
X77157597Y-126076418D01*
X77215000Y-126065000D01*
X78865000Y-126065000D01*
X78922403Y-126076418D01*
G37*
G04 #@! TD.AperFunction*
G04 #@! TA.AperFunction,SMDPad,CuDef*
G36*
X78922403Y-127346418D02*
G01*
X78971066Y-127378934D01*
X79003582Y-127427597D01*
X79015000Y-127485000D01*
X79015000Y-127785000D01*
X79003582Y-127842403D01*
X78971066Y-127891066D01*
X78922403Y-127923582D01*
X78865000Y-127935000D01*
X77215000Y-127935000D01*
X77157597Y-127923582D01*
X77108934Y-127891066D01*
X77076418Y-127842403D01*
X77065000Y-127785000D01*
X77065000Y-127485000D01*
X77076418Y-127427597D01*
X77108934Y-127378934D01*
X77157597Y-127346418D01*
X77215000Y-127335000D01*
X78865000Y-127335000D01*
X78922403Y-127346418D01*
G37*
G04 #@! TD.AperFunction*
G04 #@! TA.AperFunction,SMDPad,CuDef*
G36*
X78922403Y-128616418D02*
G01*
X78971066Y-128648934D01*
X79003582Y-128697597D01*
X79015000Y-128755000D01*
X79015000Y-129055000D01*
X79003582Y-129112403D01*
X78971066Y-129161066D01*
X78922403Y-129193582D01*
X78865000Y-129205000D01*
X77215000Y-129205000D01*
X77157597Y-129193582D01*
X77108934Y-129161066D01*
X77076418Y-129112403D01*
X77065000Y-129055000D01*
X77065000Y-128755000D01*
X77076418Y-128697597D01*
X77108934Y-128648934D01*
X77157597Y-128616418D01*
X77215000Y-128605000D01*
X78865000Y-128605000D01*
X78922403Y-128616418D01*
G37*
G04 #@! TD.AperFunction*
G04 #@! TA.AperFunction,SMDPad,CuDef*
G36*
X78922403Y-129886418D02*
G01*
X78971066Y-129918934D01*
X79003582Y-129967597D01*
X79015000Y-130025000D01*
X79015000Y-130325000D01*
X79003582Y-130382403D01*
X78971066Y-130431066D01*
X78922403Y-130463582D01*
X78865000Y-130475000D01*
X77215000Y-130475000D01*
X77157597Y-130463582D01*
X77108934Y-130431066D01*
X77076418Y-130382403D01*
X77065000Y-130325000D01*
X77065000Y-130025000D01*
X77076418Y-129967597D01*
X77108934Y-129918934D01*
X77157597Y-129886418D01*
X77215000Y-129875000D01*
X78865000Y-129875000D01*
X78922403Y-129886418D01*
G37*
G04 #@! TD.AperFunction*
G04 #@! TA.AperFunction,SMDPad,CuDef*
G36*
X78922403Y-131156418D02*
G01*
X78971066Y-131188934D01*
X79003582Y-131237597D01*
X79015000Y-131295000D01*
X79015000Y-131595000D01*
X79003582Y-131652403D01*
X78971066Y-131701066D01*
X78922403Y-131733582D01*
X78865000Y-131745000D01*
X77215000Y-131745000D01*
X77157597Y-131733582D01*
X77108934Y-131701066D01*
X77076418Y-131652403D01*
X77065000Y-131595000D01*
X77065000Y-131295000D01*
X77076418Y-131237597D01*
X77108934Y-131188934D01*
X77157597Y-131156418D01*
X77215000Y-131145000D01*
X78865000Y-131145000D01*
X78922403Y-131156418D01*
G37*
G04 #@! TD.AperFunction*
G04 #@! TA.AperFunction,SMDPad,CuDef*
G36*
X78922403Y-132426418D02*
G01*
X78971066Y-132458934D01*
X79003582Y-132507597D01*
X79015000Y-132565000D01*
X79015000Y-132865000D01*
X79003582Y-132922403D01*
X78971066Y-132971066D01*
X78922403Y-133003582D01*
X78865000Y-133015000D01*
X77215000Y-133015000D01*
X77157597Y-133003582D01*
X77108934Y-132971066D01*
X77076418Y-132922403D01*
X77065000Y-132865000D01*
X77065000Y-132565000D01*
X77076418Y-132507597D01*
X77108934Y-132458934D01*
X77157597Y-132426418D01*
X77215000Y-132415000D01*
X78865000Y-132415000D01*
X78922403Y-132426418D01*
G37*
G04 #@! TD.AperFunction*
G04 #@! TA.AperFunction,SMDPad,CuDef*
G36*
X73972403Y-132426418D02*
G01*
X74021066Y-132458934D01*
X74053582Y-132507597D01*
X74065000Y-132565000D01*
X74065000Y-132865000D01*
X74053582Y-132922403D01*
X74021066Y-132971066D01*
X73972403Y-133003582D01*
X73915000Y-133015000D01*
X72265000Y-133015000D01*
X72207597Y-133003582D01*
X72158934Y-132971066D01*
X72126418Y-132922403D01*
X72115000Y-132865000D01*
X72115000Y-132565000D01*
X72126418Y-132507597D01*
X72158934Y-132458934D01*
X72207597Y-132426418D01*
X72265000Y-132415000D01*
X73915000Y-132415000D01*
X73972403Y-132426418D01*
G37*
G04 #@! TD.AperFunction*
G04 #@! TA.AperFunction,SMDPad,CuDef*
G36*
X73972403Y-131156418D02*
G01*
X74021066Y-131188934D01*
X74053582Y-131237597D01*
X74065000Y-131295000D01*
X74065000Y-131595000D01*
X74053582Y-131652403D01*
X74021066Y-131701066D01*
X73972403Y-131733582D01*
X73915000Y-131745000D01*
X72265000Y-131745000D01*
X72207597Y-131733582D01*
X72158934Y-131701066D01*
X72126418Y-131652403D01*
X72115000Y-131595000D01*
X72115000Y-131295000D01*
X72126418Y-131237597D01*
X72158934Y-131188934D01*
X72207597Y-131156418D01*
X72265000Y-131145000D01*
X73915000Y-131145000D01*
X73972403Y-131156418D01*
G37*
G04 #@! TD.AperFunction*
G04 #@! TA.AperFunction,SMDPad,CuDef*
G36*
X73972403Y-129886418D02*
G01*
X74021066Y-129918934D01*
X74053582Y-129967597D01*
X74065000Y-130025000D01*
X74065000Y-130325000D01*
X74053582Y-130382403D01*
X74021066Y-130431066D01*
X73972403Y-130463582D01*
X73915000Y-130475000D01*
X72265000Y-130475000D01*
X72207597Y-130463582D01*
X72158934Y-130431066D01*
X72126418Y-130382403D01*
X72115000Y-130325000D01*
X72115000Y-130025000D01*
X72126418Y-129967597D01*
X72158934Y-129918934D01*
X72207597Y-129886418D01*
X72265000Y-129875000D01*
X73915000Y-129875000D01*
X73972403Y-129886418D01*
G37*
G04 #@! TD.AperFunction*
G04 #@! TA.AperFunction,SMDPad,CuDef*
G36*
X73972403Y-128616418D02*
G01*
X74021066Y-128648934D01*
X74053582Y-128697597D01*
X74065000Y-128755000D01*
X74065000Y-129055000D01*
X74053582Y-129112403D01*
X74021066Y-129161066D01*
X73972403Y-129193582D01*
X73915000Y-129205000D01*
X72265000Y-129205000D01*
X72207597Y-129193582D01*
X72158934Y-129161066D01*
X72126418Y-129112403D01*
X72115000Y-129055000D01*
X72115000Y-128755000D01*
X72126418Y-128697597D01*
X72158934Y-128648934D01*
X72207597Y-128616418D01*
X72265000Y-128605000D01*
X73915000Y-128605000D01*
X73972403Y-128616418D01*
G37*
G04 #@! TD.AperFunction*
G04 #@! TA.AperFunction,SMDPad,CuDef*
G36*
X73972403Y-127346418D02*
G01*
X74021066Y-127378934D01*
X74053582Y-127427597D01*
X74065000Y-127485000D01*
X74065000Y-127785000D01*
X74053582Y-127842403D01*
X74021066Y-127891066D01*
X73972403Y-127923582D01*
X73915000Y-127935000D01*
X72265000Y-127935000D01*
X72207597Y-127923582D01*
X72158934Y-127891066D01*
X72126418Y-127842403D01*
X72115000Y-127785000D01*
X72115000Y-127485000D01*
X72126418Y-127427597D01*
X72158934Y-127378934D01*
X72207597Y-127346418D01*
X72265000Y-127335000D01*
X73915000Y-127335000D01*
X73972403Y-127346418D01*
G37*
G04 #@! TD.AperFunction*
G04 #@! TA.AperFunction,SMDPad,CuDef*
G36*
X73972403Y-126076418D02*
G01*
X74021066Y-126108934D01*
X74053582Y-126157597D01*
X74065000Y-126215000D01*
X74065000Y-126515000D01*
X74053582Y-126572403D01*
X74021066Y-126621066D01*
X73972403Y-126653582D01*
X73915000Y-126665000D01*
X72265000Y-126665000D01*
X72207597Y-126653582D01*
X72158934Y-126621066D01*
X72126418Y-126572403D01*
X72115000Y-126515000D01*
X72115000Y-126215000D01*
X72126418Y-126157597D01*
X72158934Y-126108934D01*
X72207597Y-126076418D01*
X72265000Y-126065000D01*
X73915000Y-126065000D01*
X73972403Y-126076418D01*
G37*
G04 #@! TD.AperFunction*
G04 #@! TA.AperFunction,SMDPad,CuDef*
G36*
X73972403Y-124806418D02*
G01*
X74021066Y-124838934D01*
X74053582Y-124887597D01*
X74065000Y-124945000D01*
X74065000Y-125245000D01*
X74053582Y-125302403D01*
X74021066Y-125351066D01*
X73972403Y-125383582D01*
X73915000Y-125395000D01*
X72265000Y-125395000D01*
X72207597Y-125383582D01*
X72158934Y-125351066D01*
X72126418Y-125302403D01*
X72115000Y-125245000D01*
X72115000Y-124945000D01*
X72126418Y-124887597D01*
X72158934Y-124838934D01*
X72207597Y-124806418D01*
X72265000Y-124795000D01*
X73915000Y-124795000D01*
X73972403Y-124806418D01*
G37*
G04 #@! TD.AperFunction*
D17*
X128905000Y-37465000D03*
X126365000Y-37465000D03*
D18*
X123825000Y-37465000D03*
D19*
X103320000Y-38735000D03*
X101620000Y-35035000D03*
X99920000Y-38735000D03*
X98220000Y-35035000D03*
D20*
X96520000Y-38735000D03*
G04 #@! TA.AperFunction,SMDPad,CuDef*
G36*
X55530000Y-63775000D02*
G01*
X53230000Y-63775000D01*
X53830000Y-60175000D01*
X54930000Y-60175000D01*
X55530000Y-63775000D01*
G37*
G04 #@! TD.AperFunction*
G04 #@! TA.AperFunction,SMDPad,CuDef*
G36*
X53230000Y-54375000D02*
G01*
X55530000Y-54375000D01*
X54930000Y-57975000D01*
X53830000Y-57975000D01*
X53230000Y-54375000D01*
G37*
G04 #@! TD.AperFunction*
D21*
X48030000Y-99080000D03*
X40410000Y-109240000D03*
X48030000Y-101620000D03*
X40410000Y-106700000D03*
X48030000Y-104160000D03*
X40410000Y-104160000D03*
X48030000Y-106700000D03*
X40410000Y-101620000D03*
X48030000Y-109240000D03*
D22*
X40410000Y-99080000D03*
G04 #@! TA.AperFunction,SMDPad,CuDef*
G36*
X116115671Y-119704030D02*
G01*
X116196777Y-119758223D01*
X116250970Y-119839329D01*
X116270000Y-119934999D01*
X116270000Y-120585001D01*
X116250970Y-120680671D01*
X116196777Y-120761777D01*
X116115671Y-120815970D01*
X116020001Y-120835000D01*
X115119999Y-120835000D01*
X115024329Y-120815970D01*
X114943223Y-120761777D01*
X114889030Y-120680671D01*
X114870000Y-120585001D01*
X114870000Y-119934999D01*
X114889030Y-119839329D01*
X114943223Y-119758223D01*
X115024329Y-119704030D01*
X115119999Y-119685000D01*
X116020001Y-119685000D01*
X116115671Y-119704030D01*
G37*
G04 #@! TD.AperFunction*
G04 #@! TA.AperFunction,SMDPad,CuDef*
G36*
X116115671Y-121754030D02*
G01*
X116196777Y-121808223D01*
X116250970Y-121889329D01*
X116270000Y-121984999D01*
X116270000Y-122635001D01*
X116250970Y-122730671D01*
X116196777Y-122811777D01*
X116115671Y-122865970D01*
X116020001Y-122885000D01*
X115119999Y-122885000D01*
X115024329Y-122865970D01*
X114943223Y-122811777D01*
X114889030Y-122730671D01*
X114870000Y-122635001D01*
X114870000Y-121984999D01*
X114889030Y-121889329D01*
X114943223Y-121808223D01*
X115024329Y-121754030D01*
X115119999Y-121735000D01*
X116020001Y-121735000D01*
X116115671Y-121754030D01*
G37*
G04 #@! TD.AperFunction*
G04 #@! TA.AperFunction,SMDPad,CuDef*
G36*
X118655671Y-119704030D02*
G01*
X118736777Y-119758223D01*
X118790970Y-119839329D01*
X118810000Y-119934999D01*
X118810000Y-120585001D01*
X118790970Y-120680671D01*
X118736777Y-120761777D01*
X118655671Y-120815970D01*
X118560001Y-120835000D01*
X117659999Y-120835000D01*
X117564329Y-120815970D01*
X117483223Y-120761777D01*
X117429030Y-120680671D01*
X117410000Y-120585001D01*
X117410000Y-119934999D01*
X117429030Y-119839329D01*
X117483223Y-119758223D01*
X117564329Y-119704030D01*
X117659999Y-119685000D01*
X118560001Y-119685000D01*
X118655671Y-119704030D01*
G37*
G04 #@! TD.AperFunction*
G04 #@! TA.AperFunction,SMDPad,CuDef*
G36*
X118655671Y-121754030D02*
G01*
X118736777Y-121808223D01*
X118790970Y-121889329D01*
X118810000Y-121984999D01*
X118810000Y-122635001D01*
X118790970Y-122730671D01*
X118736777Y-122811777D01*
X118655671Y-122865970D01*
X118560001Y-122885000D01*
X117659999Y-122885000D01*
X117564329Y-122865970D01*
X117483223Y-122811777D01*
X117429030Y-122730671D01*
X117410000Y-122635001D01*
X117410000Y-121984999D01*
X117429030Y-121889329D01*
X117483223Y-121808223D01*
X117564329Y-121754030D01*
X117659999Y-121735000D01*
X118560001Y-121735000D01*
X118655671Y-121754030D01*
G37*
G04 #@! TD.AperFunction*
G04 #@! TA.AperFunction,SMDPad,CuDef*
G36*
X121195671Y-119704030D02*
G01*
X121276777Y-119758223D01*
X121330970Y-119839329D01*
X121350000Y-119934999D01*
X121350000Y-120585001D01*
X121330970Y-120680671D01*
X121276777Y-120761777D01*
X121195671Y-120815970D01*
X121100001Y-120835000D01*
X120199999Y-120835000D01*
X120104329Y-120815970D01*
X120023223Y-120761777D01*
X119969030Y-120680671D01*
X119950000Y-120585001D01*
X119950000Y-119934999D01*
X119969030Y-119839329D01*
X120023223Y-119758223D01*
X120104329Y-119704030D01*
X120199999Y-119685000D01*
X121100001Y-119685000D01*
X121195671Y-119704030D01*
G37*
G04 #@! TD.AperFunction*
G04 #@! TA.AperFunction,SMDPad,CuDef*
G36*
X121195671Y-121754030D02*
G01*
X121276777Y-121808223D01*
X121330970Y-121889329D01*
X121350000Y-121984999D01*
X121350000Y-122635001D01*
X121330970Y-122730671D01*
X121276777Y-122811777D01*
X121195671Y-122865970D01*
X121100001Y-122885000D01*
X120199999Y-122885000D01*
X120104329Y-122865970D01*
X120023223Y-122811777D01*
X119969030Y-122730671D01*
X119950000Y-122635001D01*
X119950000Y-121984999D01*
X119969030Y-121889329D01*
X120023223Y-121808223D01*
X120104329Y-121754030D01*
X120199999Y-121735000D01*
X121100001Y-121735000D01*
X121195671Y-121754030D01*
G37*
G04 #@! TD.AperFunction*
G04 #@! TA.AperFunction,SMDPad,CuDef*
G36*
X123735671Y-103829030D02*
G01*
X123816777Y-103883223D01*
X123870970Y-103964329D01*
X123890000Y-104059999D01*
X123890000Y-104710001D01*
X123870970Y-104805671D01*
X123816777Y-104886777D01*
X123735671Y-104940970D01*
X123640001Y-104960000D01*
X122739999Y-104960000D01*
X122644329Y-104940970D01*
X122563223Y-104886777D01*
X122509030Y-104805671D01*
X122490000Y-104710001D01*
X122490000Y-104059999D01*
X122509030Y-103964329D01*
X122563223Y-103883223D01*
X122644329Y-103829030D01*
X122739999Y-103810000D01*
X123640001Y-103810000D01*
X123735671Y-103829030D01*
G37*
G04 #@! TD.AperFunction*
G04 #@! TA.AperFunction,SMDPad,CuDef*
G36*
X123735671Y-105879030D02*
G01*
X123816777Y-105933223D01*
X123870970Y-106014329D01*
X123890000Y-106109999D01*
X123890000Y-106760001D01*
X123870970Y-106855671D01*
X123816777Y-106936777D01*
X123735671Y-106990970D01*
X123640001Y-107010000D01*
X122739999Y-107010000D01*
X122644329Y-106990970D01*
X122563223Y-106936777D01*
X122509030Y-106855671D01*
X122490000Y-106760001D01*
X122490000Y-106109999D01*
X122509030Y-106014329D01*
X122563223Y-105933223D01*
X122644329Y-105879030D01*
X122739999Y-105860000D01*
X123640001Y-105860000D01*
X123735671Y-105879030D01*
G37*
G04 #@! TD.AperFunction*
G04 #@! TA.AperFunction,SMDPad,CuDef*
G36*
X55910671Y-88219030D02*
G01*
X55991777Y-88273223D01*
X56045970Y-88354329D01*
X56065000Y-88449999D01*
X56065000Y-89350001D01*
X56045970Y-89445671D01*
X55991777Y-89526777D01*
X55910671Y-89580970D01*
X55815001Y-89600000D01*
X55164999Y-89600000D01*
X55069329Y-89580970D01*
X54988223Y-89526777D01*
X54934030Y-89445671D01*
X54915000Y-89350001D01*
X54915000Y-88449999D01*
X54934030Y-88354329D01*
X54988223Y-88273223D01*
X55069329Y-88219030D01*
X55164999Y-88200000D01*
X55815001Y-88200000D01*
X55910671Y-88219030D01*
G37*
G04 #@! TD.AperFunction*
G04 #@! TA.AperFunction,SMDPad,CuDef*
G36*
X57960671Y-88219030D02*
G01*
X58041777Y-88273223D01*
X58095970Y-88354329D01*
X58115000Y-88449999D01*
X58115000Y-89350001D01*
X58095970Y-89445671D01*
X58041777Y-89526777D01*
X57960671Y-89580970D01*
X57865001Y-89600000D01*
X57214999Y-89600000D01*
X57119329Y-89580970D01*
X57038223Y-89526777D01*
X56984030Y-89445671D01*
X56965000Y-89350001D01*
X56965000Y-88449999D01*
X56984030Y-88354329D01*
X57038223Y-88273223D01*
X57119329Y-88219030D01*
X57214999Y-88200000D01*
X57865001Y-88200000D01*
X57960671Y-88219030D01*
G37*
G04 #@! TD.AperFunction*
G04 #@! TA.AperFunction,SMDPad,CuDef*
G36*
X53920671Y-108559030D02*
G01*
X54001777Y-108613223D01*
X54055970Y-108694329D01*
X54075000Y-108789999D01*
X54075000Y-109690001D01*
X54055970Y-109785671D01*
X54001777Y-109866777D01*
X53920671Y-109920970D01*
X53825001Y-109940000D01*
X53174999Y-109940000D01*
X53079329Y-109920970D01*
X52998223Y-109866777D01*
X52944030Y-109785671D01*
X52925000Y-109690001D01*
X52925000Y-108789999D01*
X52944030Y-108694329D01*
X52998223Y-108613223D01*
X53079329Y-108559030D01*
X53174999Y-108540000D01*
X53825001Y-108540000D01*
X53920671Y-108559030D01*
G37*
G04 #@! TD.AperFunction*
G04 #@! TA.AperFunction,SMDPad,CuDef*
G36*
X51870671Y-108559030D02*
G01*
X51951777Y-108613223D01*
X52005970Y-108694329D01*
X52025000Y-108789999D01*
X52025000Y-109690001D01*
X52005970Y-109785671D01*
X51951777Y-109866777D01*
X51870671Y-109920970D01*
X51775001Y-109940000D01*
X51124999Y-109940000D01*
X51029329Y-109920970D01*
X50948223Y-109866777D01*
X50894030Y-109785671D01*
X50875000Y-109690001D01*
X50875000Y-108789999D01*
X50894030Y-108694329D01*
X50948223Y-108613223D01*
X51029329Y-108559030D01*
X51124999Y-108540000D01*
X51775001Y-108540000D01*
X51870671Y-108559030D01*
G37*
G04 #@! TD.AperFunction*
G04 #@! TA.AperFunction,SMDPad,CuDef*
G36*
X53920671Y-106019030D02*
G01*
X54001777Y-106073223D01*
X54055970Y-106154329D01*
X54075000Y-106249999D01*
X54075000Y-107150001D01*
X54055970Y-107245671D01*
X54001777Y-107326777D01*
X53920671Y-107380970D01*
X53825001Y-107400000D01*
X53174999Y-107400000D01*
X53079329Y-107380970D01*
X52998223Y-107326777D01*
X52944030Y-107245671D01*
X52925000Y-107150001D01*
X52925000Y-106249999D01*
X52944030Y-106154329D01*
X52998223Y-106073223D01*
X53079329Y-106019030D01*
X53174999Y-106000000D01*
X53825001Y-106000000D01*
X53920671Y-106019030D01*
G37*
G04 #@! TD.AperFunction*
G04 #@! TA.AperFunction,SMDPad,CuDef*
G36*
X51870671Y-106019030D02*
G01*
X51951777Y-106073223D01*
X52005970Y-106154329D01*
X52025000Y-106249999D01*
X52025000Y-107150001D01*
X52005970Y-107245671D01*
X51951777Y-107326777D01*
X51870671Y-107380970D01*
X51775001Y-107400000D01*
X51124999Y-107400000D01*
X51029329Y-107380970D01*
X50948223Y-107326777D01*
X50894030Y-107245671D01*
X50875000Y-107150001D01*
X50875000Y-106249999D01*
X50894030Y-106154329D01*
X50948223Y-106073223D01*
X51029329Y-106019030D01*
X51124999Y-106000000D01*
X51775001Y-106000000D01*
X51870671Y-106019030D01*
G37*
G04 #@! TD.AperFunction*
G04 #@! TA.AperFunction,SMDPad,CuDef*
G36*
X53920671Y-103479030D02*
G01*
X54001777Y-103533223D01*
X54055970Y-103614329D01*
X54075000Y-103709999D01*
X54075000Y-104610001D01*
X54055970Y-104705671D01*
X54001777Y-104786777D01*
X53920671Y-104840970D01*
X53825001Y-104860000D01*
X53174999Y-104860000D01*
X53079329Y-104840970D01*
X52998223Y-104786777D01*
X52944030Y-104705671D01*
X52925000Y-104610001D01*
X52925000Y-103709999D01*
X52944030Y-103614329D01*
X52998223Y-103533223D01*
X53079329Y-103479030D01*
X53174999Y-103460000D01*
X53825001Y-103460000D01*
X53920671Y-103479030D01*
G37*
G04 #@! TD.AperFunction*
G04 #@! TA.AperFunction,SMDPad,CuDef*
G36*
X51870671Y-103479030D02*
G01*
X51951777Y-103533223D01*
X52005970Y-103614329D01*
X52025000Y-103709999D01*
X52025000Y-104610001D01*
X52005970Y-104705671D01*
X51951777Y-104786777D01*
X51870671Y-104840970D01*
X51775001Y-104860000D01*
X51124999Y-104860000D01*
X51029329Y-104840970D01*
X50948223Y-104786777D01*
X50894030Y-104705671D01*
X50875000Y-104610001D01*
X50875000Y-103709999D01*
X50894030Y-103614329D01*
X50948223Y-103533223D01*
X51029329Y-103479030D01*
X51124999Y-103460000D01*
X51775001Y-103460000D01*
X51870671Y-103479030D01*
G37*
G04 #@! TD.AperFunction*
G04 #@! TA.AperFunction,SMDPad,CuDef*
G36*
X53920671Y-100939030D02*
G01*
X54001777Y-100993223D01*
X54055970Y-101074329D01*
X54075000Y-101169999D01*
X54075000Y-102070001D01*
X54055970Y-102165671D01*
X54001777Y-102246777D01*
X53920671Y-102300970D01*
X53825001Y-102320000D01*
X53174999Y-102320000D01*
X53079329Y-102300970D01*
X52998223Y-102246777D01*
X52944030Y-102165671D01*
X52925000Y-102070001D01*
X52925000Y-101169999D01*
X52944030Y-101074329D01*
X52998223Y-100993223D01*
X53079329Y-100939030D01*
X53174999Y-100920000D01*
X53825001Y-100920000D01*
X53920671Y-100939030D01*
G37*
G04 #@! TD.AperFunction*
G04 #@! TA.AperFunction,SMDPad,CuDef*
G36*
X51870671Y-100939030D02*
G01*
X51951777Y-100993223D01*
X52005970Y-101074329D01*
X52025000Y-101169999D01*
X52025000Y-102070001D01*
X52005970Y-102165671D01*
X51951777Y-102246777D01*
X51870671Y-102300970D01*
X51775001Y-102320000D01*
X51124999Y-102320000D01*
X51029329Y-102300970D01*
X50948223Y-102246777D01*
X50894030Y-102165671D01*
X50875000Y-102070001D01*
X50875000Y-101169999D01*
X50894030Y-101074329D01*
X50948223Y-100993223D01*
X51029329Y-100939030D01*
X51124999Y-100920000D01*
X51775001Y-100920000D01*
X51870671Y-100939030D01*
G37*
G04 #@! TD.AperFunction*
G04 #@! TA.AperFunction,SMDPad,CuDef*
G36*
X53920671Y-98399030D02*
G01*
X54001777Y-98453223D01*
X54055970Y-98534329D01*
X54075000Y-98629999D01*
X54075000Y-99530001D01*
X54055970Y-99625671D01*
X54001777Y-99706777D01*
X53920671Y-99760970D01*
X53825001Y-99780000D01*
X53174999Y-99780000D01*
X53079329Y-99760970D01*
X52998223Y-99706777D01*
X52944030Y-99625671D01*
X52925000Y-99530001D01*
X52925000Y-98629999D01*
X52944030Y-98534329D01*
X52998223Y-98453223D01*
X53079329Y-98399030D01*
X53174999Y-98380000D01*
X53825001Y-98380000D01*
X53920671Y-98399030D01*
G37*
G04 #@! TD.AperFunction*
G04 #@! TA.AperFunction,SMDPad,CuDef*
G36*
X51870671Y-98399030D02*
G01*
X51951777Y-98453223D01*
X52005970Y-98534329D01*
X52025000Y-98629999D01*
X52025000Y-99530001D01*
X52005970Y-99625671D01*
X51951777Y-99706777D01*
X51870671Y-99760970D01*
X51775001Y-99780000D01*
X51124999Y-99780000D01*
X51029329Y-99760970D01*
X50948223Y-99706777D01*
X50894030Y-99625671D01*
X50875000Y-99530001D01*
X50875000Y-98629999D01*
X50894030Y-98534329D01*
X50948223Y-98453223D01*
X51029329Y-98399030D01*
X51124999Y-98380000D01*
X51775001Y-98380000D01*
X51870671Y-98399030D01*
G37*
G04 #@! TD.AperFunction*
G04 #@! TA.AperFunction,SMDPad,CuDef*
G36*
X73835671Y-86314030D02*
G01*
X73916777Y-86368223D01*
X73970970Y-86449329D01*
X73990000Y-86544999D01*
X73990000Y-87445001D01*
X73970970Y-87540671D01*
X73916777Y-87621777D01*
X73835671Y-87675970D01*
X73740001Y-87695000D01*
X73089999Y-87695000D01*
X72994329Y-87675970D01*
X72913223Y-87621777D01*
X72859030Y-87540671D01*
X72840000Y-87445001D01*
X72840000Y-86544999D01*
X72859030Y-86449329D01*
X72913223Y-86368223D01*
X72994329Y-86314030D01*
X73089999Y-86295000D01*
X73740001Y-86295000D01*
X73835671Y-86314030D01*
G37*
G04 #@! TD.AperFunction*
G04 #@! TA.AperFunction,SMDPad,CuDef*
G36*
X71785671Y-86314030D02*
G01*
X71866777Y-86368223D01*
X71920970Y-86449329D01*
X71940000Y-86544999D01*
X71940000Y-87445001D01*
X71920970Y-87540671D01*
X71866777Y-87621777D01*
X71785671Y-87675970D01*
X71690001Y-87695000D01*
X71039999Y-87695000D01*
X70944329Y-87675970D01*
X70863223Y-87621777D01*
X70809030Y-87540671D01*
X70790000Y-87445001D01*
X70790000Y-86544999D01*
X70809030Y-86449329D01*
X70863223Y-86368223D01*
X70944329Y-86314030D01*
X71039999Y-86295000D01*
X71690001Y-86295000D01*
X71785671Y-86314030D01*
G37*
G04 #@! TD.AperFunction*
G04 #@! TA.AperFunction,SMDPad,CuDef*
G36*
X73835671Y-88219030D02*
G01*
X73916777Y-88273223D01*
X73970970Y-88354329D01*
X73990000Y-88449999D01*
X73990000Y-89350001D01*
X73970970Y-89445671D01*
X73916777Y-89526777D01*
X73835671Y-89580970D01*
X73740001Y-89600000D01*
X73089999Y-89600000D01*
X72994329Y-89580970D01*
X72913223Y-89526777D01*
X72859030Y-89445671D01*
X72840000Y-89350001D01*
X72840000Y-88449999D01*
X72859030Y-88354329D01*
X72913223Y-88273223D01*
X72994329Y-88219030D01*
X73089999Y-88200000D01*
X73740001Y-88200000D01*
X73835671Y-88219030D01*
G37*
G04 #@! TD.AperFunction*
G04 #@! TA.AperFunction,SMDPad,CuDef*
G36*
X71785671Y-88219030D02*
G01*
X71866777Y-88273223D01*
X71920970Y-88354329D01*
X71940000Y-88449999D01*
X71940000Y-89350001D01*
X71920970Y-89445671D01*
X71866777Y-89526777D01*
X71785671Y-89580970D01*
X71690001Y-89600000D01*
X71039999Y-89600000D01*
X70944329Y-89580970D01*
X70863223Y-89526777D01*
X70809030Y-89445671D01*
X70790000Y-89350001D01*
X70790000Y-88449999D01*
X70809030Y-88354329D01*
X70863223Y-88273223D01*
X70944329Y-88219030D01*
X71039999Y-88200000D01*
X71690001Y-88200000D01*
X71785671Y-88219030D01*
G37*
G04 #@! TD.AperFunction*
G04 #@! TA.AperFunction,SMDPad,CuDef*
G36*
X42980671Y-93954030D02*
G01*
X43061777Y-94008223D01*
X43115970Y-94089329D01*
X43135000Y-94184999D01*
X43135000Y-95085001D01*
X43115970Y-95180671D01*
X43061777Y-95261777D01*
X42980671Y-95315970D01*
X42885001Y-95335000D01*
X42234999Y-95335000D01*
X42139329Y-95315970D01*
X42058223Y-95261777D01*
X42004030Y-95180671D01*
X41985000Y-95085001D01*
X41985000Y-94184999D01*
X42004030Y-94089329D01*
X42058223Y-94008223D01*
X42139329Y-93954030D01*
X42234999Y-93935000D01*
X42885001Y-93935000D01*
X42980671Y-93954030D01*
G37*
G04 #@! TD.AperFunction*
G04 #@! TA.AperFunction,SMDPad,CuDef*
G36*
X45030671Y-93954030D02*
G01*
X45111777Y-94008223D01*
X45165970Y-94089329D01*
X45185000Y-94184999D01*
X45185000Y-95085001D01*
X45165970Y-95180671D01*
X45111777Y-95261777D01*
X45030671Y-95315970D01*
X44935001Y-95335000D01*
X44284999Y-95335000D01*
X44189329Y-95315970D01*
X44108223Y-95261777D01*
X44054030Y-95180671D01*
X44035000Y-95085001D01*
X44035000Y-94184999D01*
X44054030Y-94089329D01*
X44108223Y-94008223D01*
X44189329Y-93954030D01*
X44284999Y-93935000D01*
X44935001Y-93935000D01*
X45030671Y-93954030D01*
G37*
G04 #@! TD.AperFunction*
G04 #@! TA.AperFunction,SMDPad,CuDef*
G36*
X42980671Y-88874030D02*
G01*
X43061777Y-88928223D01*
X43115970Y-89009329D01*
X43135000Y-89104999D01*
X43135000Y-90005001D01*
X43115970Y-90100671D01*
X43061777Y-90181777D01*
X42980671Y-90235970D01*
X42885001Y-90255000D01*
X42234999Y-90255000D01*
X42139329Y-90235970D01*
X42058223Y-90181777D01*
X42004030Y-90100671D01*
X41985000Y-90005001D01*
X41985000Y-89104999D01*
X42004030Y-89009329D01*
X42058223Y-88928223D01*
X42139329Y-88874030D01*
X42234999Y-88855000D01*
X42885001Y-88855000D01*
X42980671Y-88874030D01*
G37*
G04 #@! TD.AperFunction*
G04 #@! TA.AperFunction,SMDPad,CuDef*
G36*
X45030671Y-88874030D02*
G01*
X45111777Y-88928223D01*
X45165970Y-89009329D01*
X45185000Y-89104999D01*
X45185000Y-90005001D01*
X45165970Y-90100671D01*
X45111777Y-90181777D01*
X45030671Y-90235970D01*
X44935001Y-90255000D01*
X44284999Y-90255000D01*
X44189329Y-90235970D01*
X44108223Y-90181777D01*
X44054030Y-90100671D01*
X44035000Y-90005001D01*
X44035000Y-89104999D01*
X44054030Y-89009329D01*
X44108223Y-88928223D01*
X44189329Y-88874030D01*
X44284999Y-88855000D01*
X44935001Y-88855000D01*
X45030671Y-88874030D01*
G37*
G04 #@! TD.AperFunction*
G04 #@! TA.AperFunction,SMDPad,CuDef*
G36*
X42980671Y-83794030D02*
G01*
X43061777Y-83848223D01*
X43115970Y-83929329D01*
X43135000Y-84024999D01*
X43135000Y-84925001D01*
X43115970Y-85020671D01*
X43061777Y-85101777D01*
X42980671Y-85155970D01*
X42885001Y-85175000D01*
X42234999Y-85175000D01*
X42139329Y-85155970D01*
X42058223Y-85101777D01*
X42004030Y-85020671D01*
X41985000Y-84925001D01*
X41985000Y-84024999D01*
X42004030Y-83929329D01*
X42058223Y-83848223D01*
X42139329Y-83794030D01*
X42234999Y-83775000D01*
X42885001Y-83775000D01*
X42980671Y-83794030D01*
G37*
G04 #@! TD.AperFunction*
G04 #@! TA.AperFunction,SMDPad,CuDef*
G36*
X45030671Y-83794030D02*
G01*
X45111777Y-83848223D01*
X45165970Y-83929329D01*
X45185000Y-84024999D01*
X45185000Y-84925001D01*
X45165970Y-85020671D01*
X45111777Y-85101777D01*
X45030671Y-85155970D01*
X44935001Y-85175000D01*
X44284999Y-85175000D01*
X44189329Y-85155970D01*
X44108223Y-85101777D01*
X44054030Y-85020671D01*
X44035000Y-84925001D01*
X44035000Y-84024999D01*
X44054030Y-83929329D01*
X44108223Y-83848223D01*
X44189329Y-83794030D01*
X44284999Y-83775000D01*
X44935001Y-83775000D01*
X45030671Y-83794030D01*
G37*
G04 #@! TD.AperFunction*
G04 #@! TA.AperFunction,SMDPad,CuDef*
G36*
X42980671Y-78714030D02*
G01*
X43061777Y-78768223D01*
X43115970Y-78849329D01*
X43135000Y-78944999D01*
X43135000Y-79845001D01*
X43115970Y-79940671D01*
X43061777Y-80021777D01*
X42980671Y-80075970D01*
X42885001Y-80095000D01*
X42234999Y-80095000D01*
X42139329Y-80075970D01*
X42058223Y-80021777D01*
X42004030Y-79940671D01*
X41985000Y-79845001D01*
X41985000Y-78944999D01*
X42004030Y-78849329D01*
X42058223Y-78768223D01*
X42139329Y-78714030D01*
X42234999Y-78695000D01*
X42885001Y-78695000D01*
X42980671Y-78714030D01*
G37*
G04 #@! TD.AperFunction*
G04 #@! TA.AperFunction,SMDPad,CuDef*
G36*
X45030671Y-78714030D02*
G01*
X45111777Y-78768223D01*
X45165970Y-78849329D01*
X45185000Y-78944999D01*
X45185000Y-79845001D01*
X45165970Y-79940671D01*
X45111777Y-80021777D01*
X45030671Y-80075970D01*
X44935001Y-80095000D01*
X44284999Y-80095000D01*
X44189329Y-80075970D01*
X44108223Y-80021777D01*
X44054030Y-79940671D01*
X44035000Y-79845001D01*
X44035000Y-78944999D01*
X44054030Y-78849329D01*
X44108223Y-78768223D01*
X44189329Y-78714030D01*
X44284999Y-78695000D01*
X44935001Y-78695000D01*
X45030671Y-78714030D01*
G37*
G04 #@! TD.AperFunction*
G04 #@! TA.AperFunction,SMDPad,CuDef*
G36*
X42980671Y-73634030D02*
G01*
X43061777Y-73688223D01*
X43115970Y-73769329D01*
X43135000Y-73864999D01*
X43135000Y-74765001D01*
X43115970Y-74860671D01*
X43061777Y-74941777D01*
X42980671Y-74995970D01*
X42885001Y-75015000D01*
X42234999Y-75015000D01*
X42139329Y-74995970D01*
X42058223Y-74941777D01*
X42004030Y-74860671D01*
X41985000Y-74765001D01*
X41985000Y-73864999D01*
X42004030Y-73769329D01*
X42058223Y-73688223D01*
X42139329Y-73634030D01*
X42234999Y-73615000D01*
X42885001Y-73615000D01*
X42980671Y-73634030D01*
G37*
G04 #@! TD.AperFunction*
G04 #@! TA.AperFunction,SMDPad,CuDef*
G36*
X45030671Y-73634030D02*
G01*
X45111777Y-73688223D01*
X45165970Y-73769329D01*
X45185000Y-73864999D01*
X45185000Y-74765001D01*
X45165970Y-74860671D01*
X45111777Y-74941777D01*
X45030671Y-74995970D01*
X44935001Y-75015000D01*
X44284999Y-75015000D01*
X44189329Y-74995970D01*
X44108223Y-74941777D01*
X44054030Y-74860671D01*
X44035000Y-74765001D01*
X44035000Y-73864999D01*
X44054030Y-73769329D01*
X44108223Y-73688223D01*
X44189329Y-73634030D01*
X44284999Y-73615000D01*
X44935001Y-73615000D01*
X45030671Y-73634030D01*
G37*
G04 #@! TD.AperFunction*
G04 #@! TA.AperFunction,SMDPad,CuDef*
G36*
X42980671Y-68554030D02*
G01*
X43061777Y-68608223D01*
X43115970Y-68689329D01*
X43135000Y-68784999D01*
X43135000Y-69685001D01*
X43115970Y-69780671D01*
X43061777Y-69861777D01*
X42980671Y-69915970D01*
X42885001Y-69935000D01*
X42234999Y-69935000D01*
X42139329Y-69915970D01*
X42058223Y-69861777D01*
X42004030Y-69780671D01*
X41985000Y-69685001D01*
X41985000Y-68784999D01*
X42004030Y-68689329D01*
X42058223Y-68608223D01*
X42139329Y-68554030D01*
X42234999Y-68535000D01*
X42885001Y-68535000D01*
X42980671Y-68554030D01*
G37*
G04 #@! TD.AperFunction*
G04 #@! TA.AperFunction,SMDPad,CuDef*
G36*
X45030671Y-68554030D02*
G01*
X45111777Y-68608223D01*
X45165970Y-68689329D01*
X45185000Y-68784999D01*
X45185000Y-69685001D01*
X45165970Y-69780671D01*
X45111777Y-69861777D01*
X45030671Y-69915970D01*
X44935001Y-69935000D01*
X44284999Y-69935000D01*
X44189329Y-69915970D01*
X44108223Y-69861777D01*
X44054030Y-69780671D01*
X44035000Y-69685001D01*
X44035000Y-68784999D01*
X44054030Y-68689329D01*
X44108223Y-68608223D01*
X44189329Y-68554030D01*
X44284999Y-68535000D01*
X44935001Y-68535000D01*
X45030671Y-68554030D01*
G37*
G04 #@! TD.AperFunction*
G04 #@! TA.AperFunction,SMDPad,CuDef*
G36*
X129325671Y-91054030D02*
G01*
X129406777Y-91108223D01*
X129460970Y-91189329D01*
X129480000Y-91284999D01*
X129480000Y-94135001D01*
X129460970Y-94230671D01*
X129406777Y-94311777D01*
X129325671Y-94365970D01*
X129230001Y-94385000D01*
X128204999Y-94385000D01*
X128109329Y-94365970D01*
X128028223Y-94311777D01*
X127974030Y-94230671D01*
X127955000Y-94135001D01*
X127955000Y-91284999D01*
X127974030Y-91189329D01*
X128028223Y-91108223D01*
X128109329Y-91054030D01*
X128204999Y-91035000D01*
X129230001Y-91035000D01*
X129325671Y-91054030D01*
G37*
G04 #@! TD.AperFunction*
G04 #@! TA.AperFunction,SMDPad,CuDef*
G36*
X123350671Y-91054030D02*
G01*
X123431777Y-91108223D01*
X123485970Y-91189329D01*
X123505000Y-91284999D01*
X123505000Y-94135001D01*
X123485970Y-94230671D01*
X123431777Y-94311777D01*
X123350671Y-94365970D01*
X123255001Y-94385000D01*
X122229999Y-94385000D01*
X122134329Y-94365970D01*
X122053223Y-94311777D01*
X121999030Y-94230671D01*
X121980000Y-94135001D01*
X121980000Y-91284999D01*
X121999030Y-91189329D01*
X122053223Y-91108223D01*
X122134329Y-91054030D01*
X122229999Y-91035000D01*
X123255001Y-91035000D01*
X123350671Y-91054030D01*
G37*
G04 #@! TD.AperFunction*
G04 #@! TA.AperFunction,SMDPad,CuDef*
G36*
X119925671Y-105879030D02*
G01*
X120006777Y-105933223D01*
X120060970Y-106014329D01*
X120080000Y-106109999D01*
X120080000Y-106760001D01*
X120060970Y-106855671D01*
X120006777Y-106936777D01*
X119925671Y-106990970D01*
X119830001Y-107010000D01*
X118929999Y-107010000D01*
X118834329Y-106990970D01*
X118753223Y-106936777D01*
X118699030Y-106855671D01*
X118680000Y-106760001D01*
X118680000Y-106109999D01*
X118699030Y-106014329D01*
X118753223Y-105933223D01*
X118834329Y-105879030D01*
X118929999Y-105860000D01*
X119830001Y-105860000D01*
X119925671Y-105879030D01*
G37*
G04 #@! TD.AperFunction*
G04 #@! TA.AperFunction,SMDPad,CuDef*
G36*
X119925671Y-103829030D02*
G01*
X120006777Y-103883223D01*
X120060970Y-103964329D01*
X120080000Y-104059999D01*
X120080000Y-104710001D01*
X120060970Y-104805671D01*
X120006777Y-104886777D01*
X119925671Y-104940970D01*
X119830001Y-104960000D01*
X118929999Y-104960000D01*
X118834329Y-104940970D01*
X118753223Y-104886777D01*
X118699030Y-104805671D01*
X118680000Y-104710001D01*
X118680000Y-104059999D01*
X118699030Y-103964329D01*
X118753223Y-103883223D01*
X118834329Y-103829030D01*
X118929999Y-103810000D01*
X119830001Y-103810000D01*
X119925671Y-103829030D01*
G37*
G04 #@! TD.AperFunction*
G04 #@! TA.AperFunction,SMDPad,CuDef*
G36*
X52345671Y-68904030D02*
G01*
X52426777Y-68958223D01*
X52480970Y-69039329D01*
X52500000Y-69135000D01*
X52500000Y-69935000D01*
X52480970Y-70030671D01*
X52426777Y-70111777D01*
X52345671Y-70165970D01*
X52250000Y-70185000D01*
X49350000Y-70185000D01*
X49254329Y-70165970D01*
X49173223Y-70111777D01*
X49119030Y-70030671D01*
X49100000Y-69935000D01*
X49100000Y-69135000D01*
X49119030Y-69039329D01*
X49173223Y-68958223D01*
X49254329Y-68904030D01*
X49350000Y-68885000D01*
X52250000Y-68885000D01*
X52345671Y-68904030D01*
G37*
G04 #@! TD.AperFunction*
G04 #@! TA.AperFunction,SMDPad,CuDef*
G36*
X52345671Y-64454030D02*
G01*
X52426777Y-64508223D01*
X52480970Y-64589329D01*
X52500000Y-64685000D01*
X52500000Y-65485000D01*
X52480970Y-65580671D01*
X52426777Y-65661777D01*
X52345671Y-65715970D01*
X52250000Y-65735000D01*
X49350000Y-65735000D01*
X49254329Y-65715970D01*
X49173223Y-65661777D01*
X49119030Y-65580671D01*
X49100000Y-65485000D01*
X49100000Y-64685000D01*
X49119030Y-64589329D01*
X49173223Y-64508223D01*
X49254329Y-64454030D01*
X49350000Y-64435000D01*
X52250000Y-64435000D01*
X52345671Y-64454030D01*
G37*
G04 #@! TD.AperFunction*
G04 #@! TA.AperFunction,SMDPad,CuDef*
G36*
X57425671Y-68904030D02*
G01*
X57506777Y-68958223D01*
X57560970Y-69039329D01*
X57580000Y-69135000D01*
X57580000Y-69935000D01*
X57560970Y-70030671D01*
X57506777Y-70111777D01*
X57425671Y-70165970D01*
X57330000Y-70185000D01*
X54430000Y-70185000D01*
X54334329Y-70165970D01*
X54253223Y-70111777D01*
X54199030Y-70030671D01*
X54180000Y-69935000D01*
X54180000Y-69135000D01*
X54199030Y-69039329D01*
X54253223Y-68958223D01*
X54334329Y-68904030D01*
X54430000Y-68885000D01*
X57330000Y-68885000D01*
X57425671Y-68904030D01*
G37*
G04 #@! TD.AperFunction*
G04 #@! TA.AperFunction,SMDPad,CuDef*
G36*
X57425671Y-64454030D02*
G01*
X57506777Y-64508223D01*
X57560970Y-64589329D01*
X57580000Y-64685000D01*
X57580000Y-65485000D01*
X57560970Y-65580671D01*
X57506777Y-65661777D01*
X57425671Y-65715970D01*
X57330000Y-65735000D01*
X54430000Y-65735000D01*
X54334329Y-65715970D01*
X54253223Y-65661777D01*
X54199030Y-65580671D01*
X54180000Y-65485000D01*
X54180000Y-64685000D01*
X54199030Y-64589329D01*
X54253223Y-64508223D01*
X54334329Y-64454030D01*
X54430000Y-64435000D01*
X57330000Y-64435000D01*
X57425671Y-64454030D01*
G37*
G04 #@! TD.AperFunction*
G04 #@! TA.AperFunction,SMDPad,CuDef*
G36*
X57180671Y-118064030D02*
G01*
X57261777Y-118118223D01*
X57315970Y-118199329D01*
X57335000Y-118294999D01*
X57335000Y-119195001D01*
X57315970Y-119290671D01*
X57261777Y-119371777D01*
X57180671Y-119425970D01*
X57085001Y-119445000D01*
X56434999Y-119445000D01*
X56339329Y-119425970D01*
X56258223Y-119371777D01*
X56204030Y-119290671D01*
X56185000Y-119195001D01*
X56185000Y-118294999D01*
X56204030Y-118199329D01*
X56258223Y-118118223D01*
X56339329Y-118064030D01*
X56434999Y-118045000D01*
X57085001Y-118045000D01*
X57180671Y-118064030D01*
G37*
G04 #@! TD.AperFunction*
G04 #@! TA.AperFunction,SMDPad,CuDef*
G36*
X59230671Y-118064030D02*
G01*
X59311777Y-118118223D01*
X59365970Y-118199329D01*
X59385000Y-118294999D01*
X59385000Y-119195001D01*
X59365970Y-119290671D01*
X59311777Y-119371777D01*
X59230671Y-119425970D01*
X59135001Y-119445000D01*
X58484999Y-119445000D01*
X58389329Y-119425970D01*
X58308223Y-119371777D01*
X58254030Y-119290671D01*
X58235000Y-119195001D01*
X58235000Y-118294999D01*
X58254030Y-118199329D01*
X58308223Y-118118223D01*
X58389329Y-118064030D01*
X58484999Y-118045000D01*
X59135001Y-118045000D01*
X59230671Y-118064030D01*
G37*
G04 #@! TD.AperFunction*
G04 #@! TA.AperFunction,SMDPad,CuDef*
G36*
X57180671Y-114889030D02*
G01*
X57261777Y-114943223D01*
X57315970Y-115024329D01*
X57335000Y-115119999D01*
X57335000Y-116020001D01*
X57315970Y-116115671D01*
X57261777Y-116196777D01*
X57180671Y-116250970D01*
X57085001Y-116270000D01*
X56434999Y-116270000D01*
X56339329Y-116250970D01*
X56258223Y-116196777D01*
X56204030Y-116115671D01*
X56185000Y-116020001D01*
X56185000Y-115119999D01*
X56204030Y-115024329D01*
X56258223Y-114943223D01*
X56339329Y-114889030D01*
X56434999Y-114870000D01*
X57085001Y-114870000D01*
X57180671Y-114889030D01*
G37*
G04 #@! TD.AperFunction*
G04 #@! TA.AperFunction,SMDPad,CuDef*
G36*
X59230671Y-114889030D02*
G01*
X59311777Y-114943223D01*
X59365970Y-115024329D01*
X59385000Y-115119999D01*
X59385000Y-116020001D01*
X59365970Y-116115671D01*
X59311777Y-116196777D01*
X59230671Y-116250970D01*
X59135001Y-116270000D01*
X58484999Y-116270000D01*
X58389329Y-116250970D01*
X58308223Y-116196777D01*
X58254030Y-116115671D01*
X58235000Y-116020001D01*
X58235000Y-115119999D01*
X58254030Y-115024329D01*
X58308223Y-114943223D01*
X58389329Y-114889030D01*
X58484999Y-114870000D01*
X59135001Y-114870000D01*
X59230671Y-114889030D01*
G37*
G04 #@! TD.AperFunction*
G04 #@! TA.AperFunction,SMDPad,CuDef*
G36*
X74325671Y-116159030D02*
G01*
X74406777Y-116213223D01*
X74460970Y-116294329D01*
X74480000Y-116389999D01*
X74480000Y-117290001D01*
X74460970Y-117385671D01*
X74406777Y-117466777D01*
X74325671Y-117520970D01*
X74230001Y-117540000D01*
X73579999Y-117540000D01*
X73484329Y-117520970D01*
X73403223Y-117466777D01*
X73349030Y-117385671D01*
X73330000Y-117290001D01*
X73330000Y-116389999D01*
X73349030Y-116294329D01*
X73403223Y-116213223D01*
X73484329Y-116159030D01*
X73579999Y-116140000D01*
X74230001Y-116140000D01*
X74325671Y-116159030D01*
G37*
G04 #@! TD.AperFunction*
G04 #@! TA.AperFunction,SMDPad,CuDef*
G36*
X76375671Y-116159030D02*
G01*
X76456777Y-116213223D01*
X76510970Y-116294329D01*
X76530000Y-116389999D01*
X76530000Y-117290001D01*
X76510970Y-117385671D01*
X76456777Y-117466777D01*
X76375671Y-117520970D01*
X76280001Y-117540000D01*
X75629999Y-117540000D01*
X75534329Y-117520970D01*
X75453223Y-117466777D01*
X75399030Y-117385671D01*
X75380000Y-117290001D01*
X75380000Y-116389999D01*
X75399030Y-116294329D01*
X75453223Y-116213223D01*
X75534329Y-116159030D01*
X75629999Y-116140000D01*
X76280001Y-116140000D01*
X76375671Y-116159030D01*
G37*
G04 #@! TD.AperFunction*
G04 #@! TA.AperFunction,SMDPad,CuDef*
G36*
X73835671Y-93299030D02*
G01*
X73916777Y-93353223D01*
X73970970Y-93434329D01*
X73990000Y-93529999D01*
X73990000Y-94430001D01*
X73970970Y-94525671D01*
X73916777Y-94606777D01*
X73835671Y-94660970D01*
X73740001Y-94680000D01*
X73089999Y-94680000D01*
X72994329Y-94660970D01*
X72913223Y-94606777D01*
X72859030Y-94525671D01*
X72840000Y-94430001D01*
X72840000Y-93529999D01*
X72859030Y-93434329D01*
X72913223Y-93353223D01*
X72994329Y-93299030D01*
X73089999Y-93280000D01*
X73740001Y-93280000D01*
X73835671Y-93299030D01*
G37*
G04 #@! TD.AperFunction*
G04 #@! TA.AperFunction,SMDPad,CuDef*
G36*
X71785671Y-93299030D02*
G01*
X71866777Y-93353223D01*
X71920970Y-93434329D01*
X71940000Y-93529999D01*
X71940000Y-94430001D01*
X71920970Y-94525671D01*
X71866777Y-94606777D01*
X71785671Y-94660970D01*
X71690001Y-94680000D01*
X71039999Y-94680000D01*
X70944329Y-94660970D01*
X70863223Y-94606777D01*
X70809030Y-94525671D01*
X70790000Y-94430001D01*
X70790000Y-93529999D01*
X70809030Y-93434329D01*
X70863223Y-93353223D01*
X70944329Y-93299030D01*
X71039999Y-93280000D01*
X71690001Y-93280000D01*
X71785671Y-93299030D01*
G37*
G04 #@! TD.AperFunction*
G04 #@! TA.AperFunction,SMDPad,CuDef*
G36*
X107225671Y-109689030D02*
G01*
X107306777Y-109743223D01*
X107360970Y-109824329D01*
X107380000Y-109919999D01*
X107380000Y-110570001D01*
X107360970Y-110665671D01*
X107306777Y-110746777D01*
X107225671Y-110800970D01*
X107130001Y-110820000D01*
X106229999Y-110820000D01*
X106134329Y-110800970D01*
X106053223Y-110746777D01*
X105999030Y-110665671D01*
X105980000Y-110570001D01*
X105980000Y-109919999D01*
X105999030Y-109824329D01*
X106053223Y-109743223D01*
X106134329Y-109689030D01*
X106229999Y-109670000D01*
X107130001Y-109670000D01*
X107225671Y-109689030D01*
G37*
G04 #@! TD.AperFunction*
G04 #@! TA.AperFunction,SMDPad,CuDef*
G36*
X107225671Y-107639030D02*
G01*
X107306777Y-107693223D01*
X107360970Y-107774329D01*
X107380000Y-107869999D01*
X107380000Y-108520001D01*
X107360970Y-108615671D01*
X107306777Y-108696777D01*
X107225671Y-108750970D01*
X107130001Y-108770000D01*
X106229999Y-108770000D01*
X106134329Y-108750970D01*
X106053223Y-108696777D01*
X105999030Y-108615671D01*
X105980000Y-108520001D01*
X105980000Y-107869999D01*
X105999030Y-107774329D01*
X106053223Y-107693223D01*
X106134329Y-107639030D01*
X106229999Y-107620000D01*
X107130001Y-107620000D01*
X107225671Y-107639030D01*
G37*
G04 #@! TD.AperFunction*
G04 #@! TA.AperFunction,SMDPad,CuDef*
G36*
X104685671Y-109689030D02*
G01*
X104766777Y-109743223D01*
X104820970Y-109824329D01*
X104840000Y-109919999D01*
X104840000Y-110570001D01*
X104820970Y-110665671D01*
X104766777Y-110746777D01*
X104685671Y-110800970D01*
X104590001Y-110820000D01*
X103689999Y-110820000D01*
X103594329Y-110800970D01*
X103513223Y-110746777D01*
X103459030Y-110665671D01*
X103440000Y-110570001D01*
X103440000Y-109919999D01*
X103459030Y-109824329D01*
X103513223Y-109743223D01*
X103594329Y-109689030D01*
X103689999Y-109670000D01*
X104590001Y-109670000D01*
X104685671Y-109689030D01*
G37*
G04 #@! TD.AperFunction*
G04 #@! TA.AperFunction,SMDPad,CuDef*
G36*
X104685671Y-107639030D02*
G01*
X104766777Y-107693223D01*
X104820970Y-107774329D01*
X104840000Y-107869999D01*
X104840000Y-108520001D01*
X104820970Y-108615671D01*
X104766777Y-108696777D01*
X104685671Y-108750970D01*
X104590001Y-108770000D01*
X103689999Y-108770000D01*
X103594329Y-108750970D01*
X103513223Y-108696777D01*
X103459030Y-108615671D01*
X103440000Y-108520001D01*
X103440000Y-107869999D01*
X103459030Y-107774329D01*
X103513223Y-107693223D01*
X103594329Y-107639030D01*
X103689999Y-107620000D01*
X104590001Y-107620000D01*
X104685671Y-107639030D01*
G37*
G04 #@! TD.AperFunction*
G04 #@! TA.AperFunction,SMDPad,CuDef*
G36*
X93255671Y-109689030D02*
G01*
X93336777Y-109743223D01*
X93390970Y-109824329D01*
X93410000Y-109919999D01*
X93410000Y-110570001D01*
X93390970Y-110665671D01*
X93336777Y-110746777D01*
X93255671Y-110800970D01*
X93160001Y-110820000D01*
X92259999Y-110820000D01*
X92164329Y-110800970D01*
X92083223Y-110746777D01*
X92029030Y-110665671D01*
X92010000Y-110570001D01*
X92010000Y-109919999D01*
X92029030Y-109824329D01*
X92083223Y-109743223D01*
X92164329Y-109689030D01*
X92259999Y-109670000D01*
X93160001Y-109670000D01*
X93255671Y-109689030D01*
G37*
G04 #@! TD.AperFunction*
G04 #@! TA.AperFunction,SMDPad,CuDef*
G36*
X93255671Y-107639030D02*
G01*
X93336777Y-107693223D01*
X93390970Y-107774329D01*
X93410000Y-107869999D01*
X93410000Y-108520001D01*
X93390970Y-108615671D01*
X93336777Y-108696777D01*
X93255671Y-108750970D01*
X93160001Y-108770000D01*
X92259999Y-108770000D01*
X92164329Y-108750970D01*
X92083223Y-108696777D01*
X92029030Y-108615671D01*
X92010000Y-108520001D01*
X92010000Y-107869999D01*
X92029030Y-107774329D01*
X92083223Y-107693223D01*
X92164329Y-107639030D01*
X92259999Y-107620000D01*
X93160001Y-107620000D01*
X93255671Y-107639030D01*
G37*
G04 #@! TD.AperFunction*
G04 #@! TA.AperFunction,SMDPad,CuDef*
G36*
X90715671Y-109689030D02*
G01*
X90796777Y-109743223D01*
X90850970Y-109824329D01*
X90870000Y-109919999D01*
X90870000Y-110570001D01*
X90850970Y-110665671D01*
X90796777Y-110746777D01*
X90715671Y-110800970D01*
X90620001Y-110820000D01*
X89719999Y-110820000D01*
X89624329Y-110800970D01*
X89543223Y-110746777D01*
X89489030Y-110665671D01*
X89470000Y-110570001D01*
X89470000Y-109919999D01*
X89489030Y-109824329D01*
X89543223Y-109743223D01*
X89624329Y-109689030D01*
X89719999Y-109670000D01*
X90620001Y-109670000D01*
X90715671Y-109689030D01*
G37*
G04 #@! TD.AperFunction*
G04 #@! TA.AperFunction,SMDPad,CuDef*
G36*
X90715671Y-107639030D02*
G01*
X90796777Y-107693223D01*
X90850970Y-107774329D01*
X90870000Y-107869999D01*
X90870000Y-108520001D01*
X90850970Y-108615671D01*
X90796777Y-108696777D01*
X90715671Y-108750970D01*
X90620001Y-108770000D01*
X89719999Y-108770000D01*
X89624329Y-108750970D01*
X89543223Y-108696777D01*
X89489030Y-108615671D01*
X89470000Y-108520001D01*
X89470000Y-107869999D01*
X89489030Y-107774329D01*
X89543223Y-107693223D01*
X89624329Y-107639030D01*
X89719999Y-107620000D01*
X90620001Y-107620000D01*
X90715671Y-107639030D01*
G37*
G04 #@! TD.AperFunction*
G04 #@! TA.AperFunction,SMDPad,CuDef*
G36*
X110750671Y-38034030D02*
G01*
X110831777Y-38088223D01*
X110885970Y-38169329D01*
X110905000Y-38264999D01*
X110905000Y-39165001D01*
X110885970Y-39260671D01*
X110831777Y-39341777D01*
X110750671Y-39395970D01*
X110655001Y-39415000D01*
X110004999Y-39415000D01*
X109909329Y-39395970D01*
X109828223Y-39341777D01*
X109774030Y-39260671D01*
X109755000Y-39165001D01*
X109755000Y-38264999D01*
X109774030Y-38169329D01*
X109828223Y-38088223D01*
X109909329Y-38034030D01*
X110004999Y-38015000D01*
X110655001Y-38015000D01*
X110750671Y-38034030D01*
G37*
G04 #@! TD.AperFunction*
G04 #@! TA.AperFunction,SMDPad,CuDef*
G36*
X112800671Y-38034030D02*
G01*
X112881777Y-38088223D01*
X112935970Y-38169329D01*
X112955000Y-38264999D01*
X112955000Y-39165001D01*
X112935970Y-39260671D01*
X112881777Y-39341777D01*
X112800671Y-39395970D01*
X112705001Y-39415000D01*
X112054999Y-39415000D01*
X111959329Y-39395970D01*
X111878223Y-39341777D01*
X111824030Y-39260671D01*
X111805000Y-39165001D01*
X111805000Y-38264999D01*
X111824030Y-38169329D01*
X111878223Y-38088223D01*
X111959329Y-38034030D01*
X112054999Y-38015000D01*
X112705001Y-38015000D01*
X112800671Y-38034030D01*
G37*
G04 #@! TD.AperFunction*
G04 #@! TA.AperFunction,SMDPad,CuDef*
G36*
X106940671Y-38034030D02*
G01*
X107021777Y-38088223D01*
X107075970Y-38169329D01*
X107095000Y-38264999D01*
X107095000Y-39165001D01*
X107075970Y-39260671D01*
X107021777Y-39341777D01*
X106940671Y-39395970D01*
X106845001Y-39415000D01*
X106194999Y-39415000D01*
X106099329Y-39395970D01*
X106018223Y-39341777D01*
X105964030Y-39260671D01*
X105945000Y-39165001D01*
X105945000Y-38264999D01*
X105964030Y-38169329D01*
X106018223Y-38088223D01*
X106099329Y-38034030D01*
X106194999Y-38015000D01*
X106845001Y-38015000D01*
X106940671Y-38034030D01*
G37*
G04 #@! TD.AperFunction*
G04 #@! TA.AperFunction,SMDPad,CuDef*
G36*
X108990671Y-38034030D02*
G01*
X109071777Y-38088223D01*
X109125970Y-38169329D01*
X109145000Y-38264999D01*
X109145000Y-39165001D01*
X109125970Y-39260671D01*
X109071777Y-39341777D01*
X108990671Y-39395970D01*
X108895001Y-39415000D01*
X108244999Y-39415000D01*
X108149329Y-39395970D01*
X108068223Y-39341777D01*
X108014030Y-39260671D01*
X107995000Y-39165001D01*
X107995000Y-38264999D01*
X108014030Y-38169329D01*
X108068223Y-38088223D01*
X108149329Y-38034030D01*
X108244999Y-38015000D01*
X108895001Y-38015000D01*
X108990671Y-38034030D01*
G37*
G04 #@! TD.AperFunction*
G04 #@! TA.AperFunction,SMDPad,CuDef*
G36*
X112800671Y-36129030D02*
G01*
X112881777Y-36183223D01*
X112935970Y-36264329D01*
X112955000Y-36359999D01*
X112955000Y-37260001D01*
X112935970Y-37355671D01*
X112881777Y-37436777D01*
X112800671Y-37490970D01*
X112705001Y-37510000D01*
X112054999Y-37510000D01*
X111959329Y-37490970D01*
X111878223Y-37436777D01*
X111824030Y-37355671D01*
X111805000Y-37260001D01*
X111805000Y-36359999D01*
X111824030Y-36264329D01*
X111878223Y-36183223D01*
X111959329Y-36129030D01*
X112054999Y-36110000D01*
X112705001Y-36110000D01*
X112800671Y-36129030D01*
G37*
G04 #@! TD.AperFunction*
G04 #@! TA.AperFunction,SMDPad,CuDef*
G36*
X110750671Y-36129030D02*
G01*
X110831777Y-36183223D01*
X110885970Y-36264329D01*
X110905000Y-36359999D01*
X110905000Y-37260001D01*
X110885970Y-37355671D01*
X110831777Y-37436777D01*
X110750671Y-37490970D01*
X110655001Y-37510000D01*
X110004999Y-37510000D01*
X109909329Y-37490970D01*
X109828223Y-37436777D01*
X109774030Y-37355671D01*
X109755000Y-37260001D01*
X109755000Y-36359999D01*
X109774030Y-36264329D01*
X109828223Y-36183223D01*
X109909329Y-36129030D01*
X110004999Y-36110000D01*
X110655001Y-36110000D01*
X110750671Y-36129030D01*
G37*
G04 #@! TD.AperFunction*
D23*
X100330000Y-72430000D03*
X100330000Y-49530000D03*
D24*
X78740000Y-101620000D03*
X78740000Y-99080000D03*
X78740000Y-96540000D03*
X78740000Y-94000000D03*
D25*
X78740000Y-91460000D03*
D26*
X40410000Y-61615000D03*
X40410000Y-56535000D03*
X40410000Y-51455000D03*
G04 #@! TA.AperFunction,ComponentPad*
G36*
X42055671Y-45494030D02*
G01*
X42136777Y-45548223D01*
X42190970Y-45629329D01*
X42210000Y-45725000D01*
X42210000Y-47025000D01*
X42190970Y-47120671D01*
X42136777Y-47201777D01*
X42055671Y-47255970D01*
X41960000Y-47275000D01*
X38860000Y-47275000D01*
X38764329Y-47255970D01*
X38683223Y-47201777D01*
X38629030Y-47120671D01*
X38610000Y-47025000D01*
X38610000Y-45725000D01*
X38629030Y-45629329D01*
X38683223Y-45548223D01*
X38764329Y-45494030D01*
X38860000Y-45475000D01*
X41960000Y-45475000D01*
X42055671Y-45494030D01*
G37*
G04 #@! TD.AperFunction*
D27*
X40410000Y-94635000D03*
D20*
X40410000Y-92095000D03*
D27*
X40410000Y-89555000D03*
D20*
X40410000Y-87015000D03*
D27*
X40410000Y-84475000D03*
D20*
X40410000Y-81935000D03*
D27*
X40410000Y-79395000D03*
D20*
X40410000Y-76855000D03*
D27*
X40410000Y-74315000D03*
D20*
X40410000Y-71775000D03*
D27*
X40410000Y-69235000D03*
D20*
X40410000Y-66695000D03*
D12*
X108225000Y-85515000D03*
D13*
X105945000Y-79215000D03*
X110505000Y-79215000D03*
D12*
X99715000Y-81315000D03*
D13*
X101995000Y-87615000D03*
X97435000Y-87615000D03*
D12*
X108225000Y-98215000D03*
D13*
X105945000Y-91915000D03*
X110505000Y-91915000D03*
D12*
X99715000Y-94015000D03*
D13*
X101995000Y-100315000D03*
X97435000Y-100315000D03*
D28*
X99060000Y-117570000D03*
X99060000Y-113570000D03*
X85090000Y-117570000D03*
X85090000Y-113570000D03*
D29*
X114495000Y-44450000D03*
D30*
X108195000Y-46730000D03*
X108195000Y-42170000D03*
D29*
X98230000Y-44450000D03*
D30*
X104530000Y-42170000D03*
X104530000Y-46730000D03*
D28*
X118110000Y-33560000D03*
X118110000Y-37560000D03*
D29*
X54415000Y-35560000D03*
D30*
X60715000Y-33280000D03*
X60715000Y-37840000D03*
D29*
X67115000Y-35560000D03*
D30*
X73415000Y-33280000D03*
X73415000Y-37840000D03*
D29*
X58615000Y-44450000D03*
D30*
X52315000Y-46730000D03*
X52315000Y-42170000D03*
D29*
X71315000Y-44450000D03*
D30*
X65015000Y-46730000D03*
X65015000Y-42170000D03*
G04 #@! TA.AperFunction,SMDPad,CuDef*
G36*
X74325671Y-107904030D02*
G01*
X74406777Y-107958223D01*
X74460970Y-108039329D01*
X74480000Y-108134999D01*
X74480000Y-109035001D01*
X74460970Y-109130671D01*
X74406777Y-109211777D01*
X74325671Y-109265970D01*
X74230001Y-109285000D01*
X73579999Y-109285000D01*
X73484329Y-109265970D01*
X73403223Y-109211777D01*
X73349030Y-109130671D01*
X73330000Y-109035001D01*
X73330000Y-108134999D01*
X73349030Y-108039329D01*
X73403223Y-107958223D01*
X73484329Y-107904030D01*
X73579999Y-107885000D01*
X74230001Y-107885000D01*
X74325671Y-107904030D01*
G37*
G04 #@! TD.AperFunction*
G04 #@! TA.AperFunction,SMDPad,CuDef*
G36*
X76375671Y-107904030D02*
G01*
X76456777Y-107958223D01*
X76510970Y-108039329D01*
X76530000Y-108134999D01*
X76530000Y-109035001D01*
X76510970Y-109130671D01*
X76456777Y-109211777D01*
X76375671Y-109265970D01*
X76280001Y-109285000D01*
X75629999Y-109285000D01*
X75534329Y-109265970D01*
X75453223Y-109211777D01*
X75399030Y-109130671D01*
X75380000Y-109035001D01*
X75380000Y-108134999D01*
X75399030Y-108039329D01*
X75453223Y-107958223D01*
X75534329Y-107904030D01*
X75629999Y-107885000D01*
X76280001Y-107885000D01*
X76375671Y-107904030D01*
G37*
G04 #@! TD.AperFunction*
G04 #@! TA.AperFunction,SMDPad,CuDef*
G36*
X123735671Y-119704030D02*
G01*
X123816777Y-119758223D01*
X123870970Y-119839329D01*
X123890000Y-119934999D01*
X123890000Y-120585001D01*
X123870970Y-120680671D01*
X123816777Y-120761777D01*
X123735671Y-120815970D01*
X123640001Y-120835000D01*
X122739999Y-120835000D01*
X122644329Y-120815970D01*
X122563223Y-120761777D01*
X122509030Y-120680671D01*
X122490000Y-120585001D01*
X122490000Y-119934999D01*
X122509030Y-119839329D01*
X122563223Y-119758223D01*
X122644329Y-119704030D01*
X122739999Y-119685000D01*
X123640001Y-119685000D01*
X123735671Y-119704030D01*
G37*
G04 #@! TD.AperFunction*
G04 #@! TA.AperFunction,SMDPad,CuDef*
G36*
X123735671Y-121754030D02*
G01*
X123816777Y-121808223D01*
X123870970Y-121889329D01*
X123890000Y-121984999D01*
X123890000Y-122635001D01*
X123870970Y-122730671D01*
X123816777Y-122811777D01*
X123735671Y-122865970D01*
X123640001Y-122885000D01*
X122739999Y-122885000D01*
X122644329Y-122865970D01*
X122563223Y-122811777D01*
X122509030Y-122730671D01*
X122490000Y-122635001D01*
X122490000Y-121984999D01*
X122509030Y-121889329D01*
X122563223Y-121808223D01*
X122644329Y-121754030D01*
X122739999Y-121735000D01*
X123640001Y-121735000D01*
X123735671Y-121754030D01*
G37*
G04 #@! TD.AperFunction*
G04 #@! TA.AperFunction,SMDPad,CuDef*
G36*
X114845671Y-114134030D02*
G01*
X114926777Y-114188223D01*
X114980970Y-114269329D01*
X115000000Y-114364999D01*
X115000000Y-115015001D01*
X114980970Y-115110671D01*
X114926777Y-115191777D01*
X114845671Y-115245970D01*
X114750001Y-115265000D01*
X113849999Y-115265000D01*
X113754329Y-115245970D01*
X113673223Y-115191777D01*
X113619030Y-115110671D01*
X113600000Y-115015001D01*
X113600000Y-114364999D01*
X113619030Y-114269329D01*
X113673223Y-114188223D01*
X113754329Y-114134030D01*
X113849999Y-114115000D01*
X114750001Y-114115000D01*
X114845671Y-114134030D01*
G37*
G04 #@! TD.AperFunction*
G04 #@! TA.AperFunction,SMDPad,CuDef*
G36*
X114845671Y-112084030D02*
G01*
X114926777Y-112138223D01*
X114980970Y-112219329D01*
X115000000Y-112314999D01*
X115000000Y-112965001D01*
X114980970Y-113060671D01*
X114926777Y-113141777D01*
X114845671Y-113195970D01*
X114750001Y-113215000D01*
X113849999Y-113215000D01*
X113754329Y-113195970D01*
X113673223Y-113141777D01*
X113619030Y-113060671D01*
X113600000Y-112965001D01*
X113600000Y-112314999D01*
X113619030Y-112219329D01*
X113673223Y-112138223D01*
X113754329Y-112084030D01*
X113849999Y-112065000D01*
X114750001Y-112065000D01*
X114845671Y-112084030D01*
G37*
G04 #@! TD.AperFunction*
G04 #@! TA.AperFunction,SMDPad,CuDef*
G36*
X67975671Y-132034030D02*
G01*
X68056777Y-132088223D01*
X68110970Y-132169329D01*
X68130000Y-132264999D01*
X68130000Y-133165001D01*
X68110970Y-133260671D01*
X68056777Y-133341777D01*
X67975671Y-133395970D01*
X67880001Y-133415000D01*
X67229999Y-133415000D01*
X67134329Y-133395970D01*
X67053223Y-133341777D01*
X66999030Y-133260671D01*
X66980000Y-133165001D01*
X66980000Y-132264999D01*
X66999030Y-132169329D01*
X67053223Y-132088223D01*
X67134329Y-132034030D01*
X67229999Y-132015000D01*
X67880001Y-132015000D01*
X67975671Y-132034030D01*
G37*
G04 #@! TD.AperFunction*
G04 #@! TA.AperFunction,SMDPad,CuDef*
G36*
X70025671Y-132034030D02*
G01*
X70106777Y-132088223D01*
X70160970Y-132169329D01*
X70180000Y-132264999D01*
X70180000Y-133165001D01*
X70160970Y-133260671D01*
X70106777Y-133341777D01*
X70025671Y-133395970D01*
X69930001Y-133415000D01*
X69279999Y-133415000D01*
X69184329Y-133395970D01*
X69103223Y-133341777D01*
X69049030Y-133260671D01*
X69030000Y-133165001D01*
X69030000Y-132264999D01*
X69049030Y-132169329D01*
X69103223Y-132088223D01*
X69184329Y-132034030D01*
X69279999Y-132015000D01*
X69930001Y-132015000D01*
X70025671Y-132034030D01*
G37*
G04 #@! TD.AperFunction*
G04 #@! TA.AperFunction,SMDPad,CuDef*
G36*
X73835671Y-90124030D02*
G01*
X73916777Y-90178223D01*
X73970970Y-90259329D01*
X73990000Y-90354999D01*
X73990000Y-91255001D01*
X73970970Y-91350671D01*
X73916777Y-91431777D01*
X73835671Y-91485970D01*
X73740001Y-91505000D01*
X73089999Y-91505000D01*
X72994329Y-91485970D01*
X72913223Y-91431777D01*
X72859030Y-91350671D01*
X72840000Y-91255001D01*
X72840000Y-90354999D01*
X72859030Y-90259329D01*
X72913223Y-90178223D01*
X72994329Y-90124030D01*
X73089999Y-90105000D01*
X73740001Y-90105000D01*
X73835671Y-90124030D01*
G37*
G04 #@! TD.AperFunction*
G04 #@! TA.AperFunction,SMDPad,CuDef*
G36*
X71785671Y-90124030D02*
G01*
X71866777Y-90178223D01*
X71920970Y-90259329D01*
X71940000Y-90354999D01*
X71940000Y-91255001D01*
X71920970Y-91350671D01*
X71866777Y-91431777D01*
X71785671Y-91485970D01*
X71690001Y-91505000D01*
X71039999Y-91505000D01*
X70944329Y-91485970D01*
X70863223Y-91431777D01*
X70809030Y-91350671D01*
X70790000Y-91255001D01*
X70790000Y-90354999D01*
X70809030Y-90259329D01*
X70863223Y-90178223D01*
X70944329Y-90124030D01*
X71039999Y-90105000D01*
X71690001Y-90105000D01*
X71785671Y-90124030D01*
G37*
G04 #@! TD.AperFunction*
G04 #@! TA.AperFunction,SMDPad,CuDef*
G36*
X121830671Y-103829030D02*
G01*
X121911777Y-103883223D01*
X121965970Y-103964329D01*
X121985000Y-104059999D01*
X121985000Y-104710001D01*
X121965970Y-104805671D01*
X121911777Y-104886777D01*
X121830671Y-104940970D01*
X121735001Y-104960000D01*
X120834999Y-104960000D01*
X120739329Y-104940970D01*
X120658223Y-104886777D01*
X120604030Y-104805671D01*
X120585000Y-104710001D01*
X120585000Y-104059999D01*
X120604030Y-103964329D01*
X120658223Y-103883223D01*
X120739329Y-103829030D01*
X120834999Y-103810000D01*
X121735001Y-103810000D01*
X121830671Y-103829030D01*
G37*
G04 #@! TD.AperFunction*
G04 #@! TA.AperFunction,SMDPad,CuDef*
G36*
X121830671Y-105879030D02*
G01*
X121911777Y-105933223D01*
X121965970Y-106014329D01*
X121985000Y-106109999D01*
X121985000Y-106760001D01*
X121965970Y-106855671D01*
X121911777Y-106936777D01*
X121830671Y-106990970D01*
X121735001Y-107010000D01*
X120834999Y-107010000D01*
X120739329Y-106990970D01*
X120658223Y-106936777D01*
X120604030Y-106855671D01*
X120585000Y-106760001D01*
X120585000Y-106109999D01*
X120604030Y-106014329D01*
X120658223Y-105933223D01*
X120739329Y-105879030D01*
X120834999Y-105860000D01*
X121735001Y-105860000D01*
X121830671Y-105879030D01*
G37*
G04 #@! TD.AperFunction*
G04 #@! TA.AperFunction,SMDPad,CuDef*
G36*
X74325671Y-118699030D02*
G01*
X74406777Y-118753223D01*
X74460970Y-118834329D01*
X74480000Y-118929999D01*
X74480000Y-119830001D01*
X74460970Y-119925671D01*
X74406777Y-120006777D01*
X74325671Y-120060970D01*
X74230001Y-120080000D01*
X73579999Y-120080000D01*
X73484329Y-120060970D01*
X73403223Y-120006777D01*
X73349030Y-119925671D01*
X73330000Y-119830001D01*
X73330000Y-118929999D01*
X73349030Y-118834329D01*
X73403223Y-118753223D01*
X73484329Y-118699030D01*
X73579999Y-118680000D01*
X74230001Y-118680000D01*
X74325671Y-118699030D01*
G37*
G04 #@! TD.AperFunction*
G04 #@! TA.AperFunction,SMDPad,CuDef*
G36*
X76375671Y-118699030D02*
G01*
X76456777Y-118753223D01*
X76510970Y-118834329D01*
X76530000Y-118929999D01*
X76530000Y-119830001D01*
X76510970Y-119925671D01*
X76456777Y-120006777D01*
X76375671Y-120060970D01*
X76280001Y-120080000D01*
X75629999Y-120080000D01*
X75534329Y-120060970D01*
X75453223Y-120006777D01*
X75399030Y-119925671D01*
X75380000Y-119830001D01*
X75380000Y-118929999D01*
X75399030Y-118834329D01*
X75453223Y-118753223D01*
X75534329Y-118699030D01*
X75629999Y-118680000D01*
X76280001Y-118680000D01*
X76375671Y-118699030D01*
G37*
G04 #@! TD.AperFunction*
G04 #@! TA.AperFunction,SMDPad,CuDef*
G36*
X102620671Y-106229030D02*
G01*
X102701777Y-106283223D01*
X102755970Y-106364329D01*
X102775000Y-106460000D01*
X102775000Y-107460000D01*
X102755970Y-107555671D01*
X102701777Y-107636777D01*
X102620671Y-107690970D01*
X102525000Y-107710000D01*
X100675000Y-107710000D01*
X100579329Y-107690970D01*
X100498223Y-107636777D01*
X100444030Y-107555671D01*
X100425000Y-107460000D01*
X100425000Y-106460000D01*
X100444030Y-106364329D01*
X100498223Y-106283223D01*
X100579329Y-106229030D01*
X100675000Y-106210000D01*
X102525000Y-106210000D01*
X102620671Y-106229030D01*
G37*
G04 #@! TD.AperFunction*
G04 #@! TA.AperFunction,SMDPad,CuDef*
G36*
X102620671Y-109479030D02*
G01*
X102701777Y-109533223D01*
X102755970Y-109614329D01*
X102775000Y-109710000D01*
X102775000Y-110710000D01*
X102755970Y-110805671D01*
X102701777Y-110886777D01*
X102620671Y-110940970D01*
X102525000Y-110960000D01*
X100675000Y-110960000D01*
X100579329Y-110940970D01*
X100498223Y-110886777D01*
X100444030Y-110805671D01*
X100425000Y-110710000D01*
X100425000Y-109710000D01*
X100444030Y-109614329D01*
X100498223Y-109533223D01*
X100579329Y-109479030D01*
X100675000Y-109460000D01*
X102525000Y-109460000D01*
X102620671Y-109479030D01*
G37*
G04 #@! TD.AperFunction*
G04 #@! TA.AperFunction,SMDPad,CuDef*
G36*
X88650671Y-106229030D02*
G01*
X88731777Y-106283223D01*
X88785970Y-106364329D01*
X88805000Y-106460000D01*
X88805000Y-107460000D01*
X88785970Y-107555671D01*
X88731777Y-107636777D01*
X88650671Y-107690970D01*
X88555000Y-107710000D01*
X86705000Y-107710000D01*
X86609329Y-107690970D01*
X86528223Y-107636777D01*
X86474030Y-107555671D01*
X86455000Y-107460000D01*
X86455000Y-106460000D01*
X86474030Y-106364329D01*
X86528223Y-106283223D01*
X86609329Y-106229030D01*
X86705000Y-106210000D01*
X88555000Y-106210000D01*
X88650671Y-106229030D01*
G37*
G04 #@! TD.AperFunction*
G04 #@! TA.AperFunction,SMDPad,CuDef*
G36*
X88650671Y-109479030D02*
G01*
X88731777Y-109533223D01*
X88785970Y-109614329D01*
X88805000Y-109710000D01*
X88805000Y-110710000D01*
X88785970Y-110805671D01*
X88731777Y-110886777D01*
X88650671Y-110940970D01*
X88555000Y-110960000D01*
X86705000Y-110960000D01*
X86609329Y-110940970D01*
X86528223Y-110886777D01*
X86474030Y-110805671D01*
X86455000Y-110710000D01*
X86455000Y-109710000D01*
X86474030Y-109614329D01*
X86528223Y-109533223D01*
X86609329Y-109479030D01*
X86705000Y-109460000D01*
X88555000Y-109460000D01*
X88650671Y-109479030D01*
G37*
G04 #@! TD.AperFunction*
D23*
X107235000Y-125095000D03*
X102235000Y-125095000D03*
X93265000Y-125095000D03*
X88265000Y-125095000D03*
G04 #@! TA.AperFunction,SMDPad,CuDef*
G36*
X76230671Y-122509030D02*
G01*
X76311777Y-122563223D01*
X76365970Y-122644329D01*
X76385000Y-122739999D01*
X76385000Y-123640001D01*
X76365970Y-123735671D01*
X76311777Y-123816777D01*
X76230671Y-123870970D01*
X76135001Y-123890000D01*
X75484999Y-123890000D01*
X75389329Y-123870970D01*
X75308223Y-123816777D01*
X75254030Y-123735671D01*
X75235000Y-123640001D01*
X75235000Y-122739999D01*
X75254030Y-122644329D01*
X75308223Y-122563223D01*
X75389329Y-122509030D01*
X75484999Y-122490000D01*
X76135001Y-122490000D01*
X76230671Y-122509030D01*
G37*
G04 #@! TD.AperFunction*
G04 #@! TA.AperFunction,SMDPad,CuDef*
G36*
X78280671Y-122509030D02*
G01*
X78361777Y-122563223D01*
X78415970Y-122644329D01*
X78435000Y-122739999D01*
X78435000Y-123640001D01*
X78415970Y-123735671D01*
X78361777Y-123816777D01*
X78280671Y-123870970D01*
X78185001Y-123890000D01*
X77534999Y-123890000D01*
X77439329Y-123870970D01*
X77358223Y-123816777D01*
X77304030Y-123735671D01*
X77285000Y-123640001D01*
X77285000Y-122739999D01*
X77304030Y-122644329D01*
X77358223Y-122563223D01*
X77439329Y-122509030D01*
X77534999Y-122490000D01*
X78185001Y-122490000D01*
X78280671Y-122509030D01*
G37*
G04 #@! TD.AperFunction*
D31*
X122555000Y-60840000D03*
D32*
X122555000Y-53340000D03*
G04 #@! TA.AperFunction,SMDPad,CuDef*
G36*
X108990671Y-36129030D02*
G01*
X109071777Y-36183223D01*
X109125970Y-36264329D01*
X109145000Y-36359999D01*
X109145000Y-37260001D01*
X109125970Y-37355671D01*
X109071777Y-37436777D01*
X108990671Y-37490970D01*
X108895001Y-37510000D01*
X108244999Y-37510000D01*
X108149329Y-37490970D01*
X108068223Y-37436777D01*
X108014030Y-37355671D01*
X107995000Y-37260001D01*
X107995000Y-36359999D01*
X108014030Y-36264329D01*
X108068223Y-36183223D01*
X108149329Y-36129030D01*
X108244999Y-36110000D01*
X108895001Y-36110000D01*
X108990671Y-36129030D01*
G37*
G04 #@! TD.AperFunction*
G04 #@! TA.AperFunction,SMDPad,CuDef*
G36*
X106940671Y-36129030D02*
G01*
X107021777Y-36183223D01*
X107075970Y-36264329D01*
X107095000Y-36359999D01*
X107095000Y-37260001D01*
X107075970Y-37355671D01*
X107021777Y-37436777D01*
X106940671Y-37490970D01*
X106845001Y-37510000D01*
X106194999Y-37510000D01*
X106099329Y-37490970D01*
X106018223Y-37436777D01*
X105964030Y-37355671D01*
X105945000Y-37260001D01*
X105945000Y-36359999D01*
X105964030Y-36264329D01*
X106018223Y-36183223D01*
X106099329Y-36129030D01*
X106194999Y-36110000D01*
X106845001Y-36110000D01*
X106940671Y-36129030D01*
G37*
G04 #@! TD.AperFunction*
D31*
X84455000Y-36950000D03*
D32*
X84455000Y-44450000D03*
G04 #@! TA.AperFunction,SMDPad,CuDef*
G36*
X127975671Y-40604030D02*
G01*
X128056777Y-40658223D01*
X128110970Y-40739329D01*
X128130000Y-40835000D01*
X128130000Y-42985000D01*
X128110970Y-43080671D01*
X128056777Y-43161777D01*
X127975671Y-43215970D01*
X127880000Y-43235000D01*
X126955000Y-43235000D01*
X126859329Y-43215970D01*
X126778223Y-43161777D01*
X126724030Y-43080671D01*
X126705000Y-42985000D01*
X126705000Y-40835000D01*
X126724030Y-40739329D01*
X126778223Y-40658223D01*
X126859329Y-40604030D01*
X126955000Y-40585000D01*
X127880000Y-40585000D01*
X127975671Y-40604030D01*
G37*
G04 #@! TD.AperFunction*
G04 #@! TA.AperFunction,SMDPad,CuDef*
G36*
X130950671Y-40604030D02*
G01*
X131031777Y-40658223D01*
X131085970Y-40739329D01*
X131105000Y-40835000D01*
X131105000Y-42985000D01*
X131085970Y-43080671D01*
X131031777Y-43161777D01*
X130950671Y-43215970D01*
X130855000Y-43235000D01*
X129930000Y-43235000D01*
X129834329Y-43215970D01*
X129753223Y-43161777D01*
X129699030Y-43080671D01*
X129680000Y-42985000D01*
X129680000Y-40835000D01*
X129699030Y-40739329D01*
X129753223Y-40658223D01*
X129834329Y-40604030D01*
X129930000Y-40585000D01*
X130855000Y-40585000D01*
X130950671Y-40604030D01*
G37*
G04 #@! TD.AperFunction*
G04 #@! TA.AperFunction,SMDPad,CuDef*
G36*
X125235671Y-40604030D02*
G01*
X125316777Y-40658223D01*
X125370970Y-40739329D01*
X125390000Y-40835000D01*
X125390000Y-42985000D01*
X125370970Y-43080671D01*
X125316777Y-43161777D01*
X125235671Y-43215970D01*
X125140000Y-43235000D01*
X124215000Y-43235000D01*
X124119329Y-43215970D01*
X124038223Y-43161777D01*
X123984030Y-43080671D01*
X123965000Y-42985000D01*
X123965000Y-40835000D01*
X123984030Y-40739329D01*
X124038223Y-40658223D01*
X124119329Y-40604030D01*
X124215000Y-40585000D01*
X125140000Y-40585000D01*
X125235671Y-40604030D01*
G37*
G04 #@! TD.AperFunction*
G04 #@! TA.AperFunction,SMDPad,CuDef*
G36*
X122260671Y-40604030D02*
G01*
X122341777Y-40658223D01*
X122395970Y-40739329D01*
X122415000Y-40835000D01*
X122415000Y-42985000D01*
X122395970Y-43080671D01*
X122341777Y-43161777D01*
X122260671Y-43215970D01*
X122165000Y-43235000D01*
X121240000Y-43235000D01*
X121144329Y-43215970D01*
X121063223Y-43161777D01*
X121009030Y-43080671D01*
X120990000Y-42985000D01*
X120990000Y-40835000D01*
X121009030Y-40739329D01*
X121063223Y-40658223D01*
X121144329Y-40604030D01*
X121240000Y-40585000D01*
X122165000Y-40585000D01*
X122260671Y-40604030D01*
G37*
G04 #@! TD.AperFunction*
G04 #@! TA.AperFunction,SMDPad,CuDef*
G36*
X73835671Y-95839030D02*
G01*
X73916777Y-95893223D01*
X73970970Y-95974329D01*
X73990000Y-96069999D01*
X73990000Y-96970001D01*
X73970970Y-97065671D01*
X73916777Y-97146777D01*
X73835671Y-97200970D01*
X73740001Y-97220000D01*
X73089999Y-97220000D01*
X72994329Y-97200970D01*
X72913223Y-97146777D01*
X72859030Y-97065671D01*
X72840000Y-96970001D01*
X72840000Y-96069999D01*
X72859030Y-95974329D01*
X72913223Y-95893223D01*
X72994329Y-95839030D01*
X73089999Y-95820000D01*
X73740001Y-95820000D01*
X73835671Y-95839030D01*
G37*
G04 #@! TD.AperFunction*
G04 #@! TA.AperFunction,SMDPad,CuDef*
G36*
X71785671Y-95839030D02*
G01*
X71866777Y-95893223D01*
X71920970Y-95974329D01*
X71940000Y-96069999D01*
X71940000Y-96970001D01*
X71920970Y-97065671D01*
X71866777Y-97146777D01*
X71785671Y-97200970D01*
X71690001Y-97220000D01*
X71039999Y-97220000D01*
X70944329Y-97200970D01*
X70863223Y-97146777D01*
X70809030Y-97065671D01*
X70790000Y-96970001D01*
X70790000Y-96069999D01*
X70809030Y-95974329D01*
X70863223Y-95893223D01*
X70944329Y-95839030D01*
X71039999Y-95820000D01*
X71690001Y-95820000D01*
X71785671Y-95839030D01*
G37*
G04 #@! TD.AperFunction*
G04 #@! TA.AperFunction,SMDPad,CuDef*
G36*
X50750671Y-59934030D02*
G01*
X50831777Y-59988223D01*
X50885970Y-60069329D01*
X50905000Y-60165000D01*
X50905000Y-63065000D01*
X50885970Y-63160671D01*
X50831777Y-63241777D01*
X50750671Y-63295970D01*
X50655000Y-63315000D01*
X49855000Y-63315000D01*
X49759329Y-63295970D01*
X49678223Y-63241777D01*
X49624030Y-63160671D01*
X49605000Y-63065000D01*
X49605000Y-60165000D01*
X49624030Y-60069329D01*
X49678223Y-59988223D01*
X49759329Y-59934030D01*
X49855000Y-59915000D01*
X50655000Y-59915000D01*
X50750671Y-59934030D01*
G37*
G04 #@! TD.AperFunction*
G04 #@! TA.AperFunction,SMDPad,CuDef*
G36*
X46300671Y-59934030D02*
G01*
X46381777Y-59988223D01*
X46435970Y-60069329D01*
X46455000Y-60165000D01*
X46455000Y-63065000D01*
X46435970Y-63160671D01*
X46381777Y-63241777D01*
X46300671Y-63295970D01*
X46205000Y-63315000D01*
X45405000Y-63315000D01*
X45309329Y-63295970D01*
X45228223Y-63241777D01*
X45174030Y-63160671D01*
X45155000Y-63065000D01*
X45155000Y-60165000D01*
X45174030Y-60069329D01*
X45228223Y-59988223D01*
X45309329Y-59934030D01*
X45405000Y-59915000D01*
X46205000Y-59915000D01*
X46300671Y-59934030D01*
G37*
G04 #@! TD.AperFunction*
G04 #@! TA.AperFunction,SMDPad,CuDef*
G36*
X50750671Y-54854030D02*
G01*
X50831777Y-54908223D01*
X50885970Y-54989329D01*
X50905000Y-55085000D01*
X50905000Y-57985000D01*
X50885970Y-58080671D01*
X50831777Y-58161777D01*
X50750671Y-58215970D01*
X50655000Y-58235000D01*
X49855000Y-58235000D01*
X49759329Y-58215970D01*
X49678223Y-58161777D01*
X49624030Y-58080671D01*
X49605000Y-57985000D01*
X49605000Y-55085000D01*
X49624030Y-54989329D01*
X49678223Y-54908223D01*
X49759329Y-54854030D01*
X49855000Y-54835000D01*
X50655000Y-54835000D01*
X50750671Y-54854030D01*
G37*
G04 #@! TD.AperFunction*
G04 #@! TA.AperFunction,SMDPad,CuDef*
G36*
X46300671Y-54854030D02*
G01*
X46381777Y-54908223D01*
X46435970Y-54989329D01*
X46455000Y-55085000D01*
X46455000Y-57985000D01*
X46435970Y-58080671D01*
X46381777Y-58161777D01*
X46300671Y-58215970D01*
X46205000Y-58235000D01*
X45405000Y-58235000D01*
X45309329Y-58215970D01*
X45228223Y-58161777D01*
X45174030Y-58080671D01*
X45155000Y-57985000D01*
X45155000Y-55085000D01*
X45174030Y-54989329D01*
X45228223Y-54908223D01*
X45309329Y-54854030D01*
X45405000Y-54835000D01*
X46205000Y-54835000D01*
X46300671Y-54854030D01*
G37*
G04 #@! TD.AperFunction*
D33*
X39990000Y-40695000D03*
X39990000Y-31695000D03*
D34*
X40990000Y-36195000D03*
D35*
X46990000Y-36195000D03*
D36*
X92710000Y-93980000D03*
X91440000Y-93980000D03*
X90170000Y-93980000D03*
X88900000Y-93980000D03*
X92710000Y-92710000D03*
X91440000Y-92710000D03*
X90170000Y-92710000D03*
X88900000Y-92710000D03*
X92710000Y-91440000D03*
X91440000Y-91440000D03*
X90170000Y-91440000D03*
X88900000Y-91440000D03*
X92710000Y-81280000D03*
X91440000Y-81280000D03*
X90170000Y-81280000D03*
X88900000Y-81280000D03*
X92710000Y-80010000D03*
X91440000Y-80010000D03*
X90170000Y-80010000D03*
X88900000Y-80010000D03*
X92710000Y-78740000D03*
X91440000Y-78740000D03*
X90170000Y-78740000D03*
X88900000Y-78740000D03*
X119380000Y-115570000D03*
X125095000Y-115570000D03*
X53340000Y-69850000D03*
X99060000Y-93980000D03*
X99060000Y-81280000D03*
X90170000Y-70485000D03*
X62747590Y-109220000D03*
X123190000Y-123190000D03*
X76200000Y-131445000D03*
X70485000Y-134620000D03*
X71402510Y-128771140D03*
X69567490Y-127000000D03*
X72635000Y-118110000D03*
X71755000Y-112395000D03*
X60325000Y-114300000D03*
X73965000Y-121920000D03*
X46990000Y-95250000D03*
X53340000Y-88900000D03*
X53340000Y-95250000D03*
X49530000Y-80010000D03*
X49530000Y-96520000D03*
X78740000Y-113030000D03*
X111760000Y-113030000D03*
X132080000Y-113030000D03*
X74295000Y-107315000D03*
X83581716Y-105171716D03*
X74315000Y-96540000D03*
X74295000Y-93980000D03*
X74295000Y-90805000D03*
X74295000Y-86995000D03*
X55245000Y-84455000D03*
X55245000Y-102870000D03*
X74274270Y-125101826D03*
X60325000Y-124460000D03*
X57785000Y-125730000D03*
X65899998Y-129540000D03*
X104139999Y-105717557D03*
X128270000Y-101600000D03*
X123190000Y-101600000D03*
D37*
X131445000Y-60325000D03*
D36*
X108585000Y-108585000D03*
X126365000Y-108585000D03*
D37*
X64770000Y-39370000D03*
D36*
X50165000Y-109220000D03*
X50165000Y-106680000D03*
X50165000Y-104140000D03*
X50165000Y-101600000D03*
X50165000Y-99060000D03*
X93345000Y-106680000D03*
X85725000Y-106680000D03*
X114300000Y-107315000D03*
X93980000Y-107950000D03*
X81280000Y-129540000D03*
X74930000Y-128787590D03*
X88265000Y-132715000D03*
X79375000Y-132715000D03*
X94615000Y-128270000D03*
X79375000Y-128905000D03*
X114935000Y-78740000D03*
X116205000Y-78740000D03*
X117475000Y-78740000D03*
X118745000Y-78740000D03*
X114935000Y-80010000D03*
X116205000Y-80010000D03*
X117475000Y-80010000D03*
X118745000Y-80010000D03*
X114935000Y-81280000D03*
X116205000Y-81280000D03*
X117475000Y-81280000D03*
X118745000Y-81280000D03*
X114935000Y-91440000D03*
X116205000Y-91440000D03*
X117475000Y-91440000D03*
X118745000Y-91440000D03*
X114935000Y-92710000D03*
X116205000Y-92710000D03*
X117475000Y-92710000D03*
X118745000Y-92710000D03*
X114935000Y-93980000D03*
X116205000Y-93980000D03*
X117475000Y-93980000D03*
X118745000Y-93980000D03*
X102235000Y-68580000D03*
X106680000Y-87630000D03*
X107950000Y-87630000D03*
X109220000Y-87630000D03*
X110490000Y-87630000D03*
X110490000Y-86360000D03*
X109220000Y-86360000D03*
X107950000Y-86360000D03*
X106680000Y-86360000D03*
X106680000Y-85090000D03*
X107950000Y-85090000D03*
X109220000Y-85090000D03*
X110490000Y-85090000D03*
X110490000Y-100330000D03*
X109220000Y-100330000D03*
X107950000Y-100330000D03*
X106680000Y-100330000D03*
X106680000Y-99060000D03*
X107950000Y-99060000D03*
X109220000Y-99060000D03*
X110490000Y-99060000D03*
X110490000Y-97790000D03*
X109220000Y-97790000D03*
X107950000Y-97790000D03*
X106680000Y-97790000D03*
X97790000Y-91440000D03*
X99060000Y-91440000D03*
X100330000Y-91440000D03*
X101600000Y-91440000D03*
X101600000Y-92710000D03*
X100330000Y-92710000D03*
X99060000Y-92710000D03*
X97790000Y-92710000D03*
X97790000Y-93980000D03*
X100330000Y-93980000D03*
X101600000Y-93980000D03*
X97790000Y-78740000D03*
X99060000Y-78740000D03*
X100330000Y-78740000D03*
X101600000Y-78740000D03*
X101600000Y-80010000D03*
X100330000Y-80010000D03*
X99060000Y-80010000D03*
X97790000Y-80010000D03*
X97790000Y-81280000D03*
X100330000Y-81280000D03*
X101600000Y-81280000D03*
X103505000Y-68580000D03*
X102870000Y-67945000D03*
X102870000Y-69215000D03*
X90805000Y-71120000D03*
X90170000Y-71755000D03*
X89535000Y-71120000D03*
D38*
X91440000Y-113325000D02*
X91440000Y-107315000D01*
X91440000Y-107315000D02*
X92367446Y-106680000D01*
X92367446Y-106680000D02*
X92779315Y-106680000D01*
X92779315Y-106680000D02*
X93345000Y-106680000D01*
X87630000Y-110210000D02*
X87630000Y-111030000D01*
X87630000Y-111030000D02*
X85090000Y-113570000D01*
X101600000Y-110210000D02*
X101600000Y-111030000D01*
X101600000Y-111030000D02*
X99060000Y-113570000D01*
D39*
X119380000Y-115570000D02*
X119380000Y-117410000D01*
D38*
X120650000Y-116435000D02*
X120650000Y-117410000D01*
X120650000Y-115482098D02*
X120650000Y-116435000D01*
X115000000Y-114690000D02*
X115037501Y-114652499D01*
X114300000Y-114690000D02*
X115000000Y-114690000D01*
X115037501Y-114652499D02*
X119820401Y-114652499D01*
X119820401Y-114652499D02*
X120650000Y-115482098D01*
D39*
X124705000Y-104385000D02*
X125095000Y-104775000D01*
X125095000Y-104775000D02*
X125095000Y-115570000D01*
X123190000Y-104385000D02*
X124705000Y-104385000D01*
D40*
X53340000Y-69850000D02*
X50800000Y-69535000D01*
X55880000Y-69535000D02*
X53025000Y-69535000D01*
X53025000Y-69535000D02*
X53340000Y-69850000D01*
D41*
X89770001Y-71519999D02*
X90170000Y-71120000D01*
X54380000Y-61975000D02*
X65630010Y-73225010D01*
X65630010Y-73225010D02*
X88064990Y-73225010D01*
X88064990Y-73225010D02*
X89770001Y-71519999D01*
X65405000Y-66350000D02*
X67620000Y-66350000D01*
X54380000Y-56175000D02*
X55230000Y-56175000D01*
X55230000Y-56175000D02*
X65405000Y-66350000D01*
D38*
X73660000Y-84455000D02*
X58420000Y-84455000D01*
X55880000Y-86995000D02*
X55245000Y-86995000D01*
X74295000Y-85090000D02*
X73660000Y-84455000D01*
X74295000Y-86995000D02*
X74295000Y-85090000D01*
X58420000Y-84455000D02*
X55880000Y-86995000D01*
X55245000Y-86995000D02*
X53340000Y-88900000D01*
D42*
X62727590Y-109240000D02*
X62747590Y-109220000D01*
X53500000Y-109240000D02*
X62727590Y-109240000D01*
X123190000Y-122310000D02*
X123190000Y-123190000D01*
X78040000Y-131445000D02*
X76200000Y-131445000D01*
D38*
X71185000Y-134620000D02*
X70485000Y-134620000D01*
D42*
X73090000Y-127635000D02*
X72115000Y-127635000D01*
X72115000Y-127635000D02*
X71402510Y-128347490D01*
X69910000Y-126380000D02*
X69910000Y-126884800D01*
X71402510Y-128347490D02*
X71402510Y-128771140D01*
X69910000Y-126884800D02*
X69794800Y-127000000D01*
X69794800Y-127000000D02*
X69567490Y-127000000D01*
D38*
X70485000Y-134620000D02*
X68760000Y-134620000D01*
D42*
X73600000Y-112395000D02*
X71755000Y-112395000D01*
X76260000Y-113045000D02*
X75710000Y-113045000D01*
X74455000Y-114300000D02*
X60325000Y-114300000D01*
X75710000Y-113045000D02*
X74455000Y-114300000D01*
X44610000Y-74315000D02*
X45185000Y-74315000D01*
X52185000Y-81315000D02*
X85055000Y-81315000D01*
X45185000Y-74315000D02*
X52185000Y-81315000D01*
D38*
X53340000Y-95250000D02*
X46990000Y-95250000D01*
X53340000Y-88900000D02*
X55490000Y-88900000D01*
X60730000Y-96520000D02*
X54610000Y-96520000D01*
X54610000Y-96520000D02*
X53340000Y-95250000D01*
X49530000Y-80010000D02*
X45225000Y-80010000D01*
X45225000Y-80010000D02*
X44610000Y-79395000D01*
X49530000Y-96520000D02*
X46495000Y-96520000D01*
X46495000Y-96520000D02*
X44610000Y-94635000D01*
D42*
X53340000Y-96520000D02*
X49530000Y-96520000D01*
X54610000Y-97790000D02*
X53340000Y-96520000D01*
X64770000Y-97790000D02*
X54610000Y-97790000D01*
X66040000Y-96520000D02*
X64770000Y-97790000D01*
X68350000Y-96520000D02*
X66040000Y-96520000D01*
D40*
X82920000Y-115050000D02*
X85090000Y-117220000D01*
X82920000Y-107580000D02*
X82920000Y-115050000D01*
X81280000Y-94020000D02*
X81280000Y-110490000D01*
X85725000Y-99415000D02*
X85725000Y-104775000D01*
X85725000Y-104775000D02*
X82920000Y-107580000D01*
X90825000Y-94015000D02*
X90825000Y-94315000D01*
X90825000Y-94315000D02*
X85725000Y-99415000D01*
X85090000Y-117220000D02*
X85090000Y-117570000D01*
X81280000Y-110490000D02*
X78740000Y-113030000D01*
X81260000Y-94000000D02*
X81280000Y-94020000D01*
X78740000Y-94000000D02*
X81260000Y-94000000D01*
D38*
X78105000Y-115570000D02*
X77787500Y-115887500D01*
X77787500Y-115887500D02*
X76835000Y-116840000D01*
D40*
X78740000Y-113030000D02*
X78740000Y-114935000D01*
X78740000Y-114935000D02*
X77787500Y-115887500D01*
X111760000Y-113030000D02*
X113910000Y-113030000D01*
X113910000Y-113030000D02*
X114300000Y-112640000D01*
X132080000Y-68381933D02*
X132080000Y-113030000D01*
X133250967Y-67210966D02*
X132080000Y-68381933D01*
X132080000Y-38620000D02*
X132080000Y-57983067D01*
X133550010Y-66911923D02*
X133250967Y-67210966D01*
X132080000Y-57983067D02*
X133550010Y-59453077D01*
X133550010Y-59453077D02*
X133550010Y-66911923D01*
X128905000Y-37465000D02*
X130925000Y-37465000D01*
X130925000Y-37465000D02*
X132080000Y-38620000D01*
D41*
X50800000Y-32385000D02*
X54115000Y-35560000D01*
X44785000Y-31750000D02*
X50165000Y-31750000D01*
X50165000Y-31750000D02*
X50800000Y-32385000D01*
X40990000Y-36195000D02*
X40990000Y-35545000D01*
X40990000Y-35545000D02*
X44785000Y-31750000D01*
X44855000Y-41930000D02*
X45795000Y-41930000D01*
X45795000Y-41930000D02*
X46990000Y-40735000D01*
X46990000Y-40735000D02*
X46990000Y-36195000D01*
D39*
X54915000Y-118745000D02*
X56760000Y-118745000D01*
X55490000Y-115570000D02*
X56760000Y-115570000D01*
D38*
X74295000Y-107315000D02*
X74295000Y-108195000D01*
X74295000Y-108195000D02*
X73905000Y-108585000D01*
X88545000Y-88115000D02*
X83581716Y-93078284D01*
X88545000Y-87615000D02*
X88545000Y-88115000D01*
X83581716Y-93078284D02*
X83581716Y-104606031D01*
X83581716Y-104606031D02*
X83581716Y-105171716D01*
D41*
X96698630Y-74930000D02*
X91470000Y-74930000D01*
X91470000Y-74930000D02*
X90825000Y-75575000D01*
X90825000Y-75575000D02*
X90825000Y-81315000D01*
X100330000Y-72430000D02*
X99198630Y-72430000D01*
X99198630Y-72430000D02*
X96698630Y-74930000D01*
X119340000Y-72430000D02*
X127635000Y-64770000D01*
X122555000Y-53340000D02*
X126295000Y-53340000D01*
X126295000Y-53340000D02*
X127635000Y-54680000D01*
X127635000Y-54680000D02*
X127635000Y-64770000D01*
D38*
X73415000Y-88900000D02*
X77470000Y-88900000D01*
X77470000Y-88900000D02*
X85055000Y-81315000D01*
X85055000Y-81315000D02*
X90825000Y-81315000D01*
X74295000Y-93980000D02*
X73415000Y-93980000D01*
X74295000Y-90805000D02*
X73415000Y-90805000D01*
X73415000Y-86995000D02*
X74295000Y-86995000D01*
X76287919Y-95250000D02*
X71455000Y-95250000D01*
X71455000Y-95250000D02*
X70185000Y-96520000D01*
X70185000Y-96520000D02*
X68350000Y-96520000D01*
X78740000Y-94000000D02*
X77537919Y-94000000D01*
X77537919Y-94000000D02*
X76287919Y-95250000D01*
D42*
X65922410Y-92827590D02*
X64770000Y-93980000D01*
X64770000Y-93980000D02*
X60730000Y-93980000D01*
X66596090Y-91440000D02*
X66845200Y-91440000D01*
X77585200Y-91460000D02*
X76217610Y-92827590D01*
X42112210Y-92592410D02*
X65443680Y-92592410D01*
X41614800Y-92095000D02*
X42112210Y-92592410D01*
X65443680Y-92592410D02*
X66596090Y-91440000D01*
X40410000Y-92095000D02*
X41614800Y-92095000D01*
X66845200Y-91440000D02*
X68350000Y-91440000D01*
X78740000Y-91460000D02*
X77585200Y-91460000D01*
X76217610Y-92827590D02*
X65922410Y-92827590D01*
X55245000Y-84455000D02*
X44630000Y-84455000D01*
X44630000Y-84455000D02*
X44610000Y-84475000D01*
X68350000Y-104140000D02*
X67950000Y-104140000D01*
X67950000Y-104140000D02*
X66680000Y-102870000D01*
X66680000Y-102870000D02*
X55245000Y-102870000D01*
D39*
X78740000Y-99080000D02*
X68370000Y-99080000D01*
X68370000Y-99080000D02*
X68350000Y-99060000D01*
X78740000Y-101620000D02*
X68370000Y-101620000D01*
X68370000Y-101620000D02*
X68350000Y-101600000D01*
D38*
X74295000Y-123825000D02*
X71715000Y-123825000D01*
X71715000Y-123825000D02*
X70460000Y-125080000D01*
X70460000Y-125080000D02*
X69910000Y-125080000D01*
X75565000Y-125095000D02*
X74295000Y-123825000D01*
D42*
X73090000Y-125095000D02*
X74267444Y-125095000D01*
D38*
X78040000Y-125095000D02*
X75565000Y-125095000D01*
D42*
X74267444Y-125095000D02*
X74274270Y-125101826D01*
X67250000Y-125080000D02*
X60945000Y-125080000D01*
X60945000Y-125080000D02*
X60325000Y-124460000D01*
X67250000Y-125730000D02*
X57785000Y-125730000D01*
X66071442Y-130825000D02*
X66195200Y-130825000D01*
X65147596Y-127932404D02*
X65147596Y-129901154D01*
X65147596Y-129901154D02*
X66071442Y-130825000D01*
X66700000Y-126380000D02*
X65147596Y-127932404D01*
X67250000Y-126380000D02*
X66700000Y-126380000D01*
X66195200Y-130825000D02*
X67250000Y-130825000D01*
X67250000Y-130175000D02*
X66195200Y-130175000D01*
X66195200Y-130175000D02*
X65899998Y-129879798D01*
X65899998Y-129879798D02*
X65899998Y-129540000D01*
D38*
X104139999Y-106283242D02*
X104139999Y-105717557D01*
X104139999Y-107619999D02*
X104139999Y-106283242D01*
X104140000Y-108195000D02*
X104139999Y-107619999D01*
X105410000Y-113325000D02*
X105410000Y-105690000D01*
X105410000Y-105690000D02*
X104140000Y-104420000D01*
D40*
X99060000Y-117570000D02*
X96890000Y-117570000D01*
X96890000Y-117570000D02*
X95525000Y-116205000D01*
X86455000Y-116205000D02*
X85090000Y-117570000D01*
X95525000Y-116205000D02*
X86455000Y-116205000D01*
X125730000Y-125095000D02*
X107235000Y-125095000D01*
X128270000Y-122555000D02*
X125730000Y-125095000D01*
X128270000Y-115880000D02*
X128270000Y-122555000D01*
X128270000Y-101600000D02*
X128270000Y-115880000D01*
X128717500Y-92710000D02*
X128717500Y-101152500D01*
X128717500Y-101152500D02*
X128270000Y-101600000D01*
D38*
X113665000Y-116205000D02*
X114300000Y-115570000D01*
X114300000Y-115570000D02*
X114300000Y-114690000D01*
X113665000Y-121920000D02*
X113665000Y-116205000D01*
X114055000Y-122310000D02*
X113665000Y-121920000D01*
X115570000Y-122310000D02*
X114055000Y-122310000D01*
X128270000Y-115880000D02*
X123890000Y-120260000D01*
X123890000Y-120260000D02*
X123190000Y-120260000D01*
X123190000Y-101412500D02*
X123190000Y-101600000D01*
D41*
X128717500Y-68767500D02*
X131445000Y-66040000D01*
X131445000Y-66040000D02*
X131445000Y-60325000D01*
X128717500Y-71942500D02*
X128717500Y-68767500D01*
X128717500Y-92710000D02*
X128717500Y-71942500D01*
D38*
X95250000Y-97790000D02*
X95885000Y-98425000D01*
X95265000Y-87615000D02*
X95265000Y-96596502D01*
X95265000Y-96596502D02*
X95250000Y-96611502D01*
X95250000Y-96611502D02*
X95250000Y-97790000D01*
X95885000Y-98425000D02*
X103505000Y-98425000D01*
X103505000Y-98425000D02*
X104140000Y-99060000D01*
X104140000Y-99060000D02*
X104140000Y-104420000D01*
X104140000Y-104420000D02*
X101600000Y-106960000D01*
D41*
X95265000Y-87615000D02*
X93105000Y-87615000D01*
X97435000Y-87615000D02*
X95265000Y-87615000D01*
D38*
X108585000Y-108585000D02*
X107070000Y-108585000D01*
X107070000Y-108585000D02*
X106680000Y-108195000D01*
X125095000Y-85725000D02*
X126365000Y-86995000D01*
X126365000Y-86995000D02*
X126365000Y-108585000D01*
X117705000Y-85725000D02*
X125095000Y-85725000D01*
X114580000Y-87615000D02*
X115815000Y-87615000D01*
X115815000Y-87615000D02*
X117705000Y-85725000D01*
D39*
X40410000Y-94635000D02*
X42560000Y-94635000D01*
X40410000Y-89555000D02*
X42560000Y-89555000D01*
X40410000Y-84475000D02*
X42560000Y-84475000D01*
X40410000Y-79395000D02*
X41530990Y-79395000D01*
X41530990Y-79395000D02*
X42560000Y-79395000D01*
X40410000Y-74315000D02*
X42560000Y-74315000D01*
X40410000Y-69235000D02*
X42560000Y-69235000D01*
X57540000Y-88900000D02*
X60730000Y-88900000D01*
D42*
X67250000Y-132410000D02*
X67555000Y-132715000D01*
X67250000Y-130825000D02*
X67250000Y-132410000D01*
D39*
X68350000Y-88900000D02*
X71365000Y-88900000D01*
X71365000Y-86995000D02*
X71365000Y-88900000D01*
X71365000Y-88900000D02*
X71365000Y-90805000D01*
X73435000Y-96540000D02*
X73415000Y-96520000D01*
X78740000Y-96540000D02*
X73435000Y-96540000D01*
X71365000Y-96520000D02*
X68350000Y-96520000D01*
X71365000Y-93980000D02*
X68350000Y-93980000D01*
X40410000Y-109240000D02*
X40410000Y-106700000D01*
X40410000Y-106700000D02*
X40410000Y-104160000D01*
X40410000Y-104160000D02*
X40410000Y-101620000D01*
X40410000Y-101620000D02*
X40410000Y-99080000D01*
X53520000Y-99060000D02*
X53500000Y-99080000D01*
X60730000Y-99060000D02*
X53520000Y-99060000D01*
X49184010Y-97925990D02*
X48829999Y-98280001D01*
X53045990Y-97925990D02*
X49184010Y-97925990D01*
X48829999Y-98280001D02*
X48030000Y-99080000D01*
X53500000Y-98380000D02*
X53045990Y-97925990D01*
X53500000Y-99080000D02*
X53500000Y-98380000D01*
X53520000Y-101600000D02*
X53500000Y-101620000D01*
X60730000Y-101600000D02*
X53520000Y-101600000D01*
X53520000Y-104140000D02*
X53500000Y-104160000D01*
X60730000Y-104140000D02*
X53520000Y-104140000D01*
X65387990Y-107934010D02*
X66642000Y-106680000D01*
X55309010Y-107934010D02*
X65387990Y-107934010D01*
X66642000Y-106680000D02*
X68350000Y-106680000D01*
X54075000Y-106700000D02*
X55309010Y-107934010D01*
X53500000Y-106700000D02*
X54075000Y-106700000D01*
X48829999Y-100820001D02*
X48030000Y-101620000D01*
X49184010Y-100465990D02*
X48829999Y-100820001D01*
X53045990Y-100465990D02*
X49184010Y-100465990D01*
X53500000Y-100920000D02*
X53045990Y-100465990D01*
X53500000Y-101620000D02*
X53500000Y-100920000D01*
X48829999Y-103360001D02*
X48030000Y-104160000D01*
X49184010Y-103005990D02*
X48829999Y-103360001D01*
X53500000Y-103460000D02*
X53045990Y-103005990D01*
X53045990Y-103005990D02*
X49184010Y-103005990D01*
X53500000Y-104160000D02*
X53500000Y-103460000D01*
X48829999Y-105900001D02*
X48030000Y-106700000D01*
X53045990Y-105545990D02*
X49184010Y-105545990D01*
X53500000Y-106000000D02*
X53045990Y-105545990D01*
X49184010Y-105545990D02*
X48829999Y-105900001D01*
X53500000Y-106700000D02*
X53500000Y-106000000D01*
X48829999Y-108440001D02*
X48030000Y-109240000D01*
X49184010Y-108085990D02*
X48829999Y-108440001D01*
X53500000Y-108540000D02*
X53045990Y-108085990D01*
X53045990Y-108085990D02*
X49184010Y-108085990D01*
X53500000Y-109240000D02*
X53500000Y-108540000D01*
X51435000Y-115570000D02*
X49530000Y-117475000D01*
X55490000Y-115570000D02*
X51435000Y-115570000D01*
X54915000Y-118745000D02*
X46990000Y-118745000D01*
X56760000Y-118745000D02*
X56185000Y-118745000D01*
X46291501Y-130746501D02*
X46990000Y-131445000D01*
X45837499Y-130292499D02*
X46291501Y-130746501D01*
X45837499Y-118909673D02*
X45837499Y-130292499D01*
X46002172Y-118745000D02*
X45837499Y-118909673D01*
X46990000Y-118745000D02*
X46002172Y-118745000D01*
X61812500Y-115570000D02*
X62230000Y-115987500D01*
X58810000Y-115570000D02*
X61812500Y-115570000D01*
X62012500Y-118745000D02*
X62230000Y-118962500D01*
X58810000Y-118745000D02*
X62012500Y-118745000D01*
X63082500Y-118110000D02*
X66105000Y-118110000D01*
X62230000Y-118962500D02*
X63082500Y-118110000D01*
X63082500Y-116840000D02*
X62230000Y-115987500D01*
X66105000Y-116840000D02*
X63082500Y-116840000D01*
X71055000Y-115570000D02*
X71055000Y-116840000D01*
X72635000Y-118110000D02*
X73905000Y-119380000D01*
X71055000Y-118110000D02*
X72635000Y-118110000D01*
X73905000Y-119380000D02*
X73905000Y-116840000D01*
X75955000Y-116840000D02*
X75955000Y-119380000D01*
X75955000Y-116140000D02*
X75955000Y-116840000D01*
X75385000Y-115570000D02*
X75955000Y-116140000D01*
X71055000Y-115570000D02*
X75385000Y-115570000D01*
D42*
X76260000Y-108890000D02*
X75955000Y-108585000D01*
X76260000Y-111745000D02*
X76260000Y-108890000D01*
X74702401Y-108807401D02*
X74702401Y-112876921D01*
X74480000Y-108585000D02*
X74702401Y-108807401D01*
X74702401Y-112876921D02*
X74549322Y-113030000D01*
X73905000Y-108585000D02*
X74480000Y-108585000D01*
X73615000Y-113030000D02*
X73600000Y-113045000D01*
X74549322Y-113030000D02*
X73615000Y-113030000D01*
D38*
X88265000Y-118910000D02*
X88900000Y-118275000D01*
X88265000Y-125095000D02*
X88265000Y-118910000D01*
X85795000Y-118275000D02*
X85090000Y-117570000D01*
X88900000Y-118275000D02*
X85795000Y-118275000D01*
X92710000Y-124540000D02*
X93265000Y-125095000D01*
X92710000Y-118275000D02*
X92710000Y-124540000D01*
X88655000Y-113570000D02*
X88900000Y-113325000D01*
X85090000Y-113570000D02*
X88655000Y-113570000D01*
X90170000Y-113325000D02*
X90170000Y-110245000D01*
X92710000Y-113325000D02*
X92710000Y-110245000D01*
X102235000Y-118910000D02*
X102870000Y-118275000D01*
X102235000Y-125095000D02*
X102235000Y-118910000D01*
X99765000Y-118275000D02*
X99060000Y-117570000D01*
X102870000Y-118275000D02*
X99765000Y-118275000D01*
X107235000Y-118830000D02*
X106680000Y-118275000D01*
X107235000Y-125095000D02*
X107235000Y-118830000D01*
X99305000Y-113325000D02*
X99060000Y-113570000D01*
X102870000Y-113325000D02*
X99305000Y-113325000D01*
X104140000Y-113325000D02*
X104140000Y-110245000D01*
X106680000Y-113325000D02*
X106680000Y-110245000D01*
X116660000Y-112640000D02*
X116840000Y-112460000D01*
X114300000Y-112640000D02*
X116660000Y-112640000D01*
X118110000Y-117410000D02*
X118110000Y-120260000D01*
X120650000Y-122310000D02*
X118110000Y-122310000D01*
X122700000Y-122310000D02*
X120650000Y-120260000D01*
X123190000Y-122310000D02*
X122700000Y-122310000D01*
X123190000Y-119950000D02*
X120650000Y-117410000D01*
X123190000Y-120260000D02*
X123190000Y-119950000D01*
X116840000Y-118990000D02*
X115570000Y-120260000D01*
X116840000Y-117410000D02*
X116840000Y-118990000D01*
X117620000Y-122310000D02*
X115570000Y-120260000D01*
X118110000Y-122310000D02*
X117620000Y-122310000D01*
X121285000Y-103317500D02*
X123190000Y-101412500D01*
X121285000Y-104385000D02*
X121285000Y-103317500D01*
X123190000Y-106435000D02*
X121285000Y-106435000D01*
X121285000Y-106435000D02*
X119380000Y-106435000D01*
D42*
X73090000Y-130175000D02*
X78040000Y-130175000D01*
X71110000Y-130175000D02*
X72115000Y-130175000D01*
X70460000Y-130825000D02*
X71110000Y-130175000D01*
X72115000Y-130175000D02*
X73090000Y-130175000D01*
X69910000Y-130825000D02*
X70460000Y-130825000D01*
X78040000Y-126365000D02*
X73090000Y-126365000D01*
X69925000Y-126365000D02*
X69910000Y-126380000D01*
X73090000Y-126365000D02*
X69925000Y-126365000D01*
D41*
X40410000Y-56535000D02*
X45805000Y-56535000D01*
X40410000Y-61615000D02*
X45805000Y-61615000D01*
X54020000Y-56535000D02*
X54380000Y-56175000D01*
X50255000Y-56535000D02*
X54020000Y-56535000D01*
X54020000Y-61615000D02*
X54380000Y-61975000D01*
X50255000Y-61615000D02*
X54020000Y-61615000D01*
D40*
X55880000Y-65085000D02*
X50800000Y-65085000D01*
X55880000Y-63475000D02*
X54380000Y-61975000D01*
X55880000Y-65085000D02*
X55880000Y-63475000D01*
D41*
X40410000Y-46375000D02*
X44855000Y-41930000D01*
X73415000Y-33280000D02*
X73415000Y-37840000D01*
X83565000Y-37840000D02*
X84455000Y-36950000D01*
X73415000Y-37840000D02*
X83565000Y-37840000D01*
X84455000Y-44450000D02*
X71315000Y-44450000D01*
X52315000Y-46730000D02*
X52315000Y-42170000D01*
X52315000Y-37660000D02*
X54415000Y-35560000D01*
X52315000Y-42170000D02*
X52315000Y-37660000D01*
X47090000Y-51455000D02*
X40410000Y-51455000D01*
X51815000Y-46730000D02*
X47090000Y-51455000D01*
X52315000Y-46730000D02*
X51815000Y-46730000D01*
X65015000Y-46730000D02*
X65015000Y-42170000D01*
X60715000Y-37840000D02*
X60715000Y-33280000D01*
X84455000Y-36950000D02*
X77645000Y-30140000D01*
X60715000Y-33280000D02*
X60715000Y-31995000D01*
X62570000Y-30140000D02*
X77645000Y-30140000D01*
X60715000Y-31995000D02*
X62570000Y-30140000D01*
X100330000Y-46550000D02*
X98230000Y-44450000D01*
X100330000Y-49530000D02*
X100330000Y-46550000D01*
X104530000Y-46730000D02*
X104530000Y-42170000D01*
X108195000Y-46730000D02*
X108195000Y-42170000D01*
D43*
X130392500Y-38952500D02*
X128905000Y-37465000D01*
X130392500Y-41910000D02*
X130392500Y-38952500D01*
X126365000Y-38735000D02*
X127000000Y-39370000D01*
X126365000Y-37465000D02*
X126365000Y-38735000D01*
X127417500Y-41910000D02*
X127000000Y-39370000D01*
X124677500Y-41910000D02*
X127417500Y-41910000D01*
X121702500Y-39587500D02*
X123825000Y-37465000D01*
X121702500Y-41910000D02*
X121702500Y-39587500D01*
X121702500Y-41152500D02*
X118110000Y-37560000D01*
X121702500Y-41910000D02*
X121702500Y-41152500D01*
D41*
X122555000Y-52510000D02*
X114495000Y-44450000D01*
X122555000Y-53340000D02*
X122555000Y-52510000D01*
X122555000Y-60840000D02*
X117990000Y-60840000D01*
X117990000Y-60840000D02*
X107950000Y-50800000D01*
X108195000Y-50555000D02*
X108195000Y-46730000D01*
X107950000Y-50800000D02*
X108195000Y-50555000D01*
D38*
X108570000Y-36810000D02*
X110330000Y-36810000D01*
X112955000Y-38715000D02*
X112380000Y-38715000D01*
X114495000Y-40255000D02*
X112955000Y-38715000D01*
X114495000Y-44450000D02*
X114495000Y-40255000D01*
X112235000Y-36810000D02*
X110330000Y-38715000D01*
X112380000Y-36810000D02*
X112235000Y-36810000D01*
X105245000Y-36810000D02*
X103320000Y-38735000D01*
X106520000Y-36810000D02*
X105245000Y-36810000D01*
X108195000Y-40390000D02*
X106520000Y-38715000D01*
X108195000Y-42170000D02*
X108195000Y-40390000D01*
D41*
X84455000Y-44450000D02*
X88195000Y-40710000D01*
X88195000Y-40710000D02*
X88195000Y-36265000D01*
X99607792Y-31750000D02*
X101620000Y-33762208D01*
X88195000Y-36265000D02*
X92710000Y-31750000D01*
X92710000Y-31750000D02*
X99607792Y-31750000D01*
X101620000Y-33762208D02*
X101620000Y-35035000D01*
X92710000Y-38100000D02*
X92710000Y-41910000D01*
X95690000Y-41910000D02*
X98230000Y-44450000D01*
X95775000Y-35035000D02*
X92710000Y-38100000D01*
X92710000Y-41910000D02*
X95690000Y-41910000D01*
X98220000Y-35035000D02*
X95775000Y-35035000D01*
X100330000Y-72430000D02*
X119340000Y-72430000D01*
D40*
X103355000Y-42170000D02*
X99920000Y-38735000D01*
X104530000Y-42170000D02*
X103355000Y-42170000D01*
X103095000Y-33560000D02*
X101620000Y-35035000D01*
X118110000Y-33560000D02*
X103095000Y-33560000D01*
D38*
X111830000Y-35560000D02*
X103622920Y-35560000D01*
X102360410Y-36822510D02*
X98432490Y-36822510D01*
X103622920Y-35560000D02*
X102360410Y-36822510D01*
X112380000Y-36110000D02*
X111830000Y-35560000D01*
X98432490Y-36822510D02*
X96520000Y-38735000D01*
X112380000Y-36810000D02*
X112380000Y-36110000D01*
X110330000Y-38715000D02*
X108570000Y-38715000D01*
D41*
X58615000Y-49890000D02*
X59525000Y-50800000D01*
X58615000Y-44450000D02*
X58615000Y-49890000D01*
X70405000Y-50800000D02*
X71315000Y-49890000D01*
X71315000Y-49890000D02*
X71315000Y-44450000D01*
X59525000Y-50800000D02*
X70405000Y-50800000D01*
X65015000Y-42170000D02*
X65388356Y-42170000D01*
X65388356Y-42170000D02*
X67115000Y-40443356D01*
X67115000Y-40443356D02*
X67115000Y-35560000D01*
X64770000Y-37905000D02*
X67115000Y-35560000D01*
X64770000Y-39370000D02*
X64770000Y-37905000D01*
X64770000Y-41925000D02*
X65015000Y-42170000D01*
X64770000Y-39370000D02*
X64770000Y-41925000D01*
X54115000Y-35560000D02*
X54415000Y-35560000D01*
D42*
X45185000Y-69235000D02*
X48260000Y-66160000D01*
X44610000Y-69235000D02*
X45185000Y-69235000D01*
X48260000Y-66160000D02*
X48260000Y-54610000D01*
X52980000Y-49890000D02*
X58615000Y-49890000D01*
X48260000Y-54610000D02*
X52980000Y-49890000D01*
X47070000Y-91440000D02*
X59225200Y-91440000D01*
X45185000Y-89555000D02*
X47070000Y-91440000D01*
X59225200Y-91440000D02*
X60730000Y-91440000D01*
X44610000Y-89555000D02*
X45185000Y-89555000D01*
D39*
X50185000Y-109240000D02*
X50165000Y-109220000D01*
X51450000Y-109240000D02*
X50185000Y-109240000D01*
X50185000Y-106700000D02*
X50165000Y-106680000D01*
X51450000Y-106700000D02*
X50185000Y-106700000D01*
X50185000Y-104160000D02*
X50165000Y-104140000D01*
X51450000Y-104160000D02*
X50185000Y-104160000D01*
X50185000Y-101620000D02*
X50165000Y-101600000D01*
X51450000Y-101620000D02*
X50185000Y-101620000D01*
X50185000Y-99080000D02*
X50165000Y-99060000D01*
X51450000Y-99080000D02*
X50185000Y-99080000D01*
D41*
X121905000Y-87615000D02*
X119140000Y-87615000D01*
X123190000Y-88900000D02*
X121905000Y-87615000D01*
X123190000Y-95437500D02*
X123190000Y-88900000D01*
X123190000Y-96265000D02*
X123190000Y-95437500D01*
X119140000Y-100315000D02*
X123190000Y-96265000D01*
D38*
X119380000Y-100555000D02*
X119140000Y-100315000D01*
X119380000Y-104385000D02*
X119380000Y-100555000D01*
D41*
X110065000Y-98215000D02*
X108225000Y-98215000D01*
X114265000Y-94015000D02*
X110065000Y-98215000D01*
X116860000Y-94015000D02*
X114265000Y-94015000D01*
X116860000Y-81315000D02*
X114900000Y-81315000D01*
X110700000Y-85515000D02*
X108225000Y-85515000D01*
X114900000Y-81315000D02*
X110700000Y-85515000D01*
X110505000Y-79215000D02*
X105945000Y-79215000D01*
X101815000Y-79215000D02*
X99715000Y-81315000D01*
X105945000Y-79215000D02*
X101815000Y-79215000D01*
X101995000Y-87615000D02*
X97435000Y-87615000D01*
X101995000Y-100315000D02*
X97435000Y-100315000D01*
X97435000Y-100315000D02*
X93105000Y-100315000D01*
X110505000Y-91915000D02*
X105945000Y-91915000D01*
X101815000Y-91915000D02*
X99715000Y-94015000D01*
X105945000Y-91915000D02*
X101815000Y-91915000D01*
D38*
X90170000Y-108195000D02*
X90170000Y-104140000D01*
X88545000Y-102515000D02*
X88545000Y-100315000D01*
X90170000Y-104140000D02*
X88545000Y-102515000D01*
X93105000Y-106440000D02*
X93345000Y-106680000D01*
X93105000Y-100315000D02*
X93105000Y-106440000D01*
X87350000Y-106680000D02*
X87630000Y-106960000D01*
X85725000Y-106680000D02*
X87350000Y-106680000D01*
X114580000Y-107035000D02*
X114300000Y-107315000D01*
X114580000Y-100315000D02*
X114580000Y-107035000D01*
X92955000Y-107950000D02*
X92710000Y-108195000D01*
X93980000Y-107950000D02*
X92955000Y-107950000D01*
X78040000Y-123370000D02*
X77860000Y-123190000D01*
X78040000Y-125095000D02*
X78040000Y-123370000D01*
X75955000Y-108585000D02*
X77470000Y-108585000D01*
X77470000Y-108585000D02*
X78105000Y-109220000D01*
X78105000Y-109220000D02*
X78105000Y-115570000D01*
X76835000Y-116840000D02*
X75955000Y-116840000D01*
D42*
X90170000Y-118275000D02*
X90170000Y-126365000D01*
X86995000Y-129540000D02*
X81280000Y-129540000D01*
X90170000Y-126365000D02*
X86995000Y-129540000D01*
X74812590Y-128905000D02*
X74930000Y-128787590D01*
X78040000Y-127635000D02*
X76082590Y-127635000D01*
X73090000Y-128905000D02*
X74812590Y-128905000D01*
X76082590Y-127635000D02*
X74930000Y-128787590D01*
X91440000Y-118275000D02*
X91440000Y-127000000D01*
X91440000Y-127000000D02*
X84455000Y-133985000D01*
X84455000Y-133985000D02*
X76835000Y-133985000D01*
X74295000Y-131445000D02*
X73090000Y-131445000D01*
X76835000Y-133985000D02*
X74295000Y-131445000D01*
X104140000Y-118275000D02*
X104140000Y-124895554D01*
X104140000Y-124895554D02*
X104140000Y-127000000D01*
X104140000Y-127000000D02*
X93980000Y-127000000D01*
X93980000Y-127000000D02*
X88265000Y-132715000D01*
X79375000Y-132715000D02*
X78040000Y-132715000D01*
X105410000Y-118275000D02*
X105410000Y-127635000D01*
X105410000Y-127635000D02*
X104775000Y-128270000D01*
X104775000Y-128270000D02*
X94615000Y-128270000D01*
X78040000Y-127635000D02*
X79218554Y-127635000D01*
X79218554Y-127635000D02*
X80127401Y-128543847D01*
X80127401Y-128543847D02*
X80127401Y-130332599D01*
X80127401Y-130332599D02*
X79015000Y-131445000D01*
X79015000Y-131445000D02*
X78040000Y-131445000D01*
X79375000Y-128905000D02*
X78040000Y-128905000D01*
D38*
X77860000Y-121285000D02*
X75955000Y-119380000D01*
X77860000Y-123190000D02*
X77860000Y-121285000D01*
X71120000Y-121920000D02*
X71055000Y-121855000D01*
X73965000Y-121920000D02*
X71120000Y-121920000D01*
X71055000Y-121855000D02*
X71055000Y-119380000D01*
X75235000Y-123190000D02*
X73965000Y-121920000D01*
X75810000Y-123190000D02*
X75235000Y-123190000D01*
X69360000Y-129525000D02*
X69910000Y-129525000D01*
X68525000Y-131635000D02*
X68525000Y-130360000D01*
X68525000Y-130360000D02*
X69360000Y-129525000D01*
X69605000Y-132715000D02*
X68525000Y-131635000D01*
X73090000Y-132715000D02*
X71185000Y-134620000D01*
X67555000Y-133415000D02*
X67555000Y-132715000D01*
X68760000Y-134620000D02*
X67555000Y-133415000D01*
D39*
X69360000Y-125080000D02*
X69910000Y-125080000D01*
X68525000Y-125915000D02*
X69360000Y-125080000D01*
X68525000Y-130360000D02*
X68525000Y-125915000D01*
D41*
X102870000Y-68326000D02*
X99822000Y-68326000D01*
X97917000Y-66421000D02*
X68453000Y-66421000D01*
X99822000Y-68326000D02*
X97917000Y-66421000D01*
X67620000Y-66350000D02*
X68453000Y-66421000D01*
M02*
