G04 #@! TF.GenerationSoftware,KiCad,Pcbnew,(5.99.0-269-g375c4bd3f)*
G04 #@! TF.CreationDate,2019-11-11T15:55:51-08:00*
G04 #@! TF.ProjectId,DCC_Booster,4443435f-426f-46f7-9374-65722e6b6963,n/c*
G04 #@! TF.SameCoordinates,Original*
G04 #@! TF.FileFunction,Legend,Bot*
G04 #@! TF.FilePolarity,Positive*
%FSLAX46Y46*%
G04 Gerber Fmt 4.6, Leading zero omitted, Abs format (unit mm)*
G04 Created by KiCad (PCBNEW (5.99.0-269-g375c4bd3f)) date 2019-11-11 15:55:51*
%MOMM*%
%LPD*%
G04 APERTURE LIST*
%ADD10C,0.203200*%
%ADD11C,0.100000*%
%ADD12C,3.600000*%
%ADD13C,3.200001*%
%ADD14C,3.200000*%
%ADD15O,2.400000X1.600000*%
%ADD16R,2.400000X1.600000*%
%ADD17O,1.500000X2.300000*%
%ADD18R,1.500000X2.300000*%
%ADD19O,1.800000X1.800000*%
%ADD20R,1.800000X1.800000*%
%ADD21O,1.600000X1.600000*%
%ADD22R,1.600000X1.600000*%
%ADD23C,1.600000*%
%ADD24O,1.700000X1.700000*%
%ADD25R,1.700000X1.700000*%
%ADD26O,3.600000X1.800000*%
%ADD27C,1.800000*%
%ADD28C,2.400000*%
%ADD29R,2.400000X2.400000*%
%ADD30O,3.500000X2.000000*%
%ADD31O,2.000000X3.300000*%
%ADD32R,2.000000X4.000000*%
G04 APERTURE END LIST*
D10*
X51453142Y-93961857D02*
X51235428Y-94034428D01*
X50872571Y-94034428D01*
X50727428Y-93961857D01*
X50654857Y-93889285D01*
X50582285Y-93744142D01*
X50582285Y-93599000D01*
X50654857Y-93453857D01*
X50727428Y-93381285D01*
X50872571Y-93308714D01*
X51162857Y-93236142D01*
X51308000Y-93163571D01*
X51380571Y-93091000D01*
X51453142Y-92945857D01*
X51453142Y-92800714D01*
X51380571Y-92655571D01*
X51308000Y-92583000D01*
X51162857Y-92510428D01*
X50800000Y-92510428D01*
X50582285Y-92583000D01*
X49638857Y-93308714D02*
X49638857Y-94034428D01*
X50146857Y-92510428D02*
X49638857Y-93308714D01*
X49130857Y-92510428D01*
X48695428Y-93961857D02*
X48477714Y-94034428D01*
X48114857Y-94034428D01*
X47969714Y-93961857D01*
X47897142Y-93889285D01*
X47824571Y-93744142D01*
X47824571Y-93599000D01*
X47897142Y-93453857D01*
X47969714Y-93381285D01*
X48114857Y-93308714D01*
X48405142Y-93236142D01*
X48550285Y-93163571D01*
X48622857Y-93091000D01*
X48695428Y-92945857D01*
X48695428Y-92800714D01*
X48622857Y-92655571D01*
X48550285Y-92583000D01*
X48405142Y-92510428D01*
X48042285Y-92510428D01*
X47824571Y-92583000D01*
X45284571Y-94034428D02*
X46010285Y-94034428D01*
X46010285Y-92510428D01*
X44776571Y-93236142D02*
X44268571Y-93236142D01*
X44050857Y-94034428D02*
X44776571Y-94034428D01*
X44776571Y-92510428D01*
X44050857Y-92510428D01*
X43397714Y-94034428D02*
X43397714Y-92510428D01*
X43034857Y-92510428D01*
X42817142Y-92583000D01*
X42672000Y-92728142D01*
X42599428Y-92873285D01*
X42526857Y-93163571D01*
X42526857Y-93381285D01*
X42599428Y-93671571D01*
X42672000Y-93816714D01*
X42817142Y-93961857D01*
X43034857Y-94034428D01*
X43397714Y-94034428D01*
X55317571Y-88954428D02*
X55317571Y-87430428D01*
X54954714Y-87430428D01*
X54737000Y-87503000D01*
X54591857Y-87648142D01*
X54519285Y-87793285D01*
X54446714Y-88083571D01*
X54446714Y-88301285D01*
X54519285Y-88591571D01*
X54591857Y-88736714D01*
X54737000Y-88881857D01*
X54954714Y-88954428D01*
X55317571Y-88954428D01*
X52922714Y-88809285D02*
X52995285Y-88881857D01*
X53213000Y-88954428D01*
X53358142Y-88954428D01*
X53575857Y-88881857D01*
X53721000Y-88736714D01*
X53793571Y-88591571D01*
X53866142Y-88301285D01*
X53866142Y-88083571D01*
X53793571Y-87793285D01*
X53721000Y-87648142D01*
X53575857Y-87503000D01*
X53358142Y-87430428D01*
X53213000Y-87430428D01*
X52995285Y-87503000D01*
X52922714Y-87575571D01*
X51398714Y-88809285D02*
X51471285Y-88881857D01*
X51689000Y-88954428D01*
X51834142Y-88954428D01*
X52051857Y-88881857D01*
X52197000Y-88736714D01*
X52269571Y-88591571D01*
X52342142Y-88301285D01*
X52342142Y-88083571D01*
X52269571Y-87793285D01*
X52197000Y-87648142D01*
X52051857Y-87503000D01*
X51834142Y-87430428D01*
X51689000Y-87430428D01*
X51471285Y-87503000D01*
X51398714Y-87575571D01*
X49657000Y-88881857D02*
X49439285Y-88954428D01*
X49076428Y-88954428D01*
X48931285Y-88881857D01*
X48858714Y-88809285D01*
X48786142Y-88664142D01*
X48786142Y-88519000D01*
X48858714Y-88373857D01*
X48931285Y-88301285D01*
X49076428Y-88228714D01*
X49366714Y-88156142D01*
X49511857Y-88083571D01*
X49584428Y-88011000D01*
X49657000Y-87865857D01*
X49657000Y-87720714D01*
X49584428Y-87575571D01*
X49511857Y-87503000D01*
X49366714Y-87430428D01*
X49003857Y-87430428D01*
X48786142Y-87503000D01*
X48133000Y-88954428D02*
X48133000Y-87938428D01*
X48133000Y-87430428D02*
X48205571Y-87503000D01*
X48133000Y-87575571D01*
X48060428Y-87503000D01*
X48133000Y-87430428D01*
X48133000Y-87575571D01*
X46754142Y-87938428D02*
X46754142Y-89172142D01*
X46826714Y-89317285D01*
X46899285Y-89389857D01*
X47044428Y-89462428D01*
X47262142Y-89462428D01*
X47407285Y-89389857D01*
X46754142Y-88881857D02*
X46899285Y-88954428D01*
X47189571Y-88954428D01*
X47334714Y-88881857D01*
X47407285Y-88809285D01*
X47479857Y-88664142D01*
X47479857Y-88228714D01*
X47407285Y-88083571D01*
X47334714Y-88011000D01*
X47189571Y-87938428D01*
X46899285Y-87938428D01*
X46754142Y-88011000D01*
X44577000Y-87430428D02*
X44286714Y-87430428D01*
X44141571Y-87503000D01*
X43996428Y-87648142D01*
X43923857Y-87938428D01*
X43923857Y-88446428D01*
X43996428Y-88736714D01*
X44141571Y-88881857D01*
X44286714Y-88954428D01*
X44577000Y-88954428D01*
X44722142Y-88881857D01*
X44867285Y-88736714D01*
X44939857Y-88446428D01*
X44939857Y-87938428D01*
X44867285Y-87648142D01*
X44722142Y-87503000D01*
X44577000Y-87430428D01*
X43270714Y-88954428D02*
X43270714Y-87430428D01*
X42399857Y-88954428D02*
X43053000Y-88083571D01*
X42399857Y-87430428D02*
X43270714Y-88301285D01*
X46899285Y-83874428D02*
X46899285Y-82350428D01*
X46536428Y-82350428D01*
X46318714Y-82423000D01*
X46173571Y-82568142D01*
X46101000Y-82713285D01*
X46028428Y-83003571D01*
X46028428Y-83221285D01*
X46101000Y-83511571D01*
X46173571Y-83656714D01*
X46318714Y-83801857D01*
X46536428Y-83874428D01*
X46899285Y-83874428D01*
X44504428Y-83874428D02*
X45012428Y-83148714D01*
X45375285Y-83874428D02*
X45375285Y-82350428D01*
X44794714Y-82350428D01*
X44649571Y-82423000D01*
X44577000Y-82495571D01*
X44504428Y-82640714D01*
X44504428Y-82858428D01*
X44577000Y-83003571D01*
X44649571Y-83076142D01*
X44794714Y-83148714D01*
X45375285Y-83148714D01*
X44069000Y-82350428D02*
X43561000Y-83874428D01*
X43053000Y-82350428D01*
X47044428Y-78213857D02*
X45883285Y-78213857D01*
X46463857Y-78794428D02*
X46463857Y-77633285D01*
X44431857Y-77270428D02*
X45157571Y-77270428D01*
X45230142Y-77996142D01*
X45157571Y-77923571D01*
X45012428Y-77851000D01*
X44649571Y-77851000D01*
X44504428Y-77923571D01*
X44431857Y-77996142D01*
X44359285Y-78141285D01*
X44359285Y-78504142D01*
X44431857Y-78649285D01*
X44504428Y-78721857D01*
X44649571Y-78794428D01*
X45012428Y-78794428D01*
X45157571Y-78721857D01*
X45230142Y-78649285D01*
X43923857Y-77270428D02*
X43415857Y-78794428D01*
X42907857Y-77270428D01*
X48405142Y-73133857D02*
X47244000Y-73133857D01*
X47824571Y-73714428D02*
X47824571Y-72553285D01*
X45720000Y-73714428D02*
X46590857Y-73714428D01*
X46155428Y-73714428D02*
X46155428Y-72190428D01*
X46300571Y-72408142D01*
X46445714Y-72553285D01*
X46590857Y-72625857D01*
X44341142Y-72190428D02*
X45066857Y-72190428D01*
X45139428Y-72916142D01*
X45066857Y-72843571D01*
X44921714Y-72771000D01*
X44558857Y-72771000D01*
X44413714Y-72843571D01*
X44341142Y-72916142D01*
X44268571Y-73061285D01*
X44268571Y-73424142D01*
X44341142Y-73569285D01*
X44413714Y-73641857D01*
X44558857Y-73714428D01*
X44921714Y-73714428D01*
X45066857Y-73641857D01*
X45139428Y-73569285D01*
X43833142Y-72190428D02*
X43325142Y-73714428D01*
X42817142Y-72190428D01*
X48405142Y-68053857D02*
X47244000Y-68053857D01*
X47824571Y-68634428D02*
X47824571Y-67473285D01*
X46590857Y-67255571D02*
X46518285Y-67183000D01*
X46373142Y-67110428D01*
X46010285Y-67110428D01*
X45865142Y-67183000D01*
X45792571Y-67255571D01*
X45720000Y-67400714D01*
X45720000Y-67545857D01*
X45792571Y-67763571D01*
X46663428Y-68634428D01*
X45720000Y-68634428D01*
X44413714Y-67618428D02*
X44413714Y-68634428D01*
X44776571Y-67037857D02*
X45139428Y-68126428D01*
X44196000Y-68126428D01*
X43833142Y-67110428D02*
X43325142Y-68634428D01*
X42817142Y-67110428D01*
X56642000Y-99777005D02*
X56714571Y-99849577D01*
X56932285Y-99922148D01*
X57077428Y-99922148D01*
X57295142Y-99849577D01*
X57440285Y-99704434D01*
X57512857Y-99559291D01*
X57585428Y-99269005D01*
X57585428Y-99051291D01*
X57512857Y-98761005D01*
X57440285Y-98615862D01*
X57295142Y-98470720D01*
X57077428Y-98398148D01*
X56932285Y-98398148D01*
X56714571Y-98470720D01*
X56642000Y-98543291D01*
X56061428Y-99849577D02*
X55843714Y-99922148D01*
X55480857Y-99922148D01*
X55335714Y-99849577D01*
X55263142Y-99777005D01*
X55190571Y-99631862D01*
X55190571Y-99486720D01*
X55263142Y-99341577D01*
X55335714Y-99269005D01*
X55480857Y-99196434D01*
X55771142Y-99123862D01*
X55916285Y-99051291D01*
X55988857Y-98978720D01*
X56061428Y-98833577D01*
X56061428Y-98688434D01*
X55988857Y-98543291D01*
X55916285Y-98470720D01*
X55771142Y-98398148D01*
X55408285Y-98398148D01*
X55190571Y-98470720D01*
X53956857Y-99849577D02*
X54102000Y-99922148D01*
X54392285Y-99922148D01*
X54537428Y-99849577D01*
X54610000Y-99704434D01*
X54610000Y-99123862D01*
X54537428Y-98978720D01*
X54392285Y-98906148D01*
X54102000Y-98906148D01*
X53956857Y-98978720D01*
X53884285Y-99123862D01*
X53884285Y-99269005D01*
X54610000Y-99414148D01*
X53013428Y-99922148D02*
X53158571Y-99849577D01*
X53231142Y-99704434D01*
X53231142Y-98398148D01*
X52142571Y-98398148D02*
X51997428Y-98398148D01*
X51852285Y-98470720D01*
X51779714Y-98543291D01*
X51707142Y-98688434D01*
X51634571Y-98978720D01*
X51634571Y-99341577D01*
X51707142Y-99631862D01*
X51779714Y-99777005D01*
X51852285Y-99849577D01*
X51997428Y-99922148D01*
X52142571Y-99922148D01*
X52287714Y-99849577D01*
X52360285Y-99777005D01*
X52432857Y-99631862D01*
X52505428Y-99341577D01*
X52505428Y-98978720D01*
X52432857Y-98688434D01*
X52360285Y-98543291D01*
X52287714Y-98470720D01*
X52142571Y-98398148D01*
X56642000Y-102230645D02*
X56714571Y-102303217D01*
X56932285Y-102375788D01*
X57077428Y-102375788D01*
X57295142Y-102303217D01*
X57440285Y-102158074D01*
X57512857Y-102012931D01*
X57585428Y-101722645D01*
X57585428Y-101504931D01*
X57512857Y-101214645D01*
X57440285Y-101069502D01*
X57295142Y-100924360D01*
X57077428Y-100851788D01*
X56932285Y-100851788D01*
X56714571Y-100924360D01*
X56642000Y-100996931D01*
X56061428Y-102303217D02*
X55843714Y-102375788D01*
X55480857Y-102375788D01*
X55335714Y-102303217D01*
X55263142Y-102230645D01*
X55190571Y-102085502D01*
X55190571Y-101940360D01*
X55263142Y-101795217D01*
X55335714Y-101722645D01*
X55480857Y-101650074D01*
X55771142Y-101577502D01*
X55916285Y-101504931D01*
X55988857Y-101432360D01*
X56061428Y-101287217D01*
X56061428Y-101142074D01*
X55988857Y-100996931D01*
X55916285Y-100924360D01*
X55771142Y-100851788D01*
X55408285Y-100851788D01*
X55190571Y-100924360D01*
X53956857Y-102303217D02*
X54102000Y-102375788D01*
X54392285Y-102375788D01*
X54537428Y-102303217D01*
X54610000Y-102158074D01*
X54610000Y-101577502D01*
X54537428Y-101432360D01*
X54392285Y-101359788D01*
X54102000Y-101359788D01*
X53956857Y-101432360D01*
X53884285Y-101577502D01*
X53884285Y-101722645D01*
X54610000Y-101867788D01*
X53013428Y-102375788D02*
X53158571Y-102303217D01*
X53231142Y-102158074D01*
X53231142Y-100851788D01*
X51634571Y-102375788D02*
X52505428Y-102375788D01*
X52070000Y-102375788D02*
X52070000Y-100851788D01*
X52215142Y-101069502D01*
X52360285Y-101214645D01*
X52505428Y-101287217D01*
X56642000Y-104684285D02*
X56714571Y-104756857D01*
X56932285Y-104829428D01*
X57077428Y-104829428D01*
X57295142Y-104756857D01*
X57440285Y-104611714D01*
X57512857Y-104466571D01*
X57585428Y-104176285D01*
X57585428Y-103958571D01*
X57512857Y-103668285D01*
X57440285Y-103523142D01*
X57295142Y-103378000D01*
X57077428Y-103305428D01*
X56932285Y-103305428D01*
X56714571Y-103378000D01*
X56642000Y-103450571D01*
X56061428Y-104756857D02*
X55843714Y-104829428D01*
X55480857Y-104829428D01*
X55335714Y-104756857D01*
X55263142Y-104684285D01*
X55190571Y-104539142D01*
X55190571Y-104394000D01*
X55263142Y-104248857D01*
X55335714Y-104176285D01*
X55480857Y-104103714D01*
X55771142Y-104031142D01*
X55916285Y-103958571D01*
X55988857Y-103886000D01*
X56061428Y-103740857D01*
X56061428Y-103595714D01*
X55988857Y-103450571D01*
X55916285Y-103378000D01*
X55771142Y-103305428D01*
X55408285Y-103305428D01*
X55190571Y-103378000D01*
X53956857Y-104756857D02*
X54102000Y-104829428D01*
X54392285Y-104829428D01*
X54537428Y-104756857D01*
X54610000Y-104611714D01*
X54610000Y-104031142D01*
X54537428Y-103886000D01*
X54392285Y-103813428D01*
X54102000Y-103813428D01*
X53956857Y-103886000D01*
X53884285Y-104031142D01*
X53884285Y-104176285D01*
X54610000Y-104321428D01*
X53013428Y-104829428D02*
X53158571Y-104756857D01*
X53231142Y-104611714D01*
X53231142Y-103305428D01*
X52505428Y-103450571D02*
X52432857Y-103378000D01*
X52287714Y-103305428D01*
X51924857Y-103305428D01*
X51779714Y-103378000D01*
X51707142Y-103450571D01*
X51634571Y-103595714D01*
X51634571Y-103740857D01*
X51707142Y-103958571D01*
X52578000Y-104829428D01*
X51634571Y-104829428D01*
X56605714Y-107283068D02*
X56605714Y-105759068D01*
X55734857Y-107283068D01*
X55734857Y-105759068D01*
X53920571Y-105686497D02*
X55226857Y-107645925D01*
X52541714Y-107283068D02*
X53049714Y-106557354D01*
X53412571Y-107283068D02*
X53412571Y-105759068D01*
X52832000Y-105759068D01*
X52686857Y-105831640D01*
X52614285Y-105904211D01*
X52541714Y-106049354D01*
X52541714Y-106267068D01*
X52614285Y-106412211D01*
X52686857Y-106484782D01*
X52832000Y-106557354D01*
X53412571Y-106557354D01*
X56750857Y-108212708D02*
X55880000Y-108212708D01*
X56315428Y-109736708D02*
X56315428Y-108212708D01*
X54791428Y-109664137D02*
X54936571Y-109736708D01*
X55226857Y-109736708D01*
X55372000Y-109664137D01*
X55444571Y-109518994D01*
X55444571Y-108938422D01*
X55372000Y-108793280D01*
X55226857Y-108720708D01*
X54936571Y-108720708D01*
X54791428Y-108793280D01*
X54718857Y-108938422D01*
X54718857Y-109083565D01*
X55444571Y-109228708D01*
X54138285Y-109664137D02*
X53993142Y-109736708D01*
X53702857Y-109736708D01*
X53557714Y-109664137D01*
X53485142Y-109518994D01*
X53485142Y-109446422D01*
X53557714Y-109301280D01*
X53702857Y-109228708D01*
X53920571Y-109228708D01*
X54065714Y-109156137D01*
X54138285Y-109010994D01*
X54138285Y-108938422D01*
X54065714Y-108793280D01*
X53920571Y-108720708D01*
X53702857Y-108720708D01*
X53557714Y-108793280D01*
X53049714Y-108720708D02*
X52469142Y-108720708D01*
X52832000Y-108212708D02*
X52832000Y-109518994D01*
X52759428Y-109664137D01*
X52614285Y-109736708D01*
X52469142Y-109736708D01*
X34163000Y-136448800D02*
X50800000Y-136448800D01*
X50800000Y-136448800D02*
X50800000Y-125171200D01*
X50800000Y-125171200D02*
X34163000Y-125171200D01*
X34163000Y-136448800D02*
X34163000Y-125171200D01*
X34163000Y-123748800D02*
X34163000Y-112471200D01*
X50800000Y-112471200D02*
X34163000Y-112471200D01*
X50800000Y-123748800D02*
X50800000Y-112471200D01*
X34163000Y-123748800D02*
X50800000Y-123748800D01*
%LPC*%
D11*
G36*
X102235000Y-94615000D02*
G01*
X97155000Y-94615000D01*
X97155000Y-90805000D01*
X102235000Y-90805000D01*
X102235000Y-94615000D01*
G37*
X102235000Y-94615000D02*
X97155000Y-94615000D01*
X97155000Y-90805000D01*
X102235000Y-90805000D01*
X102235000Y-94615000D01*
G36*
X102235000Y-81915000D02*
G01*
X97155000Y-81915000D01*
X97155000Y-78105000D01*
X102235000Y-78105000D01*
X102235000Y-81915000D01*
G37*
X102235000Y-81915000D02*
X97155000Y-81915000D01*
X97155000Y-78105000D01*
X102235000Y-78105000D01*
X102235000Y-81915000D01*
G36*
X111125000Y-100965000D02*
G01*
X106045000Y-100965000D01*
X106045000Y-97155000D01*
X111125000Y-97155000D01*
X111125000Y-100965000D01*
G37*
X111125000Y-100965000D02*
X106045000Y-100965000D01*
X106045000Y-97155000D01*
X111125000Y-97155000D01*
X111125000Y-100965000D01*
G36*
X119380000Y-94615000D02*
G01*
X114300000Y-94615000D01*
X114300000Y-90805000D01*
X119380000Y-90805000D01*
X119380000Y-94615000D01*
G37*
X119380000Y-94615000D02*
X114300000Y-94615000D01*
X114300000Y-90805000D01*
X119380000Y-90805000D01*
X119380000Y-94615000D01*
G36*
X111760000Y-88900000D02*
G01*
X106045000Y-88900000D01*
X106045000Y-83820000D01*
X111760000Y-83820000D01*
X111760000Y-88900000D01*
G37*
X111760000Y-88900000D02*
X106045000Y-88900000D01*
X106045000Y-83820000D01*
X111760000Y-83820000D01*
X111760000Y-88900000D01*
G36*
X120015000Y-82550000D02*
G01*
X113665000Y-82550000D01*
X113665000Y-78105000D01*
X120015000Y-78105000D01*
X120015000Y-82550000D01*
G37*
X120015000Y-82550000D02*
X113665000Y-82550000D01*
X113665000Y-78105000D01*
X120015000Y-78105000D01*
X120015000Y-82550000D01*
G36*
X93980000Y-95250000D02*
G01*
X87630000Y-95250000D01*
X87630000Y-90170000D01*
X93980000Y-90170000D01*
X93980000Y-95250000D01*
G37*
X93980000Y-95250000D02*
X87630000Y-95250000D01*
X87630000Y-90170000D01*
X93980000Y-90170000D01*
X93980000Y-95250000D01*
G36*
X93980000Y-82550000D02*
G01*
X87630000Y-82550000D01*
X87630000Y-77470000D01*
X93980000Y-77470000D01*
X93980000Y-82550000D01*
G37*
X93980000Y-82550000D02*
X87630000Y-82550000D01*
X87630000Y-77470000D01*
X93980000Y-77470000D01*
X93980000Y-82550000D01*
D12*
X40640000Y-134620000D03*
X40640000Y-127000000D03*
X40640000Y-114300000D03*
X40640000Y-121920000D03*
D13*
X66040000Y-57150000D03*
X57150000Y-133350000D03*
D14*
X130810000Y-133350000D03*
D15*
X68350000Y-86360000D03*
X60730000Y-106680000D03*
X68350000Y-88900000D03*
X60730000Y-104140000D03*
X68350000Y-91440000D03*
X60730000Y-101600000D03*
X68350000Y-93980000D03*
X60730000Y-99060000D03*
X68350000Y-96520000D03*
X60730000Y-96520000D03*
X68350000Y-99060000D03*
X60730000Y-93980000D03*
X68350000Y-101600000D03*
X60730000Y-91440000D03*
X68350000Y-104140000D03*
X60730000Y-88900000D03*
X68350000Y-106680000D03*
D16*
X60730000Y-86360000D03*
D17*
X128905000Y-37465000D03*
X126365000Y-37465000D03*
D18*
X123825000Y-37465000D03*
D19*
X103320000Y-38735000D03*
X101620000Y-35035000D03*
X99920000Y-38735000D03*
X98220000Y-35035000D03*
D20*
X96520000Y-38735000D03*
D21*
X48030000Y-99080000D03*
X40410000Y-109240000D03*
X48030000Y-101620000D03*
X40410000Y-106700000D03*
X48030000Y-104160000D03*
X40410000Y-104160000D03*
X48030000Y-106700000D03*
X40410000Y-101620000D03*
X48030000Y-109240000D03*
D22*
X40410000Y-99080000D03*
D23*
X100330000Y-72430000D03*
X100330000Y-49530000D03*
D24*
X78740000Y-101620000D03*
X78740000Y-99080000D03*
X78740000Y-96540000D03*
X78740000Y-94000000D03*
D25*
X78740000Y-91460000D03*
D26*
X40410000Y-61615000D03*
X40410000Y-56535000D03*
X40410000Y-51455000D03*
G36*
X42055671Y-45494030D02*
G01*
X42136777Y-45548223D01*
X42190970Y-45629329D01*
X42210000Y-45725000D01*
X42210000Y-47025000D01*
X42190970Y-47120671D01*
X42136777Y-47201777D01*
X42055671Y-47255970D01*
X41960000Y-47275000D01*
X38860000Y-47275000D01*
X38764329Y-47255970D01*
X38683223Y-47201777D01*
X38629030Y-47120671D01*
X38610000Y-47025000D01*
X38610000Y-45725000D01*
X38629030Y-45629329D01*
X38683223Y-45548223D01*
X38764329Y-45494030D01*
X38860000Y-45475000D01*
X41960000Y-45475000D01*
X42055671Y-45494030D01*
G37*
D27*
X40410000Y-94635000D03*
D20*
X40410000Y-92095000D03*
D27*
X40410000Y-89555000D03*
D20*
X40410000Y-87015000D03*
D27*
X40410000Y-84475000D03*
D20*
X40410000Y-81935000D03*
D27*
X40410000Y-79395000D03*
D20*
X40410000Y-76855000D03*
D27*
X40410000Y-74315000D03*
D20*
X40410000Y-71775000D03*
D27*
X40410000Y-69235000D03*
D20*
X40410000Y-66695000D03*
D23*
X107235000Y-125095000D03*
X102235000Y-125095000D03*
X93265000Y-125095000D03*
X88265000Y-125095000D03*
D28*
X122555000Y-60840000D03*
D29*
X122555000Y-53340000D03*
D28*
X84455000Y-36950000D03*
D29*
X84455000Y-44450000D03*
D23*
X37990000Y-36195000D03*
D30*
X39990000Y-40695000D03*
X39990000Y-31695000D03*
D31*
X40990000Y-36195000D03*
D32*
X46990000Y-36195000D03*
M02*
