G04 #@! TF.GenerationSoftware,KiCad,Pcbnew,(5.99.0-269-g375c4bd3f)*
G04 #@! TF.CreationDate,2019-11-11T15:55:51-08:00*
G04 #@! TF.ProjectId,DCC_Booster,4443435f-426f-46f7-9374-65722e6b6963,n/c*
G04 #@! TF.SameCoordinates,Original*
G04 #@! TF.FileFunction,Copper,L2,Bot*
G04 #@! TF.FilePolarity,Positive*
%FSLAX46Y46*%
G04 Gerber Fmt 4.6, Leading zero omitted, Abs format (unit mm)*
G04 Created by KiCad (PCBNEW (5.99.0-269-g375c4bd3f)) date 2019-11-11 15:55:51*
%MOMM*%
%LPD*%
G04 APERTURE LIST*
%ADD10C,3.600000*%
%ADD11C,1.397000*%
%ADD12O,2.400000X1.600000*%
%ADD13R,2.400000X1.600000*%
%ADD14O,1.500000X2.300000*%
%ADD15R,1.500000X2.300000*%
%ADD16O,1.800000X1.800000*%
%ADD17R,1.800000X1.800000*%
%ADD18O,1.600000X1.600000*%
%ADD19R,1.600000X1.600000*%
%ADD20C,1.600000*%
%ADD21O,1.700000X1.700000*%
%ADD22R,1.700000X1.700000*%
%ADD23O,3.600000X1.800000*%
%ADD24C,1.800000*%
%ADD25C,2.400000*%
%ADD26R,2.400000X2.400000*%
%ADD27O,3.500000X2.000000*%
%ADD28O,2.000000X3.300000*%
%ADD29R,2.000000X4.000000*%
%ADD30C,0.800000*%
%ADD31C,1.574800*%
%ADD32C,0.508000*%
%ADD33C,2.540000*%
%ADD34C,1.270000*%
%ADD35C,0.304800*%
%ADD36C,0.635000*%
%ADD37C,0.254000*%
G04 APERTURE END LIST*
D10*
X40640000Y-134620000D03*
X40640000Y-127000000D03*
D11*
X46990000Y-128905000D03*
X49530000Y-130175000D03*
X46990000Y-131445000D03*
X49530000Y-132715000D03*
X49530000Y-120015000D03*
X46990000Y-118745000D03*
X49530000Y-117475000D03*
X46990000Y-116205000D03*
D10*
X40640000Y-114300000D03*
X40640000Y-121920000D03*
D12*
X68350000Y-86360000D03*
X60730000Y-106680000D03*
X68350000Y-88900000D03*
X60730000Y-104140000D03*
X68350000Y-91440000D03*
X60730000Y-101600000D03*
X68350000Y-93980000D03*
X60730000Y-99060000D03*
X68350000Y-96520000D03*
X60730000Y-96520000D03*
X68350000Y-99060000D03*
X60730000Y-93980000D03*
X68350000Y-101600000D03*
X60730000Y-91440000D03*
X68350000Y-104140000D03*
X60730000Y-88900000D03*
X68350000Y-106680000D03*
D13*
X60730000Y-86360000D03*
D14*
X128905000Y-37465000D03*
X126365000Y-37465000D03*
D15*
X123825000Y-37465000D03*
D16*
X103320000Y-38735000D03*
X101620000Y-35035000D03*
X99920000Y-38735000D03*
X98220000Y-35035000D03*
D17*
X96520000Y-38735000D03*
D18*
X48030000Y-99080000D03*
X40410000Y-109240000D03*
X48030000Y-101620000D03*
X40410000Y-106700000D03*
X48030000Y-104160000D03*
X40410000Y-104160000D03*
X48030000Y-106700000D03*
X40410000Y-101620000D03*
X48030000Y-109240000D03*
D19*
X40410000Y-99080000D03*
D20*
X100330000Y-72430000D03*
X100330000Y-49530000D03*
D21*
X78740000Y-101620000D03*
X78740000Y-99080000D03*
X78740000Y-96540000D03*
X78740000Y-94000000D03*
D22*
X78740000Y-91460000D03*
D23*
X40410000Y-61615000D03*
X40410000Y-56535000D03*
X40410000Y-51455000D03*
G04 #@! TA.AperFunction,ComponentPad*
G36*
X42055671Y-45494030D02*
G01*
X42136777Y-45548223D01*
X42190970Y-45629329D01*
X42210000Y-45725000D01*
X42210000Y-47025000D01*
X42190970Y-47120671D01*
X42136777Y-47201777D01*
X42055671Y-47255970D01*
X41960000Y-47275000D01*
X38860000Y-47275000D01*
X38764329Y-47255970D01*
X38683223Y-47201777D01*
X38629030Y-47120671D01*
X38610000Y-47025000D01*
X38610000Y-45725000D01*
X38629030Y-45629329D01*
X38683223Y-45548223D01*
X38764329Y-45494030D01*
X38860000Y-45475000D01*
X41960000Y-45475000D01*
X42055671Y-45494030D01*
G37*
G04 #@! TD.AperFunction*
D24*
X40410000Y-94635000D03*
D17*
X40410000Y-92095000D03*
D24*
X40410000Y-89555000D03*
D17*
X40410000Y-87015000D03*
D24*
X40410000Y-84475000D03*
D17*
X40410000Y-81935000D03*
D24*
X40410000Y-79395000D03*
D17*
X40410000Y-76855000D03*
D24*
X40410000Y-74315000D03*
D17*
X40410000Y-71775000D03*
D24*
X40410000Y-69235000D03*
D17*
X40410000Y-66695000D03*
D20*
X107235000Y-125095000D03*
X102235000Y-125095000D03*
X93265000Y-125095000D03*
X88265000Y-125095000D03*
D25*
X122555000Y-60840000D03*
D26*
X122555000Y-53340000D03*
D25*
X84455000Y-36950000D03*
D26*
X84455000Y-44450000D03*
D27*
X39990000Y-40695000D03*
X39990000Y-31695000D03*
D28*
X40990000Y-36195000D03*
D29*
X46990000Y-36195000D03*
D30*
X92710000Y-93980000D03*
X91440000Y-93980000D03*
X90170000Y-93980000D03*
X88900000Y-93980000D03*
X92710000Y-92710000D03*
X91440000Y-92710000D03*
X90170000Y-92710000D03*
X88900000Y-92710000D03*
X92710000Y-91440000D03*
X91440000Y-91440000D03*
X90170000Y-91440000D03*
X88900000Y-91440000D03*
X92710000Y-81280000D03*
X91440000Y-81280000D03*
X90170000Y-81280000D03*
X88900000Y-81280000D03*
X92710000Y-80010000D03*
X91440000Y-80010000D03*
X90170000Y-80010000D03*
X88900000Y-80010000D03*
X92710000Y-78740000D03*
X91440000Y-78740000D03*
X90170000Y-78740000D03*
X88900000Y-78740000D03*
X119380000Y-115570000D03*
X125095000Y-115570000D03*
X53340000Y-69850000D03*
X99060000Y-93980000D03*
X99060000Y-81280000D03*
X90170000Y-70485000D03*
X62747590Y-109220000D03*
X123190000Y-123190000D03*
X76200000Y-131445000D03*
X70485000Y-134620000D03*
X71402510Y-128771140D03*
X69567490Y-127000000D03*
X72635000Y-118110000D03*
X71755000Y-112395000D03*
X60325000Y-114300000D03*
X73965000Y-121920000D03*
X46990000Y-95250000D03*
X53340000Y-88900000D03*
X53340000Y-95250000D03*
X49530000Y-80010000D03*
X49530000Y-96520000D03*
X78740000Y-113030000D03*
X111760000Y-113030000D03*
X132080000Y-113030000D03*
X74295000Y-107315000D03*
X83581716Y-105171716D03*
X74315000Y-96540000D03*
X74295000Y-93980000D03*
X74295000Y-90805000D03*
X74295000Y-86995000D03*
X55245000Y-84455000D03*
X55245000Y-102870000D03*
X74274270Y-125101826D03*
X60325000Y-124460000D03*
X57785000Y-125730000D03*
X65899998Y-129540000D03*
X104139999Y-105717557D03*
X128270000Y-101600000D03*
X123190000Y-101600000D03*
D31*
X131445000Y-60325000D03*
D30*
X108585000Y-108585000D03*
X126365000Y-108585000D03*
D31*
X64770000Y-39370000D03*
D30*
X50165000Y-109220000D03*
X50165000Y-106680000D03*
X50165000Y-104140000D03*
X50165000Y-101600000D03*
X50165000Y-99060000D03*
X93345000Y-106680000D03*
X85725000Y-106680000D03*
X114300000Y-107315000D03*
X93980000Y-107950000D03*
X81280000Y-129540000D03*
X74930000Y-128787590D03*
X88265000Y-132715000D03*
X79375000Y-132715000D03*
X94615000Y-128270000D03*
X79375000Y-128905000D03*
X114935000Y-78740000D03*
X116205000Y-78740000D03*
X117475000Y-78740000D03*
X118745000Y-78740000D03*
X114935000Y-80010000D03*
X116205000Y-80010000D03*
X117475000Y-80010000D03*
X118745000Y-80010000D03*
X114935000Y-81280000D03*
X116205000Y-81280000D03*
X117475000Y-81280000D03*
X118745000Y-81280000D03*
X114935000Y-91440000D03*
X116205000Y-91440000D03*
X117475000Y-91440000D03*
X118745000Y-91440000D03*
X114935000Y-92710000D03*
X116205000Y-92710000D03*
X117475000Y-92710000D03*
X118745000Y-92710000D03*
X114935000Y-93980000D03*
X116205000Y-93980000D03*
X117475000Y-93980000D03*
X118745000Y-93980000D03*
X102235000Y-68580000D03*
X106680000Y-87630000D03*
X107950000Y-87630000D03*
X109220000Y-87630000D03*
X110490000Y-87630000D03*
X110490000Y-86360000D03*
X109220000Y-86360000D03*
X107950000Y-86360000D03*
X106680000Y-86360000D03*
X106680000Y-85090000D03*
X107950000Y-85090000D03*
X109220000Y-85090000D03*
X110490000Y-85090000D03*
X110490000Y-100330000D03*
X109220000Y-100330000D03*
X107950000Y-100330000D03*
X106680000Y-100330000D03*
X106680000Y-99060000D03*
X107950000Y-99060000D03*
X109220000Y-99060000D03*
X110490000Y-99060000D03*
X110490000Y-97790000D03*
X109220000Y-97790000D03*
X107950000Y-97790000D03*
X106680000Y-97790000D03*
X97790000Y-91440000D03*
X99060000Y-91440000D03*
X100330000Y-91440000D03*
X101600000Y-91440000D03*
X101600000Y-92710000D03*
X100330000Y-92710000D03*
X99060000Y-92710000D03*
X97790000Y-92710000D03*
X97790000Y-93980000D03*
X100330000Y-93980000D03*
X101600000Y-93980000D03*
X97790000Y-78740000D03*
X99060000Y-78740000D03*
X100330000Y-78740000D03*
X101600000Y-78740000D03*
X101600000Y-80010000D03*
X100330000Y-80010000D03*
X99060000Y-80010000D03*
X97790000Y-80010000D03*
X97790000Y-81280000D03*
X100330000Y-81280000D03*
X101600000Y-81280000D03*
X103505000Y-68580000D03*
X102870000Y-67945000D03*
X102870000Y-69215000D03*
X90805000Y-71120000D03*
X90170000Y-71755000D03*
X89535000Y-71120000D03*
D32*
X125095000Y-115570000D02*
X119380000Y-115570000D01*
D33*
X95250000Y-54610000D02*
X90805000Y-49530000D01*
D34*
X90805000Y-52705000D02*
X90805000Y-49530000D01*
D33*
X90805000Y-49530000D02*
X90685000Y-50045000D01*
D34*
X74295000Y-69215000D02*
X90805000Y-52705000D01*
X74295000Y-86995000D02*
X74295000Y-69215000D01*
X53340000Y-69850000D02*
X70880000Y-69850000D01*
X70880000Y-69850000D02*
X90685000Y-50045000D01*
D33*
X97155000Y-73660000D02*
X94615000Y-71120000D01*
X94615000Y-71120000D02*
X90170000Y-71120000D01*
X97155000Y-78455000D02*
X97155000Y-73660000D01*
X99715000Y-81315000D02*
X99715000Y-81015000D01*
X99715000Y-81015000D02*
X97155000Y-78455000D01*
D35*
X65405000Y-95250000D02*
X65405000Y-88905000D01*
X65405000Y-88905000D02*
X67950000Y-86360000D01*
X67950000Y-86360000D02*
X68350000Y-86360000D01*
X63500000Y-97155000D02*
X65405000Y-95250000D01*
X63500000Y-132715000D02*
X63500000Y-97155000D01*
X61130000Y-86360000D02*
X63147589Y-88377589D01*
X60730000Y-86360000D02*
X61130000Y-86360000D01*
X63147589Y-96793501D02*
X62747590Y-97193500D01*
X62747590Y-108654315D02*
X62747590Y-109220000D01*
X62747590Y-97193500D02*
X62747590Y-108654315D01*
X63147589Y-88377589D02*
X63147589Y-96793501D01*
X66675000Y-135890000D02*
X63500000Y-132715000D01*
X73660000Y-135890000D02*
X66675000Y-135890000D01*
X64770000Y-97160000D02*
X67950000Y-93980000D01*
X76200000Y-131445000D02*
X72259811Y-135385189D01*
X67440189Y-135385189D02*
X64770000Y-132715000D01*
X72259811Y-135385189D02*
X67440189Y-135385189D01*
X64770000Y-132715000D02*
X64770000Y-97160000D01*
X67950000Y-93980000D02*
X68350000Y-93980000D01*
X75565000Y-133985000D02*
X73660000Y-135890000D01*
X102235000Y-133985000D02*
X75565000Y-133985000D01*
X113030000Y-123190000D02*
X102235000Y-133985000D01*
X123190000Y-123190000D02*
X113030000Y-123190000D01*
X71802509Y-129171139D02*
X71402510Y-128771140D01*
X80880001Y-129939999D02*
X72571369Y-129939999D01*
X72571369Y-129939999D02*
X71802509Y-129171139D01*
X67027490Y-129540000D02*
X69167491Y-127399999D01*
X65899998Y-129540000D02*
X67027490Y-129540000D01*
D36*
X73965000Y-123520000D02*
X70485000Y-127000000D01*
D35*
X81280000Y-129540000D02*
X80880001Y-129939999D01*
X69167491Y-127399999D02*
X69567490Y-127000000D01*
D36*
X70485000Y-127000000D02*
X70485000Y-134620000D01*
X73965000Y-121920000D02*
X73965000Y-123520000D01*
D35*
X71755000Y-112395000D02*
X71755000Y-117230000D01*
X71755000Y-117230000D02*
X72635000Y-118110000D01*
D36*
X74295000Y-107315000D02*
X74295000Y-121590000D01*
X74295000Y-121590000D02*
X73965000Y-121920000D01*
X43180000Y-97745000D02*
X43180000Y-95250000D01*
X46990000Y-95250000D02*
X43180000Y-95250000D01*
X43180000Y-95250000D02*
X43180000Y-85780000D01*
X53340000Y-95250000D02*
X53340000Y-88900000D01*
X49530000Y-96520000D02*
X49530000Y-80010000D01*
X50165000Y-99060000D02*
X50165000Y-97155000D01*
X50165000Y-97155000D02*
X49530000Y-96520000D01*
D34*
X111760000Y-113030000D02*
X78740000Y-113030000D01*
X132080000Y-113030000D02*
X111760000Y-113030000D01*
D36*
X74315000Y-96540000D02*
X74315000Y-107295000D01*
X74315000Y-107295000D02*
X74295000Y-107315000D01*
X104139999Y-105717557D02*
X84127557Y-105717557D01*
X84127557Y-105717557D02*
X83981715Y-105571715D01*
X83981715Y-105571715D02*
X83581716Y-105171716D01*
X74295000Y-93980000D02*
X74295000Y-96520000D01*
X74295000Y-96520000D02*
X74315000Y-96540000D01*
X74295000Y-90805000D02*
X74295000Y-93980000D01*
X74295000Y-86995000D02*
X74295000Y-90805000D01*
D35*
X55245000Y-102870000D02*
X55245000Y-84455000D01*
X74274270Y-125667511D02*
X74274270Y-125101826D01*
X74274270Y-128131860D02*
X74274270Y-125667511D01*
X74930000Y-128787590D02*
X74274270Y-128131860D01*
X60325000Y-124460000D02*
X60325000Y-114300000D01*
X60325000Y-114300000D02*
X60325000Y-107085000D01*
X60325000Y-107085000D02*
X60730000Y-106680000D01*
X57785000Y-125730000D02*
X57785000Y-91445000D01*
X57785000Y-91445000D02*
X60330000Y-88900000D01*
X60330000Y-88900000D02*
X60730000Y-88900000D01*
D34*
X93980000Y-123190000D02*
X93265000Y-123905000D01*
X93265000Y-123905000D02*
X93265000Y-125095000D01*
X106680000Y-123190000D02*
X93980000Y-123190000D01*
X107235000Y-123745000D02*
X106680000Y-123190000D01*
X107235000Y-125095000D02*
X107235000Y-123745000D01*
D36*
X123190000Y-101600000D02*
X128270000Y-101600000D01*
D33*
X131445000Y-60325000D02*
X123070000Y-60325000D01*
X123070000Y-60325000D02*
X122555000Y-60840000D01*
D36*
X94379999Y-107550001D02*
X93980000Y-107950000D01*
X126365000Y-108585000D02*
X108585000Y-108585000D01*
X94615000Y-107315000D02*
X94379999Y-107550001D01*
X114300000Y-107315000D02*
X94615000Y-107315000D01*
D32*
X50228499Y-120713499D02*
X49530000Y-120015000D01*
X50682501Y-121167501D02*
X50228499Y-120713499D01*
X50682501Y-132550327D02*
X50682501Y-121167501D01*
X50517828Y-132715000D02*
X50682501Y-132550327D01*
X49530000Y-132715000D02*
X50517828Y-132715000D01*
X48831501Y-118609201D02*
X48831501Y-118173499D01*
X48113978Y-119326724D02*
X48831501Y-118609201D01*
X48113978Y-127771150D02*
X48113978Y-119326724D01*
X48831501Y-118173499D02*
X49530000Y-117475000D01*
X49530000Y-129187172D02*
X48113978Y-127771150D01*
X49530000Y-130175000D02*
X49530000Y-129187172D01*
X50682501Y-116921799D02*
X50682501Y-118862499D01*
X50682501Y-118862499D02*
X50228499Y-119316501D01*
X49965702Y-116205000D02*
X50682501Y-116921799D01*
X50228499Y-119316501D02*
X49530000Y-120015000D01*
X46990000Y-116205000D02*
X49965702Y-116205000D01*
D33*
X96747792Y-43180000D02*
X90685000Y-43180000D01*
X99920000Y-40007792D02*
X96747792Y-43180000D01*
X99920000Y-38735000D02*
X99920000Y-40007792D01*
X108345000Y-60840000D02*
X102115000Y-54610000D01*
X122555000Y-60840000D02*
X108345000Y-60840000D01*
X102115000Y-54610000D02*
X96520000Y-54610000D01*
X87630000Y-40640000D02*
X84455000Y-36950000D01*
X90685000Y-43180000D02*
X87630000Y-40640000D01*
X96520000Y-54610000D02*
X95250000Y-54610000D01*
X90685000Y-50045000D02*
X90685000Y-43180000D01*
D34*
X126365000Y-57030000D02*
X122555000Y-60840000D01*
X126365000Y-37465000D02*
X126365000Y-57030000D01*
D33*
X41310000Y-45475000D02*
X58665000Y-45475000D01*
X40410000Y-46375000D02*
X41310000Y-45475000D01*
X58665000Y-45475000D02*
X64770000Y-39370000D01*
D36*
X41945000Y-66695000D02*
X43180000Y-67930000D01*
X40410000Y-66695000D02*
X41945000Y-66695000D01*
X41945000Y-71775000D02*
X40410000Y-71775000D01*
X43180000Y-70540000D02*
X41945000Y-71775000D01*
X43180000Y-67930000D02*
X43180000Y-70540000D01*
X41945000Y-76855000D02*
X40410000Y-76855000D01*
X43180000Y-75620000D02*
X41945000Y-76855000D01*
X43180000Y-70540000D02*
X43180000Y-75620000D01*
X41945000Y-81935000D02*
X40410000Y-81935000D01*
X43180000Y-80700000D02*
X41945000Y-81935000D01*
X43180000Y-75620000D02*
X43180000Y-80700000D01*
X41945000Y-87015000D02*
X40410000Y-87015000D01*
X43180000Y-85780000D02*
X41945000Y-87015000D01*
X43180000Y-80700000D02*
X43180000Y-85780000D01*
X41845000Y-99080000D02*
X43180000Y-97745000D01*
X40410000Y-99080000D02*
X41845000Y-99080000D01*
D32*
X50165000Y-109220000D02*
X50165000Y-106680000D01*
X50165000Y-101600000D02*
X50165000Y-104140000D01*
X50165000Y-104140000D02*
X50165000Y-106680000D01*
X50165000Y-99060000D02*
X50165000Y-101600000D01*
D36*
X93345000Y-106680000D02*
X85725000Y-106680000D01*
D35*
X88265000Y-132715000D02*
X79375000Y-132715000D01*
X94615000Y-128270000D02*
X80010000Y-128270000D01*
X80010000Y-128270000D02*
X79375000Y-128905000D01*
D33*
X99715000Y-94015000D02*
X102200000Y-94015000D01*
X102200000Y-94015000D02*
X104140000Y-92075000D01*
X104140000Y-69596000D02*
X102870000Y-68326000D01*
X104140000Y-92075000D02*
X104140000Y-69596000D01*
G36*
X133224000Y-66549000D02*
G01*
X103558872Y-66549000D01*
X103316382Y-66466685D01*
X102970073Y-66416474D01*
X102620415Y-66430212D01*
X102279115Y-66507440D01*
X102182381Y-66549000D01*
X75691000Y-66549000D01*
X75691000Y-52128976D01*
X120713163Y-52128976D01*
X120713163Y-54556588D01*
X120793795Y-54857512D01*
X120941185Y-55033165D01*
X121134814Y-55144956D01*
X121343976Y-55181837D01*
X123771588Y-55181837D01*
X124072512Y-55101205D01*
X124248165Y-54953815D01*
X124359956Y-54760186D01*
X124396837Y-54551024D01*
X124396837Y-52123412D01*
X124316205Y-51822489D01*
X124168815Y-51646835D01*
X123975186Y-51535044D01*
X123766024Y-51498163D01*
X121338412Y-51498163D01*
X121037489Y-51578795D01*
X120861835Y-51726185D01*
X120750044Y-51919814D01*
X120713163Y-52128976D01*
X75691000Y-52128976D01*
X75691000Y-49404541D01*
X98896000Y-49404541D01*
X98896000Y-49655459D01*
X98939571Y-49902564D01*
X99025391Y-50138349D01*
X99150850Y-50355651D01*
X99312136Y-50547864D01*
X99504349Y-50709150D01*
X99721651Y-50834609D01*
X99957436Y-50920429D01*
X100204541Y-50964000D01*
X100455459Y-50964000D01*
X100702564Y-50920429D01*
X100938349Y-50834609D01*
X101155651Y-50709150D01*
X101347864Y-50547864D01*
X101509150Y-50355651D01*
X101634609Y-50138349D01*
X101720429Y-49902564D01*
X101764000Y-49655459D01*
X101764000Y-49404541D01*
X101720429Y-49157436D01*
X101634609Y-48921651D01*
X101509150Y-48704349D01*
X101347864Y-48512136D01*
X101155651Y-48350850D01*
X100938349Y-48225391D01*
X100702564Y-48139571D01*
X100455459Y-48096000D01*
X100204541Y-48096000D01*
X99957436Y-48139571D01*
X99721651Y-48225391D01*
X99504349Y-48350850D01*
X99312136Y-48512136D01*
X99150850Y-48704349D01*
X99025391Y-48921651D01*
X98939571Y-49157436D01*
X98896000Y-49404541D01*
X75691000Y-49404541D01*
X75691000Y-43238976D01*
X82613163Y-43238976D01*
X82613163Y-45666588D01*
X82693795Y-45967512D01*
X82841185Y-46143165D01*
X83034814Y-46254956D01*
X83243976Y-46291837D01*
X85671588Y-46291837D01*
X85972512Y-46211205D01*
X86148165Y-46063815D01*
X86259956Y-45870186D01*
X86296837Y-45661024D01*
X86296837Y-43233412D01*
X86216205Y-42932489D01*
X86068815Y-42756835D01*
X85875186Y-42645044D01*
X85666024Y-42608163D01*
X83238412Y-42608163D01*
X82937489Y-42688795D01*
X82761835Y-42836185D01*
X82650044Y-43029814D01*
X82613163Y-43238976D01*
X75691000Y-43238976D01*
X75691000Y-37823976D01*
X94978163Y-37823976D01*
X94978163Y-39651588D01*
X95058795Y-39952512D01*
X95206185Y-40128165D01*
X95399814Y-40239956D01*
X95608976Y-40276837D01*
X97436588Y-40276837D01*
X97737512Y-40196205D01*
X97913165Y-40048815D01*
X98024956Y-39855186D01*
X98061837Y-39646024D01*
X98061837Y-38718878D01*
X101780541Y-38718878D01*
X101799834Y-38978492D01*
X101862593Y-39231141D01*
X101967023Y-39469606D01*
X102110139Y-39687066D01*
X102287850Y-39877304D01*
X102495072Y-40034879D01*
X102725881Y-40155286D01*
X102973678Y-40235085D01*
X103231378Y-40271990D01*
X103491612Y-40264949D01*
X103746938Y-40214160D01*
X103990057Y-40121079D01*
X104214017Y-39988365D01*
X104412414Y-39819815D01*
X104579576Y-39620245D01*
X104710723Y-39395364D01*
X104802105Y-39151601D01*
X104851224Y-38895327D01*
X104854245Y-38606775D01*
X104810505Y-38349530D01*
X104724248Y-38103906D01*
X104597839Y-37876327D01*
X104434894Y-37673302D01*
X104240069Y-37500632D01*
X104018937Y-37363258D01*
X103777821Y-37265105D01*
X103523614Y-37208981D01*
X103263585Y-37196491D01*
X103005170Y-37227991D01*
X102755756Y-37302582D01*
X102522475Y-37418130D01*
X102311998Y-37571331D01*
X102130344Y-37757806D01*
X101982704Y-37972220D01*
X101873303Y-38208446D01*
X101805267Y-38459726D01*
X101780541Y-38718878D01*
X98061837Y-38718878D01*
X98061837Y-37818412D01*
X97981205Y-37517489D01*
X97833815Y-37341835D01*
X97640186Y-37230044D01*
X97431024Y-37193163D01*
X95603412Y-37193163D01*
X95302489Y-37273795D01*
X95126835Y-37421185D01*
X95015044Y-37614814D01*
X94978163Y-37823976D01*
X75691000Y-37823976D01*
X75691000Y-35018878D01*
X96680541Y-35018878D01*
X96699834Y-35278492D01*
X96762593Y-35531141D01*
X96867023Y-35769606D01*
X97010139Y-35987066D01*
X97187850Y-36177304D01*
X97395072Y-36334879D01*
X97625881Y-36455286D01*
X97873678Y-36535085D01*
X98131378Y-36571990D01*
X98391612Y-36564949D01*
X98646938Y-36514160D01*
X98890057Y-36421079D01*
X99114017Y-36288365D01*
X99312414Y-36119815D01*
X99479576Y-35920245D01*
X99610723Y-35695364D01*
X99702105Y-35451601D01*
X99751224Y-35195327D01*
X99753071Y-35018878D01*
X100080541Y-35018878D01*
X100099834Y-35278492D01*
X100162593Y-35531141D01*
X100267023Y-35769606D01*
X100410139Y-35987066D01*
X100587850Y-36177304D01*
X100795072Y-36334879D01*
X101025881Y-36455286D01*
X101273678Y-36535085D01*
X101531378Y-36571990D01*
X101791612Y-36564949D01*
X102046938Y-36514160D01*
X102290057Y-36421079D01*
X102487672Y-36303976D01*
X122433163Y-36303976D01*
X122433163Y-38631588D01*
X122513795Y-38932512D01*
X122661185Y-39108165D01*
X122854814Y-39219956D01*
X123063976Y-39256837D01*
X124591588Y-39256837D01*
X124892512Y-39176205D01*
X125068165Y-39028815D01*
X125179956Y-38835186D01*
X125216837Y-38626024D01*
X125216837Y-37021319D01*
X127521000Y-37021319D01*
X127521000Y-37927577D01*
X127537376Y-38111074D01*
X127602567Y-38349371D01*
X127708927Y-38572356D01*
X127853093Y-38772983D01*
X128030506Y-38944911D01*
X128235564Y-39082703D01*
X128461780Y-39182004D01*
X128702006Y-39239678D01*
X128948647Y-39253899D01*
X129193911Y-39224219D01*
X129430042Y-39151575D01*
X129649577Y-39038265D01*
X129845576Y-38887869D01*
X130011846Y-38705141D01*
X130143129Y-38495858D01*
X130236645Y-38263231D01*
X130289000Y-37908681D01*
X130289000Y-37002423D01*
X130272624Y-36818926D01*
X130207433Y-36580629D01*
X130101073Y-36357644D01*
X129956909Y-36157017D01*
X129779493Y-35985089D01*
X129574436Y-35847297D01*
X129348220Y-35747996D01*
X129107994Y-35690322D01*
X128861353Y-35676101D01*
X128616089Y-35705781D01*
X128379958Y-35778425D01*
X128160423Y-35891735D01*
X127964423Y-36042131D01*
X127798154Y-36224860D01*
X127666871Y-36434143D01*
X127573355Y-36666770D01*
X127521000Y-37021319D01*
X125216837Y-37021319D01*
X125216837Y-36298412D01*
X125136205Y-35997489D01*
X124988815Y-35821835D01*
X124795186Y-35710044D01*
X124586024Y-35673163D01*
X123058412Y-35673163D01*
X122757489Y-35753795D01*
X122581835Y-35901185D01*
X122470044Y-36094814D01*
X122433163Y-36303976D01*
X102487672Y-36303976D01*
X102514017Y-36288365D01*
X102712414Y-36119815D01*
X102879576Y-35920245D01*
X103010723Y-35695364D01*
X103102105Y-35451601D01*
X103151224Y-35195327D01*
X103154245Y-34906775D01*
X103110505Y-34649530D01*
X103024248Y-34403906D01*
X102897839Y-34176327D01*
X102734894Y-33973302D01*
X102540069Y-33800632D01*
X102318937Y-33663258D01*
X102077821Y-33565105D01*
X101823614Y-33508981D01*
X101563585Y-33496491D01*
X101305170Y-33527991D01*
X101055756Y-33602582D01*
X100822475Y-33718130D01*
X100611998Y-33871331D01*
X100430344Y-34057806D01*
X100282704Y-34272220D01*
X100173303Y-34508446D01*
X100105267Y-34759726D01*
X100080541Y-35018878D01*
X99753071Y-35018878D01*
X99754245Y-34906775D01*
X99710505Y-34649530D01*
X99624248Y-34403906D01*
X99497839Y-34176327D01*
X99334894Y-33973302D01*
X99140069Y-33800632D01*
X98918937Y-33663258D01*
X98677821Y-33565105D01*
X98423614Y-33508981D01*
X98163585Y-33496491D01*
X97905170Y-33527991D01*
X97655756Y-33602582D01*
X97422475Y-33718130D01*
X97211998Y-33871331D01*
X97030344Y-34057806D01*
X96882704Y-34272220D01*
X96773303Y-34508446D01*
X96705267Y-34759726D01*
X96680541Y-35018878D01*
X75691000Y-35018878D01*
X75691000Y-29336000D01*
X133224000Y-29336000D01*
X133224000Y-66549000D01*
G37*
D37*
X133224000Y-66549000D02*
X103558872Y-66549000D01*
X103316382Y-66466685D01*
X102970073Y-66416474D01*
X102620415Y-66430212D01*
X102279115Y-66507440D01*
X102182381Y-66549000D01*
X75691000Y-66549000D01*
X75691000Y-52128976D01*
X120713163Y-52128976D01*
X120713163Y-54556588D01*
X120793795Y-54857512D01*
X120941185Y-55033165D01*
X121134814Y-55144956D01*
X121343976Y-55181837D01*
X123771588Y-55181837D01*
X124072512Y-55101205D01*
X124248165Y-54953815D01*
X124359956Y-54760186D01*
X124396837Y-54551024D01*
X124396837Y-52123412D01*
X124316205Y-51822489D01*
X124168815Y-51646835D01*
X123975186Y-51535044D01*
X123766024Y-51498163D01*
X121338412Y-51498163D01*
X121037489Y-51578795D01*
X120861835Y-51726185D01*
X120750044Y-51919814D01*
X120713163Y-52128976D01*
X75691000Y-52128976D01*
X75691000Y-49404541D01*
X98896000Y-49404541D01*
X98896000Y-49655459D01*
X98939571Y-49902564D01*
X99025391Y-50138349D01*
X99150850Y-50355651D01*
X99312136Y-50547864D01*
X99504349Y-50709150D01*
X99721651Y-50834609D01*
X99957436Y-50920429D01*
X100204541Y-50964000D01*
X100455459Y-50964000D01*
X100702564Y-50920429D01*
X100938349Y-50834609D01*
X101155651Y-50709150D01*
X101347864Y-50547864D01*
X101509150Y-50355651D01*
X101634609Y-50138349D01*
X101720429Y-49902564D01*
X101764000Y-49655459D01*
X101764000Y-49404541D01*
X101720429Y-49157436D01*
X101634609Y-48921651D01*
X101509150Y-48704349D01*
X101347864Y-48512136D01*
X101155651Y-48350850D01*
X100938349Y-48225391D01*
X100702564Y-48139571D01*
X100455459Y-48096000D01*
X100204541Y-48096000D01*
X99957436Y-48139571D01*
X99721651Y-48225391D01*
X99504349Y-48350850D01*
X99312136Y-48512136D01*
X99150850Y-48704349D01*
X99025391Y-48921651D01*
X98939571Y-49157436D01*
X98896000Y-49404541D01*
X75691000Y-49404541D01*
X75691000Y-43238976D01*
X82613163Y-43238976D01*
X82613163Y-45666588D01*
X82693795Y-45967512D01*
X82841185Y-46143165D01*
X83034814Y-46254956D01*
X83243976Y-46291837D01*
X85671588Y-46291837D01*
X85972512Y-46211205D01*
X86148165Y-46063815D01*
X86259956Y-45870186D01*
X86296837Y-45661024D01*
X86296837Y-43233412D01*
X86216205Y-42932489D01*
X86068815Y-42756835D01*
X85875186Y-42645044D01*
X85666024Y-42608163D01*
X83238412Y-42608163D01*
X82937489Y-42688795D01*
X82761835Y-42836185D01*
X82650044Y-43029814D01*
X82613163Y-43238976D01*
X75691000Y-43238976D01*
X75691000Y-37823976D01*
X94978163Y-37823976D01*
X94978163Y-39651588D01*
X95058795Y-39952512D01*
X95206185Y-40128165D01*
X95399814Y-40239956D01*
X95608976Y-40276837D01*
X97436588Y-40276837D01*
X97737512Y-40196205D01*
X97913165Y-40048815D01*
X98024956Y-39855186D01*
X98061837Y-39646024D01*
X98061837Y-38718878D01*
X101780541Y-38718878D01*
X101799834Y-38978492D01*
X101862593Y-39231141D01*
X101967023Y-39469606D01*
X102110139Y-39687066D01*
X102287850Y-39877304D01*
X102495072Y-40034879D01*
X102725881Y-40155286D01*
X102973678Y-40235085D01*
X103231378Y-40271990D01*
X103491612Y-40264949D01*
X103746938Y-40214160D01*
X103990057Y-40121079D01*
X104214017Y-39988365D01*
X104412414Y-39819815D01*
X104579576Y-39620245D01*
X104710723Y-39395364D01*
X104802105Y-39151601D01*
X104851224Y-38895327D01*
X104854245Y-38606775D01*
X104810505Y-38349530D01*
X104724248Y-38103906D01*
X104597839Y-37876327D01*
X104434894Y-37673302D01*
X104240069Y-37500632D01*
X104018937Y-37363258D01*
X103777821Y-37265105D01*
X103523614Y-37208981D01*
X103263585Y-37196491D01*
X103005170Y-37227991D01*
X102755756Y-37302582D01*
X102522475Y-37418130D01*
X102311998Y-37571331D01*
X102130344Y-37757806D01*
X101982704Y-37972220D01*
X101873303Y-38208446D01*
X101805267Y-38459726D01*
X101780541Y-38718878D01*
X98061837Y-38718878D01*
X98061837Y-37818412D01*
X97981205Y-37517489D01*
X97833815Y-37341835D01*
X97640186Y-37230044D01*
X97431024Y-37193163D01*
X95603412Y-37193163D01*
X95302489Y-37273795D01*
X95126835Y-37421185D01*
X95015044Y-37614814D01*
X94978163Y-37823976D01*
X75691000Y-37823976D01*
X75691000Y-35018878D01*
X96680541Y-35018878D01*
X96699834Y-35278492D01*
X96762593Y-35531141D01*
X96867023Y-35769606D01*
X97010139Y-35987066D01*
X97187850Y-36177304D01*
X97395072Y-36334879D01*
X97625881Y-36455286D01*
X97873678Y-36535085D01*
X98131378Y-36571990D01*
X98391612Y-36564949D01*
X98646938Y-36514160D01*
X98890057Y-36421079D01*
X99114017Y-36288365D01*
X99312414Y-36119815D01*
X99479576Y-35920245D01*
X99610723Y-35695364D01*
X99702105Y-35451601D01*
X99751224Y-35195327D01*
X99753071Y-35018878D01*
X100080541Y-35018878D01*
X100099834Y-35278492D01*
X100162593Y-35531141D01*
X100267023Y-35769606D01*
X100410139Y-35987066D01*
X100587850Y-36177304D01*
X100795072Y-36334879D01*
X101025881Y-36455286D01*
X101273678Y-36535085D01*
X101531378Y-36571990D01*
X101791612Y-36564949D01*
X102046938Y-36514160D01*
X102290057Y-36421079D01*
X102487672Y-36303976D01*
X122433163Y-36303976D01*
X122433163Y-38631588D01*
X122513795Y-38932512D01*
X122661185Y-39108165D01*
X122854814Y-39219956D01*
X123063976Y-39256837D01*
X124591588Y-39256837D01*
X124892512Y-39176205D01*
X125068165Y-39028815D01*
X125179956Y-38835186D01*
X125216837Y-38626024D01*
X125216837Y-37021319D01*
X127521000Y-37021319D01*
X127521000Y-37927577D01*
X127537376Y-38111074D01*
X127602567Y-38349371D01*
X127708927Y-38572356D01*
X127853093Y-38772983D01*
X128030506Y-38944911D01*
X128235564Y-39082703D01*
X128461780Y-39182004D01*
X128702006Y-39239678D01*
X128948647Y-39253899D01*
X129193911Y-39224219D01*
X129430042Y-39151575D01*
X129649577Y-39038265D01*
X129845576Y-38887869D01*
X130011846Y-38705141D01*
X130143129Y-38495858D01*
X130236645Y-38263231D01*
X130289000Y-37908681D01*
X130289000Y-37002423D01*
X130272624Y-36818926D01*
X130207433Y-36580629D01*
X130101073Y-36357644D01*
X129956909Y-36157017D01*
X129779493Y-35985089D01*
X129574436Y-35847297D01*
X129348220Y-35747996D01*
X129107994Y-35690322D01*
X128861353Y-35676101D01*
X128616089Y-35705781D01*
X128379958Y-35778425D01*
X128160423Y-35891735D01*
X127964423Y-36042131D01*
X127798154Y-36224860D01*
X127666871Y-36434143D01*
X127573355Y-36666770D01*
X127521000Y-37021319D01*
X125216837Y-37021319D01*
X125216837Y-36298412D01*
X125136205Y-35997489D01*
X124988815Y-35821835D01*
X124795186Y-35710044D01*
X124586024Y-35673163D01*
X123058412Y-35673163D01*
X122757489Y-35753795D01*
X122581835Y-35901185D01*
X122470044Y-36094814D01*
X122433163Y-36303976D01*
X102487672Y-36303976D01*
X102514017Y-36288365D01*
X102712414Y-36119815D01*
X102879576Y-35920245D01*
X103010723Y-35695364D01*
X103102105Y-35451601D01*
X103151224Y-35195327D01*
X103154245Y-34906775D01*
X103110505Y-34649530D01*
X103024248Y-34403906D01*
X102897839Y-34176327D01*
X102734894Y-33973302D01*
X102540069Y-33800632D01*
X102318937Y-33663258D01*
X102077821Y-33565105D01*
X101823614Y-33508981D01*
X101563585Y-33496491D01*
X101305170Y-33527991D01*
X101055756Y-33602582D01*
X100822475Y-33718130D01*
X100611998Y-33871331D01*
X100430344Y-34057806D01*
X100282704Y-34272220D01*
X100173303Y-34508446D01*
X100105267Y-34759726D01*
X100080541Y-35018878D01*
X99753071Y-35018878D01*
X99754245Y-34906775D01*
X99710505Y-34649530D01*
X99624248Y-34403906D01*
X99497839Y-34176327D01*
X99334894Y-33973302D01*
X99140069Y-33800632D01*
X98918937Y-33663258D01*
X98677821Y-33565105D01*
X98423614Y-33508981D01*
X98163585Y-33496491D01*
X97905170Y-33527991D01*
X97655756Y-33602582D01*
X97422475Y-33718130D01*
X97211998Y-33871331D01*
X97030344Y-34057806D01*
X96882704Y-34272220D01*
X96773303Y-34508446D01*
X96705267Y-34759726D01*
X96680541Y-35018878D01*
X75691000Y-35018878D01*
X75691000Y-29336000D01*
X133224000Y-29336000D01*
X133224000Y-66549000D01*
G36*
X95124000Y-74982190D02*
G01*
X95124000Y-104014000D01*
X81406000Y-104014000D01*
X81406000Y-73786000D01*
X93927810Y-73786000D01*
X95124000Y-74982190D01*
G37*
X95124000Y-74982190D02*
X95124000Y-104014000D01*
X81406000Y-104014000D01*
X81406000Y-73786000D01*
X93927810Y-73786000D01*
X95124000Y-74982190D01*
G36*
X130684000Y-89409000D02*
G01*
X106171000Y-89409000D01*
X106171000Y-74421000D01*
X130684000Y-74421000D01*
X130684000Y-89409000D01*
G37*
X130684000Y-89409000D02*
X106171000Y-89409000D01*
X106171000Y-74421000D01*
X130684000Y-74421000D01*
X130684000Y-89409000D01*
G36*
X130684000Y-100204000D02*
G01*
X121794000Y-100204000D01*
X121794000Y-105284000D01*
X106171000Y-105284000D01*
X106171000Y-90296000D01*
X130684000Y-90296000D01*
X130684000Y-100204000D01*
G37*
X130684000Y-100204000D02*
X121794000Y-100204000D01*
X121794000Y-105284000D01*
X106171000Y-105284000D01*
X106171000Y-90296000D01*
X130684000Y-90296000D01*
X130684000Y-100204000D01*
G36*
X105284000Y-104014000D02*
G01*
X96011000Y-104014000D01*
X96011000Y-87756000D01*
X105284000Y-87756000D01*
X105284000Y-104014000D01*
G37*
X105284000Y-104014000D02*
X96011000Y-104014000D01*
X96011000Y-87756000D01*
X105284000Y-87756000D01*
X105284000Y-104014000D01*
G36*
X102109000Y-86869000D02*
G01*
X96011000Y-86869000D01*
X96011000Y-74421000D01*
X102109000Y-74421000D01*
X102109000Y-86869000D01*
G37*
X102109000Y-86869000D02*
X96011000Y-86869000D01*
X96011000Y-74421000D01*
X102109000Y-74421000D01*
X102109000Y-86869000D01*
M02*
