G04 #@! TF.GenerationSoftware,KiCad,Pcbnew,(5.99.0-823-ga085f82be)*
G04 #@! TF.CreationDate,2020-05-08T16:56:45-07:00*
G04 #@! TF.ProjectId,DCC_Booster,4443435f-426f-46f7-9374-65722e6b6963,B*
G04 #@! TF.SameCoordinates,Original*
G04 #@! TF.FileFunction,Legend,Bot*
G04 #@! TF.FilePolarity,Positive*
%FSLAX46Y46*%
G04 Gerber Fmt 4.6, Leading zero omitted, Abs format (unit mm)*
G04 Created by KiCad (PCBNEW (5.99.0-823-ga085f82be)) date 2020-05-08 16:56:45*
%MOMM*%
%LPD*%
G04 APERTURE LIST*
%ADD10C,0.203200*%
G04 APERTURE END LIST*
D10*
X61155217Y-77959857D02*
X61155217Y-79121000D01*
X61735788Y-78540428D02*
X60574645Y-78540428D01*
X60356931Y-79774142D02*
X60284360Y-79846714D01*
X60211788Y-79991857D01*
X60211788Y-80354714D01*
X60284360Y-80499857D01*
X60356931Y-80572428D01*
X60502074Y-80645000D01*
X60647217Y-80645000D01*
X60864931Y-80572428D01*
X61735788Y-79701571D01*
X61735788Y-80645000D01*
X60719788Y-81951285D02*
X61735788Y-81951285D01*
X60139217Y-81588428D02*
X61227788Y-81225571D01*
X61227788Y-82169000D01*
X60211788Y-82531857D02*
X61735788Y-83039857D01*
X60211788Y-83547857D01*
X63608857Y-77959857D02*
X63608857Y-79121000D01*
X64189428Y-78540428D02*
X63028285Y-78540428D01*
X64189428Y-80645000D02*
X64189428Y-79774142D01*
X64189428Y-80209571D02*
X62665428Y-80209571D01*
X62883142Y-80064428D01*
X63028285Y-79919285D01*
X63100857Y-79774142D01*
X62665428Y-82023857D02*
X62665428Y-81298142D01*
X63391142Y-81225571D01*
X63318571Y-81298142D01*
X63246000Y-81443285D01*
X63246000Y-81806142D01*
X63318571Y-81951285D01*
X63391142Y-82023857D01*
X63536285Y-82096428D01*
X63899142Y-82096428D01*
X64044285Y-82023857D01*
X64116857Y-81951285D01*
X64189428Y-81806142D01*
X64189428Y-81443285D01*
X64116857Y-81298142D01*
X64044285Y-81225571D01*
X62665428Y-82531857D02*
X64189428Y-83039857D01*
X62665428Y-83547857D01*
X66062497Y-78685571D02*
X66062497Y-79846714D01*
X66643068Y-79266142D02*
X65481925Y-79266142D01*
X65119068Y-81298142D02*
X65119068Y-80572428D01*
X65844782Y-80499857D01*
X65772211Y-80572428D01*
X65699640Y-80717571D01*
X65699640Y-81080428D01*
X65772211Y-81225571D01*
X65844782Y-81298142D01*
X65989925Y-81370714D01*
X66352782Y-81370714D01*
X66497925Y-81298142D01*
X66570497Y-81225571D01*
X66643068Y-81080428D01*
X66643068Y-80717571D01*
X66570497Y-80572428D01*
X66497925Y-80499857D01*
X65119068Y-81806142D02*
X66643068Y-82314142D01*
X65119068Y-82822142D01*
X61735788Y-85180714D02*
X60211788Y-85180714D01*
X60211788Y-85543571D01*
X60284360Y-85761285D01*
X60429502Y-85906428D01*
X60574645Y-85979000D01*
X60864931Y-86051571D01*
X61082645Y-86051571D01*
X61372931Y-85979000D01*
X61518074Y-85906428D01*
X61663217Y-85761285D01*
X61735788Y-85543571D01*
X61735788Y-85180714D01*
X61735788Y-87575571D02*
X61010074Y-87067571D01*
X61735788Y-86704714D02*
X60211788Y-86704714D01*
X60211788Y-87285285D01*
X60284360Y-87430428D01*
X60356931Y-87503000D01*
X60502074Y-87575571D01*
X60719788Y-87575571D01*
X60864931Y-87503000D01*
X60937502Y-87430428D01*
X61010074Y-87285285D01*
X61010074Y-86704714D01*
X60211788Y-88011000D02*
X61735788Y-88519000D01*
X60211788Y-89027000D01*
X64116857Y-85507285D02*
X64189428Y-85725000D01*
X64189428Y-86087857D01*
X64116857Y-86233000D01*
X64044285Y-86305571D01*
X63899142Y-86378142D01*
X63754000Y-86378142D01*
X63608857Y-86305571D01*
X63536285Y-86233000D01*
X63463714Y-86087857D01*
X63391142Y-85797571D01*
X63318571Y-85652428D01*
X63246000Y-85579857D01*
X63100857Y-85507285D01*
X62955714Y-85507285D01*
X62810571Y-85579857D01*
X62738000Y-85652428D01*
X62665428Y-85797571D01*
X62665428Y-86160428D01*
X62738000Y-86378142D01*
X64189428Y-87031285D02*
X63173428Y-87031285D01*
X62665428Y-87031285D02*
X62738000Y-86958714D01*
X62810571Y-87031285D01*
X62738000Y-87103857D01*
X62665428Y-87031285D01*
X62810571Y-87031285D01*
X63173428Y-88410142D02*
X64407142Y-88410142D01*
X64552285Y-88337571D01*
X64624857Y-88265000D01*
X64697428Y-88119857D01*
X64697428Y-87902142D01*
X64624857Y-87757000D01*
X64116857Y-88410142D02*
X64189428Y-88265000D01*
X64189428Y-87974714D01*
X64116857Y-87829571D01*
X64044285Y-87757000D01*
X63899142Y-87684428D01*
X63463714Y-87684428D01*
X63318571Y-87757000D01*
X63246000Y-87829571D01*
X63173428Y-87974714D01*
X63173428Y-88265000D01*
X63246000Y-88410142D01*
X66570497Y-85362142D02*
X66643068Y-85579857D01*
X66643068Y-85942714D01*
X66570497Y-86087857D01*
X66497925Y-86160428D01*
X66352782Y-86233000D01*
X66207640Y-86233000D01*
X66062497Y-86160428D01*
X65989925Y-86087857D01*
X65917354Y-85942714D01*
X65844782Y-85652428D01*
X65772211Y-85507285D01*
X65699640Y-85434714D01*
X65554497Y-85362142D01*
X65409354Y-85362142D01*
X65264211Y-85434714D01*
X65191640Y-85507285D01*
X65119068Y-85652428D01*
X65119068Y-86015285D01*
X65191640Y-86233000D01*
X65627068Y-86741000D02*
X66643068Y-87103857D01*
X65627068Y-87466714D02*
X66643068Y-87103857D01*
X67005925Y-86958714D01*
X67078497Y-86886142D01*
X67151068Y-86741000D01*
X66570497Y-87974714D02*
X66643068Y-88119857D01*
X66643068Y-88410142D01*
X66570497Y-88555285D01*
X66425354Y-88627857D01*
X66352782Y-88627857D01*
X66207640Y-88555285D01*
X66135068Y-88410142D01*
X66135068Y-88192428D01*
X66062497Y-88047285D01*
X65917354Y-87974714D01*
X65844782Y-87974714D01*
X65699640Y-88047285D01*
X65627068Y-88192428D01*
X65627068Y-88410142D01*
X65699640Y-88555285D01*
X68707000Y-94062005D02*
X68779571Y-94134577D01*
X68997285Y-94207148D01*
X69142428Y-94207148D01*
X69360142Y-94134577D01*
X69505285Y-93989434D01*
X69577857Y-93844291D01*
X69650428Y-93554005D01*
X69650428Y-93336291D01*
X69577857Y-93046005D01*
X69505285Y-92900862D01*
X69360142Y-92755720D01*
X69142428Y-92683148D01*
X68997285Y-92683148D01*
X68779571Y-92755720D01*
X68707000Y-92828291D01*
X68126428Y-94134577D02*
X67908714Y-94207148D01*
X67545857Y-94207148D01*
X67400714Y-94134577D01*
X67328142Y-94062005D01*
X67255571Y-93916862D01*
X67255571Y-93771720D01*
X67328142Y-93626577D01*
X67400714Y-93554005D01*
X67545857Y-93481434D01*
X67836142Y-93408862D01*
X67981285Y-93336291D01*
X68053857Y-93263720D01*
X68126428Y-93118577D01*
X68126428Y-92973434D01*
X68053857Y-92828291D01*
X67981285Y-92755720D01*
X67836142Y-92683148D01*
X67473285Y-92683148D01*
X67255571Y-92755720D01*
X66021857Y-94134577D02*
X66167000Y-94207148D01*
X66457285Y-94207148D01*
X66602428Y-94134577D01*
X66675000Y-93989434D01*
X66675000Y-93408862D01*
X66602428Y-93263720D01*
X66457285Y-93191148D01*
X66167000Y-93191148D01*
X66021857Y-93263720D01*
X65949285Y-93408862D01*
X65949285Y-93554005D01*
X66675000Y-93699148D01*
X65078428Y-94207148D02*
X65223571Y-94134577D01*
X65296142Y-93989434D01*
X65296142Y-92683148D01*
X64207571Y-92683148D02*
X64062428Y-92683148D01*
X63917285Y-92755720D01*
X63844714Y-92828291D01*
X63772142Y-92973434D01*
X63699571Y-93263720D01*
X63699571Y-93626577D01*
X63772142Y-93916862D01*
X63844714Y-94062005D01*
X63917285Y-94134577D01*
X64062428Y-94207148D01*
X64207571Y-94207148D01*
X64352714Y-94134577D01*
X64425285Y-94062005D01*
X64497857Y-93916862D01*
X64570428Y-93626577D01*
X64570428Y-93263720D01*
X64497857Y-92973434D01*
X64425285Y-92828291D01*
X64352714Y-92755720D01*
X64207571Y-92683148D01*
X68707000Y-96515645D02*
X68779571Y-96588217D01*
X68997285Y-96660788D01*
X69142428Y-96660788D01*
X69360142Y-96588217D01*
X69505285Y-96443074D01*
X69577857Y-96297931D01*
X69650428Y-96007645D01*
X69650428Y-95789931D01*
X69577857Y-95499645D01*
X69505285Y-95354502D01*
X69360142Y-95209360D01*
X69142428Y-95136788D01*
X68997285Y-95136788D01*
X68779571Y-95209360D01*
X68707000Y-95281931D01*
X68126428Y-96588217D02*
X67908714Y-96660788D01*
X67545857Y-96660788D01*
X67400714Y-96588217D01*
X67328142Y-96515645D01*
X67255571Y-96370502D01*
X67255571Y-96225360D01*
X67328142Y-96080217D01*
X67400714Y-96007645D01*
X67545857Y-95935074D01*
X67836142Y-95862502D01*
X67981285Y-95789931D01*
X68053857Y-95717360D01*
X68126428Y-95572217D01*
X68126428Y-95427074D01*
X68053857Y-95281931D01*
X67981285Y-95209360D01*
X67836142Y-95136788D01*
X67473285Y-95136788D01*
X67255571Y-95209360D01*
X66021857Y-96588217D02*
X66167000Y-96660788D01*
X66457285Y-96660788D01*
X66602428Y-96588217D01*
X66675000Y-96443074D01*
X66675000Y-95862502D01*
X66602428Y-95717360D01*
X66457285Y-95644788D01*
X66167000Y-95644788D01*
X66021857Y-95717360D01*
X65949285Y-95862502D01*
X65949285Y-96007645D01*
X66675000Y-96152788D01*
X65078428Y-96660788D02*
X65223571Y-96588217D01*
X65296142Y-96443074D01*
X65296142Y-95136788D01*
X63699571Y-96660788D02*
X64570428Y-96660788D01*
X64135000Y-96660788D02*
X64135000Y-95136788D01*
X64280142Y-95354502D01*
X64425285Y-95499645D01*
X64570428Y-95572217D01*
X68707000Y-98969285D02*
X68779571Y-99041857D01*
X68997285Y-99114428D01*
X69142428Y-99114428D01*
X69360142Y-99041857D01*
X69505285Y-98896714D01*
X69577857Y-98751571D01*
X69650428Y-98461285D01*
X69650428Y-98243571D01*
X69577857Y-97953285D01*
X69505285Y-97808142D01*
X69360142Y-97663000D01*
X69142428Y-97590428D01*
X68997285Y-97590428D01*
X68779571Y-97663000D01*
X68707000Y-97735571D01*
X68126428Y-99041857D02*
X67908714Y-99114428D01*
X67545857Y-99114428D01*
X67400714Y-99041857D01*
X67328142Y-98969285D01*
X67255571Y-98824142D01*
X67255571Y-98679000D01*
X67328142Y-98533857D01*
X67400714Y-98461285D01*
X67545857Y-98388714D01*
X67836142Y-98316142D01*
X67981285Y-98243571D01*
X68053857Y-98171000D01*
X68126428Y-98025857D01*
X68126428Y-97880714D01*
X68053857Y-97735571D01*
X67981285Y-97663000D01*
X67836142Y-97590428D01*
X67473285Y-97590428D01*
X67255571Y-97663000D01*
X66021857Y-99041857D02*
X66167000Y-99114428D01*
X66457285Y-99114428D01*
X66602428Y-99041857D01*
X66675000Y-98896714D01*
X66675000Y-98316142D01*
X66602428Y-98171000D01*
X66457285Y-98098428D01*
X66167000Y-98098428D01*
X66021857Y-98171000D01*
X65949285Y-98316142D01*
X65949285Y-98461285D01*
X66675000Y-98606428D01*
X65078428Y-99114428D02*
X65223571Y-99041857D01*
X65296142Y-98896714D01*
X65296142Y-97590428D01*
X64570428Y-97735571D02*
X64497857Y-97663000D01*
X64352714Y-97590428D01*
X63989857Y-97590428D01*
X63844714Y-97663000D01*
X63772142Y-97735571D01*
X63699571Y-97880714D01*
X63699571Y-98025857D01*
X63772142Y-98243571D01*
X64643000Y-99114428D01*
X63699571Y-99114428D01*
X68670714Y-101568068D02*
X68670714Y-100044068D01*
X67799857Y-101568068D01*
X67799857Y-100044068D01*
X65985571Y-99971497D02*
X67291857Y-101930925D01*
X64606714Y-101568068D02*
X65114714Y-100842354D01*
X65477571Y-101568068D02*
X65477571Y-100044068D01*
X64897000Y-100044068D01*
X64751857Y-100116640D01*
X64679285Y-100189211D01*
X64606714Y-100334354D01*
X64606714Y-100552068D01*
X64679285Y-100697211D01*
X64751857Y-100769782D01*
X64897000Y-100842354D01*
X65477571Y-100842354D01*
X68815857Y-102497708D02*
X67945000Y-102497708D01*
X68380428Y-104021708D02*
X68380428Y-102497708D01*
X66856428Y-103949137D02*
X67001571Y-104021708D01*
X67291857Y-104021708D01*
X67437000Y-103949137D01*
X67509571Y-103803994D01*
X67509571Y-103223422D01*
X67437000Y-103078280D01*
X67291857Y-103005708D01*
X67001571Y-103005708D01*
X66856428Y-103078280D01*
X66783857Y-103223422D01*
X66783857Y-103368565D01*
X67509571Y-103513708D01*
X66203285Y-103949137D02*
X66058142Y-104021708D01*
X65767857Y-104021708D01*
X65622714Y-103949137D01*
X65550142Y-103803994D01*
X65550142Y-103731422D01*
X65622714Y-103586280D01*
X65767857Y-103513708D01*
X65985571Y-103513708D01*
X66130714Y-103441137D01*
X66203285Y-103295994D01*
X66203285Y-103223422D01*
X66130714Y-103078280D01*
X65985571Y-103005708D01*
X65767857Y-103005708D01*
X65622714Y-103078280D01*
X65114714Y-103005708D02*
X64534142Y-103005708D01*
X64897000Y-102497708D02*
X64897000Y-103803994D01*
X64824428Y-103949137D01*
X64679285Y-104021708D01*
X64534142Y-104021708D01*
X67545857Y-73079428D02*
X67545857Y-71555428D01*
X67183000Y-71555428D01*
X66965285Y-71628000D01*
X66820142Y-71773142D01*
X66747571Y-71918285D01*
X66675000Y-72208571D01*
X66675000Y-72426285D01*
X66747571Y-72716571D01*
X66820142Y-72861714D01*
X66965285Y-73006857D01*
X67183000Y-73079428D01*
X67545857Y-73079428D01*
X65151000Y-72934285D02*
X65223571Y-73006857D01*
X65441285Y-73079428D01*
X65586428Y-73079428D01*
X65804142Y-73006857D01*
X65949285Y-72861714D01*
X66021857Y-72716571D01*
X66094428Y-72426285D01*
X66094428Y-72208571D01*
X66021857Y-71918285D01*
X65949285Y-71773142D01*
X65804142Y-71628000D01*
X65586428Y-71555428D01*
X65441285Y-71555428D01*
X65223571Y-71628000D01*
X65151000Y-71700571D01*
X63627000Y-72934285D02*
X63699571Y-73006857D01*
X63917285Y-73079428D01*
X64062428Y-73079428D01*
X64280142Y-73006857D01*
X64425285Y-72861714D01*
X64497857Y-72716571D01*
X64570428Y-72426285D01*
X64570428Y-72208571D01*
X64497857Y-71918285D01*
X64425285Y-71773142D01*
X64280142Y-71628000D01*
X64062428Y-71555428D01*
X63917285Y-71555428D01*
X63699571Y-71628000D01*
X63627000Y-71700571D01*
X61522428Y-71555428D02*
X61232142Y-71555428D01*
X61087000Y-71628000D01*
X60941857Y-71773142D01*
X60869285Y-72063428D01*
X60869285Y-72571428D01*
X60941857Y-72861714D01*
X61087000Y-73006857D01*
X61232142Y-73079428D01*
X61522428Y-73079428D01*
X61667571Y-73006857D01*
X61812714Y-72861714D01*
X61885285Y-72571428D01*
X61885285Y-72063428D01*
X61812714Y-71773142D01*
X61667571Y-71628000D01*
X61522428Y-71555428D01*
X60216142Y-71555428D02*
X60216142Y-72789142D01*
X60143571Y-72934285D01*
X60071000Y-73006857D01*
X59925857Y-73079428D01*
X59635571Y-73079428D01*
X59490428Y-73006857D01*
X59417857Y-72934285D01*
X59345285Y-72789142D01*
X59345285Y-71555428D01*
X58837285Y-71555428D02*
X57966428Y-71555428D01*
X58401857Y-73079428D02*
X58401857Y-71555428D01*
X66638714Y-62284428D02*
X66638714Y-60760428D01*
X66058142Y-60760428D01*
X65913000Y-60833000D01*
X65840428Y-60905571D01*
X65767857Y-61050714D01*
X65767857Y-61268428D01*
X65840428Y-61413571D01*
X65913000Y-61486142D01*
X66058142Y-61558714D01*
X66638714Y-61558714D01*
X65259857Y-60760428D02*
X64897000Y-62284428D01*
X64606714Y-61195857D01*
X64316428Y-62284428D01*
X63953571Y-60760428D01*
X62502142Y-62284428D02*
X63010142Y-61558714D01*
X63373000Y-62284428D02*
X63373000Y-60760428D01*
X62792428Y-60760428D01*
X62647285Y-60833000D01*
X62574714Y-60905571D01*
X62502142Y-61050714D01*
X62502142Y-61268428D01*
X62574714Y-61413571D01*
X62647285Y-61486142D01*
X62792428Y-61558714D01*
X63373000Y-61558714D01*
X60687857Y-62284428D02*
X60687857Y-60760428D01*
X59962142Y-62284428D02*
X59962142Y-60760428D01*
X59091285Y-62284428D01*
X59091285Y-60760428D01*
X46228000Y-131368800D02*
X46228000Y-120091200D01*
X62865000Y-120091200D02*
X46228000Y-120091200D01*
X62865000Y-131368800D02*
X62865000Y-120091200D01*
X46228000Y-131368800D02*
X62865000Y-131368800D01*
X46228000Y-119303800D02*
X62865000Y-119303800D01*
X62865000Y-119303800D02*
X62865000Y-108026200D01*
X62865000Y-108026200D02*
X46228000Y-108026200D01*
X46228000Y-119303800D02*
X46228000Y-108026200D01*
M02*
