M48
; DRILL file {KiCad (5.99.0-823-ga085f82be)} date Friday, May 08, 2020 at 04:57:06 PM
; FORMAT={-:-/ absolute / metric / decimal}
; #@! TF.CreationDate,2020-05-08T16:57:06-07:00
; #@! TF.GenerationSoftware,Kicad,Pcbnew,(5.99.0-823-ga085f82be)
FMAT,2
METRIC
T1C0.400
T2C0.800
T3C0.889
T4C0.900
T5C1.000
T6C1.100
T7C1.200
T8C1.400
T9C2.000
T10C2.100
T11C3.200
T12C3.200
%
G90
G05
T1
X60.96Y-135.89
X62.865Y-134.62
X63.5Y-86.36
X64.135Y-132.715
X64.77Y-54.61
X65.405Y-69.215
X65.405Y-131.445
X66.04Y-104.775
X66.675Y-115.57
X67.31Y-59.69
X67.31Y-130.81
X67.945Y-80.645
X67.945Y-82.55
X67.945Y-88.265
X67.945Y-134.328
X68.237Y-106.045
X68.294Y-86.646
X69.485Y-99.06
X71.12Y-116.205
X71.755Y-104.902
X72.39Y-92.075
X72.39Y-107.315
X74.295Y-64.77
X74.295Y-66.04
X74.295Y-67.31
X74.295Y-69.85
X74.295Y-71.12
X74.295Y-72.39
X74.295Y-97.155
X74.295Y-98.425
X74.295Y-99.695
X74.295Y-100.965
X74.295Y-102.235
X75.565Y-64.77
X75.565Y-66.04
X75.565Y-67.31
X75.565Y-69.85
X75.565Y-71.12
X75.565Y-72.39
X75.565Y-97.155
X75.565Y-98.425
X75.565Y-99.695
X75.565Y-100.965
X75.565Y-102.235
X75.565Y-116.84
X76.835Y-64.77
X76.835Y-66.04
X76.835Y-67.31
X76.835Y-69.85
X76.835Y-71.12
X76.835Y-72.39
X76.835Y-97.155
X76.835Y-98.425
X76.835Y-99.695
X76.835Y-100.965
X76.835Y-102.235
X78.105Y-64.77
X78.105Y-66.04
X78.105Y-67.31
X78.105Y-69.85
X78.105Y-71.12
X78.105Y-72.39
X78.105Y-97.155
X78.105Y-98.425
X78.105Y-99.695
X78.105Y-100.965
X78.105Y-102.235
X78.74Y-50.165
X78.74Y-109.855
X78.74Y-121.92
X79.375Y-93.345
X82.55Y-64.77
X82.55Y-66.04
X82.55Y-67.31
X82.55Y-69.85
X82.55Y-71.12
X82.55Y-72.39
X82.55Y-97.155
X82.55Y-98.425
X82.55Y-99.695
X82.55Y-100.965
X82.55Y-102.235
X83.185Y-110.49
X83.185Y-120.65
X83.362Y-78.69
X83.82Y-64.77
X83.82Y-66.04
X83.82Y-67.31
X83.82Y-69.85
X83.82Y-71.12
X83.82Y-72.39
X83.82Y-97.155
X83.82Y-98.425
X83.82Y-99.695
X83.82Y-100.965
X83.82Y-102.235
X83.82Y-118.11
X84.505Y-78.69
X84.507Y-121.166
X85.09Y-64.77
X85.09Y-66.04
X85.09Y-67.31
X85.09Y-69.85
X85.09Y-71.12
X85.09Y-72.39
X85.09Y-97.155
X85.09Y-98.425
X85.09Y-99.695
X85.09Y-100.965
X85.09Y-102.235
X85.09Y-123.825
X85.521Y-78.69
X86.36Y-64.77
X86.36Y-66.04
X86.36Y-67.31
X86.36Y-69.85
X86.36Y-71.12
X86.36Y-72.39
X86.36Y-97.155
X86.36Y-98.425
X86.36Y-99.695
X86.36Y-100.965
X86.36Y-102.235
X87.265Y-126.365
X87.63Y-93.345
X88.265Y-102.235
X88.265Y-106.045
X88.265Y-126.365
X89.535Y-77.851
X90.17Y-76.835
X90.17Y-106.045
X90.678Y-77.851
X90.805Y-98.425
X91.221Y-127.635
X91.221Y-133.985
X91.273Y-137.379
X91.61Y-122.385
X92.075Y-125.095
X92.71Y-60.325
X92.71Y-138.43
X92.996Y-93.631
X93.345Y-103.505
X93.345Y-120.015
X93.345Y-122.971
X93.345Y-128.905
X93.945Y-95.885
X93.98Y-59.055
X93.98Y-100.965
X94.615Y-55.88
X95.25Y-107.95
X95.885Y-120.015
X96.52Y-60.325
X96.52Y-97.79
X96.52Y-126.365
X96.52Y-136.525
X97.155Y-68.58
X97.155Y-91.685
X97.155Y-109.22
X97.155Y-117.475
X97.79Y-127.635
X97.79Y-135.89
X100.33Y-119.38
X100.33Y-125.095
X100.965Y-97.79
X100.965Y-110.49
X100.965Y-118.11
X101.6Y-102.235
X101.6Y-139.7
X102.235Y-100.965
X102.454Y-135.255
X102.87Y-93.98
X103.505Y-128.905
X107.315Y-111.344
X107.315Y-119.38
X108.975Y-93.59
X109.22Y-97.155
X109.22Y-109.22
X109.22Y-113.03
X109.855Y-130.81
X110.05Y-57.15
X110.49Y-138.43
X111.125Y-128.27
X111.76Y-105.41
X112.395Y-137.16
X113.03Y-132.08
X113.925Y-51.81
X114.3Y-126.365
X115.57Y-133.35
X117.475Y-109.22
X118.11Y-139.7
X118.745Y-127.635
X118.745Y-128.905
X119.38Y-106.68
X120.015Y-126.365
X120.65Y-107.95
X120.65Y-118.11
X120.65Y-120.65
X120.777Y-130.175
X121.48Y-49.53
X123.825Y-111.76
X123.825Y-114.3
X125.095Y-118.745
X125.095Y-121.92
X125.095Y-130.175
X127.635Y-102.87
X133.985Y-113.665
X135.255Y-109.22
X136.525Y-69.46
X136.525Y-116.205
X137.16Y-111.125
X142.875Y-81.28
T2
X52.705Y-93.345
X52.705Y-95.885
X52.705Y-98.425
X52.705Y-100.965
X52.705Y-103.505
X60.325Y-93.345
X60.325Y-95.885
X60.325Y-98.425
X60.325Y-100.965
X60.325Y-103.505
X140.97Y-117.555
X140.97Y-122.555
X109.855Y-99.14
X109.855Y-104.14
T3
X59.055Y-111.76
X59.055Y-114.3
X61.595Y-113.03
X61.595Y-115.57
X59.055Y-123.825
X59.055Y-126.365
X61.595Y-125.095
X61.595Y-127.635
T4
X57.15Y-85.725
X57.15Y-88.265
X54.61Y-85.725
X54.61Y-88.265
X52.07Y-85.725
X52.07Y-88.265
X57.15Y-80.645
X57.15Y-83.185
X54.61Y-80.645
X54.61Y-83.185
X52.07Y-80.645
X52.07Y-83.185
T5
X97.155Y-80.645
X99.695Y-80.645
X102.235Y-80.645
X105.41Y-122.555
X105.41Y-125.095
X105.41Y-127.635
X105.41Y-130.175
X105.41Y-132.715
T6
X145.415Y-69.215
X145.415Y-72.615
X145.415Y-76.015
X149.115Y-70.915
X149.115Y-74.315
T7
X137.795Y-98.425
X145.295Y-98.425
X130.81Y-55.88
X138.31Y-55.88
T8
X55.245Y-59.055
X55.245Y-64.135
X55.245Y-69.215
X55.245Y-74.295
T9
X145.415Y-60.655
X145.415Y-84.455
T10
X119.38Y-64.135
X119.38Y-87.835
T11
X147.32Y-137.16
X147.32Y-48.26
X54.61Y-48.26
X54.61Y-137.16
T12
X52.705Y-109.855
X52.705Y-117.475
X52.705Y-121.92
X52.705Y-129.54
T0
M30
