G04 #@! TF.GenerationSoftware,KiCad,Pcbnew,(5.99.0-823-ga085f82be)*
G04 #@! TF.CreationDate,2020-05-08T16:56:45-07:00*
G04 #@! TF.ProjectId,DCC_Booster,4443435f-426f-46f7-9374-65722e6b6963,B*
G04 #@! TF.SameCoordinates,Original*
G04 #@! TF.FileFunction,Copper,L1,Top*
G04 #@! TF.FilePolarity,Positive*
%FSLAX46Y46*%
G04 Gerber Fmt 4.6, Leading zero omitted, Abs format (unit mm)*
G04 Created by KiCad (PCBNEW (5.99.0-823-ga085f82be)) date 2020-05-08 16:56:45*
%MOMM*%
%LPD*%
G04 APERTURE LIST*
%ADD10O,3.600000X2.080000*%
%ADD11C,1.397000*%
%ADD12C,3.606800*%
%ADD13C,2.999999*%
%ADD14R,5.800000X6.400000*%
%ADD15R,1.200000X2.200000*%
%ADD16R,0.700000X0.510000*%
%ADD17O,1.500000X2.300000*%
%ADD18R,1.500000X2.300000*%
%ADD19O,1.800000X1.800000*%
%ADD20R,1.800000X1.800000*%
%ADD21C,2.000000*%
%ADD22O,1.600000X1.600000*%
%ADD23R,1.600000X1.600000*%
%ADD24C,4.200000*%
%ADD25O,1.700000X1.700000*%
%ADD26R,1.700000X1.700000*%
%ADD27R,2.500000X1.800000*%
%ADD28R,1.200000X0.900000*%
%ADD29R,0.900000X1.200000*%
%ADD30C,1.800000*%
%ADD31R,1.800000X2.500000*%
%ADD32R,6.400000X5.800000*%
%ADD33R,2.200000X1.200000*%
%ADD34C,1.600000*%
%ADD35C,2.400000*%
%ADD36R,2.400000X2.400000*%
%ADD37C,0.800000*%
%ADD38C,0.508000*%
%ADD39C,0.304800*%
%ADD40C,2.540000*%
%ADD41C,2.032000*%
%ADD42C,1.270000*%
%ADD43C,1.016000*%
%ADD44C,0.254000*%
G04 APERTURE END LIST*
D10*
X55245000Y-74295000D03*
X55245000Y-69215000D03*
X55245000Y-64135000D03*
G04 #@! TA.AperFunction,ComponentPad*
G36*
X56890671Y-58034030D02*
G01*
X56971777Y-58088223D01*
X57025970Y-58169329D01*
X57045000Y-58264999D01*
X57045000Y-59845001D01*
X57025970Y-59940671D01*
X56971777Y-60021777D01*
X56890671Y-60075970D01*
X56795001Y-60095000D01*
X53694999Y-60095000D01*
X53599329Y-60075970D01*
X53518223Y-60021777D01*
X53464030Y-59940671D01*
X53445000Y-59845001D01*
X53445000Y-58264999D01*
X53464030Y-58169329D01*
X53518223Y-58088223D01*
X53599329Y-58034030D01*
X53694999Y-58015000D01*
X56795001Y-58015000D01*
X56890671Y-58034030D01*
G37*
G04 #@! TD.AperFunction*
D11*
X61595000Y-127635000D03*
X59055000Y-126365000D03*
X61595000Y-125095000D03*
X59055000Y-123825000D03*
D12*
X52705000Y-121920000D03*
X52705000Y-129540000D03*
D11*
X61595000Y-115570000D03*
X59055000Y-114300000D03*
X61595000Y-113030000D03*
X59055000Y-111760000D03*
D12*
X52705000Y-109855000D03*
X52705000Y-117475000D03*
G04 #@! TA.AperFunction,SMDPad,CuDef*
G36*
X132382671Y-124541030D02*
G01*
X132463777Y-124595223D01*
X132517970Y-124676329D01*
X132537000Y-124771999D01*
X132537000Y-125672001D01*
X132517970Y-125767671D01*
X132463777Y-125848777D01*
X132382671Y-125902970D01*
X132287001Y-125922000D01*
X131636999Y-125922000D01*
X131541329Y-125902970D01*
X131460223Y-125848777D01*
X131406030Y-125767671D01*
X131387000Y-125672001D01*
X131387000Y-124771999D01*
X131406030Y-124676329D01*
X131460223Y-124595223D01*
X131541329Y-124541030D01*
X131636999Y-124522000D01*
X132287001Y-124522000D01*
X132382671Y-124541030D01*
G37*
G04 #@! TD.AperFunction*
G04 #@! TA.AperFunction,SMDPad,CuDef*
G36*
X130332671Y-124541030D02*
G01*
X130413777Y-124595223D01*
X130467970Y-124676329D01*
X130487000Y-124771999D01*
X130487000Y-125672001D01*
X130467970Y-125767671D01*
X130413777Y-125848777D01*
X130332671Y-125902970D01*
X130237001Y-125922000D01*
X129586999Y-125922000D01*
X129491329Y-125902970D01*
X129410223Y-125848777D01*
X129356030Y-125767671D01*
X129337000Y-125672001D01*
X129337000Y-124771999D01*
X129356030Y-124676329D01*
X129410223Y-124595223D01*
X129491329Y-124541030D01*
X129586999Y-124522000D01*
X130237001Y-124522000D01*
X130332671Y-124541030D01*
G37*
G04 #@! TD.AperFunction*
G04 #@! TA.AperFunction,SMDPad,CuDef*
G36*
X101394671Y-105237030D02*
G01*
X101475777Y-105291223D01*
X101529970Y-105372329D01*
X101549000Y-105467999D01*
X101549000Y-106368001D01*
X101529970Y-106463671D01*
X101475777Y-106544777D01*
X101394671Y-106598970D01*
X101299001Y-106618000D01*
X100648999Y-106618000D01*
X100553329Y-106598970D01*
X100472223Y-106544777D01*
X100418030Y-106463671D01*
X100399000Y-106368001D01*
X100399000Y-105467999D01*
X100418030Y-105372329D01*
X100472223Y-105291223D01*
X100553329Y-105237030D01*
X100648999Y-105218000D01*
X101299001Y-105218000D01*
X101394671Y-105237030D01*
G37*
G04 #@! TD.AperFunction*
G04 #@! TA.AperFunction,SMDPad,CuDef*
G36*
X99344671Y-105237030D02*
G01*
X99425777Y-105291223D01*
X99479970Y-105372329D01*
X99499000Y-105467999D01*
X99499000Y-106368001D01*
X99479970Y-106463671D01*
X99425777Y-106544777D01*
X99344671Y-106598970D01*
X99249001Y-106618000D01*
X98598999Y-106618000D01*
X98503329Y-106598970D01*
X98422223Y-106544777D01*
X98368030Y-106463671D01*
X98349000Y-106368001D01*
X98349000Y-105467999D01*
X98368030Y-105372329D01*
X98422223Y-105291223D01*
X98503329Y-105237030D01*
X98598999Y-105218000D01*
X99249001Y-105218000D01*
X99344671Y-105237030D01*
G37*
G04 #@! TD.AperFunction*
G04 #@! TA.AperFunction,SMDPad,CuDef*
G36*
X144690671Y-110324030D02*
G01*
X144771777Y-110378223D01*
X144825970Y-110459329D01*
X144845000Y-110554999D01*
X144845000Y-111205001D01*
X144825970Y-111300671D01*
X144771777Y-111381777D01*
X144690671Y-111435970D01*
X144595001Y-111455000D01*
X143694999Y-111455000D01*
X143599329Y-111435970D01*
X143518223Y-111381777D01*
X143464030Y-111300671D01*
X143445000Y-111205001D01*
X143445000Y-110554999D01*
X143464030Y-110459329D01*
X143518223Y-110378223D01*
X143599329Y-110324030D01*
X143694999Y-110305000D01*
X144595001Y-110305000D01*
X144690671Y-110324030D01*
G37*
G04 #@! TD.AperFunction*
G04 #@! TA.AperFunction,SMDPad,CuDef*
G36*
X144690671Y-108274030D02*
G01*
X144771777Y-108328223D01*
X144825970Y-108409329D01*
X144845000Y-108504999D01*
X144845000Y-109155001D01*
X144825970Y-109250671D01*
X144771777Y-109331777D01*
X144690671Y-109385970D01*
X144595001Y-109405000D01*
X143694999Y-109405000D01*
X143599329Y-109385970D01*
X143518223Y-109331777D01*
X143464030Y-109250671D01*
X143445000Y-109155001D01*
X143445000Y-108504999D01*
X143464030Y-108409329D01*
X143518223Y-108328223D01*
X143599329Y-108274030D01*
X143694999Y-108255000D01*
X144595001Y-108255000D01*
X144690671Y-108274030D01*
G37*
G04 #@! TD.AperFunction*
G04 #@! TA.AperFunction,SMDPad,CuDef*
G36*
X115480671Y-93669030D02*
G01*
X115561777Y-93723223D01*
X115615970Y-93804329D01*
X115635000Y-93899999D01*
X115635000Y-94550001D01*
X115615970Y-94645671D01*
X115561777Y-94726777D01*
X115480671Y-94780970D01*
X115385001Y-94800000D01*
X114484999Y-94800000D01*
X114389329Y-94780970D01*
X114308223Y-94726777D01*
X114254030Y-94645671D01*
X114235000Y-94550001D01*
X114235000Y-93899999D01*
X114254030Y-93804329D01*
X114308223Y-93723223D01*
X114389329Y-93669030D01*
X114484999Y-93650000D01*
X115385001Y-93650000D01*
X115480671Y-93669030D01*
G37*
G04 #@! TD.AperFunction*
G04 #@! TA.AperFunction,SMDPad,CuDef*
G36*
X115480671Y-95719030D02*
G01*
X115561777Y-95773223D01*
X115615970Y-95854329D01*
X115635000Y-95949999D01*
X115635000Y-96600001D01*
X115615970Y-96695671D01*
X115561777Y-96776777D01*
X115480671Y-96830970D01*
X115385001Y-96850000D01*
X114484999Y-96850000D01*
X114389329Y-96830970D01*
X114308223Y-96776777D01*
X114254030Y-96695671D01*
X114235000Y-96600001D01*
X114235000Y-95949999D01*
X114254030Y-95854329D01*
X114308223Y-95773223D01*
X114389329Y-95719030D01*
X114484999Y-95700000D01*
X115385001Y-95700000D01*
X115480671Y-95719030D01*
G37*
G04 #@! TD.AperFunction*
D13*
X145415000Y-60655000D03*
X145415000Y-84455000D03*
D14*
X76200000Y-65160000D03*
D15*
X73920000Y-58860000D03*
X78480000Y-58860000D03*
D14*
X76200000Y-99450000D03*
D15*
X73920000Y-93150000D03*
X78480000Y-93150000D03*
D14*
X84455000Y-65160000D03*
D15*
X82175000Y-58860000D03*
X86735000Y-58860000D03*
D14*
X84455000Y-99450000D03*
D15*
X82175000Y-93150000D03*
X86735000Y-93150000D03*
G04 #@! TA.AperFunction,SMDPad,CuDef*
G36*
X131757403Y-114646418D02*
G01*
X131806066Y-114678934D01*
X131838582Y-114727597D01*
X131850000Y-114785000D01*
X131850000Y-115085000D01*
X131838582Y-115142403D01*
X131806066Y-115191066D01*
X131757403Y-115223582D01*
X131700000Y-115235000D01*
X130050000Y-115235000D01*
X129992597Y-115223582D01*
X129943934Y-115191066D01*
X129911418Y-115142403D01*
X129900000Y-115085000D01*
X129900000Y-114785000D01*
X129911418Y-114727597D01*
X129943934Y-114678934D01*
X129992597Y-114646418D01*
X130050000Y-114635000D01*
X131700000Y-114635000D01*
X131757403Y-114646418D01*
G37*
G04 #@! TD.AperFunction*
G04 #@! TA.AperFunction,SMDPad,CuDef*
G36*
X131757403Y-113376418D02*
G01*
X131806066Y-113408934D01*
X131838582Y-113457597D01*
X131850000Y-113515000D01*
X131850000Y-113815000D01*
X131838582Y-113872403D01*
X131806066Y-113921066D01*
X131757403Y-113953582D01*
X131700000Y-113965000D01*
X130050000Y-113965000D01*
X129992597Y-113953582D01*
X129943934Y-113921066D01*
X129911418Y-113872403D01*
X129900000Y-113815000D01*
X129900000Y-113515000D01*
X129911418Y-113457597D01*
X129943934Y-113408934D01*
X129992597Y-113376418D01*
X130050000Y-113365000D01*
X131700000Y-113365000D01*
X131757403Y-113376418D01*
G37*
G04 #@! TD.AperFunction*
G04 #@! TA.AperFunction,SMDPad,CuDef*
G36*
X131757403Y-112106418D02*
G01*
X131806066Y-112138934D01*
X131838582Y-112187597D01*
X131850000Y-112245000D01*
X131850000Y-112545000D01*
X131838582Y-112602403D01*
X131806066Y-112651066D01*
X131757403Y-112683582D01*
X131700000Y-112695000D01*
X130050000Y-112695000D01*
X129992597Y-112683582D01*
X129943934Y-112651066D01*
X129911418Y-112602403D01*
X129900000Y-112545000D01*
X129900000Y-112245000D01*
X129911418Y-112187597D01*
X129943934Y-112138934D01*
X129992597Y-112106418D01*
X130050000Y-112095000D01*
X131700000Y-112095000D01*
X131757403Y-112106418D01*
G37*
G04 #@! TD.AperFunction*
G04 #@! TA.AperFunction,SMDPad,CuDef*
G36*
X131757403Y-110836418D02*
G01*
X131806066Y-110868934D01*
X131838582Y-110917597D01*
X131850000Y-110975000D01*
X131850000Y-111275000D01*
X131838582Y-111332403D01*
X131806066Y-111381066D01*
X131757403Y-111413582D01*
X131700000Y-111425000D01*
X130050000Y-111425000D01*
X129992597Y-111413582D01*
X129943934Y-111381066D01*
X129911418Y-111332403D01*
X129900000Y-111275000D01*
X129900000Y-110975000D01*
X129911418Y-110917597D01*
X129943934Y-110868934D01*
X129992597Y-110836418D01*
X130050000Y-110825000D01*
X131700000Y-110825000D01*
X131757403Y-110836418D01*
G37*
G04 #@! TD.AperFunction*
G04 #@! TA.AperFunction,SMDPad,CuDef*
G36*
X136707403Y-110836418D02*
G01*
X136756066Y-110868934D01*
X136788582Y-110917597D01*
X136800000Y-110975000D01*
X136800000Y-111275000D01*
X136788582Y-111332403D01*
X136756066Y-111381066D01*
X136707403Y-111413582D01*
X136650000Y-111425000D01*
X135000000Y-111425000D01*
X134942597Y-111413582D01*
X134893934Y-111381066D01*
X134861418Y-111332403D01*
X134850000Y-111275000D01*
X134850000Y-110975000D01*
X134861418Y-110917597D01*
X134893934Y-110868934D01*
X134942597Y-110836418D01*
X135000000Y-110825000D01*
X136650000Y-110825000D01*
X136707403Y-110836418D01*
G37*
G04 #@! TD.AperFunction*
G04 #@! TA.AperFunction,SMDPad,CuDef*
G36*
X136707403Y-112106418D02*
G01*
X136756066Y-112138934D01*
X136788582Y-112187597D01*
X136800000Y-112245000D01*
X136800000Y-112545000D01*
X136788582Y-112602403D01*
X136756066Y-112651066D01*
X136707403Y-112683582D01*
X136650000Y-112695000D01*
X135000000Y-112695000D01*
X134942597Y-112683582D01*
X134893934Y-112651066D01*
X134861418Y-112602403D01*
X134850000Y-112545000D01*
X134850000Y-112245000D01*
X134861418Y-112187597D01*
X134893934Y-112138934D01*
X134942597Y-112106418D01*
X135000000Y-112095000D01*
X136650000Y-112095000D01*
X136707403Y-112106418D01*
G37*
G04 #@! TD.AperFunction*
G04 #@! TA.AperFunction,SMDPad,CuDef*
G36*
X136707403Y-113376418D02*
G01*
X136756066Y-113408934D01*
X136788582Y-113457597D01*
X136800000Y-113515000D01*
X136800000Y-113815000D01*
X136788582Y-113872403D01*
X136756066Y-113921066D01*
X136707403Y-113953582D01*
X136650000Y-113965000D01*
X135000000Y-113965000D01*
X134942597Y-113953582D01*
X134893934Y-113921066D01*
X134861418Y-113872403D01*
X134850000Y-113815000D01*
X134850000Y-113515000D01*
X134861418Y-113457597D01*
X134893934Y-113408934D01*
X134942597Y-113376418D01*
X135000000Y-113365000D01*
X136650000Y-113365000D01*
X136707403Y-113376418D01*
G37*
G04 #@! TD.AperFunction*
G04 #@! TA.AperFunction,SMDPad,CuDef*
G36*
X136707403Y-114646418D02*
G01*
X136756066Y-114678934D01*
X136788582Y-114727597D01*
X136800000Y-114785000D01*
X136800000Y-115085000D01*
X136788582Y-115142403D01*
X136756066Y-115191066D01*
X136707403Y-115223582D01*
X136650000Y-115235000D01*
X135000000Y-115235000D01*
X134942597Y-115223582D01*
X134893934Y-115191066D01*
X134861418Y-115142403D01*
X134850000Y-115085000D01*
X134850000Y-114785000D01*
X134861418Y-114727597D01*
X134893934Y-114678934D01*
X134942597Y-114646418D01*
X135000000Y-114635000D01*
X136650000Y-114635000D01*
X136707403Y-114646418D01*
G37*
G04 #@! TD.AperFunction*
G04 #@! TA.AperFunction,SMDPad,CuDef*
G36*
X100642403Y-96231418D02*
G01*
X100691066Y-96263934D01*
X100723582Y-96312597D01*
X100735000Y-96370000D01*
X100735000Y-96670000D01*
X100723582Y-96727403D01*
X100691066Y-96776066D01*
X100642403Y-96808582D01*
X100585000Y-96820000D01*
X98935000Y-96820000D01*
X98877597Y-96808582D01*
X98828934Y-96776066D01*
X98796418Y-96727403D01*
X98785000Y-96670000D01*
X98785000Y-96370000D01*
X98796418Y-96312597D01*
X98828934Y-96263934D01*
X98877597Y-96231418D01*
X98935000Y-96220000D01*
X100585000Y-96220000D01*
X100642403Y-96231418D01*
G37*
G04 #@! TD.AperFunction*
G04 #@! TA.AperFunction,SMDPad,CuDef*
G36*
X100642403Y-94961418D02*
G01*
X100691066Y-94993934D01*
X100723582Y-95042597D01*
X100735000Y-95100000D01*
X100735000Y-95400000D01*
X100723582Y-95457403D01*
X100691066Y-95506066D01*
X100642403Y-95538582D01*
X100585000Y-95550000D01*
X98935000Y-95550000D01*
X98877597Y-95538582D01*
X98828934Y-95506066D01*
X98796418Y-95457403D01*
X98785000Y-95400000D01*
X98785000Y-95100000D01*
X98796418Y-95042597D01*
X98828934Y-94993934D01*
X98877597Y-94961418D01*
X98935000Y-94950000D01*
X100585000Y-94950000D01*
X100642403Y-94961418D01*
G37*
G04 #@! TD.AperFunction*
G04 #@! TA.AperFunction,SMDPad,CuDef*
G36*
X100642403Y-93691418D02*
G01*
X100691066Y-93723934D01*
X100723582Y-93772597D01*
X100735000Y-93830000D01*
X100735000Y-94130000D01*
X100723582Y-94187403D01*
X100691066Y-94236066D01*
X100642403Y-94268582D01*
X100585000Y-94280000D01*
X98935000Y-94280000D01*
X98877597Y-94268582D01*
X98828934Y-94236066D01*
X98796418Y-94187403D01*
X98785000Y-94130000D01*
X98785000Y-93830000D01*
X98796418Y-93772597D01*
X98828934Y-93723934D01*
X98877597Y-93691418D01*
X98935000Y-93680000D01*
X100585000Y-93680000D01*
X100642403Y-93691418D01*
G37*
G04 #@! TD.AperFunction*
G04 #@! TA.AperFunction,SMDPad,CuDef*
G36*
X100642403Y-92421418D02*
G01*
X100691066Y-92453934D01*
X100723582Y-92502597D01*
X100735000Y-92560000D01*
X100735000Y-92860000D01*
X100723582Y-92917403D01*
X100691066Y-92966066D01*
X100642403Y-92998582D01*
X100585000Y-93010000D01*
X98935000Y-93010000D01*
X98877597Y-92998582D01*
X98828934Y-92966066D01*
X98796418Y-92917403D01*
X98785000Y-92860000D01*
X98785000Y-92560000D01*
X98796418Y-92502597D01*
X98828934Y-92453934D01*
X98877597Y-92421418D01*
X98935000Y-92410000D01*
X100585000Y-92410000D01*
X100642403Y-92421418D01*
G37*
G04 #@! TD.AperFunction*
G04 #@! TA.AperFunction,SMDPad,CuDef*
G36*
X105592403Y-92421418D02*
G01*
X105641066Y-92453934D01*
X105673582Y-92502597D01*
X105685000Y-92560000D01*
X105685000Y-92860000D01*
X105673582Y-92917403D01*
X105641066Y-92966066D01*
X105592403Y-92998582D01*
X105535000Y-93010000D01*
X103885000Y-93010000D01*
X103827597Y-92998582D01*
X103778934Y-92966066D01*
X103746418Y-92917403D01*
X103735000Y-92860000D01*
X103735000Y-92560000D01*
X103746418Y-92502597D01*
X103778934Y-92453934D01*
X103827597Y-92421418D01*
X103885000Y-92410000D01*
X105535000Y-92410000D01*
X105592403Y-92421418D01*
G37*
G04 #@! TD.AperFunction*
G04 #@! TA.AperFunction,SMDPad,CuDef*
G36*
X105592403Y-93691418D02*
G01*
X105641066Y-93723934D01*
X105673582Y-93772597D01*
X105685000Y-93830000D01*
X105685000Y-94130000D01*
X105673582Y-94187403D01*
X105641066Y-94236066D01*
X105592403Y-94268582D01*
X105535000Y-94280000D01*
X103885000Y-94280000D01*
X103827597Y-94268582D01*
X103778934Y-94236066D01*
X103746418Y-94187403D01*
X103735000Y-94130000D01*
X103735000Y-93830000D01*
X103746418Y-93772597D01*
X103778934Y-93723934D01*
X103827597Y-93691418D01*
X103885000Y-93680000D01*
X105535000Y-93680000D01*
X105592403Y-93691418D01*
G37*
G04 #@! TD.AperFunction*
G04 #@! TA.AperFunction,SMDPad,CuDef*
G36*
X105592403Y-94961418D02*
G01*
X105641066Y-94993934D01*
X105673582Y-95042597D01*
X105685000Y-95100000D01*
X105685000Y-95400000D01*
X105673582Y-95457403D01*
X105641066Y-95506066D01*
X105592403Y-95538582D01*
X105535000Y-95550000D01*
X103885000Y-95550000D01*
X103827597Y-95538582D01*
X103778934Y-95506066D01*
X103746418Y-95457403D01*
X103735000Y-95400000D01*
X103735000Y-95100000D01*
X103746418Y-95042597D01*
X103778934Y-94993934D01*
X103827597Y-94961418D01*
X103885000Y-94950000D01*
X105535000Y-94950000D01*
X105592403Y-94961418D01*
G37*
G04 #@! TD.AperFunction*
G04 #@! TA.AperFunction,SMDPad,CuDef*
G36*
X105592403Y-96231418D02*
G01*
X105641066Y-96263934D01*
X105673582Y-96312597D01*
X105685000Y-96370000D01*
X105685000Y-96670000D01*
X105673582Y-96727403D01*
X105641066Y-96776066D01*
X105592403Y-96808582D01*
X105535000Y-96820000D01*
X103885000Y-96820000D01*
X103827597Y-96808582D01*
X103778934Y-96776066D01*
X103746418Y-96727403D01*
X103735000Y-96670000D01*
X103735000Y-96370000D01*
X103746418Y-96312597D01*
X103778934Y-96263934D01*
X103827597Y-96231418D01*
X103885000Y-96220000D01*
X105535000Y-96220000D01*
X105592403Y-96231418D01*
G37*
G04 #@! TD.AperFunction*
D16*
X86250000Y-124145000D03*
X86250000Y-126045000D03*
X83930000Y-126045000D03*
X83930000Y-125095000D03*
X83930000Y-124145000D03*
G04 #@! TA.AperFunction,SMDPad,CuDef*
G36*
X99877403Y-113376418D02*
G01*
X99926066Y-113408934D01*
X99958582Y-113457597D01*
X99970000Y-113515000D01*
X99970000Y-113815000D01*
X99958582Y-113872403D01*
X99926066Y-113921066D01*
X99877403Y-113953582D01*
X99820000Y-113965000D01*
X98170000Y-113965000D01*
X98112597Y-113953582D01*
X98063934Y-113921066D01*
X98031418Y-113872403D01*
X98020000Y-113815000D01*
X98020000Y-113515000D01*
X98031418Y-113457597D01*
X98063934Y-113408934D01*
X98112597Y-113376418D01*
X98170000Y-113365000D01*
X99820000Y-113365000D01*
X99877403Y-113376418D01*
G37*
G04 #@! TD.AperFunction*
G04 #@! TA.AperFunction,SMDPad,CuDef*
G36*
X99877403Y-114646418D02*
G01*
X99926066Y-114678934D01*
X99958582Y-114727597D01*
X99970000Y-114785000D01*
X99970000Y-115085000D01*
X99958582Y-115142403D01*
X99926066Y-115191066D01*
X99877403Y-115223582D01*
X99820000Y-115235000D01*
X98170000Y-115235000D01*
X98112597Y-115223582D01*
X98063934Y-115191066D01*
X98031418Y-115142403D01*
X98020000Y-115085000D01*
X98020000Y-114785000D01*
X98031418Y-114727597D01*
X98063934Y-114678934D01*
X98112597Y-114646418D01*
X98170000Y-114635000D01*
X99820000Y-114635000D01*
X99877403Y-114646418D01*
G37*
G04 #@! TD.AperFunction*
G04 #@! TA.AperFunction,SMDPad,CuDef*
G36*
X99877403Y-115916418D02*
G01*
X99926066Y-115948934D01*
X99958582Y-115997597D01*
X99970000Y-116055000D01*
X99970000Y-116355000D01*
X99958582Y-116412403D01*
X99926066Y-116461066D01*
X99877403Y-116493582D01*
X99820000Y-116505000D01*
X98170000Y-116505000D01*
X98112597Y-116493582D01*
X98063934Y-116461066D01*
X98031418Y-116412403D01*
X98020000Y-116355000D01*
X98020000Y-116055000D01*
X98031418Y-115997597D01*
X98063934Y-115948934D01*
X98112597Y-115916418D01*
X98170000Y-115905000D01*
X99820000Y-115905000D01*
X99877403Y-115916418D01*
G37*
G04 #@! TD.AperFunction*
G04 #@! TA.AperFunction,SMDPad,CuDef*
G36*
X99877403Y-117186418D02*
G01*
X99926066Y-117218934D01*
X99958582Y-117267597D01*
X99970000Y-117325000D01*
X99970000Y-117625000D01*
X99958582Y-117682403D01*
X99926066Y-117731066D01*
X99877403Y-117763582D01*
X99820000Y-117775000D01*
X98170000Y-117775000D01*
X98112597Y-117763582D01*
X98063934Y-117731066D01*
X98031418Y-117682403D01*
X98020000Y-117625000D01*
X98020000Y-117325000D01*
X98031418Y-117267597D01*
X98063934Y-117218934D01*
X98112597Y-117186418D01*
X98170000Y-117175000D01*
X99820000Y-117175000D01*
X99877403Y-117186418D01*
G37*
G04 #@! TD.AperFunction*
G04 #@! TA.AperFunction,SMDPad,CuDef*
G36*
X94927403Y-117186418D02*
G01*
X94976066Y-117218934D01*
X95008582Y-117267597D01*
X95020000Y-117325000D01*
X95020000Y-117625000D01*
X95008582Y-117682403D01*
X94976066Y-117731066D01*
X94927403Y-117763582D01*
X94870000Y-117775000D01*
X93220000Y-117775000D01*
X93162597Y-117763582D01*
X93113934Y-117731066D01*
X93081418Y-117682403D01*
X93070000Y-117625000D01*
X93070000Y-117325000D01*
X93081418Y-117267597D01*
X93113934Y-117218934D01*
X93162597Y-117186418D01*
X93220000Y-117175000D01*
X94870000Y-117175000D01*
X94927403Y-117186418D01*
G37*
G04 #@! TD.AperFunction*
G04 #@! TA.AperFunction,SMDPad,CuDef*
G36*
X94927403Y-115916418D02*
G01*
X94976066Y-115948934D01*
X95008582Y-115997597D01*
X95020000Y-116055000D01*
X95020000Y-116355000D01*
X95008582Y-116412403D01*
X94976066Y-116461066D01*
X94927403Y-116493582D01*
X94870000Y-116505000D01*
X93220000Y-116505000D01*
X93162597Y-116493582D01*
X93113934Y-116461066D01*
X93081418Y-116412403D01*
X93070000Y-116355000D01*
X93070000Y-116055000D01*
X93081418Y-115997597D01*
X93113934Y-115948934D01*
X93162597Y-115916418D01*
X93220000Y-115905000D01*
X94870000Y-115905000D01*
X94927403Y-115916418D01*
G37*
G04 #@! TD.AperFunction*
G04 #@! TA.AperFunction,SMDPad,CuDef*
G36*
X94927403Y-114646418D02*
G01*
X94976066Y-114678934D01*
X95008582Y-114727597D01*
X95020000Y-114785000D01*
X95020000Y-115085000D01*
X95008582Y-115142403D01*
X94976066Y-115191066D01*
X94927403Y-115223582D01*
X94870000Y-115235000D01*
X93220000Y-115235000D01*
X93162597Y-115223582D01*
X93113934Y-115191066D01*
X93081418Y-115142403D01*
X93070000Y-115085000D01*
X93070000Y-114785000D01*
X93081418Y-114727597D01*
X93113934Y-114678934D01*
X93162597Y-114646418D01*
X93220000Y-114635000D01*
X94870000Y-114635000D01*
X94927403Y-114646418D01*
G37*
G04 #@! TD.AperFunction*
G04 #@! TA.AperFunction,SMDPad,CuDef*
G36*
X94927403Y-113376418D02*
G01*
X94976066Y-113408934D01*
X95008582Y-113457597D01*
X95020000Y-113515000D01*
X95020000Y-113815000D01*
X95008582Y-113872403D01*
X94976066Y-113921066D01*
X94927403Y-113953582D01*
X94870000Y-113965000D01*
X93220000Y-113965000D01*
X93162597Y-113953582D01*
X93113934Y-113921066D01*
X93081418Y-113872403D01*
X93070000Y-113815000D01*
X93070000Y-113515000D01*
X93081418Y-113457597D01*
X93113934Y-113408934D01*
X93162597Y-113376418D01*
X93220000Y-113365000D01*
X94870000Y-113365000D01*
X94927403Y-113376418D01*
G37*
G04 #@! TD.AperFunction*
X114435000Y-131765000D03*
X114435000Y-133665000D03*
X112115000Y-133665000D03*
X112115000Y-132715000D03*
X112115000Y-131765000D03*
G04 #@! TA.AperFunction,SMDPad,CuDef*
G36*
X100197403Y-123536418D02*
G01*
X100246066Y-123568934D01*
X100278582Y-123617597D01*
X100290000Y-123675000D01*
X100290000Y-123975000D01*
X100278582Y-124032403D01*
X100246066Y-124081066D01*
X100197403Y-124113582D01*
X100140000Y-124125000D01*
X98390000Y-124125000D01*
X98332597Y-124113582D01*
X98283934Y-124081066D01*
X98251418Y-124032403D01*
X98240000Y-123975000D01*
X98240000Y-123675000D01*
X98251418Y-123617597D01*
X98283934Y-123568934D01*
X98332597Y-123536418D01*
X98390000Y-123525000D01*
X100140000Y-123525000D01*
X100197403Y-123536418D01*
G37*
G04 #@! TD.AperFunction*
G04 #@! TA.AperFunction,SMDPad,CuDef*
G36*
X100197403Y-124806418D02*
G01*
X100246066Y-124838934D01*
X100278582Y-124887597D01*
X100290000Y-124945000D01*
X100290000Y-125245000D01*
X100278582Y-125302403D01*
X100246066Y-125351066D01*
X100197403Y-125383582D01*
X100140000Y-125395000D01*
X98390000Y-125395000D01*
X98332597Y-125383582D01*
X98283934Y-125351066D01*
X98251418Y-125302403D01*
X98240000Y-125245000D01*
X98240000Y-124945000D01*
X98251418Y-124887597D01*
X98283934Y-124838934D01*
X98332597Y-124806418D01*
X98390000Y-124795000D01*
X100140000Y-124795000D01*
X100197403Y-124806418D01*
G37*
G04 #@! TD.AperFunction*
G04 #@! TA.AperFunction,SMDPad,CuDef*
G36*
X100197403Y-126076418D02*
G01*
X100246066Y-126108934D01*
X100278582Y-126157597D01*
X100290000Y-126215000D01*
X100290000Y-126515000D01*
X100278582Y-126572403D01*
X100246066Y-126621066D01*
X100197403Y-126653582D01*
X100140000Y-126665000D01*
X98390000Y-126665000D01*
X98332597Y-126653582D01*
X98283934Y-126621066D01*
X98251418Y-126572403D01*
X98240000Y-126515000D01*
X98240000Y-126215000D01*
X98251418Y-126157597D01*
X98283934Y-126108934D01*
X98332597Y-126076418D01*
X98390000Y-126065000D01*
X100140000Y-126065000D01*
X100197403Y-126076418D01*
G37*
G04 #@! TD.AperFunction*
G04 #@! TA.AperFunction,SMDPad,CuDef*
G36*
X100197403Y-127346418D02*
G01*
X100246066Y-127378934D01*
X100278582Y-127427597D01*
X100290000Y-127485000D01*
X100290000Y-127785000D01*
X100278582Y-127842403D01*
X100246066Y-127891066D01*
X100197403Y-127923582D01*
X100140000Y-127935000D01*
X98390000Y-127935000D01*
X98332597Y-127923582D01*
X98283934Y-127891066D01*
X98251418Y-127842403D01*
X98240000Y-127785000D01*
X98240000Y-127485000D01*
X98251418Y-127427597D01*
X98283934Y-127378934D01*
X98332597Y-127346418D01*
X98390000Y-127335000D01*
X100140000Y-127335000D01*
X100197403Y-127346418D01*
G37*
G04 #@! TD.AperFunction*
G04 #@! TA.AperFunction,SMDPad,CuDef*
G36*
X100197403Y-128616418D02*
G01*
X100246066Y-128648934D01*
X100278582Y-128697597D01*
X100290000Y-128755000D01*
X100290000Y-129055000D01*
X100278582Y-129112403D01*
X100246066Y-129161066D01*
X100197403Y-129193582D01*
X100140000Y-129205000D01*
X98390000Y-129205000D01*
X98332597Y-129193582D01*
X98283934Y-129161066D01*
X98251418Y-129112403D01*
X98240000Y-129055000D01*
X98240000Y-128755000D01*
X98251418Y-128697597D01*
X98283934Y-128648934D01*
X98332597Y-128616418D01*
X98390000Y-128605000D01*
X100140000Y-128605000D01*
X100197403Y-128616418D01*
G37*
G04 #@! TD.AperFunction*
G04 #@! TA.AperFunction,SMDPad,CuDef*
G36*
X100197403Y-129886418D02*
G01*
X100246066Y-129918934D01*
X100278582Y-129967597D01*
X100290000Y-130025000D01*
X100290000Y-130325000D01*
X100278582Y-130382403D01*
X100246066Y-130431066D01*
X100197403Y-130463582D01*
X100140000Y-130475000D01*
X98390000Y-130475000D01*
X98332597Y-130463582D01*
X98283934Y-130431066D01*
X98251418Y-130382403D01*
X98240000Y-130325000D01*
X98240000Y-130025000D01*
X98251418Y-129967597D01*
X98283934Y-129918934D01*
X98332597Y-129886418D01*
X98390000Y-129875000D01*
X100140000Y-129875000D01*
X100197403Y-129886418D01*
G37*
G04 #@! TD.AperFunction*
G04 #@! TA.AperFunction,SMDPad,CuDef*
G36*
X100197403Y-131156418D02*
G01*
X100246066Y-131188934D01*
X100278582Y-131237597D01*
X100290000Y-131295000D01*
X100290000Y-131595000D01*
X100278582Y-131652403D01*
X100246066Y-131701066D01*
X100197403Y-131733582D01*
X100140000Y-131745000D01*
X98390000Y-131745000D01*
X98332597Y-131733582D01*
X98283934Y-131701066D01*
X98251418Y-131652403D01*
X98240000Y-131595000D01*
X98240000Y-131295000D01*
X98251418Y-131237597D01*
X98283934Y-131188934D01*
X98332597Y-131156418D01*
X98390000Y-131145000D01*
X100140000Y-131145000D01*
X100197403Y-131156418D01*
G37*
G04 #@! TD.AperFunction*
G04 #@! TA.AperFunction,SMDPad,CuDef*
G36*
X100197403Y-132426418D02*
G01*
X100246066Y-132458934D01*
X100278582Y-132507597D01*
X100290000Y-132565000D01*
X100290000Y-132865000D01*
X100278582Y-132922403D01*
X100246066Y-132971066D01*
X100197403Y-133003582D01*
X100140000Y-133015000D01*
X98390000Y-133015000D01*
X98332597Y-133003582D01*
X98283934Y-132971066D01*
X98251418Y-132922403D01*
X98240000Y-132865000D01*
X98240000Y-132565000D01*
X98251418Y-132507597D01*
X98283934Y-132458934D01*
X98332597Y-132426418D01*
X98390000Y-132415000D01*
X100140000Y-132415000D01*
X100197403Y-132426418D01*
G37*
G04 #@! TD.AperFunction*
G04 #@! TA.AperFunction,SMDPad,CuDef*
G36*
X100197403Y-133696418D02*
G01*
X100246066Y-133728934D01*
X100278582Y-133777597D01*
X100290000Y-133835000D01*
X100290000Y-134135000D01*
X100278582Y-134192403D01*
X100246066Y-134241066D01*
X100197403Y-134273582D01*
X100140000Y-134285000D01*
X98390000Y-134285000D01*
X98332597Y-134273582D01*
X98283934Y-134241066D01*
X98251418Y-134192403D01*
X98240000Y-134135000D01*
X98240000Y-133835000D01*
X98251418Y-133777597D01*
X98283934Y-133728934D01*
X98332597Y-133696418D01*
X98390000Y-133685000D01*
X100140000Y-133685000D01*
X100197403Y-133696418D01*
G37*
G04 #@! TD.AperFunction*
G04 #@! TA.AperFunction,SMDPad,CuDef*
G36*
X90897403Y-133696418D02*
G01*
X90946066Y-133728934D01*
X90978582Y-133777597D01*
X90990000Y-133835000D01*
X90990000Y-134135000D01*
X90978582Y-134192403D01*
X90946066Y-134241066D01*
X90897403Y-134273582D01*
X90840000Y-134285000D01*
X89090000Y-134285000D01*
X89032597Y-134273582D01*
X88983934Y-134241066D01*
X88951418Y-134192403D01*
X88940000Y-134135000D01*
X88940000Y-133835000D01*
X88951418Y-133777597D01*
X88983934Y-133728934D01*
X89032597Y-133696418D01*
X89090000Y-133685000D01*
X90840000Y-133685000D01*
X90897403Y-133696418D01*
G37*
G04 #@! TD.AperFunction*
G04 #@! TA.AperFunction,SMDPad,CuDef*
G36*
X90897403Y-132426418D02*
G01*
X90946066Y-132458934D01*
X90978582Y-132507597D01*
X90990000Y-132565000D01*
X90990000Y-132865000D01*
X90978582Y-132922403D01*
X90946066Y-132971066D01*
X90897403Y-133003582D01*
X90840000Y-133015000D01*
X89090000Y-133015000D01*
X89032597Y-133003582D01*
X88983934Y-132971066D01*
X88951418Y-132922403D01*
X88940000Y-132865000D01*
X88940000Y-132565000D01*
X88951418Y-132507597D01*
X88983934Y-132458934D01*
X89032597Y-132426418D01*
X89090000Y-132415000D01*
X90840000Y-132415000D01*
X90897403Y-132426418D01*
G37*
G04 #@! TD.AperFunction*
G04 #@! TA.AperFunction,SMDPad,CuDef*
G36*
X90897403Y-131156418D02*
G01*
X90946066Y-131188934D01*
X90978582Y-131237597D01*
X90990000Y-131295000D01*
X90990000Y-131595000D01*
X90978582Y-131652403D01*
X90946066Y-131701066D01*
X90897403Y-131733582D01*
X90840000Y-131745000D01*
X89090000Y-131745000D01*
X89032597Y-131733582D01*
X88983934Y-131701066D01*
X88951418Y-131652403D01*
X88940000Y-131595000D01*
X88940000Y-131295000D01*
X88951418Y-131237597D01*
X88983934Y-131188934D01*
X89032597Y-131156418D01*
X89090000Y-131145000D01*
X90840000Y-131145000D01*
X90897403Y-131156418D01*
G37*
G04 #@! TD.AperFunction*
G04 #@! TA.AperFunction,SMDPad,CuDef*
G36*
X90897403Y-129886418D02*
G01*
X90946066Y-129918934D01*
X90978582Y-129967597D01*
X90990000Y-130025000D01*
X90990000Y-130325000D01*
X90978582Y-130382403D01*
X90946066Y-130431066D01*
X90897403Y-130463582D01*
X90840000Y-130475000D01*
X89090000Y-130475000D01*
X89032597Y-130463582D01*
X88983934Y-130431066D01*
X88951418Y-130382403D01*
X88940000Y-130325000D01*
X88940000Y-130025000D01*
X88951418Y-129967597D01*
X88983934Y-129918934D01*
X89032597Y-129886418D01*
X89090000Y-129875000D01*
X90840000Y-129875000D01*
X90897403Y-129886418D01*
G37*
G04 #@! TD.AperFunction*
G04 #@! TA.AperFunction,SMDPad,CuDef*
G36*
X90897403Y-128616418D02*
G01*
X90946066Y-128648934D01*
X90978582Y-128697597D01*
X90990000Y-128755000D01*
X90990000Y-129055000D01*
X90978582Y-129112403D01*
X90946066Y-129161066D01*
X90897403Y-129193582D01*
X90840000Y-129205000D01*
X89090000Y-129205000D01*
X89032597Y-129193582D01*
X88983934Y-129161066D01*
X88951418Y-129112403D01*
X88940000Y-129055000D01*
X88940000Y-128755000D01*
X88951418Y-128697597D01*
X88983934Y-128648934D01*
X89032597Y-128616418D01*
X89090000Y-128605000D01*
X90840000Y-128605000D01*
X90897403Y-128616418D01*
G37*
G04 #@! TD.AperFunction*
G04 #@! TA.AperFunction,SMDPad,CuDef*
G36*
X90897403Y-127346418D02*
G01*
X90946066Y-127378934D01*
X90978582Y-127427597D01*
X90990000Y-127485000D01*
X90990000Y-127785000D01*
X90978582Y-127842403D01*
X90946066Y-127891066D01*
X90897403Y-127923582D01*
X90840000Y-127935000D01*
X89090000Y-127935000D01*
X89032597Y-127923582D01*
X88983934Y-127891066D01*
X88951418Y-127842403D01*
X88940000Y-127785000D01*
X88940000Y-127485000D01*
X88951418Y-127427597D01*
X88983934Y-127378934D01*
X89032597Y-127346418D01*
X89090000Y-127335000D01*
X90840000Y-127335000D01*
X90897403Y-127346418D01*
G37*
G04 #@! TD.AperFunction*
G04 #@! TA.AperFunction,SMDPad,CuDef*
G36*
X90897403Y-126076418D02*
G01*
X90946066Y-126108934D01*
X90978582Y-126157597D01*
X90990000Y-126215000D01*
X90990000Y-126515000D01*
X90978582Y-126572403D01*
X90946066Y-126621066D01*
X90897403Y-126653582D01*
X90840000Y-126665000D01*
X89090000Y-126665000D01*
X89032597Y-126653582D01*
X88983934Y-126621066D01*
X88951418Y-126572403D01*
X88940000Y-126515000D01*
X88940000Y-126215000D01*
X88951418Y-126157597D01*
X88983934Y-126108934D01*
X89032597Y-126076418D01*
X89090000Y-126065000D01*
X90840000Y-126065000D01*
X90897403Y-126076418D01*
G37*
G04 #@! TD.AperFunction*
G04 #@! TA.AperFunction,SMDPad,CuDef*
G36*
X90897403Y-124806418D02*
G01*
X90946066Y-124838934D01*
X90978582Y-124887597D01*
X90990000Y-124945000D01*
X90990000Y-125245000D01*
X90978582Y-125302403D01*
X90946066Y-125351066D01*
X90897403Y-125383582D01*
X90840000Y-125395000D01*
X89090000Y-125395000D01*
X89032597Y-125383582D01*
X88983934Y-125351066D01*
X88951418Y-125302403D01*
X88940000Y-125245000D01*
X88940000Y-124945000D01*
X88951418Y-124887597D01*
X88983934Y-124838934D01*
X89032597Y-124806418D01*
X89090000Y-124795000D01*
X90840000Y-124795000D01*
X90897403Y-124806418D01*
G37*
G04 #@! TD.AperFunction*
G04 #@! TA.AperFunction,SMDPad,CuDef*
G36*
X90897403Y-123536418D02*
G01*
X90946066Y-123568934D01*
X90978582Y-123617597D01*
X90990000Y-123675000D01*
X90990000Y-123975000D01*
X90978582Y-124032403D01*
X90946066Y-124081066D01*
X90897403Y-124113582D01*
X90840000Y-124125000D01*
X89090000Y-124125000D01*
X89032597Y-124113582D01*
X88983934Y-124081066D01*
X88951418Y-124032403D01*
X88940000Y-123975000D01*
X88940000Y-123675000D01*
X88951418Y-123617597D01*
X88983934Y-123568934D01*
X89032597Y-123536418D01*
X89090000Y-123525000D01*
X90840000Y-123525000D01*
X90897403Y-123536418D01*
G37*
G04 #@! TD.AperFunction*
G04 #@! TA.AperFunction,SMDPad,CuDef*
G36*
X77652403Y-123536418D02*
G01*
X77701066Y-123568934D01*
X77733582Y-123617597D01*
X77745000Y-123675000D01*
X77745000Y-123975000D01*
X77733582Y-124032403D01*
X77701066Y-124081066D01*
X77652403Y-124113582D01*
X77595000Y-124125000D01*
X75945000Y-124125000D01*
X75887597Y-124113582D01*
X75838934Y-124081066D01*
X75806418Y-124032403D01*
X75795000Y-123975000D01*
X75795000Y-123675000D01*
X75806418Y-123617597D01*
X75838934Y-123568934D01*
X75887597Y-123536418D01*
X75945000Y-123525000D01*
X77595000Y-123525000D01*
X77652403Y-123536418D01*
G37*
G04 #@! TD.AperFunction*
G04 #@! TA.AperFunction,SMDPad,CuDef*
G36*
X77652403Y-124806418D02*
G01*
X77701066Y-124838934D01*
X77733582Y-124887597D01*
X77745000Y-124945000D01*
X77745000Y-125245000D01*
X77733582Y-125302403D01*
X77701066Y-125351066D01*
X77652403Y-125383582D01*
X77595000Y-125395000D01*
X75945000Y-125395000D01*
X75887597Y-125383582D01*
X75838934Y-125351066D01*
X75806418Y-125302403D01*
X75795000Y-125245000D01*
X75795000Y-124945000D01*
X75806418Y-124887597D01*
X75838934Y-124838934D01*
X75887597Y-124806418D01*
X75945000Y-124795000D01*
X77595000Y-124795000D01*
X77652403Y-124806418D01*
G37*
G04 #@! TD.AperFunction*
G04 #@! TA.AperFunction,SMDPad,CuDef*
G36*
X77652403Y-126076418D02*
G01*
X77701066Y-126108934D01*
X77733582Y-126157597D01*
X77745000Y-126215000D01*
X77745000Y-126515000D01*
X77733582Y-126572403D01*
X77701066Y-126621066D01*
X77652403Y-126653582D01*
X77595000Y-126665000D01*
X75945000Y-126665000D01*
X75887597Y-126653582D01*
X75838934Y-126621066D01*
X75806418Y-126572403D01*
X75795000Y-126515000D01*
X75795000Y-126215000D01*
X75806418Y-126157597D01*
X75838934Y-126108934D01*
X75887597Y-126076418D01*
X75945000Y-126065000D01*
X77595000Y-126065000D01*
X77652403Y-126076418D01*
G37*
G04 #@! TD.AperFunction*
G04 #@! TA.AperFunction,SMDPad,CuDef*
G36*
X77652403Y-127346418D02*
G01*
X77701066Y-127378934D01*
X77733582Y-127427597D01*
X77745000Y-127485000D01*
X77745000Y-127785000D01*
X77733582Y-127842403D01*
X77701066Y-127891066D01*
X77652403Y-127923582D01*
X77595000Y-127935000D01*
X75945000Y-127935000D01*
X75887597Y-127923582D01*
X75838934Y-127891066D01*
X75806418Y-127842403D01*
X75795000Y-127785000D01*
X75795000Y-127485000D01*
X75806418Y-127427597D01*
X75838934Y-127378934D01*
X75887597Y-127346418D01*
X75945000Y-127335000D01*
X77595000Y-127335000D01*
X77652403Y-127346418D01*
G37*
G04 #@! TD.AperFunction*
G04 #@! TA.AperFunction,SMDPad,CuDef*
G36*
X72702403Y-127346418D02*
G01*
X72751066Y-127378934D01*
X72783582Y-127427597D01*
X72795000Y-127485000D01*
X72795000Y-127785000D01*
X72783582Y-127842403D01*
X72751066Y-127891066D01*
X72702403Y-127923582D01*
X72645000Y-127935000D01*
X70995000Y-127935000D01*
X70937597Y-127923582D01*
X70888934Y-127891066D01*
X70856418Y-127842403D01*
X70845000Y-127785000D01*
X70845000Y-127485000D01*
X70856418Y-127427597D01*
X70888934Y-127378934D01*
X70937597Y-127346418D01*
X70995000Y-127335000D01*
X72645000Y-127335000D01*
X72702403Y-127346418D01*
G37*
G04 #@! TD.AperFunction*
G04 #@! TA.AperFunction,SMDPad,CuDef*
G36*
X72702403Y-126076418D02*
G01*
X72751066Y-126108934D01*
X72783582Y-126157597D01*
X72795000Y-126215000D01*
X72795000Y-126515000D01*
X72783582Y-126572403D01*
X72751066Y-126621066D01*
X72702403Y-126653582D01*
X72645000Y-126665000D01*
X70995000Y-126665000D01*
X70937597Y-126653582D01*
X70888934Y-126621066D01*
X70856418Y-126572403D01*
X70845000Y-126515000D01*
X70845000Y-126215000D01*
X70856418Y-126157597D01*
X70888934Y-126108934D01*
X70937597Y-126076418D01*
X70995000Y-126065000D01*
X72645000Y-126065000D01*
X72702403Y-126076418D01*
G37*
G04 #@! TD.AperFunction*
G04 #@! TA.AperFunction,SMDPad,CuDef*
G36*
X72702403Y-124806418D02*
G01*
X72751066Y-124838934D01*
X72783582Y-124887597D01*
X72795000Y-124945000D01*
X72795000Y-125245000D01*
X72783582Y-125302403D01*
X72751066Y-125351066D01*
X72702403Y-125383582D01*
X72645000Y-125395000D01*
X70995000Y-125395000D01*
X70937597Y-125383582D01*
X70888934Y-125351066D01*
X70856418Y-125302403D01*
X70845000Y-125245000D01*
X70845000Y-124945000D01*
X70856418Y-124887597D01*
X70888934Y-124838934D01*
X70937597Y-124806418D01*
X70995000Y-124795000D01*
X72645000Y-124795000D01*
X72702403Y-124806418D01*
G37*
G04 #@! TD.AperFunction*
G04 #@! TA.AperFunction,SMDPad,CuDef*
G36*
X72702403Y-123536418D02*
G01*
X72751066Y-123568934D01*
X72783582Y-123617597D01*
X72795000Y-123675000D01*
X72795000Y-123975000D01*
X72783582Y-124032403D01*
X72751066Y-124081066D01*
X72702403Y-124113582D01*
X72645000Y-124125000D01*
X70995000Y-124125000D01*
X70937597Y-124113582D01*
X70888934Y-124081066D01*
X70856418Y-124032403D01*
X70845000Y-123975000D01*
X70845000Y-123675000D01*
X70856418Y-123617597D01*
X70888934Y-123568934D01*
X70937597Y-123536418D01*
X70995000Y-123525000D01*
X72645000Y-123525000D01*
X72702403Y-123536418D01*
G37*
G04 #@! TD.AperFunction*
X114435000Y-127320000D03*
X114435000Y-129220000D03*
X112115000Y-129220000D03*
X112115000Y-128270000D03*
X112115000Y-127320000D03*
G04 #@! TA.AperFunction,SMDPad,CuDef*
G36*
X131757403Y-121631418D02*
G01*
X131806066Y-121663934D01*
X131838582Y-121712597D01*
X131850000Y-121770000D01*
X131850000Y-122070000D01*
X131838582Y-122127403D01*
X131806066Y-122176066D01*
X131757403Y-122208582D01*
X131700000Y-122220000D01*
X130050000Y-122220000D01*
X129992597Y-122208582D01*
X129943934Y-122176066D01*
X129911418Y-122127403D01*
X129900000Y-122070000D01*
X129900000Y-121770000D01*
X129911418Y-121712597D01*
X129943934Y-121663934D01*
X129992597Y-121631418D01*
X130050000Y-121620000D01*
X131700000Y-121620000D01*
X131757403Y-121631418D01*
G37*
G04 #@! TD.AperFunction*
G04 #@! TA.AperFunction,SMDPad,CuDef*
G36*
X131757403Y-120361418D02*
G01*
X131806066Y-120393934D01*
X131838582Y-120442597D01*
X131850000Y-120500000D01*
X131850000Y-120800000D01*
X131838582Y-120857403D01*
X131806066Y-120906066D01*
X131757403Y-120938582D01*
X131700000Y-120950000D01*
X130050000Y-120950000D01*
X129992597Y-120938582D01*
X129943934Y-120906066D01*
X129911418Y-120857403D01*
X129900000Y-120800000D01*
X129900000Y-120500000D01*
X129911418Y-120442597D01*
X129943934Y-120393934D01*
X129992597Y-120361418D01*
X130050000Y-120350000D01*
X131700000Y-120350000D01*
X131757403Y-120361418D01*
G37*
G04 #@! TD.AperFunction*
G04 #@! TA.AperFunction,SMDPad,CuDef*
G36*
X131757403Y-119091418D02*
G01*
X131806066Y-119123934D01*
X131838582Y-119172597D01*
X131850000Y-119230000D01*
X131850000Y-119530000D01*
X131838582Y-119587403D01*
X131806066Y-119636066D01*
X131757403Y-119668582D01*
X131700000Y-119680000D01*
X130050000Y-119680000D01*
X129992597Y-119668582D01*
X129943934Y-119636066D01*
X129911418Y-119587403D01*
X129900000Y-119530000D01*
X129900000Y-119230000D01*
X129911418Y-119172597D01*
X129943934Y-119123934D01*
X129992597Y-119091418D01*
X130050000Y-119080000D01*
X131700000Y-119080000D01*
X131757403Y-119091418D01*
G37*
G04 #@! TD.AperFunction*
G04 #@! TA.AperFunction,SMDPad,CuDef*
G36*
X131757403Y-117821418D02*
G01*
X131806066Y-117853934D01*
X131838582Y-117902597D01*
X131850000Y-117960000D01*
X131850000Y-118260000D01*
X131838582Y-118317403D01*
X131806066Y-118366066D01*
X131757403Y-118398582D01*
X131700000Y-118410000D01*
X130050000Y-118410000D01*
X129992597Y-118398582D01*
X129943934Y-118366066D01*
X129911418Y-118317403D01*
X129900000Y-118260000D01*
X129900000Y-117960000D01*
X129911418Y-117902597D01*
X129943934Y-117853934D01*
X129992597Y-117821418D01*
X130050000Y-117810000D01*
X131700000Y-117810000D01*
X131757403Y-117821418D01*
G37*
G04 #@! TD.AperFunction*
G04 #@! TA.AperFunction,SMDPad,CuDef*
G36*
X136707403Y-117821418D02*
G01*
X136756066Y-117853934D01*
X136788582Y-117902597D01*
X136800000Y-117960000D01*
X136800000Y-118260000D01*
X136788582Y-118317403D01*
X136756066Y-118366066D01*
X136707403Y-118398582D01*
X136650000Y-118410000D01*
X135000000Y-118410000D01*
X134942597Y-118398582D01*
X134893934Y-118366066D01*
X134861418Y-118317403D01*
X134850000Y-118260000D01*
X134850000Y-117960000D01*
X134861418Y-117902597D01*
X134893934Y-117853934D01*
X134942597Y-117821418D01*
X135000000Y-117810000D01*
X136650000Y-117810000D01*
X136707403Y-117821418D01*
G37*
G04 #@! TD.AperFunction*
G04 #@! TA.AperFunction,SMDPad,CuDef*
G36*
X136707403Y-119091418D02*
G01*
X136756066Y-119123934D01*
X136788582Y-119172597D01*
X136800000Y-119230000D01*
X136800000Y-119530000D01*
X136788582Y-119587403D01*
X136756066Y-119636066D01*
X136707403Y-119668582D01*
X136650000Y-119680000D01*
X135000000Y-119680000D01*
X134942597Y-119668582D01*
X134893934Y-119636066D01*
X134861418Y-119587403D01*
X134850000Y-119530000D01*
X134850000Y-119230000D01*
X134861418Y-119172597D01*
X134893934Y-119123934D01*
X134942597Y-119091418D01*
X135000000Y-119080000D01*
X136650000Y-119080000D01*
X136707403Y-119091418D01*
G37*
G04 #@! TD.AperFunction*
G04 #@! TA.AperFunction,SMDPad,CuDef*
G36*
X136707403Y-120361418D02*
G01*
X136756066Y-120393934D01*
X136788582Y-120442597D01*
X136800000Y-120500000D01*
X136800000Y-120800000D01*
X136788582Y-120857403D01*
X136756066Y-120906066D01*
X136707403Y-120938582D01*
X136650000Y-120950000D01*
X135000000Y-120950000D01*
X134942597Y-120938582D01*
X134893934Y-120906066D01*
X134861418Y-120857403D01*
X134850000Y-120800000D01*
X134850000Y-120500000D01*
X134861418Y-120442597D01*
X134893934Y-120393934D01*
X134942597Y-120361418D01*
X135000000Y-120350000D01*
X136650000Y-120350000D01*
X136707403Y-120361418D01*
G37*
G04 #@! TD.AperFunction*
G04 #@! TA.AperFunction,SMDPad,CuDef*
G36*
X136707403Y-121631418D02*
G01*
X136756066Y-121663934D01*
X136788582Y-121712597D01*
X136800000Y-121770000D01*
X136800000Y-122070000D01*
X136788582Y-122127403D01*
X136756066Y-122176066D01*
X136707403Y-122208582D01*
X136650000Y-122220000D01*
X135000000Y-122220000D01*
X134942597Y-122208582D01*
X134893934Y-122176066D01*
X134861418Y-122127403D01*
X134850000Y-122070000D01*
X134850000Y-121770000D01*
X134861418Y-121712597D01*
X134893934Y-121663934D01*
X134942597Y-121631418D01*
X135000000Y-121620000D01*
X136650000Y-121620000D01*
X136707403Y-121631418D01*
G37*
G04 #@! TD.AperFunction*
G04 #@! TA.AperFunction,SMDPad,CuDef*
G36*
X100642403Y-103216418D02*
G01*
X100691066Y-103248934D01*
X100723582Y-103297597D01*
X100735000Y-103355000D01*
X100735000Y-103655000D01*
X100723582Y-103712403D01*
X100691066Y-103761066D01*
X100642403Y-103793582D01*
X100585000Y-103805000D01*
X98935000Y-103805000D01*
X98877597Y-103793582D01*
X98828934Y-103761066D01*
X98796418Y-103712403D01*
X98785000Y-103655000D01*
X98785000Y-103355000D01*
X98796418Y-103297597D01*
X98828934Y-103248934D01*
X98877597Y-103216418D01*
X98935000Y-103205000D01*
X100585000Y-103205000D01*
X100642403Y-103216418D01*
G37*
G04 #@! TD.AperFunction*
G04 #@! TA.AperFunction,SMDPad,CuDef*
G36*
X100642403Y-101946418D02*
G01*
X100691066Y-101978934D01*
X100723582Y-102027597D01*
X100735000Y-102085000D01*
X100735000Y-102385000D01*
X100723582Y-102442403D01*
X100691066Y-102491066D01*
X100642403Y-102523582D01*
X100585000Y-102535000D01*
X98935000Y-102535000D01*
X98877597Y-102523582D01*
X98828934Y-102491066D01*
X98796418Y-102442403D01*
X98785000Y-102385000D01*
X98785000Y-102085000D01*
X98796418Y-102027597D01*
X98828934Y-101978934D01*
X98877597Y-101946418D01*
X98935000Y-101935000D01*
X100585000Y-101935000D01*
X100642403Y-101946418D01*
G37*
G04 #@! TD.AperFunction*
G04 #@! TA.AperFunction,SMDPad,CuDef*
G36*
X100642403Y-100676418D02*
G01*
X100691066Y-100708934D01*
X100723582Y-100757597D01*
X100735000Y-100815000D01*
X100735000Y-101115000D01*
X100723582Y-101172403D01*
X100691066Y-101221066D01*
X100642403Y-101253582D01*
X100585000Y-101265000D01*
X98935000Y-101265000D01*
X98877597Y-101253582D01*
X98828934Y-101221066D01*
X98796418Y-101172403D01*
X98785000Y-101115000D01*
X98785000Y-100815000D01*
X98796418Y-100757597D01*
X98828934Y-100708934D01*
X98877597Y-100676418D01*
X98935000Y-100665000D01*
X100585000Y-100665000D01*
X100642403Y-100676418D01*
G37*
G04 #@! TD.AperFunction*
G04 #@! TA.AperFunction,SMDPad,CuDef*
G36*
X100642403Y-99406418D02*
G01*
X100691066Y-99438934D01*
X100723582Y-99487597D01*
X100735000Y-99545000D01*
X100735000Y-99845000D01*
X100723582Y-99902403D01*
X100691066Y-99951066D01*
X100642403Y-99983582D01*
X100585000Y-99995000D01*
X98935000Y-99995000D01*
X98877597Y-99983582D01*
X98828934Y-99951066D01*
X98796418Y-99902403D01*
X98785000Y-99845000D01*
X98785000Y-99545000D01*
X98796418Y-99487597D01*
X98828934Y-99438934D01*
X98877597Y-99406418D01*
X98935000Y-99395000D01*
X100585000Y-99395000D01*
X100642403Y-99406418D01*
G37*
G04 #@! TD.AperFunction*
G04 #@! TA.AperFunction,SMDPad,CuDef*
G36*
X105592403Y-99406418D02*
G01*
X105641066Y-99438934D01*
X105673582Y-99487597D01*
X105685000Y-99545000D01*
X105685000Y-99845000D01*
X105673582Y-99902403D01*
X105641066Y-99951066D01*
X105592403Y-99983582D01*
X105535000Y-99995000D01*
X103885000Y-99995000D01*
X103827597Y-99983582D01*
X103778934Y-99951066D01*
X103746418Y-99902403D01*
X103735000Y-99845000D01*
X103735000Y-99545000D01*
X103746418Y-99487597D01*
X103778934Y-99438934D01*
X103827597Y-99406418D01*
X103885000Y-99395000D01*
X105535000Y-99395000D01*
X105592403Y-99406418D01*
G37*
G04 #@! TD.AperFunction*
G04 #@! TA.AperFunction,SMDPad,CuDef*
G36*
X105592403Y-100676418D02*
G01*
X105641066Y-100708934D01*
X105673582Y-100757597D01*
X105685000Y-100815000D01*
X105685000Y-101115000D01*
X105673582Y-101172403D01*
X105641066Y-101221066D01*
X105592403Y-101253582D01*
X105535000Y-101265000D01*
X103885000Y-101265000D01*
X103827597Y-101253582D01*
X103778934Y-101221066D01*
X103746418Y-101172403D01*
X103735000Y-101115000D01*
X103735000Y-100815000D01*
X103746418Y-100757597D01*
X103778934Y-100708934D01*
X103827597Y-100676418D01*
X103885000Y-100665000D01*
X105535000Y-100665000D01*
X105592403Y-100676418D01*
G37*
G04 #@! TD.AperFunction*
G04 #@! TA.AperFunction,SMDPad,CuDef*
G36*
X105592403Y-101946418D02*
G01*
X105641066Y-101978934D01*
X105673582Y-102027597D01*
X105685000Y-102085000D01*
X105685000Y-102385000D01*
X105673582Y-102442403D01*
X105641066Y-102491066D01*
X105592403Y-102523582D01*
X105535000Y-102535000D01*
X103885000Y-102535000D01*
X103827597Y-102523582D01*
X103778934Y-102491066D01*
X103746418Y-102442403D01*
X103735000Y-102385000D01*
X103735000Y-102085000D01*
X103746418Y-102027597D01*
X103778934Y-101978934D01*
X103827597Y-101946418D01*
X103885000Y-101935000D01*
X105535000Y-101935000D01*
X105592403Y-101946418D01*
G37*
G04 #@! TD.AperFunction*
G04 #@! TA.AperFunction,SMDPad,CuDef*
G36*
X105592403Y-103216418D02*
G01*
X105641066Y-103248934D01*
X105673582Y-103297597D01*
X105685000Y-103355000D01*
X105685000Y-103655000D01*
X105673582Y-103712403D01*
X105641066Y-103761066D01*
X105592403Y-103793582D01*
X105535000Y-103805000D01*
X103885000Y-103805000D01*
X103827597Y-103793582D01*
X103778934Y-103761066D01*
X103746418Y-103712403D01*
X103735000Y-103655000D01*
X103735000Y-103355000D01*
X103746418Y-103297597D01*
X103778934Y-103248934D01*
X103827597Y-103216418D01*
X103885000Y-103205000D01*
X105535000Y-103205000D01*
X105592403Y-103216418D01*
G37*
G04 #@! TD.AperFunction*
G04 #@! TA.AperFunction,SMDPad,CuDef*
G36*
X122982403Y-126076418D02*
G01*
X123031066Y-126108934D01*
X123063582Y-126157597D01*
X123075000Y-126215000D01*
X123075000Y-126515000D01*
X123063582Y-126572403D01*
X123031066Y-126621066D01*
X122982403Y-126653582D01*
X122925000Y-126665000D01*
X121275000Y-126665000D01*
X121217597Y-126653582D01*
X121168934Y-126621066D01*
X121136418Y-126572403D01*
X121125000Y-126515000D01*
X121125000Y-126215000D01*
X121136418Y-126157597D01*
X121168934Y-126108934D01*
X121217597Y-126076418D01*
X121275000Y-126065000D01*
X122925000Y-126065000D01*
X122982403Y-126076418D01*
G37*
G04 #@! TD.AperFunction*
G04 #@! TA.AperFunction,SMDPad,CuDef*
G36*
X122982403Y-127346418D02*
G01*
X123031066Y-127378934D01*
X123063582Y-127427597D01*
X123075000Y-127485000D01*
X123075000Y-127785000D01*
X123063582Y-127842403D01*
X123031066Y-127891066D01*
X122982403Y-127923582D01*
X122925000Y-127935000D01*
X121275000Y-127935000D01*
X121217597Y-127923582D01*
X121168934Y-127891066D01*
X121136418Y-127842403D01*
X121125000Y-127785000D01*
X121125000Y-127485000D01*
X121136418Y-127427597D01*
X121168934Y-127378934D01*
X121217597Y-127346418D01*
X121275000Y-127335000D01*
X122925000Y-127335000D01*
X122982403Y-127346418D01*
G37*
G04 #@! TD.AperFunction*
G04 #@! TA.AperFunction,SMDPad,CuDef*
G36*
X122982403Y-128616418D02*
G01*
X123031066Y-128648934D01*
X123063582Y-128697597D01*
X123075000Y-128755000D01*
X123075000Y-129055000D01*
X123063582Y-129112403D01*
X123031066Y-129161066D01*
X122982403Y-129193582D01*
X122925000Y-129205000D01*
X121275000Y-129205000D01*
X121217597Y-129193582D01*
X121168934Y-129161066D01*
X121136418Y-129112403D01*
X121125000Y-129055000D01*
X121125000Y-128755000D01*
X121136418Y-128697597D01*
X121168934Y-128648934D01*
X121217597Y-128616418D01*
X121275000Y-128605000D01*
X122925000Y-128605000D01*
X122982403Y-128616418D01*
G37*
G04 #@! TD.AperFunction*
G04 #@! TA.AperFunction,SMDPad,CuDef*
G36*
X122982403Y-129886418D02*
G01*
X123031066Y-129918934D01*
X123063582Y-129967597D01*
X123075000Y-130025000D01*
X123075000Y-130325000D01*
X123063582Y-130382403D01*
X123031066Y-130431066D01*
X122982403Y-130463582D01*
X122925000Y-130475000D01*
X121275000Y-130475000D01*
X121217597Y-130463582D01*
X121168934Y-130431066D01*
X121136418Y-130382403D01*
X121125000Y-130325000D01*
X121125000Y-130025000D01*
X121136418Y-129967597D01*
X121168934Y-129918934D01*
X121217597Y-129886418D01*
X121275000Y-129875000D01*
X122925000Y-129875000D01*
X122982403Y-129886418D01*
G37*
G04 #@! TD.AperFunction*
G04 #@! TA.AperFunction,SMDPad,CuDef*
G36*
X122982403Y-131156418D02*
G01*
X123031066Y-131188934D01*
X123063582Y-131237597D01*
X123075000Y-131295000D01*
X123075000Y-131595000D01*
X123063582Y-131652403D01*
X123031066Y-131701066D01*
X122982403Y-131733582D01*
X122925000Y-131745000D01*
X121275000Y-131745000D01*
X121217597Y-131733582D01*
X121168934Y-131701066D01*
X121136418Y-131652403D01*
X121125000Y-131595000D01*
X121125000Y-131295000D01*
X121136418Y-131237597D01*
X121168934Y-131188934D01*
X121217597Y-131156418D01*
X121275000Y-131145000D01*
X122925000Y-131145000D01*
X122982403Y-131156418D01*
G37*
G04 #@! TD.AperFunction*
G04 #@! TA.AperFunction,SMDPad,CuDef*
G36*
X122982403Y-132426418D02*
G01*
X123031066Y-132458934D01*
X123063582Y-132507597D01*
X123075000Y-132565000D01*
X123075000Y-132865000D01*
X123063582Y-132922403D01*
X123031066Y-132971066D01*
X122982403Y-133003582D01*
X122925000Y-133015000D01*
X121275000Y-133015000D01*
X121217597Y-133003582D01*
X121168934Y-132971066D01*
X121136418Y-132922403D01*
X121125000Y-132865000D01*
X121125000Y-132565000D01*
X121136418Y-132507597D01*
X121168934Y-132458934D01*
X121217597Y-132426418D01*
X121275000Y-132415000D01*
X122925000Y-132415000D01*
X122982403Y-132426418D01*
G37*
G04 #@! TD.AperFunction*
G04 #@! TA.AperFunction,SMDPad,CuDef*
G36*
X122982403Y-133696418D02*
G01*
X123031066Y-133728934D01*
X123063582Y-133777597D01*
X123075000Y-133835000D01*
X123075000Y-134135000D01*
X123063582Y-134192403D01*
X123031066Y-134241066D01*
X122982403Y-134273582D01*
X122925000Y-134285000D01*
X121275000Y-134285000D01*
X121217597Y-134273582D01*
X121168934Y-134241066D01*
X121136418Y-134192403D01*
X121125000Y-134135000D01*
X121125000Y-133835000D01*
X121136418Y-133777597D01*
X121168934Y-133728934D01*
X121217597Y-133696418D01*
X121275000Y-133685000D01*
X122925000Y-133685000D01*
X122982403Y-133696418D01*
G37*
G04 #@! TD.AperFunction*
G04 #@! TA.AperFunction,SMDPad,CuDef*
G36*
X118032403Y-133696418D02*
G01*
X118081066Y-133728934D01*
X118113582Y-133777597D01*
X118125000Y-133835000D01*
X118125000Y-134135000D01*
X118113582Y-134192403D01*
X118081066Y-134241066D01*
X118032403Y-134273582D01*
X117975000Y-134285000D01*
X116325000Y-134285000D01*
X116267597Y-134273582D01*
X116218934Y-134241066D01*
X116186418Y-134192403D01*
X116175000Y-134135000D01*
X116175000Y-133835000D01*
X116186418Y-133777597D01*
X116218934Y-133728934D01*
X116267597Y-133696418D01*
X116325000Y-133685000D01*
X117975000Y-133685000D01*
X118032403Y-133696418D01*
G37*
G04 #@! TD.AperFunction*
G04 #@! TA.AperFunction,SMDPad,CuDef*
G36*
X118032403Y-132426418D02*
G01*
X118081066Y-132458934D01*
X118113582Y-132507597D01*
X118125000Y-132565000D01*
X118125000Y-132865000D01*
X118113582Y-132922403D01*
X118081066Y-132971066D01*
X118032403Y-133003582D01*
X117975000Y-133015000D01*
X116325000Y-133015000D01*
X116267597Y-133003582D01*
X116218934Y-132971066D01*
X116186418Y-132922403D01*
X116175000Y-132865000D01*
X116175000Y-132565000D01*
X116186418Y-132507597D01*
X116218934Y-132458934D01*
X116267597Y-132426418D01*
X116325000Y-132415000D01*
X117975000Y-132415000D01*
X118032403Y-132426418D01*
G37*
G04 #@! TD.AperFunction*
G04 #@! TA.AperFunction,SMDPad,CuDef*
G36*
X118032403Y-131156418D02*
G01*
X118081066Y-131188934D01*
X118113582Y-131237597D01*
X118125000Y-131295000D01*
X118125000Y-131595000D01*
X118113582Y-131652403D01*
X118081066Y-131701066D01*
X118032403Y-131733582D01*
X117975000Y-131745000D01*
X116325000Y-131745000D01*
X116267597Y-131733582D01*
X116218934Y-131701066D01*
X116186418Y-131652403D01*
X116175000Y-131595000D01*
X116175000Y-131295000D01*
X116186418Y-131237597D01*
X116218934Y-131188934D01*
X116267597Y-131156418D01*
X116325000Y-131145000D01*
X117975000Y-131145000D01*
X118032403Y-131156418D01*
G37*
G04 #@! TD.AperFunction*
G04 #@! TA.AperFunction,SMDPad,CuDef*
G36*
X118032403Y-129886418D02*
G01*
X118081066Y-129918934D01*
X118113582Y-129967597D01*
X118125000Y-130025000D01*
X118125000Y-130325000D01*
X118113582Y-130382403D01*
X118081066Y-130431066D01*
X118032403Y-130463582D01*
X117975000Y-130475000D01*
X116325000Y-130475000D01*
X116267597Y-130463582D01*
X116218934Y-130431066D01*
X116186418Y-130382403D01*
X116175000Y-130325000D01*
X116175000Y-130025000D01*
X116186418Y-129967597D01*
X116218934Y-129918934D01*
X116267597Y-129886418D01*
X116325000Y-129875000D01*
X117975000Y-129875000D01*
X118032403Y-129886418D01*
G37*
G04 #@! TD.AperFunction*
G04 #@! TA.AperFunction,SMDPad,CuDef*
G36*
X118032403Y-128616418D02*
G01*
X118081066Y-128648934D01*
X118113582Y-128697597D01*
X118125000Y-128755000D01*
X118125000Y-129055000D01*
X118113582Y-129112403D01*
X118081066Y-129161066D01*
X118032403Y-129193582D01*
X117975000Y-129205000D01*
X116325000Y-129205000D01*
X116267597Y-129193582D01*
X116218934Y-129161066D01*
X116186418Y-129112403D01*
X116175000Y-129055000D01*
X116175000Y-128755000D01*
X116186418Y-128697597D01*
X116218934Y-128648934D01*
X116267597Y-128616418D01*
X116325000Y-128605000D01*
X117975000Y-128605000D01*
X118032403Y-128616418D01*
G37*
G04 #@! TD.AperFunction*
G04 #@! TA.AperFunction,SMDPad,CuDef*
G36*
X118032403Y-127346418D02*
G01*
X118081066Y-127378934D01*
X118113582Y-127427597D01*
X118125000Y-127485000D01*
X118125000Y-127785000D01*
X118113582Y-127842403D01*
X118081066Y-127891066D01*
X118032403Y-127923582D01*
X117975000Y-127935000D01*
X116325000Y-127935000D01*
X116267597Y-127923582D01*
X116218934Y-127891066D01*
X116186418Y-127842403D01*
X116175000Y-127785000D01*
X116175000Y-127485000D01*
X116186418Y-127427597D01*
X116218934Y-127378934D01*
X116267597Y-127346418D01*
X116325000Y-127335000D01*
X117975000Y-127335000D01*
X118032403Y-127346418D01*
G37*
G04 #@! TD.AperFunction*
G04 #@! TA.AperFunction,SMDPad,CuDef*
G36*
X118032403Y-126076418D02*
G01*
X118081066Y-126108934D01*
X118113582Y-126157597D01*
X118125000Y-126215000D01*
X118125000Y-126515000D01*
X118113582Y-126572403D01*
X118081066Y-126621066D01*
X118032403Y-126653582D01*
X117975000Y-126665000D01*
X116325000Y-126665000D01*
X116267597Y-126653582D01*
X116218934Y-126621066D01*
X116186418Y-126572403D01*
X116175000Y-126515000D01*
X116175000Y-126215000D01*
X116186418Y-126157597D01*
X116218934Y-126108934D01*
X116267597Y-126076418D01*
X116325000Y-126065000D01*
X117975000Y-126065000D01*
X118032403Y-126076418D01*
G37*
G04 #@! TD.AperFunction*
D17*
X102235000Y-80645000D03*
X99695000Y-80645000D03*
D18*
X97155000Y-80645000D03*
D19*
X145415000Y-76015000D03*
X149115000Y-74315000D03*
X145415000Y-72615000D03*
X149115000Y-70915000D03*
D20*
X145415000Y-69215000D03*
G04 #@! TA.AperFunction,SMDPad,CuDef*
G36*
X69095000Y-77090000D02*
G01*
X66795000Y-77090000D01*
X67395000Y-73490000D01*
X68495000Y-73490000D01*
X69095000Y-77090000D01*
G37*
G04 #@! TD.AperFunction*
G04 #@! TA.AperFunction,SMDPad,CuDef*
G36*
X66795000Y-67690000D02*
G01*
X69095000Y-67690000D01*
X68495000Y-71290000D01*
X67395000Y-71290000D01*
X66795000Y-67690000D01*
G37*
G04 #@! TD.AperFunction*
D21*
X81915000Y-118110000D03*
X78740000Y-118110000D03*
X75565000Y-118110000D03*
X72390000Y-118110000D03*
X69215000Y-118110000D03*
X66040000Y-118110000D03*
D22*
X60325000Y-93345000D03*
X52705000Y-103505000D03*
X60325000Y-95885000D03*
X52705000Y-100965000D03*
X60325000Y-98425000D03*
X52705000Y-98425000D03*
X60325000Y-100965000D03*
X52705000Y-95885000D03*
X60325000Y-103505000D03*
D23*
X52705000Y-93345000D03*
G04 #@! TA.AperFunction,SMDPad,CuDef*
G36*
X144690671Y-114134030D02*
G01*
X144771777Y-114188223D01*
X144825970Y-114269329D01*
X144845000Y-114364999D01*
X144845000Y-115015001D01*
X144825970Y-115110671D01*
X144771777Y-115191777D01*
X144690671Y-115245970D01*
X144595001Y-115265000D01*
X143694999Y-115265000D01*
X143599329Y-115245970D01*
X143518223Y-115191777D01*
X143464030Y-115110671D01*
X143445000Y-115015001D01*
X143445000Y-114364999D01*
X143464030Y-114269329D01*
X143518223Y-114188223D01*
X143599329Y-114134030D01*
X143694999Y-114115000D01*
X144595001Y-114115000D01*
X144690671Y-114134030D01*
G37*
G04 #@! TD.AperFunction*
G04 #@! TA.AperFunction,SMDPad,CuDef*
G36*
X144690671Y-112084030D02*
G01*
X144771777Y-112138223D01*
X144825970Y-112219329D01*
X144845000Y-112314999D01*
X144845000Y-112965001D01*
X144825970Y-113060671D01*
X144771777Y-113141777D01*
X144690671Y-113195970D01*
X144595001Y-113215000D01*
X143694999Y-113215000D01*
X143599329Y-113195970D01*
X143518223Y-113141777D01*
X143464030Y-113060671D01*
X143445000Y-112965001D01*
X143445000Y-112314999D01*
X143464030Y-112219329D01*
X143518223Y-112138223D01*
X143599329Y-112084030D01*
X143694999Y-112065000D01*
X144595001Y-112065000D01*
X144690671Y-112084030D01*
G37*
G04 #@! TD.AperFunction*
G04 #@! TA.AperFunction,SMDPad,CuDef*
G36*
X113575671Y-95719030D02*
G01*
X113656777Y-95773223D01*
X113710970Y-95854329D01*
X113730000Y-95949999D01*
X113730000Y-96600001D01*
X113710970Y-96695671D01*
X113656777Y-96776777D01*
X113575671Y-96830970D01*
X113480001Y-96850000D01*
X112579999Y-96850000D01*
X112484329Y-96830970D01*
X112403223Y-96776777D01*
X112349030Y-96695671D01*
X112330000Y-96600001D01*
X112330000Y-95949999D01*
X112349030Y-95854329D01*
X112403223Y-95773223D01*
X112484329Y-95719030D01*
X112579999Y-95700000D01*
X113480001Y-95700000D01*
X113575671Y-95719030D01*
G37*
G04 #@! TD.AperFunction*
G04 #@! TA.AperFunction,SMDPad,CuDef*
G36*
X113575671Y-93669030D02*
G01*
X113656777Y-93723223D01*
X113710970Y-93804329D01*
X113730000Y-93899999D01*
X113730000Y-94550001D01*
X113710970Y-94645671D01*
X113656777Y-94726777D01*
X113575671Y-94780970D01*
X113480001Y-94800000D01*
X112579999Y-94800000D01*
X112484329Y-94780970D01*
X112403223Y-94726777D01*
X112349030Y-94645671D01*
X112330000Y-94550001D01*
X112330000Y-93899999D01*
X112349030Y-93804329D01*
X112403223Y-93723223D01*
X112484329Y-93669030D01*
X112579999Y-93650000D01*
X113480001Y-93650000D01*
X113575671Y-93669030D01*
G37*
G04 #@! TD.AperFunction*
G04 #@! TA.AperFunction,SMDPad,CuDef*
G36*
X131620671Y-108539030D02*
G01*
X131701777Y-108593223D01*
X131755970Y-108674329D01*
X131775000Y-108769999D01*
X131775000Y-109670001D01*
X131755970Y-109765671D01*
X131701777Y-109846777D01*
X131620671Y-109900970D01*
X131525001Y-109920000D01*
X130874999Y-109920000D01*
X130779329Y-109900970D01*
X130698223Y-109846777D01*
X130644030Y-109765671D01*
X130625000Y-109670001D01*
X130625000Y-108769999D01*
X130644030Y-108674329D01*
X130698223Y-108593223D01*
X130779329Y-108539030D01*
X130874999Y-108520000D01*
X131525001Y-108520000D01*
X131620671Y-108539030D01*
G37*
G04 #@! TD.AperFunction*
G04 #@! TA.AperFunction,SMDPad,CuDef*
G36*
X129570671Y-108539030D02*
G01*
X129651777Y-108593223D01*
X129705970Y-108674329D01*
X129725000Y-108769999D01*
X129725000Y-109670001D01*
X129705970Y-109765671D01*
X129651777Y-109846777D01*
X129570671Y-109900970D01*
X129475001Y-109920000D01*
X128824999Y-109920000D01*
X128729329Y-109900970D01*
X128648223Y-109846777D01*
X128594030Y-109765671D01*
X128575000Y-109670001D01*
X128575000Y-108769999D01*
X128594030Y-108674329D01*
X128648223Y-108593223D01*
X128729329Y-108539030D01*
X128824999Y-108520000D01*
X129475001Y-108520000D01*
X129570671Y-108539030D01*
G37*
G04 #@! TD.AperFunction*
G04 #@! TA.AperFunction,SMDPad,CuDef*
G36*
X100505671Y-90124030D02*
G01*
X100586777Y-90178223D01*
X100640970Y-90259329D01*
X100660000Y-90354999D01*
X100660000Y-91255001D01*
X100640970Y-91350671D01*
X100586777Y-91431777D01*
X100505671Y-91485970D01*
X100410001Y-91505000D01*
X99759999Y-91505000D01*
X99664329Y-91485970D01*
X99583223Y-91431777D01*
X99529030Y-91350671D01*
X99510000Y-91255001D01*
X99510000Y-90354999D01*
X99529030Y-90259329D01*
X99583223Y-90178223D01*
X99664329Y-90124030D01*
X99759999Y-90105000D01*
X100410001Y-90105000D01*
X100505671Y-90124030D01*
G37*
G04 #@! TD.AperFunction*
G04 #@! TA.AperFunction,SMDPad,CuDef*
G36*
X98455671Y-90124030D02*
G01*
X98536777Y-90178223D01*
X98590970Y-90259329D01*
X98610000Y-90354999D01*
X98610000Y-91255001D01*
X98590970Y-91350671D01*
X98536777Y-91431777D01*
X98455671Y-91485970D01*
X98360001Y-91505000D01*
X97709999Y-91505000D01*
X97614329Y-91485970D01*
X97533223Y-91431777D01*
X97479030Y-91350671D01*
X97460000Y-91255001D01*
X97460000Y-90354999D01*
X97479030Y-90259329D01*
X97533223Y-90178223D01*
X97614329Y-90124030D01*
X97709999Y-90105000D01*
X98360001Y-90105000D01*
X98455671Y-90124030D01*
G37*
G04 #@! TD.AperFunction*
G04 #@! TA.AperFunction,SMDPad,CuDef*
G36*
X83435671Y-49169030D02*
G01*
X83516777Y-49223223D01*
X83570970Y-49304329D01*
X83590000Y-49399999D01*
X83590000Y-50425001D01*
X83570970Y-50520671D01*
X83516777Y-50601777D01*
X83435671Y-50655970D01*
X83340001Y-50675000D01*
X80489999Y-50675000D01*
X80394329Y-50655970D01*
X80313223Y-50601777D01*
X80259030Y-50520671D01*
X80240000Y-50425001D01*
X80240000Y-49399999D01*
X80259030Y-49304329D01*
X80313223Y-49223223D01*
X80394329Y-49169030D01*
X80489999Y-49150000D01*
X83340001Y-49150000D01*
X83435671Y-49169030D01*
G37*
G04 #@! TD.AperFunction*
G04 #@! TA.AperFunction,SMDPad,CuDef*
G36*
X83435671Y-55144030D02*
G01*
X83516777Y-55198223D01*
X83570970Y-55279329D01*
X83590000Y-55374999D01*
X83590000Y-56400001D01*
X83570970Y-56495671D01*
X83516777Y-56576777D01*
X83435671Y-56630970D01*
X83340001Y-56650000D01*
X80489999Y-56650000D01*
X80394329Y-56630970D01*
X80313223Y-56576777D01*
X80259030Y-56495671D01*
X80240000Y-56400001D01*
X80240000Y-55374999D01*
X80259030Y-55279329D01*
X80313223Y-55198223D01*
X80394329Y-55144030D01*
X80489999Y-55125000D01*
X83340001Y-55125000D01*
X83435671Y-55144030D01*
G37*
G04 #@! TD.AperFunction*
G04 #@! TA.AperFunction,SMDPad,CuDef*
G36*
X89565671Y-113619030D02*
G01*
X89646777Y-113673223D01*
X89700970Y-113754329D01*
X89720000Y-113849999D01*
X89720000Y-114750001D01*
X89700970Y-114845671D01*
X89646777Y-114926777D01*
X89565671Y-114980970D01*
X89470001Y-115000000D01*
X88819999Y-115000000D01*
X88724329Y-114980970D01*
X88643223Y-114926777D01*
X88589030Y-114845671D01*
X88570000Y-114750001D01*
X88570000Y-113849999D01*
X88589030Y-113754329D01*
X88643223Y-113673223D01*
X88724329Y-113619030D01*
X88819999Y-113600000D01*
X89470001Y-113600000D01*
X89565671Y-113619030D01*
G37*
G04 #@! TD.AperFunction*
G04 #@! TA.AperFunction,SMDPad,CuDef*
G36*
X91615671Y-113619030D02*
G01*
X91696777Y-113673223D01*
X91750970Y-113754329D01*
X91770000Y-113849999D01*
X91770000Y-114750001D01*
X91750970Y-114845671D01*
X91696777Y-114926777D01*
X91615671Y-114980970D01*
X91520001Y-115000000D01*
X90869999Y-115000000D01*
X90774329Y-114980970D01*
X90693223Y-114926777D01*
X90639030Y-114845671D01*
X90620000Y-114750001D01*
X90620000Y-113849999D01*
X90639030Y-113754329D01*
X90693223Y-113673223D01*
X90774329Y-113619030D01*
X90869999Y-113600000D01*
X91520001Y-113600000D01*
X91615671Y-113619030D01*
G37*
G04 #@! TD.AperFunction*
G04 #@! TA.AperFunction,SMDPad,CuDef*
G36*
X91615671Y-111714030D02*
G01*
X91696777Y-111768223D01*
X91750970Y-111849329D01*
X91770000Y-111944999D01*
X91770000Y-112845001D01*
X91750970Y-112940671D01*
X91696777Y-113021777D01*
X91615671Y-113075970D01*
X91520001Y-113095000D01*
X90869999Y-113095000D01*
X90774329Y-113075970D01*
X90693223Y-113021777D01*
X90639030Y-112940671D01*
X90620000Y-112845001D01*
X90620000Y-111944999D01*
X90639030Y-111849329D01*
X90693223Y-111768223D01*
X90774329Y-111714030D01*
X90869999Y-111695000D01*
X91520001Y-111695000D01*
X91615671Y-111714030D01*
G37*
G04 #@! TD.AperFunction*
G04 #@! TA.AperFunction,SMDPad,CuDef*
G36*
X89565671Y-111714030D02*
G01*
X89646777Y-111768223D01*
X89700970Y-111849329D01*
X89720000Y-111944999D01*
X89720000Y-112845001D01*
X89700970Y-112940671D01*
X89646777Y-113021777D01*
X89565671Y-113075970D01*
X89470001Y-113095000D01*
X88819999Y-113095000D01*
X88724329Y-113075970D01*
X88643223Y-113021777D01*
X88589030Y-112940671D01*
X88570000Y-112845001D01*
X88570000Y-111944999D01*
X88589030Y-111849329D01*
X88643223Y-111768223D01*
X88724329Y-111714030D01*
X88819999Y-111695000D01*
X89470001Y-111695000D01*
X89565671Y-111714030D01*
G37*
G04 #@! TD.AperFunction*
G04 #@! TA.AperFunction,SMDPad,CuDef*
G36*
X89565671Y-109809030D02*
G01*
X89646777Y-109863223D01*
X89700970Y-109944329D01*
X89720000Y-110039999D01*
X89720000Y-110940001D01*
X89700970Y-111035671D01*
X89646777Y-111116777D01*
X89565671Y-111170970D01*
X89470001Y-111190000D01*
X88819999Y-111190000D01*
X88724329Y-111170970D01*
X88643223Y-111116777D01*
X88589030Y-111035671D01*
X88570000Y-110940001D01*
X88570000Y-110039999D01*
X88589030Y-109944329D01*
X88643223Y-109863223D01*
X88724329Y-109809030D01*
X88819999Y-109790000D01*
X89470001Y-109790000D01*
X89565671Y-109809030D01*
G37*
G04 #@! TD.AperFunction*
G04 #@! TA.AperFunction,SMDPad,CuDef*
G36*
X91615671Y-109809030D02*
G01*
X91696777Y-109863223D01*
X91750970Y-109944329D01*
X91770000Y-110039999D01*
X91770000Y-110940001D01*
X91750970Y-111035671D01*
X91696777Y-111116777D01*
X91615671Y-111170970D01*
X91520001Y-111190000D01*
X90869999Y-111190000D01*
X90774329Y-111170970D01*
X90693223Y-111116777D01*
X90639030Y-111035671D01*
X90620000Y-110940001D01*
X90620000Y-110039999D01*
X90639030Y-109944329D01*
X90693223Y-109863223D01*
X90774329Y-109809030D01*
X90869999Y-109790000D01*
X91520001Y-109790000D01*
X91615671Y-109809030D01*
G37*
G04 #@! TD.AperFunction*
G04 #@! TA.AperFunction,SMDPad,CuDef*
G36*
X89565671Y-115524030D02*
G01*
X89646777Y-115578223D01*
X89700970Y-115659329D01*
X89720000Y-115754999D01*
X89720000Y-116655001D01*
X89700970Y-116750671D01*
X89646777Y-116831777D01*
X89565671Y-116885970D01*
X89470001Y-116905000D01*
X88819999Y-116905000D01*
X88724329Y-116885970D01*
X88643223Y-116831777D01*
X88589030Y-116750671D01*
X88570000Y-116655001D01*
X88570000Y-115754999D01*
X88589030Y-115659329D01*
X88643223Y-115578223D01*
X88724329Y-115524030D01*
X88819999Y-115505000D01*
X89470001Y-115505000D01*
X89565671Y-115524030D01*
G37*
G04 #@! TD.AperFunction*
G04 #@! TA.AperFunction,SMDPad,CuDef*
G36*
X91615671Y-115524030D02*
G01*
X91696777Y-115578223D01*
X91750970Y-115659329D01*
X91770000Y-115754999D01*
X91770000Y-116655001D01*
X91750970Y-116750671D01*
X91696777Y-116831777D01*
X91615671Y-116885970D01*
X91520001Y-116905000D01*
X90869999Y-116905000D01*
X90774329Y-116885970D01*
X90693223Y-116831777D01*
X90639030Y-116750671D01*
X90620000Y-116655001D01*
X90620000Y-115754999D01*
X90639030Y-115659329D01*
X90693223Y-115578223D01*
X90774329Y-115524030D01*
X90869999Y-115505000D01*
X91520001Y-115505000D01*
X91615671Y-115524030D01*
G37*
G04 #@! TD.AperFunction*
G04 #@! TA.AperFunction,SMDPad,CuDef*
G36*
X110645671Y-133184030D02*
G01*
X110726777Y-133238223D01*
X110780970Y-133319329D01*
X110800000Y-133414999D01*
X110800000Y-134065001D01*
X110780970Y-134160671D01*
X110726777Y-134241777D01*
X110645671Y-134295970D01*
X110550001Y-134315000D01*
X109649999Y-134315000D01*
X109554329Y-134295970D01*
X109473223Y-134241777D01*
X109419030Y-134160671D01*
X109400000Y-134065001D01*
X109400000Y-133414999D01*
X109419030Y-133319329D01*
X109473223Y-133238223D01*
X109554329Y-133184030D01*
X109649999Y-133165000D01*
X110550001Y-133165000D01*
X110645671Y-133184030D01*
G37*
G04 #@! TD.AperFunction*
G04 #@! TA.AperFunction,SMDPad,CuDef*
G36*
X110645671Y-131134030D02*
G01*
X110726777Y-131188223D01*
X110780970Y-131269329D01*
X110800000Y-131364999D01*
X110800000Y-132015001D01*
X110780970Y-132110671D01*
X110726777Y-132191777D01*
X110645671Y-132245970D01*
X110550001Y-132265000D01*
X109649999Y-132265000D01*
X109554329Y-132245970D01*
X109473223Y-132191777D01*
X109419030Y-132110671D01*
X109400000Y-132015001D01*
X109400000Y-131364999D01*
X109419030Y-131269329D01*
X109473223Y-131188223D01*
X109554329Y-131134030D01*
X109649999Y-131115000D01*
X110550001Y-131115000D01*
X110645671Y-131134030D01*
G37*
G04 #@! TD.AperFunction*
G04 #@! TA.AperFunction,SMDPad,CuDef*
G36*
X64165671Y-102824030D02*
G01*
X64246777Y-102878223D01*
X64300970Y-102959329D01*
X64320000Y-103054999D01*
X64320000Y-103955001D01*
X64300970Y-104050671D01*
X64246777Y-104131777D01*
X64165671Y-104185970D01*
X64070001Y-104205000D01*
X63419999Y-104205000D01*
X63324329Y-104185970D01*
X63243223Y-104131777D01*
X63189030Y-104050671D01*
X63170000Y-103955001D01*
X63170000Y-103054999D01*
X63189030Y-102959329D01*
X63243223Y-102878223D01*
X63324329Y-102824030D01*
X63419999Y-102805000D01*
X64070001Y-102805000D01*
X64165671Y-102824030D01*
G37*
G04 #@! TD.AperFunction*
G04 #@! TA.AperFunction,SMDPad,CuDef*
G36*
X66215671Y-102824030D02*
G01*
X66296777Y-102878223D01*
X66350970Y-102959329D01*
X66370000Y-103054999D01*
X66370000Y-103955001D01*
X66350970Y-104050671D01*
X66296777Y-104131777D01*
X66215671Y-104185970D01*
X66120001Y-104205000D01*
X65469999Y-104205000D01*
X65374329Y-104185970D01*
X65293223Y-104131777D01*
X65239030Y-104050671D01*
X65220000Y-103955001D01*
X65220000Y-103054999D01*
X65239030Y-102959329D01*
X65293223Y-102878223D01*
X65374329Y-102824030D01*
X65469999Y-102805000D01*
X66120001Y-102805000D01*
X66215671Y-102824030D01*
G37*
G04 #@! TD.AperFunction*
G04 #@! TA.AperFunction,SMDPad,CuDef*
G36*
X64165671Y-100919030D02*
G01*
X64246777Y-100973223D01*
X64300970Y-101054329D01*
X64320000Y-101149999D01*
X64320000Y-102050001D01*
X64300970Y-102145671D01*
X64246777Y-102226777D01*
X64165671Y-102280970D01*
X64070001Y-102300000D01*
X63419999Y-102300000D01*
X63324329Y-102280970D01*
X63243223Y-102226777D01*
X63189030Y-102145671D01*
X63170000Y-102050001D01*
X63170000Y-101149999D01*
X63189030Y-101054329D01*
X63243223Y-100973223D01*
X63324329Y-100919030D01*
X63419999Y-100900000D01*
X64070001Y-100900000D01*
X64165671Y-100919030D01*
G37*
G04 #@! TD.AperFunction*
G04 #@! TA.AperFunction,SMDPad,CuDef*
G36*
X66215671Y-100919030D02*
G01*
X66296777Y-100973223D01*
X66350970Y-101054329D01*
X66370000Y-101149999D01*
X66370000Y-102050001D01*
X66350970Y-102145671D01*
X66296777Y-102226777D01*
X66215671Y-102280970D01*
X66120001Y-102300000D01*
X65469999Y-102300000D01*
X65374329Y-102280970D01*
X65293223Y-102226777D01*
X65239030Y-102145671D01*
X65220000Y-102050001D01*
X65220000Y-101149999D01*
X65239030Y-101054329D01*
X65293223Y-100973223D01*
X65374329Y-100919030D01*
X65469999Y-100900000D01*
X66120001Y-100900000D01*
X66215671Y-100919030D01*
G37*
G04 #@! TD.AperFunction*
G04 #@! TA.AperFunction,SMDPad,CuDef*
G36*
X64165671Y-99014030D02*
G01*
X64246777Y-99068223D01*
X64300970Y-99149329D01*
X64320000Y-99244999D01*
X64320000Y-100145001D01*
X64300970Y-100240671D01*
X64246777Y-100321777D01*
X64165671Y-100375970D01*
X64070001Y-100395000D01*
X63419999Y-100395000D01*
X63324329Y-100375970D01*
X63243223Y-100321777D01*
X63189030Y-100240671D01*
X63170000Y-100145001D01*
X63170000Y-99244999D01*
X63189030Y-99149329D01*
X63243223Y-99068223D01*
X63324329Y-99014030D01*
X63419999Y-98995000D01*
X64070001Y-98995000D01*
X64165671Y-99014030D01*
G37*
G04 #@! TD.AperFunction*
G04 #@! TA.AperFunction,SMDPad,CuDef*
G36*
X66215671Y-99014030D02*
G01*
X66296777Y-99068223D01*
X66350970Y-99149329D01*
X66370000Y-99244999D01*
X66370000Y-100145001D01*
X66350970Y-100240671D01*
X66296777Y-100321777D01*
X66215671Y-100375970D01*
X66120001Y-100395000D01*
X65469999Y-100395000D01*
X65374329Y-100375970D01*
X65293223Y-100321777D01*
X65239030Y-100240671D01*
X65220000Y-100145001D01*
X65220000Y-99244999D01*
X65239030Y-99149329D01*
X65293223Y-99068223D01*
X65374329Y-99014030D01*
X65469999Y-98995000D01*
X66120001Y-98995000D01*
X66215671Y-99014030D01*
G37*
G04 #@! TD.AperFunction*
G04 #@! TA.AperFunction,SMDPad,CuDef*
G36*
X64165671Y-97109030D02*
G01*
X64246777Y-97163223D01*
X64300970Y-97244329D01*
X64320000Y-97339999D01*
X64320000Y-98240001D01*
X64300970Y-98335671D01*
X64246777Y-98416777D01*
X64165671Y-98470970D01*
X64070001Y-98490000D01*
X63419999Y-98490000D01*
X63324329Y-98470970D01*
X63243223Y-98416777D01*
X63189030Y-98335671D01*
X63170000Y-98240001D01*
X63170000Y-97339999D01*
X63189030Y-97244329D01*
X63243223Y-97163223D01*
X63324329Y-97109030D01*
X63419999Y-97090000D01*
X64070001Y-97090000D01*
X64165671Y-97109030D01*
G37*
G04 #@! TD.AperFunction*
G04 #@! TA.AperFunction,SMDPad,CuDef*
G36*
X66215671Y-97109030D02*
G01*
X66296777Y-97163223D01*
X66350970Y-97244329D01*
X66370000Y-97339999D01*
X66370000Y-98240001D01*
X66350970Y-98335671D01*
X66296777Y-98416777D01*
X66215671Y-98470970D01*
X66120001Y-98490000D01*
X65469999Y-98490000D01*
X65374329Y-98470970D01*
X65293223Y-98416777D01*
X65239030Y-98335671D01*
X65220000Y-98240001D01*
X65220000Y-97339999D01*
X65239030Y-97244329D01*
X65293223Y-97163223D01*
X65374329Y-97109030D01*
X65469999Y-97090000D01*
X66120001Y-97090000D01*
X66215671Y-97109030D01*
G37*
G04 #@! TD.AperFunction*
G04 #@! TA.AperFunction,SMDPad,CuDef*
G36*
X64165671Y-95204030D02*
G01*
X64246777Y-95258223D01*
X64300970Y-95339329D01*
X64320000Y-95434999D01*
X64320000Y-96335001D01*
X64300970Y-96430671D01*
X64246777Y-96511777D01*
X64165671Y-96565970D01*
X64070001Y-96585000D01*
X63419999Y-96585000D01*
X63324329Y-96565970D01*
X63243223Y-96511777D01*
X63189030Y-96430671D01*
X63170000Y-96335001D01*
X63170000Y-95434999D01*
X63189030Y-95339329D01*
X63243223Y-95258223D01*
X63324329Y-95204030D01*
X63419999Y-95185000D01*
X64070001Y-95185000D01*
X64165671Y-95204030D01*
G37*
G04 #@! TD.AperFunction*
G04 #@! TA.AperFunction,SMDPad,CuDef*
G36*
X66215671Y-95204030D02*
G01*
X66296777Y-95258223D01*
X66350970Y-95339329D01*
X66370000Y-95434999D01*
X66370000Y-96335001D01*
X66350970Y-96430671D01*
X66296777Y-96511777D01*
X66215671Y-96565970D01*
X66120001Y-96585000D01*
X65469999Y-96585000D01*
X65374329Y-96565970D01*
X65293223Y-96511777D01*
X65239030Y-96430671D01*
X65220000Y-96335001D01*
X65220000Y-95434999D01*
X65239030Y-95339329D01*
X65293223Y-95258223D01*
X65374329Y-95204030D01*
X65469999Y-95185000D01*
X66120001Y-95185000D01*
X66215671Y-95204030D01*
G37*
G04 #@! TD.AperFunction*
G04 #@! TA.AperFunction,SMDPad,CuDef*
G36*
X102900671Y-115524030D02*
G01*
X102981777Y-115578223D01*
X103035970Y-115659329D01*
X103055000Y-115754999D01*
X103055000Y-116655001D01*
X103035970Y-116750671D01*
X102981777Y-116831777D01*
X102900671Y-116885970D01*
X102805001Y-116905000D01*
X102154999Y-116905000D01*
X102059329Y-116885970D01*
X101978223Y-116831777D01*
X101924030Y-116750671D01*
X101905000Y-116655001D01*
X101905000Y-115754999D01*
X101924030Y-115659329D01*
X101978223Y-115578223D01*
X102059329Y-115524030D01*
X102154999Y-115505000D01*
X102805001Y-115505000D01*
X102900671Y-115524030D01*
G37*
G04 #@! TD.AperFunction*
G04 #@! TA.AperFunction,SMDPad,CuDef*
G36*
X104950671Y-115524030D02*
G01*
X105031777Y-115578223D01*
X105085970Y-115659329D01*
X105105000Y-115754999D01*
X105105000Y-116655001D01*
X105085970Y-116750671D01*
X105031777Y-116831777D01*
X104950671Y-116885970D01*
X104855001Y-116905000D01*
X104204999Y-116905000D01*
X104109329Y-116885970D01*
X104028223Y-116831777D01*
X103974030Y-116750671D01*
X103955000Y-116655001D01*
X103955000Y-115754999D01*
X103974030Y-115659329D01*
X104028223Y-115578223D01*
X104109329Y-115524030D01*
X104204999Y-115505000D01*
X104855001Y-115505000D01*
X104950671Y-115524030D01*
G37*
G04 #@! TD.AperFunction*
G04 #@! TA.AperFunction,SMDPad,CuDef*
G36*
X102900671Y-117429030D02*
G01*
X102981777Y-117483223D01*
X103035970Y-117564329D01*
X103055000Y-117659999D01*
X103055000Y-118560001D01*
X103035970Y-118655671D01*
X102981777Y-118736777D01*
X102900671Y-118790970D01*
X102805001Y-118810000D01*
X102154999Y-118810000D01*
X102059329Y-118790970D01*
X101978223Y-118736777D01*
X101924030Y-118655671D01*
X101905000Y-118560001D01*
X101905000Y-117659999D01*
X101924030Y-117564329D01*
X101978223Y-117483223D01*
X102059329Y-117429030D01*
X102154999Y-117410000D01*
X102805001Y-117410000D01*
X102900671Y-117429030D01*
G37*
G04 #@! TD.AperFunction*
G04 #@! TA.AperFunction,SMDPad,CuDef*
G36*
X104950671Y-117429030D02*
G01*
X105031777Y-117483223D01*
X105085970Y-117564329D01*
X105105000Y-117659999D01*
X105105000Y-118560001D01*
X105085970Y-118655671D01*
X105031777Y-118736777D01*
X104950671Y-118790970D01*
X104855001Y-118810000D01*
X104204999Y-118810000D01*
X104109329Y-118790970D01*
X104028223Y-118736777D01*
X103974030Y-118655671D01*
X103955000Y-118560001D01*
X103955000Y-117659999D01*
X103974030Y-117564329D01*
X104028223Y-117483223D01*
X104109329Y-117429030D01*
X104204999Y-117410000D01*
X104855001Y-117410000D01*
X104950671Y-117429030D01*
G37*
G04 #@! TD.AperFunction*
G04 #@! TA.AperFunction,SMDPad,CuDef*
G36*
X65435671Y-89489030D02*
G01*
X65516777Y-89543223D01*
X65570970Y-89624329D01*
X65590000Y-89719999D01*
X65590000Y-90620001D01*
X65570970Y-90715671D01*
X65516777Y-90796777D01*
X65435671Y-90850970D01*
X65340001Y-90870000D01*
X64689999Y-90870000D01*
X64594329Y-90850970D01*
X64513223Y-90796777D01*
X64459030Y-90715671D01*
X64440000Y-90620001D01*
X64440000Y-89719999D01*
X64459030Y-89624329D01*
X64513223Y-89543223D01*
X64594329Y-89489030D01*
X64689999Y-89470000D01*
X65340001Y-89470000D01*
X65435671Y-89489030D01*
G37*
G04 #@! TD.AperFunction*
G04 #@! TA.AperFunction,SMDPad,CuDef*
G36*
X67485671Y-89489030D02*
G01*
X67566777Y-89543223D01*
X67620970Y-89624329D01*
X67640000Y-89719999D01*
X67640000Y-90620001D01*
X67620970Y-90715671D01*
X67566777Y-90796777D01*
X67485671Y-90850970D01*
X67390001Y-90870000D01*
X66739999Y-90870000D01*
X66644329Y-90850970D01*
X66563223Y-90796777D01*
X66509030Y-90715671D01*
X66490000Y-90620001D01*
X66490000Y-89719999D01*
X66509030Y-89624329D01*
X66563223Y-89543223D01*
X66644329Y-89489030D01*
X66739999Y-89470000D01*
X67390001Y-89470000D01*
X67485671Y-89489030D01*
G37*
G04 #@! TD.AperFunction*
G04 #@! TA.AperFunction,SMDPad,CuDef*
G36*
X65435671Y-87584030D02*
G01*
X65516777Y-87638223D01*
X65570970Y-87719329D01*
X65590000Y-87814999D01*
X65590000Y-88715001D01*
X65570970Y-88810671D01*
X65516777Y-88891777D01*
X65435671Y-88945970D01*
X65340001Y-88965000D01*
X64689999Y-88965000D01*
X64594329Y-88945970D01*
X64513223Y-88891777D01*
X64459030Y-88810671D01*
X64440000Y-88715001D01*
X64440000Y-87814999D01*
X64459030Y-87719329D01*
X64513223Y-87638223D01*
X64594329Y-87584030D01*
X64689999Y-87565000D01*
X65340001Y-87565000D01*
X65435671Y-87584030D01*
G37*
G04 #@! TD.AperFunction*
G04 #@! TA.AperFunction,SMDPad,CuDef*
G36*
X67485671Y-87584030D02*
G01*
X67566777Y-87638223D01*
X67620970Y-87719329D01*
X67640000Y-87814999D01*
X67640000Y-88715001D01*
X67620970Y-88810671D01*
X67566777Y-88891777D01*
X67485671Y-88945970D01*
X67390001Y-88965000D01*
X66739999Y-88965000D01*
X66644329Y-88945970D01*
X66563223Y-88891777D01*
X66509030Y-88810671D01*
X66490000Y-88715001D01*
X66490000Y-87814999D01*
X66509030Y-87719329D01*
X66563223Y-87638223D01*
X66644329Y-87584030D01*
X66739999Y-87565000D01*
X67390001Y-87565000D01*
X67485671Y-87584030D01*
G37*
G04 #@! TD.AperFunction*
G04 #@! TA.AperFunction,SMDPad,CuDef*
G36*
X65435671Y-85679030D02*
G01*
X65516777Y-85733223D01*
X65570970Y-85814329D01*
X65590000Y-85909999D01*
X65590000Y-86810001D01*
X65570970Y-86905671D01*
X65516777Y-86986777D01*
X65435671Y-87040970D01*
X65340001Y-87060000D01*
X64689999Y-87060000D01*
X64594329Y-87040970D01*
X64513223Y-86986777D01*
X64459030Y-86905671D01*
X64440000Y-86810001D01*
X64440000Y-85909999D01*
X64459030Y-85814329D01*
X64513223Y-85733223D01*
X64594329Y-85679030D01*
X64689999Y-85660000D01*
X65340001Y-85660000D01*
X65435671Y-85679030D01*
G37*
G04 #@! TD.AperFunction*
G04 #@! TA.AperFunction,SMDPad,CuDef*
G36*
X67485671Y-85679030D02*
G01*
X67566777Y-85733223D01*
X67620970Y-85814329D01*
X67640000Y-85909999D01*
X67640000Y-86810001D01*
X67620970Y-86905671D01*
X67566777Y-86986777D01*
X67485671Y-87040970D01*
X67390001Y-87060000D01*
X66739999Y-87060000D01*
X66644329Y-87040970D01*
X66563223Y-86986777D01*
X66509030Y-86905671D01*
X66490000Y-86810001D01*
X66490000Y-85909999D01*
X66509030Y-85814329D01*
X66563223Y-85733223D01*
X66644329Y-85679030D01*
X66739999Y-85660000D01*
X67390001Y-85660000D01*
X67485671Y-85679030D01*
G37*
G04 #@! TD.AperFunction*
G04 #@! TA.AperFunction,SMDPad,CuDef*
G36*
X65435671Y-83774030D02*
G01*
X65516777Y-83828223D01*
X65570970Y-83909329D01*
X65590000Y-84004999D01*
X65590000Y-84905001D01*
X65570970Y-85000671D01*
X65516777Y-85081777D01*
X65435671Y-85135970D01*
X65340001Y-85155000D01*
X64689999Y-85155000D01*
X64594329Y-85135970D01*
X64513223Y-85081777D01*
X64459030Y-85000671D01*
X64440000Y-84905001D01*
X64440000Y-84004999D01*
X64459030Y-83909329D01*
X64513223Y-83828223D01*
X64594329Y-83774030D01*
X64689999Y-83755000D01*
X65340001Y-83755000D01*
X65435671Y-83774030D01*
G37*
G04 #@! TD.AperFunction*
G04 #@! TA.AperFunction,SMDPad,CuDef*
G36*
X67485671Y-83774030D02*
G01*
X67566777Y-83828223D01*
X67620970Y-83909329D01*
X67640000Y-84004999D01*
X67640000Y-84905001D01*
X67620970Y-85000671D01*
X67566777Y-85081777D01*
X67485671Y-85135970D01*
X67390001Y-85155000D01*
X66739999Y-85155000D01*
X66644329Y-85135970D01*
X66563223Y-85081777D01*
X66509030Y-85000671D01*
X66490000Y-84905001D01*
X66490000Y-84004999D01*
X66509030Y-83909329D01*
X66563223Y-83828223D01*
X66644329Y-83774030D01*
X66739999Y-83755000D01*
X67390001Y-83755000D01*
X67485671Y-83774030D01*
G37*
G04 #@! TD.AperFunction*
G04 #@! TA.AperFunction,SMDPad,CuDef*
G36*
X65435671Y-81869030D02*
G01*
X65516777Y-81923223D01*
X65570970Y-82004329D01*
X65590000Y-82099999D01*
X65590000Y-83000001D01*
X65570970Y-83095671D01*
X65516777Y-83176777D01*
X65435671Y-83230970D01*
X65340001Y-83250000D01*
X64689999Y-83250000D01*
X64594329Y-83230970D01*
X64513223Y-83176777D01*
X64459030Y-83095671D01*
X64440000Y-83000001D01*
X64440000Y-82099999D01*
X64459030Y-82004329D01*
X64513223Y-81923223D01*
X64594329Y-81869030D01*
X64689999Y-81850000D01*
X65340001Y-81850000D01*
X65435671Y-81869030D01*
G37*
G04 #@! TD.AperFunction*
G04 #@! TA.AperFunction,SMDPad,CuDef*
G36*
X67485671Y-81869030D02*
G01*
X67566777Y-81923223D01*
X67620970Y-82004329D01*
X67640000Y-82099999D01*
X67640000Y-83000001D01*
X67620970Y-83095671D01*
X67566777Y-83176777D01*
X67485671Y-83230970D01*
X67390001Y-83250000D01*
X66739999Y-83250000D01*
X66644329Y-83230970D01*
X66563223Y-83176777D01*
X66509030Y-83095671D01*
X66490000Y-83000001D01*
X66490000Y-82099999D01*
X66509030Y-82004329D01*
X66563223Y-81923223D01*
X66644329Y-81869030D01*
X66739999Y-81850000D01*
X67390001Y-81850000D01*
X67485671Y-81869030D01*
G37*
G04 #@! TD.AperFunction*
G04 #@! TA.AperFunction,SMDPad,CuDef*
G36*
X65435671Y-79964030D02*
G01*
X65516777Y-80018223D01*
X65570970Y-80099329D01*
X65590000Y-80194999D01*
X65590000Y-81095001D01*
X65570970Y-81190671D01*
X65516777Y-81271777D01*
X65435671Y-81325970D01*
X65340001Y-81345000D01*
X64689999Y-81345000D01*
X64594329Y-81325970D01*
X64513223Y-81271777D01*
X64459030Y-81190671D01*
X64440000Y-81095001D01*
X64440000Y-80194999D01*
X64459030Y-80099329D01*
X64513223Y-80018223D01*
X64594329Y-79964030D01*
X64689999Y-79945000D01*
X65340001Y-79945000D01*
X65435671Y-79964030D01*
G37*
G04 #@! TD.AperFunction*
G04 #@! TA.AperFunction,SMDPad,CuDef*
G36*
X67485671Y-79964030D02*
G01*
X67566777Y-80018223D01*
X67620970Y-80099329D01*
X67640000Y-80194999D01*
X67640000Y-81095001D01*
X67620970Y-81190671D01*
X67566777Y-81271777D01*
X67485671Y-81325970D01*
X67390001Y-81345000D01*
X66739999Y-81345000D01*
X66644329Y-81325970D01*
X66563223Y-81271777D01*
X66509030Y-81190671D01*
X66490000Y-81095001D01*
X66490000Y-80194999D01*
X66509030Y-80099329D01*
X66563223Y-80018223D01*
X66644329Y-79964030D01*
X66739999Y-79945000D01*
X67390001Y-79945000D01*
X67485671Y-79964030D01*
G37*
G04 #@! TD.AperFunction*
G04 #@! TA.AperFunction,SMDPad,CuDef*
G36*
X77720671Y-49169030D02*
G01*
X77801777Y-49223223D01*
X77855970Y-49304329D01*
X77875000Y-49399999D01*
X77875000Y-50425001D01*
X77855970Y-50520671D01*
X77801777Y-50601777D01*
X77720671Y-50655970D01*
X77625001Y-50675000D01*
X74774999Y-50675000D01*
X74679329Y-50655970D01*
X74598223Y-50601777D01*
X74544030Y-50520671D01*
X74525000Y-50425001D01*
X74525000Y-49399999D01*
X74544030Y-49304329D01*
X74598223Y-49223223D01*
X74679329Y-49169030D01*
X74774999Y-49150000D01*
X77625001Y-49150000D01*
X77720671Y-49169030D01*
G37*
G04 #@! TD.AperFunction*
G04 #@! TA.AperFunction,SMDPad,CuDef*
G36*
X77720671Y-55144030D02*
G01*
X77801777Y-55198223D01*
X77855970Y-55279329D01*
X77875000Y-55374999D01*
X77875000Y-56400001D01*
X77855970Y-56495671D01*
X77801777Y-56576777D01*
X77720671Y-56630970D01*
X77625001Y-56650000D01*
X74774999Y-56650000D01*
X74679329Y-56630970D01*
X74598223Y-56576777D01*
X74544030Y-56495671D01*
X74525000Y-56400001D01*
X74525000Y-55374999D01*
X74544030Y-55279329D01*
X74598223Y-55198223D01*
X74679329Y-55144030D01*
X74774999Y-55125000D01*
X77625001Y-55125000D01*
X77720671Y-55144030D01*
G37*
G04 #@! TD.AperFunction*
G04 #@! TA.AperFunction,SMDPad,CuDef*
G36*
X91615671Y-119334030D02*
G01*
X91696777Y-119388223D01*
X91750970Y-119469329D01*
X91770000Y-119564999D01*
X91770000Y-120465001D01*
X91750970Y-120560671D01*
X91696777Y-120641777D01*
X91615671Y-120695970D01*
X91520001Y-120715000D01*
X90869999Y-120715000D01*
X90774329Y-120695970D01*
X90693223Y-120641777D01*
X90639030Y-120560671D01*
X90620000Y-120465001D01*
X90620000Y-119564999D01*
X90639030Y-119469329D01*
X90693223Y-119388223D01*
X90774329Y-119334030D01*
X90869999Y-119315000D01*
X91520001Y-119315000D01*
X91615671Y-119334030D01*
G37*
G04 #@! TD.AperFunction*
G04 #@! TA.AperFunction,SMDPad,CuDef*
G36*
X89565671Y-119334030D02*
G01*
X89646777Y-119388223D01*
X89700970Y-119469329D01*
X89720000Y-119564999D01*
X89720000Y-120465001D01*
X89700970Y-120560671D01*
X89646777Y-120641777D01*
X89565671Y-120695970D01*
X89470001Y-120715000D01*
X88819999Y-120715000D01*
X88724329Y-120695970D01*
X88643223Y-120641777D01*
X88589030Y-120560671D01*
X88570000Y-120465001D01*
X88570000Y-119564999D01*
X88589030Y-119469329D01*
X88643223Y-119388223D01*
X88724329Y-119334030D01*
X88819999Y-119315000D01*
X89470001Y-119315000D01*
X89565671Y-119334030D01*
G37*
G04 #@! TD.AperFunction*
G04 #@! TA.AperFunction,SMDPad,CuDef*
G36*
X66950671Y-59374030D02*
G01*
X67031777Y-59428223D01*
X67085970Y-59509329D01*
X67105000Y-59605000D01*
X67105000Y-60405000D01*
X67085970Y-60500671D01*
X67031777Y-60581777D01*
X66950671Y-60635970D01*
X66855000Y-60655000D01*
X63955000Y-60655000D01*
X63859329Y-60635970D01*
X63778223Y-60581777D01*
X63724030Y-60500671D01*
X63705000Y-60405000D01*
X63705000Y-59605000D01*
X63724030Y-59509329D01*
X63778223Y-59428223D01*
X63859329Y-59374030D01*
X63955000Y-59355000D01*
X66855000Y-59355000D01*
X66950671Y-59374030D01*
G37*
G04 #@! TD.AperFunction*
G04 #@! TA.AperFunction,SMDPad,CuDef*
G36*
X66950671Y-63824030D02*
G01*
X67031777Y-63878223D01*
X67085970Y-63959329D01*
X67105000Y-64055000D01*
X67105000Y-64855000D01*
X67085970Y-64950671D01*
X67031777Y-65031777D01*
X66950671Y-65085970D01*
X66855000Y-65105000D01*
X63955000Y-65105000D01*
X63859329Y-65085970D01*
X63778223Y-65031777D01*
X63724030Y-64950671D01*
X63705000Y-64855000D01*
X63705000Y-64055000D01*
X63724030Y-63959329D01*
X63778223Y-63878223D01*
X63859329Y-63824030D01*
X63955000Y-63805000D01*
X66855000Y-63805000D01*
X66950671Y-63824030D01*
G37*
G04 #@! TD.AperFunction*
G04 #@! TA.AperFunction,SMDPad,CuDef*
G36*
X71395671Y-59374030D02*
G01*
X71476777Y-59428223D01*
X71530970Y-59509329D01*
X71550000Y-59605000D01*
X71550000Y-60405000D01*
X71530970Y-60500671D01*
X71476777Y-60581777D01*
X71395671Y-60635970D01*
X71300000Y-60655000D01*
X68400000Y-60655000D01*
X68304329Y-60635970D01*
X68223223Y-60581777D01*
X68169030Y-60500671D01*
X68150000Y-60405000D01*
X68150000Y-59605000D01*
X68169030Y-59509329D01*
X68223223Y-59428223D01*
X68304329Y-59374030D01*
X68400000Y-59355000D01*
X71300000Y-59355000D01*
X71395671Y-59374030D01*
G37*
G04 #@! TD.AperFunction*
G04 #@! TA.AperFunction,SMDPad,CuDef*
G36*
X71395671Y-63824030D02*
G01*
X71476777Y-63878223D01*
X71530970Y-63959329D01*
X71550000Y-64055000D01*
X71550000Y-64855000D01*
X71530970Y-64950671D01*
X71476777Y-65031777D01*
X71395671Y-65085970D01*
X71300000Y-65105000D01*
X68400000Y-65105000D01*
X68304329Y-65085970D01*
X68223223Y-65031777D01*
X68169030Y-64950671D01*
X68150000Y-64855000D01*
X68150000Y-64055000D01*
X68169030Y-63959329D01*
X68223223Y-63878223D01*
X68304329Y-63824030D01*
X68400000Y-63805000D01*
X71300000Y-63805000D01*
X71395671Y-63824030D01*
G37*
G04 #@! TD.AperFunction*
G04 #@! TA.AperFunction,SMDPad,CuDef*
G36*
X65435671Y-126319030D02*
G01*
X65516777Y-126373223D01*
X65570970Y-126454329D01*
X65590000Y-126549999D01*
X65590000Y-127450001D01*
X65570970Y-127545671D01*
X65516777Y-127626777D01*
X65435671Y-127680970D01*
X65340001Y-127700000D01*
X64689999Y-127700000D01*
X64594329Y-127680970D01*
X64513223Y-127626777D01*
X64459030Y-127545671D01*
X64440000Y-127450001D01*
X64440000Y-126549999D01*
X64459030Y-126454329D01*
X64513223Y-126373223D01*
X64594329Y-126319030D01*
X64689999Y-126300000D01*
X65340001Y-126300000D01*
X65435671Y-126319030D01*
G37*
G04 #@! TD.AperFunction*
G04 #@! TA.AperFunction,SMDPad,CuDef*
G36*
X67485671Y-126319030D02*
G01*
X67566777Y-126373223D01*
X67620970Y-126454329D01*
X67640000Y-126549999D01*
X67640000Y-127450001D01*
X67620970Y-127545671D01*
X67566777Y-127626777D01*
X67485671Y-127680970D01*
X67390001Y-127700000D01*
X66739999Y-127700000D01*
X66644329Y-127680970D01*
X66563223Y-127626777D01*
X66509030Y-127545671D01*
X66490000Y-127450001D01*
X66490000Y-126549999D01*
X66509030Y-126454329D01*
X66563223Y-126373223D01*
X66644329Y-126319030D01*
X66739999Y-126300000D01*
X67390001Y-126300000D01*
X67485671Y-126319030D01*
G37*
G04 #@! TD.AperFunction*
G04 #@! TA.AperFunction,SMDPad,CuDef*
G36*
X65435671Y-123779030D02*
G01*
X65516777Y-123833223D01*
X65570970Y-123914329D01*
X65590000Y-124009999D01*
X65590000Y-124910001D01*
X65570970Y-125005671D01*
X65516777Y-125086777D01*
X65435671Y-125140970D01*
X65340001Y-125160000D01*
X64689999Y-125160000D01*
X64594329Y-125140970D01*
X64513223Y-125086777D01*
X64459030Y-125005671D01*
X64440000Y-124910001D01*
X64440000Y-124009999D01*
X64459030Y-123914329D01*
X64513223Y-123833223D01*
X64594329Y-123779030D01*
X64689999Y-123760000D01*
X65340001Y-123760000D01*
X65435671Y-123779030D01*
G37*
G04 #@! TD.AperFunction*
G04 #@! TA.AperFunction,SMDPad,CuDef*
G36*
X67485671Y-123779030D02*
G01*
X67566777Y-123833223D01*
X67620970Y-123914329D01*
X67640000Y-124009999D01*
X67640000Y-124910001D01*
X67620970Y-125005671D01*
X67566777Y-125086777D01*
X67485671Y-125140970D01*
X67390001Y-125160000D01*
X66739999Y-125160000D01*
X66644329Y-125140970D01*
X66563223Y-125086777D01*
X66509030Y-125005671D01*
X66490000Y-124910001D01*
X66490000Y-124009999D01*
X66509030Y-123914329D01*
X66563223Y-123833223D01*
X66644329Y-123779030D01*
X66739999Y-123760000D01*
X67390001Y-123760000D01*
X67485671Y-123779030D01*
G37*
G04 #@! TD.AperFunction*
G04 #@! TA.AperFunction,SMDPad,CuDef*
G36*
X82460671Y-125564030D02*
G01*
X82541777Y-125618223D01*
X82595970Y-125699329D01*
X82615000Y-125794999D01*
X82615000Y-126445001D01*
X82595970Y-126540671D01*
X82541777Y-126621777D01*
X82460671Y-126675970D01*
X82365001Y-126695000D01*
X81464999Y-126695000D01*
X81369329Y-126675970D01*
X81288223Y-126621777D01*
X81234030Y-126540671D01*
X81215000Y-126445001D01*
X81215000Y-125794999D01*
X81234030Y-125699329D01*
X81288223Y-125618223D01*
X81369329Y-125564030D01*
X81464999Y-125545000D01*
X82365001Y-125545000D01*
X82460671Y-125564030D01*
G37*
G04 #@! TD.AperFunction*
G04 #@! TA.AperFunction,SMDPad,CuDef*
G36*
X82460671Y-123514030D02*
G01*
X82541777Y-123568223D01*
X82595970Y-123649329D01*
X82615000Y-123744999D01*
X82615000Y-124395001D01*
X82595970Y-124490671D01*
X82541777Y-124571777D01*
X82460671Y-124625970D01*
X82365001Y-124645000D01*
X81464999Y-124645000D01*
X81369329Y-124625970D01*
X81288223Y-124571777D01*
X81234030Y-124490671D01*
X81215000Y-124395001D01*
X81215000Y-123744999D01*
X81234030Y-123649329D01*
X81288223Y-123568223D01*
X81369329Y-123514030D01*
X81464999Y-123495000D01*
X82365001Y-123495000D01*
X82460671Y-123514030D01*
G37*
G04 #@! TD.AperFunction*
G04 #@! TA.AperFunction,SMDPad,CuDef*
G36*
X112670671Y-123779030D02*
G01*
X112751777Y-123833223D01*
X112805970Y-123914329D01*
X112825000Y-124009999D01*
X112825000Y-124910001D01*
X112805970Y-125005671D01*
X112751777Y-125086777D01*
X112670671Y-125140970D01*
X112575001Y-125160000D01*
X111924999Y-125160000D01*
X111829329Y-125140970D01*
X111748223Y-125086777D01*
X111694030Y-125005671D01*
X111675000Y-124910001D01*
X111675000Y-124009999D01*
X111694030Y-123914329D01*
X111748223Y-123833223D01*
X111829329Y-123779030D01*
X111924999Y-123760000D01*
X112575001Y-123760000D01*
X112670671Y-123779030D01*
G37*
G04 #@! TD.AperFunction*
G04 #@! TA.AperFunction,SMDPad,CuDef*
G36*
X114720671Y-123779030D02*
G01*
X114801777Y-123833223D01*
X114855970Y-123914329D01*
X114875000Y-124009999D01*
X114875000Y-124910001D01*
X114855970Y-125005671D01*
X114801777Y-125086777D01*
X114720671Y-125140970D01*
X114625001Y-125160000D01*
X113974999Y-125160000D01*
X113879329Y-125140970D01*
X113798223Y-125086777D01*
X113744030Y-125005671D01*
X113725000Y-124910001D01*
X113725000Y-124009999D01*
X113744030Y-123914329D01*
X113798223Y-123833223D01*
X113879329Y-123779030D01*
X113974999Y-123760000D01*
X114625001Y-123760000D01*
X114720671Y-123779030D01*
G37*
G04 #@! TD.AperFunction*
G04 #@! TA.AperFunction,SMDPad,CuDef*
G36*
X124000671Y-117429030D02*
G01*
X124081777Y-117483223D01*
X124135970Y-117564329D01*
X124155000Y-117659999D01*
X124155000Y-118560001D01*
X124135970Y-118655671D01*
X124081777Y-118736777D01*
X124000671Y-118790970D01*
X123905001Y-118810000D01*
X123254999Y-118810000D01*
X123159329Y-118790970D01*
X123078223Y-118736777D01*
X123024030Y-118655671D01*
X123005000Y-118560001D01*
X123005000Y-117659999D01*
X123024030Y-117564329D01*
X123078223Y-117483223D01*
X123159329Y-117429030D01*
X123254999Y-117410000D01*
X123905001Y-117410000D01*
X124000671Y-117429030D01*
G37*
G04 #@! TD.AperFunction*
G04 #@! TA.AperFunction,SMDPad,CuDef*
G36*
X121950671Y-117429030D02*
G01*
X122031777Y-117483223D01*
X122085970Y-117564329D01*
X122105000Y-117659999D01*
X122105000Y-118560001D01*
X122085970Y-118655671D01*
X122031777Y-118736777D01*
X121950671Y-118790970D01*
X121855001Y-118810000D01*
X121204999Y-118810000D01*
X121109329Y-118790970D01*
X121028223Y-118736777D01*
X120974030Y-118655671D01*
X120955000Y-118560001D01*
X120955000Y-117659999D01*
X120974030Y-117564329D01*
X121028223Y-117483223D01*
X121109329Y-117429030D01*
X121204999Y-117410000D01*
X121855001Y-117410000D01*
X121950671Y-117429030D01*
G37*
G04 #@! TD.AperFunction*
G04 #@! TA.AperFunction,SMDPad,CuDef*
G36*
X124000671Y-119969030D02*
G01*
X124081777Y-120023223D01*
X124135970Y-120104329D01*
X124155000Y-120199999D01*
X124155000Y-121100001D01*
X124135970Y-121195671D01*
X124081777Y-121276777D01*
X124000671Y-121330970D01*
X123905001Y-121350000D01*
X123254999Y-121350000D01*
X123159329Y-121330970D01*
X123078223Y-121276777D01*
X123024030Y-121195671D01*
X123005000Y-121100001D01*
X123005000Y-120199999D01*
X123024030Y-120104329D01*
X123078223Y-120023223D01*
X123159329Y-119969030D01*
X123254999Y-119950000D01*
X123905001Y-119950000D01*
X124000671Y-119969030D01*
G37*
G04 #@! TD.AperFunction*
G04 #@! TA.AperFunction,SMDPad,CuDef*
G36*
X121950671Y-119969030D02*
G01*
X122031777Y-120023223D01*
X122085970Y-120104329D01*
X122105000Y-120199999D01*
X122105000Y-121100001D01*
X122085970Y-121195671D01*
X122031777Y-121276777D01*
X121950671Y-121330970D01*
X121855001Y-121350000D01*
X121204999Y-121350000D01*
X121109329Y-121330970D01*
X121028223Y-121276777D01*
X120974030Y-121195671D01*
X120955000Y-121100001D01*
X120955000Y-120199999D01*
X120974030Y-120104329D01*
X121028223Y-120023223D01*
X121109329Y-119969030D01*
X121204999Y-119950000D01*
X121855001Y-119950000D01*
X121950671Y-119969030D01*
G37*
G04 #@! TD.AperFunction*
G04 #@! TA.AperFunction,SMDPad,CuDef*
G36*
X92885671Y-99014030D02*
G01*
X92966777Y-99068223D01*
X93020970Y-99149329D01*
X93040000Y-99244999D01*
X93040000Y-100145001D01*
X93020970Y-100240671D01*
X92966777Y-100321777D01*
X92885671Y-100375970D01*
X92790001Y-100395000D01*
X92139999Y-100395000D01*
X92044329Y-100375970D01*
X91963223Y-100321777D01*
X91909030Y-100240671D01*
X91890000Y-100145001D01*
X91890000Y-99244999D01*
X91909030Y-99149329D01*
X91963223Y-99068223D01*
X92044329Y-99014030D01*
X92139999Y-98995000D01*
X92790001Y-98995000D01*
X92885671Y-99014030D01*
G37*
G04 #@! TD.AperFunction*
G04 #@! TA.AperFunction,SMDPad,CuDef*
G36*
X90835671Y-99014030D02*
G01*
X90916777Y-99068223D01*
X90970970Y-99149329D01*
X90990000Y-99244999D01*
X90990000Y-100145001D01*
X90970970Y-100240671D01*
X90916777Y-100321777D01*
X90835671Y-100375970D01*
X90740001Y-100395000D01*
X90089999Y-100395000D01*
X89994329Y-100375970D01*
X89913223Y-100321777D01*
X89859030Y-100240671D01*
X89840000Y-100145001D01*
X89840000Y-99244999D01*
X89859030Y-99149329D01*
X89913223Y-99068223D01*
X89994329Y-99014030D01*
X90089999Y-98995000D01*
X90740001Y-98995000D01*
X90835671Y-99014030D01*
G37*
G04 #@! TD.AperFunction*
G04 #@! TA.AperFunction,SMDPad,CuDef*
G36*
X92885671Y-101554030D02*
G01*
X92966777Y-101608223D01*
X93020970Y-101689329D01*
X93040000Y-101784999D01*
X93040000Y-102685001D01*
X93020970Y-102780671D01*
X92966777Y-102861777D01*
X92885671Y-102915970D01*
X92790001Y-102935000D01*
X92139999Y-102935000D01*
X92044329Y-102915970D01*
X91963223Y-102861777D01*
X91909030Y-102780671D01*
X91890000Y-102685001D01*
X91890000Y-101784999D01*
X91909030Y-101689329D01*
X91963223Y-101608223D01*
X92044329Y-101554030D01*
X92139999Y-101535000D01*
X92790001Y-101535000D01*
X92885671Y-101554030D01*
G37*
G04 #@! TD.AperFunction*
G04 #@! TA.AperFunction,SMDPad,CuDef*
G36*
X90835671Y-101554030D02*
G01*
X90916777Y-101608223D01*
X90970970Y-101689329D01*
X90990000Y-101784999D01*
X90990000Y-102685001D01*
X90970970Y-102780671D01*
X90916777Y-102861777D01*
X90835671Y-102915970D01*
X90740001Y-102935000D01*
X90089999Y-102935000D01*
X89994329Y-102915970D01*
X89913223Y-102861777D01*
X89859030Y-102780671D01*
X89840000Y-102685001D01*
X89840000Y-101784999D01*
X89859030Y-101689329D01*
X89913223Y-101608223D01*
X89994329Y-101554030D01*
X90089999Y-101535000D01*
X90740001Y-101535000D01*
X90835671Y-101554030D01*
G37*
G04 #@! TD.AperFunction*
G04 #@! TA.AperFunction,SMDPad,CuDef*
G36*
X143420671Y-78429030D02*
G01*
X143501777Y-78483223D01*
X143555970Y-78564329D01*
X143575000Y-78659999D01*
X143575000Y-79310001D01*
X143555970Y-79405671D01*
X143501777Y-79486777D01*
X143420671Y-79540970D01*
X143325001Y-79560000D01*
X142424999Y-79560000D01*
X142329329Y-79540970D01*
X142248223Y-79486777D01*
X142194030Y-79405671D01*
X142175000Y-79310001D01*
X142175000Y-78659999D01*
X142194030Y-78564329D01*
X142248223Y-78483223D01*
X142329329Y-78429030D01*
X142424999Y-78410000D01*
X143325001Y-78410000D01*
X143420671Y-78429030D01*
G37*
G04 #@! TD.AperFunction*
G04 #@! TA.AperFunction,SMDPad,CuDef*
G36*
X143420671Y-80479030D02*
G01*
X143501777Y-80533223D01*
X143555970Y-80614329D01*
X143575000Y-80709999D01*
X143575000Y-81360001D01*
X143555970Y-81455671D01*
X143501777Y-81536777D01*
X143420671Y-81590970D01*
X143325001Y-81610000D01*
X142424999Y-81610000D01*
X142329329Y-81590970D01*
X142248223Y-81536777D01*
X142194030Y-81455671D01*
X142175000Y-81360001D01*
X142175000Y-80709999D01*
X142194030Y-80614329D01*
X142248223Y-80533223D01*
X142329329Y-80479030D01*
X142424999Y-80460000D01*
X143325001Y-80460000D01*
X143420671Y-80479030D01*
G37*
G04 #@! TD.AperFunction*
G04 #@! TA.AperFunction,SMDPad,CuDef*
G36*
X145325671Y-80479030D02*
G01*
X145406777Y-80533223D01*
X145460970Y-80614329D01*
X145480000Y-80709999D01*
X145480000Y-81360001D01*
X145460970Y-81455671D01*
X145406777Y-81536777D01*
X145325671Y-81590970D01*
X145230001Y-81610000D01*
X144329999Y-81610000D01*
X144234329Y-81590970D01*
X144153223Y-81536777D01*
X144099030Y-81455671D01*
X144080000Y-81360001D01*
X144080000Y-80709999D01*
X144099030Y-80614329D01*
X144153223Y-80533223D01*
X144234329Y-80479030D01*
X144329999Y-80460000D01*
X145230001Y-80460000D01*
X145325671Y-80479030D01*
G37*
G04 #@! TD.AperFunction*
G04 #@! TA.AperFunction,SMDPad,CuDef*
G36*
X145325671Y-78429030D02*
G01*
X145406777Y-78483223D01*
X145460970Y-78564329D01*
X145480000Y-78659999D01*
X145480000Y-79310001D01*
X145460970Y-79405671D01*
X145406777Y-79486777D01*
X145325671Y-79540970D01*
X145230001Y-79560000D01*
X144329999Y-79560000D01*
X144234329Y-79540970D01*
X144153223Y-79486777D01*
X144099030Y-79405671D01*
X144080000Y-79310001D01*
X144080000Y-78659999D01*
X144099030Y-78564329D01*
X144153223Y-78483223D01*
X144234329Y-78429030D01*
X144329999Y-78410000D01*
X145230001Y-78410000D01*
X145325671Y-78429030D01*
G37*
G04 #@! TD.AperFunction*
G04 #@! TA.AperFunction,SMDPad,CuDef*
G36*
X147230671Y-78429030D02*
G01*
X147311777Y-78483223D01*
X147365970Y-78564329D01*
X147385000Y-78659999D01*
X147385000Y-79310001D01*
X147365970Y-79405671D01*
X147311777Y-79486777D01*
X147230671Y-79540970D01*
X147135001Y-79560000D01*
X146234999Y-79560000D01*
X146139329Y-79540970D01*
X146058223Y-79486777D01*
X146004030Y-79405671D01*
X145985000Y-79310001D01*
X145985000Y-78659999D01*
X146004030Y-78564329D01*
X146058223Y-78483223D01*
X146139329Y-78429030D01*
X146234999Y-78410000D01*
X147135001Y-78410000D01*
X147230671Y-78429030D01*
G37*
G04 #@! TD.AperFunction*
G04 #@! TA.AperFunction,SMDPad,CuDef*
G36*
X147230671Y-80479030D02*
G01*
X147311777Y-80533223D01*
X147365970Y-80614329D01*
X147385000Y-80709999D01*
X147385000Y-81360001D01*
X147365970Y-81455671D01*
X147311777Y-81536777D01*
X147230671Y-81590970D01*
X147135001Y-81610000D01*
X146234999Y-81610000D01*
X146139329Y-81590970D01*
X146058223Y-81536777D01*
X146004030Y-81455671D01*
X145985000Y-81360001D01*
X145985000Y-80709999D01*
X146004030Y-80614329D01*
X146058223Y-80533223D01*
X146139329Y-80479030D01*
X146234999Y-80460000D01*
X147135001Y-80460000D01*
X147230671Y-80479030D01*
G37*
G04 #@! TD.AperFunction*
D24*
X119380000Y-87835000D03*
X119380000Y-64135000D03*
D25*
X105410000Y-132715000D03*
X105410000Y-130175000D03*
X105410000Y-127635000D03*
X105410000Y-125095000D03*
D26*
X105410000Y-122555000D03*
G04 #@! TA.AperFunction,SMDPad,CuDef*
G36*
X64315671Y-72614030D02*
G01*
X64396777Y-72668223D01*
X64450970Y-72749329D01*
X64470000Y-72845000D01*
X64470000Y-75745000D01*
X64450970Y-75840671D01*
X64396777Y-75921777D01*
X64315671Y-75975970D01*
X64220000Y-75995000D01*
X63420000Y-75995000D01*
X63324329Y-75975970D01*
X63243223Y-75921777D01*
X63189030Y-75840671D01*
X63170000Y-75745000D01*
X63170000Y-72845000D01*
X63189030Y-72749329D01*
X63243223Y-72668223D01*
X63324329Y-72614030D01*
X63420000Y-72595000D01*
X64220000Y-72595000D01*
X64315671Y-72614030D01*
G37*
G04 #@! TD.AperFunction*
G04 #@! TA.AperFunction,SMDPad,CuDef*
G36*
X59865671Y-72614030D02*
G01*
X59946777Y-72668223D01*
X60000970Y-72749329D01*
X60020000Y-72845000D01*
X60020000Y-75745000D01*
X60000970Y-75840671D01*
X59946777Y-75921777D01*
X59865671Y-75975970D01*
X59770000Y-75995000D01*
X58970000Y-75995000D01*
X58874329Y-75975970D01*
X58793223Y-75921777D01*
X58739030Y-75840671D01*
X58720000Y-75745000D01*
X58720000Y-72845000D01*
X58739030Y-72749329D01*
X58793223Y-72668223D01*
X58874329Y-72614030D01*
X58970000Y-72595000D01*
X59770000Y-72595000D01*
X59865671Y-72614030D01*
G37*
G04 #@! TD.AperFunction*
G04 #@! TA.AperFunction,SMDPad,CuDef*
G36*
X64315671Y-67534030D02*
G01*
X64396777Y-67588223D01*
X64450970Y-67669329D01*
X64470000Y-67765000D01*
X64470000Y-70665000D01*
X64450970Y-70760671D01*
X64396777Y-70841777D01*
X64315671Y-70895970D01*
X64220000Y-70915000D01*
X63420000Y-70915000D01*
X63324329Y-70895970D01*
X63243223Y-70841777D01*
X63189030Y-70760671D01*
X63170000Y-70665000D01*
X63170000Y-67765000D01*
X63189030Y-67669329D01*
X63243223Y-67588223D01*
X63324329Y-67534030D01*
X63420000Y-67515000D01*
X64220000Y-67515000D01*
X64315671Y-67534030D01*
G37*
G04 #@! TD.AperFunction*
G04 #@! TA.AperFunction,SMDPad,CuDef*
G36*
X59865671Y-67534030D02*
G01*
X59946777Y-67588223D01*
X60000970Y-67669329D01*
X60020000Y-67765000D01*
X60020000Y-70665000D01*
X60000970Y-70760671D01*
X59946777Y-70841777D01*
X59865671Y-70895970D01*
X59770000Y-70915000D01*
X58970000Y-70915000D01*
X58874329Y-70895970D01*
X58793223Y-70841777D01*
X58739030Y-70760671D01*
X58720000Y-70665000D01*
X58720000Y-67765000D01*
X58739030Y-67669329D01*
X58793223Y-67588223D01*
X58874329Y-67534030D01*
X58970000Y-67515000D01*
X59770000Y-67515000D01*
X59865671Y-67534030D01*
G37*
G04 #@! TD.AperFunction*
D27*
X127095000Y-92710000D03*
X123095000Y-92710000D03*
D28*
X141605000Y-114680000D03*
X141605000Y-111380000D03*
X110490000Y-96265000D03*
X110490000Y-92965000D03*
D29*
X91695000Y-95885000D03*
X94995000Y-95885000D03*
X122810000Y-114300000D03*
X126110000Y-114300000D03*
X126110000Y-111760000D03*
X122810000Y-111760000D03*
X94995000Y-93345000D03*
X91695000Y-93345000D03*
D30*
X57150000Y-85725000D03*
D20*
X57150000Y-88265000D03*
D30*
X54610000Y-85725000D03*
D20*
X54610000Y-88265000D03*
D30*
X52070000Y-85725000D03*
D20*
X52070000Y-88265000D03*
D30*
X57150000Y-80645000D03*
D20*
X57150000Y-83185000D03*
D30*
X54610000Y-80645000D03*
D20*
X54610000Y-83185000D03*
D30*
X52070000Y-80645000D03*
D20*
X52070000Y-83185000D03*
D28*
X69215000Y-127380000D03*
X69215000Y-124080000D03*
D14*
X76200000Y-72390000D03*
D15*
X78480000Y-78690000D03*
X73920000Y-78690000D03*
D14*
X76200000Y-83820000D03*
D15*
X78480000Y-90120000D03*
X73920000Y-90120000D03*
D14*
X84455000Y-72390000D03*
D15*
X86735000Y-78690000D03*
X82175000Y-78690000D03*
D14*
X84455000Y-83820000D03*
D15*
X86735000Y-90120000D03*
X82175000Y-90120000D03*
D29*
X137032000Y-125222000D03*
X133732000Y-125222000D03*
X105790000Y-106045000D03*
X102490000Y-106045000D03*
D14*
X136525000Y-85090000D03*
D15*
X134245000Y-78790000D03*
X138805000Y-78790000D03*
D14*
X136525000Y-69460000D03*
D15*
X138805000Y-75760000D03*
X134245000Y-75760000D03*
D31*
X104140000Y-63405000D03*
X104140000Y-67405000D03*
D32*
X105850000Y-49530000D03*
D33*
X112150000Y-47250000D03*
X112150000Y-51810000D03*
D32*
X121480000Y-49530000D03*
D33*
X115180000Y-51810000D03*
X115180000Y-47250000D03*
D32*
X110050000Y-57150000D03*
D33*
X103750000Y-59430000D03*
X103750000Y-54870000D03*
D32*
X117280000Y-57150000D03*
D33*
X123580000Y-54870000D03*
X123580000Y-59430000D03*
G04 #@! TA.AperFunction,SMDPad,CuDef*
G36*
X97615671Y-61329030D02*
G01*
X97696777Y-61383223D01*
X97750970Y-61464329D01*
X97770000Y-61560000D01*
X97770000Y-65060000D01*
X97750970Y-65155671D01*
X97696777Y-65236777D01*
X97615671Y-65290970D01*
X97520000Y-65310000D01*
X95520000Y-65310000D01*
X95424329Y-65290970D01*
X95343223Y-65236777D01*
X95289030Y-65155671D01*
X95270000Y-65060000D01*
X95270000Y-61560000D01*
X95289030Y-61464329D01*
X95343223Y-61383223D01*
X95424329Y-61329030D01*
X95520000Y-61310000D01*
X97520000Y-61310000D01*
X97615671Y-61329030D01*
G37*
G04 #@! TD.AperFunction*
G04 #@! TA.AperFunction,SMDPad,CuDef*
G36*
X97615671Y-69329030D02*
G01*
X97696777Y-69383223D01*
X97750970Y-69464329D01*
X97770000Y-69560000D01*
X97770000Y-73060000D01*
X97750970Y-73155671D01*
X97696777Y-73236777D01*
X97615671Y-73290970D01*
X97520000Y-73310000D01*
X95520000Y-73310000D01*
X95424329Y-73290970D01*
X95343223Y-73236777D01*
X95289030Y-73155671D01*
X95270000Y-73060000D01*
X95270000Y-69560000D01*
X95289030Y-69464329D01*
X95343223Y-69383223D01*
X95424329Y-69329030D01*
X95520000Y-69310000D01*
X97520000Y-69310000D01*
X97615671Y-69329030D01*
G37*
G04 #@! TD.AperFunction*
G04 #@! TA.AperFunction,SMDPad,CuDef*
G36*
X121670671Y-99099030D02*
G01*
X121751777Y-99153223D01*
X121805970Y-99234329D01*
X121825000Y-99330000D01*
X121825000Y-101330000D01*
X121805970Y-101425671D01*
X121751777Y-101506777D01*
X121670671Y-101560970D01*
X121575000Y-101580000D01*
X118075000Y-101580000D01*
X117979329Y-101560970D01*
X117898223Y-101506777D01*
X117844030Y-101425671D01*
X117825000Y-101330000D01*
X117825000Y-99330000D01*
X117844030Y-99234329D01*
X117898223Y-99153223D01*
X117979329Y-99099030D01*
X118075000Y-99080000D01*
X121575000Y-99080000D01*
X121670671Y-99099030D01*
G37*
G04 #@! TD.AperFunction*
G04 #@! TA.AperFunction,SMDPad,CuDef*
G36*
X129670671Y-99099030D02*
G01*
X129751777Y-99153223D01*
X129805970Y-99234329D01*
X129825000Y-99330000D01*
X129825000Y-101330000D01*
X129805970Y-101425671D01*
X129751777Y-101506777D01*
X129670671Y-101560970D01*
X129575000Y-101580000D01*
X126075000Y-101580000D01*
X125979329Y-101560970D01*
X125898223Y-101506777D01*
X125844030Y-101425671D01*
X125825000Y-101330000D01*
X125825000Y-99330000D01*
X125844030Y-99234329D01*
X125898223Y-99153223D01*
X125979329Y-99099030D01*
X126075000Y-99080000D01*
X129575000Y-99080000D01*
X129670671Y-99099030D01*
G37*
G04 #@! TD.AperFunction*
G04 #@! TA.AperFunction,SMDPad,CuDef*
G36*
X139610671Y-113499030D02*
G01*
X139691777Y-113553223D01*
X139745970Y-113634329D01*
X139765000Y-113729999D01*
X139765000Y-114380001D01*
X139745970Y-114475671D01*
X139691777Y-114556777D01*
X139610671Y-114610970D01*
X139515001Y-114630000D01*
X138614999Y-114630000D01*
X138519329Y-114610970D01*
X138438223Y-114556777D01*
X138384030Y-114475671D01*
X138365000Y-114380001D01*
X138365000Y-113729999D01*
X138384030Y-113634329D01*
X138438223Y-113553223D01*
X138519329Y-113499030D01*
X138614999Y-113480000D01*
X139515001Y-113480000D01*
X139610671Y-113499030D01*
G37*
G04 #@! TD.AperFunction*
G04 #@! TA.AperFunction,SMDPad,CuDef*
G36*
X139610671Y-111449030D02*
G01*
X139691777Y-111503223D01*
X139745970Y-111584329D01*
X139765000Y-111679999D01*
X139765000Y-112330001D01*
X139745970Y-112425671D01*
X139691777Y-112506777D01*
X139610671Y-112560970D01*
X139515001Y-112580000D01*
X138614999Y-112580000D01*
X138519329Y-112560970D01*
X138438223Y-112506777D01*
X138384030Y-112425671D01*
X138365000Y-112330001D01*
X138365000Y-111679999D01*
X138384030Y-111584329D01*
X138438223Y-111503223D01*
X138519329Y-111449030D01*
X138614999Y-111430000D01*
X139515001Y-111430000D01*
X139610671Y-111449030D01*
G37*
G04 #@! TD.AperFunction*
G04 #@! TA.AperFunction,SMDPad,CuDef*
G36*
X108495671Y-95084030D02*
G01*
X108576777Y-95138223D01*
X108630970Y-95219329D01*
X108650000Y-95314999D01*
X108650000Y-95965001D01*
X108630970Y-96060671D01*
X108576777Y-96141777D01*
X108495671Y-96195970D01*
X108400001Y-96215000D01*
X107499999Y-96215000D01*
X107404329Y-96195970D01*
X107323223Y-96141777D01*
X107269030Y-96060671D01*
X107250000Y-95965001D01*
X107250000Y-95314999D01*
X107269030Y-95219329D01*
X107323223Y-95138223D01*
X107404329Y-95084030D01*
X107499999Y-95065000D01*
X108400001Y-95065000D01*
X108495671Y-95084030D01*
G37*
G04 #@! TD.AperFunction*
G04 #@! TA.AperFunction,SMDPad,CuDef*
G36*
X108495671Y-93034030D02*
G01*
X108576777Y-93088223D01*
X108630970Y-93169329D01*
X108650000Y-93264999D01*
X108650000Y-93915001D01*
X108630970Y-94010671D01*
X108576777Y-94091777D01*
X108495671Y-94145970D01*
X108400001Y-94165000D01*
X107499999Y-94165000D01*
X107404329Y-94145970D01*
X107323223Y-94091777D01*
X107269030Y-94010671D01*
X107250000Y-93915001D01*
X107250000Y-93264999D01*
X107269030Y-93169329D01*
X107323223Y-93088223D01*
X107404329Y-93034030D01*
X107499999Y-93015000D01*
X108400001Y-93015000D01*
X108495671Y-93034030D01*
G37*
G04 #@! TD.AperFunction*
G04 #@! TA.AperFunction,SMDPad,CuDef*
G36*
X128815671Y-111059030D02*
G01*
X128896777Y-111113223D01*
X128950970Y-111194329D01*
X128970000Y-111289999D01*
X128970000Y-111940001D01*
X128950970Y-112035671D01*
X128896777Y-112116777D01*
X128815671Y-112170970D01*
X128720001Y-112190000D01*
X127819999Y-112190000D01*
X127724329Y-112170970D01*
X127643223Y-112116777D01*
X127589030Y-112035671D01*
X127570000Y-111940001D01*
X127570000Y-111289999D01*
X127589030Y-111194329D01*
X127643223Y-111113223D01*
X127724329Y-111059030D01*
X127819999Y-111040000D01*
X128720001Y-111040000D01*
X128815671Y-111059030D01*
G37*
G04 #@! TD.AperFunction*
G04 #@! TA.AperFunction,SMDPad,CuDef*
G36*
X128815671Y-113109030D02*
G01*
X128896777Y-113163223D01*
X128950970Y-113244329D01*
X128970000Y-113339999D01*
X128970000Y-113990001D01*
X128950970Y-114085671D01*
X128896777Y-114166777D01*
X128815671Y-114220970D01*
X128720001Y-114240000D01*
X127819999Y-114240000D01*
X127724329Y-114220970D01*
X127643223Y-114166777D01*
X127589030Y-114085671D01*
X127570000Y-113990001D01*
X127570000Y-113339999D01*
X127589030Y-113244329D01*
X127643223Y-113163223D01*
X127724329Y-113109030D01*
X127819999Y-113090000D01*
X128720001Y-113090000D01*
X128815671Y-113109030D01*
G37*
G04 #@! TD.AperFunction*
G04 #@! TA.AperFunction,SMDPad,CuDef*
G36*
X97700671Y-92399030D02*
G01*
X97781777Y-92453223D01*
X97835970Y-92534329D01*
X97855000Y-92629999D01*
X97855000Y-93280001D01*
X97835970Y-93375671D01*
X97781777Y-93456777D01*
X97700671Y-93510970D01*
X97605001Y-93530000D01*
X96704999Y-93530000D01*
X96609329Y-93510970D01*
X96528223Y-93456777D01*
X96474030Y-93375671D01*
X96455000Y-93280001D01*
X96455000Y-92629999D01*
X96474030Y-92534329D01*
X96528223Y-92453223D01*
X96609329Y-92399030D01*
X96704999Y-92380000D01*
X97605001Y-92380000D01*
X97700671Y-92399030D01*
G37*
G04 #@! TD.AperFunction*
G04 #@! TA.AperFunction,SMDPad,CuDef*
G36*
X97700671Y-94449030D02*
G01*
X97781777Y-94503223D01*
X97835970Y-94584329D01*
X97855000Y-94679999D01*
X97855000Y-95330001D01*
X97835970Y-95425671D01*
X97781777Y-95506777D01*
X97700671Y-95560970D01*
X97605001Y-95580000D01*
X96704999Y-95580000D01*
X96609329Y-95560970D01*
X96528223Y-95506777D01*
X96474030Y-95425671D01*
X96455000Y-95330001D01*
X96455000Y-94679999D01*
X96474030Y-94584329D01*
X96528223Y-94503223D01*
X96609329Y-94449030D01*
X96704999Y-94430000D01*
X97605001Y-94430000D01*
X97700671Y-94449030D01*
G37*
G04 #@! TD.AperFunction*
G04 #@! TA.AperFunction,SMDPad,CuDef*
G36*
X97820671Y-110444030D02*
G01*
X97901777Y-110498223D01*
X97955970Y-110579329D01*
X97975000Y-110674999D01*
X97975000Y-111575001D01*
X97955970Y-111670671D01*
X97901777Y-111751777D01*
X97820671Y-111805970D01*
X97725001Y-111825000D01*
X97074999Y-111825000D01*
X96979329Y-111805970D01*
X96898223Y-111751777D01*
X96844030Y-111670671D01*
X96825000Y-111575001D01*
X96825000Y-110674999D01*
X96844030Y-110579329D01*
X96898223Y-110498223D01*
X96979329Y-110444030D01*
X97074999Y-110425000D01*
X97725001Y-110425000D01*
X97820671Y-110444030D01*
G37*
G04 #@! TD.AperFunction*
G04 #@! TA.AperFunction,SMDPad,CuDef*
G36*
X99870671Y-110444030D02*
G01*
X99951777Y-110498223D01*
X100005970Y-110579329D01*
X100025000Y-110674999D01*
X100025000Y-111575001D01*
X100005970Y-111670671D01*
X99951777Y-111751777D01*
X99870671Y-111805970D01*
X99775001Y-111825000D01*
X99124999Y-111825000D01*
X99029329Y-111805970D01*
X98948223Y-111751777D01*
X98894030Y-111670671D01*
X98875000Y-111575001D01*
X98875000Y-110674999D01*
X98894030Y-110579329D01*
X98948223Y-110498223D01*
X99029329Y-110444030D01*
X99124999Y-110425000D01*
X99775001Y-110425000D01*
X99870671Y-110444030D01*
G37*
G04 #@! TD.AperFunction*
G04 #@! TA.AperFunction,SMDPad,CuDef*
G36*
X91615671Y-107904030D02*
G01*
X91696777Y-107958223D01*
X91750970Y-108039329D01*
X91770000Y-108134999D01*
X91770000Y-109035001D01*
X91750970Y-109130671D01*
X91696777Y-109211777D01*
X91615671Y-109265970D01*
X91520001Y-109285000D01*
X90869999Y-109285000D01*
X90774329Y-109265970D01*
X90693223Y-109211777D01*
X90639030Y-109130671D01*
X90620000Y-109035001D01*
X90620000Y-108134999D01*
X90639030Y-108039329D01*
X90693223Y-107958223D01*
X90774329Y-107904030D01*
X90869999Y-107885000D01*
X91520001Y-107885000D01*
X91615671Y-107904030D01*
G37*
G04 #@! TD.AperFunction*
G04 #@! TA.AperFunction,SMDPad,CuDef*
G36*
X89565671Y-107904030D02*
G01*
X89646777Y-107958223D01*
X89700970Y-108039329D01*
X89720000Y-108134999D01*
X89720000Y-109035001D01*
X89700970Y-109130671D01*
X89646777Y-109211777D01*
X89565671Y-109265970D01*
X89470001Y-109285000D01*
X88819999Y-109285000D01*
X88724329Y-109265970D01*
X88643223Y-109211777D01*
X88589030Y-109130671D01*
X88570000Y-109035001D01*
X88570000Y-108134999D01*
X88589030Y-108039329D01*
X88643223Y-107958223D01*
X88724329Y-107904030D01*
X88819999Y-107885000D01*
X89470001Y-107885000D01*
X89565671Y-107904030D01*
G37*
G04 #@! TD.AperFunction*
G04 #@! TA.AperFunction,SMDPad,CuDef*
G36*
X74960671Y-120604030D02*
G01*
X75041777Y-120658223D01*
X75095970Y-120739329D01*
X75115000Y-120834999D01*
X75115000Y-121735001D01*
X75095970Y-121830671D01*
X75041777Y-121911777D01*
X74960671Y-121965970D01*
X74865001Y-121985000D01*
X74214999Y-121985000D01*
X74119329Y-121965970D01*
X74038223Y-121911777D01*
X73984030Y-121830671D01*
X73965000Y-121735001D01*
X73965000Y-120834999D01*
X73984030Y-120739329D01*
X74038223Y-120658223D01*
X74119329Y-120604030D01*
X74214999Y-120585000D01*
X74865001Y-120585000D01*
X74960671Y-120604030D01*
G37*
G04 #@! TD.AperFunction*
G04 #@! TA.AperFunction,SMDPad,CuDef*
G36*
X77010671Y-120604030D02*
G01*
X77091777Y-120658223D01*
X77145970Y-120739329D01*
X77165000Y-120834999D01*
X77165000Y-121735001D01*
X77145970Y-121830671D01*
X77091777Y-121911777D01*
X77010671Y-121965970D01*
X76915001Y-121985000D01*
X76264999Y-121985000D01*
X76169329Y-121965970D01*
X76088223Y-121911777D01*
X76034030Y-121830671D01*
X76015000Y-121735001D01*
X76015000Y-120834999D01*
X76034030Y-120739329D01*
X76088223Y-120658223D01*
X76169329Y-120604030D01*
X76264999Y-120585000D01*
X76915001Y-120585000D01*
X77010671Y-120604030D01*
G37*
G04 #@! TD.AperFunction*
G04 #@! TA.AperFunction,SMDPad,CuDef*
G36*
X120290671Y-123144030D02*
G01*
X120371777Y-123198223D01*
X120425970Y-123279329D01*
X120445000Y-123374999D01*
X120445000Y-124275001D01*
X120425970Y-124370671D01*
X120371777Y-124451777D01*
X120290671Y-124505970D01*
X120195001Y-124525000D01*
X119544999Y-124525000D01*
X119449329Y-124505970D01*
X119368223Y-124451777D01*
X119314030Y-124370671D01*
X119295000Y-124275001D01*
X119295000Y-123374999D01*
X119314030Y-123279329D01*
X119368223Y-123198223D01*
X119449329Y-123144030D01*
X119544999Y-123125000D01*
X120195001Y-123125000D01*
X120290671Y-123144030D01*
G37*
G04 #@! TD.AperFunction*
G04 #@! TA.AperFunction,SMDPad,CuDef*
G36*
X122340671Y-123144030D02*
G01*
X122421777Y-123198223D01*
X122475970Y-123279329D01*
X122495000Y-123374999D01*
X122495000Y-124275001D01*
X122475970Y-124370671D01*
X122421777Y-124451777D01*
X122340671Y-124505970D01*
X122245001Y-124525000D01*
X121594999Y-124525000D01*
X121499329Y-124505970D01*
X121418223Y-124451777D01*
X121364030Y-124370671D01*
X121345000Y-124275001D01*
X121345000Y-123374999D01*
X121364030Y-123279329D01*
X121418223Y-123198223D01*
X121499329Y-123144030D01*
X121594999Y-123125000D01*
X122245001Y-123125000D01*
X122340671Y-123144030D01*
G37*
G04 #@! TD.AperFunction*
G04 #@! TA.AperFunction,SMDPad,CuDef*
G36*
X102900671Y-113619030D02*
G01*
X102981777Y-113673223D01*
X103035970Y-113754329D01*
X103055000Y-113849999D01*
X103055000Y-114750001D01*
X103035970Y-114845671D01*
X102981777Y-114926777D01*
X102900671Y-114980970D01*
X102805001Y-115000000D01*
X102154999Y-115000000D01*
X102059329Y-114980970D01*
X101978223Y-114926777D01*
X101924030Y-114845671D01*
X101905000Y-114750001D01*
X101905000Y-113849999D01*
X101924030Y-113754329D01*
X101978223Y-113673223D01*
X102059329Y-113619030D01*
X102154999Y-113600000D01*
X102805001Y-113600000D01*
X102900671Y-113619030D01*
G37*
G04 #@! TD.AperFunction*
G04 #@! TA.AperFunction,SMDPad,CuDef*
G36*
X104950671Y-113619030D02*
G01*
X105031777Y-113673223D01*
X105085970Y-113754329D01*
X105105000Y-113849999D01*
X105105000Y-114750001D01*
X105085970Y-114845671D01*
X105031777Y-114926777D01*
X104950671Y-114980970D01*
X104855001Y-115000000D01*
X104204999Y-115000000D01*
X104109329Y-114980970D01*
X104028223Y-114926777D01*
X103974030Y-114845671D01*
X103955000Y-114750001D01*
X103955000Y-113849999D01*
X103974030Y-113754329D01*
X104028223Y-113673223D01*
X104109329Y-113619030D01*
X104204999Y-113600000D01*
X104855001Y-113600000D01*
X104950671Y-113619030D01*
G37*
G04 #@! TD.AperFunction*
G04 #@! TA.AperFunction,SMDPad,CuDef*
G36*
X91615671Y-117429030D02*
G01*
X91696777Y-117483223D01*
X91750970Y-117564329D01*
X91770000Y-117659999D01*
X91770000Y-118560001D01*
X91750970Y-118655671D01*
X91696777Y-118736777D01*
X91615671Y-118790970D01*
X91520001Y-118810000D01*
X90869999Y-118810000D01*
X90774329Y-118790970D01*
X90693223Y-118736777D01*
X90639030Y-118655671D01*
X90620000Y-118560001D01*
X90620000Y-117659999D01*
X90639030Y-117564329D01*
X90693223Y-117483223D01*
X90774329Y-117429030D01*
X90869999Y-117410000D01*
X91520001Y-117410000D01*
X91615671Y-117429030D01*
G37*
G04 #@! TD.AperFunction*
G04 #@! TA.AperFunction,SMDPad,CuDef*
G36*
X89565671Y-117429030D02*
G01*
X89646777Y-117483223D01*
X89700970Y-117564329D01*
X89720000Y-117659999D01*
X89720000Y-118560001D01*
X89700970Y-118655671D01*
X89646777Y-118736777D01*
X89565671Y-118790970D01*
X89470001Y-118810000D01*
X88819999Y-118810000D01*
X88724329Y-118790970D01*
X88643223Y-118736777D01*
X88589030Y-118655671D01*
X88570000Y-118560001D01*
X88570000Y-117659999D01*
X88589030Y-117564329D01*
X88643223Y-117483223D01*
X88724329Y-117429030D01*
X88819999Y-117410000D01*
X89470001Y-117410000D01*
X89565671Y-117429030D01*
G37*
G04 #@! TD.AperFunction*
G04 #@! TA.AperFunction,SMDPad,CuDef*
G36*
X79920671Y-125564030D02*
G01*
X80001777Y-125618223D01*
X80055970Y-125699329D01*
X80075000Y-125794999D01*
X80075000Y-126445001D01*
X80055970Y-126540671D01*
X80001777Y-126621777D01*
X79920671Y-126675970D01*
X79825001Y-126695000D01*
X78924999Y-126695000D01*
X78829329Y-126675970D01*
X78748223Y-126621777D01*
X78694030Y-126540671D01*
X78675000Y-126445001D01*
X78675000Y-125794999D01*
X78694030Y-125699329D01*
X78748223Y-125618223D01*
X78829329Y-125564030D01*
X78924999Y-125545000D01*
X79825001Y-125545000D01*
X79920671Y-125564030D01*
G37*
G04 #@! TD.AperFunction*
G04 #@! TA.AperFunction,SMDPad,CuDef*
G36*
X79920671Y-123514030D02*
G01*
X80001777Y-123568223D01*
X80055970Y-123649329D01*
X80075000Y-123744999D01*
X80075000Y-124395001D01*
X80055970Y-124490671D01*
X80001777Y-124571777D01*
X79920671Y-124625970D01*
X79825001Y-124645000D01*
X78924999Y-124645000D01*
X78829329Y-124625970D01*
X78748223Y-124571777D01*
X78694030Y-124490671D01*
X78675000Y-124395001D01*
X78675000Y-123744999D01*
X78694030Y-123649329D01*
X78748223Y-123568223D01*
X78829329Y-123514030D01*
X78924999Y-123495000D01*
X79825001Y-123495000D01*
X79920671Y-123514030D01*
G37*
G04 #@! TD.AperFunction*
G04 #@! TA.AperFunction,SMDPad,CuDef*
G36*
X128020671Y-118294030D02*
G01*
X128101777Y-118348223D01*
X128155970Y-118429329D01*
X128175000Y-118525000D01*
X128175000Y-119525000D01*
X128155970Y-119620671D01*
X128101777Y-119701777D01*
X128020671Y-119755970D01*
X127925000Y-119775000D01*
X126075000Y-119775000D01*
X125979329Y-119755970D01*
X125898223Y-119701777D01*
X125844030Y-119620671D01*
X125825000Y-119525000D01*
X125825000Y-118525000D01*
X125844030Y-118429329D01*
X125898223Y-118348223D01*
X125979329Y-118294030D01*
X126075000Y-118275000D01*
X127925000Y-118275000D01*
X128020671Y-118294030D01*
G37*
G04 #@! TD.AperFunction*
G04 #@! TA.AperFunction,SMDPad,CuDef*
G36*
X128020671Y-121544030D02*
G01*
X128101777Y-121598223D01*
X128155970Y-121679329D01*
X128175000Y-121775000D01*
X128175000Y-122775000D01*
X128155970Y-122870671D01*
X128101777Y-122951777D01*
X128020671Y-123005970D01*
X127925000Y-123025000D01*
X126075000Y-123025000D01*
X125979329Y-123005970D01*
X125898223Y-122951777D01*
X125844030Y-122870671D01*
X125825000Y-122775000D01*
X125825000Y-121775000D01*
X125844030Y-121679329D01*
X125898223Y-121598223D01*
X125979329Y-121544030D01*
X126075000Y-121525000D01*
X127925000Y-121525000D01*
X128020671Y-121544030D01*
G37*
G04 #@! TD.AperFunction*
G04 #@! TA.AperFunction,SMDPad,CuDef*
G36*
X96905671Y-99879030D02*
G01*
X96986777Y-99933223D01*
X97040970Y-100014329D01*
X97060000Y-100110000D01*
X97060000Y-101110000D01*
X97040970Y-101205671D01*
X96986777Y-101286777D01*
X96905671Y-101340970D01*
X96810000Y-101360000D01*
X94960000Y-101360000D01*
X94864329Y-101340970D01*
X94783223Y-101286777D01*
X94729030Y-101205671D01*
X94710000Y-101110000D01*
X94710000Y-100110000D01*
X94729030Y-100014329D01*
X94783223Y-99933223D01*
X94864329Y-99879030D01*
X94960000Y-99860000D01*
X96810000Y-99860000D01*
X96905671Y-99879030D01*
G37*
G04 #@! TD.AperFunction*
G04 #@! TA.AperFunction,SMDPad,CuDef*
G36*
X96905671Y-103129030D02*
G01*
X96986777Y-103183223D01*
X97040970Y-103264329D01*
X97060000Y-103360000D01*
X97060000Y-104360000D01*
X97040970Y-104455671D01*
X96986777Y-104536777D01*
X96905671Y-104590970D01*
X96810000Y-104610000D01*
X94960000Y-104610000D01*
X94864329Y-104590970D01*
X94783223Y-104536777D01*
X94729030Y-104455671D01*
X94710000Y-104360000D01*
X94710000Y-103360000D01*
X94729030Y-103264329D01*
X94783223Y-103183223D01*
X94864329Y-103129030D01*
X94960000Y-103110000D01*
X96810000Y-103110000D01*
X96905671Y-103129030D01*
G37*
G04 #@! TD.AperFunction*
D34*
X140970000Y-117555000D03*
X140970000Y-122555000D03*
X109855000Y-99140000D03*
X109855000Y-104140000D03*
G04 #@! TA.AperFunction,SMDPad,CuDef*
G36*
X102780671Y-126054030D02*
G01*
X102861777Y-126108223D01*
X102915970Y-126189329D01*
X102935000Y-126284999D01*
X102935000Y-126935001D01*
X102915970Y-127030671D01*
X102861777Y-127111777D01*
X102780671Y-127165970D01*
X102685001Y-127185000D01*
X101784999Y-127185000D01*
X101689329Y-127165970D01*
X101608223Y-127111777D01*
X101554030Y-127030671D01*
X101535000Y-126935001D01*
X101535000Y-126284999D01*
X101554030Y-126189329D01*
X101608223Y-126108223D01*
X101689329Y-126054030D01*
X101784999Y-126035000D01*
X102685001Y-126035000D01*
X102780671Y-126054030D01*
G37*
G04 #@! TD.AperFunction*
G04 #@! TA.AperFunction,SMDPad,CuDef*
G36*
X102780671Y-128104030D02*
G01*
X102861777Y-128158223D01*
X102915970Y-128239329D01*
X102935000Y-128334999D01*
X102935000Y-128985001D01*
X102915970Y-129080671D01*
X102861777Y-129161777D01*
X102780671Y-129215970D01*
X102685001Y-129235000D01*
X101784999Y-129235000D01*
X101689329Y-129215970D01*
X101608223Y-129161777D01*
X101554030Y-129080671D01*
X101535000Y-128985001D01*
X101535000Y-128334999D01*
X101554030Y-128239329D01*
X101608223Y-128158223D01*
X101689329Y-128104030D01*
X101784999Y-128085000D01*
X102685001Y-128085000D01*
X102780671Y-128104030D01*
G37*
G04 #@! TD.AperFunction*
D35*
X145295000Y-98425000D03*
D36*
X137795000Y-98425000D03*
G04 #@! TA.AperFunction,SMDPad,CuDef*
G36*
X149135671Y-80479030D02*
G01*
X149216777Y-80533223D01*
X149270970Y-80614329D01*
X149290000Y-80709999D01*
X149290000Y-81360001D01*
X149270970Y-81455671D01*
X149216777Y-81536777D01*
X149135671Y-81590970D01*
X149040001Y-81610000D01*
X148139999Y-81610000D01*
X148044329Y-81590970D01*
X147963223Y-81536777D01*
X147909030Y-81455671D01*
X147890000Y-81360001D01*
X147890000Y-80709999D01*
X147909030Y-80614329D01*
X147963223Y-80533223D01*
X148044329Y-80479030D01*
X148139999Y-80460000D01*
X149040001Y-80460000D01*
X149135671Y-80479030D01*
G37*
G04 #@! TD.AperFunction*
G04 #@! TA.AperFunction,SMDPad,CuDef*
G36*
X149135671Y-78429030D02*
G01*
X149216777Y-78483223D01*
X149270970Y-78564329D01*
X149290000Y-78659999D01*
X149290000Y-79310001D01*
X149270970Y-79405671D01*
X149216777Y-79486777D01*
X149135671Y-79540970D01*
X149040001Y-79560000D01*
X148139999Y-79560000D01*
X148044329Y-79540970D01*
X147963223Y-79486777D01*
X147909030Y-79405671D01*
X147890000Y-79310001D01*
X147890000Y-78659999D01*
X147909030Y-78564329D01*
X147963223Y-78483223D01*
X148044329Y-78429030D01*
X148139999Y-78410000D01*
X149040001Y-78410000D01*
X149135671Y-78429030D01*
G37*
G04 #@! TD.AperFunction*
D35*
X138310000Y-55880000D03*
D36*
X130810000Y-55880000D03*
G04 #@! TA.AperFunction,SMDPad,CuDef*
G36*
X101305671Y-83784030D02*
G01*
X101386777Y-83838223D01*
X101440970Y-83919329D01*
X101460000Y-84015000D01*
X101460000Y-86165000D01*
X101440970Y-86260671D01*
X101386777Y-86341777D01*
X101305671Y-86395970D01*
X101210000Y-86415000D01*
X100285000Y-86415000D01*
X100189329Y-86395970D01*
X100108223Y-86341777D01*
X100054030Y-86260671D01*
X100035000Y-86165000D01*
X100035000Y-84015000D01*
X100054030Y-83919329D01*
X100108223Y-83838223D01*
X100189329Y-83784030D01*
X100285000Y-83765000D01*
X101210000Y-83765000D01*
X101305671Y-83784030D01*
G37*
G04 #@! TD.AperFunction*
G04 #@! TA.AperFunction,SMDPad,CuDef*
G36*
X104280671Y-83784030D02*
G01*
X104361777Y-83838223D01*
X104415970Y-83919329D01*
X104435000Y-84015000D01*
X104435000Y-86165000D01*
X104415970Y-86260671D01*
X104361777Y-86341777D01*
X104280671Y-86395970D01*
X104185000Y-86415000D01*
X103260000Y-86415000D01*
X103164329Y-86395970D01*
X103083223Y-86341777D01*
X103029030Y-86260671D01*
X103010000Y-86165000D01*
X103010000Y-84015000D01*
X103029030Y-83919329D01*
X103083223Y-83838223D01*
X103164329Y-83784030D01*
X103260000Y-83765000D01*
X104185000Y-83765000D01*
X104280671Y-83784030D01*
G37*
G04 #@! TD.AperFunction*
G04 #@! TA.AperFunction,SMDPad,CuDef*
G36*
X98565671Y-83784030D02*
G01*
X98646777Y-83838223D01*
X98700970Y-83919329D01*
X98720000Y-84015000D01*
X98720000Y-86165000D01*
X98700970Y-86260671D01*
X98646777Y-86341777D01*
X98565671Y-86395970D01*
X98470000Y-86415000D01*
X97545000Y-86415000D01*
X97449329Y-86395970D01*
X97368223Y-86341777D01*
X97314030Y-86260671D01*
X97295000Y-86165000D01*
X97295000Y-84015000D01*
X97314030Y-83919329D01*
X97368223Y-83838223D01*
X97449329Y-83784030D01*
X97545000Y-83765000D01*
X98470000Y-83765000D01*
X98565671Y-83784030D01*
G37*
G04 #@! TD.AperFunction*
G04 #@! TA.AperFunction,SMDPad,CuDef*
G36*
X95590671Y-83784030D02*
G01*
X95671777Y-83838223D01*
X95725970Y-83919329D01*
X95745000Y-84015000D01*
X95745000Y-86165000D01*
X95725970Y-86260671D01*
X95671777Y-86341777D01*
X95590671Y-86395970D01*
X95495000Y-86415000D01*
X94570000Y-86415000D01*
X94474329Y-86395970D01*
X94393223Y-86341777D01*
X94339030Y-86260671D01*
X94320000Y-86165000D01*
X94320000Y-84015000D01*
X94339030Y-83919329D01*
X94393223Y-83838223D01*
X94474329Y-83784030D01*
X94570000Y-83765000D01*
X95495000Y-83765000D01*
X95590671Y-83784030D01*
G37*
G04 #@! TD.AperFunction*
G04 #@! TA.AperFunction,SMDPad,CuDef*
G36*
X84485671Y-127589030D02*
G01*
X84566777Y-127643223D01*
X84620970Y-127724329D01*
X84640000Y-127819999D01*
X84640000Y-128720001D01*
X84620970Y-128815671D01*
X84566777Y-128896777D01*
X84485671Y-128950970D01*
X84390001Y-128970000D01*
X83739999Y-128970000D01*
X83644329Y-128950970D01*
X83563223Y-128896777D01*
X83509030Y-128815671D01*
X83490000Y-128720001D01*
X83490000Y-127819999D01*
X83509030Y-127724329D01*
X83563223Y-127643223D01*
X83644329Y-127589030D01*
X83739999Y-127570000D01*
X84390001Y-127570000D01*
X84485671Y-127589030D01*
G37*
G04 #@! TD.AperFunction*
G04 #@! TA.AperFunction,SMDPad,CuDef*
G36*
X86535671Y-127589030D02*
G01*
X86616777Y-127643223D01*
X86670970Y-127724329D01*
X86690000Y-127819999D01*
X86690000Y-128720001D01*
X86670970Y-128815671D01*
X86616777Y-128896777D01*
X86535671Y-128950970D01*
X86440001Y-128970000D01*
X85789999Y-128970000D01*
X85694329Y-128950970D01*
X85613223Y-128896777D01*
X85559030Y-128815671D01*
X85540000Y-128720001D01*
X85540000Y-127819999D01*
X85559030Y-127724329D01*
X85613223Y-127643223D01*
X85694329Y-127589030D01*
X85789999Y-127570000D01*
X86440001Y-127570000D01*
X86535671Y-127589030D01*
G37*
G04 #@! TD.AperFunction*
D37*
X74295000Y-102235000D03*
X76835000Y-102235000D03*
X78105000Y-102235000D03*
X75565000Y-102235000D03*
X74295000Y-100965000D03*
X76835000Y-100965000D03*
X78105000Y-100965000D03*
X75565000Y-100965000D03*
X74295000Y-99695000D03*
X76835000Y-99695000D03*
X78105000Y-99695000D03*
X75565000Y-99695000D03*
X76835000Y-98425000D03*
X78105000Y-98425000D03*
X74295000Y-98425000D03*
X75565000Y-98425000D03*
X78105000Y-97155000D03*
X75565000Y-97155000D03*
X76835000Y-97155000D03*
X74295000Y-97155000D03*
X83820000Y-102235000D03*
X86360000Y-102235000D03*
X85090000Y-102235000D03*
X82550000Y-102235000D03*
X83820000Y-100965000D03*
X86360000Y-100965000D03*
X85090000Y-100965000D03*
X82550000Y-100965000D03*
X83820000Y-99695000D03*
X86360000Y-99695000D03*
X85090000Y-99695000D03*
X82550000Y-99695000D03*
X83820000Y-98425000D03*
X86360000Y-98425000D03*
X85090000Y-98425000D03*
X82550000Y-98425000D03*
X83820000Y-97155000D03*
X86360000Y-97155000D03*
X85090000Y-97155000D03*
X82550000Y-97155000D03*
X71755000Y-104902000D03*
X69484968Y-99060000D03*
X133985000Y-113665000D03*
X135255000Y-109220000D03*
X100965000Y-97790000D03*
X102870000Y-93980000D03*
X85521000Y-78690000D03*
X83362000Y-78690000D03*
X90678000Y-77851000D03*
X89535000Y-77851000D03*
X90170000Y-76835000D03*
X92710000Y-60325000D03*
X97155000Y-68580000D03*
X93980000Y-59055000D03*
X92996377Y-93631377D03*
X95250000Y-107950000D03*
X95885000Y-120015000D03*
X97155000Y-117475000D03*
X72390000Y-107315000D03*
X72390000Y-92075000D03*
X88265000Y-102235000D03*
X87630000Y-93345000D03*
X97155000Y-91685000D03*
X96520000Y-97790000D03*
X142875000Y-81280000D03*
X136525000Y-69460000D03*
X64770000Y-54610000D03*
X67310000Y-59690000D03*
X100965000Y-118110000D03*
X107315000Y-111344010D03*
X100965000Y-110490000D03*
X117475000Y-109220000D03*
X109220000Y-113030000D03*
X79375000Y-93345000D03*
X119380000Y-106680000D03*
X120650000Y-120650000D03*
X120650000Y-118110000D03*
X120650000Y-107950000D03*
X90170000Y-106045000D03*
X109220000Y-109220000D03*
X85090000Y-123825000D03*
X84506592Y-121165976D03*
X107315000Y-119380000D03*
X91610117Y-122384883D03*
X93345000Y-122970990D03*
X93345000Y-128905000D03*
X68237021Y-106045000D03*
X66675000Y-115570000D03*
X66040000Y-104775000D03*
X67945000Y-80645000D03*
X71120000Y-116205000D03*
X78740000Y-109855000D03*
X78740000Y-121920000D03*
X96520000Y-126365000D03*
X96520000Y-136525000D03*
X91272985Y-137379010D03*
X67945000Y-134327979D03*
X60960000Y-135890000D03*
X68293623Y-86646377D03*
X67945000Y-82550000D03*
X97155000Y-109220000D03*
X83820000Y-118110000D03*
X118745000Y-128905000D03*
X118110000Y-139700000D03*
X102454010Y-135255000D03*
X101600000Y-139700000D03*
X101600000Y-102235000D03*
X102235000Y-100965000D03*
X111760000Y-105410000D03*
X108975000Y-93590000D03*
X109220000Y-97155000D03*
X67945000Y-88265000D03*
X88265000Y-106045000D03*
X87264987Y-126365000D03*
X88265000Y-126365000D03*
X97790000Y-127635000D03*
X97790000Y-135890000D03*
X109855000Y-130810000D03*
X110490000Y-138430000D03*
X91220990Y-133985000D03*
X91220990Y-127635000D03*
X92710000Y-138430000D03*
X92075000Y-125095000D03*
X103505000Y-128905000D03*
X100330000Y-119380000D03*
X100330000Y-125095000D03*
X113030000Y-132080000D03*
X112395000Y-137160000D03*
X83185000Y-110490000D03*
X83185000Y-120650000D03*
X121480000Y-49530000D03*
X96520000Y-60325000D03*
X113925000Y-51810000D03*
X78740000Y-50165000D03*
X65405000Y-69215000D03*
X84505000Y-78690000D03*
X94615000Y-55880000D03*
X93345000Y-120015000D03*
X90805000Y-98425000D03*
X93345000Y-103505000D03*
X93944998Y-95885000D03*
X93980000Y-100965000D03*
X75565000Y-116840000D03*
X115570000Y-133350000D03*
X62865000Y-134620000D03*
X67310000Y-130810000D03*
X65405000Y-131445000D03*
X64135000Y-132715000D03*
X118745000Y-127635000D03*
X111125000Y-128270000D03*
X127635000Y-102870000D03*
X137160000Y-111125000D03*
X136525000Y-116205000D03*
X123825000Y-111760000D03*
X125095000Y-121920000D03*
X123825000Y-114300000D03*
X125095000Y-118745000D03*
X114300000Y-126365000D03*
X120015000Y-126365000D03*
X110050000Y-57150000D03*
X63500000Y-86360000D03*
X82550000Y-67310000D03*
X86360000Y-67310000D03*
X86360000Y-66040000D03*
X82550000Y-66040000D03*
X82550000Y-69850000D03*
X82550000Y-71120000D03*
X86360000Y-69850000D03*
X86360000Y-71120000D03*
X86360000Y-64770000D03*
X82550000Y-64770000D03*
X82550000Y-72390000D03*
X86360000Y-72390000D03*
X83820000Y-69850000D03*
X83820000Y-71120000D03*
X83820000Y-66040000D03*
X83820000Y-72390000D03*
X83820000Y-64770000D03*
X83820000Y-67310000D03*
X85090000Y-64770000D03*
X85090000Y-71120000D03*
X85090000Y-66040000D03*
X85090000Y-69850000D03*
X85090000Y-67310000D03*
X85090000Y-72390000D03*
X74295000Y-69850000D03*
X74295000Y-71120000D03*
X74295000Y-66040000D03*
X74295000Y-72390000D03*
X74295000Y-64770000D03*
X74295000Y-67310000D03*
X75565000Y-72390000D03*
X75565000Y-69850000D03*
X75565000Y-64770000D03*
X75565000Y-71120000D03*
X75565000Y-66040000D03*
X75565000Y-67310000D03*
X76835000Y-69850000D03*
X76835000Y-64770000D03*
X76835000Y-72390000D03*
X76835000Y-67310000D03*
X76835000Y-71120000D03*
X76835000Y-66040000D03*
X78105000Y-72390000D03*
X78105000Y-64770000D03*
X78105000Y-66040000D03*
X78105000Y-67310000D03*
X78105000Y-69850000D03*
X78105000Y-71120000D03*
X125095000Y-130175000D03*
X120777000Y-130175000D03*
D38*
X96382555Y-105174999D02*
X79610001Y-105174999D01*
X71755000Y-104902000D02*
X79337002Y-104902000D01*
X79337002Y-104902000D02*
X79610001Y-105174999D01*
X76200000Y-99450000D02*
X69874968Y-99450000D01*
X69874968Y-99450000D02*
X69484968Y-99060000D01*
X87743011Y-130101989D02*
X84236989Y-130101989D01*
X84236989Y-130101989D02*
X84065000Y-129930000D01*
X84065000Y-128270000D02*
X77405000Y-128270000D01*
X77405000Y-128270000D02*
X76770000Y-127635000D01*
X64061988Y-135816988D02*
X63264999Y-135019999D01*
X63264999Y-135019999D02*
X62865000Y-134620000D01*
X99265000Y-133985000D02*
X97796076Y-133985000D01*
X97796076Y-133985000D02*
X95964087Y-135816989D01*
X99265000Y-132715000D02*
X95250000Y-132715000D01*
X95964087Y-135816989D02*
X86555710Y-135816988D01*
X86555710Y-135816988D02*
X64061988Y-135816988D01*
X95250000Y-132715000D02*
X92856022Y-135108978D01*
X92856022Y-135108978D02*
X86848978Y-135108978D01*
X86848978Y-135108978D02*
X86067979Y-134327979D01*
X86067979Y-134327979D02*
X67945000Y-134327979D01*
X61595000Y-136525000D02*
X60960000Y-135890000D01*
X96520000Y-136525000D02*
X61595000Y-136525000D01*
X100085000Y-90805000D02*
X100842500Y-91562500D01*
X100842500Y-91562500D02*
X101600000Y-92320000D01*
X115570000Y-91440000D02*
X100965000Y-91440000D01*
X100965000Y-91440000D02*
X100842500Y-91562500D01*
X116840000Y-92710000D02*
X115570000Y-91440000D01*
X116840000Y-95885000D02*
X116840000Y-92710000D01*
X116450000Y-96275000D02*
X116840000Y-95885000D01*
X114935000Y-96275000D02*
X116450000Y-96275000D01*
X144145000Y-108830000D02*
X135645000Y-108830000D01*
X135645000Y-108830000D02*
X135255000Y-109220000D01*
X144145000Y-112640000D02*
X144145000Y-110880000D01*
X132145000Y-116205000D02*
X133350000Y-116205000D01*
X133350000Y-116205000D02*
X136525000Y-116205000D01*
X133350000Y-118110000D02*
X133350000Y-116205000D01*
X132080000Y-119380000D02*
X133350000Y-118110000D01*
X130875000Y-119380000D02*
X132080000Y-119380000D01*
X100330000Y-100965000D02*
X103269999Y-98025001D01*
X103269999Y-98025001D02*
X103269999Y-97554999D01*
X99760000Y-100965000D02*
X100330000Y-100965000D01*
X104710000Y-93980000D02*
X102870000Y-93980000D01*
D39*
X113030000Y-94225000D02*
X114935000Y-94225000D01*
D40*
X79747000Y-99450000D02*
X80255000Y-99450000D01*
D41*
X85521000Y-78690000D02*
X84505000Y-78690000D01*
X83362000Y-78690000D02*
X82175000Y-78690000D01*
D39*
X89145000Y-114300000D02*
X90072410Y-115227410D01*
X90072410Y-115227410D02*
X90072410Y-116987410D01*
X90072410Y-116987410D02*
X91195000Y-118110000D01*
D38*
X132702480Y-110722480D02*
X132702480Y-112382480D01*
X130875000Y-112395000D02*
X132689960Y-112395000D01*
X132702480Y-112382480D02*
X132702480Y-113665000D01*
X132689960Y-112395000D02*
X132702480Y-112382480D01*
X102454010Y-135255000D02*
X118110000Y-135255000D01*
X118110000Y-135255000D02*
X119380000Y-133985000D01*
X119380000Y-133985000D02*
X118110000Y-132715000D01*
X118110000Y-132715000D02*
X117150000Y-132715000D01*
X121125000Y-132715000D02*
X120088011Y-133751989D01*
X120088011Y-134278267D02*
X118076279Y-136289999D01*
X118076279Y-136289999D02*
X98189999Y-136289999D01*
X98189999Y-136289999D02*
X97790000Y-135890000D01*
X120088011Y-133751989D02*
X120088011Y-134278267D01*
X122100000Y-132715000D02*
X121125000Y-132715000D01*
X110100000Y-133740000D02*
X109610000Y-133740000D01*
X109610000Y-133740000D02*
X108945990Y-133075990D01*
X108945990Y-133075990D02*
X108945990Y-129260990D01*
X108945990Y-129260990D02*
X108905000Y-129220000D01*
X104583876Y-119823876D02*
X103757752Y-120650000D01*
X104966124Y-119823876D02*
X106680000Y-118110000D01*
X110107752Y-114300000D02*
X106680000Y-118110000D01*
X104583876Y-119823876D02*
X104966124Y-119823876D01*
X104759030Y-120650000D02*
X106045000Y-120650000D01*
X106045000Y-120650000D02*
X107315000Y-119380000D01*
X104051019Y-121358011D02*
X104759030Y-120650000D01*
X109220000Y-97155000D02*
X108820001Y-97554999D01*
X108820001Y-97554999D02*
X103269999Y-97554999D01*
X103269999Y-97554999D02*
X102235000Y-96520000D01*
X102235000Y-96520000D02*
X99760000Y-96520000D01*
X100965000Y-97790000D02*
X96520000Y-97790000D01*
X101600000Y-92320000D02*
X101600000Y-93980000D01*
X101600000Y-93980000D02*
X101600000Y-95237480D01*
X99760000Y-93980000D02*
X101600000Y-93980000D01*
D40*
X90170000Y-76835000D02*
X116205000Y-76835000D01*
X116205000Y-76835000D02*
X137795000Y-98425000D01*
X76200000Y-99450000D02*
X79747000Y-99450000D01*
X80255000Y-99450000D02*
X80645000Y-99060000D01*
X80645000Y-99060000D02*
X84455000Y-99450000D01*
D38*
X79771989Y-60651989D02*
X87938011Y-60651989D01*
X92710000Y-60325000D02*
X88265000Y-60325000D01*
X88265000Y-60325000D02*
X87938011Y-60651989D01*
D42*
X97155000Y-68580000D02*
X97155000Y-70675000D01*
X97155000Y-70675000D02*
X96520000Y-71310000D01*
D38*
X93980000Y-59055000D02*
X90805000Y-59055000D01*
X91695000Y-93345000D02*
X92710000Y-93345000D01*
X92710000Y-93345000D02*
X92996377Y-93631377D01*
X95250000Y-107950000D02*
X93345000Y-107950000D01*
X91928979Y-122066021D02*
X91610117Y-122384883D01*
X96520000Y-120650000D02*
X95885000Y-120015000D01*
X105410000Y-122555000D02*
X104921021Y-122066021D01*
X96226732Y-121358010D02*
X96153722Y-121285000D01*
X84625616Y-121285000D02*
X84506592Y-121165976D01*
X104051019Y-121358011D02*
X96226732Y-121358010D01*
X96153722Y-121285000D02*
X84625616Y-121285000D01*
X104921021Y-122066021D02*
X91928979Y-122066021D01*
X103757752Y-120650000D02*
X96520000Y-120650000D01*
X122810000Y-114300000D02*
X110107752Y-114300000D01*
X97155000Y-117475000D02*
X94045000Y-117475000D01*
X119380000Y-106680000D02*
X118960999Y-107099001D01*
X90170000Y-106045000D02*
X96251278Y-106045000D01*
X120084315Y-107950000D02*
X120650000Y-107950000D01*
X118960999Y-107099001D02*
X98306557Y-107099001D01*
X98306557Y-107099001D02*
X96382555Y-105174999D01*
X96251278Y-106045000D02*
X98156278Y-107950000D01*
X98156278Y-107950000D02*
X120084315Y-107950000D01*
X92710000Y-107315000D02*
X93345000Y-107950000D01*
X72390000Y-107315000D02*
X92710000Y-107315000D01*
D41*
X73920000Y-91700000D02*
X73920000Y-90120000D01*
D38*
X73920000Y-91700000D02*
X72765000Y-91700000D01*
D41*
X73920000Y-93150000D02*
X73920000Y-91700000D01*
D38*
X72765000Y-91700000D02*
X72390000Y-92075000D01*
X88265000Y-102235000D02*
X90415000Y-102235000D01*
X86735000Y-93150000D02*
X87435000Y-93150000D01*
X87435000Y-93150000D02*
X87630000Y-93345000D01*
X109300000Y-99695000D02*
X104710000Y-99695000D01*
X109855000Y-99140000D02*
X109300000Y-99695000D01*
D40*
X136525000Y-69460000D02*
X124705000Y-69460000D01*
X124705000Y-69460000D02*
X119380000Y-64135000D01*
D38*
X142875000Y-81035000D02*
X142875000Y-81280000D01*
D40*
X137795000Y-98425000D02*
X137795000Y-86360000D01*
X137795000Y-86360000D02*
X136525000Y-85090000D01*
X136525000Y-85090000D02*
X122125000Y-85090000D01*
X122125000Y-85090000D02*
X119380000Y-87835000D01*
D39*
X145415000Y-69215000D02*
X147320000Y-71120000D01*
X147320000Y-76200000D02*
X147429068Y-76200000D01*
X149642410Y-78413342D02*
X149642410Y-79556658D01*
X147320000Y-71120000D02*
X147320000Y-76200000D01*
X147429068Y-76200000D02*
X149642410Y-78413342D01*
X149642410Y-79556658D02*
X149286658Y-79912410D01*
X149286658Y-79912410D02*
X147612410Y-79912410D01*
X147612410Y-79912410D02*
X146685000Y-78985000D01*
D38*
X100330000Y-59055000D02*
X100330000Y-59595000D01*
X100330000Y-59595000D02*
X104140000Y-63405000D01*
X95250000Y-53975000D02*
X100330000Y-59055000D01*
X65405000Y-53975000D02*
X95250000Y-53975000D01*
X64770000Y-54610000D02*
X65405000Y-53975000D01*
D42*
X67310000Y-59690000D02*
X65405000Y-60005000D01*
X67625000Y-60005000D02*
X67310000Y-59690000D01*
X69850000Y-60005000D02*
X67625000Y-60005000D01*
D38*
X78480000Y-59360000D02*
X79771989Y-60651989D01*
X78480000Y-58860000D02*
X78480000Y-59360000D01*
X100965000Y-118110000D02*
X102480000Y-118110000D01*
X112395000Y-109220000D02*
X111125000Y-110490000D01*
X99669010Y-111344010D02*
X107315000Y-111344010D01*
X99450000Y-111125000D02*
X99669010Y-111344010D01*
X111125000Y-110490000D02*
X100965000Y-110490000D01*
X117475000Y-109220000D02*
X112395000Y-109220000D01*
X103505000Y-113030000D02*
X109220000Y-113030000D01*
X102480000Y-114055000D02*
X103505000Y-113030000D01*
X102480000Y-114300000D02*
X102480000Y-114055000D01*
D42*
X109220000Y-109220000D02*
X102235000Y-109220000D01*
X102235000Y-109220000D02*
X97155000Y-109220000D01*
D38*
X102480000Y-109465000D02*
X102235000Y-109220000D01*
X79375000Y-93345000D02*
X78675000Y-93345000D01*
X78675000Y-93345000D02*
X78480000Y-93150000D01*
X121530000Y-120650000D02*
X120650000Y-120650000D01*
X121530000Y-118110000D02*
X120650000Y-118110000D01*
X85090000Y-123825000D02*
X85479001Y-123435999D01*
X85479001Y-123435999D02*
X85540999Y-123435999D01*
X83185000Y-121215685D02*
X83185000Y-120650000D01*
X91842480Y-123825000D02*
X90037457Y-122019977D01*
X99265000Y-123825000D02*
X91842480Y-123825000D01*
X88867988Y-122727988D02*
X79547988Y-122727988D01*
X90037457Y-122019977D02*
X83989292Y-122019977D01*
X83989292Y-122019977D02*
X83185000Y-121215685D01*
X79547988Y-122727988D02*
X78740000Y-121920000D01*
X89965000Y-123825000D02*
X88867988Y-122727988D01*
X82549001Y-123435999D02*
X85540999Y-123435999D01*
X85540999Y-123435999D02*
X86250000Y-124145000D01*
X81915000Y-124070000D02*
X82549001Y-123435999D01*
X104408722Y-118110000D02*
X104530000Y-118110000D01*
X103138722Y-119380000D02*
X104408722Y-118110000D01*
X100330000Y-119380000D02*
X103138722Y-119380000D01*
X100745990Y-122970990D02*
X93345000Y-122970990D01*
X102235000Y-124460000D02*
X100745990Y-122970990D01*
X102235000Y-126610000D02*
X102235000Y-124460000D01*
X89965000Y-128905000D02*
X93345000Y-128905000D01*
X66675000Y-115570000D02*
X69215000Y-118110000D01*
X65040001Y-117110001D02*
X66040000Y-118110000D01*
X65040001Y-114379081D02*
X65040001Y-117110001D01*
X54165920Y-103505000D02*
X65040001Y-114379081D01*
X52705000Y-103505000D02*
X54165920Y-103505000D01*
X88265000Y-106045000D02*
X68237021Y-106045000D01*
X65795000Y-104530000D02*
X66040000Y-104775000D01*
X65795000Y-103505000D02*
X65795000Y-104530000D01*
X67945000Y-80645000D02*
X67065000Y-80645000D01*
X72390000Y-118110000D02*
X72390000Y-117475000D01*
X72390000Y-117475000D02*
X71120000Y-116205000D01*
X78740000Y-109855000D02*
X66675000Y-109855000D01*
X66675000Y-109855000D02*
X60325000Y-103505000D01*
X96520000Y-126365000D02*
X99265000Y-126365000D01*
X112175990Y-137379010D02*
X91272985Y-137379010D01*
X112395000Y-137160000D02*
X112175990Y-137379010D01*
X68007246Y-86360000D02*
X68293623Y-86646377D01*
X67065000Y-86360000D02*
X68007246Y-86360000D01*
X67065000Y-82550000D02*
X67945000Y-82550000D01*
D42*
X97155000Y-109220000D02*
X97155000Y-110880000D01*
X97155000Y-110880000D02*
X97400000Y-111125000D01*
D38*
X83820000Y-118110000D02*
X81915000Y-118110000D01*
X118745000Y-128905000D02*
X117150000Y-128905000D01*
X122100000Y-128905000D02*
X120650000Y-128905000D01*
X119380000Y-130175000D02*
X120650000Y-128905000D01*
X117150000Y-130175000D02*
X119380000Y-130175000D01*
X101600000Y-139700000D02*
X118110000Y-139700000D01*
X104710000Y-102235000D02*
X101600000Y-102235000D01*
X117150000Y-133985000D02*
X116588011Y-134546989D01*
X112996989Y-134546989D02*
X112115000Y-133665000D01*
X116588011Y-134546989D02*
X112996989Y-134546989D01*
X104710000Y-100965000D02*
X102235000Y-100965000D01*
D42*
X124270000Y-104775000D02*
X112395000Y-104775000D01*
X112395000Y-104775000D02*
X111760000Y-105410000D01*
X138945000Y-104775000D02*
X124270000Y-104775000D01*
X145295000Y-98425000D02*
X138945000Y-104775000D01*
X109855000Y-104140000D02*
X116205000Y-97790000D01*
X116205000Y-97790000D02*
X125285000Y-97790000D01*
X125285000Y-97790000D02*
X127825000Y-100330000D01*
D38*
X67945000Y-88265000D02*
X67065000Y-88265000D01*
D39*
X69215000Y-84455000D02*
X67065000Y-84455000D01*
X69629346Y-84869346D02*
X69215000Y-84455000D01*
X69629346Y-88180654D02*
X69629346Y-84869346D01*
X67640000Y-90170000D02*
X69629346Y-88180654D01*
X67065000Y-90170000D02*
X67640000Y-90170000D01*
D38*
X86250000Y-126045000D02*
X86570000Y-126365000D01*
X86570000Y-126365000D02*
X87264987Y-126365000D01*
X89965000Y-126365000D02*
X88265000Y-126365000D01*
X97790000Y-127635000D02*
X99265000Y-127635000D01*
X120715000Y-121920000D02*
X108585000Y-121920000D01*
X108585000Y-121920000D02*
X105410000Y-125095000D01*
X114081989Y-122628011D02*
X112250000Y-124460000D01*
X119870000Y-123825000D02*
X118673011Y-122628011D01*
X118673011Y-122628011D02*
X114081989Y-122628011D01*
X121920000Y-123125000D02*
X120715000Y-121920000D01*
X121920000Y-123825000D02*
X121920000Y-123125000D01*
X109855000Y-130810000D02*
X109855000Y-131445000D01*
X109855000Y-131445000D02*
X110100000Y-131690000D01*
X92710000Y-138430000D02*
X110490000Y-138430000D01*
X89965000Y-133985000D02*
X91220990Y-133985000D01*
X89965000Y-127635000D02*
X91220990Y-127635000D01*
X89965000Y-125095000D02*
X92075000Y-125095000D01*
X103505000Y-128905000D02*
X102480000Y-128905000D01*
X102480000Y-128905000D02*
X102235000Y-128660000D01*
X99265000Y-125095000D02*
X100330000Y-125095000D01*
X113030000Y-132080000D02*
X112715000Y-131765000D01*
X112715000Y-131765000D02*
X112115000Y-131765000D01*
X83185000Y-110490000D02*
X89145000Y-110490000D01*
X78740000Y-118110000D02*
X81280000Y-120650000D01*
X81280000Y-120650000D02*
X83185000Y-120650000D01*
D42*
X146605000Y-117555000D02*
X146605000Y-99735000D01*
X146605000Y-99735000D02*
X145295000Y-98425000D01*
X140970000Y-117555000D02*
X146605000Y-117555000D01*
X96520000Y-60325000D02*
X96520000Y-63310000D01*
D41*
X115180000Y-51810000D02*
X113925000Y-51810000D01*
X113925000Y-51810000D02*
X112150000Y-51810000D01*
X81915000Y-49912500D02*
X78992500Y-49912500D01*
X78740000Y-50165000D02*
X76200000Y-49912500D01*
D40*
X78992500Y-49912500D02*
X78740000Y-50165000D01*
X84455000Y-78740000D02*
X84505000Y-78690000D01*
X60325000Y-60960000D02*
X57150000Y-64135000D01*
X57150000Y-64135000D02*
X55245000Y-64135000D01*
X60325000Y-55880000D02*
X60325000Y-60960000D01*
X69850000Y-46355000D02*
X60325000Y-55880000D01*
X91440000Y-46355000D02*
X69850000Y-46355000D01*
X98815000Y-53730000D02*
X91440000Y-46355000D01*
D41*
X103750000Y-53730000D02*
X103750000Y-51630000D01*
X103750000Y-54870000D02*
X103750000Y-53730000D01*
D40*
X103750000Y-53730000D02*
X98815000Y-53730000D01*
D38*
X94615000Y-55880000D02*
X81922500Y-55880000D01*
X81922500Y-55880000D02*
X81915000Y-55887500D01*
X91195000Y-120015000D02*
X93345000Y-120015000D01*
X90805000Y-59055000D02*
X86930000Y-59055000D01*
X86930000Y-59055000D02*
X86735000Y-58860000D01*
X90415000Y-99695000D02*
X90415000Y-98815000D01*
X90415000Y-98815000D02*
X90805000Y-98425000D01*
X88900000Y-92940000D02*
X88900000Y-92285000D01*
X88900000Y-92285000D02*
X86735000Y-90120000D01*
X91695000Y-95885000D02*
X91695000Y-95735000D01*
X91695000Y-95735000D02*
X88900000Y-92940000D01*
X95885000Y-103860000D02*
X93700000Y-103860000D01*
X93700000Y-103860000D02*
X93345000Y-103505000D01*
X93944998Y-95885000D02*
X91695000Y-95885000D01*
X95530000Y-100965000D02*
X93980000Y-100965000D01*
X95885000Y-100610000D02*
X95530000Y-100965000D01*
X75565000Y-118110000D02*
X75565000Y-116840000D01*
X114435000Y-133665000D02*
X115255000Y-133665000D01*
X115255000Y-133665000D02*
X115570000Y-133350000D01*
X112250000Y-124460000D02*
X108585000Y-124460000D01*
X108585000Y-124460000D02*
X105410000Y-127635000D01*
X108905000Y-129220000D02*
X107320000Y-127635000D01*
X107320000Y-127635000D02*
X105410000Y-127635000D01*
X112115000Y-129220000D02*
X108905000Y-129220000D01*
X65795000Y-95885000D02*
X65795000Y-91440000D01*
X65795000Y-91440000D02*
X67065000Y-90170000D01*
X78943723Y-130810000D02*
X67310000Y-130810000D01*
X87743011Y-130101989D02*
X88940000Y-128905000D01*
X88940000Y-128905000D02*
X89965000Y-128905000D01*
X66270685Y-131745000D02*
X65970685Y-131445000D01*
X88109286Y-130736990D02*
X87963266Y-130883010D01*
X65970685Y-131445000D02*
X65405000Y-131445000D01*
X89665000Y-131745000D02*
X66270685Y-131745000D01*
X89965000Y-131445000D02*
X89665000Y-131745000D01*
X87963266Y-130883010D02*
X79016733Y-130883010D01*
X79016733Y-130883010D02*
X78943723Y-130810000D01*
X89965000Y-130175000D02*
X88671276Y-130175000D01*
X88671276Y-130175000D02*
X88109286Y-130736990D01*
X89965000Y-132715000D02*
X64135000Y-132715000D01*
X112115000Y-128270000D02*
X111125000Y-128270000D01*
X127635000Y-102870000D02*
X127635000Y-100520000D01*
X127635000Y-100520000D02*
X127825000Y-100330000D01*
X130875000Y-114935000D02*
X132145000Y-116205000D01*
X133350000Y-107950000D02*
X130420000Y-107950000D01*
X130420000Y-107950000D02*
X129150000Y-109220000D01*
X133985000Y-108585000D02*
X133350000Y-107950000D01*
X133985000Y-111760000D02*
X133985000Y-108585000D01*
X134620000Y-112395000D02*
X133985000Y-111760000D01*
X135825000Y-112395000D02*
X134620000Y-112395000D01*
X123825000Y-111760000D02*
X122810000Y-111760000D01*
X127000000Y-122275000D02*
X125450000Y-122275000D01*
X125450000Y-122275000D02*
X125095000Y-121920000D01*
X123825000Y-114300000D02*
X122810000Y-114300000D01*
X127000000Y-119025000D02*
X125375000Y-119025000D01*
X125375000Y-119025000D02*
X125095000Y-118745000D01*
X114300000Y-126365000D02*
X114300000Y-127185000D01*
X114300000Y-127185000D02*
X114435000Y-127320000D01*
X122100000Y-126365000D02*
X120015000Y-126365000D01*
X143510000Y-121285000D02*
X142875000Y-120650000D01*
X142875000Y-120650000D02*
X135825000Y-120650000D01*
X143510000Y-125095000D02*
X143510000Y-121285000D01*
X134620000Y-133985000D02*
X143510000Y-125095000D01*
X122100000Y-133985000D02*
X134620000Y-133985000D01*
X104140000Y-127635000D02*
X103115000Y-126610000D01*
X103115000Y-126610000D02*
X102235000Y-126610000D01*
X105410000Y-127635000D02*
X104140000Y-127635000D01*
X101210000Y-128660000D02*
X100965000Y-128905000D01*
X100965000Y-128905000D02*
X99265000Y-128905000D01*
X102235000Y-128660000D02*
X101210000Y-128660000D01*
X105410000Y-130175000D02*
X99265000Y-130175000D01*
X105410000Y-132715000D02*
X104140000Y-131445000D01*
X104140000Y-131445000D02*
X99265000Y-131445000D01*
X114435000Y-131765000D02*
X114435000Y-130945000D01*
X113630999Y-128124001D02*
X114435000Y-127320000D01*
X114435000Y-130945000D02*
X113630999Y-130140999D01*
X113630999Y-130140999D02*
X113630999Y-128124001D01*
X117150000Y-131445000D02*
X116175000Y-131445000D01*
X116175000Y-131445000D02*
X114435000Y-129705000D01*
X114435000Y-129705000D02*
X114435000Y-129220000D01*
X84065000Y-128270000D02*
X84065000Y-129930000D01*
X76590000Y-121285000D02*
X76590000Y-120585000D01*
X76590000Y-120585000D02*
X75569001Y-119564001D01*
X75569001Y-119564001D02*
X70669001Y-119564001D01*
X70669001Y-119564001D02*
X69215000Y-118110000D01*
X74540000Y-121285000D02*
X69215000Y-121285000D01*
X69215000Y-121285000D02*
X66040000Y-118110000D01*
D41*
X134245000Y-75760000D02*
X136720000Y-75760000D01*
X136720000Y-75760000D02*
X138805000Y-75760000D01*
D38*
X144780000Y-81035000D02*
X144780000Y-83820000D01*
X144780000Y-83820000D02*
X145415000Y-84455000D01*
D42*
X104140000Y-63405000D02*
X104140000Y-63060000D01*
X104140000Y-63060000D02*
X110050000Y-57150000D01*
X104140000Y-67405000D02*
X100425000Y-67405000D01*
X100425000Y-67405000D02*
X96520000Y-71310000D01*
X61595000Y-66565000D02*
X61595000Y-72070000D01*
X61595000Y-72070000D02*
X63820000Y-74295000D01*
X65405000Y-64455000D02*
X63705000Y-64455000D01*
X63705000Y-64455000D02*
X61595000Y-66565000D01*
X69850000Y-64455000D02*
X65405000Y-64455000D01*
D41*
X73920000Y-78690000D02*
X71345000Y-78690000D01*
X71345000Y-78690000D02*
X67945000Y-75290000D01*
X63820000Y-74295000D02*
X66950000Y-74295000D01*
X66950000Y-74295000D02*
X67945000Y-75290000D01*
X63820000Y-69215000D02*
X67670000Y-69215000D01*
X67670000Y-69215000D02*
X67945000Y-69490000D01*
X55245000Y-74295000D02*
X59370000Y-74295000D01*
X55245000Y-69215000D02*
X59370000Y-69215000D01*
X86735000Y-90120000D02*
X82175000Y-90120000D01*
X82175000Y-93150000D02*
X82175000Y-90120000D01*
X78480000Y-90120000D02*
X73920000Y-90120000D01*
X78480000Y-78690000D02*
X76885000Y-78690000D01*
X76885000Y-78690000D02*
X73920000Y-78690000D01*
X76200000Y-83820000D02*
X76200000Y-79375000D01*
X76200000Y-79375000D02*
X76885000Y-78690000D01*
X86735000Y-78690000D02*
X85521000Y-78690000D01*
X84505000Y-78690000D02*
X83362000Y-78690000D01*
X84455000Y-83820000D02*
X84455000Y-78740000D01*
X84455000Y-65160000D02*
X84455000Y-72390000D01*
X76200000Y-65160000D02*
X76200000Y-72390000D01*
X82175000Y-58860000D02*
X82175000Y-56147500D01*
X82175000Y-56147500D02*
X81915000Y-55887500D01*
X73920000Y-58860000D02*
X73920000Y-58167500D01*
X73920000Y-58167500D02*
X76200000Y-55887500D01*
X81915000Y-55887500D02*
X76200000Y-55887500D01*
X110050000Y-57150000D02*
X117280000Y-57150000D01*
X103750000Y-51630000D02*
X105850000Y-49530000D01*
X103750000Y-59430000D02*
X103750000Y-54870000D01*
X123580000Y-54870000D02*
X123580000Y-51630000D01*
X123580000Y-51630000D02*
X121480000Y-49530000D01*
X123580000Y-59430000D02*
X123580000Y-54870000D01*
X112150000Y-51810000D02*
X112150000Y-47250000D01*
X115180000Y-47250000D02*
X115180000Y-51810000D01*
X112150000Y-47250000D02*
X115180000Y-47250000D01*
D43*
X119825000Y-100330000D02*
X124270000Y-104775000D01*
X127825000Y-100330000D02*
X127825000Y-97440000D01*
X127825000Y-97440000D02*
X123095000Y-92710000D01*
X127095000Y-92710000D02*
X132080000Y-92710000D01*
X132080000Y-92710000D02*
X137795000Y-98425000D01*
D38*
X148590000Y-81035000D02*
X146685000Y-81035000D01*
X144780000Y-78985000D02*
X142875000Y-78985000D01*
X146685000Y-78985000D02*
X144780000Y-78985000D01*
X148590000Y-78985000D02*
X145620000Y-76015000D01*
X145620000Y-76015000D02*
X145415000Y-76015000D01*
D41*
X134245000Y-78790000D02*
X134245000Y-75760000D01*
X138805000Y-78790000D02*
X134245000Y-78790000D01*
X138805000Y-75760000D02*
X138805000Y-78790000D01*
D38*
X104530000Y-116205000D02*
X104530000Y-118110000D01*
X104530000Y-114300000D02*
X104530000Y-116205000D01*
X102480000Y-114300000D02*
X102480000Y-116205000D01*
X97400000Y-111125000D02*
X93735000Y-111125000D01*
X93735000Y-111125000D02*
X91195000Y-108585000D01*
X98995000Y-113665000D02*
X98995000Y-111580000D01*
X98995000Y-111580000D02*
X99450000Y-111125000D01*
X94045000Y-114935000D02*
X91830000Y-114935000D01*
X91830000Y-114935000D02*
X91195000Y-114300000D01*
X94045000Y-116205000D02*
X91195000Y-116205000D01*
X89145000Y-118110000D02*
X89145000Y-120015000D01*
X89145000Y-116205000D02*
X89145000Y-118110000D01*
X91195000Y-114300000D02*
X91050000Y-114300000D01*
X91050000Y-114300000D02*
X89145000Y-112395000D01*
X89145000Y-108585000D02*
X89145000Y-110490000D01*
X91195000Y-110490000D02*
X91195000Y-112395000D01*
X92775000Y-112395000D02*
X91195000Y-112395000D01*
X94045000Y-113665000D02*
X92775000Y-112395000D01*
X94045000Y-117475000D02*
X91830000Y-117475000D01*
X91830000Y-117475000D02*
X91195000Y-118110000D01*
D39*
X65015000Y-86360000D02*
X63500000Y-86360000D01*
X65015000Y-88265000D02*
X61543554Y-88265000D01*
X61543554Y-88265000D02*
X57751153Y-84472599D01*
X57751153Y-84472599D02*
X55862401Y-84472599D01*
X55862401Y-84472599D02*
X54610000Y-85725000D01*
D38*
X65015000Y-90170000D02*
X61595000Y-90170000D01*
X61595000Y-90170000D02*
X57150000Y-85725000D01*
X65015000Y-80645000D02*
X65015000Y-79945000D01*
X63652988Y-78582988D02*
X54132012Y-78582988D01*
X54132012Y-78582988D02*
X52070000Y-80645000D01*
X65015000Y-79945000D02*
X63652988Y-78582988D01*
X65015000Y-82550000D02*
X61755999Y-79290999D01*
X55964001Y-79290999D02*
X54610000Y-80645000D01*
X61755999Y-79290999D02*
X55964001Y-79290999D01*
X65015000Y-84455000D02*
X60960000Y-84455000D01*
X60960000Y-84455000D02*
X57150000Y-80645000D01*
D43*
X95250000Y-81915000D02*
X95250000Y-84872500D01*
X95250000Y-84872500D02*
X95032500Y-85090000D01*
X96520000Y-80645000D02*
X95250000Y-81915000D01*
X97155000Y-80645000D02*
X96520000Y-80645000D01*
X98007500Y-85090000D02*
X99060000Y-84037500D01*
X99060000Y-84037500D02*
X99695000Y-84037500D01*
X99695000Y-84037500D02*
X99695000Y-80645000D01*
X100747500Y-85090000D02*
X99695000Y-84037500D01*
X103722500Y-85090000D02*
X103722500Y-82132500D01*
X103722500Y-82132500D02*
X102235000Y-80645000D01*
D38*
X107950000Y-95640000D02*
X107070000Y-96520000D01*
X107070000Y-96520000D02*
X104710000Y-96520000D01*
X110490000Y-96265000D02*
X108575000Y-96265000D01*
X108575000Y-96265000D02*
X107950000Y-95640000D01*
X113030000Y-96275000D02*
X112720000Y-96275000D01*
X112720000Y-96275000D02*
X109855000Y-99140000D01*
X113030000Y-94225000D02*
X112530000Y-94225000D01*
X112530000Y-94225000D02*
X110490000Y-96265000D01*
X107950000Y-93590000D02*
X109865000Y-93590000D01*
X109865000Y-93590000D02*
X110490000Y-92965000D01*
X104710000Y-92710000D02*
X107070000Y-92710000D01*
X107070000Y-92710000D02*
X107950000Y-93590000D01*
X101600000Y-95237480D02*
X101587480Y-95250000D01*
X104710000Y-95250000D02*
X101587480Y-95250000D01*
X97155000Y-92955000D02*
X97155000Y-91685000D01*
X97155000Y-91685000D02*
X98035000Y-90805000D01*
X94995000Y-93345000D02*
X94995000Y-95885000D01*
X97155000Y-95005000D02*
X95875000Y-95005000D01*
X95875000Y-95005000D02*
X94995000Y-95885000D01*
X99760000Y-100965000D02*
X96240000Y-100965000D01*
X96240000Y-100965000D02*
X95885000Y-100610000D01*
X97155000Y-99060000D02*
X93100000Y-99060000D01*
X93100000Y-99060000D02*
X92465000Y-99695000D01*
X97790000Y-99695000D02*
X97155000Y-99060000D01*
X99760000Y-99695000D02*
X97790000Y-99695000D01*
X104710000Y-103505000D02*
X109220000Y-103505000D01*
X109220000Y-103505000D02*
X109855000Y-104140000D01*
X99760000Y-103505000D02*
X96240000Y-103505000D01*
X96240000Y-103505000D02*
X95885000Y-103860000D01*
X99760000Y-102235000D02*
X92465000Y-102235000D01*
X131200000Y-109220000D02*
X132702480Y-110722480D01*
X135825000Y-113665000D02*
X132702480Y-113665000D01*
X128270000Y-111615000D02*
X128270000Y-110100000D01*
X128270000Y-110100000D02*
X129150000Y-109220000D01*
X128270000Y-113665000D02*
X126745000Y-113665000D01*
X126745000Y-113665000D02*
X126110000Y-114300000D01*
X126110000Y-111760000D02*
X126110000Y-114300000D01*
X139065000Y-112005000D02*
X138185000Y-111125000D01*
X138185000Y-111125000D02*
X135825000Y-111125000D01*
X139065000Y-114055000D02*
X138185000Y-114935000D01*
X138185000Y-114935000D02*
X135825000Y-114935000D01*
X141605000Y-114680000D02*
X139690000Y-114680000D01*
X139690000Y-114680000D02*
X139065000Y-114055000D01*
X141605000Y-111380000D02*
X139690000Y-111380000D01*
X139690000Y-111380000D02*
X139065000Y-112005000D01*
X144145000Y-112640000D02*
X143645000Y-112640000D01*
X143645000Y-112640000D02*
X141605000Y-114680000D01*
X140970000Y-117555000D02*
X141280000Y-117555000D01*
X141280000Y-117555000D02*
X144145000Y-114690000D01*
X130240000Y-117475000D02*
X124215000Y-117475000D01*
X124215000Y-117475000D02*
X123580000Y-118110000D01*
X130875000Y-118110000D02*
X130240000Y-117475000D01*
X130875000Y-120650000D02*
X123580000Y-120650000D01*
X130875000Y-119380000D02*
X127355000Y-119380000D01*
X127355000Y-119380000D02*
X127000000Y-119025000D01*
X140970000Y-117555000D02*
X136380000Y-117555000D01*
X136380000Y-117555000D02*
X135825000Y-118110000D01*
X140970000Y-122555000D02*
X136460000Y-122555000D01*
X136460000Y-122555000D02*
X135825000Y-121920000D01*
X127000000Y-122275000D02*
X130520000Y-122275000D01*
X130520000Y-122275000D02*
X130875000Y-121920000D01*
X114300000Y-124460000D02*
X115245000Y-124460000D01*
X115245000Y-124460000D02*
X117150000Y-126365000D01*
X115570000Y-129570000D02*
X115570000Y-126970000D01*
X115570000Y-126970000D02*
X116175000Y-126365000D01*
X116175000Y-126365000D02*
X117150000Y-126365000D01*
X117150000Y-130175000D02*
X116175000Y-130175000D01*
X116175000Y-130175000D02*
X115570000Y-129570000D01*
X122100000Y-126365000D02*
X122100000Y-124005000D01*
X122100000Y-124005000D02*
X121920000Y-123825000D01*
X123825000Y-131965000D02*
X123825000Y-129655000D01*
X123825000Y-129655000D02*
X123075000Y-128905000D01*
X123075000Y-128905000D02*
X122100000Y-128905000D01*
X122100000Y-132715000D02*
X123075000Y-132715000D01*
X123075000Y-132715000D02*
X123825000Y-131965000D01*
X122100000Y-127635000D02*
X117150000Y-127635000D01*
X112115000Y-132715000D02*
X111125000Y-132715000D01*
X111125000Y-132715000D02*
X110100000Y-131690000D01*
X112115000Y-133665000D02*
X110175000Y-133665000D01*
X110175000Y-133665000D02*
X110100000Y-133740000D01*
X117150000Y-131445000D02*
X122100000Y-131445000D01*
X86250000Y-124145000D02*
X85445999Y-124949001D01*
X85445999Y-124949001D02*
X85445999Y-127600999D01*
X85445999Y-127600999D02*
X86115000Y-128270000D01*
X84065000Y-128270000D02*
X84065000Y-126180000D01*
X84065000Y-126180000D02*
X83930000Y-126045000D01*
X81915000Y-126120000D02*
X82940000Y-125095000D01*
X82940000Y-125095000D02*
X83930000Y-125095000D01*
X79375000Y-126120000D02*
X81915000Y-126120000D01*
X76770000Y-126365000D02*
X79130000Y-126365000D01*
X79130000Y-126365000D02*
X79375000Y-126120000D01*
X76770000Y-127635000D02*
X75795000Y-127635000D01*
X75795000Y-127635000D02*
X74540000Y-126380000D01*
X74540000Y-126380000D02*
X74540000Y-121285000D01*
X76770000Y-123825000D02*
X76770000Y-121465000D01*
X76770000Y-121465000D02*
X76590000Y-121285000D01*
X79375000Y-124070000D02*
X77015000Y-124070000D01*
X77015000Y-124070000D02*
X76770000Y-123825000D01*
X81915000Y-124070000D02*
X79375000Y-124070000D01*
X76770000Y-125095000D02*
X76770000Y-123825000D01*
X71820000Y-125095000D02*
X70230000Y-125095000D01*
X70230000Y-125095000D02*
X69215000Y-124080000D01*
X71820000Y-126365000D02*
X70230000Y-126365000D01*
X70230000Y-126365000D02*
X69215000Y-127380000D01*
X67065000Y-127000000D02*
X68835000Y-127000000D01*
X68835000Y-127000000D02*
X69215000Y-127380000D01*
X67065000Y-124460000D02*
X68835000Y-124460000D01*
X68835000Y-124460000D02*
X69215000Y-124080000D01*
X56515000Y-125530702D02*
X56515000Y-114300000D01*
X56515000Y-114300000D02*
X59055000Y-111760000D01*
X61595000Y-127635000D02*
X58619298Y-127635000D01*
X58619298Y-127635000D02*
X56515000Y-125530702D01*
X59055000Y-111760000D02*
X60207501Y-112912501D01*
X60207501Y-114182501D02*
X61595000Y-115570000D01*
X60207501Y-112912501D02*
X60207501Y-114182501D01*
X62865000Y-114300000D02*
X62865000Y-123825000D01*
X62865000Y-123825000D02*
X61595000Y-125095000D01*
X61595000Y-113030000D02*
X62865000Y-114300000D01*
X59055000Y-114300000D02*
X57902499Y-115452501D01*
X57902499Y-115452501D02*
X57902499Y-125212499D01*
X57902499Y-125212499D02*
X59055000Y-126365000D01*
X65015000Y-127000000D02*
X64497499Y-126482499D01*
X64497499Y-126482499D02*
X59172499Y-126482499D01*
X59172499Y-126482499D02*
X59055000Y-126365000D01*
X61595000Y-125095000D02*
X64380000Y-125095000D01*
X64380000Y-125095000D02*
X65015000Y-124460000D01*
X65795000Y-101600000D02*
X65795000Y-103505000D01*
X65795000Y-99695000D02*
X65795000Y-101600000D01*
X65795000Y-97790000D02*
X65795000Y-99695000D01*
X65795000Y-95885000D02*
X65795000Y-97790000D01*
X51435000Y-83185000D02*
X50715999Y-83904001D01*
X50715999Y-83904001D02*
X50715999Y-86910999D01*
X50715999Y-86910999D02*
X52070000Y-88265000D01*
X52070000Y-83185000D02*
X51435000Y-83185000D01*
X57150000Y-83185000D02*
X54610000Y-83185000D01*
X54610000Y-83185000D02*
X52070000Y-83185000D01*
X54610000Y-88265000D02*
X52070000Y-88265000D01*
X52705000Y-93345000D02*
X52705000Y-88900000D01*
X52705000Y-88900000D02*
X52070000Y-88265000D01*
X52705000Y-95885000D02*
X52705000Y-93345000D01*
X52705000Y-98425000D02*
X52705000Y-95885000D01*
X52705000Y-100965000D02*
X52705000Y-98425000D01*
X52705000Y-103505000D02*
X52705000Y-100965000D01*
X63745000Y-103505000D02*
X60325000Y-103505000D01*
X63745000Y-101600000D02*
X60960000Y-101600000D01*
X60960000Y-101600000D02*
X60325000Y-100965000D01*
X63745000Y-99695000D02*
X61595000Y-99695000D01*
X61595000Y-99695000D02*
X60325000Y-98425000D01*
X63745000Y-97790000D02*
X62230000Y-97790000D01*
X62230000Y-97790000D02*
X60325000Y-95885000D01*
X63745000Y-95885000D02*
X62865000Y-95885000D01*
X62865000Y-95885000D02*
X60325000Y-93345000D01*
X105790000Y-104585000D02*
X104710000Y-103505000D01*
X105790000Y-106045000D02*
X105790000Y-104585000D01*
X101101000Y-106045000D02*
X100974000Y-105918000D01*
X102490000Y-106045000D02*
X101101000Y-106045000D01*
X98924000Y-104341000D02*
X99760000Y-103505000D01*
X98924000Y-105918000D02*
X98924000Y-104341000D01*
X137032000Y-123127000D02*
X135825000Y-121920000D01*
X137032000Y-125222000D02*
X137032000Y-123127000D01*
X133732000Y-125222000D02*
X131962000Y-125222000D01*
X129912000Y-122883000D02*
X130875000Y-121920000D01*
X129912000Y-125222000D02*
X129912000Y-122883000D01*
X135825000Y-119380000D02*
X134366000Y-119380000D01*
X134366000Y-119380000D02*
X133604000Y-120142000D01*
X133604000Y-120142000D02*
X133604000Y-122428000D01*
X133604000Y-122428000D02*
X135255000Y-124079000D01*
X135255000Y-124079000D02*
X135255000Y-126746000D01*
X131826000Y-130175000D02*
X125095000Y-130175000D01*
X135255000Y-126746000D02*
X131826000Y-130175000D01*
X120777000Y-130175000D02*
X122100000Y-130175000D01*
G36*
X140844000Y-49557587D02*
G01*
X140867055Y-49607713D01*
X145350128Y-53450347D01*
X145392442Y-53466000D01*
X152020000Y-53466000D01*
X152020001Y-105284000D01*
X141096000Y-105284000D01*
X141096000Y-80708355D01*
X141791082Y-80708355D01*
X141791082Y-81364403D01*
X141793238Y-81380778D01*
X141867512Y-81657971D01*
X141880255Y-81682451D01*
X142010458Y-81837622D01*
X142027347Y-81851794D01*
X142200366Y-81951685D01*
X142221083Y-81959226D01*
X142412394Y-81992959D01*
X142423355Y-81993918D01*
X142545877Y-81993918D01*
X142569914Y-82008133D01*
X142587373Y-82015205D01*
X142797501Y-82065652D01*
X142816268Y-82067278D01*
X143031941Y-82053709D01*
X143050356Y-82049744D01*
X143198096Y-81993918D01*
X143329403Y-81993918D01*
X143345778Y-81991762D01*
X143622971Y-81917488D01*
X143647451Y-81904745D01*
X143802622Y-81774542D01*
X143816794Y-81757653D01*
X143916685Y-81584634D01*
X143924226Y-81563917D01*
X143957959Y-81372606D01*
X143958918Y-81361645D01*
X143958918Y-80705597D01*
X143956762Y-80689222D01*
X143882488Y-80412029D01*
X143869745Y-80387549D01*
X143739542Y-80232378D01*
X143722653Y-80218206D01*
X143549634Y-80118315D01*
X143528917Y-80110774D01*
X143337606Y-80077041D01*
X143326645Y-80076082D01*
X142420597Y-80076082D01*
X142404222Y-80078238D01*
X142127029Y-80152512D01*
X142102549Y-80165255D01*
X141947378Y-80295458D01*
X141933206Y-80312347D01*
X141833315Y-80485366D01*
X141825774Y-80506083D01*
X141792041Y-80697394D01*
X141791082Y-80708355D01*
X141096000Y-80708355D01*
X141096000Y-80592809D01*
X141022191Y-80519000D01*
X132206000Y-80519000D01*
X132206000Y-78658355D01*
X141791082Y-78658355D01*
X141791082Y-79314403D01*
X141793238Y-79330778D01*
X141867512Y-79607971D01*
X141880255Y-79632451D01*
X142010458Y-79787622D01*
X142027347Y-79801794D01*
X142200366Y-79901685D01*
X142221083Y-79909226D01*
X142412394Y-79942959D01*
X142423355Y-79943918D01*
X143329403Y-79943918D01*
X143345778Y-79941762D01*
X143622971Y-79867488D01*
X143647451Y-79854745D01*
X143802622Y-79724542D01*
X143816793Y-79707653D01*
X143829658Y-79685369D01*
X143915458Y-79787622D01*
X143932347Y-79801794D01*
X144105366Y-79901685D01*
X144126083Y-79909226D01*
X144317394Y-79942959D01*
X144328355Y-79943918D01*
X145234403Y-79943918D01*
X145250778Y-79941762D01*
X145527971Y-79867488D01*
X145552451Y-79854745D01*
X145707622Y-79724542D01*
X145721793Y-79707653D01*
X145734658Y-79685369D01*
X145820458Y-79787622D01*
X145837347Y-79801794D01*
X146010366Y-79901685D01*
X146031083Y-79909226D01*
X146222394Y-79942959D01*
X146233355Y-79943918D01*
X146888163Y-79943918D01*
X147020327Y-80076082D01*
X146230597Y-80076082D01*
X146214222Y-80078238D01*
X145937029Y-80152512D01*
X145912549Y-80165255D01*
X145757378Y-80295458D01*
X145743206Y-80312347D01*
X145643315Y-80485366D01*
X145635774Y-80506083D01*
X145602041Y-80697394D01*
X145601082Y-80708355D01*
X145601082Y-81364403D01*
X145603238Y-81380778D01*
X145677512Y-81657971D01*
X145690255Y-81682451D01*
X145820458Y-81837622D01*
X145837347Y-81851794D01*
X146010366Y-81951685D01*
X146031083Y-81959226D01*
X146222394Y-81992959D01*
X146233355Y-81993918D01*
X147139403Y-81993918D01*
X147155778Y-81991762D01*
X147432971Y-81917488D01*
X147457451Y-81904745D01*
X147612622Y-81774542D01*
X147626793Y-81757653D01*
X147639658Y-81735369D01*
X147725458Y-81837622D01*
X147742347Y-81851794D01*
X147915366Y-81951685D01*
X147936083Y-81959226D01*
X148127394Y-81992959D01*
X148138355Y-81993918D01*
X149044403Y-81993918D01*
X149060778Y-81991762D01*
X149337971Y-81917488D01*
X149362451Y-81904745D01*
X149517622Y-81774542D01*
X149531794Y-81757653D01*
X149631685Y-81584634D01*
X149639226Y-81563917D01*
X149672959Y-81372606D01*
X149673918Y-81361645D01*
X149673918Y-80705597D01*
X149671762Y-80689222D01*
X149597488Y-80412029D01*
X149584745Y-80387549D01*
X149567757Y-80367303D01*
X149661418Y-80304721D01*
X149678969Y-80287170D01*
X149701753Y-80253070D01*
X149983071Y-79971753D01*
X150017171Y-79948968D01*
X150034721Y-79931418D01*
X150138774Y-79775691D01*
X150148272Y-79752761D01*
X150175597Y-79615391D01*
X150175598Y-79615381D01*
X150184810Y-79569069D01*
X150184810Y-79544250D01*
X150176810Y-79504030D01*
X150176810Y-78465971D01*
X150184810Y-78425751D01*
X150184810Y-78400932D01*
X150175598Y-78354617D01*
X150175597Y-78354609D01*
X150148272Y-78217239D01*
X150138774Y-78194309D01*
X150034721Y-78038582D01*
X150017170Y-78021031D01*
X149983070Y-77998247D01*
X147854400Y-75869578D01*
X147854400Y-74538742D01*
X147868172Y-74625695D01*
X147871016Y-74636892D01*
X147945669Y-74847708D01*
X147950506Y-74858200D01*
X148062328Y-75051881D01*
X148068996Y-75061316D01*
X148214242Y-75231376D01*
X148222517Y-75239438D01*
X148396321Y-75380182D01*
X148405927Y-75386600D01*
X148602469Y-75493314D01*
X148613084Y-75497875D01*
X148825782Y-75566984D01*
X148837051Y-75569534D01*
X149058781Y-75598725D01*
X149070325Y-75599179D01*
X149293663Y-75587475D01*
X149305097Y-75585817D01*
X149522561Y-75533608D01*
X149533502Y-75529894D01*
X149737810Y-75438930D01*
X149747890Y-75433285D01*
X149932201Y-75306612D01*
X149941084Y-75299224D01*
X150099224Y-75141084D01*
X150106612Y-75132201D01*
X150233285Y-74947890D01*
X150238930Y-74937810D01*
X150329894Y-74733502D01*
X150333608Y-74722561D01*
X150386010Y-74504293D01*
X150387734Y-74491199D01*
X150395211Y-74205652D01*
X150394174Y-74192486D01*
X150353268Y-73971774D01*
X150350132Y-73960654D01*
X150269985Y-73751865D01*
X150264875Y-73741504D01*
X150148021Y-73550816D01*
X150141109Y-73541559D01*
X149991462Y-73375359D01*
X149982978Y-73367516D01*
X149805550Y-73231371D01*
X149795779Y-73225206D01*
X149596511Y-73123674D01*
X149585780Y-73119392D01*
X149371346Y-73055874D01*
X149360015Y-73053620D01*
X149137596Y-73030242D01*
X149126043Y-73030091D01*
X148903089Y-73047639D01*
X148891703Y-73049595D01*
X148675679Y-73107478D01*
X148664840Y-73111477D01*
X148462982Y-73207758D01*
X148453052Y-73213666D01*
X148272121Y-73345120D01*
X148263436Y-73352738D01*
X148109489Y-73514962D01*
X148102336Y-73524036D01*
X147980531Y-73711599D01*
X147975152Y-73721824D01*
X147889567Y-73928444D01*
X147886140Y-73939478D01*
X147854400Y-74088804D01*
X147854400Y-71172634D01*
X147857388Y-71157610D01*
X147868172Y-71225695D01*
X147871016Y-71236892D01*
X147945669Y-71447708D01*
X147950506Y-71458200D01*
X148062328Y-71651881D01*
X148068996Y-71661316D01*
X148214242Y-71831376D01*
X148222517Y-71839438D01*
X148396321Y-71980182D01*
X148405927Y-71986600D01*
X148602469Y-72093314D01*
X148613084Y-72097875D01*
X148825782Y-72166984D01*
X148837051Y-72169534D01*
X149058781Y-72198725D01*
X149070325Y-72199179D01*
X149293663Y-72187475D01*
X149305097Y-72185817D01*
X149522561Y-72133608D01*
X149533502Y-72129894D01*
X149737810Y-72038930D01*
X149747890Y-72033285D01*
X149932201Y-71906612D01*
X149941084Y-71899224D01*
X150099224Y-71741084D01*
X150106612Y-71732201D01*
X150233285Y-71547890D01*
X150238930Y-71537810D01*
X150329894Y-71333502D01*
X150333608Y-71322561D01*
X150386010Y-71104293D01*
X150387734Y-71091199D01*
X150395211Y-70805652D01*
X150394174Y-70792486D01*
X150353268Y-70571774D01*
X150350132Y-70560654D01*
X150269985Y-70351865D01*
X150264875Y-70341504D01*
X150148021Y-70150816D01*
X150141109Y-70141559D01*
X149991462Y-69975359D01*
X149982978Y-69967516D01*
X149805550Y-69831371D01*
X149795779Y-69825206D01*
X149596511Y-69723674D01*
X149585780Y-69719392D01*
X149371346Y-69655874D01*
X149360015Y-69653620D01*
X149137596Y-69630242D01*
X149126043Y-69630091D01*
X148903089Y-69647639D01*
X148891703Y-69649595D01*
X148675679Y-69707478D01*
X148664840Y-69711477D01*
X148462982Y-69807758D01*
X148453052Y-69813666D01*
X148272121Y-69945120D01*
X148263436Y-69952738D01*
X148109489Y-70114962D01*
X148102336Y-70124036D01*
X147980531Y-70311599D01*
X147975152Y-70321824D01*
X147889567Y-70528444D01*
X147886140Y-70539478D01*
X147839642Y-70758235D01*
X147838284Y-70769708D01*
X147833271Y-70961146D01*
X147825862Y-70923897D01*
X147816364Y-70900967D01*
X147741989Y-70789657D01*
X147712311Y-70745240D01*
X147694760Y-70727689D01*
X147660660Y-70704905D01*
X146699976Y-69744222D01*
X146699976Y-68308810D01*
X146698763Y-68296490D01*
X146675421Y-68179142D01*
X146665923Y-68156211D01*
X146595995Y-68051556D01*
X146578444Y-68034005D01*
X146473789Y-67964077D01*
X146450858Y-67954579D01*
X146333510Y-67931237D01*
X146321190Y-67930024D01*
X144508810Y-67930024D01*
X144496490Y-67931237D01*
X144379142Y-67954579D01*
X144356211Y-67964077D01*
X144251556Y-68034005D01*
X144234005Y-68051556D01*
X144164077Y-68156211D01*
X144154579Y-68179142D01*
X144131237Y-68296490D01*
X144130024Y-68308810D01*
X144130024Y-70121190D01*
X144131237Y-70133510D01*
X144154579Y-70250858D01*
X144164077Y-70273789D01*
X144234005Y-70378444D01*
X144251556Y-70395995D01*
X144356211Y-70465923D01*
X144379142Y-70475421D01*
X144496490Y-70498763D01*
X144508810Y-70499976D01*
X145944221Y-70499976D01*
X146785600Y-71341356D01*
X146785601Y-76147361D01*
X146777599Y-76187590D01*
X146777599Y-76212410D01*
X146792684Y-76288246D01*
X146687936Y-76183498D01*
X146695211Y-75905652D01*
X146694174Y-75892486D01*
X146653268Y-75671774D01*
X146650132Y-75660654D01*
X146569985Y-75451865D01*
X146564875Y-75441504D01*
X146448021Y-75250816D01*
X146441109Y-75241559D01*
X146291462Y-75075359D01*
X146282978Y-75067516D01*
X146105550Y-74931371D01*
X146095779Y-74925206D01*
X145896511Y-74823674D01*
X145885780Y-74819392D01*
X145671346Y-74755874D01*
X145660015Y-74753620D01*
X145437596Y-74730242D01*
X145426043Y-74730091D01*
X145203089Y-74747639D01*
X145191703Y-74749595D01*
X144975679Y-74807478D01*
X144964840Y-74811477D01*
X144762982Y-74907758D01*
X144753052Y-74913666D01*
X144572121Y-75045120D01*
X144563436Y-75052738D01*
X144409489Y-75214962D01*
X144402336Y-75224036D01*
X144280531Y-75411599D01*
X144275152Y-75421824D01*
X144189567Y-75628444D01*
X144186140Y-75639478D01*
X144139642Y-75858235D01*
X144138284Y-75869708D01*
X144132430Y-76093274D01*
X144133186Y-76104803D01*
X144168172Y-76325695D01*
X144171016Y-76336892D01*
X144245669Y-76547708D01*
X144250506Y-76558200D01*
X144362328Y-76751881D01*
X144368996Y-76761316D01*
X144514242Y-76931376D01*
X144522517Y-76939438D01*
X144696321Y-77080182D01*
X144705927Y-77086600D01*
X144902469Y-77193314D01*
X144913084Y-77197875D01*
X145125782Y-77266984D01*
X145137051Y-77269534D01*
X145358781Y-77298725D01*
X145370325Y-77299179D01*
X145593663Y-77287475D01*
X145605097Y-77285817D01*
X145822561Y-77233608D01*
X145833501Y-77229894D01*
X145904047Y-77198486D01*
X146731643Y-78026082D01*
X146230597Y-78026082D01*
X146214222Y-78028238D01*
X145937029Y-78102512D01*
X145912549Y-78115255D01*
X145757378Y-78245458D01*
X145743207Y-78262347D01*
X145730342Y-78284631D01*
X145644542Y-78182378D01*
X145627653Y-78168206D01*
X145454634Y-78068315D01*
X145433917Y-78060774D01*
X145242606Y-78027041D01*
X145231645Y-78026082D01*
X144325597Y-78026082D01*
X144309222Y-78028238D01*
X144032029Y-78102512D01*
X144007549Y-78115255D01*
X143852378Y-78245458D01*
X143838207Y-78262347D01*
X143825342Y-78284631D01*
X143739542Y-78182378D01*
X143722653Y-78168206D01*
X143549634Y-78068315D01*
X143528917Y-78060774D01*
X143337606Y-78027041D01*
X143326645Y-78026082D01*
X142420597Y-78026082D01*
X142404222Y-78028238D01*
X142127029Y-78102512D01*
X142102549Y-78115255D01*
X141947378Y-78245458D01*
X141933206Y-78262347D01*
X141833315Y-78435366D01*
X141825774Y-78456083D01*
X141792041Y-78647394D01*
X141791082Y-78658355D01*
X132206000Y-78658355D01*
X132206000Y-73786000D01*
X141022191Y-73786000D01*
X141096000Y-73712191D01*
X141096000Y-65370418D01*
X141060695Y-65310945D01*
X134111000Y-61520202D01*
X134111000Y-50792274D01*
X134109112Y-50776936D01*
X133476000Y-48244489D01*
X133476000Y-44576000D01*
X140844000Y-44576000D01*
X140844000Y-49557587D01*
G37*
D44*
X140844000Y-49557587D02*
X140867055Y-49607713D01*
X145350128Y-53450347D01*
X145392442Y-53466000D01*
X152020000Y-53466000D01*
X152020001Y-105284000D01*
X141096000Y-105284000D01*
X141096000Y-80708355D01*
X141791082Y-80708355D01*
X141791082Y-81364403D01*
X141793238Y-81380778D01*
X141867512Y-81657971D01*
X141880255Y-81682451D01*
X142010458Y-81837622D01*
X142027347Y-81851794D01*
X142200366Y-81951685D01*
X142221083Y-81959226D01*
X142412394Y-81992959D01*
X142423355Y-81993918D01*
X142545877Y-81993918D01*
X142569914Y-82008133D01*
X142587373Y-82015205D01*
X142797501Y-82065652D01*
X142816268Y-82067278D01*
X143031941Y-82053709D01*
X143050356Y-82049744D01*
X143198096Y-81993918D01*
X143329403Y-81993918D01*
X143345778Y-81991762D01*
X143622971Y-81917488D01*
X143647451Y-81904745D01*
X143802622Y-81774542D01*
X143816794Y-81757653D01*
X143916685Y-81584634D01*
X143924226Y-81563917D01*
X143957959Y-81372606D01*
X143958918Y-81361645D01*
X143958918Y-80705597D01*
X143956762Y-80689222D01*
X143882488Y-80412029D01*
X143869745Y-80387549D01*
X143739542Y-80232378D01*
X143722653Y-80218206D01*
X143549634Y-80118315D01*
X143528917Y-80110774D01*
X143337606Y-80077041D01*
X143326645Y-80076082D01*
X142420597Y-80076082D01*
X142404222Y-80078238D01*
X142127029Y-80152512D01*
X142102549Y-80165255D01*
X141947378Y-80295458D01*
X141933206Y-80312347D01*
X141833315Y-80485366D01*
X141825774Y-80506083D01*
X141792041Y-80697394D01*
X141791082Y-80708355D01*
X141096000Y-80708355D01*
X141096000Y-80592809D01*
X141022191Y-80519000D01*
X132206000Y-80519000D01*
X132206000Y-78658355D01*
X141791082Y-78658355D01*
X141791082Y-79314403D01*
X141793238Y-79330778D01*
X141867512Y-79607971D01*
X141880255Y-79632451D01*
X142010458Y-79787622D01*
X142027347Y-79801794D01*
X142200366Y-79901685D01*
X142221083Y-79909226D01*
X142412394Y-79942959D01*
X142423355Y-79943918D01*
X143329403Y-79943918D01*
X143345778Y-79941762D01*
X143622971Y-79867488D01*
X143647451Y-79854745D01*
X143802622Y-79724542D01*
X143816793Y-79707653D01*
X143829658Y-79685369D01*
X143915458Y-79787622D01*
X143932347Y-79801794D01*
X144105366Y-79901685D01*
X144126083Y-79909226D01*
X144317394Y-79942959D01*
X144328355Y-79943918D01*
X145234403Y-79943918D01*
X145250778Y-79941762D01*
X145527971Y-79867488D01*
X145552451Y-79854745D01*
X145707622Y-79724542D01*
X145721793Y-79707653D01*
X145734658Y-79685369D01*
X145820458Y-79787622D01*
X145837347Y-79801794D01*
X146010366Y-79901685D01*
X146031083Y-79909226D01*
X146222394Y-79942959D01*
X146233355Y-79943918D01*
X146888163Y-79943918D01*
X147020327Y-80076082D01*
X146230597Y-80076082D01*
X146214222Y-80078238D01*
X145937029Y-80152512D01*
X145912549Y-80165255D01*
X145757378Y-80295458D01*
X145743206Y-80312347D01*
X145643315Y-80485366D01*
X145635774Y-80506083D01*
X145602041Y-80697394D01*
X145601082Y-80708355D01*
X145601082Y-81364403D01*
X145603238Y-81380778D01*
X145677512Y-81657971D01*
X145690255Y-81682451D01*
X145820458Y-81837622D01*
X145837347Y-81851794D01*
X146010366Y-81951685D01*
X146031083Y-81959226D01*
X146222394Y-81992959D01*
X146233355Y-81993918D01*
X147139403Y-81993918D01*
X147155778Y-81991762D01*
X147432971Y-81917488D01*
X147457451Y-81904745D01*
X147612622Y-81774542D01*
X147626793Y-81757653D01*
X147639658Y-81735369D01*
X147725458Y-81837622D01*
X147742347Y-81851794D01*
X147915366Y-81951685D01*
X147936083Y-81959226D01*
X148127394Y-81992959D01*
X148138355Y-81993918D01*
X149044403Y-81993918D01*
X149060778Y-81991762D01*
X149337971Y-81917488D01*
X149362451Y-81904745D01*
X149517622Y-81774542D01*
X149531794Y-81757653D01*
X149631685Y-81584634D01*
X149639226Y-81563917D01*
X149672959Y-81372606D01*
X149673918Y-81361645D01*
X149673918Y-80705597D01*
X149671762Y-80689222D01*
X149597488Y-80412029D01*
X149584745Y-80387549D01*
X149567757Y-80367303D01*
X149661418Y-80304721D01*
X149678969Y-80287170D01*
X149701753Y-80253070D01*
X149983071Y-79971753D01*
X150017171Y-79948968D01*
X150034721Y-79931418D01*
X150138774Y-79775691D01*
X150148272Y-79752761D01*
X150175597Y-79615391D01*
X150175598Y-79615381D01*
X150184810Y-79569069D01*
X150184810Y-79544250D01*
X150176810Y-79504030D01*
X150176810Y-78465971D01*
X150184810Y-78425751D01*
X150184810Y-78400932D01*
X150175598Y-78354617D01*
X150175597Y-78354609D01*
X150148272Y-78217239D01*
X150138774Y-78194309D01*
X150034721Y-78038582D01*
X150017170Y-78021031D01*
X149983070Y-77998247D01*
X147854400Y-75869578D01*
X147854400Y-74538742D01*
X147868172Y-74625695D01*
X147871016Y-74636892D01*
X147945669Y-74847708D01*
X147950506Y-74858200D01*
X148062328Y-75051881D01*
X148068996Y-75061316D01*
X148214242Y-75231376D01*
X148222517Y-75239438D01*
X148396321Y-75380182D01*
X148405927Y-75386600D01*
X148602469Y-75493314D01*
X148613084Y-75497875D01*
X148825782Y-75566984D01*
X148837051Y-75569534D01*
X149058781Y-75598725D01*
X149070325Y-75599179D01*
X149293663Y-75587475D01*
X149305097Y-75585817D01*
X149522561Y-75533608D01*
X149533502Y-75529894D01*
X149737810Y-75438930D01*
X149747890Y-75433285D01*
X149932201Y-75306612D01*
X149941084Y-75299224D01*
X150099224Y-75141084D01*
X150106612Y-75132201D01*
X150233285Y-74947890D01*
X150238930Y-74937810D01*
X150329894Y-74733502D01*
X150333608Y-74722561D01*
X150386010Y-74504293D01*
X150387734Y-74491199D01*
X150395211Y-74205652D01*
X150394174Y-74192486D01*
X150353268Y-73971774D01*
X150350132Y-73960654D01*
X150269985Y-73751865D01*
X150264875Y-73741504D01*
X150148021Y-73550816D01*
X150141109Y-73541559D01*
X149991462Y-73375359D01*
X149982978Y-73367516D01*
X149805550Y-73231371D01*
X149795779Y-73225206D01*
X149596511Y-73123674D01*
X149585780Y-73119392D01*
X149371346Y-73055874D01*
X149360015Y-73053620D01*
X149137596Y-73030242D01*
X149126043Y-73030091D01*
X148903089Y-73047639D01*
X148891703Y-73049595D01*
X148675679Y-73107478D01*
X148664840Y-73111477D01*
X148462982Y-73207758D01*
X148453052Y-73213666D01*
X148272121Y-73345120D01*
X148263436Y-73352738D01*
X148109489Y-73514962D01*
X148102336Y-73524036D01*
X147980531Y-73711599D01*
X147975152Y-73721824D01*
X147889567Y-73928444D01*
X147886140Y-73939478D01*
X147854400Y-74088804D01*
X147854400Y-71172634D01*
X147857388Y-71157610D01*
X147868172Y-71225695D01*
X147871016Y-71236892D01*
X147945669Y-71447708D01*
X147950506Y-71458200D01*
X148062328Y-71651881D01*
X148068996Y-71661316D01*
X148214242Y-71831376D01*
X148222517Y-71839438D01*
X148396321Y-71980182D01*
X148405927Y-71986600D01*
X148602469Y-72093314D01*
X148613084Y-72097875D01*
X148825782Y-72166984D01*
X148837051Y-72169534D01*
X149058781Y-72198725D01*
X149070325Y-72199179D01*
X149293663Y-72187475D01*
X149305097Y-72185817D01*
X149522561Y-72133608D01*
X149533502Y-72129894D01*
X149737810Y-72038930D01*
X149747890Y-72033285D01*
X149932201Y-71906612D01*
X149941084Y-71899224D01*
X150099224Y-71741084D01*
X150106612Y-71732201D01*
X150233285Y-71547890D01*
X150238930Y-71537810D01*
X150329894Y-71333502D01*
X150333608Y-71322561D01*
X150386010Y-71104293D01*
X150387734Y-71091199D01*
X150395211Y-70805652D01*
X150394174Y-70792486D01*
X150353268Y-70571774D01*
X150350132Y-70560654D01*
X150269985Y-70351865D01*
X150264875Y-70341504D01*
X150148021Y-70150816D01*
X150141109Y-70141559D01*
X149991462Y-69975359D01*
X149982978Y-69967516D01*
X149805550Y-69831371D01*
X149795779Y-69825206D01*
X149596511Y-69723674D01*
X149585780Y-69719392D01*
X149371346Y-69655874D01*
X149360015Y-69653620D01*
X149137596Y-69630242D01*
X149126043Y-69630091D01*
X148903089Y-69647639D01*
X148891703Y-69649595D01*
X148675679Y-69707478D01*
X148664840Y-69711477D01*
X148462982Y-69807758D01*
X148453052Y-69813666D01*
X148272121Y-69945120D01*
X148263436Y-69952738D01*
X148109489Y-70114962D01*
X148102336Y-70124036D01*
X147980531Y-70311599D01*
X147975152Y-70321824D01*
X147889567Y-70528444D01*
X147886140Y-70539478D01*
X147839642Y-70758235D01*
X147838284Y-70769708D01*
X147833271Y-70961146D01*
X147825862Y-70923897D01*
X147816364Y-70900967D01*
X147741989Y-70789657D01*
X147712311Y-70745240D01*
X147694760Y-70727689D01*
X147660660Y-70704905D01*
X146699976Y-69744222D01*
X146699976Y-68308810D01*
X146698763Y-68296490D01*
X146675421Y-68179142D01*
X146665923Y-68156211D01*
X146595995Y-68051556D01*
X146578444Y-68034005D01*
X146473789Y-67964077D01*
X146450858Y-67954579D01*
X146333510Y-67931237D01*
X146321190Y-67930024D01*
X144508810Y-67930024D01*
X144496490Y-67931237D01*
X144379142Y-67954579D01*
X144356211Y-67964077D01*
X144251556Y-68034005D01*
X144234005Y-68051556D01*
X144164077Y-68156211D01*
X144154579Y-68179142D01*
X144131237Y-68296490D01*
X144130024Y-68308810D01*
X144130024Y-70121190D01*
X144131237Y-70133510D01*
X144154579Y-70250858D01*
X144164077Y-70273789D01*
X144234005Y-70378444D01*
X144251556Y-70395995D01*
X144356211Y-70465923D01*
X144379142Y-70475421D01*
X144496490Y-70498763D01*
X144508810Y-70499976D01*
X145944221Y-70499976D01*
X146785600Y-71341356D01*
X146785601Y-76147361D01*
X146777599Y-76187590D01*
X146777599Y-76212410D01*
X146792684Y-76288246D01*
X146687936Y-76183498D01*
X146695211Y-75905652D01*
X146694174Y-75892486D01*
X146653268Y-75671774D01*
X146650132Y-75660654D01*
X146569985Y-75451865D01*
X146564875Y-75441504D01*
X146448021Y-75250816D01*
X146441109Y-75241559D01*
X146291462Y-75075359D01*
X146282978Y-75067516D01*
X146105550Y-74931371D01*
X146095779Y-74925206D01*
X145896511Y-74823674D01*
X145885780Y-74819392D01*
X145671346Y-74755874D01*
X145660015Y-74753620D01*
X145437596Y-74730242D01*
X145426043Y-74730091D01*
X145203089Y-74747639D01*
X145191703Y-74749595D01*
X144975679Y-74807478D01*
X144964840Y-74811477D01*
X144762982Y-74907758D01*
X144753052Y-74913666D01*
X144572121Y-75045120D01*
X144563436Y-75052738D01*
X144409489Y-75214962D01*
X144402336Y-75224036D01*
X144280531Y-75411599D01*
X144275152Y-75421824D01*
X144189567Y-75628444D01*
X144186140Y-75639478D01*
X144139642Y-75858235D01*
X144138284Y-75869708D01*
X144132430Y-76093274D01*
X144133186Y-76104803D01*
X144168172Y-76325695D01*
X144171016Y-76336892D01*
X144245669Y-76547708D01*
X144250506Y-76558200D01*
X144362328Y-76751881D01*
X144368996Y-76761316D01*
X144514242Y-76931376D01*
X144522517Y-76939438D01*
X144696321Y-77080182D01*
X144705927Y-77086600D01*
X144902469Y-77193314D01*
X144913084Y-77197875D01*
X145125782Y-77266984D01*
X145137051Y-77269534D01*
X145358781Y-77298725D01*
X145370325Y-77299179D01*
X145593663Y-77287475D01*
X145605097Y-77285817D01*
X145822561Y-77233608D01*
X145833501Y-77229894D01*
X145904047Y-77198486D01*
X146731643Y-78026082D01*
X146230597Y-78026082D01*
X146214222Y-78028238D01*
X145937029Y-78102512D01*
X145912549Y-78115255D01*
X145757378Y-78245458D01*
X145743207Y-78262347D01*
X145730342Y-78284631D01*
X145644542Y-78182378D01*
X145627653Y-78168206D01*
X145454634Y-78068315D01*
X145433917Y-78060774D01*
X145242606Y-78027041D01*
X145231645Y-78026082D01*
X144325597Y-78026082D01*
X144309222Y-78028238D01*
X144032029Y-78102512D01*
X144007549Y-78115255D01*
X143852378Y-78245458D01*
X143838207Y-78262347D01*
X143825342Y-78284631D01*
X143739542Y-78182378D01*
X143722653Y-78168206D01*
X143549634Y-78068315D01*
X143528917Y-78060774D01*
X143337606Y-78027041D01*
X143326645Y-78026082D01*
X142420597Y-78026082D01*
X142404222Y-78028238D01*
X142127029Y-78102512D01*
X142102549Y-78115255D01*
X141947378Y-78245458D01*
X141933206Y-78262347D01*
X141833315Y-78435366D01*
X141825774Y-78456083D01*
X141792041Y-78647394D01*
X141791082Y-78658355D01*
X132206000Y-78658355D01*
X132206000Y-73786000D01*
X141022191Y-73786000D01*
X141096000Y-73712191D01*
X141096000Y-65370418D01*
X141060695Y-65310945D01*
X134111000Y-61520202D01*
X134111000Y-50792274D01*
X134109112Y-50776936D01*
X133476000Y-48244489D01*
X133476000Y-44576000D01*
X140844000Y-44576000D01*
X140844000Y-49557587D01*
G36*
X129471993Y-81388699D02*
G01*
X129516244Y-81406000D01*
X140209000Y-81406000D01*
X140209000Y-101474000D01*
X132804147Y-101474000D01*
X129010482Y-90725282D01*
X128945066Y-90679000D01*
X113099448Y-90679000D01*
X105499217Y-78645303D01*
X105442424Y-78614000D01*
X88391000Y-78614000D01*
X88391000Y-73786000D01*
X121235737Y-73786000D01*
X129471993Y-81388699D01*
G37*
X129471993Y-81388699D02*
X129516244Y-81406000D01*
X140209000Y-81406000D01*
X140209000Y-101474000D01*
X132804147Y-101474000D01*
X129010482Y-90725282D01*
X128945066Y-90679000D01*
X113099448Y-90679000D01*
X105499217Y-78645303D01*
X105442424Y-78614000D01*
X88391000Y-78614000D01*
X88391000Y-73786000D01*
X121235737Y-73786000D01*
X129471993Y-81388699D01*
G36*
X88139000Y-71702810D02*
G01*
X86888182Y-72953627D01*
X86869000Y-72999937D01*
X86869000Y-76074000D01*
X80771000Y-76074000D01*
X80771000Y-61721000D01*
X88139000Y-61721000D01*
X88139000Y-71702810D01*
G37*
X88139000Y-71702810D02*
X86888182Y-72953627D01*
X86869000Y-72999937D01*
X86869000Y-76074000D01*
X80771000Y-76074000D01*
X80771000Y-61721000D01*
X88139000Y-61721000D01*
X88139000Y-71702810D01*
G36*
X79884000Y-76074000D02*
G01*
X75617190Y-76074000D01*
X72516000Y-72972810D01*
X72516000Y-61721000D01*
X79884000Y-61721000D01*
X79884000Y-76074000D01*
G37*
X79884000Y-76074000D02*
X75617190Y-76074000D01*
X72516000Y-72972810D01*
X72516000Y-61721000D01*
X79884000Y-61721000D01*
X79884000Y-76074000D01*
M02*
